<?xml version="1.0" standalone="no"?>
<!DOCTYPE svg PUBLIC "-//W3C//DTD SVG 1.1//EN" "http://www.w3.org/Graphics/SVG/1.1/DTD/svg11.dtd" >
<svg xmlns="http://www.w3.org/2000/svg" xmlns:xlink="http://www.w3.org/1999/xlink" version="1.1" viewBox="-10 0 468 512">
   <path fill="currentColor"
d="M175 488q-66 -33 -104.5 -95.5t-38.5 -136.5h384q0 74 -38.5 136.5t-104.5 95.5l-49 24zM352 64q26 0 48 13t35 35t13 48v32q0 13 -9.5 22.5t-22.5 9.5h-384q-13 0 -22.5 -9.5t-9.5 -22.5v-32q0 -40 28 -68t68 -28h106q8 -34 29 -59q5 -5 12 -5q6 -1 12 5l11 11
q10 11 1 22q-10 12 -15 26h100z" />
</svg>
