<?xml version="1.0" standalone="no"?>
<!DOCTYPE svg PUBLIC "-//W3C//DTD SVG 1.1//EN" "http://www.w3.org/Graphics/SVG/1.1/DTD/svg11.dtd" >
<svg xmlns="http://www.w3.org/2000/svg" xmlns:xlink="http://www.w3.org/1999/xlink" version="1.1" viewBox="-10 0 468 512">
   <path fill="currentColor"
d="M436 160h-20v64h20q12 0 12 12v40q0 12 -12 12h-20v64h20q12 0 12 12v40q0 12 -12 12h-20v48q0 20 -14 34t-34 14h-320q-20 0 -34 -14t-14 -34v-416q0 -20 14 -34t34 -14h320q20 0 34 14t14 34v48h20q12 0 12 12v40q0 12 -12 12zM208 128q-26 0 -45 19t-19 45t19 45
t45 19t45 -19t19 -45t-19 -45t-45 -19zM320 365v-19q0 -24 -19.5 -41t-47.5 -17h-5q-19 8 -40 8t-40 -8h-5q-18 0 -33.5 7.5t-24.5 21t-9 29.5v19q0 8 6.5 13.5t15.5 5.5h180q9 0 15.5 -5.5t6.5 -13.5z" />
</svg>
