<?xml version="1.0" standalone="no"?>
<!DOCTYPE svg PUBLIC "-//W3C//DTD SVG 1.1//EN" "http://www.w3.org/Graphics/SVG/1.1/DTD/svg11.dtd" >
<svg xmlns="http://www.w3.org/2000/svg" xmlns:xlink="http://www.w3.org/1999/xlink" version="1.1" viewBox="-10 0 596 512">
   <path fill="currentColor"
d="M528 32q20 0 34 14t14 34v352q0 20 -14 34t-34 14h-480q-20 0 -34 -14t-14 -34v-352q0 -20 14 -34t34 -14h480zM176 128q-26 0 -45 19t-19 45t19 45t45 19t45 -19t19 -45t-19 -45t-45 -19zM288 365v-19q0 -24 -19.5 -41t-47.5 -17h-5q-19 8 -40 8t-40 -8h-5
q-28 0 -47.5 17t-19.5 41v19q0 8 6.5 13.5t15.5 5.5h180q9 0 15.5 -5.5t6.5 -13.5zM512 312v-16q0 -8 -8 -8h-144q-8 0 -8 8v16q0 8 8 8h144q8 0 8 -8zM512 248v-16q0 -8 -8 -8h-144q-8 0 -8 8v16q0 8 8 8h144q8 0 8 -8zM512 184v-16q0 -8 -8 -8h-144q-8 0 -8 8v16q0 8 8 8
h144q8 0 8 -8z" />
</svg>
