<?xml version="1.0" standalone="no"?>
<!DOCTYPE svg PUBLIC "-//W3C//DTD SVG 1.1//EN" "http://www.w3.org/Graphics/SVG/1.1/DTD/svg11.dtd" >
<svg xmlns="http://www.w3.org/2000/svg" xmlns:xlink="http://www.w3.org/1999/xlink" version="1.1" viewBox="-10 0 532 512">
   <path fill="currentColor"
d="M96 0q10 0 22.5 3.5t24 9.5t18.5 13l-146 121q-15 -23 -15 -51q0 -40 28 -68t68 -28zM416 0q40 0 68 28t28 68q0 28 -15 51l-146 -121q7 -7 18.5 -13t24 -9.5t22.5 -3.5zM256 64q93 0 158.5 65.5t65.5 158.5q0 31 -13 70t-32 64l40 40q5 5 5 11.5t-5 11.5l-22 22
q-5 5 -11.5 5t-11.5 -5l-40 -40q-25 19 -64 32t-70 13t-70 -13t-64 -32l-40 40q-5 5 -11.5 5t-11.5 -5l-22 -22q-5 -5 -5 -11.5t5 -11.5l40 -40q-19 -25 -32 -64t-13 -70q0 -93 65.5 -158.5t158.5 -65.5zM256 416q13 0 22.5 -9.5t9.5 -22.5t-9.5 -22.5t-22.5 -9.5t-22.5 9.5
t-9.5 22.5t9.5 22.5t22.5 9.5zM281 306l13 -128v-2q0 -7 -4.5 -11.5t-11.5 -4.5h-44q-7 0 -11.5 4.5t-4.5 11.5v2l13 128q0 6 5 10t10 4h20q5 0 10 -4t5 -10z" />
</svg>
