<?xml version="1.0" standalone="no"?>
<!DOCTYPE svg PUBLIC "-//W3C//DTD SVG 1.1//EN" "http://www.w3.org/Graphics/SVG/1.1/DTD/svg11.dtd" >
<svg xmlns="http://www.w3.org/2000/svg" xmlns:xlink="http://www.w3.org/1999/xlink" version="1.1" viewBox="-10 0 468 512">
   <path fill="currentColor"
d="M224 224q13 0 22.5 9.5t9.5 22.5t-9.5 22.5t-22.5 9.5t-22.5 -9.5t-9.5 -22.5t9.5 -22.5t22.5 -9.5zM416 32q13 0 22.5 9.5t9.5 22.5v384q0 13 -9.5 22.5t-22.5 9.5h-384q-13 0 -22.5 -9.5t-9.5 -22.5v-384q0 -13 9.5 -22.5t22.5 -9.5h384zM224 416q66 0 113 -47t47 -113
t-47 -113t-113 -47t-113 47t-47 113t47 113t113 47z" />
</svg>
