<?xml version="1.0" standalone="no"?>
<!DOCTYPE svg PUBLIC "-//W3C//DTD SVG 1.1//EN" "http://www.w3.org/Graphics/SVG/1.1/DTD/svg11.dtd" >
<svg xmlns="http://www.w3.org/2000/svg" xmlns:xlink="http://www.w3.org/1999/xlink" version="1.1" viewBox="-10 0 532 512">
   <path fill="currentColor"
d="M496 104v24h-480v-24q0 -10 7 -17t17 -7h432q10 0 17 7t7 17zM480 24v24h-448v-24q0 -10 7 -17t17 -7h400q10 0 17 7t7 17zM256 326q12 0 21 6.5t9 15.5t-9 15t-21 6t-21 -6t-9 -15t9 -15.5t21 -6.5zM480 160q13 0 22.5 9.5t9.5 22.5v3l-26 288q-1 12 -10.5 20.5
t-21.5 8.5h-396q-12 0 -21.5 -8.5t-10.5 -20.5l-26 -288v-3q0 -13 9.5 -22.5t22.5 -9.5h448zM256 473q35 0 67 -10t56 -26.5t39 -39.5t17 -49q4 -57 -48.5 -98t-130.5 -41t-130.5 41t-48.5 98q2 34 27 63t65 45.5t87 16.5z" />
</svg>
