<?xml version="1.0" standalone="no"?>
<!DOCTYPE svg PUBLIC "-//W3C//DTD SVG 1.1//EN" "http://www.w3.org/Graphics/SVG/1.1/DTD/svg11.dtd" >
<svg xmlns="http://www.w3.org/2000/svg" xmlns:xlink="http://www.w3.org/1999/xlink" version="1.1" viewBox="-10 0 468 512">
   <path fill="currentColor"
d="M432 160q7 0 11.5 4.5t4.5 11.5v32q0 7 -4.5 11.5t-11.5 4.5h-416q-7 0 -11.5 -4.5t-4.5 -11.5v-32q0 -7 4.5 -11.5t11.5 -4.5h416zM432 416q7 0 11.5 4.5t4.5 11.5v32q0 7 -4.5 11.5t-11.5 4.5h-416q-7 0 -11.5 -4.5t-4.5 -11.5v-32q0 -7 4.5 -11.5t11.5 -4.5h416z
M108 96q-5 0 -8.5 -3.5t-3.5 -8.5v-40q0 -5 3.5 -8.5t8.5 -3.5h232q5 0 8.5 3.5t3.5 8.5v40q0 5 -3.5 8.5t-8.5 3.5h-232zM340 352h-232q-5 0 -8.5 -3.5t-3.5 -8.5v-40q0 -5 3.5 -8.5t8.5 -3.5h232q5 0 8.5 3.5t3.5 8.5v40q0 5 -3.5 8.5t-8.5 3.5z" />
</svg>
