<?xml version="1.0" standalone="no"?>
<!DOCTYPE svg PUBLIC "-//W3C//DTD SVG 1.1//EN" "http://www.w3.org/Graphics/SVG/1.1/DTD/svg11.dtd" >
<svg xmlns="http://www.w3.org/2000/svg" xmlns:xlink="http://www.w3.org/1999/xlink" version="1.1" viewBox="-10 0 468 512">
   <path fill="currentColor"
d="M416 112q13 0 22.5 9.5t9.5 22.5v176q0 22 -5 42l-27 113q-3 16 -16.5 26.5t-29.5 10.5h-198q-24 0 -39 -20l-125 -172q-10 -14 -7.5 -30.5t16 -26t30 -7t25.5 15.5l24 33v-241q0 -13 9.5 -22.5t22.5 -9.5t22.5 9.5t9.5 22.5v152q0 8 8 8h16q8 0 8 -8v-184
q0 -13 9.5 -22.5t22.5 -9.5t22.5 9.5t9.5 22.5v184q0 8 8 8h16q8 0 8 -8v-152q0 -13 9.5 -22.5t22.5 -9.5t22.5 9.5t9.5 22.5v152q0 8 8 8h16q8 0 8 -8v-72q0 -13 9.5 -22.5t22.5 -9.5zM176 416q7 0 11.5 -4.5t4.5 -11.5t-4.5 -11.5t-11.5 -4.5t-11.5 4.5t-4.5 11.5
t4.5 11.5t11.5 4.5zM176 320q7 0 11.5 -4.5t4.5 -11.5t-4.5 -11.5t-11.5 -4.5t-11.5 4.5t-4.5 11.5t4.5 11.5t11.5 4.5zM240 448q7 0 11.5 -4.5t4.5 -11.5t-4.5 -11.5t-11.5 -4.5t-11.5 4.5t-4.5 11.5t4.5 11.5t11.5 4.5zM240 352q7 0 11.5 -4.5t4.5 -11.5t-4.5 -11.5
t-11.5 -4.5t-11.5 4.5t-4.5 11.5t4.5 11.5t11.5 4.5zM304 384q7 0 11.5 -4.5t4.5 -11.5t-4.5 -11.5t-11.5 -4.5t-11.5 4.5t-4.5 11.5t4.5 11.5t11.5 4.5zM336 448q7 0 11.5 -4.5t4.5 -11.5t-4.5 -11.5t-11.5 -4.5t-11.5 4.5t-4.5 11.5t4.5 11.5t11.5 4.5zM368 320
q7 0 11.5 -4.5t4.5 -11.5t-4.5 -11.5t-11.5 -4.5t-11.5 4.5t-4.5 11.5t4.5 11.5t11.5 4.5z" />
</svg>
