<?xml version="1.0" standalone="no"?>
<!DOCTYPE svg PUBLIC "-//W3C//DTD SVG 1.1//EN" "http://www.w3.org/Graphics/SVG/1.1/DTD/svg11.dtd" >
<svg xmlns="http://www.w3.org/2000/svg" xmlns:xlink="http://www.w3.org/1999/xlink" version="1.1" viewBox="-11 0 662 512">
   <path fill="currentColor"
d="M291 189q-32 -16 -65 -4q61 0 85 51q7 13 -1 25.5t-22 12.5q14 0 22 12.5t1 25.5q-11 23 -32.5 37t-47.5 14l-94 -9l-67 33q-7 4 -14 1.5t-10 -8.5l-44 -89q-8 -15 7 -24l58 -33l41 -74q10 -90 80 -147q8 -7 19 -6t18 9.5t6 19.5t-9 18q-20 17 -33 36q34 -23 74 -28
q11 -2 20 5t10 18q1 7 -1.5 13.5t-8.5 11t-13 5.5q-23 2 -44 15q45 -10 88 11q10 5 13.5 15.5t-1.5 20.5t-15.5 13.5t-19.5 -1.5zM263 259q-10 -21 -32 -21q-15 0 -25 10.5t-10 25.5q0 10 5 18.5t13 12.5t17 4q22 0 32 -20q7 -15 24 -15q-17 -1 -24 -15zM638 221q8 16 -7 24
l-58 33l-41 74q-10 90 -80 147q-8 7 -19 6t-18 -9.5t-6 -19.5t9 -18q20 -17 33 -36q-34 23 -74 28q-9 2 -19 -4.5t-11 -18.5q-1 -7 1.5 -13.5t8.5 -11t13 -5.5q23 -2 44 -15q-45 10 -88 -11q-10 -5 -13.5 -15.5t1.5 -20.5t15.5 -13.5t19.5 1.5q32 16 65 4q-61 0 -85 -51
q-7 -13 1 -25.5t22 -12.5q-14 0 -22 -12.5t-1 -25.5q11 -23 32.5 -37t49.5 -14l92 9l67 -33q7 -4 14 -1.5t10 8.5zM409 203q-22 0 -32 20q-7 15 -24 15q17 1 24 16q10 20 32 20q15 0 25 -10.5t10 -25.5t-10.5 -25t-24.5 -10z" />
</svg>
