<?xml version="1.0" standalone="no"?>
<!DOCTYPE svg PUBLIC "-//W3C//DTD SVG 1.1//EN" "http://www.w3.org/Graphics/SVG/1.1/DTD/svg11.dtd" >
<svg xmlns="http://www.w3.org/2000/svg" xmlns:xlink="http://www.w3.org/1999/xlink" version="1.1" viewBox="-10 0 596 512">
   <path fill="currentColor"
d="M511 93l-96 76q1 5 1 7q0 20 -14 34t-34 14t-34 -14t-14 -34q0 -2 1 -7l-96 -76q-8 3 -17 3q-6 0 -12 -2l-102 102q2 6 2 12q0 20 -14 34t-34 14t-34 -14t-14 -34t14 -34t34 -14q6 0 12 2l102 -102q-2 -6 -2 -12q0 -20 14 -34t34 -14t34 14t14 34q0 2 -1 7l96 76
q8 -3 17 -3t17 3l96 -76q-1 -5 -1 -7q0 -20 14 -34t34 -14t34 14t14 34t-14 34t-34 14q-9 0 -17 -3zM400 320q7 0 11.5 4.5t4.5 11.5v160q0 7 -4.5 11.5t-11.5 4.5h-64q-7 0 -11.5 -4.5t-4.5 -11.5v-160q0 -7 4.5 -11.5t11.5 -4.5h64zM560 192q7 0 11.5 4.5t4.5 11.5v288
q0 7 -4.5 11.5t-11.5 4.5h-64q-7 0 -11.5 -4.5t-4.5 -11.5v-288q0 -7 4.5 -11.5t11.5 -4.5h64zM240 192q7 0 11.5 4.5t4.5 11.5v288q0 7 -4.5 11.5t-11.5 4.5h-64q-7 0 -11.5 -4.5t-4.5 -11.5v-288q0 -7 4.5 -11.5t11.5 -4.5h64zM80 352q7 0 11.5 4.5t4.5 11.5v128
q0 7 -4.5 11.5t-11.5 4.5h-64q-7 0 -11.5 -4.5t-4.5 -11.5v-128q0 -7 4.5 -11.5t11.5 -4.5h64z" />
</svg>
