<?xml version="1.0" standalone="no"?>
<!DOCTYPE svg PUBLIC "-//W3C//DTD SVG 1.1//EN" "http://www.w3.org/Graphics/SVG/1.1/DTD/svg11.dtd" >
<svg xmlns="http://www.w3.org/2000/svg" xmlns:xlink="http://www.w3.org/1999/xlink" version="1.1" viewBox="-11 0 598 512">
   <path fill="currentColor"
d="M208 144q0 -33 23.5 -56.5t56.5 -23.5t56.5 23.5t23.5 56.5t-23.5 56.5t-56.5 23.5t-56.5 -23.5t-23.5 -56.5zM184 101q-24 -17 -24 -37q0 -26 37.5 -45t90.5 -19t90.5 19t37.5 45q0 20 -24 37q-6 -13 -17 -27q9 -6 9 -10q0 -5 -10.5 -12t-34 -13.5t-51.5 -6.5t-51.5 6.5
t-34 13.5t-10.5 12q0 4 9 10q-11 14 -17 27zM572 453q10 21 -2 40t-34 19h-496q-22 0 -34 -19t-2 -40l38 -79q11 -21 0 -43q-5 -10 -12 -22q-14 -25 -14 -53q0 -38 30 -67t70 -29t67 28l73 74q16 -6 32 -6t33 6l72 -74q28 -28 67 -28q26 0 49 13t37 35.5t14 47.5
q0 28 -14 53q-7 11 -12 22t-5 22t5 21zM195 313q7 -14 19 -25l-65 -66q-14 -14 -33 -14q-20 0 -36 14.5t-16 33.5q0 15 8 29t14 25q6 14 8 28.5t0 29t-8 27.5l-34 69h68zM456 464h68l-34 -69q-9 -20 -9 -42.5t9 -42.5q7 -12 14 -25q8 -14 8 -29q0 -19 -16 -33.5t-36 -14.5
q-19 0 -32 14l-66 66q12 11 19 25z" />
</svg>
