<?xml version="1.0" standalone="no"?>
<!DOCTYPE svg PUBLIC "-//W3C//DTD SVG 1.1//EN" "http://www.w3.org/Graphics/SVG/1.1/DTD/svg11.dtd" >
<svg xmlns="http://www.w3.org/2000/svg" xmlns:xlink="http://www.w3.org/1999/xlink" version="1.1" viewBox="-10 0 458 512">
   <path fill="currentColor"
d="M224 239l136 -136q7 -7 17 -7t17 7l22 23q7 7 7 17t-7 17l-96 96l96 96q5 5 6.5 11t0 12.5t-6.5 10.5l-22 23q-7 7 -17 7t-17 -7l-136 -136q-7 -7 -7 -17t7 -17zM32 273q-7 -7 -7 -17t7 -17l136 -136q7 -7 17 -7t17 7l22 23q7 7 7 17t-7 17l-96 96l96 96q7 7 7 17t-7 17
l-22 23q-7 7 -17 7t-17 -7z" />
</svg>
