<?xml version="1.0" standalone="no"?>
<!DOCTYPE svg PUBLIC "-//W3C//DTD SVG 1.1//EN" "http://www.w3.org/Graphics/SVG/1.1/DTD/svg11.dtd" >
<svg xmlns="http://www.w3.org/2000/svg" xmlns:xlink="http://www.w3.org/1999/xlink" version="1.1" viewBox="-10 0 340 512">
   <path fill="currentColor"
d="M177 256l136 136q7 7 7 17t-7 17l-23 22q-7 7 -17 7t-17 -7l-96 -96l-96 96q-7 7 -17 7t-17 -7l-23 -22q-7 -7 -7 -17t7 -17l136 -136q7 -7 17 -7t17 7zM143 64q7 -7 17 -7t17 7l136 136q7 7 7 17t-7 17l-23 22q-7 7 -17 7t-17 -7l-96 -96l-96 96q-4 4 -8.5 5.5t-9 1.5
t-9 -1.5t-7.5 -5.5l-23 -22q-7 -7 -7 -17t7 -17z" />
</svg>
