<?xml version="1.0" standalone="no"?>
<!DOCTYPE svg PUBLIC "-//W3C//DTD SVG 1.1//EN" "http://www.w3.org/Graphics/SVG/1.1/DTD/svg11.dtd" >
<svg xmlns="http://www.w3.org/2000/svg" xmlns:xlink="http://www.w3.org/1999/xlink" version="1.1" viewBox="-10 0 516 512">
   <path fill="currentColor"
d="M248 8q103 0 175.5 72.5t72.5 175.5t-72.5 175.5t-175.5 72.5t-175.5 -72.5t-72.5 -175.5t72.5 -175.5t175.5 -72.5zM136 240q0 13 9.5 22.5t22.5 9.5t22.5 -9.5t9.5 -22.5q0 -2 -2 -8h1.5h0.5q12 0 15 -11q1 -4 1 -7t-1.5 -5.5t-4 -4.5t-5.5 -3l-80 -24q-7 -2 -12.5 1
t-7.5 9q-1 4 -0.5 7t1.5 5.5t3.5 4.5t6.5 3l30 10q-10 9 -10 23zM304 394q6 8 15 6t12 -10t-3 -16q-31 -38 -80 -38t-81 38q-2 3 -3 7t0 7t3 6t5 4.5t6.5 2t7 -1t6.5 -5.5q21 -25 56 -25t56 25zM381 207q6 -2 9 -7.5t1 -12.5q-1 -4 -4 -7t-7 -3.5t-8 0.5l-80 24
q-7 2 -10 7.5t-1 12.5q3 11 15 11h2q-2 5 -2 8q0 13 9.5 22.5t22.5 9.5t22.5 -9.5t9.5 -22.5q0 -14 -10 -23z" />
</svg>
