<?xml version="1.0" standalone="no"?>
<!DOCTYPE svg PUBLIC "-//W3C//DTD SVG 1.1//EN" "http://www.w3.org/Graphics/SVG/1.1/DTD/svg11.dtd" >
<svg xmlns="http://www.w3.org/2000/svg" xmlns:xlink="http://www.w3.org/1999/xlink" version="1.1" viewBox="-10 0 532 512">
   <path fill="currentColor"
d="M318 192q7 -63 -22 -105l-2 -2t-2 -2.5l-1 -1.5q31 1 61 17q10 -5 23.5 -10t26.5 -7t22 0q23 4 36.5 24t17 42.5t0.5 44.5h-160zM211 50q-17 16 -50 14q-5 -33 13 -50q16 -16 50 -14q2 34 -13 50zM402 50q-16 16 -50 14q-4 -33 13 -50q17 -16 50 -14q3 34 -13 50z
M286 192h-252q-3 -22 0.5 -44.5t17 -42.5t36.5 -24q13 -3 34.5 2.5t37.5 14.5q16 -9 37.5 -14.5t34.5 -2.5q23 4 37 24t17 42.5t0 44.5zM496 224q7 0 11.5 4.5t4.5 11.5v112h-512v-112q0 -7 4.5 -11.5t11.5 -4.5h480zM64 304q7 0 11.5 -4.5t4.5 -11.5t-4.5 -11.5t-11.5 -4.5
t-11.5 4.5t-4.5 11.5t4.5 11.5t11.5 4.5zM448 304q7 0 11.5 -4.5t4.5 -11.5t-4.5 -11.5t-11.5 -4.5t-11.5 4.5t-4.5 11.5t4.5 11.5t11.5 4.5zM0 496v-112h512v112q0 7 -4.5 11.5t-11.5 4.5h-480q-7 0 -11.5 -4.5t-4.5 -11.5zM448 432q-7 0 -11.5 4.5t-4.5 11.5t4.5 11.5
t11.5 4.5t11.5 -4.5t4.5 -11.5t-4.5 -11.5t-11.5 -4.5zM64 432q-7 0 -11.5 4.5t-4.5 11.5t4.5 11.5t11.5 4.5t11.5 -4.5t4.5 -11.5t-4.5 -11.5t-11.5 -4.5z" />
</svg>
