<?xml version="1.0" standalone="no"?>
<!DOCTYPE svg PUBLIC "-//W3C//DTD SVG 1.1//EN" "http://www.w3.org/Graphics/SVG/1.1/DTD/svg11.dtd" >
<svg xmlns="http://www.w3.org/2000/svg" xmlns:xlink="http://www.w3.org/1999/xlink" version="1.1" viewBox="-11 0 470 512">
   <path fill="currentColor"
d="M351 129q39 7 64 42q22 31 30 78q7 43 -1 86q-12 71 -48 119q-43 58 -108 58q-16 0 -35 -10q-13 -8 -29 -8t-29 8q-19 10 -35 10q-65 0 -108 -58q-36 -48 -48 -119q-8 -43 -1 -86q8 -47 30 -78q25 -35 64 -42q24 -4 66 7q36 10 61 24q25 -14 61 -24q42 -11 66 -7zM296 88
q-14 13 -37 19q-16 5 -35 5l-15 -1q-2 -14 0 -32q4 -36 23 -55q14 -13 37 -19q16 -5 35 -5l15 1l1 15q0 19 -5 35q-6 23 -19 37z" />
</svg>
