<?xml version="1.0" standalone="no"?>
<!DOCTYPE svg PUBLIC "-//W3C//DTD SVG 1.1//EN" "http://www.w3.org/Graphics/SVG/1.1/DTD/svg11.dtd" >
<svg xmlns="http://www.w3.org/2000/svg" xmlns:xlink="http://www.w3.org/1999/xlink" version="1.1" viewBox="-10 0 532 512">
   <path fill="currentColor"
d="M32 448v-288h448v288q0 13 -9.5 22.5t-22.5 9.5h-384q-13 0 -22.5 -9.5t-9.5 -22.5zM192 236v8q0 12 12 12h104q12 0 12 -12v-8q0 -12 -12 -12h-104q-12 0 -12 12zM480 32q13 0 22.5 9.5t9.5 22.5v48q0 7 -4.5 11.5t-11.5 4.5h-480q-7 0 -11.5 -4.5t-4.5 -11.5v-48
q0 -13 9.5 -22.5t22.5 -9.5h448z" />
</svg>
