<?xml version="1.0" standalone="no"?>
<!DOCTYPE svg PUBLIC "-//W3C//DTD SVG 1.1//EN" "http://www.w3.org/Graphics/SVG/1.1/DTD/svg11.dtd" >
<svg xmlns="http://www.w3.org/2000/svg" xmlns:xlink="http://www.w3.org/1999/xlink" version="1.1" viewBox="-10 0 468 512">
   <path fill="currentColor"
d="M448 88v336q0 10 -7 17t-17 7h-24q-10 0 -17 -7t-7 -17v-336q0 -10 7 -17t17 -7h24q10 0 17 7t7 17zM168 154q-8 -7 -8 -16.5t8 -17.5l16 -16q7 -8 17 -8t17 8l136 135q7 7 7 17t-7 17l-136 135q-7 8 -16.5 8t-17.5 -8l-16 -16q-8 -7 -8 -17t8 -17l65 -66h-209
q-10 0 -17 -7t-7 -17v-24q0 -10 7 -17t17 -7h209z" />
</svg>
