<?xml version="1.0" standalone="no"?>
<!DOCTYPE svg PUBLIC "-//W3C//DTD SVG 1.1//EN" "http://www.w3.org/Graphics/SVG/1.1/DTD/svg11.dtd" >
<svg xmlns="http://www.w3.org/2000/svg" xmlns:xlink="http://www.w3.org/1999/xlink" version="1.1" viewBox="-10 0 404 512">
   <path fill="currentColor"
d="M24 32h336q10 0 17 7t7 17v24q0 10 -7 17t-17 7h-336q-10 0 -17 -7t-7 -17v-24q0 -10 7 -17t17 -7zM294 296q7 -8 16.5 -8t16.5 8l17 16q4 4 5.5 8.5t1.5 9t-1.5 9t-5.5 7.5l-135 136q-7 7 -17 7t-17 -7l-135 -136q-8 -7 -8 -16.5t8 -17.5l16 -16q7 -8 17 -8t17 8l66 65
v-209q0 -10 7 -17t17 -7h24q10 0 17 7t7 17v209z" />
</svg>
