<?xml version="1.0" standalone="no"?>
<!DOCTYPE svg PUBLIC "-//W3C//DTD SVG 1.1//EN" "http://www.w3.org/Graphics/SVG/1.1/DTD/svg11.dtd" >
<svg xmlns="http://www.w3.org/2000/svg" xmlns:xlink="http://www.w3.org/1999/xlink" version="1.1" viewBox="-10 0 468 512">
   <path fill="currentColor"
d="M448 80v352q0 20 -14 34t-34 14h-352q-20 0 -34 -14t-14 -34v-352q0 -20 14 -34t34 -14h352q20 0 34 14t14 34zM328 227l-72 76v-183q0 -10 -7 -17t-17 -7h-16q-10 0 -17 7t-7 17v183l-72 -76q-7 -7 -17.5 -7t-17.5 7l-11 11q-7 7 -7 17t7 17l133 132q7 7 17 7t17 -7
l133 -132q7 -7 7 -17t-7 -17l-11 -11q-7 -7 -17.5 -7t-17.5 7z" />
</svg>
