<?xml version="1.0" standalone="no"?>
<!DOCTYPE svg PUBLIC "-//W3C//DTD SVG 1.1//EN" "http://www.w3.org/Graphics/SVG/1.1/DTD/svg11.dtd" >
<svg xmlns="http://www.w3.org/2000/svg" xmlns:xlink="http://www.w3.org/1999/xlink" version="1.1" viewBox="-10 0 468 512">
   <path fill="currentColor"
d="M448 88v336q0 10 -7 17t-17 7h-24q-10 0 -17 -7t-7 -17v-336q0 -10 7 -17t17 -7h24q10 0 17 7t7 17zM194 358q6 7 6 16.5t-7 16.5l-17 17q-7 7 -16.5 7t-17.5 -7l-135 -135q-7 -7 -7 -17t7 -17l136 -135q7 -8 16.5 -8t16.5 8l18 16q7 7 7 17t-7 17l-66 66h200q10 0 17 7
t7 17v24q0 10 -7 17t-17 7h-200z" />
</svg>
