<?xml version="1.0" standalone="no"?>
<!DOCTYPE svg PUBLIC "-//W3C//DTD SVG 1.1//EN" "http://www.w3.org/Graphics/SVG/1.1/DTD/svg11.dtd" >
<svg xmlns="http://www.w3.org/2000/svg" xmlns:xlink="http://www.w3.org/1999/xlink" version="1.1" viewBox="-10 0 404 512">
   <path fill="currentColor"
d="M24 32h336q10 0 17 7t7 17v24q0 10 -7 17t-17 7h-336q-10 0 -17 -7t-7 -17v-24q0 -10 7 -17t17 -7zM256 456q0 10 -7 17t-17 7h-80q-10 0 -17 -7t-7 -17v-136h-88q-13 0 -18 -12.5t4 -21.5l152 -152q6 -6 14 -6t14 6l152 152q9 9 4 21.5t-18 12.5h-88v136z" />
</svg>
