<?xml version="1.0" standalone="no"?>
<!DOCTYPE svg PUBLIC "-//W3C//DTD SVG 1.1//EN" "http://www.w3.org/Graphics/SVG/1.1/DTD/svg11.dtd" >
<svg xmlns="http://www.w3.org/2000/svg" xmlns:xlink="http://www.w3.org/1999/xlink" version="1.1" viewBox="-10 0 404 512">
   <path fill="currentColor"
d="M24 32h336q10 0 17 7t7 17v24q0 10 -7 17t-17 7h-336q-10 0 -17 -7t-7 -17v-24q0 -10 7 -17t17 -7zM128 152q0 -10 7 -17t17 -7h80q10 0 17 7t7 17v136h88q13 0 18 12.5t-4 21.5l-152 152q-6 6 -14 6t-14 -6l-152 -152q-9 -9 -4 -21.5t18 -12.5h88v-136z" />
</svg>
