<?xml version="1.0" standalone="no"?>
<!DOCTYPE svg PUBLIC "-//W3C//DTD SVG 1.1//EN" "http://www.w3.org/Graphics/SVG/1.1/DTD/svg11.dtd" >
<svg xmlns="http://www.w3.org/2000/svg" xmlns:xlink="http://www.w3.org/1999/xlink" version="1.1" viewBox="-10 0 524 512">
   <path fill="currentColor"
d="M504 256q0 103 -72.5 175.5t-175.5 72.5t-175.5 -72.5t-72.5 -175.5t72.5 -175.5t175.5 -72.5t175.5 72.5t72.5 175.5zM360 227l-72 76v-183q0 -10 -7 -17t-17 -7h-16q-10 0 -17 7t-7 17v183l-72 -76q-7 -7 -17.5 -7t-17.5 7l-11 11q-7 7 -7 17t7 17l133 132q7 7 17 7
t17 -7l133 -132q7 -7 7 -17t-7 -17l-11 -11q-7 -7 -17.5 -7t-17.5 7z" />
</svg>
