<?xml version="1.0" standalone="no"?>
<!DOCTYPE svg PUBLIC "-//W3C//DTD SVG 1.1//EN" "http://www.w3.org/Graphics/SVG/1.1/DTD/svg11.dtd" >
<svg xmlns="http://www.w3.org/2000/svg" xmlns:xlink="http://www.w3.org/1999/xlink" version="1.1" viewBox="-10 0 468 512">
   <path fill="currentColor"
d="M48 32h352q20 0 34 14t14 34v352q0 20 -14 34t-34 14h-352q-20 0 -34 -14t-14 -34v-352q0 -20 14 -34t34 -14zM108 300h116v71q0 8 7.5 11t12.5 -3l115 -115q8 -8 0 -16l-115 -115q-5 -6 -12.5 -3t-7.5 11v71h-116q-12 0 -12 12v64q0 12 12 12z" />
</svg>
