<?xml version="1.0" standalone="no"?>
<!DOCTYPE svg PUBLIC "-//W3C//DTD SVG 1.1//EN" "http://www.w3.org/Graphics/SVG/1.1/DTD/svg11.dtd" >
<svg xmlns="http://www.w3.org/2000/svg" xmlns:xlink="http://www.w3.org/1999/xlink" version="1.1" viewBox="-10 0 524 512">
   <path fill="currentColor"
d="M256 8q103 0 175.5 72.5t72.5 175.5t-72.5 175.5t-175.5 72.5t-175.5 -72.5t-72.5 -175.5t72.5 -175.5t175.5 -72.5zM227 152l76 72h-183q-10 0 -17 7t-7 17v16q0 10 7 17t17 7h183l-76 72q-7 7 -7 17.5t7 17.5l11 11q7 7 17 7t17 -7l132 -133q7 -7 7 -17t-7 -17
l-132 -133q-7 -7 -17 -7t-17 7l-11 11q-7 7 -7 17.5t7 17.5z" />
</svg>
