<?xml version="1.0" standalone="no"?>
<!DOCTYPE svg PUBLIC "-//W3C//DTD SVG 1.1//EN" "http://www.w3.org/Graphics/SVG/1.1/DTD/svg11.dtd" >
<svg xmlns="http://www.w3.org/2000/svg" xmlns:xlink="http://www.w3.org/1999/xlink" version="1.1" viewBox="-10 0 532 512">
   <path fill="currentColor"
d="M216 260q0 12 -8 20t-20 8t-20 -8t-8 -20q0 -33 23.5 -56.5t56.5 -23.5t56.5 23.5t23.5 56.5q0 12 -8 20t-20 8t-20 -8t-8 -20q0 -10 -7 -17t-17 -7t-17 7t-7 17zM240 84q73 0 124.5 51.5t51.5 124.5q0 27 -7.5 48.5t-18 34.5t-21 23t-18 19.5t-7.5 18.5q0 45 -31.5 76.5
t-76.5 31.5q-12 0 -20 -8t-8 -20t8 -20t20 -8q22 0 37 -15t15 -37q0 -25 11.5 -43.5t25 -28t24.5 -28.5t11 -44q0 -50 -35 -85t-85 -35t-85 35t-35 85q0 12 -8 20t-20 8t-20 -8t-8 -20q0 -73 51.5 -124.5t124.5 -51.5zM160 320q13 0 22.5 9.5t9.5 22.5t-9.5 22.5t-22.5 9.5
t-22.5 -9.5t-9.5 -22.5t9.5 -22.5t22.5 -9.5zM32 448q13 0 22.5 9.5t9.5 22.5t-9.5 22.5t-22.5 9.5t-22.5 -9.5t-9.5 -22.5t9.5 -22.5t22.5 -9.5zM512 260q0 12 -8 20t-20 8t-20 -8t-8 -20v-3v-1q-1 -68 -41.5 -123.5t-104.5 -77.5q-11 -4 -16 -14.5t-2 -21.5q2 -5 6 -9.5
t8.5 -6.5t10.5 -2.5t11 1.5q81 27 132 97t52 156v5zM153 439l-34 34l-80 -80l34 -34z" />
</svg>
