<?xml version="1.0" standalone="no"?>
<!DOCTYPE svg PUBLIC "-//W3C//DTD SVG 1.1//EN" "http://www.w3.org/Graphics/SVG/1.1/DTD/svg11.dtd" >
<svg xmlns="http://www.w3.org/2000/svg" xmlns:xlink="http://www.w3.org/1999/xlink" version="1.1" viewBox="-10 0 468 512">
   <path fill="currentColor"
d="M318 208q-8 49 -53 70q12 -29 14 -70h39zM318 176h-39q-2 -41 -14 -70q45 21 53 70zM224 97q4 5 9 14t9 26.5t5 38.5h-46q1 -30 8.5 -51t14.5 -28zM183 106q-12 29 -14 70h-39q8 -49 53 -70zM183 278q-45 -21 -53 -70h39q2 41 14 70zM247 208q-1 30 -8.5 51t-14.5 28
q-4 -5 -9 -14t-9 -26.5t-5 -38.5h46zM448 358q0 15 -10 20q-2 9 -2 35t2 38q10 10 10 19v16q0 12 -7.5 19t-18.5 7h-326q-41 0 -68.5 -27.5t-27.5 -68.5v-320q0 -41 27.5 -68.5t68.5 -27.5h326q26 0 26 26v332zM224 64q-53 0 -90.5 37.5t-37.5 90.5t37.5 90.5t90.5 37.5
t90.5 -37.5t37.5 -90.5t-37.5 -90.5t-90.5 -37.5zM384 448v-64h-288q-13 0 -22.5 9t-9.5 23t9 23t23 9h288z" />
</svg>
