<?xml version="1.0" standalone="no"?>
<!DOCTYPE svg PUBLIC "-//W3C//DTD SVG 1.1//EN" "http://www.w3.org/Graphics/SVG/1.1/DTD/svg11.dtd" >
<svg xmlns="http://www.w3.org/2000/svg" xmlns:xlink="http://www.w3.org/1999/xlink" version="1.1" viewBox="-11 0 470 512">
   <path fill="currentColor"
d="M413 256q55 75 25 128q-29 52 -116 42q-36 86 -98 86t-98 -86q-87 10 -116 -42q-30 -53 25 -128q-55 -75 -25 -128q29 -52 116 -42q36 -86 98 -86t98 86q87 -10 116 42q30 53 -25 128zM63 352q7 12 44 11q-4 -20 -7 -40q-11 -9 -22 -19q-22 35 -15 48zM100 189
q3 -20 7 -40h-3h-3q-31 0 -38 11q-7 13 15 48q11 -10 22 -19zM224 64q-16 0 -34 37q16 6 34 13q18 -7 34 -13q-18 -37 -34 -37zM224 448q16 0 34 -37q-16 -6 -34 -13q-18 7 -34 13q18 37 34 37zM286 291q3 -35 0 -70q-29 -21 -62 -37q-33 16 -62 37q-3 35 0 70q29 21 62 37
q33 -16 62 -37zM385 352q7 -13 -15 -48q-11 10 -22 19q-3 20 -7 40q37 1 44 -11zM370 208q22 -35 15 -48q-7 -11 -38 -11h-3h-3q4 20 7 40q11 9 22 19zM224 224q13 0 22.5 9.5t9.5 22.5t-9.5 22.5t-22.5 9.5t-22.5 -9.5t-9.5 -22.5t9.5 -22.5t22.5 -9.5z" />
</svg>
