<?xml version="1.0" standalone="no"?>
<!DOCTYPE svg PUBLIC "-//W3C//DTD SVG 1.1//EN" "http://www.w3.org/Graphics/SVG/1.1/DTD/svg11.dtd" >
<svg xmlns="http://www.w3.org/2000/svg" xmlns:xlink="http://www.w3.org/1999/xlink" version="1.1" viewBox="-10 0 468 512">
   <path fill="currentColor"
d="M423 57q21 21 24 54t-9.5 69t-36.5 76q24 40 36.5 76t9.5 69t-24 54q-32 30 -83.5 23.5t-115.5 -45.5q-64 39 -115.5 45.5t-83.5 -23.5q-21 -21 -24 -54t9.5 -69t36.5 -76q-24 -40 -36.5 -76t-9.5 -69t24 -54q16 -16 38.5 -22t49 -1.5t54.5 16t57 29.5q40 -24 76 -36.5
t69 -9.5t54 24zM70 102q-10 9 -5 35.5t23 61.5q36 -43 79 -79q-46 -24 -76 -24q-14 0 -21 6zM70 410q9 10 36 5t61 -23q-44 -37 -79 -79q-18 35 -23 61.5t5 35.5zM224 355q56 -43 99 -99q-44 -57 -99 -99q-55 42 -99 99q43 56 99 99zM378 410q10 -9 5 -35.5t-23 -61.5
q-35 42 -79 79q34 18 61 23t36 -5zM360 199q18 -35 23 -61.5t-5 -35.5q-7 -6 -21 -6q-30 0 -76 24q43 36 79 79zM224 224q13 0 22.5 9.5t9.5 22.5t-9.5 22.5t-22.5 9.5t-22.5 -9.5t-9.5 -22.5t9.5 -22.5t22.5 -9.5z" />
</svg>
