<?xml version="1.0" standalone="no"?>
<!DOCTYPE svg PUBLIC "-//W3C//DTD SVG 1.1//EN" "http://www.w3.org/Graphics/SVG/1.1/DTD/svg11.dtd" >
<svg xmlns="http://www.w3.org/2000/svg" xmlns:xlink="http://www.w3.org/1999/xlink" version="1.1" viewBox="-10 0 532 512">
   <path fill="currentColor"
d="M163 239l9 30h-26l9 -30q2 -6 4 -16q2 10 4 16zM329 207q22 0 34.5 12.5t12.5 36.5q0 49 -47 49h-14v-98h14zM512 112v288q0 20 -14 34t-34 14h-416q-20 0 -34 -14t-14 -34v-288q0 -20 14 -34t34 -14h416q20 0 34 14t14 34zM245 336l-57 -168q-2 -8 -11 -8h-36
q-8 0 -11 8l-57 168q-1 3 -0.5 6t2 5t4 3.5t5.5 1.5h29q9 0 12 -9l8 -30h52l8 30q3 9 12 9h29q4 0 7 -2.5t4.5 -6t-0.5 -7.5zM430 256q0 -30 -12 -51.5t-34.5 -33t-52.5 -11.5h-57q-5 0 -8.5 3.5t-3.5 8.5v168q0 5 3.5 8.5t8.5 3.5h57q46 0 72.5 -26t26.5 -70z" />
</svg>
