<?xml version="1.0" standalone="no"?>
<!DOCTYPE svg PUBLIC "-//W3C//DTD SVG 1.1//EN" "http://www.w3.org/Graphics/SVG/1.1/DTD/svg11.dtd" >
<svg xmlns="http://www.w3.org/2000/svg" xmlns:xlink="http://www.w3.org/1999/xlink" version="1.1" viewBox="-11 0 406 512">
   <path fill="currentColor"
d="M97 363q22 21 52 21q18 0 35 -10l-52 128q-3 8 -11.5 9.5t-14.5 -4.5l-37 -38l-52 2q-9 0 -14 -7t-2 -15l46 -112q12 10 25 14q3 1 9 2q9 2 13 7zM383 449q3 8 -2 15t-14 7l-52 -2l-37 38q-6 6 -14.5 4.5t-11.5 -9.5l-52 -128q17 10 35 10q30 0 52 -21l3 -3q4 -5 13 -7
q2 0 3 -0.5t2.5 -1t3.5 -0.5q13 -4 25 -14zM263 340q-10 10 -24 11.5t-26 -5.5q-9 -6 -21 -6t-21 6q-12 7 -26 5.5t-24 -11.5l-5 -5t-4 -3.5l-4 -3t-3 -2t-4.5 -1.5t-5 -1.5t-6 -1.5t-7.5 -2q-22 -6 -28 -29q-6 -21 -8.5 -25.5t-17.5 -20.5q-17 -17 -11 -39t6 -27t-6 -26
q-6 -23 11 -40q15 -15 17.5 -19.5t8.5 -26.5t28 -29q25 -6 33 -14q2 -1 12 -12q17 -17 39 -11q21 6 26 6t26 -6q22 -6 39 11q15 16 19.5 18.5t25.5 7.5q22 7 28 29q4 15 4.5 17t4.5 9t5.5 8.5l11.5 11.5q17 17 11 40q-6 21 -6 26t6 27t-11 39q-15 16 -17.5 20.5t-8.5 25.5
q-6 23 -28 29q-3 1 -8 2t-6.5 1.5t-5 2t-5 2t-4 2.5t-5 4.5zM98 176q0 40 27.5 68t66.5 28t66.5 -28t27.5 -68q0 -26 -12.5 -48t-34 -35t-47.5 -13q-39 0 -66.5 28t-27.5 68z" />
</svg>
