<?xml version="1.0" standalone="no"?>
<!DOCTYPE svg PUBLIC "-//W3C//DTD SVG 1.1//EN" "http://www.w3.org/Graphics/SVG/1.1/DTD/svg11.dtd" >
<svg xmlns="http://www.w3.org/2000/svg" xmlns:xlink="http://www.w3.org/1999/xlink" version="1.1" viewBox="-11 0 661 512">
   <path fill="currentColor"
d="M5 439l236 -235l67 67l-235 236q-12 12 -23 0l-45 -45q-12 -11 0 -23zM526 160h114v32q0 93 -65.5 158.5t-158.5 65.5h-32v-114l-151 -151q-9 -9 -9 -22.5t9 -22.5l97 -97q9 -9 22.5 -9t22.5 9l30 30l34 -34q12 -12 23 0l45 45q12 11 0 23l-34 34zM448 349q47 -10 81 -44
t44 -81h-38q-26 61 -87 87v38z" />
</svg>
