<?xml version="1.0" standalone="no"?>
<!DOCTYPE svg PUBLIC "-//W3C//DTD SVG 1.1//EN" "http://www.w3.org/Graphics/SVG/1.1/DTD/svg11.dtd" >
<svg xmlns="http://www.w3.org/2000/svg" xmlns:xlink="http://www.w3.org/1999/xlink" version="1.1" viewBox="-11 0 406 512">
   <path fill="currentColor"
d="M192 160q-33 0 -56.5 -23.5t-23.5 -56.5t23.5 -56.5t56.5 -23.5t56.5 23.5t23.5 56.5t-23.5 56.5t-56.5 23.5zM139 409l29 39q10 13 7.5 29.5t-15.5 26.5q-11 8 -24 8q-20 0 -32 -16l-48 -64q-8 -11 -8 -24.5t9 -24.5l46 -57l61 51zM281 326l46 57q9 11 9 24.5t-8 24.5
l-48 64q-12 16 -32 16q-13 0 -24 -8q-13 -10 -15.5 -26.5t7.5 -29.5l29 -39l-25 -32zM376.5 145q9.5 14 7 30t-16.5 26l-41 28q-23 17 -54 28v31h-160v-31q-31 -11 -54 -28l-41 -28q-14 -10 -16.5 -26t7 -30t25.5 -16.5t30 6.5l41 29q39 27 88 27t88 -27l41 -29
q14 -9 30 -6.5t25.5 16.5z" />
</svg>
