<?xml version="1.0" standalone="no"?>
<!DOCTYPE svg PUBLIC "-//W3C//DTD SVG 1.1//EN" "http://www.w3.org/Graphics/SVG/1.1/DTD/svg11.dtd" >
<svg xmlns="http://www.w3.org/2000/svg" xmlns:xlink="http://www.w3.org/1999/xlink" version="1.1" viewBox="-10 0 532 512">
   <path fill="currentColor"
d="M145 17l111 175h-256q0 -54 24 -102t67 -82q12 -10 28.5 -7t25.5 16zM496 96q7 0 11.5 4.5t4.5 11.5v32q0 7 -4.5 11.5t-11.5 4.5h-48v64q0 75 -60 131q26 6 43 27.5t17 49.5q0 33 -23.5 56.5t-56.5 23.5t-56.5 -23.5t-23.5 -56.5q0 -12 4 -25q-33 9 -68 9t-68 -9
q4 13 4 25q0 33 -23.5 56.5t-56.5 23.5t-56.5 -23.5t-23.5 -56.5q0 -18 8 -34.5t21.5 -27.5t30.5 -15q-60 -56 -60 -131h384v-64q0 -26 19 -45t45 -19h48zM80 464q13 0 22.5 -9.5t9.5 -22.5t-9.5 -22.5t-22.5 -9.5t-22.5 9.5t-9.5 22.5t9.5 22.5t22.5 9.5zM400 432
q0 -13 -9.5 -22.5t-22.5 -9.5t-22.5 9.5t-9.5 22.5t9.5 22.5t22.5 9.5t22.5 -9.5t9.5 -22.5z" />
</svg>
