<?xml version="1.0" standalone="no"?>
<!DOCTYPE svg PUBLIC "-//W3C//DTD SVG 1.1//EN" "http://www.w3.org/Graphics/SVG/1.1/DTD/svg11.dtd" >
<svg xmlns="http://www.w3.org/2000/svg" xmlns:xlink="http://www.w3.org/1999/xlink" version="1.1" viewBox="-10 0 468 512">
   <path fill="currentColor"
d="M320 320q13 0 22.5 9.5t9.5 22.5v32h-256v-32q0 -13 9.5 -22.5t22.5 -9.5h192zM96 512v-96h256v96h-256zM320 80q53 0 90.5 37.5t37.5 90.5v240q0 27 -18.5 45.5t-45.5 18.5v-160q0 -26 -19 -45t-45 -19h-192q-26 0 -45 19t-19 45v160q-27 0 -45.5 -18.5t-18.5 -45.5
v-240q0 -53 37.5 -90.5t90.5 -37.5h8v-24q0 -23 16.5 -39.5t39.5 -16.5h64q23 0 39.5 16.5t16.5 39.5v24h8zM184 56v24h80v-24q0 -8 -8 -8h-64q-8 0 -8 8zM320 200v-16q0 -8 -8 -8h-176q-8 0 -8 8v16q0 8 8 8h176q8 0 8 -8z" />
</svg>
