<?xml version="1.0" standalone="no"?>
<!DOCTYPE svg PUBLIC "-//W3C//DTD SVG 1.1//EN" "http://www.w3.org/Graphics/SVG/1.1/DTD/svg11.dtd" >
<svg xmlns="http://www.w3.org/2000/svg" xmlns:xlink="http://www.w3.org/1999/xlink" version="1.1" viewBox="-10 0 596 512">
   <path fill="currentColor"
d="M219 336q-13 13 -24 22t-23 15l-19 9.5t-20 7.5q-53 20 -88 53l-36 -35q-9 -10 -8.5 -23.5t10.5 -21.5q36 -30 91 -51l2 -1q69 -23 97 -97q4 -11 5.5 -15t10.5 -22t17 -30t24 -31.5t33.5 -33.5t43 -29.5t55.5 -26.5q27 -10 41 -20q8 -6 18 -6q13 0 22 9l37 37
q-30 28 -76 46q-19 7 -30 12t-30 18t-37.5 31.5t-31.5 37.5t-18 29.5t-12 29.5q-7 18 -11 27.5t-15.5 26t-27.5 32.5zM567 104q9 10 8.5 23.5t-10.5 21.5q-36 30 -91 51q-1 0 -2 1q-69 23 -97 97q-6 15 -9.5 24t-19.5 36t-34.5 46.5t-52 43t-73.5 38.5q-27 10 -41 20
q-8 6 -18 6q-13 0 -22 -9l-37 -37q30 -28 76 -46q12 -4 18 -6.5t17 -8t19.5 -11t20 -15t23.5 -20.5q18 -19 31 -38t18 -29.5t12 -29.5q6 -18 10.5 -27.5t16 -26t27.5 -33t32.5 -27.5t26.5 -15.5t27 -10.5q53 -20 88 -53z" />
</svg>
