<?xml version="1.0" standalone="no"?>
<!DOCTYPE svg PUBLIC "-//W3C//DTD SVG 1.1//EN" "http://www.w3.org/Graphics/SVG/1.1/DTD/svg11.dtd" >
<svg xmlns="http://www.w3.org/2000/svg" xmlns:xlink="http://www.w3.org/1999/xlink" version="1.1" viewBox="-10 0 660 512">
   <path fill="currentColor"
d="M96 464q0 -7 4.5 -11.5t11.5 -4.5h176v-295q-32 -14 -43 -47l-132 -44q-7 -3 -10 -8.5t0 -12.5l10 -30q2 -6 8 -9t12 -1l118 39q23 -40 69 -40q33 0 56.5 23.5t23.5 56.5q0 2 -1 10l128 43q7 2 10 8t0 12l-10 31q-1 4 -4.5 6.5t-7.5 3.5t-8 0l-142 -48q-6 4 -13 7v343
q0 7 -4.5 11.5t-11.5 4.5h-224q-7 0 -11.5 -4.5t-4.5 -11.5v-32zM0 304v-1q0 -9 5 -19.5t33 -67.5l47 -94q13 -26 43 -26t43 26q83 167 84 174q1 2 1 8q0 33 -37.5 56.5t-90.5 23.5t-90.5 -23.5t-37.5 -56.5zM56 288h144l-72 -144zM384 432v-1q0 -9 5 -20t34 -68
q26 -53 46 -93q13 -26 43 -26t43 26l45 90q30 60 35 71.5t5 19.5v1q0 33 -37.5 56.5t-90.5 23.5t-90.5 -23.5t-37.5 -56.5zM440 416h144l-72 -144z" />
</svg>
