<?xml version="1.0" standalone="no"?>
<!DOCTYPE svg PUBLIC "-//W3C//DTD SVG 1.1//EN" "http://www.w3.org/Graphics/SVG/1.1/DTD/svg11.dtd" >
<svg xmlns="http://www.w3.org/2000/svg" xmlns:xlink="http://www.w3.org/1999/xlink" version="1.1" viewBox="-10 0 660 512">
   <path fill="currentColor"
d="M256 336q0 33 -37.5 56.5t-90.5 23.5t-90.5 -23.5t-37.5 -56.5v-1q0 -8 5 -19.5t35 -71.5l45 -90q13 -26 43 -26t43 26q20 40 46 93q29 57 34 68t5 20v1zM128 176l-72 144h144zM640 336q0 22 -17 40.5t-46.5 29t-64.5 10.5q-53 0 -90.5 -23.5t-37.5 -56.5v-1
q0 -8 5 -19.5t35 -71.5l7.5 -15t8 -15.5t9.5 -18.5l9.5 -19t10.5 -22q13 -26 43 -26t43 26q20 40 46 93q29 57 34 68t5 20v1zM440 320h144l-72 -144zM528 448q7 0 11.5 4.5t4.5 11.5v32q0 7 -4.5 11.5t-11.5 4.5h-416q-7 0 -11.5 -4.5t-4.5 -11.5v-32q0 -7 4.5 -11.5
t11.5 -4.5h176v-295q-38 -16 -46 -57h-130q-7 0 -11.5 -4.5t-4.5 -11.5v-32q0 -7 4.5 -11.5t11.5 -4.5h144q25 -32 64 -32t64 32h144q7 0 11.5 4.5t4.5 11.5v32q0 7 -4.5 11.5t-11.5 4.5h-130q-8 41 -46 57v295h176z" />
</svg>
