<?xml version="1.0" standalone="no"?>
<!DOCTYPE svg PUBLIC "-//W3C//DTD SVG 1.1//EN" "http://www.w3.org/Graphics/SVG/1.1/DTD/svg11.dtd" >
<svg xmlns="http://www.w3.org/2000/svg" xmlns:xlink="http://www.w3.org/1999/xlink" version="1.1" viewBox="-10 0 660 512">
   <path fill="currentColor"
d="M528 448q7 0 11.5 4.5t4.5 11.5v32q0 7 -4.5 11.5t-11.5 4.5h-224q-7 0 -11.5 -4.5t-4.5 -11.5v-343q-7 -3 -13 -7l-142 48q-6 2 -12 -1t-8 -9l-10 -31q-3 -6 0 -12t10 -8l128 -43q-1 -8 -1 -10q0 -33 23.5 -56.5t56.5 -23.5q46 0 69 40l118 -39q6 -2 12 1t8 9l10 30
q3 7 0 12.5t-10 8.5l-132 44q-11 33 -43 47v295h176zM640 304q0 22 -17 40.5t-46.5 29t-64.5 10.5q-53 0 -90.5 -23.5t-37.5 -56.5v-1q0 -8 5 -19.5t35 -71.5l9.5 -19t10 -19.5t12.5 -25t13 -26.5q13 -26 43 -26t43 26q83 166 84 173q1 3 1 9zM440 288h144l-72 -144z
M171 250q20 40 46 93q29 57 34 68t5 20v1q0 33 -37.5 56.5t-90.5 23.5t-90.5 -23.5t-37.5 -56.5v-1q0 -8 5 -19.5t35 -71.5l45 -90q13 -26 43 -26t43 26zM56 416h144l-72 -144z" />
</svg>
