<?xml version="1.0" standalone="no"?>
<!DOCTYPE svg PUBLIC "-//W3C//DTD SVG 1.1//EN" "http://www.w3.org/Graphics/SVG/1.1/DTD/svg11.dtd" >
<svg xmlns="http://www.w3.org/2000/svg" xmlns:xlink="http://www.w3.org/1999/xlink" version="1.1" viewBox="-10 0 660 512">
   <path fill="currentColor"
d="M0 160q0 -26 19 -45t45 -19h96v320h-96q-26 0 -45 -19t-19 -45v-192zM576 96q26 0 45 19t19 45v192q0 26 -19 45t-45 19h-96v-320h96zM192 416v-320h256v320h-256zM368 184q-10 0 -17 7t-7 17t7 17t17 7t17 -7t7 -17t-7 -17t-17 -7zM368 280q-10 0 -17 7t-7 17t7 17t17 7
t17 -7t7 -17t-7 -17t-17 -7zM272 184q-10 0 -17 7t-7 17t7 17t17 7t17 -7t7 -17t-7 -17t-17 -7zM272 280q-10 0 -17 7t-7 17t7 17t17 7t17 -7t7 -17t-7 -17t-17 -7z" />
</svg>
