<?xml version="1.0" standalone="no"?>
<!DOCTYPE svg PUBLIC "-//W3C//DTD SVG 1.1//EN" "http://www.w3.org/Graphics/SVG/1.1/DTD/svg11.dtd" >
<svg xmlns="http://www.w3.org/2000/svg" xmlns:xlink="http://www.w3.org/1999/xlink" version="1.1" viewBox="-10 0 532 512">
   <path fill="currentColor"
d="M503 39q9 9 9 22.5t-9 22.5l-47 46q-6 6 -14 9l-36 12l-75 75q20 30 26 68h1q11 0 18.5 7.5t7.5 18.5t-7.5 18.5t-18.5 7.5h-1q-6 40 -29 72v1q8 7 8 19q0 11 -7.5 18.5t-18.5 7.5q-12 0 -19 -8l-1 -1q-32 24 -72 30v1q0 11 -7.5 18.5t-18.5 7.5t-18.5 -7.5t-7.5 -18.5
v-1q-40 -6 -72 -30l-1 1q-7 8 -19 8q-11 0 -18.5 -7.5t-7.5 -18.5q0 -12 8 -19v-1q-23 -32 -29 -72h-1q-11 0 -18.5 -7.5t-7.5 -18.5t7.5 -18.5t18.5 -7.5h1q6 -40 29 -73q-7 -7 -7 -18q0 -10 8 -18t18 -8q11 0 18 7h1q32 -23 72 -29v-1q0 -11 7.5 -18.5t18.5 -7.5t18.5 7.5
t7.5 18.5v1q38 6 68 26l75 -75l12 -37q3 -7 8 -13l47 -47q9 -9 22.5 -9t22.5 9zM192 432q46 0 79 -33t33 -79t-33 -79t-79 -33t-79 33t-33 79t33 79t79 33zM153 306l53 53q2 2 2 5.5t-2 5.5l-12 12q-2 2 -5.5 2t-5.5 -2l-53 -53q-2 -2 -2 -5.5t2 -5.5l12 -12q2 -2 5.5 -2
t5.5 2z" />
</svg>
