<?xml version="1.0" standalone="no"?>
<!DOCTYPE svg PUBLIC "-//W3C//DTD SVG 1.1//EN" "http://www.w3.org/Graphics/SVG/1.1/DTD/svg11.dtd" >
<svg xmlns="http://www.w3.org/2000/svg" xmlns:xlink="http://www.w3.org/1999/xlink" version="1.1" viewBox="-10 0 660 512">
   <path fill="currentColor"
d="M184 128q8 0 8 8v240q0 8 -8 8h-48q-8 0 -8 -8v-240q0 -8 8 -8h48zM144 448q7 0 11.5 4.5t4.5 11.5v32q0 7 -4.5 11.5t-11.5 4.5h-128q-7 0 -11.5 -4.5t-4.5 -11.5v-128q0 -7 4.5 -11.5t11.5 -4.5h32q7 0 11.5 4.5t4.5 11.5v80h80zM248 128q8 0 8 8v240q0 8 -8 8h-16
q-8 0 -8 -8v-240q0 -8 8 -8h16zM16 160q-7 0 -11.5 -4.5t-4.5 -11.5v-128q0 -7 4.5 -11.5t11.5 -4.5h128q7 0 11.5 4.5t4.5 11.5v32q0 7 -4.5 11.5t-11.5 4.5h-80v80q0 7 -4.5 11.5t-11.5 4.5h-32zM408 128q8 0 8 8v240q0 8 -8 8h-48q-8 0 -8 -8v-240q0 -8 8 -8h48zM312 128
q8 0 8 8v240q0 8 -8 8h-16q-8 0 -8 -8v-240q0 -8 8 -8h16zM624 0q7 0 11.5 4.5t4.5 11.5v128q0 7 -4.5 11.5t-11.5 4.5h-32q-7 0 -11.5 -4.5t-4.5 -11.5v-80h-80q-7 0 -11.5 -4.5t-4.5 -11.5v-32q0 -7 4.5 -11.5t11.5 -4.5h128zM624 352q7 0 11.5 4.5t4.5 11.5v128
q0 7 -4.5 11.5t-11.5 4.5h-128q-7 0 -11.5 -4.5t-4.5 -11.5v-32q0 -7 4.5 -11.5t11.5 -4.5h80v-80q0 -7 4.5 -11.5t11.5 -4.5h32zM512 376q0 8 -8 8h-48q-8 0 -8 -8v-240q0 -8 8 -8h48q8 0 8 8v240z" />
</svg>
