<?xml version="1.0" standalone="no"?>
<!DOCTYPE svg PUBLIC "-//W3C//DTD SVG 1.1//EN" "http://www.w3.org/Graphics/SVG/1.1/DTD/svg11.dtd" >
<svg xmlns="http://www.w3.org/2000/svg" xmlns:xlink="http://www.w3.org/1999/xlink" version="1.1" viewBox="-10 0 532 512">
   <path fill="currentColor"
d="M0 448v-384h18v384h-18zM27 448v-384h9v384h-9zM54 448v-384h9v384h-9zM99 448v-384h9v384h-9zM135 448v-384h18v384h-18zM180 448v-384h9v384h-9zM198 448v-384h9v384h-9zM216 448v-384h9v384h-9zM251 448v-384h18v384h-18zM296 448v-384h18v384h-18zM332 448v-384h18
v384h-18zM368 448v-384h18v384h-18zM395 448v-384h18v384h-18zM440 448v-384h27v384h-27zM476 448v-384h9v384h-9zM494 448v-384h18v384h-18z" />
</svg>
