<?xml version="1.0" standalone="no"?>
<!DOCTYPE svg PUBLIC "-//W3C//DTD SVG 1.1//EN" "http://www.w3.org/Graphics/SVG/1.1/DTD/svg11.dtd" >
<svg xmlns="http://www.w3.org/2000/svg" xmlns:xlink="http://www.w3.org/1999/xlink" version="1.1" viewBox="-11 0 662 512">
   <path fill="currentColor"
d="M630 56q13 18 9.5 40.5t-21.5 36.5l-212 156q-72 52 -163 93l-62 -87q66 -76 137 -128l212 -157q18 -13 40.5 -9.5t35.5 22.5zM146 433q-27 17 -57 38q8 9 6.5 17.5t-3.5 12t-5 6.5q-9 6 -18.5 4.5t-15.5 -8.5l-48 -60q-6 -8 -5 -18t9 -16q19 -14 37 9q28 -21 56 -45z
M123 355q19 -18 39 -39l56 77q-28 14 -49 26zM495 352q33 0 56.5 23.5t23.5 56.5t-23.5 56.5t-56.5 23.5q-22 0 -40.5 -10.5t-29 -29t-10.5 -40.5q0 -33 23.5 -56.5t56.5 -23.5z" />
</svg>
