<?xml version="1.0" standalone="no"?>
<!DOCTYPE svg PUBLIC "-//W3C//DTD SVG 1.1//EN" "http://www.w3.org/Graphics/SVG/1.1/DTD/svg11.dtd" >
<svg xmlns="http://www.w3.org/2000/svg" xmlns:xlink="http://www.w3.org/1999/xlink" version="1.1" viewBox="-10 0 516 512">
   <path fill="currentColor"
d="M212 10q-2 77 -44 132l-78 -78q53 -44 122 -54zM248 222l-46 -46q57 -70 58 -168q83 4 146 56zM56 98l78 78q-55 42 -132 44q10 -69 54 -122zM328 302l-46 -46l158 -158q52 63 56 146q-98 2 -168 58zM248 290l46 46q-56 70 -58 168q-83 -4 -146 -56zM440 414l-78 -78
q55 -42 132 -44q-10 69 -54 122zM168 210l46 46l-158 158q-52 -63 -56 -146q98 -1 168 -58zM284 502q2 -77 44 -132l78 78q-53 44 -122 54z" />
</svg>
