<?xml version="1.0" standalone="no"?>
<!DOCTYPE svg PUBLIC "-//W3C//DTD SVG 1.1//EN" "http://www.w3.org/Graphics/SVG/1.1/DTD/svg11.dtd" >
<svg xmlns="http://www.w3.org/2000/svg" xmlns:xlink="http://www.w3.org/1999/xlink" version="1.1" viewBox="-10 0 660 512">
   <path fill="currentColor"
d="M558 130l82 190l-50 -17q-14 -4 -27.5 -2.5t-25.5 9t-20 19.5l-37 55l-12 -12q-20 -20 -49.5 -18t-46.5 25l-52 69l-52 -69q-17 -23 -46.5 -25t-49.5 18l-12 12l-37 -55q-12 -18 -32.5 -25t-40.5 -1l-50 17l82 -190q5 -14 19 -18.5t26 3.5l101 60l28 -111l43 32h42
l43 -32l28 111l101 -60q12 -8 26 -3.5t19 18.5z" />
</svg>
