<?xml version="1.0" standalone="no"?>
<!DOCTYPE svg PUBLIC "-//W3C//DTD SVG 1.1//EN" "http://www.w3.org/Graphics/SVG/1.1/DTD/svg11.dtd" >
<svg xmlns="http://www.w3.org/2000/svg" xmlns:xlink="http://www.w3.org/1999/xlink" version="1.1" viewBox="-10 0 532 512">
   <path fill="currentColor"
d="M488 256q10 0 17 7t7 17v16q0 10 -7 17t-17 7h-8v32q0 43 -32 72v32q0 10 -7 17t-17 7h-16q-10 0 -17 -7t-7 -17v-8h-256v8q0 10 -7 17t-17 7h-16q-10 0 -17 -7t-7 -17v-32q-32 -29 -32 -72v-32h-8q-10 0 -17 -7t-7 -17v-16q0 -10 7 -17t17 -7h8v-144q0 -33 23.5 -56.5
t56.5 -23.5q42 0 66 34q36 -10 64 16q8 -8 16 0l12 12q8 8 0 17l-95 95q-9 8 -17 0l-12 -12q-8 -8 0 -16q-16 -17 -18 -40.5t11 -42.5q-9 -15 -27 -15q-13 0 -22.5 9.5t-9.5 22.5v144h408z" />
</svg>
