<?xml version="1.0" standalone="no"?>
<!DOCTYPE svg PUBLIC "-//W3C//DTD SVG 1.1//EN" "http://www.w3.org/Graphics/SVG/1.1/DTD/svg11.dtd" >
<svg xmlns="http://www.w3.org/2000/svg" xmlns:xlink="http://www.w3.org/1999/xlink" version="1.1" viewBox="-10 0 660 512">
   <path fill="currentColor"
d="M64 352h223l83 64h-322q-20 0 -34 -14t-14 -34v-224q0 -6 2 -13l62 48v173zM608 368q0 9 -4.5 18.5t-12 16.5t-15.5 10l58 45q6 5 6 13q0 5 -3 10l-20 25q-5 6 -13 6q-5 0 -9 -3l-589 -455q-6 -5 -6 -13q0 -5 3 -10l20 -25q5 -6 13 -6q5 0 9 3l120 93h395q20 0 34 14
t14 34v16h8q10 0 17 7t7 17v144q0 10 -7 17t-17 7h-8v16zM576 288v-64h-32v-64h-296l249 192h47v-64h32z" />
</svg>
