<?xml version="1.0" standalone="no"?>
<!DOCTYPE svg PUBLIC "-//W3C//DTD SVG 1.1//EN" "http://www.w3.org/Graphics/SVG/1.1/DTD/svg11.dtd" >
<svg xmlns="http://www.w3.org/2000/svg" xmlns:xlink="http://www.w3.org/1999/xlink" version="1.1" viewBox="-10 0 660 512">
   <path fill="currentColor"
d="M544 160h-480v192h480v-64h32v-64h-32v-64zM560 96q20 0 34 14t14 34v16h8q10 0 17 7t7 17v144q0 10 -7 17t-17 7h-8v16q0 20 -14 34t-34 14h-512q-20 0 -34 -14t-14 -34v-224q0 -20 14 -34t34 -14h512zM512 192v128h-416v-128h416z" />
</svg>
