<?xml version="1.0" standalone="no"?>
<!DOCTYPE svg PUBLIC "-//W3C//DTD SVG 1.1//EN" "http://www.w3.org/Graphics/SVG/1.1/DTD/svg11.dtd" >
<svg xmlns="http://www.w3.org/2000/svg" xmlns:xlink="http://www.w3.org/1999/xlink" version="1.1" viewBox="-11 0 662 512">
   <path fill="currentColor"
d="M634 458q12 10 3 23l-20 25q-10 12 -22 3l-589 -455q-12 -10 -3 -23l20 -25q10 -12 22 -3l145 112q37 -49 98 -62v-21q0 -13 9.5 -22.5t22.5 -9.5t22.5 9.5t9.5 22.5v21q56 11 92 54t36 101q0 44 10 77.5t18.5 45.5t23.5 27q2 3 3 4q9 10 9 22q0 1 -0.5 2.5l-0.5 1.5z
M157 252l213 164h-242q-9 0 -16.5 -4.5t-11.5 -12t-4 -15.5q0 -12 9 -22q14 -15 20 -22t17 -32t15 -56zM320 512q-26 0 -45 -18.5t-19 -45.5h128q0 17 -8.5 32t-23.5 23.5t-32 8.5z" />
</svg>
