<?xml version="1.0" standalone="no"?>
<!DOCTYPE svg PUBLIC "-//W3C//DTD SVG 1.1//EN" "http://www.w3.org/Graphics/SVG/1.1/DTD/svg11.dtd" >
<svg xmlns="http://www.w3.org/2000/svg" xmlns:xlink="http://www.w3.org/1999/xlink" version="1.1" viewBox="-10 0 468 512">
   <path fill="currentColor"
d="M224 512q-26 0 -45 -19t-19 -45h128q0 26 -19 45t-45 19zM439 362q9 9 9 22t-9 22.5t-23 9.5h-384q-14 0 -23 -9.5t-9 -22.5t9 -22q1 -1 3 -4q15 -15 23.5 -27t18.5 -45.5t10 -77.5q0 -58 36 -101t92 -54v-21q0 -13 9.5 -22.5t22.5 -9.5t22.5 9.5t9.5 22.5v21q37 7 66 29
t45.5 55t16.5 71q0 44 10 77.5t18.5 45.5t23.5 27q2 3 3 4zM224 352q13 0 22.5 -9.5t9.5 -22.5t-9.5 -22.5t-22.5 -9.5t-22.5 9.5t-9.5 22.5t9.5 22.5t22.5 9.5zM249 242l13 -96v-2q0 -7 -4.5 -11.5t-11.5 -4.5h-44q-7 0 -11.5 4.5t-4.5 11.5v2l13 96q0 6 5 10t10 4h20
q3 0 6.5 -2t6 -5t2.5 -7z" />
</svg>
