<?xml version="1.0" standalone="no"?>
<!DOCTYPE svg PUBLIC "-//W3C//DTD SVG 1.1//EN" "http://www.w3.org/Graphics/SVG/1.1/DTD/svg11.dtd" >
<svg xmlns="http://www.w3.org/2000/svg" xmlns:xlink="http://www.w3.org/1999/xlink" version="1.1" viewBox="-11 0 662 512">
   <path fill="currentColor"
d="M242 254q2 6 16 43q10 29 12 52t-0.5 32.5t-8.5 23.5l-243 -89q-17 -6 -18 -23.5t14 -25.5q2 0 5 -2q11 -5 18.5 -10t20 -16.5t23.5 -30.5t21 -46q4 -13 15 -42q19 -52 69 -75.5t102 -4.5q14 5 28 14q-52 30 -73.5 86.5t-0.5 113.5zM138 444q-20 -7 -31.5 -25.5
t-10.5 -39.5l116 42q-12 17 -32.5 24t-41.5 -1zM502 476q-21 7 -41.5 0.5t-32.5 -23.5l116 -42q1 21 -10.5 39.5t-31.5 25.5zM626 299q16 9 14 26t-18 23l-300 110q-17 6 -28.5 -7t-5.5 -29q1 -1 2 -4q7 -16 10.5 -28t1.5 -41t-14 -63q-14 -37 -16 -43q-19 -52 4.5 -102
t75.5 -69t102 4.5t69 75.5q1 3 15 42q13 35 30 58.5t27.5 30.5t26.5 14q2 2 4 2z" />
</svg>
