<?xml version="1.0" standalone="no"?>
<!DOCTYPE svg PUBLIC "-//W3C//DTD SVG 1.1//EN" "http://www.w3.org/Graphics/SVG/1.1/DTD/svg11.dtd" >
<svg xmlns="http://www.w3.org/2000/svg" xmlns:xlink="http://www.w3.org/1999/xlink" version="1.1" viewBox="-10 0 532 512">
   <path fill="currentColor"
d="M416 208q0 86 -61 147t-147 61t-147 -61t-61 -147t61 -147t147 -61t147 61t61 147zM128 208q0 33 23.5 56.5t56.5 23.5t56.5 -23.5t23.5 -56.5t-23.5 -56.5t-56.5 -23.5t-56.5 23.5t-23.5 56.5zM256 208q0 20 -14 34t-34 14t-34 -14t-14 -34t14 -34t34 -14t34 14t14 34z
M464 320q20 0 34 14t14 34q0 29 -26 42q-6 30 -30.5 50t-55.5 20h-48q0 13 -9.5 22.5t-22.5 9.5h-224q-13 0 -22.5 -9.5t-9.5 -22.5v-80q64 48 144 48t144 -48v32h48q27 0 37 -24q-21 -15 -21 -40q0 -20 14 -34t34 -14z" />
</svg>
