<?xml version="1.0" standalone="no"?>
<!DOCTYPE svg PUBLIC "-//W3C//DTD SVG 1.1//EN" "http://www.w3.org/Graphics/SVG/1.1/DTD/svg11.dtd" >
<svg xmlns="http://www.w3.org/2000/svg" xmlns:xlink="http://www.w3.org/1999/xlink" version="1.1" viewBox="-10 0 468 512">
   <path fill="currentColor"
d="M224 512q-26 0 -45 -18.5t-19 -45.5h128q0 27 -19 45.5t-45 18.5zM439 362q9 10 9 22q0 13 -9 22.5t-23 9.5h-384q-9 0 -16.5 -4.5t-11.5 -12t-4 -15.5q0 -12 9 -22q1 -1 3 -4q15 -15 23.5 -27t18.5 -45.5t10 -77.5q0 -58 36 -101t92 -54v-21q0 -13 9.5 -22.5t22.5 -9.5
t22.5 9.5t9.5 22.5v21q37 7 66 29t45.5 55t16.5 71q0 44 10 77.5t18.5 45.5t23.5 27q2 3 3 4z" />
</svg>
