<?xml version="1.0" standalone="no"?>
<!DOCTYPE svg PUBLIC "-//W3C//DTD SVG 1.1//EN" "http://www.w3.org/Graphics/SVG/1.1/DTD/svg11.dtd" >
<svg xmlns="http://www.w3.org/2000/svg" xmlns:xlink="http://www.w3.org/1999/xlink" version="1.1" viewBox="-10 0 660 512">
   <path fill="currentColor"
d="M368 32q13 0 22.5 9.5t9.5 22.5v96q0 13 -9.5 22.5t-22.5 9.5h-96q-13 0 -22.5 -9.5t-9.5 -22.5v-96q0 -13 9.5 -22.5t22.5 -9.5h96zM208 88v72q0 14 6 26q-54 39 -71 102h-50q11 -48 39.5 -87.5t70.5 -64.5h-80q-3 9 -9 16.5t-13.5 12.5t-17 8t-19.5 3
q-27 0 -45.5 -18.5t-18.5 -45.5t18.5 -45.5t45.5 -18.5q20 0 36 11t23 29h85zM160 320q13 0 22.5 9.5t9.5 22.5v96q0 13 -9.5 22.5t-22.5 9.5h-96q-13 0 -22.5 -9.5t-9.5 -22.5v-96q0 -13 9.5 -22.5t22.5 -9.5h96zM576 48q27 0 45.5 18.5t18.5 45.5t-18.5 45.5t-45.5 18.5
q-20 0 -36 -11t-23 -29h-80q42 25 70.5 64.5t39.5 87.5h-50q-17 -63 -71 -102q6 -12 6 -26v-72h85q7 -18 23 -29t36 -11zM576 320q13 0 22.5 9.5t9.5 22.5v96q0 13 -9.5 22.5t-22.5 9.5h-96q-13 0 -22.5 -9.5t-9.5 -22.5v-96q0 -13 9.5 -22.5t22.5 -9.5h96z" />
</svg>
