<?xml version="1.0" standalone="no"?>
<!DOCTYPE svg PUBLIC "-//W3C//DTD SVG 1.1//EN" "http://www.w3.org/Graphics/SVG/1.1/DTD/svg11.dtd" >
<svg xmlns="http://www.w3.org/2000/svg" xmlns:xlink="http://www.w3.org/1999/xlink" version="1.1" viewBox="-10 0 661 512">
   <path fill="currentColor"
d="M513 192q53 0 90.5 38.5t36.5 91.5t-38.5 90t-90.5 36q-52 -1 -89.5 -38.5t-37.5 -89.5q0 -56 41 -94l-15 -24l-86 139q-7 11 -20 11h-52q-11 42 -45.5 69t-78.5 27q-53 0 -90.5 -37.5t-37.5 -91.5q0 -52 38 -89.5t90 -37.5q23 0 43 8l30 -48h-49q-10 0 -17 -7t-7 -17
q0 -6 3.5 -11.5t9 -9t12.5 -3.5h87q7 0 11.5 4.5t4.5 11.5v16h114l-15 -24h-51q-7 0 -11.5 -4.5t-4.5 -11.5v-16q0 -7 4.5 -11.5t11.5 -4.5h64q13 0 20 11l78 125q22 -8 47 -8zM187 266l-24 38h43q-4 -22 -19 -38zM128 400q24 0 44 -13t29 -35h-81q-14 0 -21 -12.5t1 -24.5
l45 -73q-8 -2 -17 -2q-33 0 -56.5 23.5t-23.5 56.5t23.5 56.5t56.5 23.5zM291 304l74 -120h-128l-24 40q36 32 42 80h36zM508 400q34 2 59 -22t25 -58q0 -33 -23.5 -56.5t-56.5 -23.5q-10 0 -20 2l45 72q3 6 1.5 12.5t-7.5 9.5l-13 9q-6 3 -12.5 1.5t-9.5 -7.5l-45 -71
q-20 24 -19 55t23 53t53 24z" />
</svg>
