<?xml version="1.0" standalone="no"?>
<!DOCTYPE svg PUBLIC "-//W3C//DTD SVG 1.1//EN" "http://www.w3.org/Graphics/SVG/1.1/DTD/svg11.dtd" >
<svg xmlns="http://www.w3.org/2000/svg" xmlns:xlink="http://www.w3.org/1999/xlink" version="1.1" viewBox="-10 0 660 512">
   <path fill="currentColor"
d="M400 96q-20 0 -34 -14t-14 -34t14 -34t34 -14t34 14t14 34t-14 34t-34 14zM173 170l-41 -49q-10 -12 1 -22l58 -49q24 -21 56 -17.5t53 28.5q10 12 -1 23l-105 88q-11 10 -21 -2zM240 352q7 0 11.5 4.5t4.5 11.5v32q0 7 -4.5 11.5t-11.5 4.5h-5q-3 11 -9 21l4 4q5 4 5 11
t-5 11l-23 23q-4 5 -11 5t-11 -5l-4 -4q-10 6 -21 9v5q0 7 -4.5 11.5t-11.5 4.5h-32q-7 0 -11.5 -4.5t-4.5 -11.5v-5q-11 -3 -21 -9l-4 4q-4 5 -11 5t-11 -5l-23 -23q-5 -4 -5 -11t5 -11l4 -4q-6 -10 -9 -21h-5q-7 0 -11.5 -4.5t-4.5 -11.5v-32q0 -7 4.5 -11.5t11.5 -4.5h5
q3 -11 9 -21l-4 -4q-5 -4 -5 -11t5 -11l23 -23q4 -5 11 -5t11 5l4 4q10 -6 21 -9v-5q0 -7 4.5 -11.5t11.5 -4.5h32q7 0 11.5 4.5t4.5 11.5v5q11 3 21 9l4 -4q4 -5 11 -5t11 5l23 23q5 4 5 11t-5 11l-4 4q6 10 9 21h5zM128 448q26 0 45 -19t19 -45t-19 -45t-45 -19t-45 19
t-19 45t19 45t45 19zM624 352q7 0 11.5 4.5t4.5 11.5v32q0 7 -4.5 11.5t-11.5 4.5h-5q-3 11 -9 21l4 4q5 4 5 11t-5 11l-23 23q-4 5 -11 5t-11 -5l-4 -4q-10 6 -21 9v5q0 7 -4.5 11.5t-11.5 4.5h-32q-7 0 -11.5 -4.5t-4.5 -11.5v-5q-11 -3 -21 -9l-4 4q-4 5 -11 5t-11 -5
l-23 -23q-5 -4 -5 -11t5 -11l4 -4q-6 -10 -9 -21h-5q-7 0 -11.5 -4.5t-4.5 -11.5v-32q0 -7 4.5 -11.5t11.5 -4.5h5q3 -11 9 -21l-4 -4q-4 -4 -4 -11t4 -11l23 -23q5 -5 11.5 -5t10.5 5l4 4q10 -6 21 -9v-5q0 -7 4.5 -11.5t11.5 -4.5h32q7 0 11.5 4.5t4.5 11.5v5q11 3 21 9
l4 -4q4 -5 11 -5t11 5l23 23q5 4 5 11t-5 11l-4 4q6 10 9 21h5zM512 448q26 0 45 -19t19 -45t-19 -45t-45 -19t-45 19t-19 45t19 45t45 19zM396 217l-41 -33l-59 50l42 27q14 10 14 27v128q0 13 -9.5 22.5t-22.5 9.5t-22.5 -9.5t-9.5 -22.5v-111l-82 -54q-14 -10 -14 -27
q0 -15 11 -24l112 -96q9 -8 21 -8q11 0 20 7l71 57h53q13 0 22.5 9.5t9.5 22.5t-9.5 22.5t-22.5 9.5h-64q-11 0 -20 -7z" />
</svg>
