<?xml version="1.0" standalone="no"?>
<!DOCTYPE svg PUBLIC "-//W3C//DTD SVG 1.1//EN" "http://www.w3.org/Graphics/SVG/1.1/DTD/svg11.dtd" >
<svg xmlns="http://www.w3.org/2000/svg" xmlns:xlink="http://www.w3.org/1999/xlink" version="1.1" viewBox="-10 0 532 512">
   <path fill="currentColor"
d="M416 48v48h-96v-48q0 -7 4.5 -11.5t11.5 -4.5h64q7 0 11.5 4.5t4.5 11.5zM64 160q0 -13 9.5 -22.5t22.5 -9.5h96v160h-32v160q0 13 -9.5 22.5t-22.5 9.5h-96q-13 0 -22.5 -9.5t-9.5 -22.5v-44q1 -36 7.5 -65.5t15.5 -50t18 -39t15.5 -41t7.5 -48.5zM448 160
q1 31 10.5 59.5t21 49t21.5 56t11 79.5v44q0 13 -9.5 22.5t-22.5 9.5h-96q-13 0 -22.5 -9.5t-9.5 -22.5v-160h-32v-160h96q9 0 16 4.5t11.5 11.5t4.5 16zM176 32q7 0 11.5 4.5t4.5 11.5v48h-96v-48q0 -7 4.5 -11.5t11.5 -4.5h64zM224 288v-160h64v160h-64z" />
</svg>
