<?xml version="1.0" standalone="no"?>
<!DOCTYPE svg PUBLIC "-//W3C//DTD SVG 1.1//EN" "http://www.w3.org/Graphics/SVG/1.1/DTD/svg11.dtd" >
<svg xmlns="http://www.w3.org/2000/svg" xmlns:xlink="http://www.w3.org/1999/xlink" version="1.1" viewBox="-11 0 597 512">
   <path fill="currentColor"
d="M288 112q-25 0 -53 10q-20 -16 -29 -41q39 -17 82 -17t82 17q-9 25 -29 41q-28 -10 -53 -10zM164 439q-37 -27 -59 -67t-25 -87q11 -3 23 -3t26 5q6 67 59 109q-6 25 -24 43zM388 396q52 -42 58 -109q15 -5 27 -5q11 0 22 3q-3 47 -25 87t-58 67q-18 -18 -24 -43z
M501 191q54 32 74 93q3 6 -3 9.5t-10 -1.5q-14 -16 -29 -25q-43 -26 -91 -12.5t-73 57.5t-12 93t56 75q15 9 35 13q7 1 7 8t-7 8q-61 12 -115 -20q-25 -15 -45 -40q-20 25 -45 40q-54 32 -116 20q-6 -1 -6 -8t6 -8q21 -5 36 -13q43 -26 56 -75t-12 -93t-73 -57.5t-91 12.5
q-15 8 -29 25q-4 5 -10 1.5t-4 -9.5q21 -61 75 -93q24 -14 55 -20q-10 -29 -10 -56q0 -63 41 -112q4 -5 10 -2t4 10q-7 20 -7 38q0 51 35 87t85 36q33 0 60.5 -16.5t43.5 -44.5t16 -62q0 -18 -7 -38q-2 -7 4 -10t10 2q41 48 41 112q0 27 -10 56q31 6 55 20zM288 320
q20 0 34 -14t14 -34t-14 -34t-34 -14t-34 14t-14 34t14 34t34 14z" />
</svg>
