<?xml version="1.0" standalone="no"?>
<!DOCTYPE svg PUBLIC "-//W3C//DTD SVG 1.1//EN" "http://www.w3.org/Graphics/SVG/1.1/DTD/svg11.dtd" >
<svg xmlns="http://www.w3.org/2000/svg" xmlns:xlink="http://www.w3.org/1999/xlink" version="1.1" viewBox="-10 0 468 512">
   <path fill="currentColor"
d="M448 384q-12 0 -31.5 -16t-43 -16t-43 16t-31.5 16t-31.5 -16t-43.5 -16q-23 0 -43 16t-31 16q-13 0 -32.5 -16t-43 -16t-43 16t-31.5 16v-80q0 -20 14 -34t34 -14h16v-144h64v144h64v-144h64v144h64v-144h64v144h16q20 0 34 14t14 34v80zM448 512h-448v-96
q24 0 43.5 -16t31.5 -16t31.5 16t43 16t43 -16t31.5 -16t31.5 16t43 16t43 -16t32.5 -16q11 0 30.5 16t43.5 16v96zM96 96q-13 0 -22.5 -9.5t-9.5 -22.5q0 -14 16 -28t16 -36q10 0 21 18.5t11 37.5t-9 29.5t-23 10.5zM224 96q-13 0 -22.5 -9.5t-9.5 -22.5q0 -14 16 -28
t16 -36q10 0 21 18.5t11 37.5t-9 29.5t-23 10.5zM352 96q-13 0 -22.5 -9.5t-9.5 -22.5q0 -14 16 -28t16 -36q10 0 21 18.5t11 37.5t-9 29.5t-23 10.5z" />
</svg>
