<?xml version="1.0" standalone="no"?>
<!DOCTYPE svg PUBLIC "-//W3C//DTD SVG 1.1//EN" "http://www.w3.org/Graphics/SVG/1.1/DTD/svg11.dtd" >
<svg xmlns="http://www.w3.org/2000/svg" xmlns:xlink="http://www.w3.org/1999/xlink" version="1.1" viewBox="-10 0 532 512">
   <path fill="currentColor"
d="M172 227q58 11 92 61t21 111q-9 41 -39 71t-71 39q-69 14 -122 -29.5t-53 -111.5v-248q0 -10 7 -17t17 -7h48q10 0 17 7t7 17v248q0 20 14 34t34 14t34 -14t14 -34q0 -10 -4 -19t-11 -16t-16 -10q-17 -6 -17 -22v-50q0 -12 8.5 -19t19.5 -5zM209 0q122 6 209.5 93.5
t93.5 209.5q0 7 -4.5 12t-11.5 5h-32q-7 0 -11.5 -4.5t-4.5 -10.5q-6 -97 -75 -166.5t-166 -74.5q-6 -1 -10.5 -5.5t-4.5 -10.5v-32q0 -7 5 -11.5t12 -4.5zM209 96q83 6 142 65t65 142q0 7 -4.5 12t-11.5 5h-32q-7 0 -11.5 -4t-4.5 -11q-5 -58 -46.5 -99t-98.5 -46
q-4 0 -7.5 -2.5t-5.5 -6t-2 -7.5v-32q0 -7 5 -12t12 -4z" />
</svg>
