<?xml version="1.0" standalone="no"?>
<!DOCTYPE svg PUBLIC "-//W3C//DTD SVG 1.1//EN" "http://www.w3.org/Graphics/SVG/1.1/DTD/svg11.dtd" >
<svg xmlns="http://www.w3.org/2000/svg" xmlns:xlink="http://www.w3.org/1999/xlink" version="1.1" viewBox="-10 0 596 512">
   <path fill="currentColor"
d="M542 32q14 -1 24 8t10 23v338q0 12 -8.5 21t-21.5 9q-140 8 -219 47q-5 3 -10.5 2t-9 -5.5t-3.5 -9.5v-364q0 -9 7 -13q77 -47 231 -56zM265 88q7 4 7 13v364q0 8 -7.5 12.5t-15.5 0.5q-79 -39 -219 -47q-13 0 -21.5 -9t-8.5 -21v-338q0 -14 10 -23t24 -8q154 9 231 56z
" />
</svg>
