<?xml version="1.0" standalone="no"?>
<!DOCTYPE svg PUBLIC "-//W3C//DTD SVG 1.1//EN" "http://www.w3.org/Graphics/SVG/1.1/DTD/svg11.dtd" >
<svg xmlns="http://www.w3.org/2000/svg" xmlns:xlink="http://www.w3.org/1999/xlink" version="1.1" viewBox="-10 0 468 512">
   <path fill="currentColor"
d="M448 358q0 15 -10 20q-2 9 -2 35t2 38q10 10 10 19v16q0 12 -7.5 19t-18.5 7h-326q-41 0 -68.5 -27.5t-27.5 -68.5v-320q0 -41 27.5 -68.5t68.5 -27.5h326q26 0 26 26v332zM144 168v48q0 8 8 8h56v56q0 8 8 8h48q8 0 8 -8v-56h56q8 0 8 -8v-48q0 -8 -8 -8h-56v-56
q0 -8 -8 -8h-48q-8 0 -8 8v56h-56q-8 0 -8 8zM381 448v-64h-285q-13 0 -22.5 9t-9.5 23t9 23t23 9h285z" />
</svg>
