<?xml version="1.0" standalone="no"?>
<!DOCTYPE svg PUBLIC "-//W3C//DTD SVG 1.1//EN" "http://www.w3.org/Graphics/SVG/1.1/DTD/svg11.dtd" >
<svg xmlns="http://www.w3.org/2000/svg" xmlns:xlink="http://www.w3.org/1999/xlink" version="1.1" viewBox="-10 0 468 512">
   <path fill="currentColor"
d="M272 136q-7 0 -11.5 -4.5t-4.5 -11.5t4.5 -11.5t11.5 -4.5t11.5 4.5t4.5 11.5t-4.5 11.5t-11.5 4.5zM448 358q0 15 -10 20q-2 9 -2 35t2 38q10 10 10 19v16q0 12 -7.5 19t-18.5 7h-326q-41 0 -68.5 -27.5t-27.5 -68.5v-320q0 -41 27.5 -68.5t68.5 -27.5h326q26 0 26 26
v332zM240 56q-33 0 -56.5 19t-23.5 45q0 32 32 51v13q0 7 4.5 11.5t11.5 4.5h64q7 0 11.5 -4.5t4.5 -11.5v-13q32 -19 32 -51q0 -26 -23.5 -45t-56.5 -19zM125 223q-3 8 4 11l71 30l-71 30q-7 3 -4 11l6 14q3 8 11 5l98 -43l98 43q8 3 11 -5l6 -14q3 -8 -4 -11l-70 -30
l70 -30q7 -3 4 -11l-6 -14q-3 -8 -11 -5l-98 42l-98 -42q-8 -3 -11 5zM381 448v-64h-285q-13 0 -22.5 9t-9.5 23t9 23t23 9h285zM208 136q-7 0 -11.5 -4.5t-4.5 -11.5t4.5 -11.5t11.5 -4.5t11.5 4.5t4.5 11.5t-4.5 11.5t-11.5 4.5z" />
</svg>
