<?xml version="1.0" standalone="no"?>
<!DOCTYPE svg PUBLIC "-//W3C//DTD SVG 1.1//EN" "http://www.w3.org/Graphics/SVG/1.1/DTD/svg11.dtd" >
<svg xmlns="http://www.w3.org/2000/svg" xmlns:xlink="http://www.w3.org/1999/xlink" version="1.1" viewBox="-10 0 661 512">
   <path fill="currentColor"
d="M128 128q53 0 90.5 37.5t37.5 90.5t-37.5 90.5t-90.5 37.5t-90.5 -37.5t-37.5 -90.5t37.5 -90.5t90.5 -37.5zM192 272v-32q0 -5 -5 -5h-38v-38q0 -5 -5 -5h-32q-5 0 -5 5v38h-38q-5 0 -5 5v32q0 5 5 5h38v38q0 5 5 5h32q5 0 5 -5v-38h38q5 0 5 -5zM64 480v-64h128v64
q0 13 -9.5 22.5t-22.5 9.5h-64q-13 0 -22.5 -9.5t-9.5 -22.5zM192 32v64h-128v-64q0 -13 9.5 -22.5t22.5 -9.5h64q13 0 22.5 9.5t9.5 22.5zM639 443q3 10 -2 19.5t-16 12.5l-15 4q-10 2 -21 -5q-8 1 -21.5 4t-27 7t-19.5 8q-7 11 -17 14l-15 4q-11 3 -20 -2.5t-11 -15.5
l-102 -397h-128v-64q0 -13 9.5 -22.5t22.5 -9.5h64q13 0 22.5 9.5t9.5 22.5v8q5 -2 6 -3l16 -4q9 -2 21 5q11 -1 34 -7t34 -12q6 -11 16 -14l15 -4q11 -3 20 2.5t12 15.5zM505 436l62 -16l-93 -344l-61 16zM224 129v-1h128v256h-128v-1q30 -22 47 -55.5t17 -71.5t-17 -71.5
t-47 -55.5zM224 480v-64h128v64q0 13 -9.5 22.5t-22.5 9.5h-64q-13 0 -22.5 -9.5t-9.5 -22.5z" />
</svg>
