<?xml version="1.0" standalone="no"?>
<!DOCTYPE svg PUBLIC "-//W3C//DTD SVG 1.1//EN" "http://www.w3.org/Graphics/SVG/1.1/DTD/svg11.dtd" >
<svg xmlns="http://www.w3.org/2000/svg" xmlns:xlink="http://www.w3.org/1999/xlink" version="1.1" viewBox="-10 0 597 512">
   <path fill="currentColor"
d="M575 443q3 10 -2 19.5t-16 12.5l-15 4q-10 2 -21 -5q-12 1 -35 7t-33 12q-7 11 -17 14l-15 4q-11 3 -20 -2.5t-11 -15.5l-102 -397h-128v-64q0 -13 9.5 -22.5t22.5 -9.5h64q13 0 22.5 9.5t9.5 22.5v8q5 -2 6 -3l16 -4q9 -2 21 5q11 -1 34 -7t34 -12q6 -11 16 -14l15 -4
q11 -3 20 2.5t12 15.5zM441 436l62 -16l-93 -344l-61 16zM0 384v-256h128v256h-128zM96 0q13 0 22.5 9.5t9.5 22.5v64h-128v-64q0 -13 9.5 -22.5t22.5 -9.5h64zM0 480v-64h128v64q0 13 -9.5 22.5t-22.5 9.5h-64q-13 0 -22.5 -9.5t-9.5 -22.5zM160 384v-256h128v256h-128z
M160 480v-64h128v64q0 13 -9.5 22.5t-22.5 9.5h-64q-13 0 -22.5 -9.5t-9.5 -22.5z" />
</svg>
