<?xml version="1.0" standalone="no"?>
<!DOCTYPE svg PUBLIC "-//W3C//DTD SVG 1.1//EN" "http://www.w3.org/Graphics/SVG/1.1/DTD/svg11.dtd" >
<svg xmlns="http://www.w3.org/2000/svg" xmlns:xlink="http://www.w3.org/1999/xlink" version="1.1" viewBox="-10 0 468 512">
   <path fill="currentColor"
d="M448 358q0 15 -10 20q-2 9 -2 35t2 38q10 10 10 19v16q0 12 -7.5 19t-18.5 7h-326q-41 0 -68.5 -27.5t-27.5 -68.5v-320q0 -41 27.5 -68.5t68.5 -27.5h326q26 0 26 26v332zM240 64q-26 0 -45 19t-19 45t19 45t45 19t45 -19t19 -45t-19 -45t-45 -19zM128 282v19q0 5 3 9.5
t8 7t11 2.5h180q9 0 15.5 -5.5t6.5 -13.5v-19q0 -24 -19.5 -41t-47.5 -17h-5q-19 8 -40 8t-40 -8h-5q-28 0 -47.5 17t-19.5 41zM381 448v-64h-285q-13 0 -22.5 9t-9.5 23t9 23t23 9h285z" />
</svg>
