<?xml version="1.0" standalone="no"?>
<!DOCTYPE svg PUBLIC "-//W3C//DTD SVG 1.1//EN" "http://www.w3.org/Graphics/SVG/1.1/DTD/svg11.dtd" >
<svg xmlns="http://www.w3.org/2000/svg" xmlns:xlink="http://www.w3.org/1999/xlink" version="1.1" viewBox="-11 0 660 512">
   <path fill="currentColor"
d="M463 256q33 0 56.5 23.5t23.5 56.5t-23.5 56.5t-56.5 23.5t-56.5 -23.5t-23.5 -56.5t23.5 -56.5t56.5 -23.5zM175 256q33 0 56.5 23.5t23.5 56.5t-23.5 56.5t-56.5 23.5t-56.5 -23.5t-23.5 -56.5t23.5 -56.5t56.5 -23.5zM607 163q13 5 22.5 18t9.5 27v256q0 20 -14 34
t-34 14h-544q-20 0 -34 -14t-14 -34v-256q0 -9 4.5 -18.5t11.5 -16.5t16 -10v-107q0 -23 16.5 -39.5t39.5 -16.5h464q23 0 39.5 16.5t16.5 39.5v107zM175 448q46 0 79 -33t33 -79t-33 -79t-79 -33t-79 33t-33 79t33 79t79 33zM335 128q7 0 11.5 4.5t4.5 11.5v16h32v-16
q0 -7 4.5 -11.5t11.5 -4.5h32q7 0 11.5 4.5t4.5 11.5v16h112v-104q0 -8 -8 -8h-464q-8 0 -8 8v104h112v-16q0 -7 4.5 -11.5t11.5 -4.5h32q7 0 11.5 4.5t4.5 11.5v16h32v-16q0 -7 4.5 -11.5t11.5 -4.5h32zM463 448q46 0 79 -33t33 -79t-33 -79t-79 -33t-79 33t-33 79t33 79
t79 33z" />
</svg>
