<?xml version="1.0" standalone="no"?>
<!DOCTYPE svg PUBLIC "-//W3C//DTD SVG 1.1//EN" "http://www.w3.org/Graphics/SVG/1.1/DTD/svg11.dtd" >
<svg xmlns="http://www.w3.org/2000/svg" xmlns:xlink="http://www.w3.org/1999/xlink" version="1.1" viewBox="-10 0 532 512">
   <path fill="currentColor"
d="M480 0q13 0 22.5 9.5t9.5 22.5v464q0 7 -4.5 11.5t-11.5 4.5h-32q-7 0 -11.5 -4.5t-4.5 -11.5v-496h32zM0 32q0 -13 9.5 -22.5t22.5 -9.5h64v64h-32v432q0 7 -4.5 11.5t-11.5 4.5h-32q-7 0 -11.5 -4.5t-4.5 -11.5v-464zM416 0v400q0 20 -14 34t-34 14q-22 0 -37 -17
q-4 -5 -11 -5t-11 5q-15 17 -37 17t-37 -17q-4 -5 -11 -5t-11 5q-15 17 -37 17q-20 0 -34 -14t-14 -34v-400h288z" />
</svg>
