<?xml version="1.0" standalone="no"?>
<!DOCTYPE svg PUBLIC "-//W3C//DTD SVG 1.1//EN" "http://www.w3.org/Graphics/SVG/1.1/DTD/svg11.dtd" >
<svg xmlns="http://www.w3.org/2000/svg" xmlns:xlink="http://www.w3.org/1999/xlink" version="1.1" viewBox="-10 0 532 512">
   <path fill="currentColor"
d="M0 480v-32h512v32l-32 32h-64l-32 -32l-32 32h-64l-32 -32l-32 32h-64l-32 -32l-32 32h-64zM352 80q0 7 -4.5 11.5t-11.5 4.5h-336v-80q0 -7 4.5 -11.5t11.5 -4.5h320q7 0 11.5 4.5t4.5 11.5v64zM439 286q32 8 52.5 34t20.5 59v37h-512v-288h320v32h-56q-8 0 -8 8v16
q0 8 8 8h56v32h-56q-8 0 -8 8v16q0 8 8 8h56z" />
</svg>
