<?xml version="1.0" standalone="no"?>
<!DOCTYPE svg PUBLIC "-//W3C//DTD SVG 1.1//EN" "http://www.w3.org/Graphics/SVG/1.1/DTD/svg11.dtd" >
<svg xmlns="http://www.w3.org/2000/svg" xmlns:xlink="http://www.w3.org/1999/xlink" version="1.1" viewBox="-11 0 534 512">
   <path fill="currentColor"
d="M146 287l-141 -141q-12 -11 0 -23l22 -22q12 -12 23 0l4 4q63 -41 138 -41q74 0 137 40l-47 46q-42 -22 -90 -22q-49 0 -92 23l91 91zM408 182q40 63 40 137q0 76 -41 138l5 5q11 11 0 23l-23 22q-11 12 -22 0l-142 -141l45 -46l91 91q23 -43 23 -92q0 -48 -22 -90z
M493 0q8 -1 14 5t5 14l-26 128q-2 10 -11 12.5t-15 -4.5l-35 -34l-251 251l17 49q1 3 1 7q0 8 -6 14l-64 64q-8 8 -19 5.5t-15 -13.5l-18 -56l-56 -18q-11 -4 -13.5 -15t5.5 -19l64 -64q6 -6 14 -6q4 0 7 1l49 17l251 -251l-34 -34q-7 -7 -4.5 -16t12.5 -11z" />
</svg>
