<?xml version="1.0" standalone="no"?>
<!DOCTYPE svg PUBLIC "-//W3C//DTD SVG 1.1//EN" "http://www.w3.org/Graphics/SVG/1.1/DTD/svg11.dtd" >
<svg xmlns="http://www.w3.org/2000/svg" xmlns:xlink="http://www.w3.org/1999/xlink" version="1.1" viewBox="-10 0 596 512">
   <path fill="currentColor"
d="M432 192h-288v-176q0 -7 4.5 -11.5t11.5 -4.5l256 1q6 0 11 4.5t5 11.5v175zM0 320h576v160q0 13 -9.5 22.5t-22.5 9.5h-512q-13 0 -22.5 -9.5t-9.5 -22.5v-160zM575 288h-574v-0.5t-1 -0.5l56 -139q8 -20 30 -20h26v64l-16 32h384l-16 -32v-64h26q22 0 30 20l56 139z
" />
</svg>
