<?xml version="1.0" standalone="no"?>
<!DOCTYPE svg PUBLIC "-//W3C//DTD SVG 1.1//EN" "http://www.w3.org/Graphics/SVG/1.1/DTD/svg11.dtd" >
<svg xmlns="http://www.w3.org/2000/svg" xmlns:xlink="http://www.w3.org/1999/xlink" version="1.1" viewBox="-10 0 468 512">
   <path fill="currentColor"
d="M447 160h-159l-32 -128h105q23 0 30 22l57 105q-1 0 -1 0.5v0.5zM160 160h-159v-0.5t-1 -0.5l57 -105q7 -22 30 -22h105zM288 192h160v256q0 13 -9.5 22.5t-22.5 9.5h-384q-13 0 -22.5 -9.5t-9.5 -22.5v-256h160v80q0 7 4.5 11.5t11.5 4.5h96q7 0 11.5 -4.5t4.5 -11.5
v-80z" />
</svg>
