<?xml version="1.0" standalone="no"?>
<!DOCTYPE svg PUBLIC "-//W3C//DTD SVG 1.1//EN" "http://www.w3.org/Graphics/SVG/1.1/DTD/svg11.dtd" >
<svg xmlns="http://www.w3.org/2000/svg" xmlns:xlink="http://www.w3.org/1999/xlink" version="1.1" viewBox="-10 0 468 512">
   <path fill="currentColor"
d="M416 32q13 0 22.5 9.5t9.5 22.5v384q0 13 -9.5 22.5t-22.5 9.5h-384q-13 0 -22.5 -9.5t-9.5 -22.5v-384q0 -13 9.5 -22.5t22.5 -9.5h384zM320 192v-80q0 -7 -4.5 -11.5t-11.5 -4.5h-44l23 36l-64 32l37 60l-91 -68l64 -32l-25 -28h-60q-7 0 -11.5 4.5t-4.5 11.5v80
q0 35 23 62t57 32v98h-40q-8 0 -8 8v16q0 8 8 8h112q8 0 8 -8v-16q0 -8 -8 -8h-40v-98q34 -5 57 -32t23 -62z" />
</svg>
