<?xml version="1.0" standalone="no"?>
<!DOCTYPE svg PUBLIC "-//W3C//DTD SVG 1.1//EN" "http://www.w3.org/Graphics/SVG/1.1/DTD/svg11.dtd" >
<svg xmlns="http://www.w3.org/2000/svg" xmlns:xlink="http://www.w3.org/1999/xlink" version="1.1" viewBox="-10 0 468 512">
   <path fill="currentColor"
d="M384 160q26 0 45 19t19 45q0 64 -38 102l-58 58h-40q-8 0 -8 8v16q0 8 8 8h40v64q0 13 -9.5 22.5t-22.5 9.5h-256q-13 0 -22.5 -9.5t-9.5 -22.5v-64h40q8 0 8 -8v-16q0 -8 -8 -8h-40l-16 -97q-16 -95 -16 -191q0 -40 28 -68t68 -28h192q40 0 68 28t28 68v32h-11h-12.5
t-12 0.5t-12.5 1.5t-12.5 3.5t-13 6t-11.5 9t-11 12.5v-1h-147q-34 0 -60 -22q-6 -5 -11 0l-12 12q-6 6 1 11q35 31 82 31h133q-2 8 -2 16q0 15 5.5 29t15 24.5t23 17.5t27.5 9q3 0 5 -1t3 -3t1 -4v-16q0 -7 -7 -8q-18 -3 -29.5 -17t-11.5 -32q0 -20 14.5 -33.5t34.5 -13.5
h31zM261 442q5 -7 -2 -12l-40 -30l40 -30q7 -5 2 -12l-10 -12q-5 -7 -11 -2l-48 36l-48 -36q-6 -5 -11 2l-10 12q-5 7 2 12l40 30l-40 30q-7 5 -2 12l10 12q5 7 11 2l48 -36l48 36q6 5 11 -2z" />
</svg>
