<?xml version="1.0" standalone="no"?>
<!DOCTYPE svg PUBLIC "-//W3C//DTD SVG 1.1//EN" "http://www.w3.org/Graphics/SVG/1.1/DTD/svg11.dtd" >
<svg xmlns="http://www.w3.org/2000/svg" xmlns:xlink="http://www.w3.org/1999/xlink" version="1.1" viewBox="-10 0 596 512">
   <path fill="currentColor"
d="M208 32q7 0 11.5 4.5t4.5 11.5v32q0 7 -4.5 11.5t-11.5 4.5h-48q-13 0 -22.5 9.5t-9.5 22.5v37q0 11 -4 24t-10 25t-14 19l-23 23l23 23q12 11 20 31t8 37v37q0 13 9.5 22.5t22.5 9.5h48q7 0 11.5 4.5t4.5 11.5v32q0 7 -4.5 11.5t-11.5 4.5h-48q-40 0 -68 -28t-28 -68
v-37q0 -14 -9 -23l-46 -45q-9 -10 -9 -23t9 -23l46 -45q9 -9 9 -23v-37q0 -40 28 -68t68 -28h48zM567 233q9 10 9 23t-9 23l-46 45q-9 9 -9 23v37q0 40 -28 68t-68 28h-48q-7 0 -11.5 -4.5t-4.5 -11.5v-32q0 -7 4.5 -11.5t11.5 -4.5h48q13 0 22.5 -9.5t9.5 -22.5v-37
q0 -17 8 -37t20 -31l23 -23l-23 -23q-12 -11 -20 -31t-8 -37v-37q0 -13 -9.5 -22.5t-22.5 -9.5h-48q-7 0 -11.5 -4.5t-4.5 -11.5v-32q0 -7 4.5 -11.5t11.5 -4.5h48q40 0 68 28t28 68v37q0 14 9 23z" />
</svg>
