<?xml version="1.0" standalone="no"?>
<!DOCTYPE svg PUBLIC "-//W3C//DTD SVG 1.1//EN" "http://www.w3.org/Graphics/SVG/1.1/DTD/svg11.dtd" >
<svg xmlns="http://www.w3.org/2000/svg" xmlns:xlink="http://www.w3.org/1999/xlink" version="1.1" viewBox="-10 0 532 512">
   <path fill="currentColor"
d="M464 128q20 0 34 14t14 34v288q0 20 -14 34t-34 14h-416q-20 0 -34 -14t-14 -34v-288q0 -20 14 -34t34 -14h80v-48q0 -20 14 -34t34 -14h160q20 0 34 14t14 34v48h80zM192 96v32h128v-32h-128zM352 344v-48q0 -8 -8 -8h-56v-56q0 -8 -8 -8h-48q-8 0 -8 8v56h-56
q-8 0 -8 8v48q0 8 8 8h56v56q0 8 8 8h48q8 0 8 -8v-56h56q8 0 8 -8z" />
</svg>
