<?xml version="1.0" standalone="no"?>
<!DOCTYPE svg PUBLIC "-//W3C//DTD SVG 1.1//EN" "http://www.w3.org/Graphics/SVG/1.1/DTD/svg11.dtd" >
<svg xmlns="http://www.w3.org/2000/svg" xmlns:xlink="http://www.w3.org/1999/xlink" version="1.1" viewBox="-10 0 532 512">
   <path fill="currentColor"
d="M352 304q0 20 -14 34t-34 14h-256q-20 0 -34 -14t-14 -34v-256q0 -20 14 -34t34 -14h256q20 0 34 14t14 34v256zM464 160q20 0 34 14t14 34v256q0 20 -14 34t-34 14h-256q-20 0 -34 -14t-14 -34v-80h64v64h224v-224h-64v-64h80z" />
</svg>
