<?xml version="1.0" standalone="no"?>
<!DOCTYPE svg PUBLIC "-//W3C//DTD SVG 1.1//EN" "http://www.w3.org/Graphics/SVG/1.1/DTD/svg11.dtd" >
<svg xmlns="http://www.w3.org/2000/svg" xmlns:xlink="http://www.w3.org/1999/xlink" version="1.1" viewBox="-10 0 660 512">
   <path fill="currentColor"
d="M480 368q0 20 -14 34t-34 14h-224q-20 0 -34 -14t-14 -34v-224q0 -20 14 -34t34 -14h224q20 0 34 14t14 34v224zM64 64v128h64v64h-96q-13 0 -22.5 -9.5t-9.5 -22.5v-192q0 -13 9.5 -22.5t22.5 -9.5h192q13 0 22.5 9.5t9.5 22.5v32h-192zM608 256q13 0 22.5 9.5t9.5 22.5
v192q0 13 -9.5 22.5t-22.5 9.5h-192q-13 0 -22.5 -9.5t-9.5 -22.5v-32h192v-128h-64v-64h96z" />
</svg>
