<?xml version="1.0" standalone="no"?>
<!DOCTYPE svg PUBLIC "-//W3C//DTD SVG 1.1//EN" "http://www.w3.org/Graphics/SVG/1.1/DTD/svg11.dtd" >
<svg xmlns="http://www.w3.org/2000/svg" xmlns:xlink="http://www.w3.org/1999/xlink" version="1.1" viewBox="-10 0 660 512">
   <path fill="currentColor"
d="M151 192q-12 0 -15 -11q-8 -26 -8 -53t8 -53q3 -11 15 -11h34q8 0 12.5 6.5t2.5 14.5q-8 21 -8 43t8 43q2 8 -2.5 14.5t-12.5 6.5h-34zM90 23q-12 22 -19.5 48t-5.5 72.5t25 89.5q4 8 -0.5 15.5t-13.5 7.5h-35q-10 0 -14 -9q-27 -57 -27 -119t26 -119q4 -9 15 -9h35
q9 0 13.5 7.5t0.5 15.5zM614 9q26 57 26 119t-26 119q-4 9 -15 9h-35q-6 0 -10.5 -3.5t-5 -9t1.5 -11.5q22 -41 24.5 -86.5t-5 -72.5t-19.5 -50q-3 -5 -2 -10.5t5.5 -9t10.5 -3.5h35q11 0 15 9zM489 64q12 0 15 11q8 26 8 53t-8 53q-3 11 -15 11h-34q-8 0 -12.5 -6.5
t-2.5 -14.5q8 -21 8 -43t-8 -43q-2 -8 2.5 -14.5t12.5 -6.5h34zM373 164l130 314q3 6 0.5 12t-8.5 8l-30 13q-6 2 -12 -0.5t-9 -8.5l-49 -118h-150l-49 118q-3 6 -9 8.5t-12 0.5l-30 -13q-6 -2 -8.5 -8t0.5 -12l130 -314q-11 -16 -11 -36q0 -17 8.5 -32t23.5 -23.5t32 -8.5
t32 8.5t23.5 23.5t8.5 32q0 20 -11 36zM272 320h96l-48 -116z" />
</svg>
