<?xml version="1.0" standalone="no"?>
<!DOCTYPE svg PUBLIC "-//W3C//DTD SVG 1.1//EN" "http://www.w3.org/Graphics/SVG/1.1/DTD/svg11.dtd" >
<svg xmlns="http://www.w3.org/2000/svg" xmlns:xlink="http://www.w3.org/1999/xlink" version="1.1" viewBox="-10 0 661 512">
   <path fill="currentColor"
d="M256 217l87 109q0 4 -1.5 11t-8 27.5t-14 38.5t-22 39t-30.5 34q-27 21 -93.5 29.5t-120.5 6.5l-53 -2q4 -23 11 -55l95 -112q3 -4 0 -8t-7 -2l-60 22q25 -74 54 -97q27 -22 67.5 -32t68.5 -10zM637 31q9 13 -3 22l-232 178l34 43q3 5 1 11t-8 7l-59 12l-86 -109l25 -54
q3 -6 9 -7t10 4l34 43l232 -178q13 -9 23 3z" />
</svg>
