<?xml version="1.0" standalone="no"?>
<!DOCTYPE svg PUBLIC "-//W3C//DTD SVG 1.1//EN" "http://www.w3.org/Graphics/SVG/1.1/DTD/svg11.dtd" >
<svg xmlns="http://www.w3.org/2000/svg" xmlns:xlink="http://www.w3.org/1999/xlink" version="1.1" viewBox="-10 0 532 512">
   <path fill="currentColor"
d="M464 32q20 0 34 14t14 34v352q0 20 -14 34t-34 14h-416q-20 0 -34 -14t-14 -34v-352q0 -20 14 -34t34 -14h416zM128 148v-40q0 -12 -12 -12h-40q-12 0 -12 12v40q0 12 12 12h40q12 0 12 -12zM448 148v-40q0 -12 -12 -12h-248q-12 0 -12 12v40q0 12 12 12h248q12 0 12 -12
z" />
</svg>
