<?xml version="1.0" standalone="no"?>
<!DOCTYPE svg PUBLIC "-//W3C//DTD SVG 1.1//EN" "http://www.w3.org/Graphics/SVG/1.1/DTD/svg11.dtd" >
<svg xmlns="http://www.w3.org/2000/svg" xmlns:xlink="http://www.w3.org/1999/xlink" version="1.1" viewBox="-10 0 468 512">
   <path fill="currentColor"
d="M436 480q12 0 12 12v20h-448v-20q0 -12 12 -12h20v-456q0 -10 7 -17t17 -7h336q10 0 17 7t7 17v456h20zM128 76v40q0 12 12 12h40q12 0 12 -12v-40q0 -12 -12 -12h-40q-12 0 -12 12zM128 172v40q0 12 12 12h40q12 0 12 -12v-40q0 -12 -12 -12h-40q-12 0 -12 12zM180 320
q12 0 12 -12v-40q0 -12 -12 -12h-40q-12 0 -12 12v40q0 12 12 12h40zM256 480v-84q0 -12 -12 -12h-40q-12 0 -12 12v84h64zM320 308v-40q0 -12 -12 -12h-40q-12 0 -12 12v40q0 12 12 12h40q12 0 12 -12zM320 212v-40q0 -12 -12 -12h-40q-12 0 -12 12v40q0 12 12 12h40
q12 0 12 -12zM320 116v-40q0 -12 -12 -12h-40q-12 0 -12 12v40q0 12 12 12h40q12 0 12 -12z" />
</svg>
