<?xml version="1.0" standalone="no"?>
<!DOCTYPE svg PUBLIC "-//W3C//DTD SVG 1.1//EN" "http://www.w3.org/Graphics/SVG/1.1/DTD/svg11.dtd" >
<svg xmlns="http://www.w3.org/2000/svg" xmlns:xlink="http://www.w3.org/1999/xlink" version="1.1" viewBox="-11 0 517 512">
   <path fill="currentColor"
d="M242 241q5 -2 9.5 -0.5t7.5 4.5t4.5 7.5t-0.5 9.5l-61 214q-3 11 -14.5 12t-16.5 -9l-33 -69l-90 89q-11 11 -21 0l-22 -22q-11 -10 0 -21l89 -90l-69 -33q-10 -5 -9 -16.5t12 -14.5zM283 309q29 -19 29 -53q0 -26 -19 -45t-45 -19q-34 0 -53 29l-74 21q6 -49 42 -81.5
t85 -32.5q53 0 90.5 37.5t37.5 90.5q0 49 -32.5 85t-81.5 42zM248 8q67 0 124.5 33t90.5 90.5t33 124.5q0 103 -72.5 175.5t-175.5 72.5q-12 0 -25 -1q8 -9 10 -18l13 -45h1h1q76 0 130 -54t54 -130t-54 -130t-130 -54t-130 54t-54 130v1v1l-45 13q-9 2 -18 10
q-1 -13 -1 -25q0 -103 72.5 -175.5t175.5 -72.5z" />
</svg>
