<?xml version="1.0" standalone="no"?>
<!DOCTYPE svg PUBLIC "-//W3C//DTD SVG 1.1//EN" "http://www.w3.org/Graphics/SVG/1.1/DTD/svg11.dtd" >
<svg xmlns="http://www.w3.org/2000/svg" xmlns:xlink="http://www.w3.org/1999/xlink" version="1.1" viewBox="-10 0 517 512">
   <path fill="currentColor"
d="M305 99q-1 -3 -1 -7q0 -8 6 -14l64 -64q8 -8 19 -5.5t15 13.5l18 56l56 18q11 4 13.5 15t-5.5 19l-64 64q-9 9 -21 5l-49 -17l-91 91q-7 7 -17 7t-17 -7t-7 -17t7 -17l91 -91zM230 195q-20 6 -33 23t-13 38q0 26 19 45t45 19q21 0 38 -13t23 -33l55 -55l7 2q5 19 5 35
q0 53 -37.5 90.5t-90.5 37.5t-90.5 -37.5t-37.5 -90.5t37.5 -90.5t90.5 -37.5q16 0 35 5l2 7zM484 181q12 37 12 75q0 103 -72.5 175.5t-175.5 72.5t-175.5 -72.5t-72.5 -175.5t72.5 -175.5t175.5 -72.5q38 0 75 12l-36 35q-7 7 -11 19q-16 -2 -28 -2q-50 0 -92.5 24.5
t-67 67t-24.5 92.5t24.5 92.5t67 67t92.5 24.5q76 0 130 -54t54 -130q0 -12 -2 -27q11 -4 19 -12z" />
</svg>
