<?xml version="1.0" standalone="no"?>
<!DOCTYPE svg PUBLIC "-//W3C//DTD SVG 1.1//EN" "http://www.w3.org/Graphics/SVG/1.1/DTD/svg11.dtd" >
<svg xmlns="http://www.w3.org/2000/svg" xmlns:xlink="http://www.w3.org/1999/xlink" version="1.1" viewBox="-10 0 516 512">
   <path fill="currentColor"
d="M248 8q103 0 175.5 72.5t72.5 175.5t-72.5 175.5t-175.5 72.5t-175.5 -72.5t-72.5 -175.5t72.5 -175.5t175.5 -72.5zM248 440q76 0 130 -54t54 -130t-54 -130t-130 -54t-130 54t-54 130t54 130t130 54zM248 128q53 0 90.5 37.5t37.5 90.5t-37.5 90.5t-90.5 37.5
t-90.5 -37.5t-37.5 -90.5t37.5 -90.5t90.5 -37.5zM248 320q26 0 45 -19t19 -45t-19 -45t-45 -19t-45 19t-19 45t19 45t45 19z" />
</svg>
