<?xml version="1.0" standalone="no"?>
<!DOCTYPE svg PUBLIC "-//W3C//DTD SVG 1.1//EN" "http://www.w3.org/Graphics/SVG/1.1/DTD/svg11.dtd" >
<svg xmlns="http://www.w3.org/2000/svg" xmlns:xlink="http://www.w3.org/1999/xlink" version="1.1" viewBox="-10 0 661 512">
   <path fill="currentColor"
d="M352 176q0 7 -4.5 11.5t-11.5 4.5h-320q-7 0 -11.5 -4.5t-4.5 -11.5v-32q0 -7 4.5 -11.5t11.5 -4.5h141l25 -98q3 -12 14.5 -21t23.5 -9h52q7 0 11.5 4.5t4.5 11.5v16q0 7 -4.5 11.5t-11.5 4.5h-45l-20 80h129q7 0 11.5 4.5t4.5 11.5v32zM264 318q5 10 14 18
q-9 8 -15.5 22t-6.5 26q0 25 17 43q-17 15 -17 37q0 24 14 45q-7 3 -14 3h-160q-12 0 -21.5 -8.5t-10.5 -21.5l-26 -258h253q-15 14 -24 27q-11 17 -11 37q0 16 8 30zM624 448q7 0 11.5 4.5t4.5 11.5q0 20 -14 34t-34 14h-256q-20 0 -34 -14t-14 -34q0 -7 4.5 -11.5
t11.5 -4.5h320zM608 352q13 0 22.5 9.5t9.5 22.5t-9.5 22.5t-22.5 9.5h-288q-13 0 -22.5 -9.5t-9.5 -22.5t9.5 -22.5t22.5 -9.5h288zM294 269q23 -33 69 -55t101 -22q37 0 71 10.5t59 27.5t40 39q11 16 2.5 33.5t-27.5 17.5h-290q-19 0 -27.5 -17.5t2.5 -33.5zM544 240
q-7 0 -11.5 4.5t-4.5 11.5t4.5 11.5t11.5 4.5t11.5 -4.5t4.5 -11.5t-4.5 -11.5t-11.5 -4.5zM464 224q-7 0 -11.5 4.5t-4.5 11.5t4.5 11.5t11.5 4.5t11.5 -4.5t4.5 -11.5t-4.5 -11.5t-11.5 -4.5zM384 240q-7 0 -11.5 4.5t-4.5 11.5t4.5 11.5t11.5 4.5t11.5 -4.5t4.5 -11.5
t-4.5 -11.5t-11.5 -4.5z" />
</svg>
