<?xml version="1.0" standalone="no"?>
<!DOCTYPE svg PUBLIC "-//W3C//DTD SVG 1.1//EN" "http://www.w3.org/Graphics/SVG/1.1/DTD/svg11.dtd" >
<svg xmlns="http://www.w3.org/2000/svg" xmlns:xlink="http://www.w3.org/1999/xlink" version="1.1" viewBox="-10 0 532 512">
   <path fill="currentColor"
d="M488 112q10 0 17 7t7 17v80q0 10 -7 17t-17 7h-24v21q16 9 16 27v128q0 13 -9.5 22.5t-22.5 9.5v32q0 13 -9.5 22.5t-22.5 9.5h-32q-13 0 -22.5 -9.5t-9.5 -22.5v-32h-192v32q0 13 -9.5 22.5t-22.5 9.5h-32q-13 0 -22.5 -9.5t-9.5 -22.5v-32q-13 0 -22.5 -9.5t-9.5 -22.5
v-128q0 -18 16 -27v-21h-24q-10 0 -17 -7t-7 -17v-80q0 -10 7 -17t17 -7h24v-32q0 -34 60.5 -57t147.5 -23t147.5 23t60.5 57v32h24zM160 72v16q0 8 8 8h176q8 0 8 -8v-16q0 -8 -8 -8h-176q-8 0 -8 8zM112 384q13 0 22.5 -9.5t9.5 -22.5t-9.5 -22.5t-22.5 -9.5t-22.5 9.5
t-9.5 22.5t9.5 22.5t22.5 9.5zM240 256v-128h-96q-13 0 -22.5 9.5t-9.5 22.5v64q0 13 9.5 22.5t22.5 9.5h96zM272 256h96q13 0 22.5 -9.5t9.5 -22.5v-64q0 -13 -9.5 -22.5t-22.5 -9.5h-96v128zM400 384q13 0 22.5 -9.5t9.5 -22.5t-9.5 -22.5t-22.5 -9.5t-22.5 9.5t-9.5 22.5
t9.5 22.5t22.5 9.5z" />
</svg>
