<?xml version="1.0" standalone="no"?>
<!DOCTYPE svg PUBLIC "-//W3C//DTD SVG 1.1//EN" "http://www.w3.org/Graphics/SVG/1.1/DTD/svg11.dtd" >
<svg xmlns="http://www.w3.org/2000/svg" xmlns:xlink="http://www.w3.org/1999/xlink" version="1.1" viewBox="-10 0 532 512">
   <path fill="currentColor"
d="M488 128q10 0 17 7t7 17v80q0 10 -7 17t-17 7h-8v166q0 11 -7 18.5t-19 7.5h-6v32q0 13 -9.5 22.5t-22.5 9.5h-32q-13 0 -22.5 -9.5t-9.5 -22.5v-32h-192v32q0 13 -9.5 22.5t-22.5 9.5h-32q-13 0 -22.5 -9.5t-9.5 -22.5v-32q-13 0 -22.5 -9.5t-9.5 -22.5v-160h-8
q-10 0 -17 -7t-7 -17v-80q0 -10 7 -17t17 -7h8v-48q0 -34 65 -57t159 -23t159 23t65 57v48h8zM160 72v16q0 8 8 8h176q8 0 8 -8v-16q0 -8 -8 -8h-176q-8 0 -8 8zM112 400q13 0 22.5 -9.5t9.5 -22.5t-9.5 -22.5t-22.5 -9.5t-22.5 9.5t-9.5 22.5t9.5 22.5t22.5 9.5zM240 288
v-160h-112q-13 0 -22.5 9.5t-9.5 22.5v96q0 13 9.5 22.5t22.5 9.5h112zM272 288h112q13 0 22.5 -9.5t9.5 -22.5v-96q0 -13 -9.5 -22.5t-22.5 -9.5h-112v160zM400 400q13 0 22.5 -9.5t9.5 -22.5t-9.5 -22.5t-22.5 -9.5t-22.5 9.5t-9.5 22.5t9.5 22.5t22.5 9.5z" />
</svg>
