<?xml version="1.0" standalone="no"?>
<!DOCTYPE svg PUBLIC "-//W3C//DTD SVG 1.1//EN" "http://www.w3.org/Graphics/SVG/1.1/DTD/svg11.dtd" >
<svg xmlns="http://www.w3.org/2000/svg" xmlns:xlink="http://www.w3.org/1999/xlink" version="1.1" viewBox="-10 0 532 512">
   <path fill="currentColor"
d="M192 288q13 0 22.5 9.5t9.5 22.5v160q0 13 -9.5 22.5t-22.5 9.5h-160q-13 0 -22.5 -9.5t-9.5 -22.5v-160q0 -13 9.5 -22.5t22.5 -9.5h160zM163 428l-28 -28l28 -28q6 -6 0 -12l-11 -11q-6 -6 -12 0l-28 28l-28 -28q-6 -6 -12 0l-11 11q-6 6 0 12l28 28l-28 28q-6 6 0 12
l11 11q6 6 12 0l28 -28l28 28q6 6 12 0l11 -11q6 -6 0 -12zM480 0q13 0 22.5 9.5t9.5 22.5v160q0 13 -9.5 22.5t-22.5 9.5h-160q-13 0 -22.5 -9.5t-9.5 -22.5v-160q0 -13 9.5 -22.5t22.5 -9.5h160zM464 120v-16q0 -8 -8 -8h-40v-40q0 -8 -8 -8h-16q-8 0 -8 8v40h-40
q-8 0 -8 8v16q0 8 8 8h40v40q0 8 8 8h16q8 0 8 -8v-40h40q8 0 8 -8zM480 288q13 0 22.5 9.5t9.5 22.5v160q0 13 -9.5 22.5t-22.5 9.5h-160q-13 0 -22.5 -9.5t-9.5 -22.5v-160q0 -13 9.5 -22.5t22.5 -9.5h160zM464 440v-16q0 -8 -8 -8h-112q-8 0 -8 8v16q0 8 8 8h112
q8 0 8 -8zM464 376v-16q0 -8 -8 -8h-112q-8 0 -8 8v16q0 8 8 8h112q8 0 8 -8zM192 0q13 0 22.5 9.5t9.5 22.5v160q0 13 -9.5 22.5t-22.5 9.5h-160q-13 0 -22.5 -9.5t-9.5 -22.5v-160q0 -13 9.5 -22.5t22.5 -9.5h160zM176 120v-16q0 -8 -8 -8h-112q-8 0 -8 8v16q0 8 8 8h112
q8 0 8 -8z" />
</svg>
