<?xml version="1.0" standalone="no"?>
<!DOCTYPE svg PUBLIC "-//W3C//DTD SVG 1.1//EN" "http://www.w3.org/Graphics/SVG/1.1/DTD/svg11.dtd" >
<svg xmlns="http://www.w3.org/2000/svg" xmlns:xlink="http://www.w3.org/1999/xlink" version="1.1" viewBox="-10 0 468 512">
   <path fill="currentColor"
d="M436 160h-424q-12 0 -12 -12v-36q0 -20 14 -34t34 -14h48v-52q0 -12 12 -12h40q12 0 12 12v52h128v-52q0 -12 12 -12h40q12 0 12 12v52h48q20 0 34 14t14 34v36q0 12 -12 12zM12 192h424q12 0 12 12v260q0 20 -14 34t-34 14h-352q-20 0 -34 -14t-14 -34v-260
q0 -12 12 -12zM269 352l48 -48q9 -9 0 -17l-28 -28q-8 -9 -17 0l-48 48l-48 -48q-9 -9 -17 0l-28 28q-9 8 0 17l48 48l-48 48q-9 9 0 17l28 28q8 9 17 0l48 -48l48 48q9 9 17 0l28 -28q9 -8 0 -17z" />
</svg>
