<?xml version="1.0" standalone="no"?>
<!DOCTYPE svg PUBLIC "-//W3C//DTD SVG 1.1//EN" "http://www.w3.org/Graphics/SVG/1.1/DTD/svg11.dtd" >
<svg xmlns="http://www.w3.org/2000/svg" xmlns:xlink="http://www.w3.org/1999/xlink" version="1.1" viewBox="-10 0 596 512">
   <path fill="currentColor"
d="M526 166q16 -11 33 -2.5t17 28.5v256q0 20 -17.5 28.5t-32.5 -2.5l-110 -75v-158zM336 160q20 0 34 14t14 34v224q0 20 -14 34t-34 14h-288q-20 0 -34 -14t-14 -34v-224q0 -14 9.5 -27.5t22.5 -17.5v-35q0 -40 28 -68t68 -28h176q7 0 11.5 4.5t4.5 11.5v32q0 7 -4.5 11.5
t-11.5 4.5h-176q-13 0 -22.5 9.5t-9.5 22.5v32h240zM320 250v-20q0 -6 -6 -6h-244q-6 0 -6 6v20q0 6 6 6h244q6 0 6 -6z" />
</svg>
