<?xml version="1.0" standalone="no"?>
<!DOCTYPE svg PUBLIC "-//W3C//DTD SVG 1.1//EN" "http://www.w3.org/Graphics/SVG/1.1/DTD/svg11.dtd" >
<svg xmlns="http://www.w3.org/2000/svg" xmlns:xlink="http://www.w3.org/1999/xlink" version="1.1" viewBox="-10 0 532 512">
   <path fill="currentColor"
d="M512 144v288q0 20 -14 34t-34 14h-416q-20 0 -34 -14t-14 -34v-288q0 -20 14 -34t34 -14h88l12 -33q4 -9 10.5 -16t15.5 -11t19 -4h126q15 0 27 8.5t18 22.5l12 33h88q20 0 34 14t14 34zM376 288q0 -50 -35 -85t-85 -35t-85 35t-35 85t35 85t85 35t85 -35t35 -85z
M344 288q0 36 -26 62t-62 26t-62 -26t-26 -62t26 -62t62 -26t62 26t26 62zM224 288q0 -13 9.5 -22.5t22.5 -9.5q7 0 11.5 -4.5t4.5 -11.5t-4.5 -11.5t-11.5 -4.5q-26 0 -45 19t-19 45q0 7 4.5 11.5t11.5 4.5t11.5 -4.5t4.5 -11.5z" />
</svg>
