<?xml version="1.0" standalone="no"?>
<!DOCTYPE svg PUBLIC "-//W3C//DTD SVG 1.1//EN" "http://www.w3.org/Graphics/SVG/1.1/DTD/svg11.dtd" >
<svg xmlns="http://www.w3.org/2000/svg" xmlns:xlink="http://www.w3.org/1999/xlink" version="1.1" viewBox="-10 0 596 512">
   <path fill="currentColor"
d="M571 344q5 8 5 18v86q0 13 -9.5 22.5t-22.5 9.5h-512q-13 0 -22.5 -9.5t-9.5 -22.5v-86q0 -10 5 -18l59 -88v-176q0 -20 14 -34t34 -14h352q20 0 34 14t14 34v176zM392 112v32q0 8 8 8h32q8 0 8 -8v-32q0 -8 -8 -8h-32q-8 0 -8 8zM288 128q-26 0 -45 19t-19 45t19 45
t45 19t45 -19t19 -45t-19 -45t-45 -19zM480 408v-16q0 -8 -8 -8h-368q-8 0 -8 8v16q0 8 8 8h368q8 0 8 -8z" />
</svg>
