<?xml version="1.0" standalone="no"?>
<!DOCTYPE svg PUBLIC "-//W3C//DTD SVG 1.1//EN" "http://www.w3.org/Graphics/SVG/1.1/DTD/svg11.dtd" >
<svg xmlns="http://www.w3.org/2000/svg" xmlns:xlink="http://www.w3.org/1999/xlink" version="1.1" viewBox="-10 0 596 512">
   <path fill="currentColor"
d="M536 261q12 -9 26 -2t14 22v206q0 15 -14 22t-26 -2l-88 -60v-126zM368 288q20 0 34 14t14 34v128q0 20 -14 34t-34 14h-256q-20 0 -34 -14t-14 -34v-112h-48q-7 0 -11.5 -4.5t-4.5 -11.5v-32q0 -7 4.5 -11.5t11.5 -4.5h352zM352 0q53 0 90.5 37.5t37.5 90.5t-37.5 90.5
t-90.5 37.5h-224q-53 0 -90.5 -37.5t-37.5 -90.5t37.5 -90.5t90.5 -37.5q36 0 65.5 18.5t46.5 48.5q17 -30 46.5 -48.5t65.5 -18.5zM128 192q26 0 45 -19t19 -45t-19 -45t-45 -19t-45 19t-19 45t19 45t45 19zM352 192q26 0 45 -19t19 -45t-19 -45t-45 -19t-45 19t-19 45
t19 45t45 19z" />
</svg>
