<?xml version="1.0" standalone="no"?>
<!DOCTYPE svg PUBLIC "-//W3C//DTD SVG 1.1//EN" "http://www.w3.org/Graphics/SVG/1.1/DTD/svg11.dtd" >
<svg xmlns="http://www.w3.org/2000/svg" xmlns:xlink="http://www.w3.org/1999/xlink" version="1.1" viewBox="-10 0 532 512">
   <path fill="currentColor"
d="M48 32h416q20 0 34 14t14 34v352q0 20 -14 34t-34 14h-416q-20 0 -34 -14t-14 -34v-352q0 -20 14 -34t34 -14zM48 64q-7 0 -11.5 4.5t-4.5 11.5v10q0 6 6 6h116q6 0 6 -6v-20q0 -6 -6 -6h-106zM474 160q6 0 6 -6v-74q0 -7 -4.5 -11.5t-11.5 -4.5h-253q-3 0 -5 3l-30 45
h-138q-6 0 -6 6v36q0 6 6 6h436zM256 424q50 0 85 -35t35 -85t-35 -85t-85 -35t-85 35t-35 85t35 85t85 35zM256 216q36 0 62 26t26 62t-26 62t-62 26t-62 -26t-26 -62t26 -62t62 -26zM208 320q7 0 11.5 -4.5t4.5 -11.5q0 -13 9.5 -22.5t22.5 -9.5q7 0 11.5 -4.5t4.5 -11.5
t-4.5 -11.5t-11.5 -4.5q-26 0 -45 19t-19 45q0 7 4.5 11.5t11.5 4.5z" />
</svg>
