<?xml version="1.0" standalone="no"?>
<!DOCTYPE svg PUBLIC "-//W3C//DTD SVG 1.1//EN" "http://www.w3.org/Graphics/SVG/1.1/DTD/svg11.dtd" >
<svg xmlns="http://www.w3.org/2000/svg" xmlns:xlink="http://www.w3.org/1999/xlink" version="1.1" viewBox="-11 0 662 512">
   <path fill="currentColor"
d="M187 307q54 -54 107 -88q57 97 84 176t1 105t-104.5 -1t-176.5 -84q35 -54 89 -108zM326 447q-6 -32 -31 -88q-15 14 -28.5 27.5t-28.5 29.5q57 25 88 31zM277 191q-55 36 -113 93q-57 58 -93 114q-25 -15 -46 -29q-11 -7 -16.5 -13t-8 -18.5t4.5 -28.5t27 -42.5
t53 -60.5q34 -34 60.5 -53.5t42.5 -26.5t28.5 -4.5t18.5 8t13 15.5q14 22 29 46zM480 0q48 0 81 5t48.5 12t23.5 16t7 19l-2 20q-5 26 -12 54q-65 -14 -145 -14q-82 0 -147 14q-7 -28 -12 -54l-2 -20t7 -19t23.5 -16t48.5 -12t81 -5zM342 157q62 -13 139 -13q76 0 137 13
q-28 109 -65 184t-73 75t-73 -74.5t-65 -184.5zM480 341q18 -26 40 -84q-21 -1 -39.5 -1t-40.5 1q22 58 40 84z" />
</svg>
