<?xml version="1.0" standalone="no"?>
<!DOCTYPE svg PUBLIC "-//W3C//DTD SVG 1.1//EN" "http://www.w3.org/Graphics/SVG/1.1/DTD/svg11.dtd" >
<svg xmlns="http://www.w3.org/2000/svg" xmlns:xlink="http://www.w3.org/1999/xlink" version="1.1" viewBox="-10 0 533 512">
   <path fill="currentColor"
d="M498 92q26 57 5.5 116.5t-74.5 92.5l-348 207q-8 4 -16 4q-18 0 -28 -16l-32 -54q-7 -12 -4 -25t15 -19l353 -210q12 -7 15 -20t-4 -24q-9 -16 -27 -16q-9 0 -17 4l-27 17q-8 4 -17 4q-18 0 -27 -15l-33 -55q-7 -11 -3.5 -24t14.5 -20l28 -16q37 -23 81 -23
q46 0 85.5 24.5t60.5 67.5zM320 105q12 -7 28 -8l-21 -62q-16 3 -30 10l20 61zM146 432l31 -18l-61 -39l-31 18zM253 368l31 -18l-60 -39l-31 18zM364 302l31 -18l-60 -39l-31 19zM385 105q14 8 23 22l45 -46q-10 -13 -22 -22zM467 212q7 -14 10 -30l-61 -20q0 7 -1 14
q-2 8 -8 17z" />
</svg>
