<?xml version="1.0" standalone="no"?>
<!DOCTYPE svg PUBLIC "-//W3C//DTD SVG 1.1//EN" "http://www.w3.org/Graphics/SVG/1.1/DTD/svg11.dtd" >
<svg xmlns="http://www.w3.org/2000/svg" xmlns:xlink="http://www.w3.org/1999/xlink" version="1.1" viewBox="-10 0 533 512">
   <path fill="currentColor"
d="M503 360q9 5 9 14.5t-9 14.5q-60 31 -133 31h-18q12 22 17 39q3 9 -4 16q-4 5 -11 5q-2 0 -5 -1q-37 -12 -77 -39v64q0 8 -8 8h-16q-8 0 -8 -8v-64q-40 28 -77 39q-3 1 -5 1q-7 0 -11 -5q-7 -7 -4 -16q5 -17 17 -39h-18q-73 0 -133 -31q-9 -5 -9 -14.5t9 -14.5
q32 -17 76 -26q-28 -33 -49.5 -76t-27 -60.5t-8.5 -28.5v-4q0 -6 4.5 -11t11.5 -5q2 0 3 1q11 2 28 7t58.5 25.5t74.5 46.5v-1.5v-2.5q0 -53 16.5 -109t27.5 -76t19 -33q4 -7 13 -7t13 7q4 5 8.5 13t15 31t18.5 47t14.5 59t6.5 68v4q33 -26 74.5 -46.5t58.5 -25.5t28 -7
q1 -1 3 -1q7 0 11 5q7 6 5 15q-3 11 -8.5 28.5t-27 60.5t-49.5 76q45 9 76 26z" />
</svg>
