<?xml version="1.0" standalone="no"?>
<!DOCTYPE svg PUBLIC "-//W3C//DTD SVG 1.1//EN" "http://www.w3.org/Graphics/SVG/1.1/DTD/svg11.dtd" >
<svg xmlns="http://www.w3.org/2000/svg" xmlns:xlink="http://www.w3.org/1999/xlink" version="1.1" viewBox="-10 0 484 512">
   <path fill="currentColor"
d="M349 85q0 -10 11 -31.5t21 -37.5l11 -16q43 62 43 85q0 18 -12.5 30.5t-30.5 12.5t-30.5 -12.5t-12.5 -30.5zM232 128q-18 0 -30.5 -12.5t-12.5 -30.5q0 -10 11 -31.5t21 -37.5l11 -16q43 62 43 85q0 18 -12.5 30.5t-30.5 12.5zM72 128q-18 0 -30.5 -12.5t-12.5 -30.5
q0 -10 11 -31.5t21 -37.5l11 -16q43 62 43 85q0 18 -12.5 30.5t-30.5 12.5zM464 352v32q0 30 -24 50v46q0 13 -9.5 22.5t-22.5 9.5h-32q-13 0 -22.5 -9.5t-9.5 -22.5v-32h-224v32q0 13 -9.5 22.5t-22.5 9.5h-32q-13 0 -22.5 -9.5t-9.5 -22.5v-46q-24 -20 -24 -50v-32
q0 -20 11 -36t29 -23l5 -13l20 -50q8 -21 23.5 -37t36.5 -24.5t43 -8.5h128q34 0 62.5 19t40.5 51l20 50l5 13q18 7 29 23t11 36zM120 384q0 -15 -17 -31.5t-31 -16.5q-10 0 -17 4t-11 11t-4 17q0 14 9 23t23 9h8.5h9.5t8.5 -0.5t8.5 -1.5t6.5 -2.5t5 -4.5t1.5 -7zM354 288
l-14 -34q-5 -13 -17.5 -21.5t-26.5 -8.5h-128q-14 0 -26.5 8.5t-17.5 21.5l-14 34h244zM424 368q0 -14 -9 -23t-23 -9q-9 0 -20.5 8t-19.5 19.5t-8 20.5q0 4 1.5 7t5 4.5t6.5 2.5t8.5 1.5t8.5 0.5h9.5h8.5q14 0 23 -9t9 -23z" />
</svg>
