<?xml version="1.0" standalone="no"?>
<!DOCTYPE svg PUBLIC "-//W3C//DTD SVG 1.1//EN" "http://www.w3.org/Graphics/SVG/1.1/DTD/svg11.dtd" >
<svg xmlns="http://www.w3.org/2000/svg" xmlns:xlink="http://www.w3.org/1999/xlink" version="1.1" viewBox="-10 0 532 512">
   <path fill="currentColor"
d="M480 128q13 0 22.5 9.5t9.5 22.5v256q0 13 -9.5 22.5t-22.5 9.5h-448q-13 0 -22.5 -9.5t-9.5 -22.5v-256q0 -13 9.5 -22.5t22.5 -9.5h32v-48q0 -7 4.5 -11.5t11.5 -4.5h96q7 0 11.5 4.5t4.5 11.5v48h128v-48q0 -7 4.5 -11.5t11.5 -4.5h96q7 0 11.5 4.5t4.5 11.5v48h32z
M192 264v-16q0 -8 -8 -8h-112q-8 0 -8 8v16q0 8 8 8h112q8 0 8 -8zM448 264v-16q0 -8 -8 -8h-40v-40q0 -8 -8 -8h-16q-8 0 -8 8v40h-40q-8 0 -8 8v16q0 8 8 8h40v40q0 8 8 8h16q8 0 8 -8v-40h40q8 0 8 -8z" />
</svg>
