<?xml version="1.0" standalone="no"?>
<!DOCTYPE svg PUBLIC "-//W3C//DTD SVG 1.1//EN" "http://www.w3.org/Graphics/SVG/1.1/DTD/svg11.dtd" >
<svg xmlns="http://www.w3.org/2000/svg" xmlns:xlink="http://www.w3.org/1999/xlink" version="1.1" viewBox="-10 0 532 512">
   <path fill="currentColor"
d="M504 104q4 0 6.5 4t0.5 8q-10 20 -29 32t-42 12q-24 0 -44 -13t-29 -35h-222q-17 39 -57 47q-28 5 -51.5 -7.5t-35.5 -35.5q-2 -4 0.5 -8t6.5 -4h56l24 -24l-24 -24h-56q-4 0 -6.5 -4t-0.5 -8q10 -20 29 -32t42 -12q24 0 44 13t29 35h222q17 -39 57 -47q28 -5 51.5 7.5
t35.5 35.5q2 4 -0.5 8t-6.5 4h-56l-24 24l24 24h56zM448 293q18 7 29 23t11 36v32q0 30 -24 50v46q0 13 -9.5 22.5t-22.5 9.5h-32q-13 0 -22.5 -9.5t-9.5 -22.5v-32h-224v32q0 13 -9.5 22.5t-22.5 9.5h-32q-13 0 -22.5 -9.5t-9.5 -22.5v-46q-24 -20 -24 -50v-32
q0 -20 11 -36t29 -23l5 -13l20 -50q6 -15 16.5 -28.5t24 -22.5t29.5 -14t33 -5h128q34 0 62.5 19t40.5 51l20 50zM96 400h8.5h9.5t8.5 -0.5t8.5 -1.5t6.5 -2.5t5 -4.5t1.5 -7q0 -15 -17 -31.5t-31 -16.5t-23 9t-9 23t9 23t23 9zM134 288h244l-14 -34q-5 -13 -17.5 -21.5
t-26.5 -8.5h-128q-14 0 -26.5 8.5t-17.5 21.5zM416 400q14 0 23 -9t9 -23t-9 -23t-23 -9q-9 0 -20.5 8t-19.5 19.5t-8 20.5q0 4 1.5 7t5 4.5t6.5 2.5t8.5 1.5t8.5 0.5h9.5h8.5z" />
</svg>
