<?xml version="1.0" standalone="no"?>
<!DOCTYPE svg PUBLIC "-//W3C//DTD SVG 1.1//EN" "http://www.w3.org/Graphics/SVG/1.1/DTD/svg11.dtd" >
<svg xmlns="http://www.w3.org/2000/svg" xmlns:xlink="http://www.w3.org/1999/xlink" version="1.1" viewBox="-11 0 597 512">
   <path fill="currentColor"
d="M576 492q0 4 -1 7.5t-3 6t-5.5 4.5t-6.5 2h-159q-8 0 -13 -6t-3 -14q6 -33 33 -54.5t62 -21.5t62 21.5t34 54.5zM174 453q5 12 0 24.5t-17 17.5l-32 14q-12 6 -24.5 1t-18.5 -17l-22 -51q-23 -10 -33 -32l-22 -49q-8 -19 -3.5 -38.5t19.5 -33.5l-1 -30l-2 -55
q-2 -36 17 -65.5t52 -44.5l121 -52q33 -14 68 -8t61 31l40 39l22 21q13 -1 25.5 3t22.5 13t16 22l22 48q10 22 2 46l22 51q6 12 1 24t-17 18l-33 14q-12 5 -24.5 0t-17.5 -17l-14 -31l-244 106zM355 247q1 3 3 5t5 3t5.5 1t6 -0.5t6.5 -1.5t7 -2.5t6.5 -3t6.5 -3t7 -2.5
q13 -6 18 -18t-1 -25.5t-18 -18t-26 1.5t-23 28.5t-3 35.5zM142 340q-6 -13 -29.5 -22t-37 -3t-18 18t1.5 25.5t18 18t26 -1.5q2 -1 5.5 -2.5t6 -2.5t6 -2.5t6 -3t5.5 -3t4.5 -3.5t3.5 -4t2.5 -4t0.5 -4.5t-1 -5.5zM330 151l-40 -39q-24 -23 -55 -10l-121 53q-14 6 -22 18.5
t-8 27.5l2 56z" />
</svg>
