<?xml version="1.0" standalone="no"?>
<!DOCTYPE svg PUBLIC "-//W3C//DTD SVG 1.1//EN" "http://www.w3.org/Graphics/SVG/1.1/DTD/svg11.dtd" >
<svg xmlns="http://www.w3.org/2000/svg" xmlns:xlink="http://www.w3.org/1999/xlink" version="1.1" viewBox="-10 0 661 512">
   <path fill="currentColor"
d="M143 221l-12 46q-5 16 -3 35l-35 29q-5 4 -10.5 0.5t-3.5 -9.5l15 -77q2 -10 -8 -11l-78 -7q-6 -1 -7.5 -7t3.5 -10l65 -43q9 -6 2 -13l-50 -61q-4 -5 -0.5 -10.5t9.5 -3.5l77 15q10 2 11 -8l7 -78q1 -6 7 -7.5t10 3.5l43 65q6 9 13 2l61 -50q5 -4 10.5 -0.5t3.5 9.5
l-11 56q-5 7 -8 10l-32 43l-11 14q-24 7 -42.5 25t-25.5 43zM638 353l-13 47q-4 17 -17 29q-4 4 -9 7l-14 52q-2 7 -6 12q-13 16 -33 11l-31 -8q-13 -4 -19.5 -15.5t-3.5 -24.5l9 -30l-248 -67l-8 31q-3 13 -14.5 19.5t-24.5 3.5l-31 -8q-21 -6 -23 -27q-1 -6 0 -13l14 -52
l-4 -10q-5 -18 0 -35l12 -46q8 -30 37 -42q9 -4 19 -5l18 -24l32 -43q5 -7 11 -13q12 -12 27 -19q7 -4 15 -7q15 -5 32 -6t33 4l123 33q17 4 31 13q21 14 35 35q13 21 16 47l7 53l3 30q16 12 23 30q7 19 2 38zM256 234q-7 -2 -13.5 -1t-11.5 4t-9 8t-6 12q-2 9 0 17t8 13.5
t15 8.5q2 1 8 2.5t9.5 2.5t8.5 2t8.5 0.5l7 -1t6 -3t3.5 -6.5q3 -14 -9 -34.5t-25 -24.5zM546 263l-6 -54q-1 -7 -4 -14q-9 -21 -31 -26l-123 -33q-6 -2 -13 -2q-9 0 -20.5 5.5t-17.5 13.5l-32 43l172 46zM565 317q-14 -4 -34.5 8t-24.5 26q1 4 0 7t3 6t5.5 4.5t7.5 3.5
t8.5 2.5t9 2t8.5 2.5q7 2 13.5 1t11.5 -4t9 -8t5 -12q4 -14 -2 -24.5t-20 -14.5z" />
</svg>
