<?xml version="1.0" standalone="no"?>
<!DOCTYPE svg PUBLIC "-//W3C//DTD SVG 1.1//EN" "http://www.w3.org/Graphics/SVG/1.1/DTD/svg11.dtd" >
<svg xmlns="http://www.w3.org/2000/svg" xmlns:xlink="http://www.w3.org/1999/xlink" version="1.1" viewBox="-10 0 660 512">
   <path fill="currentColor"
d="M512 293q18 7 29 23t11 36v32q0 30 -24 50v46q0 13 -9.5 22.5t-22.5 9.5h-32q-13 0 -22.5 -9.5t-9.5 -22.5v-32h-224v32q0 13 -9.5 22.5t-22.5 9.5h-32q-13 0 -22.5 -9.5t-9.5 -22.5v-46q-24 -20 -24 -50v-32q0 -20 11 -36t29 -23l5 -13l20 -50q12 -32 40.5 -51t62.5 -19
h128q34 0 62.5 19t40.5 51l20 50zM160 400h8.5h9.5t8.5 -0.5t8.5 -1.5t6.5 -2.5t5 -4.5t1.5 -7q0 -15 -17 -31.5t-31 -16.5t-23 9t-9 23t9 23t23 9zM198 288h244l-14 -34q-5 -13 -17.5 -21.5t-26.5 -8.5h-128q-14 0 -26.5 8.5t-17.5 21.5zM480 400q14 0 23 -9t9 -23t-9 -23
t-23 -9q-9 0 -20.5 8t-19.5 19.5t-8 20.5q0 4 1.5 7t5 4.5t6.5 2.5t8.5 1.5t8.5 0.5h9.5h8.5zM632 168q6 3 7.5 9.5t-1.5 12.5l-8 14q-3 6 -9.5 7.5t-12.5 -1.5l-288 -158l-288 158q-6 3 -12.5 1.5t-9.5 -7.5l-8 -14q-3 -6 -1.5 -12.5t7.5 -9.5l300 -165q6 -3 12 -3t12 3z
" />
</svg>
