<?xml version="1.0" standalone="no"?>
<!DOCTYPE svg PUBLIC "-//W3C//DTD SVG 1.1//EN" "http://www.w3.org/Graphics/SVG/1.1/DTD/svg11.dtd" >
<svg xmlns="http://www.w3.org/2000/svg" xmlns:xlink="http://www.w3.org/1999/xlink" version="1.1" viewBox="-10 0 660 512">
   <path fill="currentColor"
d="M214 455v28q0 16 7 29h-205q-7 0 -11.5 -4.5t-4.5 -11.5v-464q0 -13 9.5 -22.5t22.5 -9.5h288q13 0 22.5 9.5t9.5 22.5v130q-21 4 -45.5 19t-37.5 32q-3 -5 -9 -5h-40q-12 0 -12 12v40q0 12 12 12h22l-8 21q-17 11 -29.5 33t-12.5 42v1v28q0 14 6.5 31t15.5 27zM208 92
v40q0 12 12 12h40q12 0 12 -12v-40q0 -12 -12 -12h-40q-12 0 -12 12zM144 388v-40q0 -12 -12 -12h-40q-12 0 -12 12v40q0 12 12 12h40q12 0 12 -12zM144 260v-40q0 -12 -12 -12h-40q-12 0 -12 12v40q0 12 12 12h40q12 0 12 -12zM144 132v-40q0 -12 -12 -12h-40q-12 0 -12 12
v40q0 12 12 12h40q12 0 12 -12zM605 316q14 6 24.5 21.5t10.5 31.5v28q0 12 -6.5 25t-15.5 20v41q0 12 -8 20.5t-20 8.5h-29q-12 0 -20.5 -8.5t-8.5 -20.5v-35h-200v35q0 8 -4 14.5t-10.5 10.5t-14.5 4h-29q-6 0 -11 -2.5t-9 -6t-6 -9t-2 -11.5v-41q-6 -5 -11 -12.5t-8 -16
t-3 -16.5v-28q0 -16 10.5 -31.5t24.5 -21.5l5 -12l18 -49q10 -26 37.5 -44.5t55.5 -18.5h114q19 0 38 8.5t33.5 23t21.5 31.5l18 49zM335 284l-12 36h218l-12 -36q-11 -28 -40 -28h-114q-29 0 -40 28zM300 408h5h5.5h5.5t5 -0.5t4.5 -1t4.5 -1.5t3.5 -2t2 -3t0.5 -4
q0 -7 -6 -15.5t-14.5 -14.5t-15.5 -6q-11 0 -17.5 6.5t-6.5 17.5q0 7 3 12.5t8.5 8.5t12.5 3zM564 408q11 0 17.5 -6.5t6.5 -17.5t-6.5 -17.5t-17.5 -6.5t-23.5 12.5t-12.5 23.5q0 3 1 5t3.5 3.5t5 2t6.5 1t6.5 0.5h7h6.5z" />
</svg>
