<?xml version="1.0" standalone="no"?>
<!DOCTYPE svg PUBLIC "-//W3C//DTD SVG 1.1//EN" "http://www.w3.org/Graphics/SVG/1.1/DTD/svg11.dtd" >
<svg xmlns="http://www.w3.org/2000/svg" xmlns:xlink="http://www.w3.org/1999/xlink" version="1.1" viewBox="-10 0 660 512">
   <path fill="currentColor"
d="M605 316q14 6 24.5 21.5t10.5 31.5v28q0 12 -6.5 25t-15.5 20v38q0 9 -4 16t-11.5 11.5t-16.5 4.5h-22q-13 0 -22.5 -9.5t-9.5 -22.5v-32h-200v32q0 13 -9.5 22.5t-22.5 9.5h-22q-14 0 -23 -9.5t-9 -22.5v-38q-9 -7 -15.5 -20t-6.5 -25v-28q0 -16 10.5 -31.5t24.5 -21.5
l5 -12l18 -49q10 -26 37.5 -44.5t55.5 -18.5h114q19 0 38 8.5t33.5 23t21.5 31.5l18 49zM335 284l-12 36h218l-12 -36q-11 -28 -40 -28h-114q-29 0 -40 28zM300 408h5h5.5h5.5t5 -0.5t4.5 -1t4.5 -1.5t3.5 -2t2 -3t0.5 -4q0 -7 -6 -15.5t-14.5 -14.5t-15.5 -6
q-11 0 -17.5 6.5t-6.5 17.5t6.5 17.5t17.5 6.5zM564 408q11 0 17.5 -6.5t6.5 -17.5q0 -7 -3 -12.5t-8.5 -8.5t-12.5 -3q-11 0 -23.5 12.5t-12.5 23.5q0 3 1 5t3.5 3.5t5 2t6.5 1t6.5 0.5h7h6.5zM252 243l-18 50q-32 20 -40 59h-67v32q0 13 -9.5 22.5t-22.5 9.5h-23
q-13 0 -22.5 -9.5t-9.5 -22.5v-32h-11q-12 0 -20.5 -8.5t-8.5 -20.5v-260q0 -27 51 -45t125 -18t125 18t51 45v99q-36 6 -64 31v-98q0 -6 -4.5 -10.5t-10.5 -4.5h-81v144h70q-6 9 -10 19zM80 312q10 0 17 -7t7 -17t-7 -17t-17 -7t-17 7t-7 17t7 17t17 7zM160 224v-144h-81
q-6 0 -10.5 4.5t-4.5 10.5v114q0 6 4.5 10.5t10.5 4.5h81z" />
</svg>
