<?xml version="1.0" standalone="no"?>
<!DOCTYPE svg PUBLIC "-//W3C//DTD SVG 1.1//EN" "http://www.w3.org/Graphics/SVG/1.1/DTD/svg11.dtd" >
<svg xmlns="http://www.w3.org/2000/svg" xmlns:xlink="http://www.w3.org/1999/xlink" version="1.1" viewBox="-10 0 660 512">
   <path fill="currentColor"
d="M624 448q7 0 11.5 4.5t4.5 11.5v32q0 7 -4.5 11.5t-11.5 4.5h-608q-7 0 -11.5 -4.5t-4.5 -11.5v-32q0 -7 4.5 -11.5t11.5 -4.5h165l-53 -53q-14 -15 -17.5 -34.5t4.5 -37.5l-12 -28l-21 -49q-14 -32 -7.5 -65.5t31.5 -57.5l89 -90q25 -25 58.5 -31t65.5 7l49 21l28 12
q17 -8 37 -4.5t34 17.5l34 34q17 17 19 41l38 38q9 10 9 23t-9 23l-23 22q-9 10 -22.5 10t-22.5 -10l-23 -22l-192 192l42 42h307zM399.5 100.5q-10.5 10.5 -10.5 34t10 33.5q3 2 5 3.5t5 1t5 -1t5 -2.5t5.5 -4t5.5 -4.5t5 -5t5 -5.5t5 -4q10 -11 10 -23t-10 -22.5
t-22.5 -10.5t-23 10.5zM141 221l21 49l181 -181l-49 -21q-9 -4 -19 -4q-20 0 -34 14l-90 90q-14 14 -14 34q0 10 4 19zM218 372l6.5 -6.5l6.5 -6.5l6 -6t5 -7t2.5 -6.5t0.5 -7t-4 -5.5q-10 -11 -34 -10.5t-34 10.5t-10 22.5t10 22.5t22.5 10t22.5 -10z" />
</svg>
