<?xml version="1.0" standalone="no"?>
<!DOCTYPE svg PUBLIC "-//W3C//DTD SVG 1.1//EN" "http://www.w3.org/Graphics/SVG/1.1/DTD/svg11.dtd" >
<svg xmlns="http://www.w3.org/2000/svg" xmlns:xlink="http://www.w3.org/1999/xlink" version="1.1" viewBox="-10 0 500 512">
   <path fill="currentColor"
d="M439 212q18 7 29.5 23.5t11.5 36.5v48q0 24 -16 42v54q0 13 -9.5 22.5t-22.5 9.5h-32q-13 0 -22.5 -9.5t-9.5 -22.5v-32h-256v32q0 13 -9.5 22.5t-22.5 9.5h-32q-13 0 -22.5 -9.5t-9.5 -22.5v-54q-16 -18 -16 -42v-48q0 -20 11.5 -36.5t29.5 -23.5l12 -28l20 -50
q6 -15 16.5 -28.5t24 -22.5t29.5 -14t33 -5h128q34 0 62.5 19t40.5 51l20 50zM132 158l-20 50h256l-20 -50q-5 -13 -17.5 -21.5t-26.5 -8.5h-128q-14 0 -26.5 8.5t-17.5 21.5zM80 320h8.5h9.5t8.5 -0.5t8.5 -1.5t6.5 -2.5t5 -4.5t1.5 -7q0 -15 -17 -31.5t-31 -16.5
q-7 0 -13 2.5t-10 6.5t-6.5 10t-2.5 13q0 14 9 23t23 9zM400 320q14 0 23 -9t9 -23t-9 -23t-23 -9q-9 0 -20.5 8t-19.5 19.5t-8 20.5q0 4 1.5 7t5 4.5t6.5 2.5t8.5 1.5t8.5 0.5h9.5h8.5z" />
</svg>
