<?xml version="1.0" standalone="no"?>
<!DOCTYPE svg PUBLIC "-//W3C//DTD SVG 1.1//EN" "http://www.w3.org/Graphics/SVG/1.1/DTD/svg11.dtd" >
<svg xmlns="http://www.w3.org/2000/svg" xmlns:xlink="http://www.w3.org/1999/xlink" version="1.1" viewBox="-10 0 532 512">
   <path fill="currentColor"
d="M298 157q46 22 63 71t-6 95q-18 38 -57 57l-102 50l-57 -57q-11 -12 -22 0q-5 4 -5 11t5 11l49 49l-134 66q-8 4 -17 1t-13 -12t0 -19l128 -263l51 50q4 5 10.5 5t11.5 -5q12 -11 0 -22l-55 -56q27 -32 68.5 -41.5t81.5 9.5zM390 122q30 -15 64 -7t58 37q-31 38 -75 40
t-77 -32l-8 -8q-34 -33 -32 -77t40 -75q29 24 37 58t-7 64z" />
</svg>
