<?xml version="1.0" standalone="no"?>
<!DOCTYPE svg PUBLIC "-//W3C//DTD SVG 1.1//EN" "http://www.w3.org/Graphics/SVG/1.1/DTD/svg11.dtd" >
<svg xmlns="http://www.w3.org/2000/svg" xmlns:xlink="http://www.w3.org/1999/xlink" version="1.1" viewBox="-10 0 660 512">
   <path fill="currentColor"
d="M252 243l-5 13h-139v32q0 13 -9.5 22.5t-22.5 9.5h-22q-14 0 -23 -9.5t-9 -22.5v-38q-9 -7 -15.5 -20t-6.5 -25v-28q0 -16 10.5 -31.5t24.5 -21.5l5 -12l18 -49q7 -17 21.5 -31.5t33.5 -23t38 -8.5h114q28 0 55.5 18.5t37.5 44.5l18 49l5 12q10 4 19.5 14.5t12.5 21.5
h-38q-37 0 -73 24.5t-50 58.5zM111 92l-12 36h218l-12 -36q-11 -28 -40 -28h-114q-29 0 -40 28zM76 216h6.5h7t6.5 -0.5t6.5 -1t5 -2t3.5 -3.5t1 -5q0 -7 -6 -15.5t-14.5 -14.5t-15.5 -6q-11 0 -17.5 6.5t-6.5 17.5t6.5 17.5t17.5 6.5zM605 316q14 6 24.5 21.5t10.5 31.5v28
q0 12 -6.5 25t-15.5 20v38q0 9 -4 16t-11.5 11.5t-16.5 4.5h-22q-13 0 -22.5 -9.5t-9.5 -22.5v-32h-200v32q0 13 -9.5 22.5t-22.5 9.5h-22q-14 0 -23 -9.5t-9 -22.5v-38q-9 -7 -15.5 -20t-6.5 -25v-28q0 -16 10.5 -31.5t24.5 -21.5l5 -12l18 -49q10 -26 37.5 -44.5
t55.5 -18.5h114q19 0 38 8.5t33.5 23t21.5 31.5l18 49zM335 284l-12 36h218l-12 -36q-11 -28 -40 -28h-114q-29 0 -40 28zM300 408h5h5.5h5.5t5 -0.5t4.5 -1t4.5 -1.5t3.5 -2t2 -3t0.5 -4q0 -7 -6 -15.5t-14.5 -14.5t-15.5 -6q-11 0 -17.5 6.5t-6.5 17.5q0 7 3 12.5t8.5 8.5
t12.5 3zM564 408q11 0 17.5 -6.5t6.5 -17.5t-6.5 -17.5t-17.5 -6.5t-23.5 12.5t-12.5 23.5q0 3 1 5t3.5 3.5t5 2t6.5 1t6.5 0.5h7h6.5z" />
</svg>
