<?xml version="1.0" standalone="no"?>
<!DOCTYPE svg PUBLIC "-//W3C//DTD SVG 1.1//EN" "http://www.w3.org/Graphics/SVG/1.1/DTD/svg11.dtd" >
<svg xmlns="http://www.w3.org/2000/svg" xmlns:xlink="http://www.w3.org/1999/xlink" version="1.1" viewBox="-10 0 532 512">
   <path fill="currentColor"
d="M511 379q1 5 1 10v91q0 7 -2.5 12.5t-7 10t-10.5 7t-12 2.5h-448q-13 0 -22.5 -9.5t-9.5 -22.5v-91q0 -5 1 -10l27 -160q1 -12 10 -19.5t21 -7.5h85v-64h-96q-7 0 -11.5 -4.5t-4.5 -11.5v-96q0 -7 4.5 -11.5t11.5 -4.5h256q7 0 11.5 4.5t4.5 11.5v96q0 7 -4.5 11.5
t-11.5 4.5h-96v64h245q12 0 20.5 7.5t10.5 19.5zM280 248v16q0 7 4.5 11.5t11.5 4.5h16q7 0 11.5 -4.5t4.5 -11.5v-16q0 -7 -4.5 -11.5t-11.5 -4.5h-16q-7 0 -11.5 4.5t-4.5 11.5zM248 312q-7 0 -11.5 4.5t-4.5 11.5v16q0 7 4.5 11.5t11.5 4.5h16q7 0 11.5 -4.5t4.5 -11.5
v-16q0 -7 -4.5 -11.5t-11.5 -4.5h-16zM216 232h-16q-7 0 -11.5 4.5t-4.5 11.5v16q0 7 4.5 11.5t11.5 4.5h16q7 0 11.5 -4.5t4.5 -11.5v-16q0 -7 -4.5 -11.5t-11.5 -4.5zM80 80h192v-32h-192v32zM120 280q7 0 11.5 -4.5t4.5 -11.5v-16q0 -7 -4.5 -11.5t-11.5 -4.5h-16
q-7 0 -11.5 4.5t-4.5 11.5v16q0 7 4.5 11.5t11.5 4.5h16zM136 344q0 7 4.5 11.5t11.5 4.5h16q7 0 11.5 -4.5t4.5 -11.5v-16q0 -7 -4.5 -11.5t-11.5 -4.5h-16q-7 0 -11.5 4.5t-4.5 11.5v16zM352 456v-16q0 -8 -8 -8h-176q-8 0 -8 8v16q0 8 8 8h176q8 0 8 -8zM376 344v-16
q0 -7 -4.5 -11.5t-11.5 -4.5h-16q-7 0 -11.5 4.5t-4.5 11.5v16q0 7 4.5 11.5t11.5 4.5h16q7 0 11.5 -4.5t4.5 -11.5zM424 264v-16q0 -7 -4.5 -11.5t-11.5 -4.5h-16q-7 0 -11.5 4.5t-4.5 11.5v16q0 7 4.5 11.5t11.5 4.5h16q7 0 11.5 -4.5t4.5 -11.5z" />
</svg>
