<?xml version="1.0" standalone="no"?>
<!DOCTYPE svg PUBLIC "-//W3C//DTD SVG 1.1//EN" "http://www.w3.org/Graphics/SVG/1.1/DTD/svg11.dtd" >
<svg xmlns="http://www.w3.org/2000/svg" xmlns:xlink="http://www.w3.org/1999/xlink" version="1.1" viewBox="-10 0 532 512">
   <path fill="currentColor"
d="M464 63q20 0 34 14t14 34v288q0 20 -14 34t-34 14h-32l-48 -96h-256l-48 96h-32q-20 0 -34 -14t-14 -34v-288q0 -20 14 -34t34 -14h416zM128 255q13 0 22.5 -9.5t9.5 -22.5t-9.5 -22.5t-22.5 -9.5t-22.5 9.5t-9.5 22.5t9.5 22.5t22.5 9.5zM311 255q-7 -15 -7 -32t7 -32
h-110q7 15 7 32t-7 32h110zM384 255q13 0 22.5 -9.5t9.5 -22.5t-9.5 -22.5t-22.5 -9.5t-22.5 9.5t-9.5 22.5t9.5 22.5t22.5 9.5zM148 383h216l32 64h-280z" />
</svg>
