<?xml version="1.0" standalone="no"?>
<!DOCTYPE svg PUBLIC "-//W3C//DTD SVG 1.1//EN" "http://www.w3.org/Graphics/SVG/1.1/DTD/svg11.dtd" >
<svg xmlns="http://www.w3.org/2000/svg" xmlns:xlink="http://www.w3.org/1999/xlink" version="1.1" viewBox="-10 0 532 512">
   <path fill="currentColor"
d="M291 192q4 22 15.5 41t28 32.5t37.5 21t44 7.5q15 0 32 -4v206q0 7 -4.5 11.5t-11.5 4.5h-32q-7 0 -11.5 -4.5t-4.5 -11.5v-144l-128 96h32q13 0 22.5 9.5t9.5 22.5v16q0 7 -4.5 11.5t-11.5 4.5h-176q-26 0 -45 -19t-19 -45v-256q0 -13 -9.5 -22.5t-22.5 -9.5t-22.5 -9.5
t-9.5 -22.5t9.5 -22.5t22.5 -9.5q40 0 68 28t28 68v86q19 -29 44.5 -48.5t51 -26.5t39.5 -9t28 -2zM448 96l64 -64v134q0 40 -28 68t-68 28t-68 -28t-28 -68v-134l64 64h64zM376 176q7 0 11.5 -4.5t4.5 -11.5t-4.5 -11.5t-11.5 -4.5t-11.5 4.5t-4.5 11.5t4.5 11.5t11.5 4.5z
M456 176q7 0 11.5 -4.5t4.5 -11.5t-4.5 -11.5t-11.5 -4.5t-11.5 4.5t-4.5 11.5t4.5 11.5t11.5 4.5z" />
</svg>
