<?xml version="1.0" standalone="no"?>
<!DOCTYPE svg PUBLIC "-//W3C//DTD SVG 1.1//EN" "http://www.w3.org/Graphics/SVG/1.1/DTD/svg11.dtd" >
<svg xmlns="http://www.w3.org/2000/svg" xmlns:xlink="http://www.w3.org/1999/xlink" version="1.1" viewBox="-10 0 468 512">
   <path fill="currentColor"
d="M448 212q0 12 -14 12h-20q34 61 34 122q0 56 -32 95v47q0 10 -7 17t-17 7t-17 -7t-7 -17v-7q-58 31 -144 31t-144 -31v7q0 10 -7 17t-17 7t-17 -7t-7 -17v-47q-32 -39 -32 -95q0 -61 34 -122h-20q-14 0 -14 -12v-40q0 -12 14 -12h420q14 0 14 12v40zM160 64
q-13 0 -22.5 -9.5t-9.5 -22.5t9.5 -22.5t22.5 -9.5t22.5 9.5t9.5 22.5t-9.5 22.5t-22.5 9.5zM272 128q-20 0 -34 -14t-14 -34t14 -34t34 -14t34 14t14 34t-14 34t-34 14z" />
</svg>
