<?xml version="1.0" standalone="no"?>
<!DOCTYPE svg PUBLIC "-//W3C//DTD SVG 1.1//EN" "http://www.w3.org/Graphics/SVG/1.1/DTD/svg11.dtd" >
<svg xmlns="http://www.w3.org/2000/svg" xmlns:xlink="http://www.w3.org/1999/xlink" version="1.1" viewBox="-10 0 596 512">
   <path fill="currentColor"
d="M517 169q19 7 20.5 26.5t-14.5 29.5l-190 119q-8 5 -17 5q-5 0 -11 -2l-68 -29l-47 125q-3 9 -12 15t-18 6h-96v32q0 7 -4.5 11.5t-11.5 4.5h-32q-7 0 -11.5 -4.5t-4.5 -11.5v-128q0 -7 4.5 -11.5t11.5 -4.5h32q7 0 11.5 4.5t4.5 11.5v32h74l40 -106l-157 -65
q-9 -3 -15 -12t-6 -18t4 -16l96 -167q9 -16 27 -16q7 0 12 2zM566 274q10 4 10 15q0 4 -1 7l-41 93q-5 10 -16 10q-3 0 -6 -2l-120 -52l138 -87z" />
</svg>
