<?xml version="1.0" standalone="no"?>
<!DOCTYPE svg PUBLIC "-//W3C//DTD SVG 1.1//EN" "http://www.w3.org/Graphics/SVG/1.1/DTD/svg11.dtd" >
<svg xmlns="http://www.w3.org/2000/svg" xmlns:xlink="http://www.w3.org/1999/xlink" version="1.1" viewBox="-11 0 534 512">
   <path fill="currentColor"
d="M459 256l46 45q10 10 6 23.5t-17 16.5l-63 16l18 62q4 14 -6 24t-24 6l-62 -18l-16 63q-3 14 -17 17.5t-23 -6.5l-45 -46l-45 46q-9 10 -23 6.5t-17 -17.5l-16 -63l-62 18q-14 4 -24 -6t-6 -24l18 -62l-63 -16q-13 -3 -17 -16.5t6 -23.5l46 -45l-46 -45q-10 -10 -6 -23.5
t17 -16.5l63 -16l-18 -62q-4 -14 6 -24t24 -6l62 18l16 -63q3 -14 17 -17.5t23 6.5l45 47l45 -47q10 -10 23.5 -6t16.5 17l16 63l62 -18q14 -4 24 6t6 24l-18 62l63 16q13 3 17 16.5t-6 23.5z" />
</svg>
