<?xml version="1.0" standalone="no"?>
<!DOCTYPE svg PUBLIC "-//W3C//DTD SVG 1.1//EN" "http://www.w3.org/Graphics/SVG/1.1/DTD/svg11.dtd" >
<svg xmlns="http://www.w3.org/2000/svg" xmlns:xlink="http://www.w3.org/1999/xlink" version="1.1" viewBox="-10 0 596 512">
   <path fill="currentColor"
d="M336 448q7 0 11.5 4.5t4.5 11.5v32q0 7 -4.5 11.5t-11.5 4.5h-320q-7 0 -11.5 -4.5t-4.5 -11.5v-32q0 -7 4.5 -11.5t11.5 -4.5h320zM544 128h16q7 0 11.5 4.5t4.5 11.5v32q0 26 -15.5 47t-40.5 29v120q0 33 -25 56t-59 20q-29 -3 -48.5 -26t-19.5 -53v-25
q0 -17 -11.5 -28.5t-28.5 -11.5h-8v112h-288v-352q0 -27 18.5 -45.5t45.5 -18.5h160q27 0 45.5 18.5t18.5 45.5v192h8q36 0 62 26t26 62v28q0 13 10 21.5t23 6.5q10 -2 16.5 -10.5t6.5 -19.5v-118q-25 -8 -40.5 -29t-15.5 -47v-32q0 -7 4.5 -11.5t11.5 -4.5h16v-48
q0 -7 4.5 -11.5t11.5 -4.5t11.5 4.5t4.5 11.5v48h32v-48q0 -7 4.5 -11.5t11.5 -4.5t11.5 4.5t4.5 11.5v48zM260 176q4 -5 0.5 -10.5t-10.5 -5.5h-58l12 -51q1 -5 -2.5 -9t-9.5 -4h-68q-11 0 -12 9l-16 107q-1 5 3 8.5t9 3.5h59l-23 83q-1 5 2.5 9t9.5 4q7 0 10 -5z" />
</svg>
