<?xml version="1.0" standalone="no"?>
<!DOCTYPE svg PUBLIC "-//W3C//DTD SVG 1.1//EN" "http://www.w3.org/Graphics/SVG/1.1/DTD/svg11.dtd" >
<svg xmlns="http://www.w3.org/2000/svg" xmlns:xlink="http://www.w3.org/1999/xlink" version="1.1" viewBox="-10 0 532 512">
   <path fill="currentColor"
d="M496 384q7 0 11.5 4.5t4.5 11.5v32q0 7 -4.5 11.5t-11.5 4.5h-464q-13 0 -22.5 -9.5t-9.5 -22.5v-336q0 -7 4.5 -11.5t11.5 -4.5h32q7 0 11.5 4.5t4.5 11.5v304h432zM464 96q7 0 11.5 4.5t4.5 11.5v118q0 16 -15 22t-26 -5l-32 -32l-96 96q-10 9 -23 9t-23 -9l-73 -74
l-46 46q-11 12 -23 0l-22 -22q-12 -12 0 -23l68 -69q10 -9 23 -9t23 9l73 74l73 -74l-32 -32q-11 -11 -5 -26t22 -15h118z" />
</svg>
