<?xml version="1.0" standalone="no"?>
<!DOCTYPE svg PUBLIC "-//W3C//DTD SVG 1.1//EN" "http://www.w3.org/Graphics/SVG/1.1/DTD/svg11.dtd" >
<svg xmlns="http://www.w3.org/2000/svg" xmlns:xlink="http://www.w3.org/1999/xlink" version="1.1" viewBox="-10 0 468 512">
   <path fill="currentColor"
d="M400 480h-352q-20 0 -34 -14t-14 -34v-352q0 -20 14 -34t34 -14h352q20 0 34 14t14 34v352q0 20 -14 34t-34 14zM195 382l184 -184q12 -11 0 -23l-22 -22q-12 -12 -23 0l-150 150l-70 -70q-11 -12 -23 0l-22 22q-12 12 0 23l104 104q11 11 22 0z" />
</svg>
