<?xml version="1.0" standalone="no"?>
<!DOCTYPE svg PUBLIC "-//W3C//DTD SVG 1.1//EN" "http://www.w3.org/Graphics/SVG/1.1/DTD/svg11.dtd" >
<svg xmlns="http://www.w3.org/2000/svg" xmlns:xlink="http://www.w3.org/1999/xlink" version="1.1" viewBox="-10 0 468 512">
   <path fill="currentColor"
d="M400 448q7 0 11.5 4.5t4.5 11.5v32q0 7 -4.5 11.5t-11.5 4.5h-352q-7 0 -11.5 -4.5t-4.5 -11.5v-32q0 -7 4.5 -11.5t11.5 -4.5h352zM416 160q9 0 16 4.5t11.5 11.5t4.5 16q0 5 -1 10l-74 214h-298l-74 -214q-1 -5 -1 -10q0 -13 9.5 -22.5t22.5 -9.5h160v-48h-40
q-8 0 -8 -8v-48q0 -8 8 -8h40v-40q0 -8 8 -8h48q8 0 8 8v40h40q8 0 8 8v48q0 8 -8 8h-40v48h160z" />
</svg>
