<?xml version="1.0" standalone="no"?>
<!DOCTYPE svg PUBLIC "-//W3C//DTD SVG 1.1//EN" "http://www.w3.org/Graphics/SVG/1.1/DTD/svg11.dtd" >
<svg xmlns="http://www.w3.org/2000/svg" xmlns:xlink="http://www.w3.org/1999/xlink" version="1.1" viewBox="-10 0 276 512">
   <path fill="currentColor"
d="M64 288q-7 0 -11.5 -4.5t-4.5 -11.5v-16q0 -7 4.5 -11.5t11.5 -4.5h12q-27 -11 -27 -50q0 -30 19 -66t41 -52q-13 -4 -13 -19q0 -6 2.5 -10.5t7 -7.5t10.5 -3h24q9 0 14.5 6t5.5 15q0 15 -13 19q17 12 34 40l-52 52q-1 1 -1 2.5t1 2.5l6 6q1 1 2.5 1t2.5 -1l49 -49
q18 36 18 64q0 39 -27 50h12q7 0 11.5 4.5t4.5 11.5v16q0 7 -4.5 11.5t-11.5 4.5h-15q3 49 15 96h-128q12 -47 15 -96h-15zM247 460q9 4 9 14v22q0 7 -4.5 11.5t-11.5 4.5h-224q-7 0 -11.5 -4.5t-4.5 -11.5v-22q0 -10 9 -14l23 -12v-16q0 -7 4.5 -11.5t11.5 -4.5h160
q7 0 11.5 4.5t4.5 11.5v16z" />
</svg>
