<?xml version="1.0" standalone="no"?>
<!DOCTYPE svg PUBLIC "-//W3C//DTD SVG 1.1//EN" "http://www.w3.org/Graphics/SVG/1.1/DTD/svg11.dtd" >
<svg xmlns="http://www.w3.org/2000/svg" xmlns:xlink="http://www.w3.org/1999/xlink" version="1.1" viewBox="-10 0 340 512">
   <path fill="currentColor"
d="M311 460q9 4 9 14v22q0 7 -4.5 11.5t-11.5 4.5h-288q-7 0 -11.5 -4.5t-4.5 -11.5v-22q0 -10 9 -14l23 -12v-16q0 -7 4.5 -11.5t11.5 -4.5h224q7 0 11.5 4.5t4.5 11.5v16zM46 236q-14 -7 -14 -21v-98q0 -7 5 -12l6 -7l-10 -20q-1 -3 -1 -5v0q0 -9 9 -9h92q57 0 98 41
t41 98v149q0 14 -16 32h-192q-24 -24 -18.5 -57t35.5 -48l46 -24q7 -3 12 -10.5t5 -15.5v-37l-14 5q-7 4 -9 12l-7 21q-3 11 -13 15l-9 4q-4 1 -8 1q-5 0 -10 -2zM80 128q-7 0 -11.5 4.5t-4.5 11.5t5 11.5t11.5 4.5t11 -4.5t4.5 -11.5t-4.5 -11.5t-11.5 -4.5z" />
</svg>
