<?xml version="1.0" standalone="no"?>
<!DOCTYPE svg PUBLIC "-//W3C//DTD SVG 1.1//EN" "http://www.w3.org/Graphics/SVG/1.1/DTD/svg11.dtd" >
<svg xmlns="http://www.w3.org/2000/svg" xmlns:xlink="http://www.w3.org/1999/xlink" version="1.1" viewBox="-10 0 532 512">
   <path fill="currentColor"
d="M256 0v64h-64v-64h64zM0 64h64v64h-64v-64zM128 0v64h-64v-64h64zM192 256h64v64h-64v-64zM0 192h64v64h-64v-64zM384 0v64h-64v-64h64zM512 0v64h-64v-64h64zM128 256v64h-64v-64h64zM512 448h-64v-64h64v64zM512 320h-64v-64h64v64zM384 512v-64h64v64h-64zM512 192
h-64v-64h64v64zM128 512v-64h64v64h-64zM0 512v-64h64v64h-64zM256 512v-64h64v64h-64zM0 320h64v64h-64v-64zM320 128h-64v-64h64v64zM256 256v-64h64v64h-64zM192 384h64v64h-64v-64zM320 320v-64h64v64h-64zM320 192v-64h64v64h-64zM320 384h64v64h-64v-64zM64 384h64v64
h-64v-64zM192 128h-64v-64h64v64zM384 384v-64h64v64h-64zM256 192h-64v-64h64v64zM384 64h64v64h-64v-64zM256 320h64v64h-64v-64zM192 192v64h-64v-64h64zM384 256v-64h64v64h-64zM128 128v64h-64v-64h64zM128 320h64v64h-64v-64z" />
</svg>
