<?xml version="1.0" standalone="no"?>
<!DOCTYPE svg PUBLIC "-//W3C//DTD SVG 1.1//EN" "http://www.w3.org/Graphics/SVG/1.1/DTD/svg11.dtd" >
<svg xmlns="http://www.w3.org/2000/svg" xmlns:xlink="http://www.w3.org/1999/xlink" version="1.1" viewBox="-10 0 660 512">
   <path fill="currentColor"
d="M519 243l6 6q4 3 4 8t-4 9l-51 51q-3 3 -8 3t-9 -3l-6 -6q-3 -4 -3 -9t3 -8l51 -51q4 -4 9 -4t8 4zM600 128q16 0 28 11.5t12 28.5v272q0 17 -12 28.5t-28 11.5h-560q-17 0 -28.5 -11.5t-11.5 -28.5v-272q0 -17 11.5 -28.5t28.5 -11.5h112v-48h-40q-7 0 -11.5 -4.5
t-4.5 -11.5v-16q0 -7 4.5 -11.5t11.5 -4.5h128q7 0 11.5 4.5t4.5 11.5v16q0 7 -4.5 11.5t-11.5 4.5h-40v48h184v-16q0 -7 4.5 -11.5t11.5 -4.5h128q7 0 11.5 4.5t4.5 11.5v16h56zM176 416q23 0 43.5 -9t35.5 -24t24 -35.5t9 -43.5v0q0 -46 -32.5 -79t-79 -33t-79.5 33
t-33 79t33 79t79 33zM464.5 416q46.5 0 79 -33t32.5 -79v0q0 -46 -32.5 -79t-79 -33t-79.5 33t-33 79t33 79t79.5 33zM180 224q5 0 8.5 3.5t3.5 8.5v72q0 5 -3.5 8.5t-8.5 3.5h-8q-5 0 -8.5 -3.5t-3.5 -8.5v-72q0 -5 3.5 -8.5t8.5 -3.5h8z" />
</svg>
