<?xml version="1.0" standalone="no"?>
<!DOCTYPE svg PUBLIC "-//W3C//DTD SVG 1.1//EN" "http://www.w3.org/Graphics/SVG/1.1/DTD/svg11.dtd" >
<svg xmlns="http://www.w3.org/2000/svg" xmlns:xlink="http://www.w3.org/1999/xlink" version="1.1" viewBox="-10 0 532 512">
   <path fill="currentColor"
d="M74 208l-34 -90q-1 -3 -1 -6q0 -7 4.5 -11.5t11.5 -4.5h57v-32h-24q-8 0 -8 -8v-16q0 -8 8 -8h24v-24q0 -8 8 -8h16q8 0 8 8v24h24q8 0 8 8v16q0 8 -8 8h-24v32h57q7 0 11.5 4.5t4.5 11.5q0 3 -1 6l-34 90h10q7 0 11.5 4.5t4.5 11.5v16q0 7 -4.5 11.5t-11.5 4.5h-16
q0 65 16 128h-128q16 -63 16 -128h-16q-7 0 -11.5 -4.5t-4.5 -11.5v-16q0 -7 4.5 -11.5t11.5 -4.5h10zM247 460q9 4 9 14v22q0 7 -4.5 11.5t-11.5 4.5h-224q-7 0 -11.5 -4.5t-4.5 -11.5v-22q0 -10 9 -14l23 -12v-16q0 -7 4.5 -11.5t11.5 -4.5h160q7 0 11.5 4.5t4.5 11.5v16z
M340 302l-25 -21q-11 -10 -11 -24v-59q0 -6 6 -6h26q6 0 6 6v26h25v-26q0 -6 6 -6h54q6 0 6 6v26h25v-26q0 -6 6 -6h26q6 0 6 6v59q0 14 -11 24l-25 21l3 82h-126zM384 304v32h32v-32q0 -7 -4.5 -11.5t-11.5 -4.5t-11.5 4.5t-4.5 11.5zM503 460q9 4 9 14v22q0 7 -4.5 11.5
t-11.5 4.5h-192q-7 0 -11.5 -4.5t-4.5 -11.5v-22q0 -10 9 -14l23 -12v-16q0 -7 4.5 -11.5t11.5 -4.5h128q7 0 11.5 4.5t4.5 11.5v16z" />
</svg>
