<?xml version="1.0" standalone="no"?>
<!DOCTYPE svg PUBLIC "-//W3C//DTD SVG 1.1//EN" "http://www.w3.org/Graphics/SVG/1.1/DTD/svg11.dtd" >
<svg xmlns="http://www.w3.org/2000/svg" xmlns:xlink="http://www.w3.org/1999/xlink" version="1.1" viewBox="-10 0 524 512">
   <path fill="currentColor"
d="M8 256q0 -103 72.5 -175.5t175.5 -72.5t175.5 72.5t72.5 175.5t-72.5 175.5t-175.5 72.5t-175.5 -72.5t-72.5 -175.5zM239 142l-135 136q-8 7 -8 17t8 17l16 16q8 8 17.5 8t16.5 -8l102 -101l102 101q7 8 17 8t17 -8l16 -16q8 -8 8 -17.5t-8 -16.5l-135 -136
q-7 -7 -17 -7t-17 7z" />
</svg>
