<?xml version="1.0" standalone="no"?>
<!DOCTYPE svg PUBLIC "-//W3C//DTD SVG 1.1//EN" "http://www.w3.org/Graphics/SVG/1.1/DTD/svg11.dtd" >
<svg xmlns="http://www.w3.org/2000/svg" xmlns:xlink="http://www.w3.org/1999/xlink" version="1.1" viewBox="-10 0 462 512">
   <path fill="currentColor"
d="M241 34l194 195q7 7 7 17t-7 17l-22 22q-7 7 -17 7t-17 -7l-155 -153l-155 154q-7 6 -17 6t-17 -6l-22 -23q-7 -7 -7 -17t7 -17l194 -195q7 -6 17 -6t17 6zM207 226q7 -6 17 -6t17 6l194 195q7 7 7 17t-7 17l-22 23q-7 6 -17 6t-17 -6l-155 -154l-155 154q-7 7 -17 7
t-17 -7l-22 -23q-7 -7 -7 -17t7 -17z" />
</svg>
