<?xml version="1.0" standalone="no"?>
<!DOCTYPE svg PUBLIC "-//W3C//DTD SVG 1.1//EN" "http://www.w3.org/Graphics/SVG/1.1/DTD/svg11.dtd" >
<svg xmlns="http://www.w3.org/2000/svg" xmlns:xlink="http://www.w3.org/1999/xlink" version="1.1" viewBox="-10 0 522 512">
   <path fill="currentColor"
d="M478 273l-195 194q-7 7 -17 7t-17 -7l-23 -22q-7 -7 -7 -17t7 -17l154 -155l-154 -155q-6 -7 -6 -17t6 -17l23 -22q7 -7 17 -7t17 7l195 194q4 5 5.5 11t0 12t-5.5 11zM286 239q6 7 6 17t-6 17l-195 194q-7 7 -17 7t-17 -7l-23 -22q-6 -7 -6 -17t6 -17l154 -155
l-154 -155q-7 -7 -7 -17t7 -17l23 -22q7 -7 17 -7t17 7z" />
</svg>
