<?xml version="1.0" standalone="no"?>
<!DOCTYPE svg PUBLIC "-//W3C//DTD SVG 1.1//EN" "http://www.w3.org/Graphics/SVG/1.1/DTD/svg11.dtd" >
<svg xmlns="http://www.w3.org/2000/svg" xmlns:xlink="http://www.w3.org/1999/xlink" version="1.1" viewBox="-10 0 468 512">
   <path fill="currentColor"
d="M48 32h352q20 0 34 14t14 34v352q0 20 -14 34t-34 14h-352q-20 0 -34 -14t-14 -34v-352q0 -20 14 -34t34 -14zM330 239l-136 -135q-7 -8 -16.5 -8t-17.5 8l-16 16q-8 8 -8 17.5t8 16.5l101 102l-101 102q-8 7 -8 16.5t8 17.5l16 16q8 8 17.5 8t16.5 -8l136 -135
q7 -7 7 -17t-7 -17z" />
</svg>
