<?xml version="1.0" standalone="no"?>
<!DOCTYPE svg PUBLIC "-//W3C//DTD SVG 1.1//EN" "http://www.w3.org/Graphics/SVG/1.1/DTD/svg11.dtd" >
<svg xmlns="http://www.w3.org/2000/svg" xmlns:xlink="http://www.w3.org/1999/xlink" version="1.1" viewBox="-10 0 524 512">
   <path fill="currentColor"
d="M504 256q0 103 -72.5 175.5t-175.5 72.5t-175.5 -72.5t-72.5 -175.5t72.5 -175.5t175.5 -72.5t175.5 72.5t72.5 175.5zM273 370l135 -136q8 -7 8 -17t-8 -17l-16 -16q-8 -8 -17.5 -8t-16.5 8l-102 101l-102 -101q-7 -8 -17 -8t-17 8l-16 16q-8 8 -8 17.5t8 16.5l135 136
q7 7 17 7t17 -7z" />
</svg>
