<?xml version="1.0" standalone="no"?>
<!DOCTYPE svg PUBLIC "-//W3C//DTD SVG 1.1//EN" "http://www.w3.org/Graphics/SVG/1.1/DTD/svg11.dtd" >
<svg xmlns="http://www.w3.org/2000/svg" xmlns:xlink="http://www.w3.org/1999/xlink" version="1.1" viewBox="-10 0 462 512">
   <path fill="currentColor"
d="M207 478l-194 -195q-7 -7 -7 -17t7 -17l22 -23q7 -7 17 -7t17 7l155 154l155 -154q7 -6 17 -6t17 6l22 23q7 7 7 17t-7 17l-194 195q-7 6 -17 6t-17 -6zM241 286q-7 6 -17 6t-17 -6l-194 -195q-7 -7 -7 -17t7 -17l22 -23q7 -6 17 -6t17 6l155 154l155 -154q7 -7 17 -7
t17 7l22 23q7 7 7 17t-7 17z" />
</svg>
