<?xml version="1.0" standalone="no"?>
<!DOCTYPE svg PUBLIC "-//W3C//DTD SVG 1.1//EN" "http://www.w3.org/Graphics/SVG/1.1/DTD/svg11.dtd" >
<svg xmlns="http://www.w3.org/2000/svg" xmlns:xlink="http://www.w3.org/1999/xlink" version="1.1" viewBox="-10 0 524 512">
   <path fill="currentColor"
d="M256 504q-103 0 -175.5 -72.5t-72.5 -175.5t72.5 -175.5t175.5 -72.5t175.5 72.5t72.5 175.5t-72.5 175.5t-175.5 72.5zM142 273l136 135q7 8 17 8t17 -8l16 -16q8 -8 8 -17.5t-8 -16.5l-101 -102l101 -102q8 -7 8 -17t-8 -17l-16 -16q-8 -8 -17.5 -8t-16.5 8l-136 135
q-7 7 -7 17t7 17z" />
</svg>
