<?xml version="1.0" standalone="no"?>
<!DOCTYPE svg PUBLIC "-//W3C//DTD SVG 1.1//EN" "http://www.w3.org/Graphics/SVG/1.1/DTD/svg11.dtd" >
<svg xmlns="http://www.w3.org/2000/svg" xmlns:xlink="http://www.w3.org/1999/xlink" version="1.1" viewBox="-10 0 522 512">
   <path fill="currentColor"
d="M34 239l195 -194q7 -7 17 -7t17 7l23 22q7 7 7 17t-7 17l-154 155l154 155q6 7 6 17t-6 17l-23 22q-7 7 -17 7t-17 -7l-195 -194q-6 -7 -6 -17t6 -17zM226 273q-6 -7 -6 -17t6 -17l195 -194q7 -7 17 -7t17 7l23 22q6 7 6 17t-6 17l-154 155l153 155q7 7 7 17t-7 17
l-22 22q-7 7 -17 7t-17 -7z" />
</svg>
