<?xml version="1.0" standalone="no"?>
<!DOCTYPE svg PUBLIC "-//W3C//DTD SVG 1.1//EN" "http://www.w3.org/Graphics/SVG/1.1/DTD/svg11.dtd" >
<svg xmlns="http://www.w3.org/2000/svg" xmlns:xlink="http://www.w3.org/1999/xlink" version="1.1" viewBox="-10 0 524 512">
   <path fill="currentColor"
d="M288 39q0 -12 9 -19t21 -4q81 21 133.5 87.5t52.5 152.5q0 67 -33 124t-90 90.5t-124 33.5q-103 0 -175.5 -72t-73.5 -175q0 -86 52.5 -153t133.5 -88q11 -3 20.5 4t9.5 19v17q0 18 -18 23q-58 16 -96 65t-38 112q0 76 54 130t130 54t130 -54t54 -130q0 -63 -38 -112
t-96 -65q-18 -5 -18 -23v-17z" />
</svg>
