<?xml version="1.0" standalone="no"?>
<!DOCTYPE svg PUBLIC "-//W3C//DTD SVG 1.1//EN" "http://www.w3.org/Graphics/SVG/1.1/DTD/svg11.dtd" >
<svg xmlns="http://www.w3.org/2000/svg" xmlns:xlink="http://www.w3.org/1999/xlink" version="1.1" viewBox="-10 0 404 512">
   <path fill="currentColor"
d="M336 64q20 0 34 14t14 34v352q0 20 -14 34t-34 14h-288q-20 0 -34 -14t-14 -34v-352q0 -20 14 -34t34 -14h80q0 -26 19 -45t45 -19t45 19t19 45h80zM192 40q-10 0 -17 7t-7 17t7 17t17 7t17 -7t7 -17t-7 -17t-17 -7zM192 192q-26 0 -45 19t-19 45t19 45t45 19t45 -19
t19 -45t-19 -45t-45 -19zM304 429v-19q0 -16 -9 -29.5t-24.5 -21t-33.5 -7.5h-5q-19 8 -40 8t-40 -8h-5q-28 0 -47.5 17t-19.5 41v19q0 8 6.5 13.5t15.5 5.5h180q9 0 15.5 -5.5t6.5 -13.5z" />
</svg>
