<?xml version="1.0" standalone="no"?>
<!DOCTYPE svg PUBLIC "-//W3C//DTD SVG 1.1//EN" "http://www.w3.org/Graphics/SVG/1.1/DTD/svg11.dtd" >
<svg xmlns="http://www.w3.org/2000/svg" xmlns:xlink="http://www.w3.org/1999/xlink" version="1.1" viewBox="-10 0 532 512">
   <path fill="currentColor"
d="M464 0q20 0 34 14t14 34v288q0 20 -14 34t-34 14h-288q-20 0 -34 -14t-14 -34v-288q0 -20 14 -34t34 -14h288zM176 416h208v48q0 20 -14 34t-34 14h-288q-20 0 -34 -14t-14 -34v-288q0 -20 14 -34t34 -14h48v208q0 33 23.5 56.5t56.5 23.5z" />
</svg>
