<?xml version="1.0" standalone="no"?>
<!DOCTYPE svg PUBLIC "-//W3C//DTD SVG 1.1//EN" "http://www.w3.org/Graphics/SVG/1.1/DTD/svg11.dtd" >
<svg xmlns="http://www.w3.org/2000/svg" xmlns:xlink="http://www.w3.org/1999/xlink" version="1.1" viewBox="-10 0 532 512">
   <path fill="currentColor"
d="M464 64q20 0 34 14t14 34v288q0 20 -14 34t-34 14h-416q-20 0 -34 -14t-14 -34v-288q0 -20 14 -34t34 -14h416zM218 288q-31 27 -61.5 15.5t-30.5 -48.5q0 -34 32 -44.5t62 13.5q6 4 10 -2l17 -30q2 -3 -1 -6q-25 -25 -66 -26.5t-73.5 24.5t-32.5 72q0 47 31.5 74
t73 24.5t67.5 -30.5q4 -4 1 -8l-20 -27q-4 -6 -9 -1zM408 288q-30 27 -61 15.5t-31 -48.5q0 -34 32 -44.5t63 13.5q5 4 9 -2l18 -30q1 -3 -2 -6q-25 -25 -66 -26.5t-73.5 24.5t-32.5 72q0 47 32 74t73 24.5t68 -30.5q3 -4 0 -8l-19 -27q-4 -6 -10 -1z" />
</svg>
