<?xml version="1.0" standalone="no"?>
<!DOCTYPE svg PUBLIC "-//W3C//DTD SVG 1.1//EN" "http://www.w3.org/Graphics/SVG/1.1/DTD/svg11.dtd" >
<svg xmlns="http://www.w3.org/2000/svg" xmlns:xlink="http://www.w3.org/1999/xlink" version="1.1" viewBox="-10 0 660 512">
   <path fill="currentColor"
d="M538 227q29 5 52 23t36.5 45t13.5 57q0 53 -37.5 90.5t-90.5 37.5h-368q-60 0 -102 -42t-42 -102q0 -47 27 -84t69 -52v-8q0 -66 47 -113t113 -47q44 0 81 22t58 58q24 -16 53 -16q40 0 68 28t28 68q0 18 -6 35zM393 288q11 0 15 -10t-3 -17l-106 -106q-11 -11 -22 0
l-106 106q-7 7 -3 17t15 10h65v112q0 7 4.5 11.5t11.5 4.5h48q7 0 11.5 -4.5t4.5 -11.5v-112h65z" />
</svg>
