<?xml version="1.0" standalone="no"?>
<!DOCTYPE svg PUBLIC "-//W3C//DTD SVG 1.1//EN" "http://www.w3.org/Graphics/SVG/1.1/DTD/svg11.dtd" >
<svg xmlns="http://www.w3.org/2000/svg" xmlns:xlink="http://www.w3.org/1999/xlink" version="1.1" viewBox="-10 0 596 512">
   <path fill="currentColor"
d="M350 226q29 5 47.5 27t18.5 51q0 33 -23.5 56.5t-56.5 23.5h-256q-33 0 -56.5 -23.5t-23.5 -56.5q0 -29 18.5 -51t45.5 -27v-1.5v-0.5q0 -40 28 -68t68 -28q49 0 78 40q16 -8 34 -8q29 0 51 18.5t27 47.5zM568 224q5 -1 7 3t-1 8q-43 53 -112 53q-3 0 -5.5 -0.5
t-5.5 -0.5t-5 -1q-3 -19 -12.5 -36.5t-24 -30t-33.5 -19.5q-16 -43 -59 -62q3 -58 45 -98t100 -40q13 0 26 2q5 1 6 6t-4 7q-26 15 -41.5 41.5t-15.5 56.5q0 26 11 49t29.5 38t43.5 22t51 2zM364 418q14 8 6 22l-36 64q-5 8 -14 8q-4 0 -8 -2q-14 -8 -6 -22l37 -64
q3 -6 9.5 -7.5t11.5 1.5zM268 418q14 8 6 22l-36 64q-5 8 -14 8q-4 0 -8 -2q-14 -8 -6 -22l37 -64q3 -6 9.5 -7.5t11.5 1.5zM172 418q14 8 6 22l-36 64q-5 8 -14 8q-4 0 -8 -2q-14 -8 -6 -22l37 -64q3 -6 9.5 -7.5t11.5 1.5zM76 418q14 8 6 22l-36 64q-5 8 -14 8q-4 0 -8 -2
q-14 -8 -6 -22l37 -64q3 -6 9.5 -7.5t11.5 1.5z" />
</svg>
