<?xml version="1.0" standalone="no"?>
<!DOCTYPE svg PUBLIC "-//W3C//DTD SVG 1.1//EN" "http://www.w3.org/Graphics/SVG/1.1/DTD/svg11.dtd" >
<svg xmlns="http://www.w3.org/2000/svg" xmlns:xlink="http://www.w3.org/1999/xlink" version="1.1" viewBox="-10 0 596 512">
   <path fill="currentColor"
d="M510 226q29 5 47.5 27t18.5 51q0 33 -23.5 56.5t-56.5 23.5h-256q-33 0 -56.5 -23.5t-23.5 -56.5q0 -29 18 -51t46 -27v-1.5v-0.5q0 -40 28 -68t68 -28q49 0 78 40q16 -8 34 -8q19 0 36 8.5t28 23.5t14 34zM124 260q3 2 10 8q-6 18 -6 36q0 2 0.5 4.5l0.5 2.5l-59 20
q-8 2 -13.5 -3.5t-3.5 -13.5l25 -75l-71 -35q-7 -4 -7 -12t7 -12l71 -35l-25 -75q-2 -8 3.5 -13.5t13.5 -3.5l75 25l35 -71q4 -7 12 -7t12 7l35 71l75 -25q8 -2 13.5 3.5t3.5 13.5l-9 26h-1h-1q-37 0 -69 21q-28 -23 -64.5 -21t-62.5 28q-28 28 -28 68t28 68zM194 202
q-27 12 -45 37q-21 -19 -21 -47q0 -26 19 -45t45 -19q18 0 34 10q-26 28 -32 64zM524 418q14 8 6 22l-36 64q-5 8 -14 8q-4 0 -8 -2q-14 -8 -6 -22l37 -64q3 -6 9.5 -7.5t11.5 1.5zM428 418q14 8 6 22l-36 64q-5 8 -14 8q-4 0 -8 -2q-14 -8 -6 -22l37 -64q3 -6 9.5 -7.5
t11.5 1.5zM332 418q14 8 6 22l-36 64q-5 8 -14 8q-4 0 -8 -2q-14 -8 -6 -22l37 -64q3 -6 9.5 -7.5t11.5 1.5zM236 418q14 8 6 22l-36 64q-5 8 -14 8q-4 0 -8 -2q-14 -8 -6 -22l37 -64q3 -6 9.5 -7.5t11.5 1.5z" />
</svg>
