<?xml version="1.0" standalone="no"?>
<!DOCTYPE svg PUBLIC "-//W3C//DTD SVG 1.1//EN" "http://www.w3.org/Graphics/SVG/1.1/DTD/svg11.dtd" >
<svg xmlns="http://www.w3.org/2000/svg" xmlns:xlink="http://www.w3.org/1999/xlink" version="1.1" viewBox="-10 0 532 512">
   <path fill="currentColor"
d="M48 352q20 0 34 14t14 34t-14 34t-34 14t-34 -14t-14 -34t14 -34t34 -14zM464 352q20 0 34 14t14 34t-14 34t-34 14t-34 -14t-14 -34t14 -34t34 -14zM345 363q23 12 23 37t-23 37q8 25 -10 42q-12 13 -29 13q-5 0 -13 -3q-12 23 -37 23t-37 -23q-7 3 -13 3q-17 0 -29 -13
q-18 -18 -10 -42q-23 -12 -23 -37t23 -37q-8 -25 10 -42.5t42 -9.5q12 -23 37 -23t37 23q25 -8 42.5 10t9.5 42zM512 224q0 40 -28 68t-68 28h-43q-6 -12 -15 -22q-21 -21 -51 -21q-21 -21 -51 -21t-51 21q-30 0 -51 21q-9 9 -15 22h-43q-40 0 -68 -28t-28 -68
q0 -31 18.5 -56t47.5 -35q-2 -11 -2 -21q0 -46 33 -79t79 -33q32 0 58.5 16.5t40.5 44.5q24 -29 61 -29q33 0 56.5 23.5t23.5 56.5q0 9 -2 16h1.5h0.5q40 0 68 28t28 68z" />
</svg>
