<?xml version="1.0" standalone="no"?>
<!DOCTYPE svg PUBLIC "-//W3C//DTD SVG 1.1//EN" "http://www.w3.org/Graphics/SVG/1.1/DTD/svg11.dtd" >
<svg xmlns="http://www.w3.org/2000/svg" xmlns:xlink="http://www.w3.org/1999/xlink" version="1.1" viewBox="-11 0 534 512">
   <path fill="currentColor"
d="M96 320q-40 0 -68 -28t-28 -68q0 -31 18.5 -56t47.5 -35q-2 -11 -2 -21q0 -46 33 -79t79 -33q32 0 58.5 16.5t40.5 44.5q24 -29 61 -29q33 0 56.5 23.5t23.5 56.5q0 9 -2 16h1.5h0.5q40 0 68 28t28 68t-28 68t-68 28h-320zM127 389q4 7 -3 11l-28 16l28 16q7 4 3 11
l-8 14q-4 7 -11 3l-28 -16v28q0 8 -8 8h-16q-8 0 -8 -8v-28l-28 16q-7 4 -11 -3l-8 -14q-4 -7 3 -11l28 -16l-28 -16q-7 -4 -3 -11l8 -14q4 -7 11 -3l28 16v-28q0 -8 8 -8h16q8 0 8 8v28l28 -16q7 -4 11 3zM319 421q4 7 -3 11l-28 16l28 16q7 4 3 11l-8 14q-4 7 -11 3
l-28 -16v28q0 8 -8 8h-16q-8 0 -8 -8v-28l-28 16q-7 4 -11 -3l-8 -14q-4 -7 3 -11l28 -16l-28 -16q-7 -4 -3 -11l8 -14q4 -7 11 -3l28 16v-28q0 -8 8 -8h16q8 0 8 8v28l28 -16q7 -4 11 3zM511 389q4 7 -3 11l-28 16l28 16q7 4 3 11l-8 14q-4 7 -11 3l-28 -16v28q0 8 -8 8
h-16q-8 0 -8 -8v-28l-28 16q-7 4 -11 -3l-8 -14q-4 -7 3 -11l28 -16l-28 -16q-7 -4 -3 -11l8 -14q4 -7 11 -3l28 16v-28q0 -8 8 -8h16q8 0 8 8v28l28 -16q7 -4 11 3z" />
</svg>
