<?xml version="1.0" standalone="no"?>
<!DOCTYPE svg PUBLIC "-//W3C//DTD SVG 1.1//EN" "http://www.w3.org/Graphics/SVG/1.1/DTD/svg11.dtd" >
<svg xmlns="http://www.w3.org/2000/svg" xmlns:xlink="http://www.w3.org/1999/xlink" version="1.1" viewBox="-10 0 532 512">
   <path fill="currentColor"
d="M416 128q40 0 68 28t28 68t-28 68t-68 28h-320q-40 0 -68 -28t-28 -68q0 -31 18.5 -56t47.5 -35q-2 -11 -2 -21q0 -46 33 -79t79 -33q32 0 58.5 16.5t40.5 44.5q24 -29 61 -29q33 0 56.5 23.5t23.5 56.5q0 9 -2 16h1.5h0.5zM88 374q2 -6 8 -6t8 6q6 21 23 46t17 42
q0 21 -14 35.5t-34 14.5t-34 -14.5t-14 -35.5q0 -16 17 -41.5t23 -46.5zM248 374q2 -6 8 -6t8 6q6 21 23 46t17 42q0 14 -6.5 25.5t-17.5 18t-24 6.5q-20 0 -34 -14.5t-14 -35.5q0 -16 17 -41.5t23 -46.5zM408 374q2 -6 8 -6t8 6q6 21 23 46t17 42q0 21 -14 35.5t-34 14.5
t-34 -14.5t-14 -35.5q0 -13 7 -25.5t17.5 -28.5t15.5 -34z" />
</svg>
