<?xml version="1.0" standalone="no"?>
<!DOCTYPE svg PUBLIC "-//W3C//DTD SVG 1.1//EN" "http://www.w3.org/Graphics/SVG/1.1/DTD/svg11.dtd" >
<svg xmlns="http://www.w3.org/2000/svg" xmlns:xlink="http://www.w3.org/1999/xlink" version="1.1" viewBox="-10 0 532 512">
   <path fill="currentColor"
d="M184 370q6 3 7.5 9.5t-1.5 12.5l-64 112q-5 8 -14 8q-4 0 -8 -2q-6 -3 -7.5 -9.5t1.5 -12.5l64 -112q3 -6 9.5 -7.5t12.5 1.5zM279 370q14 7 7 21l-16 32q-4 9 -14 9q-4 0 -7 -2q-6 -3 -8 -9t1 -12l16 -32q3 -6 9 -8t12 1zM87 370q14 7 7 21l-16 32q-4 9 -14 9
q-4 0 -7 -2q-6 -3 -8 -9t1 -12l16 -32q3 -6 9 -8t12 1zM471 370q14 7 7 21l-16 32q-4 9 -14 9q-4 0 -7 -2q-6 -3 -8 -9t1 -12l16 -32q3 -6 9 -8t12 1zM376 370q6 3 7.5 9.5t-1.5 12.5l-64 112q-5 8 -14 8q-4 0 -8 -2q-6 -3 -7.5 -9.5t1.5 -12.5l64 -112q3 -6 9.5 -7.5
t12.5 1.5zM416 128q40 0 68 28t28 68t-28 68t-68 28h-320q-40 0 -68 -28t-28 -68q0 -31 18.5 -56t47.5 -35q-2 -11 -2 -21q0 -46 33 -79t79 -33q32 0 58.5 16.5t40.5 44.5q24 -29 61 -29q33 0 56.5 23.5t23.5 56.5q0 9 -2 16h1.5h0.5zM32 448q13 0 22.5 9.5t9.5 22.5
t-9.5 22.5t-22.5 9.5t-22.5 -9.5t-9.5 -22.5t9.5 -22.5t22.5 -9.5zM224 448q13 0 22.5 9.5t9.5 22.5t-9.5 22.5t-22.5 9.5t-22.5 -9.5t-9.5 -22.5t9.5 -22.5t22.5 -9.5zM416 448q13 0 22.5 9.5t9.5 22.5t-9.5 22.5t-22.5 9.5t-22.5 -9.5t-9.5 -22.5t9.5 -22.5t22.5 -9.5z
" />
</svg>
