<?xml version="1.0" standalone="no"?>
<!DOCTYPE svg PUBLIC "-//W3C//DTD SVG 1.1//EN" "http://www.w3.org/Graphics/SVG/1.1/DTD/svg11.dtd" >
<svg xmlns="http://www.w3.org/2000/svg" xmlns:xlink="http://www.w3.org/1999/xlink" version="1.1" viewBox="-10 0 660 512">
   <path fill="currentColor"
d="M512 320q40 0 68 28t28 68t-28 68t-68 28h-320q-40 0 -68 -28t-28 -68q0 -31 18 -56t47 -34q4 -43 36 -72.5t75 -29.5q32 0 58.5 16.5t40.5 44.5q24 -29 61 -29q29 0 51 18t27 46h2zM560 160q33 0 56.5 23.5t23.5 56.5q0 25 -14 45t-37 29q-25 -19 -55 -24
q-13 -30 -41 -48t-61 -18q-29 0 -55 14q-30 -33 -75 -43q24 -35 66 -35h18q5 -28 27 -46t51 -18t51 18t27 46h18zM132 303q-9 5 -20 14l-42 14q-8 2 -14 -3.5t-3 -13.5l25 -75l-71 -35q-7 -4 -7 -12t7 -12l71 -35l-25 -75q-2 -8 3.5 -13.5t13.5 -3.5l75 25l35 -71
q4 -7 12 -7t12 7l35 71l75 -25q8 -2 13.5 3.5t3.5 13.5l-26 78q-11 7 -21 18q-7 -25 -24 -42q-28 -28 -68 -28t-68 28t-28 68t28 68q7 7 19 14q-7 15 -11 29zM128 192q0 -26 19 -45t45 -19t45 19t19 45v1q-60 7 -96 54q-32 -19 -32 -55z" />
</svg>
