<?xml version="1.0" standalone="no"?>
<!DOCTYPE svg PUBLIC "-//W3C//DTD SVG 1.1//EN" "http://www.w3.org/Graphics/SVG/1.1/DTD/svg11.dtd" >
<svg xmlns="http://www.w3.org/2000/svg" xmlns:xlink="http://www.w3.org/1999/xlink" version="1.1" viewBox="-10 0 660 512">
   <path fill="currentColor"
d="M575 326q29 10 47 34.5t18 55.5q0 40 -28 68t-68 28h-272q-40 0 -68 -28t-28 -68q0 -38 26 -65t63 -30q0 -1 -0.5 -3t-0.5 -3.5v-2.5q0 -46 33 -79t79 -33q34 0 61 18t41 48q16 -10 34 -10q26 0 45 19t19 45q0 1 -0.5 3t-0.5 3zM145 303q15 16 36 24q-15 15 -24 34
l-76 25q-9 3 -15.5 -3.5t-3.5 -15.5l29 -88l-83 -41q-8 -5 -8 -14t8 -14l83 -41l-29 -88q-3 -9 3.5 -15.5t15.5 -3.5l88 29l41 -83q5 -8 14 -8t14 8l41 83l88 -29q9 -3 15.5 3.5t3.5 15.5l-30 89q-17 2 -30 8q-9 -20 -23 -33q-33 -33 -79 -33t-79 33t-33 79t33 79zM140 224
q0 -35 24.5 -59.5t59.5 -24.5q25 0 45.5 13.5t30.5 36.5q-59 36 -67 104q-12 4 -25 12q-29 -5 -48.5 -28.5t-19.5 -53.5z" />
</svg>
