<?xml version="1.0" standalone="no"?>
<!DOCTYPE svg PUBLIC "-//W3C//DTD SVG 1.1//EN" "http://www.w3.org/Graphics/SVG/1.1/DTD/svg11.dtd" >
<svg xmlns="http://www.w3.org/2000/svg" xmlns:xlink="http://www.w3.org/1999/xlink" version="1.1" viewBox="-10 0 660 512">
   <path fill="currentColor"
d="M544 320q40 0 68 28t28 68t-28 68t-68 28h-320q-40 0 -68 -28t-28 -68q0 -31 18.5 -56t47.5 -35q-2 -11 -2 -21q0 -46 33 -79t79 -33q32 0 58.5 16.5t40.5 44.5q24 -29 61 -29q33 0 56.5 23.5t23.5 56.5q0 9 -2 16h1.5h0.5zM304 160q-55 0 -95.5 37t-46.5 91h-66
q-40 0 -68 -28t-28 -68t28 -68t68 -28h0.5h1.5q5 -41 36.5 -68.5t73.5 -27.5q14 0 27.5 3.5t25.5 10t22 15.5t17.5 20t11.5 24q20 -9 40 -9q40 0 68 28t28 68q0 17 -7 35q-18 4 -32 11q-42 -46 -105 -46z" />
</svg>
