<?xml version="1.0" standalone="no"?>
<!DOCTYPE svg PUBLIC "-//W3C//DTD SVG 1.1//EN" "http://www.w3.org/Graphics/SVG/1.1/DTD/svg11.dtd" >
<svg xmlns="http://www.w3.org/2000/svg" xmlns:xlink="http://www.w3.org/1999/xlink" version="1.1" viewBox="-10 0 661 512">
   <path fill="currentColor"
d="M448 320q40 0 68 28t28 68t-28 68t-68 28h-320q-40 0 -68 -28t-28 -68q0 -31 18 -56t47 -34q4 -43 36 -72.5t75 -29.5q32 0 58.5 16.5t40.5 44.5q24 -29 61 -29q19 0 35.5 8.5t28 23t14.5 32.5h2zM631 249q5 -1 8 3.5t-1 8.5q-41 51 -107 58q-27 -23 -61 -29
q-12 -26 -35.5 -43.5t-52.5 -21.5q-5 -37 -30 -63v-1v-1q0 -66 47 -113t114 -47q15 0 29 3q6 1 6.5 6t-3.5 8q-20 11 -34.5 28t-22 37.5t-7.5 43.5q0 58 45.5 96t104.5 27zM68 303q-7 4 -17 11q-23 -8 -37 -28.5t-14 -45.5q0 -33 23.5 -56.5t56.5 -23.5h18q5 -28 27 -46
t51 -18t51 18t27 46h18q14 0 27.5 5t24 14t17.5 21t9 26q-19 3 -37 12q-42 -46 -105 -46q-51 0 -89.5 31t-50.5 80z" />
</svg>
