<?xml version="1.0" standalone="no"?>
<!DOCTYPE svg PUBLIC "-//W3C//DTD SVG 1.1//EN" "http://www.w3.org/Graphics/SVG/1.1/DTD/svg11.dtd" >
<svg xmlns="http://www.w3.org/2000/svg" xmlns:xlink="http://www.w3.org/1999/xlink" version="1.1" viewBox="-10 0 660 512">
   <path fill="currentColor"
d="M538 227q42 8 72 45t30 80q0 53 -37.5 90.5t-90.5 37.5h-368q-60 0 -102 -42t-42 -102q0 -42 28 -82t68 -54v-8q0 -66 47 -113t113 -47q38 0 79 23.5t60 56.5q24 -16 53 -16q26 0 48 13t35 35t13 48q0 18 -6 35zM384 352v-160q0 -7 -4.5 -11.5t-11.5 -4.5q-2 0 -5 1
l-128 47q-11 4 -11 15v115q-8 -2 -16 -2q-20 0 -34 9.5t-14 22.5t14 22.5t34 9.5t34 -9.5t14 -22.5v-101l96 -37v76q-8 -2 -16 -2q-20 0 -34 9.5t-14 22.5t14 22.5t34 9.5t34 -9.5t14 -22.5z" />
</svg>
