<?xml version="1.0" standalone="no"?>
<!DOCTYPE svg PUBLIC "-//W3C//DTD SVG 1.1//EN" "http://www.w3.org/Graphics/SVG/1.1/DTD/svg11.dtd" >
<svg xmlns="http://www.w3.org/2000/svg" xmlns:xlink="http://www.w3.org/1999/xlink" version="1.1" viewBox="-10 0 660 512">
   <path fill="currentColor"
d="M538 227q29 5 52 23t36.5 45t13.5 57q0 53 -37.5 90.5t-90.5 37.5h-368q-60 0 -102 -42t-42 -102q0 -47 27 -84t69 -52v-8q0 -66 47 -113t113 -47q44 0 81 22t58 58q24 -16 53 -16q40 0 68 28t28 68q0 18 -6 35zM398 290q7 -7 7 -17t-7 -17l-93 -92q-7 -7 -17 -7t-17 7
l-93 92q-7 7 -7 17t7 17l11 11q7 7 17.5 7t17.5 -7l32 -35v126q0 10 7 17t17 7h16q10 0 17 -7t7 -17v-126l32 35q7 7 17.5 7t17.5 -7z" />
</svg>
