<?xml version="1.0" standalone="no"?>
<!DOCTYPE svg PUBLIC "-//W3C//DTD SVG 1.1//EN" "http://www.w3.org/Graphics/SVG/1.1/DTD/svg11.dtd" >
<svg xmlns="http://www.w3.org/2000/svg" xmlns:xlink="http://www.w3.org/1999/xlink" version="1.1" viewBox="-10 0 596 512">
   <path fill="currentColor"
d="M431 305q-3 -17 -12 -33q66 -64 157 -64v64q-70 0 -118 53q-12 -12 -27 -20zM399 326q29 10 47 34.5t18 55.5q0 40 -28 68t-68 28h-272q-40 0 -68 -28t-28 -68q0 -38 25.5 -65.5t63.5 -29.5q0 -1 -0.5 -3t-0.5 -3.5v-2.5q0 -46 33 -79t79 -33q34 0 61 18t41 48
q16 -10 34 -10q26 0 45 19t19 45q0 1 -0.5 3t-0.5 3zM239 174q57 -81 146 -127.5t191 -46.5v64q-84 0 -157.5 37.5t-123.5 103.5q-24 -22 -56 -31zM326 225q45 -56 110 -88.5t140 -32.5v64q-106 0 -182 76q-30 -23 -68 -19z" />
</svg>
