<?xml version="1.0" standalone="no"?>
<!DOCTYPE svg PUBLIC "-//W3C//DTD SVG 1.1//EN" "http://www.w3.org/Graphics/SVG/1.1/DTD/svg11.dtd" >
<svg xmlns="http://www.w3.org/2000/svg" xmlns:xlink="http://www.w3.org/1999/xlink" version="1.1" viewBox="-10 0 597 512">
   <path fill="currentColor"
d="M343 353q31 2 52 25t21 54q0 33 -23.5 56.5t-56.5 23.5h-240q-40 0 -68 -28t-28 -68q0 -31 18 -55.5t47 -34.5q0 -1 -0.5 -3t-0.5 -3q0 -40 28 -68t68 -28q27 0 49 13.5t35 36.5q18 -18 44 -18t45 19t19 45q0 17 -9 33zM565 298q6 -1 9.5 4.5t-0.5 10.5q-53 65 -137 70
q-17 -36 -54 -52q1 -6 1 -11q0 -40 -28 -68t-68 -28q-19 0 -36 7q-7 -7 -17 -14q-2 -13 -2 -25q0 -80 56.5 -136t135.5 -56q17 0 35 3q6 1 7 7.5t-4 9.5q-35 20 -55.5 55t-20.5 76q0 70 54.5 115.5t123.5 31.5z" />
</svg>
