<?xml version="1.0" standalone="no"?>
<!DOCTYPE svg PUBLIC "-//W3C//DTD SVG 1.1//EN" "http://www.w3.org/Graphics/SVG/1.1/DTD/svg11.dtd" >
<svg xmlns="http://www.w3.org/2000/svg" xmlns:xlink="http://www.w3.org/1999/xlink" version="1.1" viewBox="-10 0 532 512">
   <path fill="currentColor"
d="M372 169q55 -7 97.5 30t42.5 93q0 51 -36.5 87.5t-87.5 36.5q-55 0 -92 -41q0 32 8.5 46t44.5 30q10 4 15.5 14.5t3 21.5t-11.5 18t-20 7h-160q-11 0 -20 -7t-11.5 -18.5t3 -21.5t15.5 -14q25 -12 37 -23t14 -21t2 -32q-37 41 -92 41q-51 0 -87.5 -36.5t-36.5 -87.5
q0 -56 42.5 -93t97.5 -30q-23 -61 13.5 -115t102.5 -54q43 0 76 26t43 63.5t-3 79.5z" />
</svg>
