<?xml version="1.0" standalone="no"?>
<!DOCTYPE svg PUBLIC "-//W3C//DTD SVG 1.1//EN" "http://www.w3.org/Graphics/SVG/1.1/DTD/svg11.dtd" >
<svg xmlns="http://www.w3.org/2000/svg" xmlns:xlink="http://www.w3.org/1999/xlink" version="1.1" viewBox="-11 0 662 512">
   <path fill="currentColor"
d="M279 512l-61 -18q-12 -3 -8 -15l136 -470q3 -12 15 -9l61 18q12 3 8 15l-136 470q-4 12 -15 9zM165 399q-8 9 -17 1l-144 -135q-10 -9 0 -18l144 -135q9 -8 17 1l43 46q9 9 0 17l-91 80l91 80q9 8 0 17zM492 400q-9 8 -17 -1l-43 -46q-9 -9 0 -17l91 -80l-91 -80
q-9 -8 0 -17l43 -46q8 -9 17 -1l144 135q10 9 0 18z" />
</svg>
