<?xml version="1.0" standalone="no"?>
<!DOCTYPE svg PUBLIC "-//W3C//DTD SVG 1.1//EN" "http://www.w3.org/Graphics/SVG/1.1/DTD/svg11.dtd" >
<svg xmlns="http://www.w3.org/2000/svg" xmlns:xlink="http://www.w3.org/1999/xlink" version="1.1" viewBox="-10 0 404 512">
   <path fill="currentColor"
d="M384 144q0 26 -15 47t-39 29q-1 42 -22 68q-13 16 -35.5 25.5t-38.5 12.5t-44 5q-50 5 -66 13q-10 5 -15 13q23 9 37 29.5t14 45.5q0 33 -23.5 56.5t-56.5 23.5t-56.5 -23.5t-23.5 -56.5q0 -18 7 -33.5t20 -26.5t29 -16v-200q-25 -7 -40.5 -28t-15.5 -48
q0 -33 23.5 -56.5t56.5 -23.5t56.5 23.5t23.5 56.5q0 27 -15.5 48t-40.5 28v144q24 -11 81 -17q24 -2 36 -3.5t27 -7t22 -14.5q11 -13 12 -37q-17 -5 -30 -16t-20.5 -27t-7.5 -34q0 -33 23.5 -56.5t56.5 -23.5t56.5 23.5t23.5 56.5zM80 64q-7 0 -11.5 4.5t-4.5 11.5
t4.5 11.5t11.5 4.5t11.5 -4.5t4.5 -11.5t-4.5 -11.5t-11.5 -4.5zM80 448q7 0 11.5 -4.5t4.5 -11.5t-4.5 -11.5t-11.5 -4.5t-11.5 4.5t-4.5 11.5t4.5 11.5t11.5 4.5zM304 128q-7 0 -11.5 4.5t-4.5 11.5t4.5 11.5t11.5 4.5t11.5 -4.5t4.5 -11.5t-4.5 -11.5t-11.5 -4.5z" />
</svg>
