<?xml version="1.0" standalone="no"?>
<!DOCTYPE svg PUBLIC "-//W3C//DTD SVG 1.1//EN" "http://www.w3.org/Graphics/SVG/1.1/DTD/svg11.dtd" >
<svg xmlns="http://www.w3.org/2000/svg" xmlns:xlink="http://www.w3.org/1999/xlink" version="1.1" viewBox="-10 0 404 512">
   <path fill="currentColor"
d="M304 192q33 0 56.5 23.5t23.5 56.5t-23.5 56.5t-56.5 23.5q-25 0 -45 -13.5t-29 -35.5q-75 -8 -121 -52q-3 -2 -5 -5v110q16 5 29 16t20 26.5t7 33.5q0 33 -23.5 56.5t-56.5 23.5t-56.5 -23.5t-23.5 -56.5q0 -18 7 -33.5t20 -26.5t29 -16v-200q-25 -7 -40.5 -28
t-15.5 -48q0 -33 23.5 -56.5t56.5 -23.5t56.5 23.5t23.5 56.5q0 17 -6.5 32t-18 26t-27.5 17q9 37 34 61q32 30 84 38q6 -27 28 -44.5t50 -17.5zM80 64q-7 0 -11.5 4.5t-4.5 11.5t4.5 11.5t11.5 4.5t11.5 -4.5t4.5 -11.5t-4.5 -11.5t-11.5 -4.5zM80 448q7 0 11.5 -4.5
t4.5 -11.5t-4.5 -11.5t-11.5 -4.5t-11.5 4.5t-4.5 11.5t4.5 11.5t11.5 4.5zM304 288q7 0 11.5 -4.5t4.5 -11.5t-4.5 -11.5t-11.5 -4.5t-11.5 4.5t-4.5 11.5t4.5 11.5t11.5 4.5z" />
</svg>
