<?xml version="1.0" standalone="no"?>
<!DOCTYPE svg PUBLIC "-//W3C//DTD SVG 1.1//EN" "http://www.w3.org/Graphics/SVG/1.1/DTD/svg11.dtd" >
<svg xmlns="http://www.w3.org/2000/svg" xmlns:xlink="http://www.w3.org/1999/xlink" version="1.1" viewBox="-11 0 661 512">
   <path fill="currentColor"
d="M512 191l-8 14q-5 9 -15 6q-18 -7 -32 -19q-8 -7 -3 -16l8 -14q-10 -12 -16 -27h-16q-11 0 -12 -11q-4 -18 0 -37q1 -10 12 -10h16q6 -15 16 -27l-8 -15q-5 -9 3 -15q14 -12 32 -19q10 -4 15 5l8 15q16 -3 32 0l8 -15q5 -9 15 -5q18 6 32 19q8 6 3 15l-8 15q10 12 16 27
h16q11 0 12 10q4 19 0 37q-1 11 -12 11h-16q-6 15 -16 27l8 14q5 10 -3 16q-14 12 -32 19q-10 3 -15 -6l-8 -14q-16 3 -32 0zM502 132q18 14 37 8t23.5 -23.5t-8.5 -37.5q-18 -14 -37 -8t-23.5 23.5t8.5 37.5zM386 286l34 17q17 10 10 29q-9 26 -42 66q-13 15 -30 5l-30 -17
q-24 21 -54 32v34q0 8 -6 15t-14 8q-38 7 -76 0q-9 -1 -14.5 -8t-5.5 -15v-34q-31 -11 -55 -32l-29 17q-17 10 -30 -5q-32 -39 -42 -66q-7 -19 10 -29l33 -17q-6 -32 0 -63l-33 -17q-18 -10 -10 -29q10 -27 42 -66q12 -15 30 -5l29 16q25 -21 55 -31v-34q0 -9 5.5 -15.5
t14.5 -7.5q38 -7 76 0q4 0 7.5 2.5t6.5 5.5t4.5 7t1.5 8v34q30 11 54 31l30 -16q17 -11 30 5q32 38 42 66q7 19 -10 29l-34 17q6 31 0 63zM269 307q17 -22 19 -46t-9 -41.5t-28.5 -28.5t-41.5 -8.5t-46 19.5q-17 22 -19 46t9 41.5t28.5 28.5t41.5 8.5t46 -19.5zM512 490
l-8 14q-5 9 -15 6q-18 -7 -32 -19q-8 -7 -3 -16l8 -14q-10 -12 -16 -27h-16q-11 0 -12 -11q-4 -18 0 -37q1 -10 12 -10h16q6 -15 16 -28l-8 -14q-5 -9 3 -16q14 -12 32 -18q10 -4 15 5l8 15q16 -3 32 0l8 -15q5 -9 15 -5q18 6 32 18q8 7 3 16l-8 14q10 13 16 28h16
q11 0 12 10q4 19 0 37q-1 11 -12 11h-16q-6 15 -16 27l8 14q5 9 -3 16q-14 12 -32 19q-10 3 -15 -6l-8 -14q-16 3 -32 0zM502 431q18 14 37 8t23.5 -23.5t-8.5 -37.5q-18 -14 -37 -8t-23.5 23.5t8.5 37.5z" />
</svg>
