<?xml version="1.0" standalone="no"?>
<!DOCTYPE svg PUBLIC "-//W3C//DTD SVG 1.1//EN" "http://www.w3.org/Graphics/SVG/1.1/DTD/svg11.dtd" >
<svg xmlns="http://www.w3.org/2000/svg" xmlns:xlink="http://www.w3.org/1999/xlink" version="1.1" viewBox="-10 0 532 512">
   <path fill="currentColor"
d="M256 32q106 0 181 61t75 147t-75 147t-181 61q-56 0 -107 -19q-65 51 -141 51q-2 0 -4 -1.5t-3 -3.5q-2 -5 1.5 -8.5t12 -14t22.5 -35t20 -46.5q-57 -57 -57 -131q0 -86 75 -147t181 -61zM256 368q13 0 22.5 -9.5t9.5 -22.5t-9.5 -22.5t-22.5 -9.5t-22.5 9.5t-9.5 22.5
t9.5 22.5t22.5 9.5zM281 258l13 -128q1 -7 -4 -12.5t-12 -5.5h-44q-7 0 -12 5.5t-4 12.5l13 128q0 6 4.5 10t10.5 4h20q3 0 5.5 -1t4.5 -3t3.5 -4.5t1.5 -5.5z" />
</svg>
