<?xml version="1.0" standalone="no"?>
<!DOCTYPE svg PUBLIC "-//W3C//DTD SVG 1.1//EN" "http://www.w3.org/Graphics/SVG/1.1/DTD/svg11.dtd" >
<svg xmlns="http://www.w3.org/2000/svg" xmlns:xlink="http://www.w3.org/1999/xlink" version="1.1" viewBox="-11 0 662 512">
   <path fill="currentColor"
d="M64 240q0 -26 9 -54l325 252q-38 10 -78 10q-56 0 -107 -19q-65 51 -141 51q-5 0 -7 -5t1 -9q44 -52 55 -95q-57 -57 -57 -131zM634 458q5 4 6 10.5t-3 11.5l-20 26q-10 12 -22 2l-589 -454q-12 -10 -3 -23l20 -25q10 -12 23 -3l105 82q73 -53 169 -53q106 0 181 61
t75 147q0 72 -57 130z" />
</svg>
