<?xml version="1.0" standalone="no"?>
<!DOCTYPE svg PUBLIC "-//W3C//DTD SVG 1.1//EN" "http://www.w3.org/Graphics/SVG/1.1/DTD/svg11.dtd" >
<svg xmlns="http://www.w3.org/2000/svg" xmlns:xlink="http://www.w3.org/1999/xlink" version="1.1" viewBox="-10 0 532 512">
   <path fill="currentColor"
d="M448 0q27 0 45.5 18.5t18.5 45.5v288q0 27 -18.5 45.5t-45.5 18.5h-144l-125 94q-6 4 -12.5 0.5t-6.5 -10.5v-84h-96q-27 0 -45.5 -18.5t-18.5 -45.5v-288q0 -27 18.5 -45.5t45.5 -18.5h384zM280 302q15 -1 27 -10t18 -23t4 -30q-2 -17 -14 -29.5t-29 -17.5l-50 -15
q-6 -1 -6 -8q0 -8 9 -8h32h1q5 0 10 2q8 4 14 -2l17 -17q4 -4 3.5 -10t-4.5 -9q-14 -9 -32 -11v-18q0 -7 -4.5 -11.5t-11.5 -4.5h-16q-7 0 -11.5 4.5t-4.5 11.5v18q-11 1 -21 6.5t-16.5 14t-10 19.5t-1.5 23q2 17 14 29.5t29 17.5l50 15q6 1 6 8q0 8 -9 8h-32q-6 0 -11 -2
q-8 -4 -14 2l-17 17q-4 4 -3.5 10t4.5 9q14 9 32 11v18q0 7 4.5 11.5t11.5 4.5h16q7 0 11.5 -4.5t4.5 -11.5v-18z" />
</svg>
