<?xml version="1.0" standalone="no"?>
<!DOCTYPE svg PUBLIC "-//W3C//DTD SVG 1.1//EN" "http://www.w3.org/Graphics/SVG/1.1/DTD/svg11.dtd" >
<svg xmlns="http://www.w3.org/2000/svg" xmlns:xlink="http://www.w3.org/1999/xlink" version="1.1" viewBox="-10 0 596 512">
   <path fill="currentColor"
d="M416 224q0 27 -18.5 45.5t-45.5 18.5h-190l-82 62q-5 4 -10.5 1t-5.5 -9v-54q-27 0 -45.5 -18.5t-18.5 -45.5v-160q0 -27 18.5 -45.5t45.5 -18.5h288q27 0 45.5 18.5t18.5 45.5v160zM224 224q18 -1 30.5 -14t12.5 -31q0 -15 -9 -27t-23 -17l-45 -13q-9 -3 -9 -13
q0 -3 1.5 -6t4.5 -5t6 -2h28q7 0 13 4q6 3 10 -1l12 -11q7 -7 -1 -12q-14 -11 -31 -12v-16q0 -8 -8 -8h-16q-8 0 -8 8v16q-18 1 -30.5 14t-12.5 31q0 10 4 19t11.5 15.5t16.5 9.5l45 13q9 3 9 13q0 3 -1.5 6t-4.5 5t-6 2h-28q-7 0 -13 -4q-6 -3 -10 1l-12 11q-7 7 1 12
q14 11 31 12v16q0 8 8 8h16q8 0 8 -8v-16zM512 160q27 0 45.5 18.5t18.5 45.5v160q0 27 -18.5 45.5t-45.5 18.5h-32v54q0 6 -5.5 9t-10.5 -1l-82 -62h-126q-27 0 -45.5 -18.5t-18.5 -45.5v-64h160q40 0 68 -28t28 -68v-64h64z" />
</svg>
