<?xml version="1.0" standalone="no"?>
<!DOCTYPE svg PUBLIC "-//W3C//DTD SVG 1.1//EN" "http://www.w3.org/Graphics/SVG/1.1/DTD/svg11.dtd" >
<svg xmlns="http://www.w3.org/2000/svg" xmlns:xlink="http://www.w3.org/1999/xlink" version="1.1" viewBox="-10 0 596 512">
   <path fill="currentColor"
d="M416 192q0 66 -61 113t-147 47q-60 0 -111 -25q-43 25 -89 25q-8 0 -8 -8q0 -3 2 -6q22 -23 36 -54q-38 -41 -38 -92q0 -66 61 -113t147 -47t147 47t61 113zM192 288q0 8 8 8h16q8 0 8 -8v-16q18 -1 30.5 -14t12.5 -31q0 -8 -2.5 -15t-6.5 -12.5t-10 -10t-13 -6.5
l-45 -13q-9 -3 -9 -13q0 -3 1.5 -6t4.5 -5t6 -2h28q7 0 13 4q6 3 10 -1l12 -11q7 -7 -1 -12q-14 -11 -31 -12v-16q0 -8 -8 -8h-16q-8 0 -8 8v16q-18 1 -30.5 14t-12.5 31q0 15 9 27t23 17l45 13q9 3 9 13q0 5 -3.5 9t-8.5 4h-28q-7 0 -13 -4q-6 -3 -10 1l-12 11q-7 7 1 12
q14 11 31 12v16zM538 412q14 31 36 54q3 4 1 9t-7 5q-46 0 -89 -25q-51 25 -111 25q-64 0 -116 -27t-76 -71q18 2 32 2q99 0 169.5 -56.5t70.5 -135.5q0 -10 -1 -20q57 18 93 58t36 90q0 51 -38 92z" />
</svg>
