<?xml version="1.0" standalone="no"?>
<!DOCTYPE svg PUBLIC "-//W3C//DTD SVG 1.1//EN" "http://www.w3.org/Graphics/SVG/1.1/DTD/svg11.dtd" >
<svg xmlns="http://www.w3.org/2000/svg" xmlns:xlink="http://www.w3.org/1999/xlink" version="1.1" viewBox="-10 0 532 512">
   <path fill="currentColor"
d="M448 0q26 0 45 19t19 45v288q0 26 -19 45t-45 19h-144l-125 94q-6 4 -12.5 0.5t-6.5 -10.5v-84h-96q-26 0 -45 -19t-19 -45v-288q0 -26 19 -45t45 -19h384zM320 133q-11 0 -19 8t-8 19t8 19t19 8t19 -8t8 -19t-8 -19t-19 -8zM192 133q-11 0 -19 8t-8 19t8 19t19 8t19 -8
t8 -19t-8 -19t-19 -8zM356 274q11 -12 -1.5 -22.5t-22.5 1.5q-30 35 -76 35t-76 -35q-10 -12 -22.5 -1.5t-1.5 22.5q39 46 100 46t100 -46z" />
</svg>
