<?xml version="1.0" standalone="no"?>
<!DOCTYPE svg PUBLIC "-//W3C//DTD SVG 1.1//EN" "http://www.w3.org/Graphics/SVG/1.1/DTD/svg11.dtd" >
<svg xmlns="http://www.w3.org/2000/svg" xmlns:xlink="http://www.w3.org/1999/xlink" version="1.1" viewBox="-10 0 532 512">
   <path fill="currentColor"
d="M256 32q106 0 181 61t75 147t-75 147t-181 61q-56 0 -107 -19q-65 51 -141 51q-8 0 -8 -8q0 -3 2 -6q5 -4 12.5 -13.5t22 -34.5t20.5 -47q-57 -57 -57 -131q0 -86 75 -147t181 -61zM280 334q23 -2 37.5 -20.5t11.5 -42.5q-2 -17 -14 -29.5t-29 -17.5l-50 -15q-6 -1 -6 -8
q0 -8 9 -8h32h1q5 0 10 2q8 4 14 -2l17 -17q4 -4 3.5 -10t-4.5 -9q-14 -9 -32 -11v-18q0 -7 -4.5 -11.5t-11.5 -4.5h-16q-7 0 -11.5 4.5t-4.5 11.5v18q-15 1 -27 10t-18 23t-4 30q2 17 14 29.5t29 17.5l50 15q6 1 6 8q0 8 -9 8h-32q-6 0 -11 -2q-8 -4 -14 2l-17 17
q-4 4 -3.5 10t4.5 9q14 9 32 11v18q0 7 4.5 11.5t11.5 4.5h16q7 0 11.5 -4.5t4.5 -11.5v-18z" />
</svg>
