<?xml version="1.0" standalone="no"?>
<!DOCTYPE svg PUBLIC "-//W3C//DTD SVG 1.1//EN" "http://www.w3.org/Graphics/SVG/1.1/DTD/svg11.dtd" >
<svg xmlns="http://www.w3.org/2000/svg" xmlns:xlink="http://www.w3.org/1999/xlink" version="1.1" viewBox="-10 0 532 512">
   <path fill="currentColor"
d="M448 0q26 0 45 19t19 45v288q0 26 -19 45t-45 19h-144l-125 94q-6 4 -12.5 0.5t-6.5 -10.5v-84h-96q-26 0 -45 -19t-19 -45v-288q0 -26 19 -45t45 -19h384zM368 216v-16q0 -7 -4.5 -11.5t-11.5 -4.5h-72v-72q0 -7 -4.5 -11.5t-11.5 -4.5h-16q-7 0 -11.5 4.5t-4.5 11.5v72
h-72q-7 0 -11.5 4.5t-4.5 11.5v16q0 7 4.5 11.5t11.5 4.5h72v72q0 7 4.5 11.5t11.5 4.5h16q7 0 11.5 -4.5t4.5 -11.5v-72h72q7 0 11.5 -4.5t4.5 -11.5z" />
</svg>
