<?xml version="1.0" standalone="no"?>
<!DOCTYPE svg PUBLIC "-//W3C//DTD SVG 1.1//EN" "http://www.w3.org/Graphics/SVG/1.1/DTD/svg11.dtd" >
<svg xmlns="http://www.w3.org/2000/svg" xmlns:xlink="http://www.w3.org/1999/xlink" version="1.1" viewBox="-10 0 532 512">
   <path fill="currentColor"
d="M448 -1q26 0 45 19t19 45v288q0 26 -19 45t-45 19h-144l-125 94q-3 2 -7 2q-5 0 -8.5 -3.5t-3.5 -8.5v-84h-96q-26 0 -45 -19t-19 -45v-288q0 -26 19 -45t45 -19h384zM352 255v-160q0 -7 -4.5 -11.5t-11.5 -4.5q-2 0 -5 1l-128 47q-11 4 -11 15v115q-8 -2 -16 -2
q-20 0 -34 9.5t-14 22.5t14 22.5t34 9.5t34 -9.5t14 -22.5v-101l96 -37v76q-8 -2 -16 -2q-20 0 -34 9.5t-14 22.5t14 22.5t34 9.5t34 -9.5t14 -22.5z" />
</svg>
