<?xml version="1.0" standalone="no"?>
<!DOCTYPE svg PUBLIC "-//W3C//DTD SVG 1.1//EN" "http://www.w3.org/Graphics/SVG/1.1/DTD/svg11.dtd" >
<svg xmlns="http://www.w3.org/2000/svg" xmlns:xlink="http://www.w3.org/1999/xlink" version="1.1" viewBox="-10 0 532 512">
   <path fill="currentColor"
d="M448 0q26 0 45 19t19 45v288q0 26 -19 45t-45 19h-144l-125 94q-6 4 -12.5 0.5t-6.5 -10.5v-84h-96q-26 0 -45 -19t-19 -45v-288q0 -26 19 -45t45 -19h384zM256 336q13 0 22.5 -9.5t9.5 -22.5t-9.5 -22.5t-22.5 -9.5t-22.5 9.5t-9.5 22.5t9.5 22.5t22.5 9.5zM281 226
l13 -128q1 -7 -4 -12.5t-12 -5.5h-44q-7 0 -12 5.5t-4 12.5l13 128q0 6 4.5 10t10.5 4h20q6 0 10.5 -4t4.5 -10z" />
</svg>
