<?xml version="1.0" standalone="no"?>
<!DOCTYPE svg PUBLIC "-//W3C//DTD SVG 1.1//EN" "http://www.w3.org/Graphics/SVG/1.1/DTD/svg11.dtd" >
<svg xmlns="http://www.w3.org/2000/svg" xmlns:xlink="http://www.w3.org/1999/xlink" version="1.1" viewBox="-10 0 532 512">
   <path fill="currentColor"
d="M500 224h-124q-10 0 -17 -7t-7 -17v-124q0 -12 12 -12h40q12 0 12 12v84h84q12 0 12 12v40q0 12 -12 12zM160 200q0 10 -7 17t-17 7h-124q-12 0 -12 -12v-40q0 -12 12 -12h84v-84q0 -12 12 -12h40q12 0 12 12v124zM160 436q0 12 -12 12h-40q-12 0 -12 -12v-84h-84
q-12 0 -12 -12v-40q0 -12 12 -12h124q10 0 17 7t7 17v124zM416 436q0 12 -12 12h-40q-12 0 -12 -12v-124q0 -10 7 -17t17 -7h124q12 0 12 12v40q0 12 -12 12h-84v84z" />
</svg>
