<?xml version="1.0" standalone="no"?>
<!DOCTYPE svg PUBLIC "-//W3C//DTD SVG 1.1//EN" "http://www.w3.org/Graphics/SVG/1.1/DTD/svg11.dtd" >
<svg xmlns="http://www.w3.org/2000/svg" xmlns:xlink="http://www.w3.org/1999/xlink" version="1.1" viewBox="-11 0 662 512">
   <path fill="currentColor"
d="M634 458q12 10 3 23l-20 25q-10 12 -22 3l-589 -455q-12 -10 -3 -23l20 -25q10 -12 22 -3l100 77q73 -72 175 -72q103 0 175.5 72.5t72.5 175.5q0 67 -34 125zM446 156q6 -12 -4 -22t-22 -4l-133 60l106 82zM220 382l67 -30l155 120q-57 32 -122 32q-103 0 -175.5 -72.5
t-72.5 -175.5q0 -31 9 -64l139 108l-26 56q-6 12 4 22t22 4z" />
</svg>
