<?xml version="1.0" standalone="no"?>
<!DOCTYPE svg PUBLIC "-//W3C//DTD SVG 1.1//EN" "http://www.w3.org/Graphics/SVG/1.1/DTD/svg11.dtd" >
<svg xmlns="http://www.w3.org/2000/svg" xmlns:xlink="http://www.w3.org/1999/xlink" version="1.1" viewBox="-10 0 533 512">
   <path fill="currentColor"
d="M511 256q6 42 -13 80l-35 69q-6 10 -15.5 21.5t-21 21t-21.5 14.5l-69 36q-39 19 -81 12l-77 -12q-17 -3 -38.5 -13.5t-33.5 -23.5l-55 -55q-13 -12 -24 -33.5t-13 -39.5l-12 -76q-2 -10 -2 -21q0 -31 14 -60l36 -69q8 -15 24.5 -32t32.5 -25l69 -36q38 -19 80 -12
q1 52 38 89t90 37q0 53 37 90t90 38zM176 368q13 0 22.5 -9.5t9.5 -22.5t-9.5 -22.5t-22.5 -9.5t-22.5 9.5t-9.5 22.5t9.5 22.5t22.5 9.5zM208 208q13 0 22.5 -9.5t9.5 -22.5t-9.5 -22.5t-22.5 -9.5t-22.5 9.5t-9.5 22.5t9.5 22.5t22.5 9.5zM368 336q13 0 22.5 -9.5
t9.5 -22.5t-9.5 -22.5t-22.5 -9.5t-22.5 9.5t-9.5 22.5t9.5 22.5t22.5 9.5z" />
</svg>
