<?xml version="1.0" standalone="no"?>
<!DOCTYPE svg PUBLIC "-//W3C//DTD SVG 1.1//EN" "http://www.w3.org/Graphics/SVG/1.1/DTD/svg11.dtd" >
<svg xmlns="http://www.w3.org/2000/svg" xmlns:xlink="http://www.w3.org/1999/xlink" version="1.1" viewBox="-10 0 468 512">
   <path fill="currentColor"
d="M320 448v40q0 10 -7 17t-17 7h-272q-10 0 -17 -7t-7 -17v-368q0 -10 7 -17t17 -7h72v296q0 23 16.5 39.5t39.5 16.5h168zM320 104q0 10 7 17t17 7h104v264q0 10 -7 17t-17 7h-272q-10 0 -17 -7t-7 -17v-368q0 -10 7 -17t17 -7h168v104zM441 73q7 7 7 17v6h-96v-96h6
q10 0 17 7z" />
</svg>
