<?xml version="1.0" standalone="no"?>
<!DOCTYPE svg PUBLIC "-//W3C//DTD SVG 1.1//EN" "http://www.w3.org/Graphics/SVG/1.1/DTD/svg11.dtd" >
<svg xmlns="http://www.w3.org/2000/svg" xmlns:xlink="http://www.w3.org/1999/xlink" version="1.1" viewBox="-10 0 660 512">
   <path fill="currentColor"
d="M160 224q0 -26 -19 -45t-45 -19h-32q0 -40 28 -68t68 -28h320q40 0 68 28t28 68h-32q-26 0 -45 19t-19 45v64h-320v-64zM576 192q26 0 45 19t19 45q0 36 -32 55v121q0 7 -4.5 11.5t-11.5 4.5h-64q-7 0 -11.5 -4.5t-4.5 -11.5v-16h-384v16q0 7 -4.5 11.5t-11.5 4.5h-64
q-7 0 -11.5 -4.5t-4.5 -11.5v-121q-32 -19 -32 -55q0 -26 19 -45t45 -19h32q13 0 22.5 9.5t9.5 22.5v96h384v-96q0 -13 9.5 -22.5t22.5 -9.5h32z" />
</svg>
