<?xml version="1.0" standalone="no"?>
<!DOCTYPE svg PUBLIC "-//W3C//DTD SVG 1.1//EN" "http://www.w3.org/Graphics/SVG/1.1/DTD/svg11.dtd" >
<svg xmlns="http://www.w3.org/2000/svg" xmlns:xlink="http://www.w3.org/1999/xlink" version="1.1" viewBox="-10 0 660 512">
   <path fill="currentColor"
d="M634 277q8 11 5 24l-21 109q-4 17 -17 27.5t-30 10.5q-10 0 -21.5 -6t-17.5 -15l-41 -62q-11 -16 -11 -36v-41l-32 -32v176q0 7 -4.5 11.5t-11.5 4.5h-64q-7 0 -11.5 -4.5t-4.5 -11.5v-112q-13 13 -32 22v26q0 7 -4.5 11.5t-11.5 4.5t-11.5 -4.5t-4.5 -11.5v-17
q-16 2 -32 0v17q0 7 -4.5 11.5t-11.5 4.5t-11.5 -4.5t-4.5 -11.5v-26q-19 -9 -32 -22v112q0 7 -4.5 11.5t-11.5 4.5h-64q-7 0 -11.5 -4.5t-4.5 -11.5v-304q0 -7 1 -13q-25 10 -25 37v104q0 27 -18.5 45.5t-45.5 18.5h-8v-32q0 -30 24 -50v-86q0 -36 26 -62t62 -26h319
q20 0 43 11.5t35 28.5l66 91q11 -16 26 -23q8 -4 15.5 0.5t7.5 13.5v77zM377 167q12 -11 4 -25t-26 -14h-166q-18 0 -26 14t4 25l23 23q34 34 82 34t82 -34zM576 352q3 0 5 -1t4 -2.5t3.5 -3.5t2.5 -4t1 -5q0 -7 -4.5 -11.5t-11.5 -4.5t-11.5 4.5t-4.5 11.5t4.5 11.5
t11.5 4.5z" />
</svg>
