<?xml version="1.0" standalone="no"?>
<!DOCTYPE svg PUBLIC "-//W3C//DTD SVG 1.1//EN" "http://www.w3.org/Graphics/SVG/1.1/DTD/svg11.dtd" >
<svg xmlns="http://www.w3.org/2000/svg" xmlns:xlink="http://www.w3.org/1999/xlink" version="1.1" viewBox="-10 0 596 512">
   <path fill="currentColor"
d="M528 40q20 0 34 14t14 34v352q0 20 -14 34t-34 14h-480q-20 0 -34 -14t-14 -34v-352q0 -20 14 -34t34 -14h480zM160 404v-40q0 -12 -12 -12h-72q-12 0 -12 12v40q0 12 12 12h72q12 0 12 -12zM352 404v-40q0 -12 -12 -12h-136q-12 0 -12 12v40q0 12 12 12h136q12 0 12 -12
z" />
</svg>
