<?xml version="1.0" standalone="no"?>
<!DOCTYPE svg PUBLIC "-//W3C//DTD SVG 1.1//EN" "http://www.w3.org/Graphics/SVG/1.1/DTD/svg11.dtd" >
<svg xmlns="http://www.w3.org/2000/svg" xmlns:xlink="http://www.w3.org/1999/xlink" version="1.1" viewBox="-11 0 661 512">
   <path fill="currentColor"
d="M422 322l-264 184q-15 10 -30 4q-55 -25 -89.5 -74t-38.5 -109q-1 -17 14 -27l263 -184l-31 175zM636 30q5 9 3.5 18.5t-9.5 15.5l-144 102q-11 7 -13.5 20.5t5.5 23.5l24 35q9 13 -4 23l-21 15l-175 -31l31 -175l21 -15q13 -9 22 4l22 31q8 11 21 13t24 -5l144 -101
q8 -5 18 -3.5t15 9.5zM496 352q33 0 56.5 23.5t23.5 56.5t-23.5 56.5t-56.5 23.5t-56.5 -23.5t-23.5 -56.5t23.5 -56.5t56.5 -23.5z" />
</svg>
