<?xml version="1.0" standalone="no"?>
<!DOCTYPE svg PUBLIC "-//W3C//DTD SVG 1.1//EN" "http://www.w3.org/Graphics/SVG/1.1/DTD/svg11.dtd" >
<svg xmlns="http://www.w3.org/2000/svg" xmlns:xlink="http://www.w3.org/1999/xlink" version="1.1" viewBox="-10 0 532 512">
   <path fill="currentColor"
d="M488 352q10 0 17 7t7 17v48q0 10 -7 17t-17 7h-40v40q0 10 -7 17t-17 7h-48q-10 0 -17 -7t-7 -17v-328h-160v-96h224q13 0 22.5 9.5t9.5 22.5v256h40zM160 24v328h160v96h-224q-13 0 -22.5 -9.5t-9.5 -22.5v-256h-40q-10 0 -17 -7t-7 -17v-48q0 -10 7 -17t17 -7h40v-40
q0 -10 7 -17t17 -7h48q10 0 17 7t7 17z" />
</svg>
