<?xml version="1.0" standalone="no"?>
<!DOCTYPE svg PUBLIC "-//W3C//DTD SVG 1.1//EN" "http://www.w3.org/Graphics/SVG/1.1/DTD/svg11.dtd" >
<svg xmlns="http://www.w3.org/2000/svg" xmlns:xlink="http://www.w3.org/1999/xlink" version="1.1" viewBox="-10 0 532 512">
   <path fill="currentColor"
d="M500 224q12 0 12 12v40q0 12 -12 12h-30q-7 46 -32.5 85t-64.5 64.5t-85 32.5v30q0 12 -12 12h-40q-12 0 -12 -12v-30q-70 -11 -120.5 -61.5t-61.5 -120.5h-30q-12 0 -12 -12v-40q0 -12 12 -12h30q11 -70 61.5 -120.5t120.5 -61.5v-30q0 -12 12 -12h40q12 0 12 12v30
q70 11 120.5 61.5t61.5 120.5h30zM288 405q44 -10 75.5 -41.5t41.5 -75.5h-41q-12 0 -12 -12v-40q0 -12 12 -12h41q-10 -44 -41.5 -75.5t-75.5 -41.5v41q0 12 -12 12h-40q-12 0 -12 -12v-41q-44 10 -75.5 41.5t-41.5 75.5h41q12 0 12 12v40q0 12 -12 12h-41q10 44 41.5 75.5
t75.5 41.5v-41q0 -12 12 -12h40q12 0 12 12v41zM288 256q0 13 -9.5 22.5t-22.5 9.5t-22.5 -9.5t-9.5 -22.5t9.5 -22.5t22.5 -9.5t22.5 9.5t9.5 22.5z" />
</svg>
