<?xml version="1.0" standalone="no"?>
<!DOCTYPE svg PUBLIC "-//W3C//DTD SVG 1.1//EN" "http://www.w3.org/Graphics/SVG/1.1/DTD/svg11.dtd" >
<svg xmlns="http://www.w3.org/2000/svg" xmlns:xlink="http://www.w3.org/1999/xlink" version="1.1" viewBox="-10 0 660 512">
   <path fill="currentColor"
d="M635 186q5 4 5 11t-5 11l-22 23q-5 5 -11.5 5t-11.5 -5l-181 -181q-5 -5 -5 -11.5t5 -11.5l23 -22q4 -5 11 -5t11 5zM441 396l66 66q5 5 5 11.5t-5 11.5l-22 22q-5 5 -11.5 5t-11.5 -5l-90 -90l35 -8q18 -4 34 -13zM196 354l-1.5 -1.5l-0.5 -0.5l-133 -132l-11 11
q-5 5 -11.5 5t-11.5 -5l-22 -23q-5 -4 -5 -11t5 -11l181 -181q4 -5 11 -5t11 5l23 22q5 5 5 11.5t-5 11.5l-11 11l77 78l-32 32l-12 14l-79 -78l-67 67l112 113l-13 57zM456 252l55 -55l45 45l-110 110q-19 19 -46 26l-120 27l-102 102q-5 5 -11.5 5t-11.5 -5l-22 -22
q-5 -5 -5 -11.5t5 -11.5l102 -102l27 -120q7 -27 26 -46l110 -110l45 45l-55 55zM401 307l10 -10l-68 -68l-10 10q-6 6 -8 15l-19 80l80 -19q9 -2 15 -8z" />
</svg>
