<?xml version="1.0" standalone="no"?>
<!DOCTYPE svg PUBLIC "-//W3C//DTD SVG 1.1//EN" "http://www.w3.org/Graphics/SVG/1.1/DTD/svg11.dtd" >
<svg xmlns="http://www.w3.org/2000/svg" xmlns:xlink="http://www.w3.org/1999/xlink" version="1.1" viewBox="-10 0 468 512">
   <path fill="currentColor"
d="M448 73v46q0 30 -65.5 51.5t-158.5 21.5q-61 0 -112.5 -10t-81.5 -26.5t-30 -36.5v-46q0 -30 65.5 -51.5t158.5 -21.5q61 0 112.5 10t81.5 26.5t30 36.5zM448 176v103q0 30 -65.5 51.5t-158.5 21.5t-158.5 -21.5t-65.5 -51.5v-103q71 49 224 49t224 -49zM448 336v103
q0 30 -65.5 51.5t-158.5 21.5t-158.5 -21.5t-65.5 -51.5v-103q71 49 224 49t224 -49z" />
</svg>
