<?xml version="1.0" standalone="no"?>
<!DOCTYPE svg PUBLIC "-//W3C//DTD SVG 1.1//EN" "http://www.w3.org/Graphics/SVG/1.1/DTD/svg11.dtd" >
<svg xmlns="http://www.w3.org/2000/svg" xmlns:xlink="http://www.w3.org/1999/xlink" version="1.1" viewBox="-10 0 524 512">
   <path fill="currentColor"
d="M146 304h-2q-7 0 -11.5 -4.5t-4.5 -11.5q0 -6 4 -10.5t10 -5.5l34 -5v-1l99 99q-10 3 -20 3q-8 0 -18 -2.5t-19 -7.5t-15 -10l-26 17q-4 3 -9 3q-7 0 -11.5 -4.5t-4.5 -11.5q0 -9 7 -13l25 -17q-5 -11 -7 -23zM256 8q103 0 175.5 72.5t72.5 175.5t-72.5 175.5
t-175.5 72.5t-175.5 -72.5t-72.5 -175.5t72.5 -175.5t175.5 -72.5zM256 440q24 0 55 -10t50 -23l-256 -256q-13 19 -23 50t-10 55q0 76 54 130t130 54zM407 361q9 -12 16.5 -31t12 -38.5t4.5 -35.5q0 -76 -54 -130t-130 -54q-24 0 -55 10t-50 23l56 56q21 -17 49 -17
q13 0 28 6t25 14l26 -17q4 -3 9 -3q7 0 11.5 4.5t4.5 11.5q0 9 -7 13l-25 17q5 11 7 23l31 -5h2q7 0 11.5 4.5t4.5 11.5q0 3 -1 5.5t-3 5t-4.5 3.5t-5.5 2l-34 5v22l34 5q6 1 10 5.5t4 10.5q0 7 -4.5 11.5t-11.5 4.5h-2l-20 -3z" />
</svg>
