<?xml version="1.0" standalone="no"?>
<!DOCTYPE svg PUBLIC "-//W3C//DTD SVG 1.1//EN" "http://www.w3.org/Graphics/SVG/1.1/DTD/svg11.dtd" >
<svg xmlns="http://www.w3.org/2000/svg" xmlns:xlink="http://www.w3.org/1999/xlink" version="1.1" viewBox="-10 0 532 512">
   <path fill="currentColor"
d="M480 96q13 0 22.5 9.5t9.5 22.5t-9.5 22.5t-22.5 9.5h-1l0.5 1.5t0.5 2.5v28q0 13 -9.5 22.5t-22.5 9.5h-64l-32 64v208q0 7 -4.5 11.5t-11.5 4.5h-64q-7 0 -11.5 -4.5t-4.5 -11.5v-144h-125l-20 52l27 88q1 8 -3.5 14t-12.5 6h-64q-12 0 -15 -12l-25 -83q-5 -19 2 -38
l12 -31v-49l-32 21v-64q0 -26 19 -45t45 -19h208l34 -68l-79 -22q-16 -4 -25.5 -17t-9.5 -29v-48q0 -8 8 -8h16q8 0 8 8v48q0 12 12 15l16 5l16 -21q4 -5 4 -10v-37q0 -8 8 -8h16q8 0 8 8v37q0 17 -10 30l-9 10l34 10l43 -22q11 -5 18 -16l18 -27q5 -7 11 -2l13 8q7 5 3 12
l-18 27q-12 17 -31 27l-11 6l84 23l-0.5 -1t-0.5 -2q0 -13 9.5 -22.5t22.5 -9.5zM384 176q7 0 11.5 -4.5t4.5 -11.5t-4.5 -11.5t-11.5 -4.5t-11.5 4.5t-4.5 11.5t4.5 11.5t11.5 4.5z" />
</svg>
