<?xml version="1.0" standalone="no"?>
<!DOCTYPE svg PUBLIC "-//W3C//DTD SVG 1.1//EN" "http://www.w3.org/Graphics/SVG/1.1/DTD/svg11.dtd" >
<svg xmlns="http://www.w3.org/2000/svg" xmlns:xlink="http://www.w3.org/1999/xlink" version="1.1" viewBox="-11 0 662 512">
   <path fill="currentColor"
d="M637 257q9 13 -4 22l-27 18q-13 9 -22 -5q-3 -4 -7 -10.5t-6 -9t-5 -7t-4.5 -6t-3.5 -4.5t-4 -4.5t-4.5 -3.5t-5.5 -5v78h-352l-54 -108l-38 35q-10 9 -23 9h-31q-19 0 -28 -18l-15 -28q-8 -18 3 -34l75 -99q1 -1 6 -5q-8 -5 -11 -8q-12 -12 -13.5 -29.5t7.5 -30.5
q5 -9 12 -2l43 43l42 -42q3 -3 8 -2.5t7 4.5q12 17 10 38t-17 36l81 81h236q38 0 71.5 18t54.5 50zM296 243q2 -2 1.5 -5t-3.5 -3l-23 -3l-10 -21q-2 -3 -5 -3t-4 3l-11 21l-22 3q-3 0 -4 3t1 5l16 16l-4 23q0 3 2.5 5t5.5 0l20 -10l20 10q3 2 5.5 0t2.5 -5l-4 -23zM408 243
q2 -2 1.5 -5t-3.5 -3l-23 -3l-10 -21q-2 -3 -5 -3t-4 3l-11 21l-22 3q-3 0 -4 3t1 5l16 16l-4 23q0 3 2.5 5t5.5 0l20 -10l20 10q3 2 5.5 0t2.5 -5l-4 -23zM520 243q2 -2 1.5 -5t-3.5 -3l-23 -3l-10 -21q-2 -3 -5 -3t-4 3l-11 21l-22 3q-3 0 -4 3t1 5l16 16l-4 23q0 3 2.5 5
t5.5 0l20 -10l20 10q3 2 5.5 0t2.5 -5l-4 -23zM192 496v-144h352v144q0 7 -4.5 11.5t-11.5 4.5h-64q-7 0 -11.5 -4.5t-4.5 -11.5v-80h-160v80q0 7 -4.5 11.5t-11.5 4.5h-64q-7 0 -11.5 -4.5t-4.5 -11.5z" />
</svg>
