<?xml version="1.0" standalone="no"?>
<!DOCTYPE svg PUBLIC "-//W3C//DTD SVG 1.1//EN" "http://www.w3.org/Graphics/SVG/1.1/DTD/svg11.dtd" >
<svg xmlns="http://www.w3.org/2000/svg" xmlns:xlink="http://www.w3.org/1999/xlink" version="1.1" viewBox="-10 0 532 512">
   <path fill="currentColor"
d="M495 225q7 0 12 4.5t5 11.5v30q0 7 -5 11.5t-12 4.5l-17 -1q-8 59 -44 106l13 11q5 5 5.5 12t-4.5 11l-22 22q-4 4 -11 4t-12 -5l-11 -13q-47 36 -106 44l1 17q0 7 -4.5 12t-11.5 5h-30q-7 0 -11.5 -5t-4.5 -12l1 -17q-59 -8 -106 -44l-11 13q-5 5 -12 5t-11 -4l-22 -22
q-4 -4 -4 -11t5 -12l13 -11q-36 -47 -44 -106l-17 1q-7 0 -12 -4.5t-5 -11.5v-30q0 -7 5 -11.5t12 -4.5l17 1q8 -59 44 -106l-13 -11q-5 -5 -5 -12t4 -11l22 -22q4 -4 11 -4t12 5l11 13q47 -36 106 -44l-1 -17q0 -7 4.5 -12t11.5 -5h30q7 0 11.5 5t4.5 12l-1 17q59 8 106 44
l11 -13q5 -5 12 -5t11 4l22 22q4 4 4 11t-5 12l-13 11q36 47 44 106zM282 99l-4 64q15 3 28 12l43 -49q-30 -21 -67 -27zM230 99q-37 6 -67 27l43 49q13 -9 28 -12zM126 163q-21 30 -27 67l64 4q3 -15 12 -28zM99 282q6 37 27 67l49 -43q-9 -13 -12 -28zM230 413l4 -64
q-15 -3 -28 -12l-43 49q30 21 67 27zM256 288q13 0 22.5 -9.5t9.5 -22.5t-9.5 -22.5t-22.5 -9.5t-22.5 9.5t-9.5 22.5t9.5 22.5t22.5 9.5zM282 413q37 -6 67 -27l-43 -49q-13 9 -28 12zM386 349q21 -30 27 -67l-64 -4q-3 15 -12 28zM349 234l64 -4q-6 -37 -27 -67l-49 43
q9 13 12 28z" />
</svg>
