<?xml version="1.0" standalone="no"?>
<!DOCTYPE svg PUBLIC "-//W3C//DTD SVG 1.1//EN" "http://www.w3.org/Graphics/SVG/1.1/DTD/svg11.dtd" >
<svg xmlns="http://www.w3.org/2000/svg" xmlns:xlink="http://www.w3.org/1999/xlink" version="1.1" viewBox="-10 0 660 512">
   <path fill="currentColor"
d="M496 256q-7 0 -11.5 -4.5t-4.5 -11.5t4.5 -11.5t11.5 -4.5t11.5 4.5t4.5 11.5t-4.5 11.5t-11.5 4.5zM320 176q-36 0 -62 -26t-26 -62t26 -62t62 -26t62 26t26 62t-26 62t-62 26zM60 364l-18 -27q-7 -9 -4.5 -23t14.5 -22q11 -6 29 -16q24 20 51.5 7.5t27.5 -43.5
q86 -32 160 -32q60 0 129 22q-5 25 11 42.5t39.5 16t37.5 -23.5q28 13 51 27q13 8 15 22t-5 23l-18 27q-7 11 -20 13.5t-23 -3.5q-50 -30 -105 -49v91h-224v-91q-56 19 -105 49q-10 6 -23 3.5t-20 -13.5zM368 344q-10 0 -17 7t-7 17t7 17t17 7t17 -7t7 -17t-7 -17t-17 -7z
M272 248q-10 0 -17 7t-7 17t7 17t17 7t17 -7t7 -17t-7 -17t-17 -7zM112 256q-7 0 -11.5 -4.5t-4.5 -11.5t4.5 -11.5t11.5 -4.5t11.5 4.5t4.5 11.5t-4.5 11.5t-11.5 4.5zM624 448q7 0 11.5 4.5t4.5 11.5v32q0 7 -4.5 11.5t-11.5 4.5h-608q-7 0 -11.5 -4.5t-4.5 -11.5v-32
q0 -7 4.5 -11.5t11.5 -4.5h608z" />
</svg>
