<?xml version="1.0" standalone="no"?>
<!DOCTYPE svg PUBLIC "-//W3C//DTD SVG 1.1//EN" "http://www.w3.org/Graphics/SVG/1.1/DTD/svg11.dtd" >
<svg xmlns="http://www.w3.org/2000/svg" xmlns:xlink="http://www.w3.org/1999/xlink" version="1.1" viewBox="-10 0 500 512">
   <path fill="currentColor"
d="M107 215l108 190l-208 -22q-4 0 -6 -4t0 -8zM7 315q-1 3 -4 2t-3 -4v-162q0 -3 2 -4t4 0l77 46zM18 424q-3 -2 -2 -5t4 -3l204 22v66q0 4 -3.5 6.5t-7.5 0.5zM99 166l-81 -49q-2 -1 -2 -3t2 -4l151 -98q5 -3 9.5 1.5t0.5 9.5zM240 176h-109l95 -168q5 -8 14 -8t14 8
l95 168h-109zM474 147q2 -1 4 0t2 4v162q0 3 -3 4t-4 -2l-76 -122zM381 166l-80 -143q-2 -4 -1 -7.5t4.5 -4.5t6.5 1l151 98q2 2 2 4t-2 3zM460 416q3 0 4 3t-2 5l-195 87q-2 1 -4 1t-3.5 -1t-2.5 -3t-1 -4v-66zM373 215l106 156q2 4 0 8t-6 4l-208 22zM240 208h100
l-100 176l-100 -176h100z" />
</svg>
