<?xml version="1.0" standalone="no"?>
<!DOCTYPE svg PUBLIC "-//W3C//DTD SVG 1.1//EN" "http://www.w3.org/Graphics/SVG/1.1/DTD/svg11.dtd" >
<svg xmlns="http://www.w3.org/2000/svg" xmlns:xlink="http://www.w3.org/1999/xlink" version="1.1" viewBox="-11 0 534 512">
   <path fill="currentColor"
d="M226 3q3 -4 8.5 -2t5.5 7v325l-235 -85q-4 -2 -5 -6.5t2 -7.5zM510 234q3 3 2 7.5t-5 6.5l-235 85v-325q0 -5 5.5 -7t8.5 2zM34 310q-5 -4 -1.5 -10t9.5 -3l198 71v136q0 5 -5.5 7t-8.5 -2zM470 297q6 -3 9.5 3t-1.5 10l-192 199q-3 4 -8.5 2t-5.5 -7v-136z" />
</svg>
