<?xml version="1.0" standalone="no"?>
<!DOCTYPE svg PUBLIC "-//W3C//DTD SVG 1.1//EN" "http://www.w3.org/Graphics/SVG/1.1/DTD/svg11.dtd" >
<svg xmlns="http://www.w3.org/2000/svg" xmlns:xlink="http://www.w3.org/1999/xlink" version="1.1" viewBox="-10 0 660 512">
   <path fill="currentColor"
d="M608 96q13 0 22.5 9.5t9.5 22.5v256q0 13 -9.5 22.5t-22.5 9.5h-576q-13 0 -22.5 -9.5t-9.5 -22.5v-256q0 -13 9.5 -22.5t22.5 -9.5h576zM304 352v-8q0 -8 -8 -8h-224q-8 0 -8 8v8q0 8 8 8h224q8 0 8 -8zM72 288q0 8 8 8h16q8 0 8 -8v-16q0 -8 -8 -8h-16q-8 0 -8 8v16z
M136 288q0 8 8 8h16q8 0 8 -8v-16q0 -8 -8 -8h-16q-8 0 -8 8v16zM200 288q0 8 8 8h16q8 0 8 -8v-16q0 -8 -8 -8h-16q-8 0 -8 8v16zM264 288q0 8 8 8h16q8 0 8 -8v-16q0 -8 -8 -8h-16q-8 0 -8 8v16zM304 224v-48q0 -7 -4.5 -11.5t-11.5 -4.5h-208q-7 0 -11.5 4.5t-4.5 11.5
v48q0 7 4.5 11.5t11.5 4.5h208q7 0 11.5 -4.5t4.5 -11.5zM576 352v-8q0 -8 -8 -8h-224q-8 0 -8 8v8q0 8 8 8h224q8 0 8 -8z" />
</svg>
