<?xml version="1.0" standalone="no"?>
<!DOCTYPE svg PUBLIC "-//W3C//DTD SVG 1.1//EN" "http://www.w3.org/Graphics/SVG/1.1/DTD/svg11.dtd" >
<svg xmlns="http://www.w3.org/2000/svg" xmlns:xlink="http://www.w3.org/1999/xlink" version="1.1" viewBox="-10 0 516 512">
   <path fill="currentColor"
d="M248 8q103 0 175.5 72.5t72.5 175.5t-72.5 175.5t-175.5 72.5t-175.5 -72.5t-72.5 -175.5t72.5 -175.5t175.5 -72.5zM152 215l29 28q7 7 15.5 4t11 -10.5t-4.5 -15.5l-28 -29l28 -29q5 -4 5.5 -9t-2.5 -9t-7 -7t-9 -2.5t-9 5.5l-29 28l-29 -28q-7 -7 -15.5 -4t-11 10.5
t4.5 15.5l28 29l-28 29q-7 7 -4.5 15.5t10.5 10.5t16 -4zM248 416q26 0 45 -19t19 -45t-19 -45t-45 -19t-45 19t-19 45t19 45t45 19zM395 221l-28 -29l28 -29q7 -7 4 -15.5t-10.5 -11t-15.5 4.5l-29 28l-29 -28q-7 -7 -15.5 -4t-11 10.5t4.5 15.5l28 29l-28 29
q-7 7 -4.5 15.5t10.5 10.5t16 -4l29 -28l29 28q7 7 15.5 4t11 -10.5t-4.5 -15.5z" />
</svg>
