<?xml version="1.0" standalone="no"?>
<!DOCTYPE svg PUBLIC "-//W3C//DTD SVG 1.1//EN" "http://www.w3.org/Graphics/SVG/1.1/DTD/svg11.dtd" >
<svg xmlns="http://www.w3.org/2000/svg" xmlns:xlink="http://www.w3.org/1999/xlink" version="1.1" viewBox="-10 0 532 512">
   <path fill="currentColor"
d="M496 96q7 0 11.5 4.5t4.5 11.5v32q0 27 -18.5 45.5t-45.5 18.5h-32v36l-128 -46v-150q0 -11 10 -15t17 4l28 27h53q8 0 16.5 5t12.5 13l7 14h64zM384 144q7 0 11.5 -4.5t4.5 -11.5t-4.5 -11.5t-11.5 -4.5t-11.5 4.5t-4.5 11.5t4.5 11.5t11.5 4.5zM96 224h170l150 54v218
q0 7 -4.5 11.5t-11.5 4.5h-64q-7 0 -11.5 -4.5t-4.5 -11.5v-112h-160v112q0 7 -4.5 11.5t-11.5 4.5h-64q-7 0 -11.5 -4.5t-4.5 -11.5v-214q-28 -10 -46 -34.5t-18 -55.5q0 -13 9.5 -22.5t22.5 -9.5t22.5 9.5t9.5 22.5t9.5 22.5t22.5 9.5z" />
</svg>
