<?xml version="1.0" standalone="no"?>
<!DOCTYPE svg PUBLIC "-//W3C//DTD SVG 1.1//EN" "http://www.w3.org/Graphics/SVG/1.1/DTD/svg11.dtd" >
<svg xmlns="http://www.w3.org/2000/svg" xmlns:xlink="http://www.w3.org/1999/xlink" version="1.1" viewBox="-10 0 596 512">
   <path fill="currentColor"
d="M575 326q2 7 -1 12.5t-9 8.5l-213 71q-1 44 -35 72t-79 20q-29 -5 -50.5 -27t-26.5 -52q-8 -55 36 -90l-92 -277h-89q-7 0 -11.5 -4.5t-4.5 -11.5v-32q0 -7 4.5 -11.5t11.5 -4.5h112q23 0 30 22l100 298q45 1 73 37l214 -71q6 -2 12 1t8 9zM256 464q20 0 34 -14t14 -34
t-14 -34t-34 -14t-34 14t-14 34t14 34t34 14z" />
</svg>
