<?xml version="1.0" standalone="no"?>
<!DOCTYPE svg PUBLIC "-//W3C//DTD SVG 1.1//EN" "http://www.w3.org/Graphics/SVG/1.1/DTD/svg11.dtd" >
<svg xmlns="http://www.w3.org/2000/svg" xmlns:xlink="http://www.w3.org/1999/xlink" version="1.1" viewBox="-10 0 532 512">
   <path fill="currentColor"
d="M256 416q-86 0 -147 -61t-61 -147t61 -147t147 -61t147 61t61 147t-61 147t-147 61zM234 97q-25 1 -42 19t-17 44q0 21 12 37.5t31 22.5l63 19q12 3 12 17q0 8 -5 13t-12 5h-38q-10 0 -18 -5t-14 1l-16 16q-4 4 -4 9t5 8q19 14 43 15v17q0 7 4.5 12t11.5 5h11q7 0 12 -5
t5 -12v-16q25 -1 42 -19t17 -44q0 -21 -12 -37.5t-32 -22.5l-62 -19q-12 -3 -12 -17q0 -8 5 -13t11 -5h39q10 0 18 5t14 -1l16 -16q4 -4 3.5 -9t-4.5 -8q-19 -14 -43 -15v-17q0 -7 -5 -12t-11 -5h-12q-4 0 -8 2t-6 6t-2 9v16zM480 352q13 0 22.5 9.5t9.5 22.5v96
q0 13 -9.5 22.5t-22.5 9.5h-448q-13 0 -22.5 -9.5t-9.5 -22.5v-96q0 -13 9.5 -22.5t22.5 -9.5h32q30 39 73 64h-63q-10 0 -10 8v16q0 8 10 8h364q10 0 10 -8v-16q0 -8 -10 -8h-64q44 -25 74 -64h32z" />
</svg>
