<?xml version="1.0" standalone="no"?>
<!DOCTYPE svg PUBLIC "-//W3C//DTD SVG 1.1//EN" "http://www.w3.org/Graphics/SVG/1.1/DTD/svg11.dtd" >
<svg xmlns="http://www.w3.org/2000/svg" xmlns:xlink="http://www.w3.org/1999/xlink" version="1.1" viewBox="-10 0 532 512">
   <path fill="currentColor"
d="M216 0h80q10 0 17 7t7 17v168h88q13 0 18 12.5t-4 21.5l-152 152q-6 6 -14 6t-14 -6l-152 -152q-9 -9 -4 -21.5t18 -12.5h88v-168q0 -10 7 -17t17 -7zM512 376v112q0 10 -7 17t-17 7h-464q-10 0 -17 -7t-7 -17v-112q0 -10 7 -17t17 -7h147l49 49q15 15 36 15t36 -15
l49 -49h147q10 0 17 7t7 17zM388 464q0 -8 -6 -14t-14 -6t-14 6t-6 14t6 14t14 6t14 -6t6 -14zM452 464q0 -8 -6 -14t-14 -6t-14 6t-6 14t6 14t14 6t14 -6t6 -14z" />
</svg>
