<?xml version="1.0" standalone="no"?>
<!DOCTYPE svg PUBLIC "-//W3C//DTD SVG 1.1//EN" "http://www.w3.org/Graphics/SVG/1.1/DTD/svg11.dtd" >
<svg xmlns="http://www.w3.org/2000/svg" xmlns:xlink="http://www.w3.org/1999/xlink" version="1.1" viewBox="-10 0 468 512">
   <path fill="currentColor"
d="M416 361q32 18 32 55q0 27 -18.5 45.5t-45.5 18.5q-37 0 -55 -32h-210q-18 32 -55 32q-27 0 -45.5 -18.5t-18.5 -45.5q0 -37 32 -55v-210q-32 -18 -32 -55q0 -27 18.5 -45.5t45.5 -18.5q37 0 55 32h210q18 -32 55 -32q27 0 45.5 18.5t18.5 45.5q0 36 -32 55v210zM96 361
q15 8 23 23h210q8 -15 23 -23v-210q-15 -8 -23 -23h-210q-8 15 -23 23v210zM400 96q0 -7 -4.5 -11.5t-11.5 -4.5t-11.5 4.5t-4.5 11.5t4.5 11.5t11.5 4.5t11.5 -4.5t4.5 -11.5zM64 80q-7 0 -11.5 4.5t-4.5 11.5t4.5 11.5t11.5 4.5t11.5 -4.5t4.5 -11.5t-4.5 -11.5
t-11.5 -4.5zM48 416q0 7 4.5 11.5t11.5 4.5t11.5 -4.5t4.5 -11.5t-4.5 -11.5t-11.5 -4.5t-11.5 4.5t-4.5 11.5zM384 432q7 0 11.5 -4.5t4.5 -11.5t-4.5 -11.5t-11.5 -4.5t-11.5 4.5t-4.5 11.5t4.5 11.5t11.5 4.5z" />
</svg>
