<?xml version="1.0" standalone="no"?>
<!DOCTYPE svg PUBLIC "-//W3C//DTD SVG 1.1//EN" "http://www.w3.org/Graphics/SVG/1.1/DTD/svg11.dtd" >
<svg xmlns="http://www.w3.org/2000/svg" xmlns:xlink="http://www.w3.org/1999/xlink" version="1.1" viewBox="-10 0 532 512">
   <path fill="currentColor"
d="M512 256q0 20 -11 36t-29 23q-16 57 -58 99t-99 58q-7 18 -23 29t-36 11t-36 -11t-23 -29q-38 -11 -70 -33t-54 -54t-33 -70q-18 -7 -29 -23t-11 -36t11 -36t29 -23q16 -57 58 -99t99 -58q7 -18 23 -29t36 -11t36 11t23 29q57 16 99 58t58 99q18 7 29 23t11 36zM448 240
q-7 0 -11.5 4.5t-4.5 11.5t4.5 11.5t11.5 4.5t11.5 -4.5t4.5 -11.5t-4.5 -11.5t-11.5 -4.5zM272 64q0 -7 -4.5 -11.5t-11.5 -4.5t-11.5 4.5t-4.5 11.5t4.5 11.5t11.5 4.5t11.5 -4.5t4.5 -11.5zM64 272q7 0 11.5 -4.5t4.5 -11.5t-4.5 -11.5t-11.5 -4.5t-11.5 4.5t-4.5 11.5
t4.5 11.5t11.5 4.5zM240 448q0 7 4.5 11.5t11.5 4.5t11.5 -4.5t4.5 -11.5t-4.5 -11.5t-11.5 -4.5t-11.5 4.5t-4.5 11.5zM305 407q32 -10 62 -40t40 -62q-23 -19 -23 -49t23 -49q-10 -32 -40 -62t-62 -40q-19 23 -49 23t-49 -23q-32 10 -62 40t-40 62q23 19 23 49t-23 49
q10 32 40 62t62 40q19 -23 49 -23t49 23z" />
</svg>
