<?xml version="1.0" standalone="no"?>
<!DOCTYPE svg PUBLIC "-//W3C//DTD SVG 1.1//EN" "http://www.w3.org/Graphics/SVG/1.1/DTD/svg11.dtd" >
<svg xmlns="http://www.w3.org/2000/svg" xmlns:xlink="http://www.w3.org/1999/xlink" version="1.1" viewBox="-10 0 660 512">
   <path fill="currentColor"
d="M288 136q0 10 -7 17t-17 7h-240q-10 0 -17 -7t-7 -17t7 -17t17 -7h98q2 -7 8.5 -11.5t13.5 -4.5t13.5 4.5t8.5 11.5h98q10 0 17 7t7 17zM616 112q10 0 17 7t7 16.5t-7 16.5t-16 7l-241 1q-10 0 -16.5 -7t-6.5 -16.5t6.5 -16.5t16.5 -7h98q2 -7 8.5 -12t13.5 -5q5 0 9.5 2
t8 6t5.5 8h97zM472 238v-46h48v64q0 13 -9.5 22.5t-22.5 9.5h-45q19 19 34.5 51t18.5 59v2q0 7 -4.5 11.5t-11.5 4.5h-16q-14 0 -16 -15q-3 -24 -18.5 -50.5t-35.5 -40.5l-33 33q-9 9 -22 9h-38q-13 0 -22 -9l-33 -33q-20 14 -35.5 40.5t-18.5 50.5q-2 15 -16 15h-16
q-7 0 -11.5 -4.5t-4.5 -11.5v-2q3 -27 18.5 -59t34.5 -51h-45q-13 0 -22.5 -9.5t-9.5 -22.5v-64h48v46l97 -29q27 -9 55 -9t55 9z" />
</svg>
