<?xml version="1.0" standalone="no"?>
<!DOCTYPE svg PUBLIC "-//W3C//DTD SVG 1.1//EN" "http://www.w3.org/Graphics/SVG/1.1/DTD/svg11.dtd" >
<svg xmlns="http://www.w3.org/2000/svg" xmlns:xlink="http://www.w3.org/1999/xlink" version="1.1" viewBox="-10 0 532 512">
   <path fill="currentColor"
d="M112 224q-46 0 -79 -33t-33 -79t33 -79t79 -33t79 33t33 79q0 8 -2 16l-49 -36q-4 -12 -13.5 -22t-22.5 -16t-25 -6q-27 0 -45.5 18.5t-18.5 45.5q0 12 6 25t16 22.5t22 13.5l36 49q-8 2 -16 2zM339 92l-49 36q-2 -8 -2 -16q0 -46 33 -79t79 -33t79 33t33 79t-33 79
t-79 33q-8 0 -16 -2l36 -49q18 -6 31 -24t13 -37q0 -27 -18.5 -45.5t-45.5 -18.5q-19 0 -37 13t-24 31zM173 420l49 -36q2 8 2 16q0 46 -33 79t-79 33t-79 -33t-33 -79t33 -79t79 -33q8 0 16 2l-36 49q-18 6 -31 24t-13 37q0 27 18.5 45.5t45.5 18.5q19 0 37 -13t24 -31z
M400 288q46 0 79 33t33 79t-33 79t-79 33t-79 -33t-33 -79q0 -8 2 -16l49 36q6 18 24 31t37 13q27 0 45.5 -18.5t18.5 -45.5q0 -9 -3.5 -19t-9.5 -18t-14 -14.5t-17 -9.5l-36 -49q8 -2 16 -2zM401 144l-49 68v88l49 68q13 1 22 10t9 22t-9.5 22.5t-22.5 9.5q-6 0 -12 -2.5
t-10 -6.5t-7 -10t-3 -12l-68 -49h-88l-68 49q0 8 -4.5 15.5t-12 11.5t-15.5 4q-13 0 -22.5 -9.5t-9.5 -22.5t9 -22t22 -10l49 -68v-88l-49 -68q-6 0 -12 -3t-10 -7t-6.5 -10t-2.5 -12q0 -13 9.5 -22.5t22.5 -9.5t22 9t10 22l68 49h88l68 -49q0 -8 4.5 -15.5t12 -11.5
t15.5 -4q13 0 22.5 9.5t9.5 22.5q0 8 -4 15.5t-11.5 12t-15.5 4.5z" />
</svg>
