<?xml version="1.0" standalone="no"?>
<!DOCTYPE svg PUBLIC "-//W3C//DTD SVG 1.1//EN" "http://www.w3.org/Graphics/SVG/1.1/DTD/svg11.dtd" >
<svg xmlns="http://www.w3.org/2000/svg" xmlns:xlink="http://www.w3.org/1999/xlink" version="1.1" viewBox="-10 0 532 512">
   <path fill="currentColor"
d="M431 122q81 29 81 86v160q0 46 -72 78v-102q0 -10 -7 -17t-17 -7t-17 7t-7 17v119q-52 15 -112 17v-104q0 -10 -7 -17t-17 -7t-17 7t-7 17v104q-60 -2 -112 -17v-119q0 -10 -7 -17t-17 -7t-17 7t-7 17v102q-72 -32 -72 -78v-160q0 -30 24 -52.5t55 -33.5t72 -17.5
t63.5 -7.5t41.5 -1q57 0 112 10l110 -71q4 -3 9 -3q9 0 13 7l9 13q3 4 3 9q0 9 -7 14zM256 272q86 0 147 -18.5t61 -45.5q0 -10 -10.5 -20t-30 -18t-45.5 -14l-118 77q-5 3 -9 3q-9 0 -14 -8l-9 -13q-2 -4 -2 -9q0 -8 7 -13l73 -47q-26 -2 -50 -2q-86 0 -147 19t-61 45
q0 18 28 32.5t75.5 23t104.5 8.5z" />
</svg>
