<?xml version="1.0" standalone="no"?>
<!DOCTYPE svg PUBLIC "-//W3C//DTD SVG 1.1//EN" "http://www.w3.org/Graphics/SVG/1.1/DTD/svg11.dtd" >
<svg xmlns="http://www.w3.org/2000/svg" xmlns:xlink="http://www.w3.org/1999/xlink" version="1.1" viewBox="-10 0 533 512">
   <path fill="currentColor"
d="M463 50q51 51 49 124q-31 -17 -67 -12.5t-62 29.5q-30 30 -30.5 74t29.5 77q-29 10 -60 10h-2h-86l-40 41q-15 14 -6 36q4 11 4 23q0 25 -17.5 42.5t-42.5 17.5t-43 -18q-23 -22 -15 -56q-34 8 -56 -15q-18 -18 -18 -43q0 -16 8 -30t22 -22t30 -8q12 0 23 4q22 9 37 -6
l40 -40v-86q0 -79 63 -142q14 -14 34.5 -25.5t43.5 -18t42 -6.5q29 0 64 14.5t56 35.5z" />
</svg>
