<?xml version="1.0" standalone="no"?>
<!DOCTYPE svg PUBLIC "-//W3C//DTD SVG 1.1//EN" "http://www.w3.org/Graphics/SVG/1.1/DTD/svg11.dtd" >
<svg xmlns="http://www.w3.org/2000/svg" xmlns:xlink="http://www.w3.org/1999/xlink" version="1.1" viewBox="-10 0 468 512">
   <path fill="currentColor"
d="M384 0q26 0 45 19t19 45v416q0 13 -9.5 22.5t-22.5 9.5h-384q-13 0 -22.5 -9.5t-9.5 -22.5v-416q0 -26 19 -45t45 -19h320zM184 64q-10 0 -17 7t-7 17t7 17t17 7t17 -7t7 -17t-7 -17t-17 -7zM64 88q0 10 7 17t17 7t17 -7t7 -17t-7 -17t-17 -7t-17 7t-7 17zM224 448
q60 0 102 -42t42 -102t-42 -102t-102 -42t-102 42t-42 102t42 102t102 42zM216 272q0 23 -21 43q-11 12 -11 21t11 21q18 17 20 33v2q0 8 -8 8h-16q-6 0 -8 -6q-1 -6 -10 -15q-21 -20 -21 -42.5t21 -43.5q11 -12 11 -21t-11 -21q-18 -17 -20 -33v-2q0 -8 8 -8h16q6 0 8 6
q1 6 10 15q21 20 21 43zM296 272q0 23 -21 43q-11 12 -11 21t11 21q17 17 20 33v2q0 8 -8 8h-16q-6 0 -8 -6q-1 -6 -10 -15q-21 -20 -21 -42.5t21 -43.5q11 -12 11 -21t-11 -21q-18 -17 -20 -33v-2q0 -8 8 -8h16q6 0 8 6q1 6 10 15q21 20 21 43z" />
</svg>
