<?xml version="1.0" standalone="no"?>
<!DOCTYPE svg PUBLIC "-//W3C//DTD SVG 1.1//EN" "http://www.w3.org/Graphics/SVG/1.1/DTD/svg11.dtd" >
<svg xmlns="http://www.w3.org/2000/svg" xmlns:xlink="http://www.w3.org/1999/xlink" version="1.1" viewBox="-10 0 660 512">
   <path fill="currentColor"
d="M104 96q10 0 17 7t7 17v272q0 10 -7 17t-17 7h-48q-10 0 -17 -7t-7 -17v-104h-24q-8 0 -8 -8v-48q0 -8 8 -8h24v-104q0 -10 7 -17t17 -7h48zM632 224q8 0 8 8v48q0 8 -8 8h-24v104q0 10 -7 17t-17 7h-48q-10 0 -17 -7t-7 -17v-272q0 -10 7 -17t17 -7h48q10 0 17 7t7 17
v104h24zM456 32q10 0 17 7t7 17v400q0 10 -7 17t-17 7h-48q-10 0 -17 -7t-7 -17v-168h-128v168q0 10 -7 17t-17 7h-48q-10 0 -17 -7t-7 -17v-400q0 -10 7 -17t17 -7h48q10 0 17 7t7 17v168h128v-168q0 -10 7 -17t17 -7h48z" />
</svg>
