<?xml version="1.0" standalone="no"?>
<!DOCTYPE svg PUBLIC "-//W3C//DTD SVG 1.1//EN" "http://www.w3.org/Graphics/SVG/1.1/DTD/svg11.dtd" >
<svg xmlns="http://www.w3.org/2000/svg" xmlns:xlink="http://www.w3.org/1999/xlink" version="1.1" viewBox="-11 0 661 512">
   <path fill="currentColor"
d="M419 104q-29 25 -54 56h-61v-128h100zM272 32v128h-126l26 -128h100zM461 104l-12 -10l-12 -62h99q13 0 15 12l24 96q1 0 0.5 1l-0.5 1l-1 -1l-2 -2l-21 -19l-21 19q-7 6 -18 17q-23 -27 -51 -52zM16 160q-8 0 -12.5 -6t-3.5 -14l24 -96q4 -12 16 -12h99l-26 128h-97z
M341 192q-53 75 -53 130q0 72 49 126h-209v16q0 7 -4.5 11.5t-11.5 4.5h-32q-7 0 -11.5 -4.5t-4.5 -11.5v-16l-20 -160h-28q-7 0 -11.5 -4.5t-4.5 -11.5v-32q0 -7 4.5 -11.5t11.5 -4.5h20l-4 -32h309zM551 163q37 33 63 81t26 78q0 65 -47 111.5t-113 46.5t-113 -46.5
t-47 -111.5q0 -38 34 -92.5t86 -101.5q40 36 71 76q19 -22 40 -41zM532 393q25 -18 31 -49.5t-8 -58.5q-3 -7 -8 -14l-39 47q-63 -83 -68 -88q-27 33 -38 53t-11 39q0 39 25.5 63.5t63.5 24.5q29 0 52 -17z" />
</svg>
