<?xml version="1.0" standalone="no"?>
<!DOCTYPE svg PUBLIC "-//W3C//DTD SVG 1.1//EN" "http://www.w3.org/Graphics/SVG/1.1/DTD/svg11.dtd" >
<svg xmlns="http://www.w3.org/2000/svg" xmlns:xlink="http://www.w3.org/1999/xlink" version="1.1" viewBox="-10 0 532 512">
   <path fill="currentColor"
d="M129 195q11 7 6 20t-6 27q-2 14 -15 14h-97q-5 0 -8.5 -2.5t-6 -6t-1.5 -8.5q3 -46 22 -89q3 -6 10 -8t13 2zM319 8q7 2 10 8.5t0 12.5l-37 104q-4 11 -15 11h-42q-11 0 -15 -11l-37 -104q-3 -6 0 -12.5t10 -8.5q31 -8 63 -8t63 8zM112 288q7 0 11.5 4.5t4.5 11.5v64
q0 7 -4.5 11.5t-11.5 4.5h-96q-7 0 -11.5 -4.5t-4.5 -11.5v-64q0 -7 4.5 -11.5t11.5 -4.5h96zM112 416q7 0 11.5 4.5t4.5 11.5v64q0 7 -4.5 11.5t-11.5 4.5h-96q-7 0 -11.5 -4.5t-4.5 -11.5v-64q0 -7 4.5 -11.5t11.5 -4.5h96zM189 132q5 12 -6 20q-9 6 -17 14q-9 9 -20 2
l-83 -51q-6 -4 -7.5 -11t3.5 -13q30 -36 72 -60q6 -3 12.5 -0.5t9.5 9.5zM398 256q-13 0 -15 -14q-1 -14 -6 -27t6 -20l83 -51q6 -4 13 -2t10 8q19 43 22 89q1 7 -4 12t-12 5h-97zM453 93q5 6 3.5 13t-7.5 11l-83 51q-11 7 -20 -2q-8 -8 -17 -14q-11 -8 -6 -20l36 -90
q3 -7 9.5 -9.5t12.5 0.5q42 24 72 60zM496 288q7 0 11.5 4.5t4.5 11.5v64q0 7 -4.5 11.5t-11.5 4.5h-96q-7 0 -11.5 -4.5t-4.5 -11.5v-64q0 -7 4.5 -11.5t11.5 -4.5h96zM496 416q7 0 11.5 4.5t4.5 11.5v64q0 7 -4.5 11.5t-11.5 4.5h-96q-7 0 -11.5 -4.5t-4.5 -11.5v-64
q0 -7 4.5 -11.5t11.5 -4.5h96zM240 178q10 -2 16 -2t16 2v294q0 8 -8 8h-16q-8 0 -8 -8v-294zM176 219q12 -18 32 -30v283q0 8 -8 8h-16q-8 0 -8 -8v-253zM304 189q20 12 32 30v253q0 8 -8 8h-16q-8 0 -8 -8v-283z" />
</svg>
