<?xml version="1.0" standalone="no"?>
<!DOCTYPE svg PUBLIC "-//W3C//DTD SVG 1.1//EN" "http://www.w3.org/Graphics/SVG/1.1/DTD/svg11.dtd" >
<svg xmlns="http://www.w3.org/2000/svg" xmlns:xlink="http://www.w3.org/1999/xlink" version="1.1" viewBox="-10 0 660 512">
   <path fill="currentColor"
d="M152 224q17 0 28.5 11.5t11.5 28.5q0 14 -10 26q10 12 10 26q0 15 -10 26q10 11 10 26t-10 26q10 11 10 26t-10 26q10 12 10 26q0 17 -11.5 28.5t-28.5 11.5t-30 -14q-10 7 -22 7q-7 0 -15 -3q-18 -7 -23 -26q-20 0 -32 -14q-12 -15 -8 -34q-17 -9 -21 -27q-4 -19 8 -33
q-12 -16 -8 -34t21 -26q-3 -19 9 -34t31 -14q6 -19 24 -27q19 -7 36 5q12 -14 30 -14zM639 335q4 19 -8 33q12 15 7.5 33.5t-20.5 26.5q3 19 -9 34q-13 15 -32 14q-5 19 -23 26q-6 3 -15 3q-12 0 -22 -6q-12 13 -29 13t-28.5 -12t-11.5 -28q0 -14 10 -26q-10 -12 -10 -26
q0 -15 10 -26q-10 -11 -10 -26t10 -26q-10 -11 -10 -26q0 -14 10 -26q-10 -12 -10 -26q0 -8 3 -15.5t8.5 -13t13 -8.5t15.5 -3q18 0 30 14q18 -12 37 -4q18 7 23 26q20 0 32 14q12 15 8 34q17 8 21 27zM506 194q-15 -63 -67 -104.5t-119 -41.5t-119 41.5t-67 105.5
q-9 2 -16 6q-9 -2 -18 -2q-8 0 -16 2q14 -86 80.5 -143.5t155.5 -57.5q44 0 84.5 15.5t71.5 42.5t52.5 64t27.5 79q-8 -2 -15 -2q-9 0 -18 2q-8 -4 -17 -7z" />
</svg>
