<?xml version="1.0" standalone="no"?>
<!DOCTYPE svg PUBLIC "-//W3C//DTD SVG 1.1//EN" "http://www.w3.org/Graphics/SVG/1.1/DTD/svg11.dtd" >
<svg xmlns="http://www.w3.org/2000/svg" xmlns:xlink="http://www.w3.org/1999/xlink" version="1.1" viewBox="-10 0 596 512">
   <path fill="currentColor"
d="M403 83l90 90q7 7 0 14l-219 219l-92 10q-6 1 -11.5 -2t-8.5 -8.5t-2 -11.5l10 -92l219 -219q7 -7 14 0zM565 60q11 12 11 28t-11 28l-36 35q-7 7 -14 0l-90 -90q-7 -7 0 -14l36 -35q11 -12 27 -12t28 12zM384 346q0 -5 4 -8l40 -40q5 -6 12.5 -3t7.5 11v158q0 20 -14 34
t-34 14h-352q-20 0 -34 -14t-14 -34v-352q0 -20 14 -34t34 -14h286q8 0 11 7.5t-3 12.5l-40 40q-3 4 -8 4h-230v320h320v-102z" />
</svg>
