<?xml version="1.0" standalone="no"?>
<!DOCTYPE svg PUBLIC "-//W3C//DTD SVG 1.1//EN" "http://www.w3.org/Graphics/SVG/1.1/DTD/svg11.dtd" >
<svg xmlns="http://www.w3.org/2000/svg" xmlns:xlink="http://www.w3.org/1999/xlink" version="1.1" viewBox="-11 0 534 512">
   <path fill="currentColor"
d="M478 150q40 40 33 100t-50 93q-19 14 -46 24t-51.5 21t-43.5 28q-3 4 -21 21t-23 21.5t-21 18t-24.5 17t-24.5 10.5t-28 7.5t-29 -1t-34 -7.5q-30 -11 -55.5 -34t-41 -53.5t-18.5 -63.5q-2 -37 22.5 -104t27.5 -89q12 -67 39 -107t86 -50q31 -5 59.5 3.5t44.5 19.5t46 36
q1 1 2 1.5t2.5 1.5t2.5 2l2 2q20 16 71.5 38.5t72.5 43.5zM224 352q46 0 79 -32.5t33 -79t-33 -79.5t-79 -33t-79 33t-33 79.5t33 79t79 32.5zM216 160q7 0 11.5 4.5t4.5 11.5t-4.5 11.5t-11.5 4.5q-17 0 -28.5 11.5t-11.5 28.5q0 7 -4.5 11.5t-11.5 4.5t-11.5 -4.5
t-4.5 -11.5q0 -30 21 -51t51 -21z" />
</svg>
