<?xml version="1.0" standalone="no"?>
<!DOCTYPE svg PUBLIC "-//W3C//DTD SVG 1.1//EN" "http://www.w3.org/Graphics/SVG/1.1/DTD/svg11.dtd" >
<svg xmlns="http://www.w3.org/2000/svg" xmlns:xlink="http://www.w3.org/1999/xlink" version="1.1" viewBox="-10 0 660 512">
   <path fill="currentColor"
d="M512 32q53 0 90.5 37.5t37.5 90.5v203q0 32 -20.5 56.5t-51.5 28.5q-23 2 -43.5 -8t-32.5 -29.5t-12 -42.5q0 -7 4.5 -11.5t11.5 -4.5h32q7 0 11.5 4.5t4.5 11.5t4.5 11.5t11.5 4.5t11.5 -4.5t4.5 -11.5v-98q-31 18 -64 18h-64v208q0 7 -4.5 11.5t-11.5 4.5h-64
q-7 0 -11.5 -4.5t-4.5 -11.5v-108q-51 28 -112 28t-112 -28v108q0 7 -4.5 11.5t-11.5 4.5h-64q-7 0 -11.5 -4.5t-4.5 -11.5v-144h-16q-7 0 -11.5 -4.5t-4.5 -11.5v-112q0 -80 56 -136t136 -56h134q-6 17 -6 32q0 42 32 71v25q0 26 19 45t45 19h8q8 0 8 -8v-16q0 -8 -8 -8h-8
q-13 0 -22.5 -9.5t-9.5 -22.5v-41q-32 -18 -32 -55q0 -27 18.5 -45.5t45.5 -18.5q10 0 19 3t16.5 8t13.5 12t10 15q20 -6 37 -6zM528 160q7 0 11.5 -4.5t4.5 -11.5t-4.5 -11.5t-11.5 -4.5t-11.5 4.5t-4.5 11.5t4.5 11.5t11.5 4.5z" />
</svg>
