<?xml version="1.0" standalone="no"?>
<!DOCTYPE svg PUBLIC "-//W3C//DTD SVG 1.1//EN" "http://www.w3.org/Graphics/SVG/1.1/DTD/svg11.dtd" >
<svg xmlns="http://www.w3.org/2000/svg" xmlns:xlink="http://www.w3.org/1999/xlink" version="1.1" viewBox="-10 0 524 512">
   <path fill="currentColor"
d="M256 242q-14 0 -14 14t14 14t14 -14t-14 -14zM256 184q30 0 51 21t21 51t-21 51t-51 21t-51 -21t-21 -51t21 -51t51 -21zM432 242q-14 0 -14 14t14 14t14 -14t-14 -14zM432 184q30 0 51 21t21 51t-21 51t-51 21t-51 -21t-21 -51t21 -51t51 -21zM80 242q-14 0 -14 14
t14 14t14 -14t-14 -14zM80 184q30 0 51 21t21 51t-21 51t-51 21t-51 -21t-21 -51t21 -51t51 -21z" />
</svg>
