<?xml version="1.0" standalone="no"?>
<!DOCTYPE svg PUBLIC "-//W3C//DTD SVG 1.1//EN" "http://www.w3.org/Graphics/SVG/1.1/DTD/svg11.dtd" >
<svg xmlns="http://www.w3.org/2000/svg" xmlns:xlink="http://www.w3.org/1999/xlink" version="1.1" viewBox="-10 0 660 512">
   <path fill="currentColor"
d="M48 256q0 92 55 165q10 12 -2 21l-12 11q-5 4 -12 3.5t-11 -5.5q-66 -86 -66 -195t66 -195q4 -5 11 -5.5t12 3.5l12 11q12 9 2 21q-55 73 -55 165zM320 32q93 0 158.5 65.5t65.5 158.5t-65.5 158.5t-158.5 65.5t-158.5 -65.5t-65.5 -158.5t65.5 -158.5t158.5 -65.5z
M320 384q13 0 22.5 -9.5t9.5 -22.5t-9.5 -22.5t-22.5 -9.5t-22.5 9.5t-9.5 22.5t9.5 22.5t22.5 9.5zM345 274l13 -128q1 -7 -4 -12.5t-12 -5.5h-44q-7 0 -12 5.5t-4 12.5l13 128q0 6 4.5 10t10.5 4h20q6 0 10.5 -4t4.5 -10zM573 60q67 86 67 196t-67 196q-4 6 -11 6.5
t-12 -4.5l-13 -10q-11 -10 -1 -22q56 -73 56 -166t-56 -166q-10 -12 1 -22l13 -10q5 -5 12 -4.5t11 6.5z" />
</svg>
