<?xml version="1.0" standalone="no"?>
<!DOCTYPE svg PUBLIC "-//W3C//DTD SVG 1.1//EN" "http://www.w3.org/Graphics/SVG/1.1/DTD/svg11.dtd" >
<svg xmlns="http://www.w3.org/2000/svg" xmlns:xlink="http://www.w3.org/1999/xlink" version="1.1" viewBox="-10 0 532 512">
   <path fill="currentColor"
d="M256 417q26 0 47 -15l209 -151v213q0 20 -14 34t-34 14h-416q-20 0 -34 -14t-14 -34v-213l209 151q21 15 47 15zM494 163q18 14 18 38v10l-96 70v-185h-320v185l-96 -70v-10q0 -24 18 -38q16 -13 30 -23v-44q0 -20 14 -34t34 -14h78q1 -1 4.5 -3.5t4 -3t14.5 -11t21 -15
t18.5 -10t19.5 -5.5q6 0 12.5 2t13 5.5t14 8.5t12.5 9t12 9t9 7q1 1 4.5 3.5t4.5 3.5h78q20 0 34 14t14 34v44q14 11 30 23zM264 136q8 0 8 8v16q17 1 31 12q8 5 1 12l-12 11q-4 4 -10 1q-6 -4 -13 -4h-28q-5 0 -8.5 4t-3.5 9q0 10 9 13l45 13q14 5 23 17t9 27
q0 18 -12.5 31t-30.5 14v16q0 8 -8 8h-16q-8 0 -8 -8v-16q-17 -1 -31 -12q-8 -5 -1 -12l12 -11q4 -4 10 -1q6 4 13 4h28q5 0 8.5 -4t3.5 -9q0 -10 -9 -13l-45 -13q-14 -5 -23 -17t-9 -27q0 -12 6 -22t15.5 -16.5t21.5 -6.5v-16q0 -8 8 -8h16z" />
</svg>
