<?xml version="1.0" standalone="no"?>
<!DOCTYPE svg PUBLIC "-//W3C//DTD SVG 1.1//EN" "http://www.w3.org/Graphics/SVG/1.1/DTD/svg11.dtd" >
<svg xmlns="http://www.w3.org/2000/svg" xmlns:xlink="http://www.w3.org/1999/xlink" version="1.1" viewBox="-10 0 532 512">
   <path fill="currentColor"
d="M176 216q-7 0 -11.5 -4.5t-4.5 -11.5v-16q0 -7 4.5 -11.5t11.5 -4.5h160q7 0 11.5 4.5t4.5 11.5v16q0 7 -4.5 11.5t-11.5 4.5h-160zM160 296v-16q0 -7 4.5 -11.5t11.5 -4.5h160q7 0 11.5 4.5t4.5 11.5v16q0 7 -4.5 11.5t-11.5 4.5h-160q-7 0 -11.5 -4.5t-4.5 -11.5z
M256 417q26 0 47 -15l209 -151v213q0 20 -14 34t-34 14h-416q-20 0 -34 -14t-14 -34v-213l209 151q21 15 47 15zM494 163q18 14 18 38v10l-96 70v-185h-320v185l-96 -70v-10q0 -24 18 -38q16 -13 30 -23v-44q0 -20 14 -34t34 -14h78q1 -1 4.5 -3.5t4 -3t14.5 -11t21 -15
t18.5 -10t19.5 -5.5t19.5 5.5t18.5 10t21 15t14.5 11t4 3t4.5 3.5h78q20 0 34 14t14 34v44q14 11 30 23z" />
</svg>
