<?xml version="1.0" standalone="no"?>
<!DOCTYPE svg PUBLIC "-//W3C//DTD SVG 1.1//EN" "http://www.w3.org/Graphics/SVG/1.1/DTD/svg11.dtd" >
<svg xmlns="http://www.w3.org/2000/svg" xmlns:xlink="http://www.w3.org/1999/xlink" version="1.1" viewBox="-10 0 468 512">
   <path fill="currentColor"
d="M400 32q20 0 34 14t14 34v352q0 20 -14 34t-34 14h-352q-20 0 -34 -14t-14 -34v-352q0 -20 14 -34t34 -14h352zM192 128q-5 0 -8.5 3.5t-3.5 9.5l8 136q0 11 12 11h48q12 0 12 -11l8 -136q0 -6 -3.5 -9.5t-8.5 -3.5h-64zM224 398q19 0 32.5 -13.5t13.5 -32.5t-13.5 -32.5
t-32.5 -13.5t-32.5 13.5t-13.5 32.5t13.5 32.5t32.5 13.5z" />
</svg>
