<?xml version="1.0" standalone="no"?>
<!DOCTYPE svg PUBLIC "-//W3C//DTD SVG 1.1//EN" "http://www.w3.org/Graphics/SVG/1.1/DTD/svg11.dtd" >
<svg xmlns="http://www.w3.org/2000/svg" xmlns:xlink="http://www.w3.org/1999/xlink" version="1.1" viewBox="-10 0 468 512">
   <path fill="currentColor"
d="M213 315l-93 93l33 31q11 11 5 26t-22 15h-112q-10 0 -17 -7t-7 -17v-112q0 -16 15 -22t26 5l31 33l93 -93q11 -11 22 0l26 26q11 11 0 22zM235 197l93 -93l-33 -31q-11 -11 -5 -26t22 -15h112q7 0 12.5 3t8.5 8.5t3 12.5v112q0 16 -15 22t-26 -5l-31 -33l-93 93
q-11 11 -22 0l-26 -26q-11 -11 0 -22z" />
</svg>
