<?xml version="1.0" standalone="no"?>
<!DOCTYPE svg PUBLIC "-//W3C//DTD SVG 1.1//EN" "http://www.w3.org/Graphics/SVG/1.1/DTD/svg11.dtd" >
<svg xmlns="http://www.w3.org/2000/svg" xmlns:xlink="http://www.w3.org/1999/xlink" version="1.1" viewBox="-10 0 468 512">
   <path fill="currentColor"
d="M448 312v136q0 13 -9.5 22.5t-22.5 9.5h-136q-10 0 -17 -7t-7 -17v-15q0 -10 7.5 -17.5t17.5 -6.5l66 2l-123 -123l-123 123l66 -2q10 -1 17.5 6.5t7.5 17.5v15q0 10 -7 17t-17 7h-136q-13 0 -22.5 -9.5t-9.5 -22.5v-136q0 -10 7 -17t17 -7h15q10 0 17.5 7.5t6.5 17.5
l-2 66l123 -123l-123 -123l2 66q1 10 -6.5 17.5t-17.5 7.5h-15q-10 0 -17 -7t-7 -17v-136q0 -13 9.5 -22.5t22.5 -9.5h136q10 0 17 7t7 17v15q0 10 -7.5 17.5t-17.5 6.5l-66 -2l123 123l123 -123l-66 2q-7 0 -12.5 -3t-9 -8.5t-3.5 -12.5v-15q0 -10 7 -17t17 -7h136
q13 0 22.5 9.5t9.5 22.5v136q0 10 -7 17t-17 7h-15q-10 0 -17.5 -7.5t-6.5 -17.5l2 -66l-123 123l123 123l-2 -66q-1 -10 6.5 -17.5t17.5 -7.5h15q10 0 17 7t7 17z" />
</svg>
