<?xml version="1.0" standalone="no"?>
<!DOCTYPE svg PUBLIC "-//W3C//DTD SVG 1.1//EN" "http://www.w3.org/Graphics/SVG/1.1/DTD/svg11.dtd" >
<svg xmlns="http://www.w3.org/2000/svg" xmlns:xlink="http://www.w3.org/1999/xlink" version="1.1" viewBox="-10 0 660 512">
   <path fill="currentColor"
d="M627 239q13 4 13 17t-13 17l-112 30q-7 11 -16 21l55 88q7 10 -1.5 20t-20.5 5l-120 -43q-15 7 -31 12l-44 95q-5 11 -17 11t-17 -11l-44 -95q-16 -5 -31 -12l-120 43q-12 5 -20.5 -5t-1.5 -20q54 -86 55 -88q-9 -10 -16 -21l-112 -30q-13 -4 -13 -17t13 -17l112 -30
q8 -11 16 -21l-55 -88q-7 -10 1.5 -20t20.5 -5l120 43q15 -7 31 -12l44 -95q5 -11 17 -11t17 11l44 95q17 5 31 12l120 -43q12 -5 20.5 5t1.5 20q-54 86 -55 88q9 10 16 21zM320 352q40 0 68 -28t28 -68q0 -29 -16 -53q-25 15 -56 19q8 16 8 34q0 19 -8 35t-16 23l-8 6
q-32 -21 -32 -64q0 -18 8 -34q-31 -4 -56 -19q-16 24 -16 53q0 40 28 68t68 28z" />
</svg>
