<?xml version="1.0" standalone="no"?>
<!DOCTYPE svg PUBLIC "-//W3C//DTD SVG 1.1//EN" "http://www.w3.org/Graphics/SVG/1.1/DTD/svg11.dtd" >
<svg xmlns="http://www.w3.org/2000/svg" xmlns:xlink="http://www.w3.org/1999/xlink" version="1.1" viewBox="-11 0 534 512">
   <path fill="currentColor"
d="M353 128q61 0 106 40.5t53 100.5q1 8 -4.5 14t-13.5 5l-123 -12q13 35 13 77q0 40 -18.5 74.5t-51 57t-71.5 27.5q-8 1 -14 -4.5t-5 -13.5l12 -123q-35 13 -77 13q-61 0 -106 -40.5t-53 -100.5q-1 -8 4.5 -14t13.5 -5l123 12q-13 -35 -13 -77q0 -61 40.5 -106t100.5 -53
q8 -1 14 4.5t5 13.5l-12 123q35 -13 77 -13zM256 288q13 0 22.5 -9.5t9.5 -22.5t-9.5 -22.5t-22.5 -9.5t-22.5 9.5t-9.5 22.5t9.5 22.5t22.5 9.5z" />
</svg>
