<?xml version="1.0" standalone="no"?>
<!DOCTYPE svg PUBLIC "-//W3C//DTD SVG 1.1//EN" "http://www.w3.org/Graphics/SVG/1.1/DTD/svg11.dtd" >
<svg xmlns="http://www.w3.org/2000/svg" xmlns:xlink="http://www.w3.org/1999/xlink" version="1.1" viewBox="-10 0 532 512">
   <path fill="currentColor"
d="M480 160q13 0 22.5 9.5t9.5 22.5v288q0 13 -9.5 22.5t-22.5 9.5h-320q-13 0 -22.5 -9.5t-9.5 -22.5v-448q0 -13 9.5 -22.5t22.5 -9.5h243q13 0 22 9l46 46q9 9 9 22v83zM288 432v-32q0 -7 -4.5 -11.5t-11.5 -4.5h-32q-7 0 -11.5 4.5t-4.5 11.5v32q0 7 4.5 11.5t11.5 4.5
h32q7 0 11.5 -4.5t4.5 -11.5zM288 304v-32q0 -7 -4.5 -11.5t-11.5 -4.5h-32q-7 0 -11.5 4.5t-4.5 11.5v32q0 7 4.5 11.5t11.5 4.5h32q7 0 11.5 -4.5t4.5 -11.5zM416 432v-32q0 -7 -4.5 -11.5t-11.5 -4.5h-32q-7 0 -11.5 4.5t-4.5 11.5v32q0 7 4.5 11.5t11.5 4.5h32
q7 0 11.5 -4.5t4.5 -11.5zM416 304v-32q0 -7 -4.5 -11.5t-11.5 -4.5h-32q-7 0 -11.5 4.5t-4.5 11.5v32q0 7 4.5 11.5t11.5 4.5h32q7 0 11.5 -4.5t4.5 -11.5zM416 192v-64h-48q-7 0 -11.5 -4.5t-4.5 -11.5v-48h-160v128h224zM64 128q13 0 22.5 9.5t9.5 22.5v320
q0 13 -9.5 22.5t-22.5 9.5h-32q-13 0 -22.5 -9.5t-9.5 -22.5v-320q0 -13 9.5 -22.5t22.5 -9.5h32z" />
</svg>
