<?xml version="1.0" standalone="no"?>
<!DOCTYPE svg PUBLIC "-//W3C//DTD SVG 1.1//EN" "http://www.w3.org/Graphics/SVG/1.1/DTD/svg11.dtd" >
<svg xmlns="http://www.w3.org/2000/svg" xmlns:xlink="http://www.w3.org/1999/xlink" version="1.1" viewBox="-10 0 532 512">
   <path fill="currentColor"
d="M467 45q39 39 44 90.5t-28 108.5l-131 44h98l-47 47l-147 49h98q-27 26 -62.5 41.5t-70 19.5t-63.5 2t-51 -8l-66 66q-7 7 -17 7t-17 -7t-7 -17t7 -17l260 -259q11 -12 -0.5 -23t-22.5 0l-179 178q-6 -53 8.5 -111t55.5 -100q7 -6 23.5 -23t62.5 -62q44 -44 91.5 -60.5
t88 -7t72.5 41.5z" />
</svg>
