<?xml version="1.0" standalone="no"?>
<!DOCTYPE svg PUBLIC "-//W3C//DTD SVG 1.1//EN" "http://www.w3.org/Graphics/SVG/1.1/DTD/svg11.dtd" >
<svg xmlns="http://www.w3.org/2000/svg" xmlns:xlink="http://www.w3.org/1999/xlink" version="1.1" viewBox="-10 0 532 512">
   <path fill="currentColor"
d="M512 0q-9 125 -54 235l-106 53h81q-14 25 -30 47l-147 49h101q-58 49 -133 57q-31 3 -62.5 5t-63.5 2l-57 57q-7 7 -17 7t-17 -7t-7 -17t7 -17l260 -259q11 -12 -0.5 -23t-22.5 0l-179 179q2 -46 6 -80q5 -51 30 -94.5t59 -71.5t79.5 -51t85 -35t82.5 -21t65 -11.5
t40 -3.5z" />
</svg>
