<?xml version="1.0" standalone="no"?>
<!DOCTYPE svg PUBLIC "-//W3C//DTD SVG 1.1//EN" "http://www.w3.org/Graphics/SVG/1.1/DTD/svg11.dtd" >
<svg xmlns="http://www.w3.org/2000/svg" xmlns:xlink="http://www.w3.org/1999/xlink" version="1.1" viewBox="-10 0 404 512">
   <path fill="currentColor"
d="M224 136q0 10 7 17t17 7h136v328q0 10 -7 17t-17 7h-336q-10 0 -17 -7t-7 -17v-464q0 -10 7 -17t17 -7h200v136zM284 242q4 -6 0.5 -12t-10.5 -6h-35q-7 0 -10 6l-37 69q0 -1 -37 -69q-3 -6 -10 -6h-35q-7 0 -10.5 6.5t0.5 12.5l60 93l-60 94q-4 6 -0.5 12t10.5 6h35
q7 0 10 -6q34 -61 37 -69q17 33 36 69q4 6 11 6h35q7 0 10.5 -6t-0.5 -12l-60 -94zM384 122v6h-128v-128h6q10 0 17 7l98 98q7 7 7 17z" />
</svg>
