<?xml version="1.0" standalone="no"?>
<!DOCTYPE svg PUBLIC "-//W3C//DTD SVG 1.1//EN" "http://www.w3.org/Graphics/SVG/1.1/DTD/svg11.dtd" >
<svg xmlns="http://www.w3.org/2000/svg" xmlns:xlink="http://www.w3.org/1999/xlink" version="1.1" viewBox="-10 0 404 512">
   <path fill="currentColor"
d="M224 136q0 10 7 17t17 7h136v328q0 10 -7 17t-17 7h-336q-10 0 -17 -7t-7 -17v-464q0 -10 7 -17t17 -7h200v136zM304 410q0 -16 -9 -29.5t-24.5 -21t-33.5 -7.5h-5q-19 8 -40 8t-40 -8h-5q-28 0 -47.5 17t-19.5 41v19q0 8 6.5 13.5t15.5 5.5h180q9 0 15.5 -5.5t6.5 -13.5
v-19zM192 320q27 0 45.5 -18.5t18.5 -45.5t-18.5 -45.5t-45.5 -18.5t-45.5 18.5t-18.5 45.5t18.5 45.5t45.5 18.5zM377 105q7 7 7 17v6h-128v-128h6q10 0 17 7z" />
</svg>
