<?xml version="1.0" standalone="no"?>
<!DOCTYPE svg PUBLIC "-//W3C//DTD SVG 1.1//EN" "http://www.w3.org/Graphics/SVG/1.1/DTD/svg11.dtd" >
<svg xmlns="http://www.w3.org/2000/svg" xmlns:xlink="http://www.w3.org/1999/xlink" version="1.1" viewBox="-10 0 404 512">
   <path fill="currentColor"
d="M384 122v6h-128v-128h6q10 0 17 7l98 98q7 7 7 17zM248 160h136v328q0 10 -7 17t-17 7h-336q-10 0 -17 -7t-7 -17v-464q0 -10 7 -17t17 -7h200v136q0 10 7 17t17 7zM112.5 176q-19.5 0 -33.5 14t-14 34t14 34t33.5 14t34 -14t14.5 -34t-14.5 -34t-34 -14zM321 416v-112
l-40 -40q-8 -8 -17 0l-103 104l-40 -40q-8 -8 -16 0l-40 40v48h256z" />
</svg>
