<?xml version="1.0" standalone="no"?>
<!DOCTYPE svg PUBLIC "-//W3C//DTD SVG 1.1//EN" "http://www.w3.org/Graphics/SVG/1.1/DTD/svg11.dtd" >
<svg xmlns="http://www.w3.org/2000/svg" xmlns:xlink="http://www.w3.org/1999/xlink" version="1.1" viewBox="-10 0 532 512">
   <path fill="currentColor"
d="M505 105q7 7 7 23h-128v-128q16 0 23 7zM352 136q0 10 7 17t17 7h136v328q0 10 -7 17t-17 7h-264v-91q28 -12 36 -41q2 -11 2.5 -11.5l7.5 -7.5q25 -25 16 -60q-3 -10 -3 -11t3 -11q9 -34 -16 -59q-1 -2 -4 -4q-4 -4 -5 -10q-1 -3 -2 -5q-9 -35 -43 -44q-2 -1 -5 -1.5
t-3.5 -0.5t-2.5 -1t-2 -1.5t-2 -2.5t-3 -4q-18 -18 -44 -18q-8 0 -26 5v-109q0 -10 7 -17t17 -7h200v136zM247 338q-11 12 -12.5 15t-5.5 19q-5 16 -21 21q-13 3 -16 5v114l-64 -32l-64 32v-114q-3 -2 -16 -5q-16 -5 -21 -21q-4 -16 -5.5 -19t-12.5 -15q-12 -12 -8 -29
q4 -15 4 -18.5t-4 -19.5q-4 -17 8 -29q11 -11 12.5 -14t5.5 -19q5 -17 21 -21q15 -4 18.5 -6t14.5 -13q12 -12 28 -8q15 4 19 4t19 -4q16 -4 28 8q11 11 14.5 13t18.5 6q16 4 21 21q4 16 5.5 19t12.5 14q12 12 8 29q-4 16 -4 19.5t4 18.5q4 17 -8 29zM128 352
q27 0 45.5 -18.5t18.5 -45.5t-18.5 -45.5t-45.5 -18.5t-45.5 18.5t-18.5 45.5q0 17 8.5 32t23.5 23.5t32 8.5z" />
</svg>
