<?xml version="1.0" standalone="no"?>
<!DOCTYPE svg PUBLIC "-//W3C//DTD SVG 1.1//EN" "http://www.w3.org/Graphics/SVG/1.1/DTD/svg11.dtd" >
<svg xmlns="http://www.w3.org/2000/svg" xmlns:xlink="http://www.w3.org/1999/xlink" version="1.1" viewBox="-10 0 660 512">
   <path fill="currentColor"
d="M288 320q0 48 26.5 88t69.5 58v22q0 10 -7 17t-17 7h-336q-10 0 -17 -7t-7 -17v-464q0 -10 7 -17t17 -7h200v136q0 10 7 17t17 7h136v14q-43 18 -69.5 58t-26.5 88zM384 122v6h-128v-128h6q10 0 17 7l98 98q7 7 7 17zM635 462q5 5 5 11.5t-5 11.5l-22 22q-5 5 -11.5 5
t-11.5 -5l-77 -77q-31 18 -65 18q-53 0 -90.5 -37.5t-37.5 -90.5t37.5 -90.5t90.5 -37.5t90.5 37.5t37.5 90.5q0 35 -18 65zM448 384q26 0 45 -19t19 -45t-19 -45t-45 -19t-45 19t-19 45t19 45t45 19z" />
</svg>
