<?xml version="1.0" standalone="no"?>
<!DOCTYPE svg PUBLIC "-//W3C//DTD SVG 1.1//EN" "http://www.w3.org/Graphics/SVG/1.1/DTD/svg11.dtd" >
<svg xmlns="http://www.w3.org/2000/svg" xmlns:xlink="http://www.w3.org/1999/xlink" version="1.1" viewBox="-10 0 404 512">
   <path fill="currentColor"
d="M224 136q0 10 7 17t17 7h136v328q0 10 -7 17t-17 7h-336q-10 0 -17 -7t-7 -17v-464q0 -10 7 -17t17 -7h200v136zM293 315q-12 -11 -23 0l-30 30l-33 -33q33 -18 33 -56q0 -27 -18.5 -45.5t-45.5 -18.5h-80q-7 0 -11.5 4.5t-4.5 11.5v160q0 7 4.5 11.5t11.5 4.5h16
q7 0 11.5 -4.5t4.5 -11.5v-48h19l59 59l-30 30q-11 12 0 23l11 11q12 12 23 0l30 -30l30 30q11 12 23 0l11 -11q11 -11 0 -23l-30 -30l30 -30q11 -11 0 -22zM176 272h-48v-32h48q7 0 11.5 4.5t4.5 11.5t-4.5 11.5t-11.5 4.5zM384 122v6h-128v-128h6q10 0 17 7l98 98
q7 7 7 17z" />
</svg>
