<?xml version="1.0" standalone="no"?>
<!DOCTYPE svg PUBLIC "-//W3C//DTD SVG 1.1//EN" "http://www.w3.org/Graphics/SVG/1.1/DTD/svg11.dtd" >
<svg xmlns="http://www.w3.org/2000/svg" xmlns:xlink="http://www.w3.org/1999/xlink" version="1.1" viewBox="-10 0 404 512">
   <path fill="currentColor"
d="M384 122v6h-128v-128h6q10 0 17 7l98 98q7 7 7 17zM248 160h136v328q0 10 -7 17t-17 7h-336q-10 0 -17 -7t-7 -17v-464q0 -10 7 -17t17 -7h200v136q0 10 7 17t17 7zM296 300q0 -12 -12 -12h-60v-60q0 -12 -12 -12h-40q-12 0 -12 12v60h-60q-12 0 -12 12v40q0 12 12 12h60
v60q0 12 12 12h40q12 0 12 -12v-60h60q12 0 12 -12v-40z" />
</svg>
