<?xml version="1.0" standalone="no"?>
<!DOCTYPE svg PUBLIC "-//W3C//DTD SVG 1.1//EN" "http://www.w3.org/Graphics/SVG/1.1/DTD/svg11.dtd" >
<svg xmlns="http://www.w3.org/2000/svg" xmlns:xlink="http://www.w3.org/1999/xlink" version="1.1" viewBox="-10 0 404 512">
   <path fill="currentColor"
d="M224 136q0 10 7 17t17 7h136v328q0 10 -7 17t-17 7h-336q-10 0 -17 -7t-7 -17v-464q0 -10 7 -17t17 -7h200v136zM289 352q11 0 15 -10t-4 -17l-96 -96q-5 -5 -12 -5t-12 5l-96 96q-8 7 -4 17t15 10h65v80q0 7 4.5 11.5t11.5 4.5h32q7 0 11.5 -4.5t4.5 -11.5v-80h65z
M377 105q7 7 7 17v6h-128v-128h6q10 0 17 7z" />
</svg>
