<?xml version="1.0" standalone="no"?>
<!DOCTYPE svg PUBLIC "-//W3C//DTD SVG 1.1//EN" "http://www.w3.org/Graphics/SVG/1.1/DTD/svg11.dtd" >
<svg xmlns="http://www.w3.org/2000/svg" xmlns:xlink="http://www.w3.org/1999/xlink" version="1.1" viewBox="-10 0 404 512">
   <path fill="currentColor"
d="M384 122v6h-128v-128h6q10 0 17 7l98 98q7 7 7 17zM224 136q0 10 7 17t17 7h136v328q0 10 -7 17t-17 7h-336q-10 0 -17 -7t-7 -17v-464q0 -10 7 -17t17 -7h200v136zM320 280q0 -16 -15 -22t-26 5l-55 55v-38q0 -10 -7 -17t-17 -7h-112q-10 0 -17 7t-7 17v112q0 10 7 17
t17 7h112q10 0 17 -7t7 -17v-38l55 55q11 11 26 5t15 -22v-112z" />
</svg>
