<?xml version="1.0" standalone="no"?>
<!DOCTYPE svg PUBLIC "-//W3C//DTD SVG 1.1//EN" "http://www.w3.org/Graphics/SVG/1.1/DTD/svg11.dtd" >
<svg xmlns="http://www.w3.org/2000/svg" xmlns:xlink="http://www.w3.org/1999/xlink" version="1.1" viewBox="-10 0 404 512">
   <path fill="currentColor"
d="M288 256v64h-192v-64h192zM377 105q7 7 7 17v6h-128v-128h6q10 0 17 7zM224 136q0 10 7 17t17 7h136v328q0 10 -7 17t-17 7h-336q-10 0 -17 -7t-7 -17v-464q0 -10 7 -17t17 -7h200v136zM64 72v16q0 8 8 8h80q8 0 8 -8v-16q0 -8 -8 -8h-80q-8 0 -8 8zM64 136v16q0 8 8 8
h80q8 0 8 -8v-16q0 -8 -8 -8h-80q-8 0 -8 8zM320 440v-16q0 -8 -8 -8h-80q-8 0 -8 8v16q0 8 8 8h80q8 0 8 -8zM320 240q0 -7 -4.5 -11.5t-11.5 -4.5h-224q-7 0 -11.5 4.5t-4.5 11.5v96q0 7 4.5 11.5t11.5 4.5h224q7 0 11.5 -4.5t4.5 -11.5v-96z" />
</svg>
