<?xml version="1.0" standalone="no"?>
<!DOCTYPE svg PUBLIC "-//W3C//DTD SVG 1.1//EN" "http://www.w3.org/Graphics/SVG/1.1/DTD/svg11.dtd" >
<svg xmlns="http://www.w3.org/2000/svg" xmlns:xlink="http://www.w3.org/1999/xlink" version="1.1" viewBox="-10 0 468 512">
   <path fill="currentColor"
d="M288 136q0 10 7 17t17 7h136v328q0 10 -7 17t-17 7h-336q-10 0 -17 -7t-7 -17v-168h70l35 70q2 4 7 4t7 -4l57 -114l22 44h90q7 0 11.5 -4.5t4.5 -11.5t-4.5 -11.5t-11.5 -4.5h-70l-35 -70q-2 -4 -7 -4t-7 4l-57 114l-20 -40q-2 -4 -7 -4h-141q-8 0 -8 -8v-16q0 -8 8 -8
h56v-232q0 -10 7 -17t17 -7h200v136zM441 105q7 7 7 17v6h-128v-128h6q10 0 17 7z" />
</svg>
