<?xml version="1.0" standalone="no"?>
<!DOCTYPE svg PUBLIC "-//W3C//DTD SVG 1.1//EN" "http://www.w3.org/Graphics/SVG/1.1/DTD/svg11.dtd" >
<svg xmlns="http://www.w3.org/2000/svg" xmlns:xlink="http://www.w3.org/1999/xlink" version="1.1" viewBox="-10 0 404 512">
   <path fill="currentColor"
d="M224 136q0 10 7 17t17 7h136v328q0 10 -7 17t-17 7h-336q-10 0 -17 -7t-7 -17v-464q0 -10 7 -17t17 -7h200v136zM288 224q0 -7 -4.5 -11.5t-11.5 -4.5q-2 0 -5 1l-128 47q-11 4 -11 15v115q-8 -2 -16 -2q-20 0 -34 9.5t-14 22.5t14 22.5t34 9.5t34 -9.5t14 -22.5v-101
l96 -37v76q-8 -2 -16 -2q-20 0 -34 9.5t-14 22.5t14 22.5t34 9.5t34 -9.5t14 -22.5v-160zM377 105q7 7 7 17v6h-128v-128h6q10 0 17 7z" />
</svg>
