<?xml version="1.0" standalone="no"?>
<!DOCTYPE svg PUBLIC "-//W3C//DTD SVG 1.1//EN" "http://www.w3.org/Graphics/SVG/1.1/DTD/svg11.dtd" >
<svg xmlns="http://www.w3.org/2000/svg" xmlns:xlink="http://www.w3.org/1999/xlink" version="1.1" viewBox="-10 0 404 512">
   <path fill="currentColor"
d="M182 256q-2 -7 -3 -18.5t-1 -20t2 -8.5q6 0 6 20t-4 27zM180 303q14 26 35 41q-12 2 -63 22q13 -24 28 -63zM86 428q4 -11 35 -40q-6 10 -12 17.5t-10 12t-7 7t-4.5 3zM248 160h136v328q0 10 -7 17t-17 7h-336q-10 0 -17 -7t-7 -17v-464q0 -10 7 -17t17 -7h200v136
q0 10 7 17t17 7zM240 332q-29 -18 -43 -54q12 -47 7 -64q-3 -14 -13.5 -19.5t-21.5 -1.5t-13 14q-6 22 8 77q-23 54 -41 86q-29 14 -48 33t-7 35q8 10 22 10q25 0 61 -62q62 -20 79 -23q36 19 64 19q20 0 25 -17t-5 -26q-16 -15 -74 -7zM377 105q7 7 7 17v6h-128v-128h6
q10 0 17 7zM303 360q-6 7 -43 -9q43 -1 43 9z" />
</svg>
