<?xml version="1.0" standalone="no"?>
<!DOCTYPE svg PUBLIC "-//W3C//DTD SVG 1.1//EN" "http://www.w3.org/Graphics/SVG/1.1/DTD/svg11.dtd" >
<svg xmlns="http://www.w3.org/2000/svg" xmlns:xlink="http://www.w3.org/1999/xlink" version="1.1" viewBox="-10 0 468 512">
   <path fill="currentColor"
d="M96 392q0 23 16.5 39.5t39.5 16.5h168v40q0 10 -7 17t-17 7h-272q-10 0 -17 -7t-7 -17v-368q0 -10 7 -17t17 -7h72v296zM320 104q0 10 7 17t17 7h104v264q0 10 -7 17t-17 7h-272q-10 0 -17 -7t-7 -17v-368q0 -10 7 -17t17 -7h168v104zM384 232q0 -8 -8 -8h-56v-56
q0 -8 -8 -8h-48q-8 0 -8 8v56h-56q-8 0 -8 8v48q0 8 8 8h56v56q0 8 8 8h48q8 0 8 -8v-56h56q8 0 8 -8v-48zM441 73q7 7 7 17v6h-96v-96h6q10 0 17 7z" />
</svg>
