<?xml version="1.0" standalone="no"?>
<!DOCTYPE svg PUBLIC "-//W3C//DTD SVG 1.1//EN" "http://www.w3.org/Graphics/SVG/1.1/DTD/svg11.dtd" >
<svg xmlns="http://www.w3.org/2000/svg" xmlns:xlink="http://www.w3.org/1999/xlink" version="1.1" viewBox="-10 0 532 512">
   <path fill="currentColor"
d="M488 64q10 0 17 7t7 17v336q0 10 -7 17t-17 7h-8v-20q0 -12 -12 -12h-40q-12 0 -12 12v20h-320v-20q0 -12 -12 -12h-40q-12 0 -12 12v20h-8q-10 0 -17 -7t-7 -17v-336q0 -10 7 -17t17 -7h8v20q0 12 12 12h40q12 0 12 -12v-20h320v20q0 12 12 12h40q12 0 12 -12v-20h8z
M96 372v-40q0 -12 -12 -12h-40q-12 0 -12 12v40q0 12 12 12h40q12 0 12 -12zM96 276v-40q0 -12 -12 -12h-40q-12 0 -12 12v40q0 12 12 12h40q12 0 12 -12zM96 180v-40q0 -12 -12 -12h-40q-12 0 -12 12v40q0 12 12 12h40q12 0 12 -12zM368 388v-96q0 -12 -12 -12h-200
q-12 0 -12 12v96q0 12 12 12h200q12 0 12 -12zM368 220v-96q0 -12 -12 -12h-200q-12 0 -12 12v96q0 12 12 12h200q12 0 12 -12zM480 372v-40q0 -12 -12 -12h-40q-12 0 -12 12v40q0 12 12 12h40q12 0 12 -12zM480 276v-40q0 -12 -12 -12h-40q-12 0 -12 12v40q0 12 12 12h40
q12 0 12 -12zM480 180v-40q0 -12 -12 -12h-40q-12 0 -12 12v40q0 12 12 12h40q12 0 12 -12z" />
</svg>
