<?xml version="1.0" standalone="no"?>
<!DOCTYPE svg PUBLIC "-//W3C//DTD SVG 1.1//EN" "http://www.w3.org/Graphics/SVG/1.1/DTD/svg11.dtd" >
<svg xmlns="http://www.w3.org/2000/svg" xmlns:xlink="http://www.w3.org/1999/xlink" version="1.1" viewBox="-11 0 533 512">
   <path fill="currentColor"
d="M256 246q10 0 17 7t7 17q2 114 -29 224q-5 18 -23 18q-15 0 -20.5 -10.5t-3.5 -19.5q30 -105 28 -212q0 -10 7 -17t17 -7zM255 164q43 1 74 31t31 72q1 77 -11 152q-1 4 -3 8.5t-9 8.5t-16 3q-9 -2 -15 -10t-4 -18q11 -71 10 -143q0 -23 -17 -39t-40 -17q-25 0 -40 16
t-15 37q1 77 -14 153q-2 9 -10.5 14.5t-18 3.5t-15 -10t-3.5 -18q14 -70 13 -143q-1 -41 28.5 -71t74.5 -30zM144.5 144.5q7.5 6.5 8.5 16t-5 17.5q-29 35 -28 81q1 62 -10 122q0 3 -2.5 7.5t-9.5 8.5t-16 3q-9 -2 -15 -10t-4 -18q10 -55 9 -112q-1 -63 39 -112q6 -8 16 -9
t17.5 5.5zM254 82q76 1 130.5 54.5t55.5 127.5v14q0 53 -6 106q-1 8 -8 15t-18 6q-10 -1 -16.5 -9t-4.5 -18q6 -56 5 -113q-1 -55 -41.5 -94.5t-97.5 -40.5q-18 0 -34 4q-9 2 -17.5 -3t-11 -15t3 -18.5t14.5 -10.5q24 -5 46 -5zM506 204q6 28 6 72q0 10 -7 17t-17 7
t-17 -7.5t-7 -16.5q0 -39 -5 -62q-2 -10 3.5 -18.5t15.5 -10.5q4 -1 9 0t8.5 3.5t6.5 6.5t4 9zM466 113q6 8 4 18t-10 15.5t-18 4t-15 -10.5q-12 -17 -27 -31t-32 -25t-36 -19t-39 -12.5t-41 -4.5q-88 -1 -148 59q-57 57 -56 139v24q0 6 -3.5 11.5t-9 8.5t-11.5 3h-1
q-10 0 -16.5 -7.5t-6.5 -17.5v-21q-1 -102 70 -174q75 -74 183 -73q31 0 62 8t58 22.5t51 35.5t42 47z" />
</svg>
