<?xml version="1.0" standalone="no"?>
<!DOCTYPE svg PUBLIC "-//W3C//DTD SVG 1.1//EN" "http://www.w3.org/Graphics/SVG/1.1/DTD/svg11.dtd" >
<svg xmlns="http://www.w3.org/2000/svg" xmlns:xlink="http://www.w3.org/1999/xlink" version="1.1" viewBox="-10 0 468 512">
   <path fill="currentColor"
d="M324 51q52 48 88 118t36 113q0 95 -65.5 162.5t-158.5 67.5t-158.5 -67.5t-65.5 -162.5q0 -54 47.5 -134t120.5 -148q57 53 99 111q27 -32 57 -60zM304 392q36 -26 45.5 -70.5t-11.5 -83.5q-6 -9 -12 -20l-58 67q-92 -117 -99 -125q-27 32 -41 52t-23 40t-9 39
q0 56 37.5 90.5t93.5 34.5q43 0 77 -24z" />
</svg>
