<?xml version="1.0" standalone="no"?>
<!DOCTYPE svg PUBLIC "-//W3C//DTD SVG 1.1//EN" "http://www.w3.org/Graphics/SVG/1.1/DTD/svg11.dtd" >
<svg xmlns="http://www.w3.org/2000/svg" xmlns:xlink="http://www.w3.org/1999/xlink" version="1.1" viewBox="-10 0 660 512">
   <path fill="currentColor"
d="M32 512v-384h576v384h-96v-128q0 -80 -56 -136t-136 -56t-136 56t-56 136v128h-96zM342 312q14 -17 29 -30q27 24 45.5 59t18.5 56q0 48 -33.5 81.5t-81.5 33.5t-81.5 -33.5t-33.5 -81.5q0 -27 24.5 -67t61.5 -74q30 27 51 56zM358 448q18 -12 22 -35t-6 -43l-5 -10
l-29 34l-48 -64q-20 25 -28 39t-8 28q0 29 18.5 46.5t45.5 17.5q21 0 38 -13zM624 0q7 0 11.5 4.5t4.5 11.5v64q0 7 -4.5 11.5t-11.5 4.5h-608q-7 0 -11.5 -4.5t-4.5 -11.5v-64q0 -7 4.5 -11.5t11.5 -4.5h608z" />
</svg>
