<?xml version="1.0" standalone="no"?>
<!DOCTYPE svg PUBLIC "-//W3C//DTD SVG 1.1//EN" "http://www.w3.org/Graphics/SVG/1.1/DTD/svg11.dtd" >
<svg xmlns="http://www.w3.org/2000/svg" xmlns:xlink="http://www.w3.org/1999/xlink" version="1.1" viewBox="-10 0 596 512">
   <path fill="currentColor"
d="M0 80q0 -20 14 -34t34 -14h48v448h-48q-20 0 -34 -14t-14 -34v-352zM128 480v-448h320v448h-320zM192 232v48q0 8 8 8h56v56q0 8 8 8h48q8 0 8 -8v-56h56q8 0 8 -8v-48q0 -8 -8 -8h-56v-56q0 -8 -8 -8h-48q-8 0 -8 8v56h-56q-8 0 -8 8zM528 32q20 0 34 14t14 34v352
q0 20 -14 34t-34 14h-48v-448h48z" />
</svg>
