<?xml version="1.0" standalone="no"?>
<!DOCTYPE svg PUBLIC "-//W3C//DTD SVG 1.1//EN" "http://www.w3.org/Graphics/SVG/1.1/DTD/svg11.dtd" >
<svg xmlns="http://www.w3.org/2000/svg" xmlns:xlink="http://www.w3.org/1999/xlink" version="1.1" viewBox="-11 0 597 512">
   <path fill="currentColor"
d="M327 96q48 0 96.5 20.5t80.5 48t52 53t20 38.5t-20 38.5t-52 53t-80.5 48t-96.5 20.5q-62 0 -118 -30t-94 -72l-88 66q-9 7 -19 1.5t-8 -15.5l25 -110l-25 -110q-2 -10 8 -15.5t20 1.5l87 66q38 -42 94 -72t118 -30zM414.5 280q9.5 0 17 -7t7.5 -17t-7.5 -17t-16.5 -7
q-5 0 -9.5 2t-8 5t-5 7.5t-1.5 9.5q0 10 7 17t16.5 7z" />
</svg>
