<?xml version="1.0" standalone="no"?>
<!DOCTYPE svg PUBLIC "-//W3C//DTD SVG 1.1//EN" "http://www.w3.org/Graphics/SVG/1.1/DTD/svg11.dtd" >
<svg xmlns="http://www.w3.org/2000/svg" xmlns:xlink="http://www.w3.org/1999/xlink" version="1.1" viewBox="-10 0 404 512">
   <path fill="currentColor"
d="M256 160h-48q-8 0 -16 3v-147q0 -7 4.5 -11.5t11.5 -4.5h32q7 0 11.5 4.5t4.5 11.5v144zM384 256v88q0 17 -8 36.5t-20 31.5l-36 36v64h-256v-64l-27 -27q-37 -37 -37 -90v-78q8 3 16 3h32q18 0 32 -12q14 12 32 12h32q11 0 22 -6q12 26 39 35q-21 18 -48 58l-6 9
q-1 2 -1 5q0 4 3 7l14 8q2 2 4 2q4 0 7 -4l6 -9q18 -27 30 -40.5t28 -22.5t38 -10q8 0 8 -8v-16q0 -8 -13 -8h-35q-20 0 -34 -14t-14 -34q0 -7 4.5 -11.5t11.5 -4.5h112q26 0 45 18.5t19 45.5zM352 166q-17 -6 -32 -6h-32v-112q0 -7 4.5 -11.5t11.5 -4.5h32q7 0 11.5 4.5
t4.5 11.5v118zM16 224q-7 0 -11.5 -4.5t-4.5 -11.5v-128q0 -7 4.5 -11.5t11.5 -4.5h32q7 0 11.5 4.5t4.5 11.5v128q0 7 -4.5 11.5t-11.5 4.5h-32zM112 224q-7 0 -11.5 -4.5t-4.5 -11.5v-160q0 -7 4.5 -11.5t11.5 -4.5h32q7 0 11.5 4.5t4.5 11.5v160q0 7 -4.5 11.5t-11.5 4.5
h-32z" />
</svg>
