<?xml version="1.0" standalone="no"?>
<!DOCTYPE svg PUBLIC "-//W3C//DTD SVG 1.1//EN" "http://www.w3.org/Graphics/SVG/1.1/DTD/svg11.dtd" >
<svg xmlns="http://www.w3.org/2000/svg" xmlns:xlink="http://www.w3.org/1999/xlink" version="1.1" viewBox="-10 0 532 512">
   <path fill="currentColor"
d="M32 0q13 0 22.5 9.5t9.5 22.5v464q0 7 -4.5 11.5t-11.5 4.5h-32q-7 0 -11.5 -4.5t-4.5 -11.5v-464q0 -13 9.5 -22.5t22.5 -9.5zM463 4q17 -9 33 -0.5t16 27.5v301q0 21 -18 29q-49 21 -90.5 22.5t-73 -8t-64 -18t-76 -3.5t-94.5 30v-352q49 -22 88 -28.5t62 -1t47.5 13
t44.5 14t52.5 1t72.5 -26.5z" />
</svg>
