<?xml version="1.0" standalone="no"?>
<!DOCTYPE svg PUBLIC "-//W3C//DTD SVG 1.1//EN" "http://www.w3.org/Graphics/SVG/1.1/DTD/svg11.dtd" >
<svg xmlns="http://www.w3.org/2000/svg" xmlns:xlink="http://www.w3.org/1999/xlink" version="1.1" viewBox="-10 0 532 512">
   <path fill="currentColor"
d="M350 99q48 0 117 -32q15 -7 30 2t15 27v243q0 17 -14 26q-59 41 -122 41q-36 0 -88 -17.5t-78 -17.5q-62 0 -114 23v94q0 10 -7 17t-17 7h-16q-10 0 -17 -7t-7 -17v-386q-24 -17 -24 -46q0 -24 17 -40.5t41 -15.5q22 1 37.5 16t16.5 36v4q0 10 -4 20q33 -12 68.5 -12
t87.5 17.5t78 17.5z" />
</svg>
