<?xml version="1.0" standalone="no"?>
<!DOCTYPE svg PUBLIC "-//W3C//DTD SVG 1.1//EN" "http://www.w3.org/Graphics/SVG/1.1/DTD/svg11.dtd" >
<svg xmlns="http://www.w3.org/2000/svg" xmlns:xlink="http://www.w3.org/1999/xlink" version="1.1" viewBox="-10 0 532 512">
   <path fill="currentColor"
d="M243 190q9 2 34 10.5t40 11.5v68q-9 -2 -34 -10.5t-40 -11.5v-68zM466 67q16 -7 31 2t15 27v243q0 17 -14 26q-59 41 -122 41q-36 0 -88.5 -17t-77.5 -17q-62 0 -114 22v94q0 10 -7 17t-17 7h-16q-10 0 -17 -7t-7 -17v-386q-24 -17 -24 -46q0 -24 17 -40.5t41 -15.5
q14 1 26 8t19.5 18.5t8.5 25.5q1 13 -4 24q33 -12 68.5 -12t87.5 17.5t78 17.5q48 0 116 -32zM170 326v-72q-34 3 -74 18v70q35 -13 74 -16zM464 191v-71q-39 17 -74 23v72q-35 6 -73 -3v-68q-12 -2 -74 -22v68q-38 -11 -73 -6v-71q-19 1 -74 22v70q46 -17 74 -21v70
q40 -3 73 4v68q11 2 74 22v-68q38 11 73 6v72q37 -4 74 -28v-70q-32 20 -74 26v-71q27 -4 74 -24z" />
</svg>
