<?xml version="1.0" standalone="no"?>
<!DOCTYPE svg PUBLIC "-//W3C//DTD SVG 1.1//EN" "http://www.w3.org/Graphics/SVG/1.1/DTD/svg11.dtd" >
<svg xmlns="http://www.w3.org/2000/svg" xmlns:xlink="http://www.w3.org/1999/xlink" version="1.1" viewBox="-10 0 532 512">
   <path fill="currentColor"
d="M32 0q13 0 22.5 9.5t9.5 22.5v464q0 7 -4.5 11.5t-11.5 4.5h-32q-7 0 -11.5 -4.5t-4.5 -11.5v-464q0 -13 9.5 -22.5t22.5 -9.5zM300 304q62 16 100 16q51 0 112 -24v36q0 21 -18 29q-49 21 -90.5 22.5t-73 -8t-64 -18t-76 -3.5t-94.5 30v-69q43 -19 82.5 -23.5t62 -1
t59.5 13.5zM300 208q62 16 100 16q51 0 112 -24v62q-43 18 -82.5 22.5t-62 1t-59.5 -12.5q-38 -10 -61 -14t-65 0t-86 21v-61q43 -19 82.5 -23.5t62 -1t59.5 13.5zM309 82q-12 -4 -21 -6v33q5 1 12 3q53 16 86 16q54 0 126 -31v69q-43 18 -82.5 22.5t-62 1t-59.5 -12.5
q-38 -10 -61 -14t-65 0t-86 21v-152q49 -22 88 -28.5t62 -1t47.5 13t44.5 14t52.5 1t72.5 -26.5q17 -9 33 -0.5t16 27.5v31q-31 14 -57 22t-44 10.5t-38.5 0.5t-31.5 -4.5t-32 -8.5zM160 128q7 0 11.5 -4.5t4.5 -11.5t-4.5 -11.5t-11.5 -4.5t-11.5 4.5t-4.5 11.5t4.5 11.5
t11.5 4.5zM160 72q7 0 11.5 -4.5t4.5 -11t-4.5 -11.5t-11.5 -5t-11.5 5t-4.5 11.5t4.5 11t11.5 4.5zM224 120q7 0 11.5 -4.5t4.5 -11t-4.5 -11.5t-11.5 -5t-11.5 5t-4.5 11.5t4.5 11t11.5 4.5zM224 64q7 0 11.5 -4.5t4.5 -11t-4.5 -11.5t-11.5 -5t-11.5 5t-4.5 11q0 4 1.5 7
t3.5 5t5 3t6 1z" />
</svg>
