<?xml version="1.0" standalone="no"?>
<!DOCTYPE svg PUBLIC "-//W3C//DTD SVG 1.1//EN" "http://www.w3.org/Graphics/SVG/1.1/DTD/svg11.dtd" >
<svg xmlns="http://www.w3.org/2000/svg" xmlns:xlink="http://www.w3.org/1999/xlink" version="1.1" viewBox="-10 0 437 512">
   <path fill="currentColor"
d="M416 357q-2 77 -53 134q-19 21 -48 21h-214q-29 0 -47 -20q-54 -60 -54 -140q0 -59 30.5 -108t81.5 -76v-72h64v111q-1 0 -11.5 5t-17.5 9.5t-19.5 12t-21 17t-18 22t-15.5 28.5t-8 34q95 -47 182 -4q7 4 13.5 6.5t12 4.5t12.5 3.5t11.5 2.5t11 2t10 1.5t10 0.5h8.5h8.5
h7.5q0 -30 -10 -54.5t-29 -41.5t-32 -25.5t-34 -19.5q-1 -1 -2 -1.5t-2.5 -1t-2.5 -1.5v-111h64v73q51 28 82 78.5t30 109.5zM96 64q-7 0 -11.5 -4.5t-4.5 -11.5v-32q0 -7 4.5 -11.5t11.5 -4.5h224q7 0 11.5 4.5t4.5 11.5v32q0 7 -4.5 11.5t-11.5 4.5h-224z" />
</svg>
