<?xml version="1.0" standalone="no"?>
<!DOCTYPE svg PUBLIC "-//W3C//DTD SVG 1.1//EN" "http://www.w3.org/Graphics/SVG/1.1/DTD/svg11.dtd" >
<svg xmlns="http://www.w3.org/2000/svg" xmlns:xlink="http://www.w3.org/1999/xlink" version="1.1" viewBox="-10 0 660 512">
   <path fill="currentColor"
d="M384 160l16 -11q64 -43 144 -51v316q-80 -8 -144 -51l-16 -11h-352q-13 0 -22.5 -9.5t-9.5 -22.5v-128q0 -13 9.5 -22.5t22.5 -9.5h352zM288 288q13 0 22.5 -9.5t9.5 -22.5t-9.5 -22.5t-22.5 -9.5h-32q-13 0 -22.5 9.5t-9.5 22.5t9.5 22.5t22.5 9.5h32zM608 96
q13 0 22.5 9.5t9.5 22.5v256q0 13 -9.5 22.5t-22.5 9.5h-32v-320h32z" />
</svg>
