<?xml version="1.0" standalone="no"?>
<!DOCTYPE svg PUBLIC "-//W3C//DTD SVG 1.1//EN" "http://www.w3.org/Graphics/SVG/1.1/DTD/svg11.dtd" >
<svg xmlns="http://www.w3.org/2000/svg" xmlns:xlink="http://www.w3.org/1999/xlink" version="1.1" viewBox="-10 0 660 512">
   <path fill="currentColor"
d="M0 208q0 -13 9.5 -22.5t22.5 -9.5h64v160h-64q-13 0 -22.5 -9.5t-9.5 -22.5v-96zM608 176q13 0 22.5 9.5t9.5 22.5v96q0 13 -9.5 22.5t-22.5 9.5h-480v-160h480zM320 280q10 0 17 -7t7 -17t-7 -17t-17 -7t-17 7t-7 17t7 17t17 7zM416 280q10 0 17 -7t7 -17t-7 -17t-17 -7
t-17 7t-7 17t7 17t17 7zM512 280q10 0 17 -7t7 -17t-7 -17t-17 -7t-17 7t-7 17t7 17t17 7z" />
</svg>
