<?xml version="1.0" standalone="no"?>
<!DOCTYPE svg PUBLIC "-//W3C//DTD SVG 1.1//EN" "http://www.w3.org/Graphics/SVG/1.1/DTD/svg11.dtd" >
<svg xmlns="http://www.w3.org/2000/svg" xmlns:xlink="http://www.w3.org/1999/xlink" version="1.1" viewBox="-10 0 468 512">
   <path fill="currentColor"
d="M368 32q33 0 56.5 23.5t23.5 56.5v288q0 33 -23.5 56.5t-56.5 23.5h-288q-33 0 -56.5 -23.5t-23.5 -56.5v-288q0 -33 23.5 -56.5t56.5 -23.5h288zM117 171l91 92v89q0 7 4.5 11.5t11.5 4.5t11.5 -4.5t4.5 -11.5v-89l91 -92q5 -4 5 -11q0 -6 -5 -11t-11 -5q-7 0 -11 5
l-85 84l-85 -84q-4 -5 -11 -5q-6 0 -11 5t-5 11q0 7 5 11zM128 240q6 0 11 -1l-45 -45q-14 -14 -14 -34t14 -34t34 -14t34 14l45 45q1 -5 1 -11q0 -33 -23.5 -56.5t-56.5 -23.5t-56.5 23.5t-23.5 56.5t23.5 56.5t56.5 23.5zM224 432q33 0 56.5 -23.5t23.5 -56.5
q0 -16 -9.5 -35t-22.5 -29v64q0 20 -14 34t-34 14t-34 -14t-14 -34v-64q-13 10 -22.5 29t-9.5 35q0 33 23.5 56.5t56.5 23.5zM320 240q33 0 56.5 -23.5t23.5 -56.5t-23.5 -56.5t-56.5 -23.5t-56.5 23.5t-23.5 56.5q0 6 1 11l45 -45q14 -14 34 -14t34 14t14 34t-14 34l-45 45
q5 1 11 1z" />
</svg>
