<?xml version="1.0" standalone="no"?>
<!DOCTYPE svg PUBLIC "-//W3C//DTD SVG 1.1//EN" "http://www.w3.org/Graphics/SVG/1.1/DTD/svg11.dtd" >
<svg xmlns="http://www.w3.org/2000/svg" xmlns:xlink="http://www.w3.org/1999/xlink" version="1.1" viewBox="-10 0 660 512">
   <path fill="currentColor"
d="M160 320q-40 0 -68 -28t-28 -68q0 -31 18.5 -56t47.5 -35q-2 -11 -2 -21q0 -46 33 -79t79 -33q32 0 58.5 16.5t40.5 44.5q24 -29 61 -29q33 0 56.5 23.5t23.5 56.5q0 9 -2 16h1.5h0.5q40 0 68 28t28 68t-28 68t-68 28h-320zM208 464q7 0 11.5 4.5t4.5 11.5v16
q0 7 -4.5 11.5t-11.5 4.5h-128q-7 0 -11.5 -4.5t-4.5 -11.5v-16q0 -7 4.5 -11.5t11.5 -4.5h128zM624 464q7 0 11.5 4.5t4.5 11.5v16q0 7 -4.5 11.5t-11.5 4.5h-336q-7 0 -11.5 -4.5t-4.5 -11.5v-16q0 -7 4.5 -11.5t11.5 -4.5h336zM576 408q0 7 -4.5 11.5t-11.5 4.5h-544
q-7 0 -11.5 -4.5t-4.5 -11.5v-16q0 -7 4.5 -11.5t11.5 -4.5h544q7 0 11.5 4.5t4.5 11.5v16z" />
</svg>
