<?xml version="1.0" standalone="no"?>
<!DOCTYPE svg PUBLIC "-//W3C//DTD SVG 1.1//EN" "http://www.w3.org/Graphics/SVG/1.1/DTD/svg11.dtd" >
<svg xmlns="http://www.w3.org/2000/svg" xmlns:xlink="http://www.w3.org/1999/xlink" version="1.1" viewBox="-10 0 660 512">
   <path fill="currentColor"
d="M96 336q0 33 23.5 56.5t56.5 23.5h336v48q0 20 -14 34t-34 14h-416q-20 0 -34 -14t-14 -34v-288q0 -20 14 -34t34 -14h48v208zM592 64q20 0 34 14t14 34v224q0 20 -14 34t-34 14h-416q-20 0 -34 -14t-14 -34v-288q0 -20 14 -34t34 -14h160l64 64h192z" />
</svg>
