<?xml version="1.0" standalone="no"?>
<!DOCTYPE svg PUBLIC "-//W3C//DTD SVG 1.1//EN" "http://www.w3.org/Graphics/SVG/1.1/DTD/svg11.dtd" >
<svg xmlns="http://www.w3.org/2000/svg" xmlns:xlink="http://www.w3.org/1999/xlink" version="1.1" viewBox="-10 0 532 512">
   <path fill="currentColor"
d="M464 128q20 0 34 14t14 34v224q0 20 -14 34t-34 14h-416q-20 0 -34 -14t-14 -34v-288q0 -20 14 -34t34 -14h160l64 64h192zM368 296v-16q0 -7 -4.5 -11.5t-11.5 -4.5h-72v-72q0 -7 -4.5 -11.5t-11.5 -4.5h-16q-7 0 -11.5 4.5t-4.5 11.5v72h-72q-7 0 -11.5 4.5t-4.5 11.5
v16q0 7 4.5 11.5t11.5 4.5h72v72q0 7 4.5 11.5t11.5 4.5h16q7 0 11.5 -4.5t4.5 -11.5v-72h72q7 0 11.5 -4.5t4.5 -11.5z" />
</svg>
