<?xml version="1.0" standalone="no"?>
<!DOCTYPE svg PUBLIC "-//W3C//DTD SVG 1.1//EN" "http://www.w3.org/Graphics/SVG/1.1/DTD/svg11.dtd" >
<svg xmlns="http://www.w3.org/2000/svg" xmlns:xlink="http://www.w3.org/1999/xlink" version="1.1" viewBox="-10 0 468 512">
   <path fill="currentColor"
d="M432 416q7 0 11.5 4.5t4.5 11.5v32q0 7 -4.5 11.5t-11.5 4.5h-128q-7 0 -11.5 -4.5t-4.5 -11.5v-32q0 -7 4.5 -11.5t11.5 -4.5h20l-24 -64h-152l-24 64h20q7 0 11.5 4.5t4.5 11.5v32q0 7 -4.5 11.5t-11.5 4.5h-128q-7 0 -11.5 -4.5t-4.5 -11.5v-32q0 -7 4.5 -11.5
t11.5 -4.5h23l131 -362q3 -9 12 -15.5t18 -6.5h48q9 0 18 6.5t12 15.5l131 362h23zM177 272h94l-47 -129z" />
</svg>
