<?xml version="1.0" standalone="no"?>
<!DOCTYPE svg PUBLIC "-//W3C//DTD SVG 1.1//EN" "http://www.w3.org/Graphics/SVG/1.1/DTD/svg11.dtd" >
<svg xmlns="http://www.w3.org/2000/svg" xmlns:xlink="http://www.w3.org/1999/xlink" version="1.1" viewBox="-10 0 516 512">
   <path fill="currentColor"
d="M482 60q13 52 14 105l-157 -157q54 1 105 15q30 8 38 37zM14 452q-13 -52 -14 -105l157 157q-54 -1 -105 -15q-30 -8 -38 -37zM4 283q17 -111 93 -183.5t179 -87.5l216 217q-17 111 -93 183.5t-179 87.5zM322 160l-29 28l-28 -28q-6 -6 -11 0l-12 11q-5 6 0 12l29 28
l-23 23l-28 -29q-6 -5 -12 0l-11 11q-6 6 0 12l28 28l-22 23l-29 -29q-5 -5 -11 0l-11 12q-6 5 0 11l28 28l-28 29q-6 5 0 11l11 11q6 6 11 0l29 -28l28 28q6 6 11 0l12 -11q5 -6 0 -11l-29 -29l23 -22l28 28q6 6 12 0l11 -11q6 -6 0 -12l-28 -28l22 -23l29 29q5 5 11 0
l11 -12q6 -5 0 -11l-28 -28l28 -29q6 -5 0 -11l-11 -11q-6 -6 -11 0z" />
</svg>
