<?xml version="1.0" standalone="no"?>
<!DOCTYPE svg PUBLIC "-//W3C//DTD SVG 1.1//EN" "http://www.w3.org/Graphics/SVG/1.1/DTD/svg11.dtd" >
<svg xmlns="http://www.w3.org/2000/svg" xmlns:xlink="http://www.w3.org/1999/xlink" version="1.1" viewBox="-10 0 660 512">
   <path fill="currentColor"
d="M624 384q7 0 11.5 4.5t4.5 11.5v32q0 7 -4.5 11.5t-11.5 4.5h-128q-7 0 -11.5 -4.5t-4.5 -11.5v-416q0 -7 4.5 -11.5t11.5 -4.5h32q7 0 11.5 4.5t4.5 11.5v368h80zM416 237v108q32 29 32 71q0 40 -28 68t-68 28t-68 -28t-28 -68h-64q0 40 -28 68t-68 28t-68 -28t-28 -68
v-208q0 -20 14 -34t34 -14h48v-112q0 -20 14 -34t34 -14h144q32 0 44 29l79 183q5 12 5 25zM96 464q20 0 34 -14t14 -34t-14 -34t-34 -14t-34 14t-14 34t14 34t34 14zM256 256h96v-19l-74 -173h-118v96zM352 464q20 0 34 -14t14 -34t-14 -34t-34 -14t-34 14t-14 34t14 34
t34 14z" />
</svg>
