<?xml version="1.0" standalone="no"?>
<!DOCTYPE svg PUBLIC "-//W3C//DTD SVG 1.1//EN" "http://www.w3.org/Graphics/SVG/1.1/DTD/svg11.dtd" >
<svg xmlns="http://www.w3.org/2000/svg" xmlns:xlink="http://www.w3.org/1999/xlink" version="1.1" viewBox="-10 0 522 512">
   <path fill="currentColor"
d="M432 224q7 0 11.5 4.5t4.5 11.5v3l-54 244q-3 10 -12 17.5t-20 7.5h-212q-11 0 -20 -7.5t-12 -17.5l-54 -244v-3q0 -7 4.5 -11.5t11.5 -4.5h34q13 0 15 11q7 29 43 49t84 20q32 0 59.5 -9t45.5 -25t22 -35q2 -11 15 -11h34zM352 228q-4 17 -32 31v-208q3 -6 9 -8l34 -10
q3 -1 5 -1q7 0 11.5 4.5t4.5 11.5v3l-30 172q-1 1 -1.5 2.5t-0.5 2.5zM431 192h-33q-1 0 -4 1h-3l19 -107l17 -5q3 -1 5 -1q7 0 11.5 4.5t4.5 11.5v3zM288 269q-16 3 -32 3t-32 -3v-253q0 -7 4.5 -11.5t11.5 -4.5q4 0 7 2l32 16q9 4 9 14v237zM114 192h-33l-17 -93v-3
q0 -7 4.5 -11.5t11.5 -4.5q2 0 5 1l19 6l20 107q-7 -2 -10 -2zM192 259q-18 -9 -27 -21l-37 -197v-3q0 -8 6 -13l29 -22q4 -3 10 -3q13 0 15 13l4 20v226z" />
</svg>
