<?xml version="1.0" standalone="no"?>
<!DOCTYPE svg PUBLIC "-//W3C//DTD SVG 1.1//EN" "http://www.w3.org/Graphics/SVG/1.1/DTD/svg11.dtd" >
<svg xmlns="http://www.w3.org/2000/svg" xmlns:xlink="http://www.w3.org/1999/xlink" version="1.1" viewBox="-10 0 596 512">
   <path fill="currentColor"
d="M447 97q58 20 99 42q30 16 30 51q0 14 -8.5 29t-21.5 22l-154 86l98 105h54q13 0 22.5 9.5t9.5 22.5q0 7 -4.5 11.5t-11.5 4.5h-90l-119 -126q2 -24 -6.5 -46t-17 -31.5t-17.5 -15.5q-27 -21 -62 -21t-63 21l-35 26q-12 10 -2.5 22.5t22.5 3.5l32 -25q35 -26 73 -11
q32 14 42 47t-9 60l-35 48h79q13 0 22.5 9.5t9.5 22.5q0 7 -4.5 11.5t-11.5 4.5h-304q-26 0 -45 -18.5t-19 -44.5q0 -49 14 -95.5t40.5 -84.5t62.5 -68t80 -48.5t92 -22.5q6 -29 28 -47.5t51 -18.5t51 18.5t28 46.5zM368 136q10 0 17 -7t7 -17t-7 -17t-17 -7t-17 7t-7 17
t7 17t17 7z" />
</svg>
