<?xml version="1.0" standalone="no"?>
<!DOCTYPE svg PUBLIC "-//W3C//DTD SVG 1.1//EN" "http://www.w3.org/Graphics/SVG/1.1/DTD/svg11.dtd" >
<svg xmlns="http://www.w3.org/2000/svg" xmlns:xlink="http://www.w3.org/1999/xlink" version="1.1" viewBox="-10 0 404 512">
   <path fill="currentColor"
d="M320 16v192h-256v-192q0 -7 4.5 -11.5t11.5 -4.5h224q7 0 11.5 4.5t4.5 11.5zM368 240q7 0 11.5 4.5t4.5 11.5v16q0 7 -4.5 11.5t-11.5 4.5h-25q10 21 14 41q9 52 -10.5 97t-58.5 73q-19 13 -42 13h-109q-21 0 -35 -9q-36 -23 -57 -60.5t-21 -81.5q0 -38 16 -73h-24
q-7 0 -11.5 -4.5t-4.5 -11.5v-16q0 -7 4.5 -11.5t11.5 -4.5h352zM130.5 363q8.5 0 15 -6.5t6.5 -15t-6 -15t-15 -6.5q-6 0 -11 3t-8 8t-3 10q0 9 6.5 15.5t15 6.5zM192 464q32 -46 32 -64q0 -13 -9.5 -22.5t-22.5 -9.5t-22.5 9.5t-9.5 22.5q0 8 8 24t16 28zM253 363
q9 0 15.5 -6.5t6.5 -15.5q0 -5 -3 -10t-8 -8t-10.5 -3t-10.5 3t-8 8t-3 10q0 9 6 15.5t15 6.5z" />
</svg>
