<?xml version="1.0" standalone="no"?>
<!DOCTYPE svg PUBLIC "-//W3C//DTD SVG 1.1//EN" "http://www.w3.org/Graphics/SVG/1.1/DTD/svg11.dtd" >
<svg xmlns="http://www.w3.org/2000/svg" xmlns:xlink="http://www.w3.org/1999/xlink" version="1.1" viewBox="-10 0 660 512">
   <path fill="currentColor"
d="M289 320q0 80 48 145q9 12 -2 22l-25 21q-5 5 -12 4t-11 -6q-63 -83 -63 -186t63 -186q4 -5 11 -6t12 4l25 21q11 10 2 22q-48 65 -48 145zM224 16v48q0 7 -4.5 11.5t-11.5 4.5h-48q-10 0 -17 7t-7 17v64h40q7 0 11.5 4.5t4.5 11.5v48q0 7 -4.5 11.5t-11.5 4.5h-40v128
q0 43 -30.5 73.5t-73.5 30.5h-16q-7 0 -11.5 -4.5t-4.5 -11.5v-48q0 -7 4.5 -11.5t11.5 -4.5h16q10 0 17 -7t7 -17v-128h-40q-7 0 -11.5 -4.5t-4.5 -11.5v-48q0 -7 4.5 -11.5t11.5 -4.5h40v-64q0 -43 30.5 -73.5t73.5 -30.5h48q7 0 11.5 4.5t4.5 11.5zM577 134q63 83 63 186
t-63 186q-4 5 -11 6t-12 -4l-25 -21q-11 -10 -2 -22q48 -65 48 -145t-48 -145q-9 -12 2 -22l25 -21q5 -5 12 -4t11 6zM523 366q12 11 0 23l-22 22q-12 12 -23 0l-46 -46l-46 46q-11 12 -23 0l-22 -22q-12 -12 0 -23l46 -46l-46 -46q-12 -11 0 -23l22 -22q12 -12 23 0l46 46
l46 -46q11 -12 23 0l22 22q12 12 0 23l-46 46z" />
</svg>
