<?xml version="1.0" standalone="no"?>
<!DOCTYPE svg PUBLIC "-//W3C//DTD SVG 1.1//EN" "http://www.w3.org/Graphics/SVG/1.1/DTD/svg11.dtd" >
<svg xmlns="http://www.w3.org/2000/svg" xmlns:xlink="http://www.w3.org/1999/xlink" version="1.1" viewBox="-11 0 661 512">
   <path fill="currentColor"
d="M433 166q-63 16 -104 67.5t-41 118.5q0 81 59 138q-8 16 -25.5 20.5t-33.5 -6.5l-80 -60q-16 -12 -16 -32v-156l-183 -202q-15 -15 -6.5 -34.5t29.5 -19.5h480q21 0 29.5 19.5t-6.5 34.5zM480 192q66 0 113 47t47 113t-47 113t-113 47t-113 -47t-47 -113t47 -113t113 -47
zM496 432q18 -1 30.5 -14t12.5 -31q0 -15 -9 -27t-23 -17l-45 -13q-9 -3 -9 -13q0 -5 3.5 -9t8.5 -4h28q7 0 13 4q6 3 10 -1l12 -11q7 -7 -1 -12q-14 -11 -31 -12v-16q0 -8 -8 -8h-16q-8 0 -8 8v16q-9 0 -17 4t-13.5 10t-9 14t-3.5 17q0 15 9 27t23 17l45 13q9 3 9 13
q0 2 -1 4.5t-2.5 4.5t-4 3t-4.5 1h-28q-7 0 -13 -4q-6 -3 -10 1l-12 11q-7 7 1 12q14 11 31 12v16q0 8 8 8h16q8 0 8 -8v-16z" />
</svg>
