<?xml version="1.0" standalone="no"?>
<!DOCTYPE svg PUBLIC "-//W3C//DTD SVG 1.1//EN" "http://www.w3.org/Graphics/SVG/1.1/DTD/svg11.dtd" >
<svg xmlns="http://www.w3.org/2000/svg" xmlns:xlink="http://www.w3.org/1999/xlink" version="1.1" viewBox="-10 0 660 512">
   <path fill="currentColor"
d="M480 96q66 0 113 47t47 113t-47 113t-113 47q-28 0 -61.5 -14t-52.5 -34h-92q-19 20 -52.5 34t-61.5 14q-66 0 -113 -47t-47 -113t47 -113t113 -47h320zM248 268v-24q0 -12 -12 -12h-52v-52q0 -12 -12 -12h-24q-12 0 -12 12v52h-52q-12 0 -12 12v24q0 12 12 12h52v52
q0 12 12 12h24q12 0 12 -12v-52h52q12 0 12 -12zM464 344q17 0 28.5 -11.5t11.5 -28.5t-11.5 -28.5t-28.5 -11.5t-28.5 11.5t-11.5 28.5t11.5 28.5t28.5 11.5zM528 248q17 0 28.5 -11.5t11.5 -28.5t-11.5 -28.5t-28.5 -11.5t-28.5 11.5t-11.5 28.5t11.5 28.5t28.5 11.5z" />
</svg>
