<?xml version="1.0" standalone="no"?>
<!DOCTYPE svg PUBLIC "-//W3C//DTD SVG 1.1//EN" "http://www.w3.org/Graphics/SVG/1.1/DTD/svg11.dtd" >
<svg xmlns="http://www.w3.org/2000/svg" xmlns:xlink="http://www.w3.org/1999/xlink" version="1.1" viewBox="-11 0 662 512">
   <path fill="currentColor"
d="M639 368q7 44 -23 78t-78 34q-37 0 -67 -20.5t-42 -54.5l-7 -21h-203l-8 21q-12 34 -42 54.5t-67 20.5q-48 0 -78 -34t-23 -78l34 -211q6 -38 33.5 -66t66.5 -37q91 -22 184.5 -22t184.5 22h1q39 9 66.5 37t33.5 66zM280 236v-24q0 -12 -12 -12h-52v-52q0 -12 -12 -12
h-24q-12 0 -12 12v52h-52q-12 0 -12 12v24q0 12 12 12h52v52q0 12 12 12h24q12 0 12 -12v-52h52q12 0 12 -12zM432 312q17 0 28.5 -11.5t11.5 -28.5t-11.5 -28.5t-28.5 -11.5t-28.5 11.5t-11.5 28.5t11.5 28.5t28.5 11.5zM496 216q17 0 28.5 -11.5t11.5 -28.5t-11.5 -28.5
t-28.5 -11.5t-28.5 11.5t-11.5 28.5t11.5 28.5t28.5 11.5z" />
</svg>
