<?xml version="1.0" standalone="no"?>
<!DOCTYPE svg PUBLIC "-//W3C//DTD SVG 1.1//EN" "http://www.w3.org/Graphics/SVG/1.1/DTD/svg11.dtd" >
<svg xmlns="http://www.w3.org/2000/svg" xmlns:xlink="http://www.w3.org/1999/xlink" version="1.1" viewBox="-10 0 532 512">
   <path fill="currentColor"
d="M32 448v-128h192v160h-160q-13 0 -22.5 -9.5t-9.5 -22.5zM288 480v-160h192v128q0 13 -9.5 22.5t-22.5 9.5h-160zM480 160q13 0 22.5 9.5t9.5 22.5v80q0 7 -4.5 11.5t-11.5 4.5h-480q-7 0 -11.5 -4.5t-4.5 -11.5v-80q0 -13 9.5 -22.5t22.5 -9.5h44q-10 -19 -10 -40
q0 -36 26 -62t62 -26q30 0 53 16t50 52q27 -36 50 -52t53 -16q36 0 62 26t26 62q0 20 -10 40h42zM154 160h86q-35 -53 -51.5 -66.5t-34.5 -13.5q-11 0 -20 5.5t-14.5 14.5t-5.5 20q0 17 11.5 28.5t28.5 11.5zM360 160q17 0 28.5 -11.5t11.5 -28.5t-11.5 -28.5t-28.5 -11.5
q-12 0 -20.5 3.5t-24.5 21.5t-41 55h86z" />
</svg>
