<?xml version="1.0" standalone="no"?>
<!DOCTYPE svg PUBLIC "-//W3C//DTD SVG 1.1//EN" "http://www.w3.org/Graphics/SVG/1.1/DTD/svg11.dtd" >
<svg xmlns="http://www.w3.org/2000/svg" xmlns:xlink="http://www.w3.org/1999/xlink" version="1.1" viewBox="-10 0 660 512">
   <path fill="currentColor"
d="M241 194q-11 3 -20 8.5t-15.5 13.5t-10 18.5t-3.5 21.5v224q0 17 9 32h-169q-13 0 -22.5 -9.5t-9.5 -22.5v-352q0 -13 9.5 -22.5t22.5 -9.5h29l-30 -22q-13 -9 -4 -22l9 -13q9 -13 23 -4l32 23l-12 -31q-2 -6 0.5 -12t8.5 -8l16 -6q6 -2 12 0.5t8 8.5l20 54l20 -54
q2 -6 8 -8.5t12 -0.5l16 6q6 2 8.5 8t0.5 12l-12 31l32 -23q6 -4 12.5 -3t10.5 7l9 13q4 5 3 11.5t-7 10.5l-30 22h29q20 0 29 18q-41 29 -44 80zM224 480v-96h192v128h-160q-13 0 -22.5 -9.5t-9.5 -22.5zM448 512v-128h192v96q0 13 -9.5 22.5t-22.5 9.5h-160zM608 224
q13 0 22.5 9.5t9.5 22.5v96h-192v-128h-15h-1h-1h-15v128h-192v-96q0 -13 9.5 -22.5t22.5 -9.5h20q-4 -12 -4 -24q0 -28 20 -50t52 -22q55 0 88 75q33 -75 88 -75q32 0 52 22t20 50q0 11 -4 24h20zM336 224h53q-21 -48 -45 -48q-12 0 -18 7.5t-6 16.5q0 11 9 19q3 3 7 5z
M535 219q9 -8 9 -19q0 -9 -6 -16.5t-18 -7.5q-24 0 -45 48h53q4 -2 7 -5z" />
</svg>
