<?xml version="1.0" standalone="no"?>
<!DOCTYPE svg PUBLIC "-//W3C//DTD SVG 1.1//EN" "http://www.w3.org/Graphics/SVG/1.1/DTD/svg11.dtd" >
<svg xmlns="http://www.w3.org/2000/svg" xmlns:xlink="http://www.w3.org/1999/xlink" version="1.1" viewBox="-11 0 437 512">
   <path fill="currentColor"
d="M322 304q-7 0 -12.5 5.5t-5.5 12.5t4 12l59 70q17 20 15.5 49t-22.5 45q-18 14 -40 14q-30 0 -49 -23l-38 -46q-10 -11 -25 -11t-24 11l-39 46q-19 23 -49 23q-22 0 -39 -14q-22 -16 -23.5 -45t16.5 -49l58 -70q4 -5 4 -12t-5.5 -12.5t-12.5 -5.5h-30q-29 0 -48.5 -22.5
t-14.5 -52.5q4 -23 23 -38t43 -15h66q6 0 7.5 -5t-1.5 -9q-27 -28 -27 -66q0 -45 34.5 -74t79.5 -20q19 3 35 13.5t26.5 26.5t14.5 34q10 50 -25 86q-4 4 -2 9t8 5h66q24 0 43 15t23 38q3 20 -4.5 37.5t-23.5 27.5t-35 10h-30zM176 96q7 0 11.5 -4.5t4.5 -11.5t-4.5 -11.5
t-11.5 -4.5t-11.5 4.5t-4.5 11.5t4.5 11.5t11.5 4.5zM208 368q7 0 11.5 -4.5t4.5 -11.5t-4.5 -11.5t-11.5 -4.5t-11.5 4.5t-4.5 11.5t4.5 11.5t11.5 4.5zM208 304q7 0 11.5 -4.5t4.5 -11.5t-4.5 -11.5t-11.5 -4.5t-11.5 4.5t-4.5 11.5t4.5 11.5t11.5 4.5zM208 240
q7 0 11.5 -4.5t4.5 -11.5t-4.5 -11.5t-11.5 -4.5t-11.5 4.5t-4.5 11.5t4.5 11.5t11.5 4.5zM240 96q7 0 11.5 -4.5t4.5 -11.5t-4.5 -11.5t-11.5 -4.5t-11.5 4.5t-4.5 11.5t4.5 11.5t11.5 4.5z" />
</svg>
