<?xml version="1.0" standalone="no"?>
<!DOCTYPE svg PUBLIC "-//W3C//DTD SVG 1.1//EN" "http://www.w3.org/Graphics/SVG/1.1/DTD/svg11.dtd" >
<svg xmlns="http://www.w3.org/2000/svg" xmlns:xlink="http://www.w3.org/1999/xlink" version="1.1" viewBox="-10 0 596 512">
   <path fill="currentColor"
d="M561 226q15 62 15 118t-40 96t-96 40q-36 0 -66 -17t-48.5 -46.5t-20.5 -64.5h-34q-3 54 -42 91t-93 37q-56 0 -96 -40t-40 -96t15 -118l32 -127q6 -25 28.5 -46t57.5 -21q14 0 43 10q6 2 9 8t1 12l-5 15q-4 11 -15 11q-3 0 -19 -5q-19 -7 -34 2t-19 25l-30 119
q34 -21 72 -21q41 0 74 22t50 58h56q17 -36 50 -58t74 -22q38 0 72 21l-30 -119q-4 -16 -19 -25t-34 -2q-16 5 -19 5q-11 0 -15 -11l-5 -15q-2 -6 1 -12t9 -8q29 -10 43 -10q24 0 43.5 11.5t29 26t13.5 29.5zM136 416q30 0 51 -21t21 -51t-21 -51t-51 -21t-51 21t-21 51
t21 51t51 21zM440 416q30 0 51 -21t21 -51t-21 -51t-51 -21t-51 21t-21 51t21 51t51 21z" />
</svg>
