<?xml version="1.0" standalone="no"?>
<!DOCTYPE svg PUBLIC "-//W3C//DTD SVG 1.1//EN" "http://www.w3.org/Graphics/SVG/1.1/DTD/svg11.dtd" >
<svg xmlns="http://www.w3.org/2000/svg" xmlns:xlink="http://www.w3.org/1999/xlink" version="1.1" viewBox="-10 0 596 512">
   <path fill="currentColor"
d="M574 280q2 8 2 16v70q0 47 -33.5 80.5t-81.5 33.5h-37q-46 0 -79 -30.5t-36 -74.5l-3 -39h-36l-3 39q-3 44 -36 74.5t-79 30.5h-37q-48 0 -81.5 -33.5t-33.5 -80.5v-70q0 -8 2 -16l45 -181q10 -38 43.5 -56.5t69.5 -5.5l16 5q6 2 9 8t1 12l-5 15q-2 6 -8 9t-12 1l-14 -4
q-18 -6 -33 1q-16 9 -20 26l-39 154q41 -12 82 -12q59 0 114 26h74q55 -26 114 -26q41 0 82 12l-39 -154q-4 -17 -20 -26q-15 -7 -33 -1l-14 4q-6 2 -12 -1t-8 -9l-5 -15q-2 -6 1 -12t9 -8l16 -5q36 -13 69.5 5.5t43.5 56.5zM203 370l4 -41q-35 -13 -70 -13q-37 0 -73 13v37
q0 21 15 35.5t36 14.5h37q20 0 35 -13.5t16 -32.5zM512 366v-37q-36 -13 -73 -13q-35 0 -70 13l4 41q1 19 16 32.5t35 13.5h37q21 0 36 -14.5t15 -35.5z" />
</svg>
