<?xml version="1.0" standalone="no"?>
<!DOCTYPE svg PUBLIC "-//W3C//DTD SVG 1.1//EN" "http://www.w3.org/Graphics/SVG/1.1/DTD/svg11.dtd" >
<svg xmlns="http://www.w3.org/2000/svg" xmlns:xlink="http://www.w3.org/1999/xlink" version="1.1" viewBox="-10 0 516 512">
   <path fill="currentColor"
d="M248 8q103 0 175.5 72.5t72.5 175.5t-72.5 175.5t-175.5 72.5t-175.5 -72.5t-72.5 -175.5t72.5 -175.5t175.5 -72.5zM237 248l17 -29q1 -2 4 -2t4 3q2 4 7 4h3q8 0 8 -8v-78q0 -10 -9 -14l-11 -6q-4 -2 -4 -6.5t3 -7.5l51 -38q-31 -10 -62 -10q-83 0 -141.5 58.5
t-58.5 141.5q0 15 3 32h62q7 0 12 -5l19 -19q3 -3 7 -2.5t6 4.5l23 45q4 9 14 9h6q7 0 11.5 -4.5t4.5 -11.5v-9q0 -7 -5 -12l-5 -5q-6 -6 0 -12l5 -5q5 -5 12 -5q9 0 14 -8zM408 358v-24q0 -7 -5 -11l-12 -12q-2 -3 -2 -6v-13q0 -4 -4 -4h-6q-3 0 -4 3l-4 14q-1 3 -4 3h-4
q-2 0 -3 -2l-6 -13q-2 -5 -7 -5h-12q-3 0 -5 1l-24 17q-2 2 -5 3l-39 16q-6 2 -6 8v10q0 3 3 5l12 12q4 5 11 5h10h4l22 -6q3 -1 6 -1q11 0 19 8l13 13q5 5 11 5h15q7 0 12 -5l9 -9q5 -5 5 -12z" />
</svg>
