<?xml version="1.0" standalone="no"?>
<!DOCTYPE svg PUBLIC "-//W3C//DTD SVG 1.1//EN" "http://www.w3.org/Graphics/SVG/1.1/DTD/svg11.dtd" >
<svg xmlns="http://www.w3.org/2000/svg" xmlns:xlink="http://www.w3.org/1999/xlink" version="1.1" viewBox="-10 0 468 512">
   <path fill="currentColor"
d="M384 416l47 71q6 8 1.5 16.5t-14.5 8.5h-388q-10 0 -14.5 -8.5t1.5 -16.5l47 -71h320zM192 384h-124q-68 -66 -68 -160q0 -93 65.5 -158.5t158.5 -65.5t158.5 65.5t65.5 158.5q0 94 -68 160h-124v-32h58q10 0 15 -8.5t-2 -16.5l-66 -71h30q8 0 11.5 -6.5t-1.5 -12.5
l-67 -73q-3 -3 -6.5 -4t-7 0t-6.5 4l-67 73q-5 6 -1.5 12.5t11.5 6.5h30l-66 71q-7 8 -2.5 16.5t15.5 8.5h58v32zM336 160q-7 0 -11.5 4.5t-4.5 11.5t4.5 11.5t11.5 4.5t11.5 -4.5t4.5 -11.5t-4.5 -11.5t-11.5 -4.5zM240 64q-7 0 -11.5 4.5t-4.5 11.5t4.5 11.5t11.5 4.5
t11.5 -4.5t4.5 -11.5t-4.5 -11.5t-11.5 -4.5zM80 224q-7 0 -11.5 4.5t-4.5 11.5t4.5 11.5t11.5 4.5t11.5 -4.5t4.5 -11.5t-4.5 -11.5t-11.5 -4.5z" />
</svg>
