<?xml version="1.0" standalone="no"?>
<!DOCTYPE svg PUBLIC "-//W3C//DTD SVG 1.1//EN" "http://www.w3.org/Graphics/SVG/1.1/DTD/svg11.dtd" >
<svg xmlns="http://www.w3.org/2000/svg" xmlns:xlink="http://www.w3.org/1999/xlink" version="1.1" viewBox="-10 0 516 512">
   <path fill="currentColor"
d="M248 8q103 0 175.5 72.5t72.5 175.5t-72.5 175.5t-175.5 72.5t-175.5 -72.5t-72.5 -175.5t72.5 -175.5t175.5 -72.5zM408 224q0 -7 4.5 -11.5t11.5 -4.5h18q-14 -58 -58.5 -99t-103.5 -50v21q0 7 -4.5 11.5t-10.5 4.5h-25q-8 0 -13 7l-8 12q-3 5 -9 6l-14 4q-12 3 -12 15
v4q0 7 4.5 11.5t11.5 4.5h90q6 0 11 5l6 6q5 5 11 5h10q7 0 11.5 4.5t4.5 10.5q0 12 -11 15l-47 16q-6 2 -12 -1l-14 -7q-12 -6 -25 -6h-1q-18 0 -33 11l-27 21q-22 16 -22 43v14q0 23 16 39t39 16h25q7 0 11.5 4.5t4.5 11.5v29q0 19 8 36q8 15 25 15q15 0 23 -12l13 -20
q11 -16 25 -29q4 -4 5 -9l4 -22q1 -4 3 -7l19 -25q3 -4 3 -9v-11q0 -7 -4.5 -11.5t-11.5 -4.5h-8q-8 0 -13 -7l-13 -20q-4 -6 -1.5 -13.5t9.5 -9.5l3 -1q2 -1 5 -1q4 0 8 3l19 12q3 3 8 3q4 0 7 -2l15 -8q9 -4 9 -14v-6z" />
</svg>
