<?xml version="1.0" standalone="no"?>
<!DOCTYPE svg PUBLIC "-//W3C//DTD SVG 1.1//EN" "http://www.w3.org/Graphics/SVG/1.1/DTD/svg11.dtd" >
<svg xmlns="http://www.w3.org/2000/svg" xmlns:xlink="http://www.w3.org/1999/xlink" version="1.1" viewBox="-10 0 516 512">
   <path fill="currentColor"
d="M248 8q103 0 175.5 72.5t72.5 175.5t-72.5 175.5t-175.5 72.5t-175.5 -72.5t-72.5 -175.5t72.5 -175.5t175.5 -72.5zM330 366q14 -14 14 -33q0 -13 -9 -22l-14 -14q-9 -9 -22 -9h-67q-4 -2 -15 -17t-17 -15q-16 0 -30 -7l-11 -6q-7 -3 -7 -10q0 -9 8 -12l31 -10
q3 -1 5 -1q6 0 11 4l9 8q2 2 5 2h6q5 0 7 -4t0 -8l-15 -31q-1 -1 -1 -3q0 -4 2 -6l10 -10q2 -2 6 -2h9q3 0 5 -2l8 -8q6 -6 0 -12l-4 -4q-6 -6 0 -12l10 -10l5 -5q11 -11 0 -22l-29 -29q-12 1 -24 3v11q0 9 -7.5 13.5t-15.5 0.5l-24 -12q-71 31 -103 102q25 38 34 51
q8 12 18 21l1 1q15 13 32 22q18 9 49 26q16 9 16 28v32q0 13 9 22q11 11 17.5 26.5t5.5 25.5v27q21 0 43 -5l17 -47q1 -2 5 -16q1 -7 6 -11zM417 274l29 8q2 -15 2 -26q0 -47 -21 -89l-13 6q-6 3 -10 8l-19 30q-4 6 -4 13t4 13l18 27q5 8 14 10z" />
</svg>
