<?xml version="1.0" standalone="no"?>
<!DOCTYPE svg PUBLIC "-//W3C//DTD SVG 1.1//EN" "http://www.w3.org/Graphics/SVG/1.1/DTD/svg11.dtd" >
<svg xmlns="http://www.w3.org/2000/svg" xmlns:xlink="http://www.w3.org/1999/xlink" version="1.1" viewBox="-10 0 516 512">
   <path fill="currentColor"
d="M248 8q103 0 175.5 72.5t72.5 175.5t-72.5 175.5t-175.5 72.5t-175.5 -72.5t-72.5 -175.5t72.5 -175.5t175.5 -72.5zM448 256q0 -83 -58.5 -141.5t-141.5 -58.5h-4h-2l-29 22q-3 2 -3 6v20q0 8 8 8h16q8 0 8 -8v-8l16 -16h21q4 0 7.5 3.5t3.5 8t-3 8.5l-27 26q-2 2 -4 3
l-40 13q-6 2 -6 8q0 10 -7 18l-20 20q-5 4 -5 11v25q0 7 4.5 11.5t11.5 4.5h22q10 0 14 -8l10 -19q2 -5 7 -5h3q8 0 8 8t8 8h16q8 0 8 -8v-2q0 -6 6 -7l31 -11q11 -4 11 -15v-5q0 -6 4.5 -11t11.5 -5h37q4 0 7.5 3.5t3.5 8.5v9q0 5 -3.5 8t-7.5 3h-32q-5 0 -8 4l-10 9
q-3 3 -3 8t3.5 8t7.5 3h16q5 0 8 4l10 9q3 3 3 8v9l-12 12q-9 9 0 17l32 33q4 4 11 4h20q11 -31 11 -64zM130 149q0 5 3.5 8t7.5 3h16q5 0 8 -3l10 -9q3 -4 3 -8v-16q0 -5 -3.5 -8.5t-8 -3.5t-7.5 4l-26 25q-3 3 -3 8zM258 456q53 -3 96.5 -31t68.5 -73h-13q-8 0 -13 -5
l-18 -17q-9 -10 -22 -10h-19l-43 -37q-12 -11 -29 -11h-32q-12 0 -23 7l-43 26q-22 13 -22 39v24q0 22 18 36l22 17q16 11 36 11h20q7 0 11.5 5t4.5 11v8z" />
</svg>
