<?xml version="1.0" standalone="no"?>
<!DOCTYPE svg PUBLIC "-//W3C//DTD SVG 1.1//EN" "http://www.w3.org/Graphics/SVG/1.1/DTD/svg11.dtd" >
<svg xmlns="http://www.w3.org/2000/svg" xmlns:xlink="http://www.w3.org/1999/xlink" version="1.1" viewBox="-10 0 436 512">
   <path fill="currentColor"
d="M96 416h224q0 13 -9.5 22.5t-22.5 9.5h-16q-13 0 -22.5 9.5t-9.5 22.5v20q0 12 -12 12h-40q-12 0 -12 -12v-20q0 -13 -9.5 -22.5t-22.5 -9.5h-16q-13 0 -22.5 -9.5t-9.5 -22.5zM416 208q0 27 -7 53.5t-20 48.5t-31 41t-40 33h-220q-45 -28 -71.5 -74.5t-26.5 -101.5
q0 -86 61 -147t147 -61t147 61t61 147zM236 252q14 0 23.5 -9.5t9.5 -23.5q0 -23 -22 -31q7 20 -7.5 34.5t-34.5 7.5q8 22 31 22zM285 299q0 -23 -22 -31q5 13 -0.5 24.5t-17 16.5t-24.5 1q8 22 31 22q14 0 23.5 -10t9.5 -23zM349 235q0 -23 -22 -31q7 20 -7.5 34.5
t-34.5 7.5q8 22 31 22q14 0 23.5 -10t9.5 -23z" />
</svg>
