<?xml version="1.0" standalone="no"?>
<!DOCTYPE svg PUBLIC "-//W3C//DTD SVG 1.1//EN" "http://www.w3.org/Graphics/SVG/1.1/DTD/svg11.dtd" >
<svg xmlns="http://www.w3.org/2000/svg" xmlns:xlink="http://www.w3.org/1999/xlink" version="1.1" viewBox="-10 0 660 512">
   <path fill="currentColor"
d="M638 30l-214 446q-8 16 -23.5 26t-33.5 10h-303q-26 0 -45 -19t-19 -45v-8h120q8 0 8 -8v-32q0 -8 -8 -8h-120v-48h120q8 0 8 -8v-32q0 -8 -8 -8h-120v-27q0 -30 23 -49t53 -14l390 73l129 -270q3 -6 9.5 -8t12.5 1l14 6q6 3 8 9.5t-1 12.5z" />
</svg>
