<?xml version="1.0" standalone="no"?>
<!DOCTYPE svg PUBLIC "-//W3C//DTD SVG 1.1//EN" "http://www.w3.org/Graphics/SVG/1.1/DTD/svg11.dtd" >
<svg xmlns="http://www.w3.org/2000/svg" xmlns:xlink="http://www.w3.org/1999/xlink" version="1.1" viewBox="-10 0 532 512">
   <path fill="currentColor"
d="M496 352q7 0 11.5 4.5t4.5 11.5v128q0 7 -4.5 11.5t-11.5 4.5h-80v-160h-32v-128h-32v-96h-32v96h32v128h32v160h-80v-80q0 -7 -4.5 -11.5t-11.5 -4.5h-64q-7 0 -11.5 4.5t-4.5 11.5v80h-80v-160h32v-128h32v-96h-32v96h-32v128h-32v160h-80q-7 0 -11.5 -4.5t-4.5 -11.5
v-128q0 -7 4.5 -11.5t11.5 -4.5h16v-112q0 -7 4.5 -11.5t11.5 -4.5h16v-80q0 -7 4.5 -11.5t11.5 -4.5h16v-112q0 -7 4.5 -11.5t11.5 -4.5t11.5 4.5t4.5 11.5v16h64v-16q0 -7 4.5 -11.5t11.5 -4.5t11.5 4.5t4.5 11.5v16h64v-16q0 -7 4.5 -11.5t11.5 -4.5t11.5 4.5t4.5 11.5
v16h64v-16q0 -7 4.5 -11.5t11.5 -4.5t11.5 4.5t4.5 11.5v112h16q7 0 11.5 4.5t4.5 11.5v80h16q7 0 11.5 4.5t4.5 11.5v112h16zM232 176v48h48v-48q0 -7 -4.5 -11.5t-11.5 -4.5h-16q-7 0 -11.5 4.5t-4.5 11.5zM288 352v-64q0 -7 -4.5 -11.5t-11.5 -4.5h-32q-7 0 -11.5 4.5
t-4.5 11.5v64h64z" />
</svg>
