<?xml version="1.0" standalone="no"?>
<!DOCTYPE svg PUBLIC "-//W3C//DTD SVG 1.1//EN" "http://www.w3.org/Graphics/SVG/1.1/DTD/svg11.dtd" >
<svg xmlns="http://www.w3.org/2000/svg" xmlns:xlink="http://www.w3.org/1999/xlink" version="1.1" viewBox="-10 0 468 512">
   <path fill="currentColor"
d="M55 108q-7 -3 -12 -7t-7.5 -9.5t-3 -12t1.5 -12.5l12 -30q5 -12 18.5 -18t26.5 -1l302 120q23 7 23 30v16q0 23 -23 30l-301 120q-14 5 -27.5 -1t-18.5 -18l-12 -30q-5 -13 1.5 -25t19.5 -16l176 -68zM424 400q10 0 17 7t7 17v48q0 10 -7 17t-17 7h-400q-10 0 -17 -7
t-7 -17v-48q0 -10 7 -17t17 -7h400z" />
</svg>
