<?xml version="1.0" standalone="no"?>
<!DOCTYPE svg PUBLIC "-//W3C//DTD SVG 1.1//EN" "http://www.w3.org/Graphics/SVG/1.1/DTD/svg11.dtd" >
<svg xmlns="http://www.w3.org/2000/svg" xmlns:xlink="http://www.w3.org/1999/xlink" version="1.1" viewBox="-10 0 516 512">
   <path fill="currentColor"
d="M248 8q103 0 175.5 72.5t72.5 175.5t-72.5 175.5t-175.5 72.5t-175.5 -72.5t-72.5 -175.5t72.5 -175.5t175.5 -72.5zM144 400v-40h-40v8q0 13 9.5 22.5t22.5 9.5h8zM144 344v-40h-8q-13 0 -22.5 9.5t-9.5 22.5v8h40zM136 208q0 13 9.5 22.5t22.5 9.5t22.5 -9.5t9.5 -22.5
t-9.5 -22.5t-22.5 -9.5t-22.5 9.5t-9.5 22.5zM208 400v-40h-48v40h48zM208 344v-40h-48v40h48zM272 400v-40h-48v40h48zM272 344v-40h-48v40h48zM336 400v-40h-48v40h48zM336 344v-40h-48v40h48zM328 240q13 0 22.5 -9.5t9.5 -22.5t-9.5 -22.5t-22.5 -9.5t-22.5 9.5
t-9.5 22.5t9.5 22.5t22.5 9.5zM392 368v-8h-40v40h8q13 0 22.5 -9.5t9.5 -22.5zM392 344v-8q0 -13 -9.5 -22.5t-22.5 -9.5h-8v40h40z" />
</svg>
