<?xml version="1.0" standalone="no"?>
<!DOCTYPE svg PUBLIC "-//W3C//DTD SVG 1.1//EN" "http://www.w3.org/Graphics/SVG/1.1/DTD/svg11.dtd" >
<svg xmlns="http://www.w3.org/2000/svg" xmlns:xlink="http://www.w3.org/1999/xlink" version="1.1" viewBox="-10 0 516 512">
   <path fill="currentColor"
d="M248 8q103 0 175.5 72.5t72.5 175.5t-72.5 175.5t-175.5 72.5t-175.5 -72.5t-72.5 -175.5t72.5 -175.5t175.5 -72.5zM95 169q-5 1 -6.5 5.5t1.5 7.5l26 25l-6 35q-1 4 2.5 7t8.5 1l31 -17l31 17q4 2 8 -1t3 -7l-6 -35l26 -25q3 -3 1.5 -7.5t-6.5 -5.5l-35 -5l-15 -32
q-2 -4 -7 -4t-7 4l-15 32zM248 432q48 0 92.5 -27t51.5 -66q1 -9 -5.5 -15t-15.5 -3q-47 15 -123 15t-123 -15q-9 -3 -15.5 3t-5.5 15q7 39 51.5 66t92.5 27zM406 182q3 -3 1.5 -7.5t-6.5 -5.5l-35 -5l-15 -32q-2 -4 -7 -4t-7 4l-15 32l-35 5q-5 1 -6.5 5.5t1.5 7.5l26 25
l-6 35q-1 4 2.5 7t8.5 1l31 -17l31 17q5 2 8.5 -1t2.5 -7l-6 -35z" />
</svg>
