<?xml version="1.0" standalone="no"?>
<!DOCTYPE svg PUBLIC "-//W3C//DTD SVG 1.1//EN" "http://www.w3.org/Graphics/SVG/1.1/DTD/svg11.dtd" >
<svg xmlns="http://www.w3.org/2000/svg" xmlns:xlink="http://www.w3.org/1999/xlink" version="1.1" viewBox="-10 0 524 512">
   <path fill="currentColor"
d="M456 128q-20 0 -34 -14t-14 -33q0 -23 42 -78q2 -3 6 -3t6 3q42 55 42 78q0 19 -14 33t-34 14zM456 160q9 0 20 -3q20 48 20 99q0 103 -72.5 175.5t-175.5 72.5t-175.5 -72.5t-72.5 -175.5t72.5 -175.5t175.5 -72.5q74 0 136 41q-8 18 -8 32q0 33 23.5 56t56.5 23z
M328 152q-19 0 -36.5 20.5t-19.5 50.5q0 7 6 8.5t9 -3.5l10 -17q12 -22 31 -22t32 22l9 17q3 6 9.5 4t5.5 -9q-2 -30 -19.5 -50.5t-36.5 -20.5zM168 152q-19 0 -36.5 20.5t-19.5 50.5q0 7 6 8.5t9 -3.5l10 -17q12 -22 31 -22t32 22l9 17q3 6 9.5 4t5.5 -9q-1 -12 -5 -23
t-9.5 -20t-12.5 -15t-14.5 -9.5t-14.5 -3.5zM248 432q48 0 92.5 -27t51.5 -66q1 -9 -5.5 -15t-15.5 -3q-47 15 -123 15t-123 -15q-6 -2 -11 0t-8 7t-2 11q7 39 51.5 66t92.5 27z" />
</svg>
