<?xml version="1.0" standalone="no"?>
<!DOCTYPE svg PUBLIC "-//W3C//DTD SVG 1.1//EN" "http://www.w3.org/Graphics/SVG/1.1/DTD/svg11.dtd" >
<svg xmlns="http://www.w3.org/2000/svg" xmlns:xlink="http://www.w3.org/1999/xlink" version="1.1" viewBox="-10 0 660 512">
   <path fill="currentColor"
d="M102 256q5 0 8 2.5t2 7.5q-11 72 -27 88q-14 14 -34.5 14t-35.5 -15t-15 -35.5t14 -34.5q17 -17 88 -27zM626 283q14 14 14 34.5t-15 35.5t-35.5 15t-34.5 -14q-17 -17 -27 -88q-1 -5 2 -8t8 -2q72 11 88 27zM496 270q12 82 36 106l2 2l1 1q-32 57 -89.5 91t-125.5 34
t-125.5 -34t-89.5 -91l1 -1l2 -2q24 -24 36 -106q2 -17 -10.5 -32.5t-35.5 -13.5q-11 2 -24 4q10 -93 80.5 -156.5t165.5 -63.5q63 0 117 29t88.5 79.5t40.5 111.5q-13 -2 -24 -4q-20 -2 -34 12t-12 34zM400 152q-19 0 -36.5 20.5t-19.5 50.5q0 7 6 8.5t9 -3.5l10 -17
q12 -22 31 -22t32 22l9 17q3 6 9.5 4t5.5 -9q-2 -30 -19.5 -50.5t-36.5 -20.5zM240 152q-19 0 -36.5 20.5t-19.5 50.5q0 7 6 8.5t9 -3.5l10 -17q12 -22 31 -22t32 22l9 17q3 6 9.5 4t5.5 -9q-2 -30 -19.5 -50.5t-36.5 -20.5zM320 432q48 0 92.5 -27t51.5 -66q1 -9 -5.5 -15
t-15.5 -3q-47 15 -123 15t-123 -15q-9 -3 -15.5 3t-5.5 15q7 39 51.5 66t92.5 27z" />
</svg>
