<?xml version="1.0" standalone="no"?>
<!DOCTYPE svg PUBLIC "-//W3C//DTD SVG 1.1//EN" "http://www.w3.org/Graphics/SVG/1.1/DTD/svg11.dtd" >
<svg xmlns="http://www.w3.org/2000/svg" xmlns:xlink="http://www.w3.org/1999/xlink" version="1.1" viewBox="-10 0 516 512">
   <path fill="currentColor"
d="M248 8q103 0 175.5 72.5t72.5 175.5t-72.5 175.5t-175.5 72.5t-175.5 -72.5t-72.5 -175.5t72.5 -175.5t175.5 -72.5zM328 152q-19 0 -36.5 20.5t-19.5 50.5q0 7 6 8.5t9 -3.5l10 -17q12 -22 31 -22t32 22l9 17q3 5 9.5 3.5t5.5 -8.5q-2 -30 -19.5 -50.5t-36.5 -20.5z
M168 152q-19 0 -36.5 20.5t-19.5 50.5q0 7 6 8.5t9 -3.5l10 -17q12 -22 31 -22t32 22l9 17q3 5 9.5 3.5t5.5 -8.5q-1 -12 -5 -23t-9.5 -20t-12.5 -15t-14.5 -9.5t-14.5 -3.5zM248 432q48 0 92.5 -27t51.5 -66q1 -9 -5.5 -15t-15.5 -3q-47 15 -123 15t-123 -15q-9 -3 -15.5 3
t-5.5 15q7 39 51.5 66t92.5 27z" />
</svg>
