<?xml version="1.0" standalone="no"?>
<!DOCTYPE svg PUBLIC "-//W3C//DTD SVG 1.1//EN" "http://www.w3.org/Graphics/SVG/1.1/DTD/svg11.dtd" >
<svg xmlns="http://www.w3.org/2000/svg" xmlns:xlink="http://www.w3.org/1999/xlink" version="1.1" viewBox="-10 0 516 512">
   <path fill="currentColor"
d="M0 256q0 -103 72.5 -175.5t175.5 -72.5t175.5 72.5t72.5 175.5t-72.5 175.5t-175.5 72.5t-175.5 -72.5t-72.5 -175.5zM200 208q0 -13 -9.5 -22.5t-22.5 -9.5t-22.5 9.5t-9.5 22.5t9.5 22.5t22.5 9.5t22.5 -9.5t9.5 -22.5zM368 233q6 6 13.5 1.5t6.5 -12.5q-1 -9 -7 -17
t-14.5 -13.5t-18.5 -8.5t-20 -3q-20 0 -38.5 12t-21.5 30q-1 9 6.5 13t13.5 -2l10 -9q11 -9 30 -9t30 9zM125 321q-9 -3 -15.5 3t-5.5 15q7 39 51.5 66t92.5 27t92.5 -27t51.5 -66q1 -6 -2 -11t-8 -7t-11 0q-47 15 -123 15t-123 -15z" />
</svg>
