<?xml version="1.0" standalone="no"?>
<!DOCTYPE svg PUBLIC "-//W3C//DTD SVG 1.1//EN" "http://www.w3.org/Graphics/SVG/1.1/DTD/svg11.dtd" >
<svg xmlns="http://www.w3.org/2000/svg" xmlns:xlink="http://www.w3.org/1999/xlink" version="1.1" viewBox="-10 0 516 512">
   <path fill="currentColor"
d="M248 8q103 0 175.5 72.5t72.5 175.5t-72.5 175.5t-175.5 72.5t-175.5 -72.5t-72.5 -175.5t72.5 -175.5t175.5 -72.5zM312 137q-15 22 -16 55q1 34 16 55q6 9 16.5 9t15.5 -9q15 -22 16 -55q-1 -34 -16 -55q-6 -9 -16.5 -9t-15.5 9zM152 137q-15 22 -16 55q1 34 16 55
q6 9 16.5 9t15.5 -9q15 -22 16 -55q-1 -34 -16 -55q-6 -9 -16.5 -9t-15.5 9zM248 432q48 0 92.5 -27t51.5 -66q1 -9 -5.5 -15t-15.5 -3q-47 15 -123 15t-123 -15q-6 -2 -11 0t-8 7t-2 11q7 39 51.5 66t92.5 27z" />
</svg>
