<?xml version="1.0" standalone="no"?>
<!DOCTYPE svg PUBLIC "-//W3C//DTD SVG 1.1//EN" "http://www.w3.org/Graphics/SVG/1.1/DTD/svg11.dtd" >
<svg xmlns="http://www.w3.org/2000/svg" xmlns:xlink="http://www.w3.org/1999/xlink" version="1.1" viewBox="-10 0 516 512">
   <path fill="currentColor"
d="M248 8q103 0 175.5 72.5t72.5 175.5q0 79 -44.5 142t-116.5 90q9 -20 9 -40v-46q42 -27 48 -63q1 -9 -5.5 -15t-15.5 -3q-47 15 -123 15t-123 -15q-9 -3 -15.5 3t-5.5 15q6 36 48 63v46q0 20 9 40q-72 -27 -116.5 -90t-44.5 -142q0 -103 72.5 -175.5t175.5 -72.5z
M168 240q13 0 22.5 -9.5t9.5 -22.5t-9.5 -22.5t-22.5 -9.5t-22.5 9.5t-9.5 22.5t9.5 22.5t22.5 9.5zM328 240q13 0 22.5 -9.5t9.5 -22.5t-9.5 -22.5t-22.5 -9.5t-22.5 9.5t-9.5 22.5t9.5 22.5t22.5 9.5zM293 375h1.5t1.5 1t3 1.5t5.5 2.5t7.5 4v64q0 27 -19 45.5t-46 18.5
q-13 0 -24.5 -5.5t-20 -14t-13.5 -20.5t-5 -25v-63q18 -9 19 -9q11 -5 21.5 0.5t13.5 16.5l1 8q2 7 9 7t9 -7l1 -8q2 -7 7.5 -12.5t13 -6.5t14.5 2z" />
</svg>
