<?xml version="1.0" standalone="no"?>
<!DOCTYPE svg PUBLIC "-//W3C//DTD SVG 1.1//EN" "http://www.w3.org/Graphics/SVG/1.1/DTD/svg11.dtd" >
<svg xmlns="http://www.w3.org/2000/svg" xmlns:xlink="http://www.w3.org/1999/xlink" version="1.1" viewBox="-10 0 532 512">
   <path fill="currentColor"
d="M410 112q-5 0 -8 -2.5t-2 -7.5q11 -72 27 -88q14 -14 35 -14t35.5 15t14.5 35.5t-14 34.5q-17 17 -88 27zM102 400q5 0 8 2.5t2 7.5q-11 72 -27 88q-14 14 -34.5 14t-35.5 -15t-15 -35.5t14 -34.5q17 -17 88 -27zM414 144q33 -5 57 -12q41 71 31 155t-70.5 144.5
t-144.5 70.5t-155 -31q7 -25 12 -57q2 -17 -10.5 -32.5t-35.5 -13.5q-33 5 -57 12q-41 -71 -31 -155t70.5 -144.5t144.5 -70.5t155 31q-7 25 -12 57q-2 17 10.5 32.5t35.5 13.5zM256 106l-23 91q-1 6 3.5 11t11.5 3l90 -23q10 -2 9 -12t-11 -11l-52 -5l-5 -52
q-1 -10 -11 -11t-12 9zM165 336q1 10 11 11t12 -9l23 -90q1 -5 -1 -8.5t-5.5 -5.5t-8.5 -1l-90 23q-10 2 -9 12t11 11l52 5zM380 380q34 -34 46.5 -82.5t-10.5 -84.5q-5 -7 -14 -6.5t-13 8.5q-23 44 -76.5 97.5t-97.5 76.5q-8 4 -9 13t7 14q21 15 51 15t62 -14t54 -37z" />
</svg>
