<?xml version="1.0" standalone="no"?>
<!DOCTYPE svg PUBLIC "-//W3C//DTD SVG 1.1//EN" "http://www.w3.org/Graphics/SVG/1.1/DTD/svg11.dtd" >
<svg xmlns="http://www.w3.org/2000/svg" xmlns:xlink="http://www.w3.org/1999/xlink" version="1.1" viewBox="-10 0 516 512">
   <path fill="currentColor"
d="M248 8q103 0 175.5 72.5t72.5 175.5t-72.5 175.5t-175.5 72.5t-175.5 -72.5t-72.5 -175.5t72.5 -175.5t175.5 -72.5zM282 198q-6 3 -6 10t6 10l80 48q8 5 15 -2.5t0 -15.5l-33 -40l33 -40q3 -4 3 -8.5t-3 -7.5t-7 -4t-8 2zM119 168l33 40l-33 40q-7 8 0 15.5t15 2.5
l80 -48q6 -3 6 -10t-6 -10l-80 -48q-8 -5 -15 2.5t0 15.5zM248 432q48 0 92.5 -27t51.5 -66q1 -9 -5.5 -15t-15.5 -3q-47 15 -123 15t-123 -15q-9 -3 -15.5 3t-5.5 15q7 39 51.5 66t92.5 27z" />
</svg>
