<?xml version="1.0" standalone="no"?>
<!DOCTYPE svg PUBLIC "-//W3C//DTD SVG 1.1//EN" "http://www.w3.org/Graphics/SVG/1.1/DTD/svg11.dtd" >
<svg xmlns="http://www.w3.org/2000/svg" xmlns:xlink="http://www.w3.org/1999/xlink" version="1.1" viewBox="-11 0 533 512">
   <path fill="currentColor"
d="M503 39q9 9 9 22.5t-9 22.5l-47 47q-6 5 -14 8l-36 12l-76 76q14 21 19 41q13 55 -22 89q-14 15 -34 21q-13 4 -23 16t-11 26q-4 38 -28 63q-35 34 -88.5 28.5t-95 -47t-47 -95t29.5 -88.5q24 -24 62 -28q14 -1 26 -10.5t16 -23.5q6 -20 21 -34q34 -35 89 -22q20 5 41 19
l76 -76l12 -37q3 -7 8 -13l47 -47q9 -9 22.5 -9t22.5 9zM208 352q20 0 34 -14t14 -34t-14 -34t-34 -14t-34 14t-14 34t14 34t34 14z" />
</svg>
