<?xml version="1.0" standalone="no"?>
<!DOCTYPE svg PUBLIC "-//W3C//DTD SVG 1.1//EN" "http://www.w3.org/Graphics/SVG/1.1/DTD/svg11.dtd" >
<svg xmlns="http://www.w3.org/2000/svg" xmlns:xlink="http://www.w3.org/1999/xlink" version="1.1" viewBox="-10 0 533 512">
   <path fill="currentColor"
d="M229 300q-13 27 5 49q5 6 9 12l-10 28q-9 21 -9 43q0 19 6 37q0 1 -1 2.5t-2 2.5q-38 38 -99 38q-53 0 -90.5 -31t-37.5 -74q0 -32 22 -58q18 -22 5 -49q-9 -16 -9 -34q0 -32 25 -56q8 -9 18 -15q18 -11 43 -14v-54l-17 -34q-3 -6 -3 -13v-54q0 -11 8 -18.5t19 -7.5h34
q11 0 19 7.5t8 18.5v55q0 6 -3 13l-17 33v54q25 3 43 14q43 27 43 71q0 18 -9 34zM156.5 332.5q11.5 -11.5 11.5 -28.5t-11.5 -28.5t-28.5 -11.5t-28.5 11.5t-11.5 28.5t11.5 28.5t28.5 11.5t28.5 -11.5zM505 401q17 39 -6.5 75t-66.5 36h-96q-43 0 -66.5 -36t-6.5 -75
l27 -74q4 -12 4 -24q0 -17 -7 -31.5t-7 -30.5v-51q0 -7 5 -12t13 -5q12 0 16 11l13 36q6 17 25 23h8v-92l-23 -23q-8 -8 -8 -19q0 -3 1 -6q3 -14 7 -35q8 -37 11.5 -45.5t13.5 -15.5t22 -7q11 0 20.5 5.5t15 15t5.5 20.5q0 17 -12 29q-2 2 -5 3v170h8q18 -3 27 -19l10 -20
q5 -10 17 -10q7 0 12.5 5.5t5.5 12.5v29q0 16 -7 30.5t-7 31.5q0 12 5 24zM432 392v-16q0 -8 -8 -8h-80q-8 0 -8 8v16q0 8 8 8h80q8 0 8 -8zM432 328v-16q0 -8 -8 -8h-80q-8 0 -8 8v16q0 8 8 8h80q8 0 8 -8z" />
</svg>
