<?xml version="1.0" standalone="no"?>
<!DOCTYPE svg PUBLIC "-//W3C//DTD SVG 1.1//EN" "http://www.w3.org/Graphics/SVG/1.1/DTD/svg11.dtd" >
<svg xmlns="http://www.w3.org/2000/svg" xmlns:xlink="http://www.w3.org/1999/xlink" version="1.1" viewBox="-10 0 596 512">
   <path fill="currentColor"
d="M560 352q7 0 11.5 4.5t4.5 11.5v32q0 7 -4.5 11.5t-11.5 4.5h-182q-6 0 -10.5 -4t-5.5 -10q-1 -10 -1 -20q0 -20 6 -38t16 -31t22.5 -25t26 -21t26 -18t22.5 -16.5t16.5 -17t6.5 -18.5q0 -16 -11.5 -25t-27.5 -9q-25 0 -43 26q-5 7 -13 7q-5 0 -9 -3l-29 -19
q-7 -4 -7 -13q0 -4 3 -8q35 -57 103 -57q46 0 76.5 26.5t30.5 69.5q0 26 -12 48t-30.5 37t-37.5 27t-35 24.5t-20 23.5h119zM304 96q7 0 11.5 4.5t4.5 11.5v35q0 5 -4 9t-9 4h-19v192h19q5 0 9 4t4 9v35q0 7 -4.5 11.5t-11.5 4.5h-96q-7 0 -11.5 -4.5t-4.5 -11.5v-35
q0 -5 4 -9t9 -4h19v-64h-128v64h19q5 0 9 4t4 9v38q0 5 -4 9t-9 4h-99q-7 0 -11.5 -4.5t-4.5 -11.5v-35q0 -5 4 -9t9 -4h19v-192h-19q-5 0 -9 -4t-4 -9v-35q0 -7 4.5 -11.5t11.5 -4.5h96q7 0 11.5 4.5t4.5 11.5v35q0 5 -4 9t-9 4h-19v64h128v-64h-19q-5 0 -9 -4t-4 -9v-38
q0 -5 4 -9t9 -4h99z" />
</svg>
