<?xml version="1.0" standalone="no"?>
<!DOCTYPE svg PUBLIC "-//W3C//DTD SVG 1.1//EN" "http://www.w3.org/Graphics/SVG/1.1/DTD/svg11.dtd" >
<svg xmlns="http://www.w3.org/2000/svg" xmlns:xlink="http://www.w3.org/1999/xlink" version="1.1" viewBox="-10 0 596 512">
   <path fill="currentColor"
d="M499 218q34 8 55.5 32.5t21.5 59.5q0 29 -14 53t-41 38.5t-61 14.5q-61 0 -103 -38q-5 -4 -5 -11q0 -5 3 -9l19 -29q5 -7 14 -7q6 0 10 4q28 23 58 23q10 0 19 -3t15 -7.5t9.5 -11.5t3.5 -15q0 -20 -16.5 -29t-40.5 -9h-16q-11 0 -15 -10l-9 -18q-1 -4 -1 -7q0 -6 4 -10
l53 -61q3 -3 7 -8h-85q-7 0 -11.5 -4.5t-4.5 -11.5v-32q0 -7 4.5 -11.5t11.5 -4.5h167q5 0 8.5 2t5.5 5.5t2 8.5v23q0 6 -4 10zM304 96q7 0 11.5 4.5t4.5 11.5v35q0 5 -4 9t-9 4h-19v192h19q5 0 9 4t4 9v35q0 7 -4.5 11.5t-11.5 4.5h-96q-7 0 -11.5 -4.5t-4.5 -11.5v-35
q0 -5 4 -9t9 -4h19v-64h-128v64h19q5 0 9 4t4 9v38q0 5 -4 9t-9 4h-99q-7 0 -11.5 -4.5t-4.5 -11.5v-35q0 -5 4 -9t9 -4h19v-192h-19q-5 0 -9 -4t-4 -9v-35q0 -7 4.5 -11.5t11.5 -4.5h96q7 0 11.5 4.5t4.5 11.5v35q0 5 -4 9t-9 4h-19v64h128v-64h-19q-5 0 -9 -4t-4 -9v-38
q0 -5 4 -9t9 -4h99z" />
</svg>
