<?xml version="1.0" standalone="no"?>
<!DOCTYPE svg PUBLIC "-//W3C//DTD SVG 1.1//EN" "http://www.w3.org/Graphics/SVG/1.1/DTD/svg11.dtd" >
<svg xmlns="http://www.w3.org/2000/svg" xmlns:xlink="http://www.w3.org/1999/xlink" version="1.1" viewBox="-10 0 532 512">
   <path fill="currentColor"
d="M464 256q20 0 34 14t14 34t-14 34t-34 14h-416q-20 0 -34 -14t-14 -34t14 -34t34 -14h416zM480 384q7 0 11.5 4.5t4.5 11.5v16q0 26 -19 45t-45 19h-352q-26 0 -45 -19t-19 -45v-16q0 -7 4.5 -11.5t11.5 -4.5h448zM59 224q-26 0 -38 -26t3 -50q31 -50 94 -83t138 -33
t138 33t94 83q15 24 3 50t-38 26h-394zM384 112q-7 0 -11.5 4.5t-4.5 11.5t4.5 11.5t11.5 4.5t11.5 -4.5t4.5 -11.5t-4.5 -11.5t-11.5 -4.5zM256 80q-7 0 -11.5 4.5t-4.5 11.5t4.5 11.5t11.5 4.5t11.5 -4.5t4.5 -11.5t-4.5 -11.5t-11.5 -4.5zM128 112q-7 0 -11.5 4.5
t-4.5 11.5t4.5 11.5t11.5 4.5t11.5 -4.5t4.5 -11.5t-4.5 -11.5t-11.5 -4.5z" />
</svg>
