<?xml version="1.0" standalone="no"?>
<!DOCTYPE svg PUBLIC "-//W3C//DTD SVG 1.1//EN" "http://www.w3.org/Graphics/SVG/1.1/DTD/svg11.dtd" >
<svg xmlns="http://www.w3.org/2000/svg" xmlns:xlink="http://www.w3.org/1999/xlink" version="1.1" viewBox="-10 0 660 512">
   <path fill="currentColor"
d="M435 64q13 0 22 9l55 55v194q-4 -5 -8 -8l-146 -118l26 -24q12 -11 2 -23q-5 -5 -11.5 -5t-11.5 4l-80 73v1q-13 10 -30 9t-27 -12q-10 -12 -10 -28.5t13 -27.5v-1l98 -90q9 -8 22 -8h86zM544 128h96v256h-64q-13 0 -22.5 -9.5t-9.5 -22.5v-224zM592 352q7 0 11.5 -4.5
t4.5 -11.5t-4.5 -11.5t-11.5 -4.5t-11.5 4.5t-4.5 11.5t4.5 11.5t11.5 4.5zM0 384v-256h96v224q0 13 -9.5 22.5t-22.5 9.5h-64zM48 320q-7 0 -11.5 4.5t-4.5 11.5t4.5 11.5t11.5 4.5t11.5 -4.5t4.5 -11.5t-4.5 -11.5t-11.5 -4.5zM484 339q10 8 11.5 21t-7.5 24l-9 12
q-8 10 -21.5 11.5t-23.5 -7.5l-5 -4l-32 38q-9 12 -24.5 14t-27.5 -8l-18 -16q-17 21 -43.5 24t-46.5 -14l-91 -82h-18v-224l55 -55q9 -9 22 -9h84l-82 75q-22 20 -23 50t19 52q20 21 49.5 22.5t52.5 -18.5l30 -27z" />
</svg>
