<?xml version="1.0" standalone="no"?>
<!DOCTYPE svg PUBLIC "-//W3C//DTD SVG 1.1//EN" "http://www.w3.org/Graphics/SVG/1.1/DTD/svg11.dtd" >
<svg xmlns="http://www.w3.org/2000/svg" xmlns:xlink="http://www.w3.org/1999/xlink" version="1.1" viewBox="-10 0 597 512">
   <path fill="currentColor"
d="M288 256q-40 0 -68 -27.5t-28 -66.5q0 -44 83 -156q5 -6 13 -6t13 6q83 112 83 156q0 39 -28 66.5t-68 27.5zM565 328q12 10 11.5 25t-12.5 24l-151 121q-18 14 -40 14h-357q-7 0 -11.5 -4.5t-4.5 -11.5v-96q0 -7 4.5 -11.5t11.5 -4.5h55l47 -38q32 -26 74 -26h160
q15 0 24.5 11.5t7.5 25.5q-2 12 -12 19.5t-22 7.5h-78q-7 0 -11.5 4.5t-4.5 11.5t4.5 11.5t11.5 4.5h118q23 0 40 -14l93 -74q9 -8 21 -8t21 8z" />
</svg>
