<?xml version="1.0" standalone="no"?>
<!DOCTYPE svg PUBLIC "-//W3C//DTD SVG 1.1//EN" "http://www.w3.org/Graphics/SVG/1.1/DTD/svg11.dtd" >
<svg xmlns="http://www.w3.org/2000/svg" xmlns:xlink="http://www.w3.org/1999/xlink" version="1.1" viewBox="-10 0 532 512">
   <path fill="currentColor"
d="M45 156h149q-9 -13 -14 -25q-10 -24 4 -45.5t40 -21.5q28 0 40 29q8 19 42.5 41.5t65.5 35.5q28 13 28 44v172q0 9 -6 15.5t-14 7.5q-18 3 -53.5 21t-70.5 18h-8h-8q-40 0 -59.5 -18t-13.5 -53q-14 -8 -20 -26.5t4 -36.5q-18 -15 -18.5 -36.5t12.5 -34.5h-100
q-18 0 -31.5 -13t-13.5 -30q0 -18 13.5 -31t31.5 -13zM440 176h48q10 0 17 7t7 17v192q0 10 -7 17t-17 7h-48q-10 0 -17 -7t-7 -17v-192q0 -10 7 -17t17 -7zM464 388q8 0 14 -6t6 -14t-6 -14t-14 -6t-14 6t-6 14t6 14t14 6z" />
</svg>
