<?xml version="1.0" standalone="no"?>
<!DOCTYPE svg PUBLIC "-//W3C//DTD SVG 1.1//EN" "http://www.w3.org/Graphics/SVG/1.1/DTD/svg11.dtd" >
<svg xmlns="http://www.w3.org/2000/svg" xmlns:xlink="http://www.w3.org/1999/xlink" version="1.1" viewBox="-10 0 660 512">
   <path fill="currentColor"
d="M205 230l57 77q26 34 26 77v112q0 7 -4.5 11.5t-11.5 4.5h-132q-12 0 -15 -12t-10 -21l-105 -135q-10 -13 -10 -30v-218q0 -13 9.5 -22.5t22.5 -9.5t22.5 9.5t9.5 22.5v148l90 108q4 6 11 6t12 -5l13 -13q10 -9 2 -20l-38 -51q-8 -11 -6.5 -24t12.5 -21t24 -6t21 12z
M608 64q13 0 22.5 9.5t9.5 22.5v218q0 17 -10 30l-105 135q-7 9 -10 21t-15 12h-132q-7 0 -11.5 -4.5t-4.5 -11.5v-112q0 -43 26 -77l57 -77q8 -10 21 -12t24 6t12.5 21t-6.5 24l-38 51q-8 11 2 20l13 13q5 5 12 5t11 -6l90 -108v-148q0 -13 9.5 -22.5t22.5 -9.5zM439 106
q9 9 9 22t-9 22l-97 97q-9 9 -22 9t-22 -9l-97 -97q-9 -9 -9 -22t9 -22l97 -97q9 -9 22 -9t22 9z" />
</svg>
