<?xml version="1.0" standalone="no"?>
<!DOCTYPE svg PUBLIC "-//W3C//DTD SVG 1.1//EN" "http://www.w3.org/Graphics/SVG/1.1/DTD/svg11.dtd" >
<svg xmlns="http://www.w3.org/2000/svg" xmlns:xlink="http://www.w3.org/1999/xlink" version="1.1" viewBox="-10 0 596 512">
   <path fill="currentColor"
d="M271 144q-18 -5 -31 -17.5t-16 -29.5q-3 -24 13 -42.5t41 -20.5v-18q0 -7 5 -11.5t12 -4.5h18q7 0 12 4.5t5 11.5v18q19 2 35 11q5 4 5 10q0 3 -2 6q0 1 -2 3l-19 17q-6 6 -15 2q-5 -2 -11 -2h-36q-9 0 -9 8q0 7 7 8l54 15q12 3 22 10t16.5 16.5t8.5 20.5q3 24 -13 42.5
t-41 20.5v18q0 4 -2.5 8t-6.5 6t-8 2h-18q-7 0 -12 -4.5t-5 -11.5v-18q-19 -2 -35 -11q-5 -4 -5 -10q0 -3 2 -6q0 -1 2 -3l19 -17q6 -6 15 -2q5 2 11 2h36q9 0 9 -8q0 -7 -7 -8zM565 328q11 10 11 24q0 15 -12 25l-151 121q-18 14 -40 14h-357q-7 0 -11.5 -4.5t-4.5 -11.5
v-96q0 -7 4.5 -11.5t11.5 -4.5h55l47 -38q13 -11 35 -18.5t39 -7.5h160q13 0 22.5 9.5t9.5 22.5v5q-2 12 -12 19.5t-22 7.5h-78q-7 0 -11.5 4.5t-4.5 11.5t4.5 11.5t11.5 4.5h118q23 0 40 -14l93 -74q9 -8 21 -8t21 8z" />
</svg>
