<?xml version="1.0" standalone="no"?>
<!DOCTYPE svg PUBLIC "-//W3C//DTD SVG 1.1//EN" "http://www.w3.org/Graphics/SVG/1.1/DTD/svg11.dtd" >
<svg xmlns="http://www.w3.org/2000/svg" xmlns:xlink="http://www.w3.org/1999/xlink" version="1.1" viewBox="-10 0 404 512">
   <path fill="currentColor"
d="M92 467v-149q-13 9 -25 14q-24 10 -45.5 -4t-21.5 -40q0 -28 29 -40q19 -8 41.5 -42.5t35.5 -65.5q13 -28 44 -28h172q9 0 15.5 6t7.5 14q3 18 21 53.5t18 70.5v8v8q0 40 -18 59.5t-53 13.5q-8 14 -26.5 20t-36.5 -4q-15 18 -36.5 18.5t-34.5 -12.5v100q0 18 -13 31.5
t-30 13.5q-18 0 -31 -13.5t-13 -31.5zM112 72v-48q0 -10 7 -17t17 -7h192q10 0 17 7t7 17v48q0 10 -7 17t-17 7h-192q-10 0 -17 -7t-7 -17zM324 48q0 -8 -6 -14t-14 -6t-14 6t-6 14t6 14t14 6t14 -6t6 -14z" />
</svg>
