<?xml version="1.0" standalone="no"?>
<!DOCTYPE svg PUBLIC "-//W3C//DTD SVG 1.1//EN" "http://www.w3.org/Graphics/SVG/1.1/DTD/svg11.dtd" >
<svg xmlns="http://www.w3.org/2000/svg" xmlns:xlink="http://www.w3.org/1999/xlink" version="1.1" viewBox="-10 0 660 512">
   <path fill="currentColor"
d="M393 159q3 24 -11.5 42.5t-37.5 20.5v18q0 7 -4.5 11.5t-11.5 4.5h-16q-7 0 -11.5 -4.5t-4.5 -11.5v-18q-18 -2 -32 -11q-4 -3 -4.5 -9t3.5 -10l17 -17q6 -6 14 -2q5 2 11 2h32q9 0 9 -8q0 -7 -6 -8l-50 -15q-17 -5 -29 -17.5t-14 -29.5q-3 -24 11.5 -42.5t37.5 -20.5
v-18q0 -7 4.5 -11.5t11.5 -4.5h16q7 0 11.5 4.5t4.5 11.5v18q18 2 32 11q4 3 4.5 9t-3.5 10l-17 17q-6 6 -14 2q-5 -2 -11 -2h-32q-9 0 -9 8q0 7 6 8l50 15q17 5 29 17.5t14 29.5zM205 230l57 77q26 34 26 77v112q0 7 -4.5 11.5t-11.5 4.5h-132q-12 0 -15 -12t-10 -21
l-105 -135q-10 -13 -10 -30v-218q0 -13 9.5 -22.5t22.5 -9.5t22.5 9.5t9.5 22.5v148l90 108q4 6 11 6t12 -5l13 -13q10 -9 2 -20l-38 -51q-8 -11 -6.5 -24t12.5 -21t24 -6t21 12zM608 64q13 0 22.5 9.5t9.5 22.5v218q0 17 -10 30l-105 135q-7 9 -10 21t-15 12h-132
q-7 0 -11.5 -4.5t-4.5 -11.5v-112q0 -43 26 -77l57 -77q8 -10 21 -12t24 6t12.5 21t-6.5 24l-38 51q-8 11 2 20l13 13q5 5 12 5t11 -6l90 -108v-148q0 -13 9.5 -22.5t22.5 -9.5z" />
</svg>
