<?xml version="1.0" standalone="no"?>
<!DOCTYPE svg PUBLIC "-//W3C//DTD SVG 1.1//EN" "http://www.w3.org/Graphics/SVG/1.1/DTD/svg11.dtd" >
<svg xmlns="http://www.w3.org/2000/svg" xmlns:xlink="http://www.w3.org/1999/xlink" version="1.1" viewBox="-10 0 532 512">
   <path fill="currentColor"
d="M465 80q13 0 23.5 7t17 18t6.5 24v133q0 20 -8 38l-48 116q-8 18 -8 37v3q0 7 -3 12.5t-8.5 8.5t-12.5 3h-240q-10 0 -17 -7t-7 -17v-7q0 -21 -16 -35l-112 -100q-32 -29 -32 -72v-66q0 -20 14.5 -34t34.5 -14q19 0 33 14.5t14 34.5v48l8 7v-136q0 -20 14.5 -34t34.5 -14
q19 0 33 14.5t14 34.5v31h8v-48q0 -20 14.5 -34t34.5 -14q19 0 33 14.5t14 34.5v47h8v-32q0 -20 14.5 -34t34.5 -14q19 0 33 14.5t14 34.5v31h8q0 -20 14.5 -34t34.5 -14z" />
</svg>
