<?xml version="1.0" standalone="no"?>
<!DOCTYPE svg PUBLIC "-//W3C//DTD SVG 1.1//EN" "http://www.w3.org/Graphics/SVG/1.1/DTD/svg11.dtd" >
<svg xmlns="http://www.w3.org/2000/svg" xmlns:xlink="http://www.w3.org/1999/xlink" version="1.1" viewBox="-10 0 660 512">
   <path fill="currentColor"
d="M232 160h16q8 0 8 8v120h-32v-120q0 -8 8 -8zM168 160h16q8 0 8 8v120h-32v-120q0 -8 8 -8zM392 160h16q8 0 8 8v120h-32v-120q0 -8 8 -8zM456 160h16q8 0 8 8v120h-32v-120q0 -8 8 -8zM544 168v120h-32v-120q0 -8 8 -8h16q8 0 8 8zM104 160h16q8 0 8 8v120h-32v-120
q0 -8 8 -8zM624 160q7 0 11.5 4.5t4.5 11.5v112q0 40 -28 68t-68 28h-192v64h176q7 0 11.5 4.5t4.5 11.5v32q0 7 -4.5 11.5t-11.5 4.5h-416q-7 0 -11.5 -4.5t-4.5 -11.5v-32q0 -7 4.5 -11.5t11.5 -4.5h176v-64h-192q-40 0 -68 -28t-28 -68v-112q0 -7 4.5 -11.5t11.5 -4.5h32
q7 0 11.5 4.5t4.5 11.5v112q0 13 9.5 22.5t22.5 9.5h192v-192q0 -7 4.5 -11.5t11.5 -4.5h32q7 0 11.5 4.5t4.5 11.5v192h192q13 0 22.5 -9.5t9.5 -22.5v-112q0 -7 4.5 -11.5t11.5 -4.5h32zM608 128q-10 0 -17 -8t-7 -19q0 -6 6 -19.5t12 -23.5l6 -10q24 39 24 53q0 11 -7 19
t-17 8zM32 128q-10 0 -17 -8t-7 -19q0 -6 6 -19.5t12 -23.5l6 -10q24 39 24 53q0 11 -7 19t-17 8zM320 80q-7 0 -12.5 -3.5t-8.5 -9.5t-3 -14q0 -6 6 -19.5t12 -23.5l6 -10q24 39 24 53q0 11 -7 19t-17 8zM112 128q-10 0 -17 -8t-7 -19q0 -6 6 -19.5t12 -23.5l6 -10
q24 39 24 53q0 11 -7 19t-17 8zM176 128q-10 0 -17 -8t-7 -19q0 -6 6 -19.5t12 -23.5l6 -10q24 39 24 53q0 8 -3 14t-8.5 9.5t-12.5 3.5zM240 128q-10 0 -17 -8t-7 -19q0 -6 6 -19.5t12 -23.5l6 -10q24 39 24 53q0 11 -7 19t-17 8zM400 128q-10 0 -17 -8t-7 -19
q0 -6 6 -19.5t12 -23.5l6 -10q24 39 24 53q0 11 -7 19t-17 8zM464 128q-10 0 -17 -8t-7 -19q0 -6 6 -19.5t12 -23.5l6 -10q24 39 24 53q0 11 -7 19t-17 8zM528 128q-10 0 -17 -8t-7 -19q0 -6 6 -19.5t12 -23.5l6 -10q24 39 24 53q0 8 -3 14t-8.5 9.5t-12.5 3.5z" />
</svg>
