<?xml version="1.0" standalone="no"?>
<!DOCTYPE svg PUBLIC "-//W3C//DTD SVG 1.1//EN" "http://www.w3.org/Graphics/SVG/1.1/DTD/svg11.dtd" >
<svg xmlns="http://www.w3.org/2000/svg" xmlns:xlink="http://www.w3.org/1999/xlink" version="1.1" viewBox="-10 0 532 512">
   <path fill="currentColor"
d="M496 448q7 0 11.5 4.5t4.5 11.5v32q0 7 -4.5 11.5t-11.5 4.5h-480q-7 0 -11.5 -4.5t-4.5 -11.5v-32q0 -7 4.5 -11.5t11.5 -4.5h480zM192 384l16 32h-144l111 -250q7 -16 22.5 -33t30.5 -26l188 -107l-56 169q-4 10 -4 20q0 13 6 25l86 202h-208l16 -32l64 -32l-64 -32
l-32 -64l-32 64l-64 32zM256 160l-32 16l32 16l16 32l16 -32l32 -16l-32 -16l-16 -32z" />
</svg>
