<?xml version="1.0" standalone="no"?>
<!DOCTYPE svg PUBLIC "-//W3C//DTD SVG 1.1//EN" "http://www.w3.org/Graphics/SVG/1.1/DTD/svg11.dtd" >
<svg xmlns="http://www.w3.org/2000/svg" xmlns:xlink="http://www.w3.org/1999/xlink" version="1.1" viewBox="-10 0 660 512">
   <path fill="currentColor"
d="M490 297q-71 23 -170 23t-170 -23q39 -233 98 -233q18 0 37 14q15 12 35 12t35 -12q19 -14 37 -14q59 0 98 233zM633 260q7 4 7 13q0 3 -1 6q-3 7 -10 22t-33 49t-59 60.5t-91 48t-126 21.5t-126 -21.5t-91 -48t-59 -60.5t-33 -49t-10 -22q-1 -3 -1 -6q0 -7 4.5 -11.5
t11.5 -4.5q6 0 11 4q2 2 6 5.5t18.5 13t31 18t42.5 19t53.5 18t65 12.5t76.5 5q54 0 104 -9.5t81.5 -21.5t59 -27.5t36 -22t12.5 -10.5q5 -4 11 -4q5 0 9 3z" />
</svg>
