<?xml version="1.0" standalone="no"?>
<!DOCTYPE svg PUBLIC "-//W3C//DTD SVG 1.1//EN" "http://www.w3.org/Graphics/SVG/1.1/DTD/svg11.dtd" >
<svg xmlns="http://www.w3.org/2000/svg" xmlns:xlink="http://www.w3.org/1999/xlink" version="1.1" viewBox="-10 0 532 512">
   <path fill="currentColor"
d="M195 105q-19 -6 -19 -25t19 -25q-9 -18 4.5 -31.5t31.5 -4.5q6 -19 25 -19t25 19q18 -9 31.5 4.5t4.5 31.5q19 6 19 25t-19 25q9 18 -4 32q-8 7 -19 7q-6 0 -13 -3q-6 19 -25 19t-25 -19q-7 3 -13 3q-11 0 -19 -7q-13 -14 -4 -32zM128 270l-64 32l-7 -4q37 -94 119 -140
l0.5 0.5l0.5 0.5q16 17 39 17q17 16 40 16t40 -16q23 0 39 -17l0.5 -0.5l0.5 -0.5q82 46 119 140l-7 4l-64 -32l-64 32l-64 -32l-64 32zM496 448q7 0 11.5 4.5t4.5 11.5v32q0 7 -4.5 11.5t-11.5 4.5h-480q-7 0 -11.5 -4.5t-4.5 -11.5v-32q0 -7 4.5 -11.5t11.5 -4.5h480z
M466 329q4 14 6.5 28t4 24t2.5 18.5t1 12.5v4h-448q0 -38 14 -87l18 9l64 -32l64 32l64 -32l64 32l64 -32l64 32z" />
</svg>
