<?xml version="1.0" standalone="no"?>
<!DOCTYPE svg PUBLIC "-//W3C//DTD SVG 1.1//EN" "http://www.w3.org/Graphics/SVG/1.1/DTD/svg11.dtd" >
<svg xmlns="http://www.w3.org/2000/svg" xmlns:xlink="http://www.w3.org/1999/xlink" version="1.1" viewBox="-11 0 661 512">
   <path fill="currentColor"
d="M261 291l98 85q33 28 55.5 44.5t51 32t58.5 21.5t68 6h-546q-22 0 -36 -21t-9 -47q15 -70 60 -113t103 -43q53 0 97 35zM495 273q41 3 71.5 19t45 38t21.5 40t7 30q0 20 -14 34t-34 14q-29 0 -53.5 -4.5t-42.5 -11.5t-39.5 -21t-36.5 -25.5t-40 -34.5l-98 -84
q-54 -43 -118 -43q-4 0 -20 2l6 -65q3 -19 17.5 -35.5t33.5 -20.5l191 -41q7 -1 13 -1q23 0 41.5 15.5t21.5 37.5z" />
</svg>
