<?xml version="1.0" standalone="no"?>
<!DOCTYPE svg PUBLIC "-//W3C//DTD SVG 1.1//EN" "http://www.w3.org/Graphics/SVG/1.1/DTD/svg11.dtd" >
<svg xmlns="http://www.w3.org/2000/svg" xmlns:xlink="http://www.w3.org/1999/xlink" version="1.1" viewBox="-10 0 532 512">
   <path fill="currentColor"
d="M160 179v-1.5v-1.5v3zM509 275q3 6 3 13q0 13 -9.5 22.5t-22.5 9.5h-32v64q0 26 -19 45t-45 19h-64v64h-256v-177q-26 -24 -45 -65.5t-19 -77.5q0 -80 56 -136t136 -56h74q29 0 62.5 12t62 32t45.5 44q11 16 24.5 51.5t27 76.5t21.5 59zM336 208q20 0 34 -14t14 -34
t-14 -34t-34 -14h-3q-4 -13 -17.5 -22.5t-27.5 -9.5q-13 0 -24 6q-3 -6 -10 -11t-15 -8t-15 -3q-11 0 -23 6.5t-17 15.5q-11 -6 -24 -6q-20 0 -34 14t-14 34q-20 0 -34 14t-14 34q0 14 9.5 27.5t22.5 17.5v1v2q0 20 14 34t34 14q8 0 16 -3v51h64v-51q8 3 16 3q20 0 34 -14
t14 -34q0 -8 -3 -16h51z" />
</svg>
