<?xml version="1.0" standalone="no"?>
<!DOCTYPE svg PUBLIC "-//W3C//DTD SVG 1.1//EN" "http://www.w3.org/Graphics/SVG/1.1/DTD/svg11.dtd" >
<svg xmlns="http://www.w3.org/2000/svg" xmlns:xlink="http://www.w3.org/1999/xlink" version="1.1" viewBox="-10 0 532 512">
   <path fill="currentColor"
d="M304 64h112v160h-107q-32 0 -57 -20.5t-28 -51.5q-3 -35 21 -61.5t59 -26.5zM512 208q0 7 -4.5 11.5t-11.5 4.5h-48v-160h48q7 0 11.5 4.5t4.5 11.5v128zM193 155q1 19 10 37h-187q-7 0 -11.5 -4.5t-4.5 -11.5v-32q0 -7 4.5 -11.5t11.5 -4.5h27q13 -37 39.5 -66
t63.5 -45.5t78 -16.5h42q59 0 110 32h-72q-50 0 -83 37t-28 86zM502 256q4 12 7 19q7 16 -2.5 30.5t-26.5 14.5h-32v64q0 27 -18.5 45.5t-45.5 18.5h-64v64h-224v-177q-50 -45 -61 -111h193q34 32 81 32h193z" />
</svg>
