<?xml version="1.0" standalone="no"?>
<!DOCTYPE svg PUBLIC "-//W3C//DTD SVG 1.1//EN" "http://www.w3.org/Graphics/SVG/1.1/DTD/svg11.dtd" >
<svg xmlns="http://www.w3.org/2000/svg" xmlns:xlink="http://www.w3.org/1999/xlink" version="1.1" viewBox="-10 0 532 512">
   <path fill="currentColor"
d="M192 208v112q0 13 -9.5 22.5t-22.5 9.5h-16q-27 0 -45.5 -18.5t-18.5 -45.5v-48q0 -27 18.5 -45.5t45.5 -18.5h16q13 0 22.5 9.5t9.5 22.5zM368 352h-16q-13 0 -22.5 -9.5t-9.5 -22.5v-112q0 -13 9.5 -22.5t22.5 -9.5h16q27 0 45.5 18.5t18.5 45.5v48q0 27 -18.5 45.5
t-45.5 18.5zM256 0q105 0 179 75.5t77 180.5v166q0 37 -26.5 63.5t-63.5 26.5h-182q-20 0 -34 -14t-14 -34t14 -34t34 -14h32q20 0 34 14t14 34h102q17 0 29.5 -12.5t12.5 -29.5v-166q0 -86 -61 -147t-147 -61t-147 61t-61 147v16q0 7 -4.5 11.5t-11.5 4.5h-16
q-7 0 -11.5 -4.5t-4.5 -11.5v-16q3 -105 77 -180.5t179 -75.5z" />
</svg>
