<?xml version="1.0" standalone="no"?>
<!DOCTYPE svg PUBLIC "-//W3C//DTD SVG 1.1//EN" "http://www.w3.org/Graphics/SVG/1.1/DTD/svg11.dtd" >
<svg xmlns="http://www.w3.org/2000/svg" xmlns:xlink="http://www.w3.org/1999/xlink" version="1.1" viewBox="-10 0 532 512">
   <path fill="currentColor"
d="M160 288q13 0 22.5 9.5t9.5 22.5v128q0 13 -9.5 22.5t-22.5 9.5h-16q-17 0 -32 -8.5t-23.5 -23.5t-8.5 -32v-64q0 -17 8.5 -32t23.5 -23.5t32 -8.5h16zM368 288q27 0 45.5 19t18.5 45v64q0 17 -8.5 32t-23.5 23.5t-32 8.5h-16q-13 0 -22.5 -9.5t-9.5 -22.5v-128
q0 -13 9.5 -22.5t22.5 -9.5h16zM256 32q105 0 179 75.5t77 180.5v112q0 7 -4.5 11.5t-11.5 4.5h-16q-7 0 -11.5 -4.5t-4.5 -11.5v-112q0 -86 -61 -147t-147 -61q-56 0 -104 28t-76 76t-28 104v112q0 7 -4.5 11.5t-11.5 4.5h-16q-7 0 -11.5 -4.5t-4.5 -11.5v-112
q3 -105 77 -180.5t179 -75.5z" />
</svg>
