<?xml version="1.0" standalone="no"?>
<!DOCTYPE svg PUBLIC "-//W3C//DTD SVG 1.1//EN" "http://www.w3.org/Graphics/SVG/1.1/DTD/svg11.dtd" >
<svg xmlns="http://www.w3.org/2000/svg" xmlns:xlink="http://www.w3.org/1999/xlink" version="1.1" viewBox="-10 0 468 512">
   <path fill="currentColor"
d="M400 32q20 0 34 14t14 34v352q0 20 -14 34t-34 14h-352q-20 0 -34 -14t-14 -34v-352q0 -20 14 -34t34 -14h352zM348 280q24 -25 22.5 -60.5t-28.5 -57.5q-24 -20 -54.5 -17.5t-52.5 24.5l-11 12l-11 -12q-22 -22 -52.5 -24.5t-54.5 17.5q-27 22 -28.5 58t22.5 60l111 114
q5 6 13 6t13 -6z" />
</svg>
