<?xml version="1.0" standalone="no"?>
<!DOCTYPE svg PUBLIC "-//W3C//DTD SVG 1.1//EN" "http://www.w3.org/Graphics/SVG/1.1/DTD/svg11.dtd" >
<svg xmlns="http://www.w3.org/2000/svg" xmlns:xlink="http://www.w3.org/1999/xlink" version="1.1" viewBox="-11 0 534 512">
   <path fill="currentColor"
d="M320 244l22 44h109l-182 186q-6 6 -13.5 6t-12.5 -6l-182 -186h94l30 -72l57 127q4 9 14 9t14 -9zM474 74q36 37 38 89.5t-31 92.5h-119l-28 -55q-4 -9 -14 -9t-14 9l-49 98l-58 -130q-5 -9 -15.5 -9t-14.5 10l-36 86h-102q-33 -40 -31 -92.5t38 -89.5l3 -2
q38 -40 93 -40t94 40l28 28l28 -29q39 -39 94 -39t93 39z" />
</svg>
