<?xml version="1.0" standalone="no"?>
<!DOCTYPE svg PUBLIC "-//W3C//DTD SVG 1.1//EN" "http://www.w3.org/Graphics/SVG/1.1/DTD/svg11.dtd" >
<svg xmlns="http://www.w3.org/2000/svg" xmlns:xlink="http://www.w3.org/1999/xlink" version="1.1" viewBox="-10 0 660 512">
   <path fill="currentColor"
d="M624 224q7 0 11.5 4.5t4.5 11.5v32q0 7 -4.5 11.5t-11.5 4.5h-124l-55 110q-10 20 -32 18q-6 -1 -12 -4t-10 -8.5t-6 -11.5l-61 -225l-69 320q-2 10 -10.5 17.5t-19.5 7.5h-1q-11 0 -19.5 -6.5t-11.5 -16.5l-57 -201h-120q-7 0 -11.5 -4.5t-4.5 -11.5v-32q0 -7 4.5 -11.5
t11.5 -4.5h144q11 0 19.5 6.5t11.5 16.5l29 101l69 -323q2 -11 10.5 -18t19.5 -7q7 0 14 3t11.5 8.5t6.5 12.5l74 271l26 -53q9 -18 29 -18h144z" />
</svg>
