<?xml version="1.0" standalone="no"?>
<!DOCTYPE svg PUBLIC "-//W3C//DTD SVG 1.1//EN" "http://www.w3.org/Graphics/SVG/1.1/DTD/svg11.dtd" >
<svg xmlns="http://www.w3.org/2000/svg" xmlns:xlink="http://www.w3.org/1999/xlink" version="1.1" viewBox="-11 0 661 512">
   <path fill="currentColor"
d="M304 384q-16 0 -26 -13l-86 -115l-160 -64l-32 -108q-1 -8 3.5 -14t12.5 -6h40q8 0 13 6l43 58h208v-64h-176q-7 0 -11.5 -4.5t-4.5 -11.5v-32q0 -7 4.5 -11.5t11.5 -4.5h416q7 0 11.5 4.5t4.5 11.5v32q0 7 -4.5 11.5t-11.5 4.5h-176v64q93 0 158.5 65.5t65.5 158.5
q0 13 -9.5 22.5t-22.5 9.5h-272zM416 196v124h125q-7 -31 -24.5 -57t-43.5 -43.5t-57 -23.5zM635 459q5 5 5 12t-6 11q-33 30 -68 30h-326q-7 0 -11.5 -4.5t-4.5 -11.5v-32q0 -7 4.5 -11.5t11.5 -4.5h326q13 0 24.5 -11t22.5 0z" />
</svg>
