<?xml version="1.0" standalone="no"?>
<!DOCTYPE svg PUBLIC "-//W3C//DTD SVG 1.1//EN" "http://www.w3.org/Graphics/SVG/1.1/DTD/svg11.dtd" >
<svg xmlns="http://www.w3.org/2000/svg" xmlns:xlink="http://www.w3.org/1999/xlink" version="1.1" viewBox="-11 0 405 512">
   <path fill="currentColor"
d="M81 472l35 -138l52 53l-25 101q-3 11 -11.5 17.5t-19.5 6.5q-4 0 -8 -1q-8 -2 -14 -8t-8.5 -14t-0.5 -17zM96 276q-2 6 -7.5 9.5t-12.5 2.5l-64 -16q-4 -1 -7 -4t-4.5 -7t-0.5 -8l26 -98q8 -31 37 -48t62 -9q7 2 10.5 7.5t1.5 11.5zM368 160q7 0 11.5 4.5t4.5 11.5v320
q0 7 -4.5 11.5t-11.5 4.5h-16q-7 0 -11.5 -4.5t-4.5 -11.5v-240h-48q-13 0 -23 -9l-22 -23l-20 80l-1 1l47 47q19 19 19 45v83q0 13 -9.5 22.5t-22.5 9.5t-22.5 -9.5t-9.5 -22.5v-83l-87 -86q-9 -10 -9 -23q0 -4 1 -8l27 -107q5 -20 21 -32.5t36 -12.5q24 0 41 17l47 47h35
v-16q0 -7 4.5 -11.5t11.5 -4.5h16zM240 96q-20 0 -34 -14t-14 -34t14 -34t34 -14t34 14t14 34t-14 34t-34 14z" />
</svg>
