<?xml version="1.0" standalone="no"?>
<!DOCTYPE svg PUBLIC "-//W3C//DTD SVG 1.1//EN" "http://www.w3.org/Graphics/SVG/1.1/DTD/svg11.dtd" >
<svg xmlns="http://www.w3.org/2000/svg" xmlns:xlink="http://www.w3.org/1999/xlink" version="1.1" viewBox="-10 0 660 512">
   <path fill="currentColor"
d="M581 96q17 0 30.5 10t21 25.5t7.5 32.5v92q0 13 -9.5 22.5t-22.5 9.5v32q0 7 -4.5 11.5t-11.5 4.5h-32q-7 0 -11.5 -4.5t-4.5 -11.5v-32h-128v176q0 7 -4.5 11.5t-11.5 4.5h-64q-7 0 -11.5 -4.5t-4.5 -11.5v-71q-51 23 -112 23t-112 -23v71q0 7 -4.5 11.5t-11.5 4.5h-64
q-7 0 -11.5 -4.5t-4.5 -11.5v-240q0 -66 56 -113t136 -47q73 0 128 41v-49q0 -10 7 -17t17 -7h16q10 0 17 7t7 17v14q17 -6 32 -6q20 0 37.5 7.5t30.5 21t21 30.5q7 -3 22.5 -10.5t28.5 -12t25 -4.5zM448 176q7 0 11.5 -4.5t4.5 -11.5t-4.5 -11.5t-11.5 -4.5t-11.5 4.5
t-4.5 11.5t4.5 11.5t11.5 4.5z" />
</svg>
