<?xml version="1.0" standalone="no"?>
<!DOCTYPE svg PUBLIC "-//W3C//DTD SVG 1.1//EN" "http://www.w3.org/Graphics/SVG/1.1/DTD/svg11.dtd" >
<svg xmlns="http://www.w3.org/2000/svg" xmlns:xlink="http://www.w3.org/1999/xlink" version="1.1" viewBox="-10 0 524 512">
   <path fill="currentColor"
d="M504 255.5q0 102.5 -72.5 175.5t-175.5 73q-88 0 -156 -55q-8 -7 -8.5 -17.5t7.5 -18.5l11 -11q6 -6 15.5 -6.5t16.5 4.5q50 40 114 40q76 0 130 -54t54 -130t-54 -130t-130 -54q-73 0 -126 50l51 51q7 7 3 17t-15 10h-145q-7 0 -11.5 -4.5t-4.5 -11.5v-145q0 -11 10 -15
t17 3l50 50q72 -69 171 -69q103 0 175.5 72.5t72.5 175zM323 334q-6 8 -16 9.5t-18 -4.5l-65 -51v-136q0 -10 7 -17t17 -7h16q10 0 17 7t7 17v104l41 32q8 6 9 16t-5 18z" />
</svg>
