<?xml version="1.0" standalone="no"?>
<!DOCTYPE svg PUBLIC "-//W3C//DTD SVG 1.1//EN" "http://www.w3.org/Graphics/SVG/1.1/DTD/svg11.dtd" >
<svg xmlns="http://www.w3.org/2000/svg" xmlns:xlink="http://www.w3.org/1999/xlink" version="1.1" viewBox="-10 0 468 512">
   <path fill="currentColor"
d="M377 54q34 31 53 76t17.5 120t-32.5 166q-9 27 -32 46.5t-49 28.5t-51.5 14.5t-41.5 5.5l-17 1q-6 0 -17 -0.5t-40.5 -6t-53.5 -14.5t-47.5 -28.5t-32.5 -46.5q-31 -91 -32.5 -166t17.5 -120t53 -76q63 -54 153 -54t153 54zM288 64q-7 0 -11.5 4.5t-4.5 11.5t4.5 11.5
t11.5 4.5t11.5 -4.5t4.5 -11.5t-4.5 -11.5t-11.5 -4.5zM160 64q-7 0 -11.5 4.5t-4.5 11.5t4.5 11.5t11.5 4.5t11.5 -4.5t4.5 -11.5t-4.5 -11.5t-11.5 -4.5zM176 464q7 0 11.5 -4.5t4.5 -11.5t-4.5 -11.5t-11.5 -4.5t-11.5 4.5t-4.5 11.5t4.5 11.5t11.5 4.5zM176 400
q7 0 11.5 -4.5t4.5 -11.5t-4.5 -11.5t-11.5 -4.5t-11.5 4.5t-4.5 11.5t4.5 11.5t11.5 4.5zM176 336q7 0 11.5 -4.5t4.5 -11.5t-4.5 -11.5t-11.5 -4.5t-11.5 4.5t-4.5 11.5t4.5 11.5t11.5 4.5zM128 272q27 0 45.5 -18.5t18.5 -45.5q0 -13 -9.5 -22.5t-22.5 -9.5h-64
q-13 0 -22.5 9.5t-9.5 22.5q0 27 18.5 45.5t45.5 18.5zM224 144q7 0 11.5 -4.5t4.5 -11.5t-4.5 -11.5t-11.5 -4.5t-11.5 4.5t-4.5 11.5t4.5 11.5t11.5 4.5zM272 464q7 0 11.5 -4.5t4.5 -11.5t-4.5 -11.5t-11.5 -4.5t-11.5 4.5t-4.5 11.5t4.5 11.5t11.5 4.5zM272 400
q7 0 11.5 -4.5t4.5 -11.5t-4.5 -11.5t-11.5 -4.5t-11.5 4.5t-4.5 11.5t4.5 11.5t11.5 4.5zM272 336q7 0 11.5 -4.5t4.5 -11.5t-4.5 -11.5t-11.5 -4.5t-11.5 4.5t-4.5 11.5t4.5 11.5t11.5 4.5zM320 272q27 0 45.5 -18.5t18.5 -45.5q0 -13 -9.5 -22.5t-22.5 -9.5h-64
q-13 0 -22.5 9.5t-9.5 22.5q0 27 18.5 45.5t45.5 18.5z" />
</svg>
