<?xml version="1.0" standalone="no"?>
<!DOCTYPE svg PUBLIC "-//W3C//DTD SVG 1.1//EN" "http://www.w3.org/Graphics/SVG/1.1/DTD/svg11.dtd" >
<svg xmlns="http://www.w3.org/2000/svg" xmlns:xlink="http://www.w3.org/1999/xlink" version="1.1" viewBox="-11 0 469 512">
   <path fill="currentColor"
d="M144 192q-20 0 -34 -14t-14 -34t14 -34t34 -14t34 14t14 34t-14 34t-34 14zM256 144q0 -20 14 -34t34 -14t34 14t14 34t-14 34t-34 14t-34 -14t-14 -34zM224 96q-20 0 -34 -14t-14 -34t14 -34t34 -14t34 14t14 34t-14 34t-34 14zM208 235q-1 61 23 112q3 7 -1 13.5
t-11 7.5q-23 2 -45 9q-11 3 -17 13t-3 22q5 23 14 44q3 6 -0.5 12.5t-10.5 7.5q-55 5 -105 34q-9 5 -18.5 -0.5t-9.5 -15.5q0 -58 -23 -108q-2 -5 -1 -9t4.5 -7.5t8.5 -3.5q22 -2 45 -9q11 -4 17 -14t3 -21q-5 -24 -14 -44q-3 -7 0.5 -13.5t10.5 -6.5q57 -6 109 -37
q8 -4 16 0.5t8 13.5zM435 366q7 0 11 6.5t0 13.5q-22 49 -22 107q0 11 -9.5 16.5t-18.5 -0.5q-50 -28 -105 -33q-7 -1 -11 -7.5t0 -13.5q9 -21 14 -43q3 -12 -3 -22t-17 -14q-1 0 -15 -3q10 -20 1 -39q-20 -43 -20 -94v-2.5v-2.5q0 -9 8 -14t16 0q52 31 109 36q7 1 10.5 7.5
t0.5 13.5q-9 21 -14 43q-3 12 3 22t17 13q23 7 45 10z" />
</svg>
