<?xml version="1.0" standalone="no"?>
<!DOCTYPE svg PUBLIC "-//W3C//DTD SVG 1.1//EN" "http://www.w3.org/Graphics/SVG/1.1/DTD/svg11.dtd" >
<svg xmlns="http://www.w3.org/2000/svg" xmlns:xlink="http://www.w3.org/1999/xlink" version="1.1" viewBox="-10 0 596 512">
   <path fill="currentColor"
d="M288 192q35 0 64.5 17t46.5 46.5t17 64.5v192h-256v-192q0 -53 37.5 -90.5t90.5 -37.5zM570 461q6 8 6 19q0 13 -9.5 22.5t-22.5 9.5h-96v-192q0 -66 -47 -113t-113 -47t-113 47t-47 113v192h-96q-9 0 -16.5 -4.5t-11.5 -12t-4 -15.5q0 -11 6 -19q26 -34 40.5 -69.5
t15.5 -53.5l2 -18v-64q0 -53 21.5 -101.5t54.5 -81.5t72.5 -53t75.5 -20h149q13 0 18 12t-4 22l-40 39q4 5 22 24t22.5 24.5t17.5 21.5t17 25t11 24.5t9 30.5t2 33v64q0 3 0.5 7.5t3.5 19.5t8.5 31t17 38.5t28.5 44.5z" />
</svg>
