<?xml version="1.0" standalone="no"?>
<!DOCTYPE svg PUBLIC "-//W3C//DTD SVG 1.1//EN" "http://www.w3.org/Graphics/SVG/1.1/DTD/svg11.dtd" >
<svg xmlns="http://www.w3.org/2000/svg" xmlns:xlink="http://www.w3.org/1999/xlink" version="1.1" viewBox="-10 0 596 512">
   <path fill="currentColor"
d="M128 160q0 34 23.5 61.5t56.5 32.5v73l-22 -4l-24 64l27 105v4q0 7 -4.5 11.5t-11.5 4.5h-66q-12 0 -15 -12l-25 -100q-2 -7 -2 -15q0 -12 4 -23l26 -68q-13 -12 -22 -32.5t-9 -37.5q0 -2 0.5 -4.5t0.5 -3.5q-17 13 -17 32v56q0 7 -4.5 11.5t-11.5 4.5h-16
q-7 0 -11.5 -4.5t-4.5 -11.5v-56q0 -36 26 -62t62 -26v1q17 -19 40 -27v26zM288 160q0 26 -19 45t-45 19t-45 -19t-19 -45v-32h128v32zM576 77v77q0 9 -6 18t-14 12l-33 13q-5 2 -12 2q-8 0 -16.5 -5t-11.5 -12l-19 -38l-16 -7v102v1q0 12 -4.5 27t-11.5 28.5t-16 22.5v178
q0 7 -4.5 11.5t-11.5 4.5h-64q-7 0 -11.5 -4.5t-4.5 -11.5v-150l-80 -14v-78q33 -5 56.5 -32.5t23.5 -61.5v-33q0 -53 37.5 -90t90.5 -37h120q8 0 8 8v2q-4 19 -22 30q3 3 7.5 8t5.5 7q9 9 9 21v1zM512 96q7 0 11.5 -4.5t4.5 -11.5t-4.5 -11.5t-11.5 -4.5t-11.5 4.5
t-4.5 11.5t4.5 11.5t11.5 4.5z" />
</svg>
