<?xml version="1.0" standalone="no"?>
<!DOCTYPE svg PUBLIC "-//W3C//DTD SVG 1.1//EN" "http://www.w3.org/Graphics/SVG/1.1/DTD/svg11.dtd" >
<svg xmlns="http://www.w3.org/2000/svg" xmlns:xlink="http://www.w3.org/1999/xlink" version="1.1" viewBox="-10 0 660 512">
   <path fill="currentColor"
d="M480 320q-40 0 -68 -28t-28 -68t28 -68t68 -28t68 28t28 68t-28 68t-68 28zM528 352q46 0 79 33t33 79v1q0 19 -14 33t-34 14h-224q-20 0 -34 -14t-14 -33v-1q0 -46 33 -79t79 -33v0q4 0 7 1q20 7 41 7t41 -7q3 -1 7 -1zM330 362q-17 18 -29.5 47.5t-12.5 54.5v1
q0 26 16 47h-288q-7 0 -11.5 -4.5t-4.5 -11.5v-368q0 -13 9.5 -22.5t22.5 -9.5h32v-64q0 -13 9.5 -22.5t22.5 -9.5h160q13 0 22.5 9.5t9.5 22.5v64h32q13 0 22.5 9.5t9.5 22.5v217q-12 7 -22 17zM144 404v-40q0 -12 -12 -12h-40q-12 0 -12 12v40q0 12 12 12h40q12 0 12 -12z
M144 276v-40q0 -12 -12 -12h-40q-12 0 -12 12v40q0 12 12 12h40q12 0 12 -12zM192 154v-26h26q6 0 6 -6v-20q0 -6 -6 -6h-26v-26q0 -6 -6 -6h-20q-6 0 -6 6v26h-26q-6 0 -6 6v20q0 6 6 6h26v26q0 6 6 6h20q6 0 6 -6zM272 404v-40q0 -12 -12 -12h-40q-12 0 -12 12v40
q0 12 12 12h40q12 0 12 -12zM272 276v-40q0 -12 -12 -12h-40q-12 0 -12 12v40q0 12 12 12h40q12 0 12 -12z" />
</svg>
