<?xml version="1.0" standalone="no"?>
<!DOCTYPE svg PUBLIC "-//W3C//DTD SVG 1.1//EN" "http://www.w3.org/Graphics/SVG/1.1/DTD/svg11.dtd" >
<svg xmlns="http://www.w3.org/2000/svg" xmlns:xlink="http://www.w3.org/1999/xlink" version="1.1" viewBox="-10 0 532 512">
   <path fill="currentColor"
d="M256 0q106 0 181 75t75 181t-75 181t-181 75t-181 -75t-75 -181t75 -181t181 -75zM368 376v-240q0 -8 -8 -8h-48q-8 0 -8 8v88h-96v-88q0 -8 -8 -8h-48q-8 0 -8 8v240q0 8 8 8h48q8 0 8 -8v-88h96v88q0 8 8 8h48q8 0 8 -8z" />
</svg>
