<?xml version="1.0" standalone="no"?>
<!DOCTYPE svg PUBLIC "-//W3C//DTD SVG 1.1//EN" "http://www.w3.org/Graphics/SVG/1.1/DTD/svg11.dtd" >
<svg xmlns="http://www.w3.org/2000/svg" xmlns:xlink="http://www.w3.org/1999/xlink" version="1.1" viewBox="-10 0 660 512">
   <path fill="currentColor"
d="M256 96q13 0 22.5 9.5t9.5 22.5v352q0 13 -9.5 22.5t-22.5 9.5h-224q-13 0 -22.5 -9.5t-9.5 -22.5v-352q0 -13 9.5 -22.5t22.5 -9.5v-64q0 -13 9.5 -22.5t22.5 -9.5h160q13 0 22.5 9.5t9.5 22.5v64zM128 404v-40q0 -12 -12 -12h-40q-12 0 -12 12v40q0 12 12 12h40
q12 0 12 -12zM128 276v-40q0 -12 -12 -12h-40q-12 0 -12 12v40q0 12 12 12h40q12 0 12 -12zM154 160q6 0 6 -6v-26h26q6 0 6 -6v-20q0 -6 -6 -6h-26v-26q0 -6 -6 -6h-20q-6 0 -6 6v26h-26q-6 0 -6 6v20q0 6 6 6h26v26q0 6 6 6h20zM224 404v-40q0 -12 -12 -12h-40
q-12 0 -12 12v40q0 12 12 12h40q12 0 12 -12zM224 276v-40q0 -12 -12 -12h-40q-12 0 -12 12v40q0 12 12 12h40q12 0 12 -12zM608 96q13 0 22.5 9.5t9.5 22.5v352q0 13 -9.5 22.5t-22.5 9.5h-224q-13 0 -22.5 -9.5t-9.5 -22.5v-352q0 -13 9.5 -22.5t22.5 -9.5v-64
q0 -13 9.5 -22.5t22.5 -9.5h160q13 0 22.5 9.5t9.5 22.5v64zM480 404v-40q0 -12 -12 -12h-40q-12 0 -12 12v40q0 12 12 12h40q12 0 12 -12zM480 276v-40q0 -12 -12 -12h-40q-12 0 -12 12v40q0 12 12 12h40q12 0 12 -12zM506 160q6 0 6 -6v-26h26q6 0 6 -6v-20q0 -6 -6 -6
h-26v-26q0 -6 -6 -6h-20q-6 0 -6 6v26h-26q-6 0 -6 6v20q0 6 6 6h26v26q0 6 6 6h20zM576 404v-40q0 -12 -12 -12h-40q-12 0 -12 12v40q0 12 12 12h40q12 0 12 -12zM576 276v-40q0 -12 -12 -12h-40q-12 0 -12 12v40q0 12 12 12h40q12 0 12 -12z" />
</svg>
