<?xml version="1.0" standalone="no"?>
<!DOCTYPE svg PUBLIC "-//W3C//DTD SVG 1.1//EN" "http://www.w3.org/Graphics/SVG/1.1/DTD/svg11.dtd" >
<svg xmlns="http://www.w3.org/2000/svg" xmlns:xlink="http://www.w3.org/1999/xlink" version="1.1" viewBox="-10 0 596 512">
   <path fill="currentColor"
d="M544 96q13 0 22.5 9.5t9.5 22.5v368q0 7 -4.5 11.5t-11.5 4.5h-544q-7 0 -11.5 -4.5t-4.5 -11.5v-368q0 -13 9.5 -22.5t22.5 -9.5h128v-64q0 -13 9.5 -22.5t22.5 -9.5h192q13 0 22.5 9.5t9.5 22.5v64h128zM160 436v-40q0 -12 -12 -12h-40q-12 0 -12 12v40q0 12 12 12h40
q12 0 12 -12zM160 308v-40q0 -12 -12 -12h-40q-12 0 -12 12v40q0 12 12 12h40q12 0 12 -12zM320 436v-40q0 -12 -12 -12h-40q-12 0 -12 12v40q0 12 12 12h40q12 0 12 -12zM320 308v-40q0 -12 -12 -12h-40q-12 0 -12 12v40q0 12 12 12h40q12 0 12 -12zM336 138v-20
q0 -6 -6 -6h-26v-26q0 -6 -6 -6h-20q-6 0 -6 6v26h-26q-6 0 -6 6v20q0 6 6 6h26v26q0 6 6 6h20q6 0 6 -6v-26h26q6 0 6 -6zM480 436v-40q0 -12 -12 -12h-40q-12 0 -12 12v40q0 12 12 12h40q12 0 12 -12zM480 308v-40q0 -12 -12 -12h-40q-12 0 -12 12v40q0 12 12 12h40
q12 0 12 -12z" />
</svg>
