<?xml version="1.0" standalone="no"?>
<!DOCTYPE svg PUBLIC "-//W3C//DTD SVG 1.1//EN" "http://www.w3.org/Graphics/SVG/1.1/DTD/svg11.dtd" >
<svg xmlns="http://www.w3.org/2000/svg" xmlns:xlink="http://www.w3.org/1999/xlink" version="1.1" viewBox="-10 0 532 512">
   <path fill="currentColor"
d="M414 178q-5 -40 -32 -62q-43 -36 -50 -98q-1 -7 4 -12.5t12 -5.5h16q14 0 16 14q5 40 32 62q43 36 50 98q1 7 -4 12.5t-12 5.5h-16q-14 0 -16 -14zM306 178q-5 -40 -32 -62q-43 -36 -50 -98q-1 -7 4 -12.5t12 -5.5h16q14 0 16 14q5 40 32 62q43 36 50 98q1 7 -4 12.5
t-12 5.5h-16q-14 0 -16 -14zM480 256q13 0 22.5 9.5t9.5 22.5v160q0 27 -18.5 45.5t-45.5 18.5h-384q-27 0 -45.5 -18.5t-18.5 -45.5v-224q0 -27 18.5 -45.5t45.5 -18.5h43q21 0 38 13l111 83h224zM128 440v-112q0 -8 -8 -8h-16q-8 0 -8 8v112q0 8 8 8h16q8 0 8 -8zM224 440
v-112q0 -8 -8 -8h-16q-8 0 -8 8v112q0 8 8 8h16q8 0 8 -8zM320 440v-112q0 -8 -8 -8h-16q-8 0 -8 8v112q0 8 8 8h16q8 0 8 -8zM416 440v-112q0 -8 -8 -8h-16q-8 0 -8 8v112q0 8 8 8h16q8 0 8 -8zM64 128q-27 0 -45.5 -18.5t-18.5 -45.5t18.5 -45.5t45.5 -18.5t45.5 18.5
t18.5 45.5t-18.5 45.5t-45.5 18.5z" />
</svg>
