<?xml version="1.0" standalone="no"?>
<!DOCTYPE svg PUBLIC "-//W3C//DTD SVG 1.1//EN" "http://www.w3.org/Graphics/SVG/1.1/DTD/svg11.dtd" >
<svg xmlns="http://www.w3.org/2000/svg" xmlns:xlink="http://www.w3.org/1999/xlink" version="1.1" viewBox="-11 0 534 512">
   <path fill="currentColor"
d="M489 23q4 5 8.5 12t7.5 14.5t5 15.5t2 15q0 14 -7 30.5t-16 26.5l-352 352q-10 10 -27 17t-31 7q-33 0 -56.5 -23.5t-23.5 -56.5q0 -14 7 -31t17 -27l352 -352q10 -9 26.5 -16t30.5 -7t30.5 7t26.5 16zM439 119q4 -5 4 -11.5t-4.5 -11.5t-11 -5t-11.5 5q-12 12 -35 16
q-32 6 -51.5 25.5t-25.5 51.5q-4 23 -16 35t-35 16q-32 6 -51.5 25.5t-25.5 51.5q-4 23 -16 35t-35 16q-32 6 -52 25q-4 5 -4 11.5t4.5 11.5t11 5t11.5 -5q12 -12 35 -16q32 -6 51.5 -25.5t25.5 -51.5q4 -23 16 -35t35 -16q32 -6 51.5 -25.5t25.5 -51.5q4 -23 16 -35t35 -16
q32 -6 52 -25zM31 322l-11 -11q-19 -19 -20 -44.5t16 -42.5l208 -208q17 -17 42.5 -16t44.5 20l11 11zM481 190l11 11q19 19 20 44.5t-16 42.5l-208 208q-17 17 -42.5 16t-44.5 -20l-11 -11z" />
</svg>
