<?xml version="1.0" standalone="no"?>
<!DOCTYPE svg PUBLIC "-//W3C//DTD SVG 1.1//EN" "http://www.w3.org/Graphics/SVG/1.1/DTD/svg11.dtd" >
<svg xmlns="http://www.w3.org/2000/svg" xmlns:xlink="http://www.w3.org/1999/xlink" version="1.1" viewBox="-10 0 596 512">
   <path fill="currentColor"
d="M560 64h-16v384h16q7 0 11.5 4.5t4.5 11.5v32q0 7 -4.5 11.5t-11.5 4.5h-240v-80q0 -7 -4.5 -11.5t-11.5 -4.5h-32q-7 0 -11.5 4.5t-4.5 11.5v80h-240q-7 0 -11.5 -4.5t-4.5 -11.5v-32q0 -7 4.5 -11.5t11.5 -4.5h16v-384h-16q-7 0 -11.5 -4.5t-4.5 -11.5v-32
q0 -7 4.5 -11.5t11.5 -4.5h544q7 0 11.5 4.5t4.5 11.5v32q0 7 -4.5 11.5t-11.5 4.5zM256 109v38q0 5 4 9t9 4h38q5 0 9 -4t4 -9v-38q0 -5 -4 -9t-9 -4h-38q-5 0 -9 4t-4 9zM256 205v38q0 5 4 9t9 4h38q5 0 9 -4t4 -9v-38q0 -5 -4 -9t-9 -4h-38q-5 0 -9 4t-4 9zM128 109v38
q0 5 4 9t9 4h38q5 0 9 -4t4 -9v-38q0 -5 -4 -9t-9 -4h-38q-5 0 -9 4t-4 9zM179 256q5 0 9 -4t4 -9v-38q0 -5 -4 -9t-9 -4h-38q-5 0 -9 4t-4 9v38q0 5 4 9t9 4h38zM192 384h192q0 -40 -28 -68t-68 -28t-68 28t-28 68zM448 243v-38q0 -5 -4 -9t-9 -4h-38q-5 0 -9 4t-4 9v38
q0 5 4 9t9 4h38q5 0 9 -4t4 -9zM448 147v-38q0 -5 -4 -9t-9 -4h-38q-5 0 -9 4t-4 9v38q0 5 4 9t9 4h38q5 0 9 -4t4 -9z" />
</svg>
