<?xml version="1.0" standalone="no"?>
<!DOCTYPE svg PUBLIC "-//W3C//DTD SVG 1.1//EN" "http://www.w3.org/Graphics/SVG/1.1/DTD/svg11.dtd" >
<svg xmlns="http://www.w3.org/2000/svg" xmlns:xlink="http://www.w3.org/1999/xlink" version="1.1" viewBox="-10 0 596 512">
   <path fill="currentColor"
d="M21 244q-10 -12 2 -23l239 -211q11 -10 26 -10t26 10l102 90v-52q0 -7 4.5 -11.5t11.5 -4.5h32q7 0 11.5 4.5t4.5 11.5v109l73 64q12 11 2 23l-22 24q-10 12 -22 1l-223 -197l-223 197q-12 11 -22 -1zM562 448q6 1 10 5.5t4 10.5v32q0 4 -2.5 8t-6 6t-8.5 2
q-43 -4 -79 -26q-41 26 -95 26t-97 -26q-41 26 -95 26t-97 -26q-35 22 -79 26q-5 0 -8.5 -2t-6 -6t-2.5 -8v-32q0 -6 4 -10.5t10 -5.5q33 -4 57 -22q11 -9 24 -10t23 8q29 23 73 23.5t73 -22.5q10 -8 23 -9t23 8q29 23 73.5 23.5t72.5 -22.5q11 -8 24.5 -8t23.5 8
q25 19 58 23zM288 115l192 170v100q-25 0 -44 15q-19 16 -52 16t-53 -17q-18 -15 -42 -15q-25 0 -45 16t-52 16q-33 0 -53 -17q-18 -15 -42 -15h-1v-99zM320 224h-64q-7 0 -11.5 4.5t-4.5 11.5v64q0 7 4.5 11.5t11.5 4.5h64q7 0 11.5 -4.5t4.5 -11.5v-64q0 -7 -4.5 -11.5
t-11.5 -4.5z" />
</svg>
