<?xml version="1.0" standalone="no"?>
<!DOCTYPE svg PUBLIC "-//W3C//DTD SVG 1.1//EN" "http://www.w3.org/Graphics/SVG/1.1/DTD/svg11.dtd" >
<svg xmlns="http://www.w3.org/2000/svg" xmlns:xlink="http://www.w3.org/1999/xlink" version="1.1" viewBox="-10 0 404 512">
   <path fill="currentColor"
d="M368 240h-100l-34 32h134q7 0 11.5 4.5t4.5 11.5v32q0 7 -4.5 11.5t-11.5 4.5h-204l-29 27q-7 7 -7 16t6 15t15 6h84q9 0 15 -6l12 -9q8 -7 17.5 -6t16.5 9l20 24q7 8 6 18t-9 16l-12 10q-29 24 -66 24h-79q-19 0 -36.5 -5.5t-32 -17t-23.5 -27.5q-27 -46 -4 -94h-42
q-7 0 -11.5 -4.5t-4.5 -11.5v-32q0 -7 4.5 -11.5t11.5 -4.5h100l34 -32h-134q-7 0 -11.5 -4.5t-4.5 -11.5v-32q0 -7 4.5 -11.5t11.5 -4.5h204l29 -27q7 -7 7 -16t-6 -15t-15 -6h-84q-9 0 -15 6l-12 9q-8 7 -17.5 6t-16.5 -9l-20 -24q-7 -8 -6 -18t9 -16l12 -10
q29 -24 66 -24h79q28 0 53 13t39 37q27 46 4 94h42q7 0 11.5 4.5t4.5 11.5v32q0 7 -4.5 11.5t-11.5 4.5z" />
</svg>
