<?xml version="1.0" standalone="no"?>
<!DOCTYPE svg PUBLIC "-//W3C//DTD SVG 1.1//EN" "http://www.w3.org/Graphics/SVG/1.1/DTD/svg11.dtd" >
<svg xmlns="http://www.w3.org/2000/svg" xmlns:xlink="http://www.w3.org/1999/xlink" version="1.1" viewBox="-10 0 404 512">
   <path fill="currentColor"
d="M224 22q14 43 36 82t42.5 65t39.5 51.5t30.5 54t11.5 59.5q0 74 -56 126t-136 52t-136 -52t-56 -126q0 -20 5 -39t13 -34.5t19.5 -32.5t23.5 -32.5t26 -35t26.5 -39t25 -45.5t21.5 -54q8 -22 32.5 -22t31.5 22zM96 288q0 13 9.5 22.5t22.5 9.5t22.5 -9.5t9.5 -22.5
t-9.5 -22.5t-22.5 -9.5t-22.5 9.5t-9.5 22.5zM146 420l118 -148q5 -6 -2 -11l-12 -10q-6 -5 -11 1l-118 148q-5 6 1 11l12 10q6 5 12 -1zM256 416q13 0 22.5 -9.5t9.5 -22.5t-9.5 -22.5t-22.5 -9.5t-22.5 9.5t-9.5 22.5t9.5 22.5t22.5 9.5z" />
</svg>
