<?xml version="1.0" standalone="no"?>
<!DOCTYPE svg PUBLIC "-//W3C//DTD SVG 1.1//EN" "http://www.w3.org/Graphics/SVG/1.1/DTD/svg11.dtd" >
<svg xmlns="http://www.w3.org/2000/svg" xmlns:xlink="http://www.w3.org/1999/xlink" version="1.1" viewBox="-10 0 458 512">
   <path fill="currentColor"
d="M368 160q20 0 34 14t14 34t-14 34t-34 14h-288q-20 0 -34 -14t-14 -34t14 -34t34 -14h1q-1 -8 -1 -16q0 -60 42 -102t102 -42t102 42t42 102q0 8 -1 16h1zM195 494l-99 -206h256l-99 206q-4 7 -12.5 12.5t-16.5 5.5t-16.5 -5.5t-12.5 -12.5z" />
</svg>
