<?xml version="1.0" standalone="no"?>
<!DOCTYPE svg PUBLIC "-//W3C//DTD SVG 1.1//EN" "http://www.w3.org/Graphics/SVG/1.1/DTD/svg11.dtd" >
<svg xmlns="http://www.w3.org/2000/svg" xmlns:xlink="http://www.w3.org/1999/xlink" version="1.1" viewBox="-11 0 534 512">
   <path fill="currentColor"
d="M117 219l-97 -99q-21 -22 -20 -53t25 -51q21 -18 47.5 -15.5t45.5 21.5l10 11l10 -11q19 -19 45.5 -21.5t47.5 15.5q24 20 25 51t-20 53l-97 99q-4 5 -11 5t-11 -5zM261 320q11 0 19 8t8 19v138q0 5 -2 10t-6 9t-9 6t-10 2h-234q-11 0 -19 -8t-8 -19v-138q0 -11 8 -19
t19 -8h48l7 -14q3 -8 10.5 -13t15.5 -5h72q8 0 15.5 5t9.5 13l8 14h48zM144 468q22 0 37 -15t15 -37t-15 -37t-37 -15t-37 15t-15 37t15 37t37 15zM499 352q8 0 11.5 5.5t-0.5 10.5l-92 139q-4 5 -10.5 5t-10.5 -4t-2 -9l24 -83h-62q-6 0 -10 -3.5t-3 -8.5l17 -107
q1 -9 12 -9h76q6 0 10 4t2 9l-22 51h60zM478 0q14 -2 24 7.5t10 24.5v144q0 20 -19 34t-45.5 14t-45 -14t-18.5 -34t18.5 -34t45.5 -14q8 0 16 2v-48l-112 18v108q0 20 -19 34t-45.5 14t-45 -14t-18.5 -34t18.5 -34t45.5 -14q8 0 16 2v-107q0 -12 7.5 -21t18.5 -11z" />
</svg>
