<?xml version="1.0" standalone="no"?>
<!DOCTYPE svg PUBLIC "-//W3C//DTD SVG 1.1//EN" "http://www.w3.org/Graphics/SVG/1.1/DTD/svg11.dtd" >
<svg xmlns="http://www.w3.org/2000/svg" xmlns:xlink="http://www.w3.org/1999/xlink" version="1.1" viewBox="-11 0 533 512">
   <path fill="currentColor"
d="M16 160q-7 0 -11.5 -4.5t-4.5 -11.5v-32q0 -7 4.5 -11.5t11.5 -4.5h192q7 0 11.5 4.5t4.5 11.5v32q0 7 -4.5 11.5t-11.5 4.5h-64v48q0 7 -4.5 11.5t-11.5 4.5h-32q-7 0 -11.5 -4.5t-4.5 -11.5v-48h-64zM16 64q-7 0 -11.5 -4.5t-4.5 -11.5v-32q0 -7 4.5 -11.5t11.5 -4.5
h192q7 0 11.5 4.5t4.5 11.5v32q0 7 -4.5 11.5t-11.5 4.5h-192zM478 0q14 -2 24 7.5t10 24.5v144q0 20 -19 34t-45 14q-27 0 -45.5 -14t-18.5 -34t18.5 -34t45.5 -14q8 0 16 2v-48l-112 18v108q0 20 -19 34t-45 14q-27 0 -45.5 -14t-18.5 -34t18.5 -34t45.5 -14q8 0 16 2
v-107q0 -12 7.5 -21t18.5 -11zM328 368q-17 0 -28.5 -11.5t-11.5 -28.5t11.5 -28.5t28.5 -11.5t28.5 11.5t11.5 28.5t-11.5 28.5t-28.5 11.5zM220 384q4 5 4 11.5t-4 11.5l-28 27l27 28q5 5 5 11.5t-5 11.5l-22 22q-5 5 -11.5 5t-11.5 -5l-28 -27l-8 8q-10 10 -27 17t-31 7
q-16 0 -35 -9t-29 -22q-19 -25 -15.5 -56.5t25.5 -54.5l7 -7q-17 -18 -17 -43q0 -27 19 -45.5t45.5 -18.5t45 18.5t18.5 45.5q0 11 -6 25t-14 21l22 23l28 -28q5 -4 11.5 -4t11.5 4zM80 304q-7 0 -11.5 4.5t-4.5 11.5t4.5 11.5t11.5 4.5t11.5 -4.5t4.5 -11.5t-4.5 -11.5
t-11.5 -4.5zM93 443l8 -9l-24 -24l-9 8q-5 6 -5 13t5 12t12.5 5t12.5 -5zM485 293l22 22q5 5 5 11.5t-5 11.5l-169 169q-5 5 -11.5 5t-11.5 -5l-22 -22q-5 -5 -5 -11.5t5 -11.5l169 -169q5 -5 11.5 -5t11.5 5zM472 432q17 0 28.5 11.5t11.5 28.5t-11.5 28.5t-28.5 11.5
t-28.5 -11.5t-11.5 -28.5t11.5 -28.5t28.5 -11.5z" />
</svg>
