<?xml version="1.0" standalone="no"?>
<!DOCTYPE svg PUBLIC "-//W3C//DTD SVG 1.1//EN" "http://www.w3.org/Graphics/SVG/1.1/DTD/svg11.dtd" >
<svg xmlns="http://www.w3.org/2000/svg" xmlns:xlink="http://www.w3.org/1999/xlink" version="1.1" viewBox="-10 0 596 512">
   <path fill="currentColor"
d="M528 64q20 0 34 14t14 34v352q0 20 -14 34t-34 14h-480q-20 0 -34 -14t-14 -34v-352q0 -20 14 -34t34 -14h144v96h192v-96h144zM288 224q-26 0 -45 19t-19 45t19 45t45 19t45 -19t19 -45t-19 -45t-45 -19zM381 448q8 0 13 -6.5t3 -13.5q-6 -19 -23 -31.5t-38 -12.5h-8
q-19 8 -40 8t-40 -8h-8q-14 0 -26.5 5.5t-21.5 15.5t-13 23q-2 7 3 13.5t13 6.5h186zM352 32v96h-128v-96q0 -13 9.5 -22.5t22.5 -9.5h64q13 0 22.5 9.5t9.5 22.5z" />
</svg>
