<?xml version="1.0" standalone="no"?>
<!DOCTYPE svg PUBLIC "-//W3C//DTD SVG 1.1//EN" "http://www.w3.org/Graphics/SVG/1.1/DTD/svg11.dtd" >
<svg xmlns="http://www.w3.org/2000/svg" xmlns:xlink="http://www.w3.org/1999/xlink" version="1.1" viewBox="-10 0 468 512">
   <path fill="currentColor"
d="M27 363q-7 8 -17 4t-10 -15v-192q0 -11 10 -15t17 4l96 96q5 4 5 11t-5 11zM432 416q7 0 11.5 4.5t4.5 11.5v32q0 7 -4.5 11.5t-11.5 4.5h-416q-7 0 -11.5 -4.5t-4.5 -11.5v-32q0 -7 4.5 -11.5t11.5 -4.5h416zM435 288q5 0 9 4t4 9v38q0 5 -4 9t-9 4h-230q-5 0 -9 -4
t-4 -9v-38q0 -5 4 -9t9 -4h230zM435 160q5 0 9 4t4 9v38q0 5 -4 9t-9 4h-230q-5 0 -9 -4t-4 -9v-38q0 -5 4 -9t9 -4h230zM432 32q7 0 11.5 4.5t4.5 11.5v32q0 7 -4.5 11.5t-11.5 4.5h-416q-7 0 -11.5 -4.5t-4.5 -11.5v-32q0 -7 4.5 -11.5t11.5 -4.5h416z" />
</svg>
