<?xml version="1.0" standalone="no"?>
<!DOCTYPE svg PUBLIC "-//W3C//DTD SVG 1.1//EN" "http://www.w3.org/Graphics/SVG/1.1/DTD/svg11.dtd" >
<svg xmlns="http://www.w3.org/2000/svg" xmlns:xlink="http://www.w3.org/1999/xlink" version="1.1" viewBox="-10 0 404 512">
   <path fill="currentColor"
d="M167 34q87 -12 152 46t65 144v240q0 7 -4.5 11.5t-11.5 4.5h-64q-7 0 -11.5 -4.5t-4.5 -11.5v-236q0 -17 -5.5 -33.5t-15.5 -29.5t-24.5 -22.5t-31.5 -12.5q-45 -9 -80 20t-35 74v240q0 7 -4.5 11.5t-11.5 4.5h-64q-7 0 -11.5 -4.5t-4.5 -11.5v-233q0 -74 47.5 -131
t119.5 -66z" />
</svg>
