<?xml version="1.0" standalone="no"?>
<!DOCTYPE svg PUBLIC "-//W3C//DTD SVG 1.1//EN" "http://www.w3.org/Graphics/SVG/1.1/DTD/svg11.dtd" >
<svg xmlns="http://www.w3.org/2000/svg" xmlns:xlink="http://www.w3.org/1999/xlink" version="1.1" viewBox="-11 0 469 512">
   <path fill="currentColor"
d="M337 32q42 0 73.5 23.5t37.5 58.5v2q0 5 -3.5 8.5t-8.5 3.5h-1h-35l-16 -32l-16 32h-102q31 130 19 232q26 8 47 25.5t34.5 41.5t17.5 51q2 14 -8 24t-24 10h-320q-10 0 -17.5 -5t-11.5 -14t-3 -18q8 -51 49.5 -87t93.5 -36h53q26 -110 21 -202l-71 71q-4 4 -9.5 3
t-8.5 -5q-19 -27 -15 -62t29 -61h-30l-16 -32l-16 32h-35h-1q-5 0 -8.5 -3.5t-3.5 -8.5v-2q6 -35 37.5 -58.5t73.5 -23.5q38 0 67 19t40 48q34 -35 87 -35z" />
</svg>
