<?xml version="1.0" standalone="no"?>
<!DOCTYPE svg PUBLIC "-//W3C//DTD SVG 1.1//EN" "http://www.w3.org/Graphics/SVG/1.1/DTD/svg11.dtd" >
<svg xmlns="http://www.w3.org/2000/svg" xmlns:xlink="http://www.w3.org/1999/xlink" version="1.1" viewBox="-10 0 596 512">
   <path fill="currentColor"
d="M352 107q-30 -11 -64 -11q-22 0 -43 4l37 -90q2 -6 8.5 -8.5t13.5 0.5l39 20q9 4 9 14v71zM495 153q81 69 81 167t-81 167q-29 25 -69.5 25t-70.5 -24q-27 24 -67 24t-67 -24q-30 24 -70.5 24t-69.5 -25q-81 -69 -81 -167t81 -167q42 -36 99 -21q-12 11 -17 18
q-1 1 -8 14q48 -36 133 -36t133 36q-7 -13 -8 -14q-5 -7 -17 -18q57 -15 99 21zM321 278q-2 2 -0.5 6t6.5 4h82q5 0 6.5 -4t-0.5 -6l-41 -67q-3 -3 -6.5 -3t-5.5 3zM161 278q-2 2 -0.5 6t6.5 4h82q5 0 6.5 -4t-0.5 -6l-41 -67q-3 -3 -6.5 -3t-5.5 3zM470 346q3 -11 -5.5 -18
t-17.5 -1q-73 43 -159 43v14q0 7 -4.5 11.5t-11.5 4.5h-16q-7 0 -11.5 -4.5t-4.5 -11.5v-18q-60 -9 -110 -39q-10 -6 -18.5 1t-5.5 18q8 21 19 37q14 18 35 33q0 -7 4.5 -11.5t11.5 -4.5h16q7 0 11.5 4.5t4.5 11.5v21q36 11 80 11t80 -11v-21q0 -7 4.5 -11.5t11.5 -4.5h16
q6 0 11 4.5t5 11.5q22 -15 35 -33q11 -16 19 -37z" />
</svg>
