<?xml version="1.0" standalone="no"?>
<!DOCTYPE svg PUBLIC "-//W3C//DTD SVG 1.1//EN" "http://www.w3.org/Graphics/SVG/1.1/DTD/svg11.dtd" >
<svg xmlns="http://www.w3.org/2000/svg" xmlns:xlink="http://www.w3.org/1999/xlink" version="1.1" viewBox="-10 0 564 512">
   <path fill="currentColor"
d="M480 352h40q-33 72 -100 116t-148 44h-13q-77 -4 -140.5 -47.5t-94.5 -112.5h40l-59 -59q-4 -21 -5 -39q0 -13 1 -30h47l-41 -41q22 -102 108 -162q4 -3 9 -3q8 0 13 7t2 15q-10 25 -10 51q0 71 58 114q6 5 6.5 12.5t-5.5 12.5q-41 37 -41 92q0 29 13 55t35.5 43.5
t51.5 23.5l2 -65l-27 18q-5 4 -10 -0.5t-1 -10.5l20 -33l-42 -9q-7 -1 -7 -8t7 -8l42 -9l-20 -33q-4 -6 1 -10.5t10 -0.5l30 21l12 -288q0 -8 8 -8t8 8l11 288l31 -21q5 -4 10 0.5t1 10.5l-20 33l42 9q7 2 7 8.5t-7 7.5l-42 9l20 33q1 2 1 4q0 4 -2 6q-5 5 -10 1l-27 -18
l2 65q37 -7 63.5 -33.5t34.5 -63.5q6 -32 -4 -63t-35 -54q-6 -5 -5.5 -12.5t6.5 -12.5q58 -43 58 -114q0 -26 -10 -51q-3 -8 2 -15t13 -7q5 0 9 2q85 61 108 163l-41 41h47q1 16 1 17q0 26 -5 52z" />
</svg>
