<?xml version="1.0" standalone="no"?>
<!DOCTYPE svg PUBLIC "-//W3C//DTD SVG 1.1//EN" "http://www.w3.org/Graphics/SVG/1.1/DTD/svg11.dtd" >
<svg xmlns="http://www.w3.org/2000/svg" xmlns:xlink="http://www.w3.org/1999/xlink" version="1.1" viewBox="-10 0 468 512">
   <path fill="currentColor"
d="M448 168q0 19 -12.5 38.5t-30.5 27.5q11 24 11 51v163q0 26 -19 45t-45 19h-256q-26 0 -45 -19t-19 -45v-163q0 -12 4 -27t10 -29.5t14 -23.5l77 -96q4 -6 6 -13h162q2 7 6 13l10 13q9 -11 25 -18.5t30 -7.5q30 0 51 21t21 51zM352 384v-64q0 -13 -9.5 -22.5t-22.5 -9.5
h-192q-13 0 -22.5 9.5t-9.5 22.5v64q0 13 9.5 22.5t22.5 9.5h192q13 0 22.5 -9.5t9.5 -22.5zM377 192q10 -1 16.5 -8t6.5 -16q0 -7 -3.5 -12.5t-9 -8.5t-11.5 -3q-18 0 -23 18zM152 64q-10 0 -17 -7t-7 -17v-16q0 -10 7 -17t17 -7h144q10 0 17 7t7 17v16q0 10 -7 17t-17 7
h-144z" />
</svg>
