<?xml version="1.0" standalone="no"?>
<!DOCTYPE svg PUBLIC "-//W3C//DTD SVG 1.1//EN" "http://www.w3.org/Graphics/SVG/1.1/DTD/svg11.dtd" >
<svg xmlns="http://www.w3.org/2000/svg" xmlns:xlink="http://www.w3.org/1999/xlink" version="1.1" viewBox="-10 0 596 512">
   <path fill="currentColor"
d="M528 448h-480q-20 0 -34 -14t-14 -34v-288q0 -20 14 -34t34 -14h480q20 0 34 14t14 34v288q0 20 -14 34t-34 14zM128 180v-40q0 -12 -12 -12h-40q-12 0 -12 12v40q0 12 12 12h40q12 0 12 -12zM224 180v-40q0 -12 -12 -12h-40q-12 0 -12 12v40q0 12 12 12h40q12 0 12 -12z
M320 180v-40q0 -12 -12 -12h-40q-12 0 -12 12v40q0 12 12 12h40q12 0 12 -12zM416 180v-40q0 -12 -12 -12h-40q-12 0 -12 12v40q0 12 12 12h40q12 0 12 -12zM512 180v-40q0 -12 -12 -12h-40q-12 0 -12 12v40q0 12 12 12h40q12 0 12 -12zM176 276v-40q0 -12 -12 -12h-40
q-12 0 -12 12v40q0 12 12 12h40q12 0 12 -12zM272 276v-40q0 -12 -12 -12h-40q-12 0 -12 12v40q0 12 12 12h40q12 0 12 -12zM368 276v-40q0 -12 -12 -12h-40q-12 0 -12 12v40q0 12 12 12h40q12 0 12 -12zM464 276v-40q0 -12 -12 -12h-40q-12 0 -12 12v40q0 12 12 12h40
q12 0 12 -12zM128 372v-40q0 -12 -12 -12h-40q-12 0 -12 12v40q0 12 12 12h40q12 0 12 -12zM416 372v-40q0 -12 -12 -12h-232q-12 0 -12 12v40q0 12 12 12h232q12 0 12 -12zM512 372v-40q0 -12 -12 -12h-40q-12 0 -12 12v40q0 12 12 12h40q12 0 12 -12z" />
</svg>
