<?xml version="1.0" standalone="no"?>
<!DOCTYPE svg PUBLIC "-//W3C//DTD SVG 1.1//EN" "http://www.w3.org/Graphics/SVG/1.1/DTD/svg11.dtd" >
<svg xmlns="http://www.w3.org/2000/svg" xmlns:xlink="http://www.w3.org/1999/xlink" version="1.1" viewBox="-10 0 532 512">
   <path fill="currentColor"
d="M368 448q7 0 11.5 4.5t4.5 11.5v32q0 7 -4.5 11.5t-11.5 4.5h-224q-7 0 -11.5 -4.5t-4.5 -11.5v-32q0 -7 4.5 -11.5t11.5 -4.5h80v-64h64v64h80zM509 281q3 7 3 15v24q0 13 -9.5 22.5t-22.5 9.5h-448q-13 0 -22.5 -9.5t-9.5 -22.5v-24q0 -8 3 -15l52 -103q4 -8 12.5 -13
t16.5 -5h12q0 -45 27.5 -79.5t70.5 -44.5q4 -16 16.5 -26t29.5 -10h64q20 0 34 14t14 34t-14 34t-34 14h-64q-19 0 -33 -14q-28 7 -45.5 28.5t-17.5 49.5h284q6 0 11.5 2.5t10 6.5t7.5 9z" />
</svg>
