<?xml version="1.0" standalone="no"?>
<!DOCTYPE svg PUBLIC "-//W3C//DTD SVG 1.1//EN" "http://www.w3.org/Graphics/SVG/1.1/DTD/svg11.dtd" >
<svg xmlns="http://www.w3.org/2000/svg" xmlns:xlink="http://www.w3.org/1999/xlink" version="1.1" viewBox="-10 0 533 512">
   <path fill="currentColor"
d="M416 66q56 30 81 87.5t9 120.5q-10 39 -41 75l-53 61q-8 10 -19 4l-80 -42l-29 20l47 33l5 -1q10 0 17 7t7 17q0 7 -3 12.5t-8.5 8.5t-12.5 3q-4 0 -8 -1.5t-7.5 -4.5t-5.5 -6.5t-2 -8.5l-41 -28v30q16 9 16 27q0 13 -9.5 22.5t-22.5 9.5t-22.5 -9.5t-9.5 -22.5
q0 -18 16 -27v-30l-41 28q-1 9 -7.5 15t-15.5 6q-10 0 -17 -7t-7 -17t7 -17t17 -7l5 1l47 -33l-29 -20l-80 42q-11 6 -19 -4l-56 -65q-21 -24 -31 -49q-25 -69 -1.5 -133t83.5 -96q11 -7 20 2q9 10 2 20q-25 40 -25 87q0 40 19 75t52 57l77 54v-20l-44 -36q-7 -7 -3 -16
l8 -17q-26 -15 -41.5 -40.5t-15.5 -56.5q0 -30 15 -55.5t40 -40.5l-6 -11q-4 -9 4 -16l59 -53l59 53q7 7 3 16l-5 11q25 15 40 40.5t15 55.5q0 31 -15.5 56.5t-41.5 40.5l8 17q3 9 -3 16l-44 36v20l76 -54q34 -22 53 -57t19 -75q0 -47 -25 -87q-3 -4 -3 -9q0 -6 4 -11
q9 -9 20 -3zM320 176q0 -32 -27 -52l-8 17q-13 38 0 76l6 12q29 -19 29 -53zM192 176q0 34 29 53l5 -12q14 -38 0 -76l-7 -17q-27 20 -27 52z" />
</svg>
