<?xml version="1.0" standalone="no"?>
<!DOCTYPE svg PUBLIC "-//W3C//DTD SVG 1.1//EN" "http://www.w3.org/Graphics/SVG/1.1/DTD/svg11.dtd" >
<svg xmlns="http://www.w3.org/2000/svg" xmlns:xlink="http://www.w3.org/1999/xlink" version="1.1" viewBox="-11 0 662 512">
   <path fill="currentColor"
d="M231.5 32q26.5 30 24.5 69.5t-32 66.5q-7 6 -12.5 13t-9 13t-6 12.5t-3.5 12t-1 11t0.5 10t1.5 8.5t1.5 6.5t1.5 5l1 2.5q8 30 -2 58.5t-34.5 46t-56.5 17.5q-31 0 -57 -19.5t-35 -50.5q-14 -50 -13 -90q2 -56 26.5 -108t69.5 -92q30 -26 69.5 -24t66 32zM304 268v180v48
q0 4 -2 8t-6 6t-8 2h-16q-7 0 -11.5 -4.5t-4.5 -11.5v-16v-212q0 -5 -5 -7l-24 -12l-2 -7q-6 -21 12 -42l36 18q31 15 31 50zM367 218l36 -18q17 20 11 41l-2 8l-24 12q-4 2 -4 7v180v48q0 4 -2 8t-6 6t-8 2h-16q-7 0 -11.5 -4.5t-4.5 -11.5v-16v-212q0 -35 31 -50zM544 24
q45 40 69.5 92t26.5 108q1 40 -13 91q-9 31 -35 50t-58 19q-48 0 -76.5 -38.5t-15.5 -84.5l1 -2t1.5 -4t1.5 -6.5t1.5 -8.5t0.5 -9.5t-1 -11.5t-3.5 -12.5t-5.5 -12.5t-9 -13t-13 -13q-30 -27 -32 -66.5t24.5 -69.5t66 -32t69.5 24z" />
</svg>
