<?xml version="1.0" standalone="no"?>
<!DOCTYPE svg PUBLIC "-//W3C//DTD SVG 1.1//EN" "http://www.w3.org/Graphics/SVG/1.1/DTD/svg11.dtd" >
<svg xmlns="http://www.w3.org/2000/svg" xmlns:xlink="http://www.w3.org/1999/xlink" version="1.1" viewBox="-10 0 516 512">
   <path fill="currentColor"
d="M248 8q103 0 175.5 72.5t72.5 175.5t-72.5 175.5t-175.5 72.5t-175.5 -72.5t-72.5 -175.5t72.5 -175.5t175.5 -72.5zM209 228q3 6 9 4t6 -9q-2 -30 -19.5 -50.5t-36.5 -20.5t-36.5 20.5t-19.5 50.5q0 7 6 8.5t9 -3.5l9 -17q13 -22 32 -22t32 22zM304 396q0 -22 -35 -36
q35 -14 35 -36q0 -10 -8.5 -19.5t-25.5 -16.5t-38 -8q-6 -1 -7.5 5.5t4.5 9.5l17 7q21 9 21 21.5t-21 21.5l-17 7q-5 2 -5 7.5t5 7.5l17 7q21 9 21 22t-21 21l-17 8q-6 2 -4.5 9t7.5 6q31 -2 51.5 -15.5t20.5 -28.5zM369 228q3 6 9 4t6 -9q-1 -20 -10 -36.5t-21.5 -25.5
t-24.5 -9q-19 0 -36.5 20.5t-19.5 50.5q0 7 6 8.5t9 -3.5l9 -17q13 -22 32 -22t32 22z" />
</svg>
