<?xml version="1.0" standalone="no"?>
<!DOCTYPE svg PUBLIC "-//W3C//DTD SVG 1.1//EN" "http://www.w3.org/Graphics/SVG/1.1/DTD/svg11.dtd" >
<svg xmlns="http://www.w3.org/2000/svg" xmlns:xlink="http://www.w3.org/1999/xlink" version="1.1" viewBox="-10 0 525 512">
   <path fill="currentColor"
d="M501 402q7 18 -1.5 34.5t-26.5 21.5l-83 22q-10 2 -13 -7l-23 -83q-3 -12 0.5 -23.5t12.5 -19.5t21 -10q17 -2 31 7.5t18 25.5l3 9l8 -2q16 -5 31.5 2.5t21.5 22.5zM324 398q23 84 23 85q-47 21 -99 21q-103 0 -175.5 -72.5t-72.5 -175.5t72.5 -175.5t175.5 -72.5
t175.5 72.5t72.5 175.5q0 46 -17 90q-11 -3 -19 -3q-21 -37 -63 -38t-65 34q-17 28 -8 59zM168 240q13 0 22.5 -9.5t9.5 -22.5t-9.5 -22.5t-22.5 -9.5t-22.5 9.5t-9.5 22.5t9.5 22.5t22.5 9.5zM288 396q0 -22 -35 -36q35 -14 35 -36q0 -8 -5 -15t-14.5 -13.5t-23 -10.5
t-29.5 -5q-6 -1 -8 5.5t5 9.5l17 7q21 9 21 21.5t-21 21.5l-17 7q-4 2 -4.5 7.5t4.5 7.5l17 7q21 9 21 22t-21 21l-17 8q-6 2 -4.5 9t7.5 6q31 -2 51.5 -15.5t20.5 -28.5zM304 217l10 -9q11 -9 30.5 -9t30.5 9l9 9q7 6 14 2t6 -13t-7 -17t-14.5 -13.5t-18.5 -8.5t-20 -3
q-13 0 -26 5t-22.5 15t-11.5 22q-1 9 6.5 13t13.5 -2z" />
</svg>
