<?xml version="1.0" standalone="no"?>
<!DOCTYPE svg PUBLIC "-//W3C//DTD SVG 1.1//EN" "http://www.w3.org/Graphics/SVG/1.1/DTD/svg11.dtd" >
<svg xmlns="http://www.w3.org/2000/svg" xmlns:xlink="http://www.w3.org/1999/xlink" version="1.1" viewBox="-10 0 660 512">
   <path fill="currentColor"
d="M114 316q-8 -6 -18 -6t-18 6l-53 35q-8 6 -16.5 1.5t-8.5 -14.5v-68q0 -10 8.5 -14.5t16.5 1.5l47 31v-64q0 -17 -11.5 -28.5t-28.5 -11.5h-16q-7 0 -11.5 -4.5t-4.5 -11.5v-16q0 -7 4.5 -11.5t11.5 -4.5h16q36 0 62 26t26 62v64l47 -31q8 -6 16.5 -1.5t8.5 14.5v68
q0 10 -8.5 14.5t-16.5 -1.5zM616 2l-139 138l-138 -139q5 -1 6 -1h263q2 0 8 2zM331 331l146 -146l140 140l-0.5 0.5t-1.5 0.5l-341 78q-1 1 -5 1l-88 88q-18 19 -46 19t-47 -23q-16 -19 -16 -46v-85l24 -16l24 16v90q0 11 9.5 15t17.5 -4l88 -88q0 -4 1 -5l78 -341
q0 -1 0.5 -1.5l0.5 -0.5l140 140l-146 146q-6 5 0 11l11 11q6 6 11 0zM638 24q2 6 2 8v263q0 1 -1 6l-139 -138z" />
</svg>
