<?xml version="1.0" standalone="no"?>
<!DOCTYPE svg PUBLIC "-//W3C//DTD SVG 1.1//EN" "http://www.w3.org/Graphics/SVG/1.1/DTD/svg11.dtd" >
<svg xmlns="http://www.w3.org/2000/svg" xmlns:xlink="http://www.w3.org/1999/xlink" version="1.1" viewBox="-10 0 596 512">
   <path fill="currentColor"
d="M576 218v246q0 12 -12 16h-4q-10 0 -14 -8l-74 -137q-12 1 -24 1q-76 0 -152 49q-17 11 -40 20v59q0 7 -4.5 11.5t-11.5 4.5h-16q-7 0 -11.5 -4.5t-4.5 -11.5v-49q-14 1 -16 1q-24 0 -48 -6v54q0 7 -4.5 11.5t-11.5 4.5h-16q-7 0 -11.5 -4.5t-4.5 -11.5v-74
q-44 -25 -70 -69.5t-26 -96.5q0 -41 14 -75t32 -53t42 -33t37 -19t22 -7q84 -19 154 29q67 46 147 46h10q46 0 80.5 30.5t37.5 75.5zM464 248q10 0 17 -7t7 -17t-7 -17t-17 -7q-5 0 -9.5 2t-7.5 5t-5 7.5t-2 9.5q0 10 7 17t17 7zM544 401v-99q-17 17 -40 26z" />
</svg>
