<?xml version="1.0" standalone="no"?>
<!DOCTYPE svg PUBLIC "-//W3C//DTD SVG 1.1//EN" "http://www.w3.org/Graphics/SVG/1.1/DTD/svg11.dtd" >
<svg xmlns="http://www.w3.org/2000/svg" xmlns:xlink="http://www.w3.org/1999/xlink" version="1.1" viewBox="-11 0 597 512">
   <path fill="currentColor"
d="M268 217l129 124q4 5 4 11.5t-4 11.5l-61 59q-64 61 -151.5 81t-173.5 -8q-8 -2 -10.5 -11t4.5 -15zM566 43q10 10 10 23t-10 23l-118 119v45q0 13 -10 22l-34 28l-112 -108l192 -186q10 -9 23.5 -9t23.5 9zM444 150q5 -5 5 -11.5t-5 -11.5q-11 -11 -23 0q-5 5 -5 11.5
t5 11.5q12 11 23 0zM505 91q5 -4 5 -11t-5 -11q-12 -12 -24 0q-5 4 -5 11t5 11q12 12 24 0z" />
</svg>
