<?xml version="1.0" standalone="no"?>
<!DOCTYPE svg PUBLIC "-//W3C//DTD SVG 1.1//EN" "http://www.w3.org/Graphics/SVG/1.1/DTD/svg11.dtd" >
<svg xmlns="http://www.w3.org/2000/svg" xmlns:xlink="http://www.w3.org/1999/xlink" version="1.1" viewBox="-11 0 470 512">
   <path fill="currentColor"
d="M446 211q6 16 -3 30.5t-25 14.5h-388q-17 0 -25.5 -15t-1.5 -31l91 -192q8 -18 27 -18h219q20 0 28 19zM158 288h132q27 27 44.5 67.5t17.5 73.5q0 42 -30 74q-9 9 -23 9h-150q-14 0 -23 -9q-30 -32 -30 -74q0 -21 7.5 -46.5t22 -51t32.5 -43.5z" />
</svg>
