<?xml version="1.0" standalone="no"?>
<!DOCTYPE svg PUBLIC "-//W3C//DTD SVG 1.1//EN" "http://www.w3.org/Graphics/SVG/1.1/DTD/svg11.dtd" >
<svg xmlns="http://www.w3.org/2000/svg" xmlns:xlink="http://www.w3.org/1999/xlink" version="1.1" viewBox="-10 0 532 512">
   <path fill="currentColor"
d="M48 256q-7 0 -11.5 -4.5t-4.5 -11.5v-32q0 -7 4.5 -11.5t11.5 -4.5h19q10 -60 53.5 -103.5t103.5 -53.5v-19q0 -7 4.5 -11.5t11.5 -4.5h32q7 0 11.5 4.5t4.5 11.5v19q60 10 103.5 53.5t53.5 103.5h19q7 0 11.5 4.5t4.5 11.5v32q0 7 -4.5 11.5t-11.5 4.5h-416zM496 448
q7 0 11.5 4.5t4.5 11.5v32q0 7 -4.5 11.5t-11.5 4.5h-480q-7 0 -11.5 -4.5t-4.5 -11.5v-32q0 -7 4.5 -11.5t11.5 -4.5h16v-16q0 -7 4.5 -11.5t11.5 -4.5h16v-128h64v128h96v-128h64v128h96v-128h64v128h16q7 0 11.5 4.5t4.5 11.5v16h16z" />
</svg>
