<?xml version="1.0" standalone="no"?>
<!DOCTYPE svg PUBLIC "-//W3C//DTD SVG 1.1//EN" "http://www.w3.org/Graphics/SVG/1.1/DTD/svg11.dtd" >
<svg xmlns="http://www.w3.org/2000/svg" xmlns:xlink="http://www.w3.org/1999/xlink" version="1.1" viewBox="-10 0 532 512">
   <path fill="currentColor"
d="M502 92q10 4 10 15v37q0 7 -4.5 11.5t-11.5 4.5h-480q-7 0 -11.5 -4.5t-4.5 -11.5v-37q0 -11 10 -15l235 -90q5 -2 11 -2t11 2zM64 192h64v160h96v-160h64v160h96v-160h64v160h16q7 0 11.5 4.5t4.5 11.5v48h-448v-48q0 -7 4.5 -11.5t11.5 -4.5h16v-160zM496 448
q7 0 11.5 4.5t4.5 11.5v32q0 7 -4.5 11.5t-11.5 4.5h-480q-7 0 -11.5 -4.5t-4.5 -11.5v-32q0 -7 4.5 -11.5t11.5 -4.5h480z" />
</svg>
