<?xml version="1.0" standalone="no"?>
<!DOCTYPE svg PUBLIC "-//W3C//DTD SVG 1.1//EN" "http://www.w3.org/Graphics/SVG/1.1/DTD/svg11.dtd" >
<svg xmlns="http://www.w3.org/2000/svg" xmlns:xlink="http://www.w3.org/1999/xlink" version="1.1" viewBox="-10 0 660 512">
   <path fill="currentColor"
d="M232 224q-8 0 -8 -8v-48q0 -8 8 -8h56v-56q0 -8 8 -8h48q8 0 8 8v56h56q8 0 8 8v48q0 8 -8 8h-56v56q0 8 -8 8h-48q-8 0 -8 -8v-56h-56zM576 48v336h-512v-336q0 -20 14 -34t34 -14h416q20 0 34 14t14 34zM512 320v-256h-384v256h384zM624 416q7 0 11.5 4.5t4.5 11.5v16
q0 26 -19 45t-45 19h-512q-26 0 -45 -19t-19 -45v-16q0 -7 4.5 -11.5t11.5 -4.5h239q0 11 10 21.5t23 10.5h61q14 0 23 -8.5t10 -23.5h242z" />
</svg>
