<?xml version="1.0" standalone="no"?>
<!DOCTYPE svg PUBLIC "-//W3C//DTD SVG 1.1//EN" "http://www.w3.org/Graphics/SVG/1.1/DTD/svg11.dtd" >
<svg xmlns="http://www.w3.org/2000/svg" xmlns:xlink="http://www.w3.org/1999/xlink" version="1.1" viewBox="-10 0 516 512">
   <path fill="currentColor"
d="M248 8q103 0 175.5 72.5t72.5 175.5t-72.5 175.5t-175.5 72.5t-175.5 -72.5t-72.5 -175.5t72.5 -175.5t175.5 -72.5zM272 207q-1 7 5.5 8.5t9.5 -3.5l10 -17q12 -22 31 -22t32 22l9 17q3 5 9.5 3.5t5.5 -8.5q-2 -30 -19.5 -50.5t-36.5 -20.5q-12 0 -24 9t-21 25.5
t-11 36.5zM112 207q-1 7 5.5 8.5t9.5 -3.5l10 -17q12 -22 31 -22t32 22l9 17q3 5 9.5 3.5t5.5 -8.5q-1 -12 -5 -23t-9.5 -20t-12.5 -15t-14.5 -9.5t-14.5 -3.5q-12 0 -24 9t-21 25.5t-11 36.5zM399 306q1 -7 -4 -12.5t-12 -5.5h-270q-7 0 -12 5.5t-4 12.5q7 54 47.5 90
t95.5 36h16q55 0 95.5 -36t47.5 -90z" />
</svg>
