<?xml version="1.0" standalone="no"?>
<!DOCTYPE svg PUBLIC "-//W3C//DTD SVG 1.1//EN" "http://www.w3.org/Graphics/SVG/1.1/DTD/svg11.dtd" >
<svg xmlns="http://www.w3.org/2000/svg" xmlns:xlink="http://www.w3.org/1999/xlink" version="1.1" viewBox="-10 0 516 512">
   <path fill="currentColor"
d="M248 8q103 0 175.5 72.5t72.5 175.5t-72.5 175.5t-175.5 72.5t-175.5 -72.5t-72.5 -175.5t72.5 -175.5t175.5 -72.5zM268 206q-1 8 6.5 12.5t13.5 -1.5l10 -9q11 -9 30 -9t31 9l9 9q6 6 13.5 1.5t6.5 -12.5q-2 -12 -11.5 -22t-22.5 -15t-26 -5q-20 0 -38.5 12t-21.5 30z
M168 160q-13 0 -22.5 9.5t-9.5 22.5t9.5 22.5t22.5 9.5t22.5 -9.5t9.5 -22.5t-9.5 -22.5t-22.5 -9.5zM399 306q1 -7 -4 -12.5t-12 -5.5h-270q-7 0 -12 5.5t-4 12.5q7 54 47.5 90t95.5 36h16q55 0 95.5 -36t47.5 -90z" />
</svg>
