<?xml version="1.0" standalone="no"?>
<!DOCTYPE svg PUBLIC "-//W3C//DTD SVG 1.1//EN" "http://www.w3.org/Graphics/SVG/1.1/DTD/svg11.dtd" >
<svg xmlns="http://www.w3.org/2000/svg" xmlns:xlink="http://www.w3.org/1999/xlink" version="1.1" viewBox="-11 0 597 512">
   <path fill="currentColor"
d="M546 10q30 66 30 144q0 131 -75.5 223.5t-192.5 101.5q-56 6 -101.5 -17t-72.5 -60q-53 44 -72 90q-5 12 -17.5 17.5t-24.5 0.5t-17.5 -17.5t-0.5 -24.5q9 -21 25 -44.5t48 -54.5t72.5 -55t103 -41t133.5 -17q7 0 11.5 -4.5t4.5 -11.5t-4.5 -11.5t-11.5 -4.5
q-169 0 -286 84q-2 -14 -2 -20q0 -80 56 -136t136 -56h80q47 0 86.5 -23.5t63.5 -64.5q5 -8 14.5 -8t13.5 10z" />
</svg>
