<?xml version="1.0" standalone="no"?>
<!DOCTYPE svg PUBLIC "-//W3C//DTD SVG 1.1//EN" "http://www.w3.org/Graphics/SVG/1.1/DTD/svg11.dtd" >
<svg xmlns="http://www.w3.org/2000/svg" xmlns:xlink="http://www.w3.org/1999/xlink" version="1.1" viewBox="-10 0 533 512">
   <path fill="currentColor"
d="M488 155q21 14 24 37t-14 41q-6 6 -23 17q-3 2 -40 23q13 16 14 17q17 21 12.5 42.5t-27.5 34.5q-25 15 -72 9q-2 -1 -42 -5l7 11q8 14 7.5 26.5t-9 23t-22.5 14.5q-19 5 -38 1q-9 -3 -26 -9.5t-24 -8.5q-18 -5 -30 -1q-3 1 -11 4l64 -113l-183 184q-10 9 -23 9
t-22.5 -9.5t-9.5 -22.5t9 -23l69 -68q-7 -26 6 -62q4 -12 -1 -30q-2 -7 -8.5 -24t-8.5 -26q-4 -19 1 -38q6 -21 24.5 -28.5t38.5 3.5q0 1 11 8q-4 -40 -4 -42q-6 -47 8 -72q14 -23 35 -27.5t43 12.5l17 14q21 -37 23 -40q10 -17 16 -23q18 -17 41 -14t37 24q5 7 8 12
q5 12 19 8q47 -14 72 13h-1q27 24 13 71q-4 14 8 20q5 2 12 7z" />
</svg>
