<?xml version="1.0" standalone="no"?>
<!DOCTYPE svg PUBLIC "-//W3C//DTD SVG 1.1//EN" "http://www.w3.org/Graphics/SVG/1.1/DTD/svg11.dtd" >
<svg xmlns="http://www.w3.org/2000/svg" xmlns:xlink="http://www.w3.org/1999/xlink" version="1.1" viewBox="-11 0 597 512">
   <path fill="currentColor"
d="M546 10q30 66 30 144q0 131 -75.5 223.5t-192.5 101.5q-56 6 -101.5 -17t-72.5 -60q-53 44 -72 90q-5 12 -17.5 17.5t-24.5 0.5t-17.5 -17.5t-0.5 -24.5q4 -8 11.5 -22t33 -46t57.5 -57q-8 -27 -8 -55q0 -80 56 -136t136 -56h80q47 0 86.5 -23.5t63.5 -64.5q5 -8 14.5 -8
t13.5 10zM431 294q18 -18 17 -45t-22 -44q-18 -14 -41.5 -12.5t-40.5 18.5l-8 9l-9 -9q-16 -17 -39.5 -18.5t-41.5 12.5q-21 17 -22 44t17 45l85 86q10 10 20 0z" />
</svg>
