<?xml version="1.0" standalone="no"?>
<!DOCTYPE svg PUBLIC "-//W3C//DTD SVG 1.1//EN" "http://www.w3.org/Graphics/SVG/1.1/DTD/svg11.dtd" >
<svg xmlns="http://www.w3.org/2000/svg" xmlns:xlink="http://www.w3.org/1999/xlink" version="1.1" viewBox="-10 0 372 512">
   <path fill="currentColor"
d="M345 368l-136 137q-7 7 -17 7t-17 -7l-136 -137q-7 -7 -7 -17t7 -17l22 -22q7 -7 17.5 -7t17.5 8l56 60v-293h-84q-5 0 -8 -4l-56 -56q-6 -5 -3 -12.5t11 -7.5h196q10 0 17 7t7 17v349l56 -60q7 -8 17.5 -8t17.5 7l22 22q7 7 7 17t-7 17z" />
</svg>
