<?xml version="1.0" standalone="no"?>
<!DOCTYPE svg PUBLIC "-//W3C//DTD SVG 1.1//EN" "http://www.w3.org/Graphics/SVG/1.1/DTD/svg11.dtd" >
<svg xmlns="http://www.w3.org/2000/svg" xmlns:xlink="http://www.w3.org/1999/xlink" version="1.1" viewBox="-10 0 660 512">
   <path fill="currentColor"
d="M637 99q4 6 2.5 12.5t-6.5 10.5q-56 33 -127 53l20 55q43 2 61 52q12 33 -1.5 81t-26.5 52.5t-54 -23.5t-53 -61q-18 -50 13 -79l-22 -63q-44 8 -91 10v63q40 17 40 70q0 35 -29 75.5t-43 40.5t-43 -40.5t-29 -75.5q0 -53 40 -70v-63q-47 -2 -90 -10l-23 63q32 29 14 79
q-12 33 -53.5 61t-54.5 23.5t-26.5 -52.5t-1.5 -81q18 -50 62 -52l20 -55q-71 -20 -127 -53q-6 -4 -7.5 -10.5t2.5 -12.5l17 -28q8 -13 22 -5q118 69 278 69t278 -69q14 -8 22 5zM146 309q3 -8 -1.5 -16.5t-14.5 -12.5q-6 -2 -12 -1t-11 4.5t-7 9.5q-3 9 -2.5 29.5t5.5 33.5
q5 -3 10.5 -7.5t10.5 -9.5t9.5 -10.5t7.5 -10.5t5 -9zM320 384q9 -11 16.5 -29.5t7.5 -28.5q0 -6 -3 -11t-8.5 -8t-12.5 -3q-10 0 -17 6.5t-7 15.5q0 10 7.5 28.5t16.5 29.5zM509.5 280.5q-9.5 3.5 -14 12t-1.5 16.5q4 10 17.5 25t25.5 22q5 -13 5.5 -33.5t-2.5 -29.5
q-4 -9 -12.5 -12.5t-18 0z" />
</svg>
