<?xml version="1.0" standalone="no"?>
<!DOCTYPE svg PUBLIC "-//W3C//DTD SVG 1.1//EN" "http://www.w3.org/Graphics/SVG/1.1/DTD/svg11.dtd" >
<svg xmlns="http://www.w3.org/2000/svg" xmlns:xlink="http://www.w3.org/1999/xlink" version="1.1" viewBox="-10 0 660 512">
   <path fill="currentColor"
d="M41 68q-6 -4 -7.5 -10t1.5 -12l16 -28q3 -6 9.5 -7.5t12.5 1.5l77 45q-19 26 -28 57zM132 264q13 28 33 50q0 1 1 2l1 1l-94 55q-6 3 -12.5 1.5t-9.5 -7.5l-16 -28q-3 -6 -1.5 -12t7.5 -10zM599 68l-80 46q-10 -30 -29 -57l77 -45q6 -3 12.5 -1.5t9.5 7.5l16 28
q3 6 1.5 12t-7.5 10zM113 160q-3 33 5 64h-102q-7 0 -11.5 -4.5t-4.5 -11.5v-32q0 -7 4.5 -11.5t11.5 -4.5h97zM624 160q7 0 11.5 4.5t4.5 11.5v32q0 7 -4.5 11.5t-11.5 4.5h-102q8 -33 5 -64h97zM599 316q6 4 7.5 10t-1.5 12l-16 28q-3 6 -9.5 7.5t-12.5 -1.5l-94 -55
q3 -3 3 -4q18 -20 32 -50zM319 0q74 0 125.5 51.5t51.5 124.5q0 66 -44 116q-37 43 -52 91v1h-160v-1q-15 -48 -52 -91q-44 -50 -44 -116q0 -71 50 -123.5t125 -52.5zM320 96q7 0 11.5 -4.5t4.5 -11.5t-4.5 -11.5t-11.5 -4.5q-46 0 -79 33t-33 79q0 7 4.5 11.5t11.5 4.5
t11.5 -4.5t4.5 -11.5q0 -33 23.5 -56.5t56.5 -23.5zM240 454v-38h160v38q0 10 -5 18l-17 26q-10 14 -27 14h-62q-17 0 -26 -14l-18 -26q-5 -8 -5 -18z" />
</svg>
