<?xml version="1.0" standalone="no"?>
<!DOCTYPE svg PUBLIC "-//W3C//DTD SVG 1.1//EN" "http://www.w3.org/Graphics/SVG/1.1/DTD/svg11.dtd" >
<svg xmlns="http://www.w3.org/2000/svg" xmlns:xlink="http://www.w3.org/1999/xlink" version="1.1" viewBox="-10 0 372 512">
   <path fill="currentColor"
d="M96 454v-38h160v38q0 10 -5 18l-17 26q-10 14 -27 14h-62q-17 0 -26 -14l-18 -26q-5 -8 -5 -18zM0 176q0 -71 50 -123.5t125 -52.5q74 0 125.5 51.5t51.5 124.5q0 66 -44 116q-37 43 -52 91v1h-160v-1q-15 -48 -52 -91q-44 -50 -44 -116zM176 96q7 0 11.5 -4.5t4.5 -11.5
t-4.5 -11.5t-11.5 -4.5q-46 0 -79 33t-33 79q0 7 4.5 11.5t11.5 4.5t11.5 -4.5t4.5 -11.5q0 -33 23.5 -56.5t56.5 -23.5z" />
</svg>
