<?xml version="1.0" standalone="no"?>
<!DOCTYPE svg PUBLIC "-//W3C//DTD SVG 1.1//EN" "http://www.w3.org/Graphics/SVG/1.1/DTD/svg11.dtd" >
<svg xmlns="http://www.w3.org/2000/svg" xmlns:xlink="http://www.w3.org/1999/xlink" version="1.1" viewBox="-10 0 532 512">
   <path fill="currentColor"
d="M327 185q44 45 44 108t-44 107l-68 68q-44 44 -107 44t-107.5 -44.5t-44.5 -107.5t44 -107l38 -38q7 -7 16.5 -3t10.5 14q1 27 10 53q3 9 -4 16l-13 14q-21 21 -21.5 50.5t20.5 50.5q21 22 51 22t51 -21l67 -67q21 -21 21 -51t-21 -51q-5 -5 -10 -9q-7 -4 -7 -12
q-1 -18 11 -30l22 -21q9 -10 20 -2t21 17zM467.5 44.5q44.5 44.5 44.5 107.5t-44 107l-38 38q-7 7 -16.5 3t-10.5 -14q-1 -27 -10 -53q-3 -9 4 -16l13 -14q21 -21 21.5 -50.5t-20.5 -50.5q-21 -22 -51 -22t-51 21l-67 67q-21 21 -21 51t21 51q5 5 10 9q7 4 7 12q1 18 -11 30
l-22 21q-9 10 -20 2t-21 -17q-44 -45 -44 -108t44 -107l68 -68q44 -44 107 -44t107.5 44.5z" />
</svg>
