<?xml version="1.0" standalone="no"?>
<!DOCTYPE svg PUBLIC "-//W3C//DTD SVG 1.1//EN" "http://www.w3.org/Graphics/SVG/1.1/DTD/svg11.dtd" >
<svg xmlns="http://www.w3.org/2000/svg" xmlns:xlink="http://www.w3.org/1999/xlink" version="1.1" viewBox="-11 0 662 512">
   <path fill="currentColor"
d="M631 196q16 27 4 56q-8 20 -19 40.5t-28.5 48t-40 50.5t-50 44t-63 33t-73.5 12h-82q-46 0 -88 -18t-70.5 -42.5t-53.5 -59t-38 -59t-24 -49.5q-12 -29 4 -56q37 -62 106 -113t107 -51q4 0 11 1.5t32.5 14t54.5 34.5q29 -22 53.5 -34.5t34.5 -14.5l10 -1q38 0 107 51
t106 113zM320 320q48 0 92 -10t72.5 -24t50 -28t31.5 -24l10 -10q-64 -32 -160 -32l-35 9q-29 7 -61 7t-61 -7l-35 -9q-43 0 -83 8t-59 16l-18 8q3 4 10 10.5t31 23t51 29t71.5 23t92.5 10.5z" />
</svg>
