<?xml version="1.0" standalone="no"?>
<!DOCTYPE svg PUBLIC "-//W3C//DTD SVG 1.1//EN" "http://www.w3.org/Graphics/SVG/1.1/DTD/svg11.dtd" >
<svg xmlns="http://www.w3.org/2000/svg" xmlns:xlink="http://www.w3.org/1999/xlink" version="1.1" viewBox="-10 0 532 512">
   <path fill="currentColor"
d="M464 480h-416q-20 0 -34 -14t-14 -34v-352q0 -20 14 -34t34 -14h416q20 0 34 14t14 34v352q0 20 -14 34t-34 14zM128 120q-17 0 -28.5 11.5t-11.5 28.5t11.5 28.5t28.5 11.5t28.5 -11.5t11.5 -28.5t-11.5 -28.5t-28.5 -11.5zM128 216q-17 0 -28.5 11.5t-11.5 28.5
t11.5 28.5t28.5 11.5t28.5 -11.5t11.5 -28.5t-11.5 -28.5t-28.5 -11.5zM128 312q-17 0 -28.5 11.5t-11.5 28.5t11.5 28.5t28.5 11.5t28.5 -11.5t11.5 -28.5t-11.5 -28.5t-28.5 -11.5zM416 176v-32q0 -12 -12 -12h-200q-12 0 -12 12v32q0 12 12 12h200q12 0 12 -12zM416 272
v-32q0 -12 -12 -12h-200q-12 0 -12 12v32q0 12 12 12h200q12 0 12 -12zM416 368v-32q0 -12 -12 -12h-200q-12 0 -12 12v32q0 12 12 12h200q12 0 12 -12z" />
</svg>
