<?xml version="1.0" standalone="no"?>
<!DOCTYPE svg PUBLIC "-//W3C//DTD SVG 1.1//EN" "http://www.w3.org/Graphics/SVG/1.1/DTD/svg11.dtd" >
<svg xmlns="http://www.w3.org/2000/svg" xmlns:xlink="http://www.w3.org/1999/xlink" version="1.1" viewBox="-11 0 533 512">
   <path fill="currentColor"
d="M62 401q14 4 21 13.5t7 21.5q0 18 -12 31t-36 13q-21 0 -37 -9q-9 -7 -3 -16l6 -10q5 -9 16 -3q7 3 15 3q14 0 14 -8q0 -9 -16 -9h-4q-8 0 -13 -8l-1 -2q-3 -7 3 -15l6 -7q5 -6 11 -12h-23q-8 0 -8 -8v-16q0 -8 8 -8h57q11 0 11 11v4v1q0 7 -5 13zM496 224q7 0 11.5 4.5
t4.5 11.5v32q0 7 -4.5 11.5t-11.5 4.5h-320q-7 0 -11.5 -4.5t-4.5 -11.5v-32q0 -7 4.5 -11.5t11.5 -4.5h320zM496 64q7 0 11.5 4.5t4.5 11.5v32q0 7 -4.5 11.5t-11.5 4.5h-320q-7 0 -11.5 -4.5t-4.5 -11.5v-32q0 -7 4.5 -11.5t11.5 -4.5h320zM496 384q7 0 11.5 4.5t4.5 11.5
v32q0 7 -4.5 11.5t-11.5 4.5h-320q-7 0 -11.5 -4.5t-4.5 -11.5v-32q0 -7 4.5 -11.5t11.5 -4.5h320zM16 160q-8 0 -8 -8v-16q0 -8 8 -8h16v-64h-8q-8 0 -8 -8q0 -2 1 -4l8 -16q2 -4 7 -4h24q8 0 8 8v88h16q8 0 8 8v16q0 8 -8 8h-64zM12 320q-12 0 -12 -11v-4q0 -17 8 -29.5
t17.5 -18.5t17.5 -12t8 -10q0 -8 -9 -8q-6 0 -10 4q-9 8 -16 2l-8 -7q-10 -7 -3 -15q14 -19 40 -19q11 0 20.5 3.5t17 13t7.5 23.5q0 10 -5 18.5t-11.5 14t-13.5 10t-12.5 7.5t-6.5 6h39q8 0 8 8v16q0 8 -8 8h-68z" />
</svg>
