<?xml version="1.0" standalone="no"?>
<!DOCTYPE svg PUBLIC "-//W3C//DTD SVG 1.1//EN" "http://www.w3.org/Graphics/SVG/1.1/DTD/svg11.dtd" >
<svg xmlns="http://www.w3.org/2000/svg" xmlns:xlink="http://www.w3.org/1999/xlink" version="1.1" viewBox="-11 0 662 512">
   <path fill="currentColor"
d="M634 458q12 10 3 23l-20 25q-10 12 -22 3l-589 -455q-12 -10 -3 -23l20 -25q10 -12 22 -3l145 112q42 -39 98 -48v-51q0 -7 4.5 -11.5t11.5 -4.5h32q7 0 11.5 4.5t4.5 11.5v51q60 10 103.5 53.5t53.5 103.5h51q7 0 11.5 4.5t4.5 11.5v32q0 7 -4.5 11.5t-11.5 4.5h-51
q-5 30 -20 58zM437 306q11 -24 11 -50q0 -53 -37.5 -90.5t-90.5 -37.5q-43 0 -78 27l33 26q21 -13 45 -13q36 0 62 26t26 62q0 12 -4 25zM320 384q1 0 4 -0.5t4 -0.5l64 50q-22 9 -40 12v51q0 7 -4.5 11.5t-11.5 4.5h-32q-7 0 -11.5 -4.5t-4.5 -11.5v-51
q-60 -10 -103.5 -53.5t-53.5 -103.5h-51q-7 0 -11.5 -4.5t-4.5 -11.5v-32q0 -7 4.5 -11.5t11.5 -4.5h42l72 56q9 45 44.5 74.5t81.5 29.5z" />
</svg>
