<?xml version="1.0" standalone="no"?>
<!DOCTYPE svg PUBLIC "-//W3C//DTD SVG 1.1//EN" "http://www.w3.org/Graphics/SVG/1.1/DTD/svg11.dtd" >
<svg xmlns="http://www.w3.org/2000/svg" xmlns:xlink="http://www.w3.org/1999/xlink" version="1.1" viewBox="-10 0 596 512">
   <path fill="currentColor"
d="M423.5 0q62.5 0 107.5 44.5t45 107.5v80q0 10 -7 17t-17 7h-32q-10 0 -17 -7t-7 -17v-80q0 -30 -21.5 -51t-51.5 -21q-29 0 -50 21.5t-21 51.5v71h48q20 0 34 14t14 34v192q0 20 -14 34t-34 14h-352q-20 0 -34 -14t-14 -34v-192q0 -20 14 -34t34 -14h224v-70
q0 -64 44.5 -109t107 -45z" />
</svg>
