<?xml version="1.0" standalone="no"?>
<!DOCTYPE svg PUBLIC "-//W3C//DTD SVG 1.1//EN" "http://www.w3.org/Graphics/SVG/1.1/DTD/svg11.dtd" >
<svg xmlns="http://www.w3.org/2000/svg" xmlns:xlink="http://www.w3.org/1999/xlink" version="1.1" viewBox="-11 0 597 512">
   <path fill="currentColor"
d="M569 232q7 11 7 24t-7 24q-49 84 -136 127l43 58q5 8 3.5 18t-9.5 15l-13 10q-8 5 -18 3.5t-16 -9.5l-252 -357q-20 9 -38 22l190 271q-18 2 -35 2q-22 0 -44 -3l-41 -58l-119 -171q-16 17 -29 36l125 178q-113 -40 -173 -142q-15 -24 0 -48q49 -84 136 -127l-43 -58
q-5 -8 -3.5 -18t9.5 -15l13 -10q8 -5 18 -3.5t16 9.5l53 72q40 -10 82 -10q89 0 163.5 43.5t117.5 116.5zM390 346q34 -39 34 -90q0 -56 -40 -96t-96 -40q-26 0 -50 9l19 28q42 -13 80 7q-18 0 -30.5 12.5t-12.5 30.5q0 12 5.5 21.5t15.5 15.5t22 6q18 0 30.5 -12.5
t12.5 -30.5q14 26 11.5 56.5t-20.5 55.5z" />
</svg>
