<?xml version="1.0" standalone="no"?>
<!DOCTYPE svg PUBLIC "-//W3C//DTD SVG 1.1//EN" "http://www.w3.org/Graphics/SVG/1.1/DTD/svg11.dtd" >
<svg xmlns="http://www.w3.org/2000/svg" xmlns:xlink="http://www.w3.org/1999/xlink" version="1.1" viewBox="-10 0 468 512">
   <path fill="currentColor"
d="M190 256h-46q-13 0 -24 -7t-17.5 -19.5t-6.5 -26.5v-11h48q20 0 34 15.5t14 37.5v9l-1 1zM224 320h-39q13 -28 39 -53q26 25 39 53h-39zM160 352h128q13 0 22.5 9.5t9.5 22.5t-9.5 22.5t-22.5 9.5h-128q-13 0 -22.5 -9.5t-9.5 -22.5t9.5 -22.5t22.5 -9.5zM256 245
q0 -22 14 -37.5t34 -15.5h48v11q0 22 -14 37.5t-34 15.5h-46l-1 -1l-1 -1v-9zM448 224v128q0 66 -47 113t-113 47h-128q-66 0 -113 -47t-47 -113v-128q0 -93 65.5 -158.5t158.5 -65.5t158.5 65.5t65.5 158.5zM384 172q0 -12 -12 -12h-68q-14 0 -27 5t-23 14t-17 21t-11 26
h-2h-3q-4 -19 -15 -34t-27 -23.5t-35 -8.5h-68q-12 0 -12 12v31q0 35 23.5 60t56.5 25h22q-10 17 -15 33q-24 3 -39.5 21t-15.5 42q0 27 19 45.5t46 18.5h126q27 0 46 -18.5t19 -45.5q0 -24 -15.5 -42t-39.5 -21q-5 -16 -15 -33h22q33 0 56.5 -25t23.5 -60v-31z" />
</svg>
