<?xml version="1.0" standalone="no"?>
<!DOCTYPE svg PUBLIC "-//W3C//DTD SVG 1.1//EN" "http://www.w3.org/Graphics/SVG/1.1/DTD/svg11.dtd" >
<svg xmlns="http://www.w3.org/2000/svg" xmlns:xlink="http://www.w3.org/1999/xlink" version="1.1" viewBox="-10 0 660 512">
   <path fill="currentColor"
d="M224 320q-13 0 -22.5 -9.5t-9.5 -22.5v-160q0 -13 9.5 -22.5t22.5 -9.5h32v224h-32zM576 288q0 13 -9.5 22.5t-22.5 9.5h-32v-224h32q13 0 22.5 9.5t9.5 22.5v160zM624 384q7 0 11.5 4.5t4.5 11.5v32q0 7 -4.5 11.5t-11.5 4.5h-83q3 8 3 16q0 20 -14 34t-34 14t-34 -14
t-14 -34q0 -8 3 -16h-198q3 8 3 16q0 20 -14 34t-34 14t-34 -14t-14 -34q0 -8 3 -16h-83q-7 0 -11.5 -4.5t-4.5 -11.5v-368h-48q-7 0 -11.5 -4.5t-4.5 -11.5v-32q0 -7 4.5 -11.5t11.5 -4.5h96q7 0 11.5 4.5t4.5 11.5v368h496zM480 96v224h-192v-272q0 -20 14 -34t34 -14h96
q20 0 34 14t14 34v48zM432 96v-48h-96v48h96z" />
</svg>
