<?xml version="1.0" standalone="no"?>
<!DOCTYPE svg PUBLIC "-//W3C//DTD SVG 1.1//EN" "http://www.w3.org/Graphics/SVG/1.1/DTD/svg11.dtd" >
<svg xmlns="http://www.w3.org/2000/svg" xmlns:xlink="http://www.w3.org/1999/xlink" version="1.1" viewBox="-10 0 660 512">
   <path fill="currentColor"
d="M636 390q4 15 4 30q0 46 -39 73.5t-86 14.5l-60 -16q-31 -8 -51 -32.5t-20 -55.5v-88l86 58q2 1 4 1q5 0 7 -4l9 -13q1 -2 1 -4q0 -5 -3 -7l-168 -112l-168 112q-3 2 -3 7q0 2 1 4l9 13q2 4 7 4q2 0 4 -1l86 -58v88q0 31 -20 55.5t-51 32.5l-60 16q-47 13 -86 -14.5
t-39 -73.5q0 -15 4 -30q33 -122 102 -231q1 -2 7 -11t7 -11t6.5 -9.5t7.5 -9.5t7.5 -7t9.5 -6.5t9.5 -4t12 -3.5t13.5 -1q29 0 49.5 19t20.5 47v60l33 -22q7 -5 7 -13v-171q0 -7 4.5 -11.5t11.5 -4.5h16q7 0 11.5 4.5t4.5 11.5v171q0 8 7 13l33 22v-60q0 -28 20.5 -47
t49.5 -19q7 0 13.5 1t12 3.5t9.5 4t9.5 6.5t7.5 7t7.5 9.5t6.5 9.5t7 11t7 11q69 109 102 231z" />
</svg>
