<?xml version="1.0" standalone="no"?>
<!DOCTYPE svg PUBLIC "-//W3C//DTD SVG 1.1//EN" "http://www.w3.org/Graphics/SVG/1.1/DTD/svg11.dtd" >
<svg xmlns="http://www.w3.org/2000/svg" xmlns:xlink="http://www.w3.org/1999/xlink" version="1.1" viewBox="-11 0 533 512">
   <path fill="currentColor"
d="M171 296q18 27 45 45l-166 166q-11 12 -23 0l-22 -22q-12 -12 0 -23zM501 195q11 3 11 10.5t-11 11.5l-74 25q-9 32 -32 55.5t-54 32.5l-24 75q-3 11 -10.5 11t-11.5 -11l-25 -74q-32 -9 -55.5 -32t-32.5 -54l-75 -24q-11 -3 -11 -10.5t11 -11.5l74 -25q9 -32 32 -55.5
t54 -32.5l24 -75q3 -11 10.5 -11t11.5 11l25 74q32 9 55.5 32t32.5 54zM304 240q13 0 22.5 -9.5t9.5 -22.5t-9.5 -22.5t-22.5 -9.5t-22.5 9.5t-9.5 22.5t9.5 22.5t22.5 9.5z" />
</svg>
