<?xml version="1.0" standalone="no"?>
<!DOCTYPE svg PUBLIC "-//W3C//DTD SVG 1.1//EN" "http://www.w3.org/Graphics/SVG/1.1/DTD/svg11.dtd" >
<svg xmlns="http://www.w3.org/2000/svg" xmlns:xlink="http://www.w3.org/1999/xlink" version="1.1" viewBox="-10 0 532 512">
   <path fill="currentColor"
d="M164 148h-152q-5 0 -8.5 -3.5t-3.5 -8.5v-80q0 -15 10.5 -25.5t25.5 -10.5h104q15 0 25.5 10.5t10.5 25.5v80q0 3 -1.5 6t-4.5 4.5t-6 1.5zM512 136q0 5 -3.5 8.5t-8.5 3.5h-152q-12 0 -12 -12v-80q0 -15 10.5 -25.5t25.5 -10.5h104q15 0 25.5 10.5t10.5 25.5v80z
M348 180h152q5 0 8.5 3.5t3.5 8.5q-1 44 0 53q0 72 -39 130t-97 87.5t-119.5 29.5t-119.5 -29.5t-97.5 -87.5t-39.5 -129v-54q0 -5 3.5 -8.5t8.5 -3.5h152q5 0 8.5 3.5t3.5 8.5v52q0 45 25 71t55 26t55 -26t25 -71v-52q0 -5 3.5 -8.5t8.5 -3.5z" />
</svg>
