<?xml version="1.0" standalone="no"?>
<!DOCTYPE svg PUBLIC "-//W3C//DTD SVG 1.1//EN" "http://www.w3.org/Graphics/SVG/1.1/DTD/svg11.dtd" >
<svg xmlns="http://www.w3.org/2000/svg" xmlns:xlink="http://www.w3.org/1999/xlink" version="1.1" viewBox="-10 0 596 512">
   <path fill="currentColor"
d="M160 448q21 0 64 -32q32 -22 96 -70v134q0 13 -9.5 22.5t-22.5 9.5h-256q-13 0 -22.5 -9.5t-9.5 -22.5v-134q64 48 96 70q43 32 64 32zM288 256q13 0 22.5 9.5t9.5 22.5v19q-7 6 -18.5 15t-33.5 25.5t-63 46.5q-2 0 -19 11t-26 11q-7 0 -15.5 -4.5t-18.5 -12.5t-11 -9
q-41 -29 -63 -46t-33.5 -26t-18.5 -14v-16q0 -13 9.5 -22.5t22.5 -9.5h256zM544 160q13 0 22.5 9.5t9.5 22.5v192q0 13 -9.5 22.5t-22.5 9.5h-192v-134q-3 -25 -21 -41.5t-43 -16.5h-96v-32q0 -13 9.5 -22.5t22.5 -9.5h320zM512 288v-64h-64v64h64zM160 192v32h-96v-192
q0 -13 9.5 -22.5t22.5 -9.5h320q13 0 22.5 9.5t9.5 22.5v96h-224q-26 0 -45 19t-19 45z" />
</svg>
