<?xml version="1.0" standalone="no"?>
<!DOCTYPE svg PUBLIC "-//W3C//DTD SVG 1.1//EN" "http://www.w3.org/Graphics/SVG/1.1/DTD/svg11.dtd" >
<svg xmlns="http://www.w3.org/2000/svg" xmlns:xlink="http://www.w3.org/1999/xlink" version="1.1" viewBox="-10 0 212 512">
   <path fill="currentColor"
d="M96 0q27 0 45.5 18.5t18.5 45.5t-18.5 45.5t-45.5 18.5t-45.5 -18.5t-18.5 -45.5t18.5 -45.5t45.5 -18.5zM144 144q20 0 34 14t14 34v136q0 10 -7 17t-17 7h-16v136q0 10 -7 17t-17 7h-64q-10 0 -17 -7t-7 -17v-136h-16q-10 0 -17 -7t-7 -17v-136q0 -20 14 -34t34 -14h11
q37 17 74 0h11z" />
</svg>
