<?xml version="1.0" standalone="no"?>
<!DOCTYPE svg PUBLIC "-//W3C//DTD SVG 1.1//EN" "http://www.w3.org/Graphics/SVG/1.1/DTD/svg11.dtd" >
<svg xmlns="http://www.w3.org/2000/svg" xmlns:xlink="http://www.w3.org/1999/xlink" version="1.1" viewBox="-11 0 533 512">
   <path fill="currentColor"
d="M507 51q5 4 5 11q0 5 -2 8l-41 64q-6 11 -19 14l-56 15l-74 74q0 53 -5.5 95.5t-12 66t-18 43.5t-16 25.5t-12.5 13.5q-35 36 -100 30.5t-107.5 -48t-48 -107.5t30.5 -100q11 -11 20 -17.5t36.5 -20t75 -20t112.5 -6.5l74 -74l15 -56q3 -13 14 -20l64 -40q3 -2 8 -2
q7 0 11 5zM208 352q20 0 34 -14t14 -34t-14 -34t-34 -14t-34 14t-14 34t14 34t34 14z" />
</svg>
