<?xml version="1.0" standalone="no"?>
<!DOCTYPE svg PUBLIC "-//W3C//DTD SVG 1.1//EN" "http://www.w3.org/Graphics/SVG/1.1/DTD/svg11.dtd" >
<svg xmlns="http://www.w3.org/2000/svg" xmlns:xlink="http://www.w3.org/1999/xlink" version="1.1" viewBox="-10 0 404 512">
   <path fill="currentColor"
d="M192 0q79 0 135.5 56.5t56.5 135.5q0 15 -2 27.5t-4 23t-10.5 26.5t-14.5 27t-23 36t-29.5 43t-40.5 57.5t-49 69.5q-7 10 -19 10t-19 -10q-21 -30 -49 -69.5t-40.5 -57.5t-29.5 -43t-23 -36t-14.5 -27t-10.5 -26.5t-4 -23t-2 -27.5q0 -79 56.5 -135.5t135.5 -56.5z
M192 352q13 0 22.5 -9.5t9.5 -22.5t-9.5 -22.5t-22.5 -9.5t-22.5 9.5t-9.5 22.5t9.5 22.5t22.5 9.5zM219 239q29 -16 46.5 -33.5t17.5 -45.5q0 -35 -24.5 -61.5t-63.5 -26.5q-31 0 -55 19.5t-31 48.5q-1 5 0.5 9.5t5.5 7.5t9 3h17q12 0 15 -12q4 -12 14.5 -20t24.5 -8
q18 0 29 12t11 28q0 11 -12 20t-39 22q-13 7 -13 22v16q0 7 4.5 11.5t11.5 4.5h16q6 0 11 -4.5t5 -11.5v-1z" />
</svg>
