<?xml version="1.0" standalone="no"?>
<!DOCTYPE svg PUBLIC "-//W3C//DTD SVG 1.1//EN" "http://www.w3.org/Graphics/SVG/1.1/DTD/svg11.dtd" >
<svg xmlns="http://www.w3.org/2000/svg" xmlns:xlink="http://www.w3.org/1999/xlink" version="1.1" viewBox="-11 0 662 512">
   <path fill="currentColor"
d="M301 502q-19 -26 -41 -57.5t-34.5 -49.5t-27.5 -39.5t-23 -33.5t-16.5 -26.5t-13 -24t-8.5 -19.5t-6 -20l258 199q-29 41 -50 71q-7 10 -19 10t-19 -10zM634 458q12 10 3 23l-20 25q-10 12 -22 3l-589 -455q-12 -10 -3 -23l20 -25q10 -12 22 -3l113 87q26 -41 69 -65.5
t93 -24.5q79 0 135.5 56.5t56.5 135.5q0 35 -10 62t-40 72zM370 254q30 -24 30 -62q0 -34 -23 -57t-57 -23q-24 0 -44 13t-29 34z" />
</svg>
