<?xml version="1.0" standalone="no"?>
<!DOCTYPE svg PUBLIC "-//W3C//DTD SVG 1.1//EN" "http://www.w3.org/Graphics/SVG/1.1/DTD/svg11.dtd" >
<svg xmlns="http://www.w3.org/2000/svg" xmlns:xlink="http://www.w3.org/1999/xlink" version="1.1" viewBox="-10 0 404 512">
   <path fill="currentColor"
d="M192 0q79 0 135.5 56.5t56.5 135.5q0 15 -2 27.5t-4 23t-10.5 26.5t-14.5 27t-23 36t-29.5 43t-40.5 57.5t-49 69.5q-7 10 -19 10t-19 -10q-21 -30 -49 -69.5t-40.5 -57.5t-29.5 -43t-23 -36t-14.5 -27t-10.5 -26.5t-4 -23t-2 -27.5q0 -79 56.5 -135.5t135.5 -56.5z
M277 243l-51 -51l51 -51q11 -11 0 -23l-11 -11q-12 -11 -23 0l-51 51l-51 -51q-11 -11 -23 0l-11 11q-11 12 0 23l51 51l-51 51q-11 11 0 23l11 11q12 11 23 0l51 -51l51 51q11 11 23 0l11 -11q11 -12 0 -23z" />
</svg>
