<?xml version="1.0" standalone="no"?>
<!DOCTYPE svg PUBLIC "-//W3C//DTD SVG 1.1//EN" "http://www.w3.org/Graphics/SVG/1.1/DTD/svg11.dtd" >
<svg xmlns="http://www.w3.org/2000/svg" xmlns:xlink="http://www.w3.org/1999/xlink" version="1.1" viewBox="-10 0 308 512">
   <path fill="currentColor"
d="M112 317q17 3 32 3t32 -3v157l-22 33q-4 5 -10 5t-10 -5l-22 -33v-157zM144 0q60 0 102 42t42 102t-42 102t-102 42t-102 -42t-42 -102t42 -102t102 -42zM144 76q12 0 12 -12t-12 -12q-38 0 -65 27t-27 65q0 12 12 12t12 -12q0 -28 20 -48t48 -20z" />
</svg>
