<?xml version="1.0" standalone="no"?>
<!DOCTYPE svg PUBLIC "-//W3C//DTD SVG 1.1//EN" "http://www.w3.org/Graphics/SVG/1.1/DTD/svg11.dtd" >
<svg xmlns="http://www.w3.org/2000/svg" xmlns:xlink="http://www.w3.org/1999/xlink" version="1.1" viewBox="-11 0 533 512">
   <path fill="currentColor"
d="M94 290l75 -75l128 128l-75 75q-34 34 -91 61.5t-104 32.5q-12 1 -20 -7t-7 -20q5 -47 32.5 -104t61.5 -91zM485.5 26.5q26.5 26.5 26.5 64t-27 64.5l-165 165l-128 -128l98 -98l-19 -20l-87 87q-12 11 -23 0l-23 -23q-11 -11 0 -22l105 -104q11 -12 27.5 -12t28.5 12
l37 36l21 -21q27 -27 64.5 -27t64 26.5z" />
</svg>
