<?xml version="1.0" standalone="no"?>
<!DOCTYPE svg PUBLIC "-//W3C//DTD SVG 1.1//EN" "http://www.w3.org/Graphics/SVG/1.1/DTD/svg11.dtd" >
<svg xmlns="http://www.w3.org/2000/svg" xmlns:xlink="http://www.w3.org/1999/xlink" version="1.1" viewBox="-10 0 404 512">
   <path fill="currentColor"
d="M372 64q5 0 8.5 3.5t3.5 8.5v79q0 8 -7.5 11t-12.5 -3l-17 -17l-18 18l14 14q9 9 0 17l-28 28q-9 9 -17 0l-14 -14l-18 18q22 35 22 77q0 60 -42 102t-102 42t-102 -42t-42 -102q0 -39 19.5 -72t52.5 -52.5t72 -19.5q42 0 77 22l18 -18l-15 -14q-8 -8 0 -17l29 -28
q8 -9 17 0l14 14l17 -18l-17 -17q-5 -5 -2 -12.5t11 -7.5h79zM144 384q33 0 56.5 -23.5t23.5 -56.5t-23.5 -56.5t-56.5 -23.5t-56.5 23.5t-23.5 56.5t23.5 56.5t56.5 23.5z" />
</svg>
