<?xml version="1.0" standalone="no"?>
<!DOCTYPE svg PUBLIC "-//W3C//DTD SVG 1.1//EN" "http://www.w3.org/Graphics/SVG/1.1/DTD/svg11.dtd" >
<svg xmlns="http://www.w3.org/2000/svg" xmlns:xlink="http://www.w3.org/1999/xlink" version="1.1" viewBox="-10 0 532 512">
   <path fill="currentColor"
d="M340 0q12 0 12 12v79q0 5 -3.5 8.5t-8.5 3.5t-8 -3l-17 -17l-49 48q22 35 22 77q0 60 -42 102t-102 42t-102 -42t-42 -102t42 -102t102 -42q42 0 77 22l48 -49l-17 -17q-5 -5 -2 -12.5t11 -7.5h79zM144 288q33 0 56.5 -23.5t23.5 -56.5t-23.5 -56.5t-56.5 -23.5
t-56.5 23.5t-23.5 56.5t23.5 56.5t56.5 23.5zM500 160q5 0 8.5 3.5t3.5 8.5v79q0 5 -3.5 8.5t-8.5 3.5t-8 -3l-17 -17l-49 48q22 35 22 77q0 60 -42 102t-102 42q-37 0 -68.5 -17t-51 -46.5t-23.5 -65.5q33 -3 63 -18v3q0 33 23.5 56.5t56.5 23.5t56.5 -23.5t23.5 -56.5
q0 -22 -10.5 -40.5t-29 -29t-40.5 -10.5h-1.5h-1.5q15 -30 18 -63q33 3 62 21l48 -49l-17 -17q-5 -5 -2 -12.5t11 -7.5h79z" />
</svg>
