<?xml version="1.0" standalone="no"?>
<!DOCTYPE svg PUBLIC "-//W3C//DTD SVG 1.1//EN" "http://www.w3.org/Graphics/SVG/1.1/DTD/svg11.dtd" >
<svg xmlns="http://www.w3.org/2000/svg" xmlns:xlink="http://www.w3.org/1999/xlink" version="1.1" viewBox="-11 0 662 512">
   <path fill="currentColor"
d="M321 64q215 0 289 109q50 73 19 160q-27 72 -90 102q-29 13 -60 13q-63 0 -101 -56l-26 -38q-12 -17 -31.5 -17t-31.5 17l-25 38q-38 56 -102 56q-79 0 -127.5 -68t-29.5 -148q23 -96 137 -140q74 -28 179 -28zM184 308q47 0 80 -41q9 -11 0 -22q-33 -41 -80 -41t-80 41
q-9 11 0 22q33 41 80 41zM456 308q47 0 80 -41q9 -11 0 -22q-33 -41 -80 -41t-80 41q-9 11 0 22q33 41 80 41z" />
</svg>
