<?xml version="1.0" standalone="no"?>
<!DOCTYPE svg PUBLIC "-//W3C//DTD SVG 1.1//EN" "http://www.w3.org/Graphics/SVG/1.1/DTD/svg11.dtd" >
<svg xmlns="http://www.w3.org/2000/svg" xmlns:xlink="http://www.w3.org/1999/xlink" version="1.1" viewBox="-10 0 533 512">
   <path fill="currentColor"
d="M444 69q50 49 64 108t-15 96q-2 5 -6 9q-103 102 -184 102h-101l-8 9q-15 14 -6 36q4 11 4 23q0 16 -8 30t-22 22t-30 8q-25 0 -43 -18q-23 -22 -15 -56q-34 8 -56 -15q-18 -18 -18 -43t17.5 -42.5t42.5 -17.5q12 0 23 4q22 9 37 -6l8 -8v-101q0 -81 102 -183l8 -6
q25 -20 61 -20q23 0 48 8t50 23.5t47 37.5zM453 248q11 -14 11.5 -36.5t-14 -53t-40.5 -56.5q-17 -16 -36 -28.5t-38.5 -19t-36.5 -6.5q-23 0 -35 12q-17 17 -9 54q9 48 52 91q25 25 55 40t56 15q23 0 35 -12zM332 127.5q7 -7.5 20 -5t24 13.5t14 24t-4.5 20.5t-20.5 5
t-24 -13.5t-13.5 -24t4.5 -20.5z" />
</svg>
