<?xml version="1.0" standalone="no"?>
<!DOCTYPE svg PUBLIC "-//W3C//DTD SVG 1.1//EN" "http://www.w3.org/Graphics/SVG/1.1/DTD/svg11.dtd" >
<svg xmlns="http://www.w3.org/2000/svg" xmlns:xlink="http://www.w3.org/1999/xlink" version="1.1" viewBox="-11 0 534 512">
   <path fill="currentColor"
d="M224 131q-63 10 -110 53l-111 -159q-6 -8 -1.5 -16.5t14.5 -8.5h111q18 0 28 16zM496 0q10 0 14.5 8.5t-1.5 16.5l-111 159q-47 -43 -110 -53l69 -115q10 -16 28 -16h111zM256 160q73 0 124.5 51.5t51.5 124.5t-51.5 124.5t-124.5 51.5t-124.5 -51.5t-51.5 -124.5
t51.5 -124.5t124.5 -51.5zM349 317q5 -5 2.5 -11.5t-9.5 -7.5l-52 -8l-24 -47q-3 -7 -10 -7t-10 7l-24 47l-52 8q-7 1 -9.5 7.5t2.5 11.5l38 37l-9 52q-1 7 5 11.5t12 1.5l47 -25l47 25q6 3 12 -1.5t5 -11.5l-9 -52z" />
</svg>
