<?xml version="1.0" standalone="no"?>
<!DOCTYPE svg PUBLIC "-//W3C//DTD SVG 1.1//EN" "http://www.w3.org/Graphics/SVG/1.1/DTD/svg11.dtd" >
<svg xmlns="http://www.w3.org/2000/svg" xmlns:xlink="http://www.w3.org/1999/xlink" version="1.1" viewBox="-10 0 532 512">
   <path fill="currentColor"
d="M96 480v-352h32v-48q0 -20 14 -34t34 -14h160q20 0 34 14t14 34v48h32v352h-320zM192 96v32h128v-32h-128zM512 176v256q0 20 -14 34t-34 14h-16v-352h16q20 0 34 14t14 34zM64 480h-16q-20 0 -34 -14t-14 -34v-256q0 -20 14 -34t34 -14h16v352zM352 272q0 -7 -4.5 -11.5
t-11.5 -4.5h-48v-48q0 -7 -4.5 -11.5t-11.5 -4.5h-32q-7 0 -11.5 4.5t-4.5 11.5v48h-48q-7 0 -11.5 4.5t-4.5 11.5v32q0 7 4.5 11.5t11.5 4.5h48v48q0 7 4.5 11.5t11.5 4.5h32q7 0 11.5 -4.5t4.5 -11.5v-48h48q7 0 11.5 -4.5t4.5 -11.5v-32z" />
</svg>
