<?xml version="1.0" standalone="no"?>
<!DOCTYPE svg PUBLIC "-//W3C//DTD SVG 1.1//EN" "http://www.w3.org/Graphics/SVG/1.1/DTD/svg11.dtd" >
<svg xmlns="http://www.w3.org/2000/svg" xmlns:xlink="http://www.w3.org/1999/xlink" version="1.1" viewBox="-10 0 596 512">
   <path fill="currentColor"
d="M32 176q17 0 27 15l421 -127v384l-132 -40q-8 32 -33.5 52t-58.5 20q-40 0 -68 -28t-28 -68q0 -15 6 -31l-107 -32q-10 15 -27 15q-13 0 -22.5 -9.5t-9.5 -22.5v-96q0 -13 9.5 -22.5t22.5 -9.5zM211 367q-3 8 -3 17q0 20 14 34t34 14q17 0 30 -10.5t17 -27.5zM560 32
q7 0 11.5 4.5t4.5 11.5v416q0 7 -4.5 11.5t-11.5 4.5h-32q-7 0 -11.5 -4.5t-4.5 -11.5v-416q0 -7 4.5 -11.5t11.5 -4.5h32z" />
</svg>
