<?xml version="1.0" standalone="no"?>
<!DOCTYPE svg PUBLIC "-//W3C//DTD SVG 1.1//EN" "http://www.w3.org/Graphics/SVG/1.1/DTD/svg11.dtd" >
<svg xmlns="http://www.w3.org/2000/svg" xmlns:xlink="http://www.w3.org/1999/xlink" version="1.1" viewBox="-10 0 516 512">
   <path fill="currentColor"
d="M248 8q103 0 175.5 72.5t72.5 175.5t-72.5 175.5t-175.5 72.5t-175.5 -72.5t-72.5 -175.5t72.5 -175.5t175.5 -72.5zM88 224q0 26 19 45t45 19t45 -19t19 -45q0 -38 -34 -56q2 6 2 8q0 13 -9.5 22.5t-22.5 9.5t-22.5 -9.5t-9.5 -22.5q0 -2 2 -8q-34 18 -34 56zM312 400
q16 0 16 -16t-16 -16h-128q-16 0 -16 16t16 16h128zM344 288q26 0 45 -19t19 -45q0 -38 -34 -56q2 6 2 8q0 13 -9.5 22.5t-22.5 9.5t-22.5 -9.5t-9.5 -22.5q0 -2 2 -8q-34 18 -34 56q0 26 19 45t45 19z" />
</svg>
