<?xml version="1.0" standalone="no"?>
<!DOCTYPE svg PUBLIC "-//W3C//DTD SVG 1.1//EN" "http://www.w3.org/Graphics/SVG/1.1/DTD/svg11.dtd" >
<svg xmlns="http://www.w3.org/2000/svg" xmlns:xlink="http://www.w3.org/1999/xlink" version="1.1" viewBox="-10 0 660 512">
   <path fill="currentColor"
d="M144 128q7 0 11.5 4.5t4.5 11.5v144h-64v-144q0 -7 4.5 -11.5t11.5 -4.5h32zM240 128q7 0 11.5 4.5t4.5 11.5v144h-64v-144q0 -7 4.5 -11.5t11.5 -4.5h32zM432 128q7 0 11.5 4.5t4.5 11.5v144h-64v-144q0 -7 4.5 -11.5t11.5 -4.5h32zM528 128q7 0 11.5 4.5t4.5 11.5v144
h-64v-144q0 -7 4.5 -11.5t11.5 -4.5h32zM608 96q-13 0 -22.5 -9.5t-9.5 -22.5q0 -8 8 -24t16 -28l8 -12q32 46 32 64q0 13 -9.5 22.5t-22.5 9.5zM512 96q-13 0 -22.5 -9.5t-9.5 -22.5q0 -8 8 -24t16 -28l8 -12q32 46 32 64q0 13 -9.5 22.5t-22.5 9.5zM416 96
q-13 0 -22.5 -9.5t-9.5 -22.5q0 -8 8 -24t16 -28l8 -12q32 46 32 64q0 13 -9.5 22.5t-22.5 9.5zM320 96q-13 0 -22.5 -9.5t-9.5 -22.5q0 -8 8 -24t16 -28l8 -12q32 46 32 64q0 13 -9.5 22.5t-22.5 9.5zM224 96q-13 0 -22.5 -9.5t-9.5 -22.5q0 -8 8 -24t16 -28l8 -12
q32 46 32 64q0 13 -9.5 22.5t-22.5 9.5zM128 96q-13 0 -22.5 -9.5t-9.5 -22.5q0 -8 8 -24t16 -28l8 -12q32 46 32 64q0 13 -9.5 22.5t-22.5 9.5zM32 96q-13 0 -22.5 -9.5t-9.5 -22.5q0 -8 8 -24t16 -28l8 -12q32 46 32 64q0 13 -9.5 22.5t-22.5 9.5zM576 288v-144
q0 -7 4.5 -11.5t11.5 -4.5h32q7 0 11.5 4.5t4.5 11.5v144q0 40 -28 68t-68 28h-192v64h176q7 0 11.5 4.5t4.5 11.5v32q0 7 -4.5 11.5t-11.5 4.5h-416q-7 0 -11.5 -4.5t-4.5 -11.5v-32q0 -7 4.5 -11.5t11.5 -4.5h176v-64h-192q-40 0 -68 -28t-28 -68v-144q0 -7 4.5 -11.5
t11.5 -4.5h32q7 0 11.5 4.5t4.5 11.5v144q0 13 9.5 22.5t22.5 9.5h192v-176q0 -7 4.5 -11.5t11.5 -4.5h32q7 0 11.5 4.5t4.5 11.5v176h192q13 0 22.5 -9.5t9.5 -22.5z" />
</svg>
