<?xml version="1.0" standalone="no"?>
<!DOCTYPE svg PUBLIC "-//W3C//DTD SVG 1.1//EN" "http://www.w3.org/Graphics/SVG/1.1/DTD/svg11.dtd" >
<svg xmlns="http://www.w3.org/2000/svg" xmlns:xlink="http://www.w3.org/1999/xlink" version="1.1" viewBox="-10 0 532 512">
   <path fill="currentColor"
d="M491 1q9 -3 16 3.5t4 16.5q-29 97 -61 187q16 5 19 6q7 2 10 9t-1 14q-11 21 -24 44t-32.5 55t-42 63t-43.5 52l-2 2t-1 2q-57 57 -138 57t-138 -57t-57 -138t57 -138l2 -1l2 -2q68 -66 214 -142q7 -4 14 -1t9 10q0 2 6 19q90 -32 187 -61zM192 448q53 0 90.5 -37.5
t37.5 -90.5t-37.5 -90.5t-90.5 -37.5t-90.5 37.5t-37.5 90.5t37.5 90.5t90.5 37.5zM160 256q13 0 22.5 9.5t9.5 22.5t-9.5 22.5t-22.5 9.5t-22.5 -9.5t-9.5 -22.5t9.5 -22.5t22.5 -9.5zM208 352q7 0 11.5 4.5t4.5 11.5t-4.5 11.5t-11.5 4.5t-11.5 -4.5t-4.5 -11.5t4.5 -11.5
t11.5 -4.5z" />
</svg>
