<?xml version="1.0" standalone="no"?>
<!DOCTYPE svg PUBLIC "-//W3C//DTD SVG 1.1//EN" "http://www.w3.org/Graphics/SVG/1.1/DTD/svg11.dtd" >
<svg xmlns="http://www.w3.org/2000/svg" xmlns:xlink="http://www.w3.org/1999/xlink" version="1.1" viewBox="-10 0 660 512">
   <path fill="currentColor"
d="M410 273q-44 7 -78.5 37.5t-43.5 73.5v-324q0 -16 8 -30t22 -22t30 -8q21 0 37 13t21 32h1.5h0.5q25 0 43 17.5t18 42.5q0 6 -2 13q21 9 34 27.5t13 42.5q0 11 -5 24q-29 13 -29 45v15h-51q-11 0 -19 1zM196 0q25 0 42.5 17.5t17.5 42.5v352q0 19 -9 34.5t-24.5 24.5
t-34.5 9q-22 0 -39.5 -13t-24.5 -33q-6 1 -11 1q-28 0 -48 -20t-20 -47q0 -7 1 -14q-20 -8 -33 -27t-13 -42q0 -43 38 -65q-8 -16 -8 -32q0 -24 13 -42.5t34 -27.5q-2 -7 -2 -13q0 -25 18 -42.5t43 -17.5h0.5h1.5q5 -19 21 -32t37 -13zM635 340q5 5 5 12t-5 12l-96 96
q-7 7 -17 2.5t-10 -15.5v-47h-64q-23 0 -38.5 11t-20 26.5t-5.5 32t4 26.5q2 5 -1 10t-7.5 6t-9.5 -2q-27 -18 -40.5 -48.5t-7.5 -65.5t32 -60.5t61 -30.5q5 -1 17 -1h80v-47q0 -11 9.5 -15.5t17.5 3.5z" />
</svg>
