<?xml version="1.0" standalone="no"?>
<!DOCTYPE svg PUBLIC "-//W3C//DTD SVG 1.1//EN" "http://www.w3.org/Graphics/SVG/1.1/DTD/svg11.dtd" >
<svg xmlns="http://www.w3.org/2000/svg" xmlns:xlink="http://www.w3.org/1999/xlink" version="1.1" viewBox="-10 0 596 512">
   <path fill="currentColor"
d="M373.5 117q-17.5 0 -30 -12.5t-12.5 -30t12.5 -30t30 -12.5t30 12.5t12.5 30t-12.5 30t-30 12.5zM542 261q30 30 33.5 69t-21.5 64t-64 21.5t-69 -33.5q-30 -31 -44 -131l-65 -65v96q72 83 72 128q0 42 -28 72t-68 30q-20 0 -37.5 -8t-30.5 -22t-20.5 -33t-7.5 -39
q0 -12 6 -29q10 3 18 3q30 0 51 -21t21 -51q0 -32 -24 -53v-73l-65 65q-2 11 -5 28q11 -7 22 -7q17 0 28.5 11.5t11.5 28t-11.5 28.5t-28.5 12q-23 0 -34 -21q-12 36 -27 51q-30 30 -69 33.5t-64 -21.5t-21.5 -64t33.5 -69q31 -30 131 -44l99 -99v-102q0 -7 4.5 -11.5
t11.5 -4.5h16q7 0 11.5 4.5t4.5 11.5v16q-13 20 -13 43t13 42l99 100q100 14 131 44z" />
</svg>
