<?xml version="1.0" standalone="no"?>
<!DOCTYPE svg PUBLIC "-//W3C//DTD SVG 1.1//EN" "http://www.w3.org/Graphics/SVG/1.1/DTD/svg11.dtd" >
<svg xmlns="http://www.w3.org/2000/svg" xmlns:xlink="http://www.w3.org/1999/xlink" version="1.1" viewBox="-10 0 340 512">
   <path fill="currentColor"
d="M272 0q20 0 34 14t14 34v416q0 20 -14 34t-34 14h-224q-20 0 -34 -14t-14 -34v-416q0 -20 14 -34t34 -14h224zM208 452v-8q0 -12 -12 -12h-72q-12 0 -12 12v8q0 12 12 12h72q12 0 12 -12zM272 372v-312q0 -12 -12 -12h-200q-12 0 -12 12v312q0 12 12 12h200q12 0 12 -12z
" />
</svg>
