<?xml version="1.0" standalone="no"?>
<!DOCTYPE svg PUBLIC "-//W3C//DTD SVG 1.1//EN" "http://www.w3.org/Graphics/SVG/1.1/DTD/svg11.dtd" >
<svg xmlns="http://www.w3.org/2000/svg" xmlns:xlink="http://www.w3.org/1999/xlink" version="1.1" viewBox="-10 0 660 512">
   <path fill="currentColor"
d="M205 116l-38 -37q-7 -7 -7 -17t7 -17l38 -38q7 -7 17 -7t17 7l42 42l-72 72zM608 160q13 0 22.5 9.5t9.5 22.5v288q0 13 -9.5 22.5t-22.5 9.5h-576q-13 0 -22.5 -9.5t-9.5 -22.5v-288q0 -13 9.5 -22.5t22.5 -9.5h171l128 128h-67q-8 0 -8 8v16q0 8 8 8h99l64 64h-163
q-8 0 -8 8v16q0 8 8 8h296q7 0 11.5 -4.5t4.5 -11.5v-74q0 -27 -19 -46l-120 -120h171zM144 416q18 -1 30.5 -14t12.5 -31q0 -15 -9 -27t-23 -17l-45 -13q-9 -3 -9 -13q0 -5 3.5 -9t8.5 -4h28q7 0 13 4q2 1 5 1t5 -2l12 -11q2 -3 2 -6q0 -4 -3 -6q-14 -11 -31 -12v-16
q0 -8 -8 -8h-16q-8 0 -8 8v16q-18 1 -30.5 14t-12.5 31q0 15 9 27t23 17l45 13q9 3 9 13q0 5 -3.5 9t-8.5 4h-28q-7 0 -13 -4q-2 -1 -5 -1t-5 2l-12 11q-2 3 -2 6q0 4 3 6q14 11 31 12v16q0 8 8 8h16q8 0 8 -8v-16zM463 375l-232 -232l72 -72l232 232q9 9 9 23v42
q0 7 -4.5 11.5t-11.5 4.5h-43q-13 0 -22 -9z" />
</svg>
