<?xml version="1.0" standalone="no"?>
<!DOCTYPE svg PUBLIC "-//W3C//DTD SVG 1.1//EN" "http://www.w3.org/Graphics/SVG/1.1/DTD/svg11.dtd" >
<svg xmlns="http://www.w3.org/2000/svg" xmlns:xlink="http://www.w3.org/1999/xlink" version="1.1" viewBox="-10 0 660 512">
   <path fill="currentColor"
d="M608 32q13 0 22.5 9.5t9.5 22.5v384q0 13 -9.5 22.5t-22.5 9.5h-576q-13 0 -22.5 -9.5t-9.5 -22.5v-384q0 -13 9.5 -22.5t22.5 -9.5h576zM176 328q9 0 17 -4t13.5 -10t9 -14t3.5 -17q0 -15 -9 -27t-23 -17l-45 -13q-9 -3 -9 -13q0 -5 3.5 -9t8.5 -4h28q7 0 13 4
q6 3 10 -1l12 -11q7 -7 -1 -12q-14 -11 -31 -12v-16q0 -8 -8 -8h-16q-8 0 -8 8v16q-18 1 -30.5 14t-12.5 31q0 15 9 27t23 17l45 13q9 3 9 13q0 5 -3.5 9t-8.5 4h-28q-7 0 -13 -4q-6 -3 -10 1l-12 11q-7 7 1 12q14 11 31 12v16q0 8 8 8h16q8 0 8 -8v-16zM416 312v-16
q0 -8 -8 -8h-112q-8 0 -8 8v16q0 8 8 8h112q8 0 8 -8zM576 312v-16q0 -8 -8 -8h-80q-8 0 -8 8v16q0 8 8 8h80q8 0 8 -8zM576 216v-16q0 -8 -8 -8h-272q-8 0 -8 8v16q0 8 8 8h272q8 0 8 -8z" />
</svg>
