<?xml version="1.0" standalone="no"?>
<!DOCTYPE svg PUBLIC "-//W3C//DTD SVG 1.1//EN" "http://www.w3.org/Graphics/SVG/1.1/DTD/svg11.dtd" >
<svg xmlns="http://www.w3.org/2000/svg" xmlns:xlink="http://www.w3.org/1999/xlink" version="1.1" viewBox="-10 0 660 512">
   <path fill="currentColor"
d="M463 375l-232 -232l72 -72l232 232q9 9 9 23v42q0 7 -4.5 11.5t-11.5 4.5h-42q-14 0 -23 -9zM209 121l-42 -42q-7 -7 -7 -17t7 -17l38 -38q7 -7 17 -7t17 7l42 42zM608 160q13 0 22.5 9.5t9.5 22.5v288q0 13 -9.5 22.5t-22.5 9.5h-576q-13 0 -22.5 -9.5t-9.5 -22.5v-288
q0 -13 9.5 -22.5t22.5 -9.5h171l128 128h-227q-8 0 -8 8v16q0 8 8 8h259l64 64h-323q-8 0 -8 8v16q0 8 8 8h456q7 0 11.5 -4.5t4.5 -11.5v-74q0 -27 -19 -46l-120 -120h171z" />
</svg>
