<?xml version="1.0" standalone="no"?>
<!DOCTYPE svg PUBLIC "-//W3C//DTD SVG 1.1//EN" "http://www.w3.org/Graphics/SVG/1.1/DTD/svg11.dtd" >
<svg xmlns="http://www.w3.org/2000/svg" xmlns:xlink="http://www.w3.org/1999/xlink" version="1.1" viewBox="-10 0 660 512">
   <path fill="currentColor"
d="M0 448v-320h640v320q0 13 -9.5 22.5t-22.5 9.5h-576q-13 0 -22.5 -9.5t-9.5 -22.5zM448 240v32q0 7 4.5 11.5t11.5 4.5h96q7 0 11.5 -4.5t4.5 -11.5v-32q0 -7 -4.5 -11.5t-11.5 -4.5h-96q-7 0 -11.5 4.5t-4.5 11.5zM448 360v16q0 8 8 8h112q8 0 8 -8v-16q0 -8 -8 -8h-112
q-8 0 -8 8zM64 264v16q0 8 8 8h304q8 0 8 -8v-16q0 -8 -8 -8h-304q-8 0 -8 8zM64 360v16q0 8 8 8h176q8 0 8 -8v-16q0 -8 -8 -8h-176q-8 0 -8 8zM624 32q7 0 11.5 4.5t4.5 11.5v48h-640v-48q0 -7 4.5 -11.5t11.5 -4.5h608z" />
</svg>
