<?xml version="1.0" standalone="no"?>
<!DOCTYPE svg PUBLIC "-//W3C//DTD SVG 1.1//EN" "http://www.w3.org/Graphics/SVG/1.1/DTD/svg11.dtd" >
<svg xmlns="http://www.w3.org/2000/svg" xmlns:xlink="http://www.w3.org/1999/xlink" version="1.1" viewBox="-10 0 596 512">
   <path fill="currentColor"
d="M480 96v320h-384v-128h86l28 55q4 9 14 9t14 -9l50 -99l22 44h90q7 0 11.5 -4.5t4.5 -11.5t-4.5 -11.5t-11.5 -4.5h-70l-28 -55q-4 -9 -14 -9t-14 9l-50 99l-20 -40q-2 -4 -7 -4h-101v-160h384zM528 0q20 0 34 14t14 34v416q0 20 -14 34t-34 14h-480q-20 0 -34 -14
t-14 -34v-416q0 -20 14 -34t34 -14h480zM512 448v-384h-448v384h448z" />
</svg>
