<?xml version="1.0" standalone="no"?>
<!DOCTYPE svg PUBLIC "-//W3C//DTD SVG 1.1//EN" "http://www.w3.org/Graphics/SVG/1.1/DTD/svg11.dtd" >
<svg xmlns="http://www.w3.org/2000/svg" xmlns:xlink="http://www.w3.org/1999/xlink" version="1.1" viewBox="-10 0 660 512">
   <path fill="currentColor"
d="M549 267l54 161q5 15 5 30v38q0 7 -4.5 11.5t-11.5 4.5h-32q-7 0 -11.5 -4.5t-4.5 -11.5v-38l-2 -10l-34 -104l-156 104h64q13 0 22.5 9.5t9.5 22.5v16q0 7 -4.5 11.5t-11.5 4.5h-240q-40 0 -68 -28t-28 -68v-240q0 -7 -4.5 -11.5t-11.5 -4.5t-11.5 4.5t-4.5 11.5v48
q0 13 -9.5 22.5t-22.5 9.5t-22.5 -9.5t-9.5 -22.5v-48q0 -33 23.5 -56.5t56.5 -23.5t56.5 23.5t23.5 56.5v240q0 13 9.5 22.5t22.5 9.5v-32q0 -51 21.5 -96t59.5 -76.5t86 -43.5q8 25 26 45t42.5 31.5t52.5 11.5q38 0 69 -21zM592 64q20 0 34 14t14 34t-14 34t-34 14h-16
q0 40 -28 68t-68 28t-68 -28t-28 -68h-16q-20 0 -34 -14t-14 -34t14 -34t34 -14h22q10 -28 34.5 -46t55.5 -18t55.5 18t34.5 46h22zM440 120q7 0 11.5 -4.5t4.5 -11.5t-4.5 -11.5t-11.5 -4.5t-11.5 4.5t-4.5 11.5t4.5 11.5t11.5 4.5zM520 120q7 0 11.5 -4.5t4.5 -11.5
t-4.5 -11.5t-11.5 -4.5t-11.5 4.5t-4.5 11.5t4.5 11.5t11.5 4.5z" />
</svg>
