<?xml version="1.0" standalone="no"?>
<!DOCTYPE svg PUBLIC "-//W3C//DTD SVG 1.1//EN" "http://www.w3.org/Graphics/SVG/1.1/DTD/svg11.dtd" >
<svg xmlns="http://www.w3.org/2000/svg" xmlns:xlink="http://www.w3.org/1999/xlink" version="1.1" viewBox="-10 0 532 512">
   <path fill="currentColor"
d="M332 426q6 -1 9.5 4.5t-0.5 10.5q-27 33 -66 52t-83 19q-80 0 -136 -56t-56 -136q0 -90 69 -147.5t158 -41.5q6 1 7 7.5t-4 9.5q-36 20 -56 55t-20 76q0 70 54 115.5t124 31.5zM304 96l-16 -32l-32 -16l32 -16l16 -32l16 32l32 16l-32 16zM459 181l53 27l-53 27l-27 53
l-27 -53l-53 -27l53 -27l27 -53z" />
</svg>
