<?xml version="1.0" standalone="no"?>
<!DOCTYPE svg PUBLIC "-//W3C//DTD SVG 1.1//EN" "http://www.w3.org/Graphics/SVG/1.1/DTD/svg11.dtd" >
<svg xmlns="http://www.w3.org/2000/svg" xmlns:xlink="http://www.w3.org/1999/xlink" version="1.1" viewBox="-10 0 660 512">
   <path fill="currentColor"
d="M0 480v-320h128v320q0 13 -9.5 22.5t-22.5 9.5h-64q-13 0 -22.5 -9.5t-9.5 -22.5zM579 288h-358q-29 -28 -29 -59q0 -67 88 -123q69 -43 112 -96l8 -10l8 10q43 53 112 96q88 56 88 123q0 31 -29 59zM608 320q13 0 22.5 9.5t9.5 22.5v128q0 13 -9.5 22.5t-22.5 9.5h-32
v-64q0 -13 -9.5 -22.5t-22.5 -9.5t-22.5 9.5t-9.5 22.5v64h-64v-72q0 -21 -12 -39t-24 -25l-12 -8q-5 3 -13 8t-21.5 24t-13.5 40v72h-64v-64q0 -13 -9.5 -22.5t-22.5 -9.5t-22.5 9.5t-9.5 22.5v64h-32q-13 0 -22.5 -9.5t-9.5 -22.5v-128q0 -13 9.5 -22.5t22.5 -9.5h416z
M64 0q3 1 7 3.5t15 11.5t19.5 19.5t15.5 27t7 34.5v32h-128v-32q0 -28 16 -52t32 -34z" />
</svg>
