<?xml version="1.0" standalone="no"?>
<!DOCTYPE svg PUBLIC "-//W3C//DTD SVG 1.1//EN" "http://www.w3.org/Graphics/SVG/1.1/DTD/svg11.dtd" >
<svg xmlns="http://www.w3.org/2000/svg" xmlns:xlink="http://www.w3.org/1999/xlink" version="1.1" viewBox="-11 0 662 512">
   <path fill="currentColor"
d="M513 192q52 0 89.5 37.5t37.5 89.5q1 54 -37 92t-92 37q-52 0 -89.5 -37.5t-37.5 -89.5q0 -59 45 -98l-13 -21q-19 15 -32 35.5t-19 43t-5 46.5q1 10 -6.5 17.5t-17.5 7.5h-84q-11 42 -45.5 69t-78.5 27q-54 0 -91.5 -38.5t-36.5 -92.5q1 -51 37 -87t86 -38q22 -1 41 5
l12 -20q-16 -25 -48 -25h-56q-10 0 -17 -7t-7 -17t7 -17t17 -7h56q69 0 100 40h154l-20 -32h-66q-7 0 -11.5 -4.5t-4.5 -11.5v-16q0 -7 4.5 -11.5t11.5 -4.5h80q14 0 21 12l22 38l38 -42q7 -8 18 -8h45q10 0 17 7t7 17v32q0 10 -7 17t-17 7h-82l32 55q21 -7 43 -7zM128 400
q24 0 44 -13.5t29 -34.5h-81q-14 0 -21 -12t0 -24l41 -75q-5 -1 -12 -1q-33 0 -56.5 23.5t-23.5 56.5t23.5 56.5t56.5 23.5zM592 324q2 -34 -22 -59t-58 -25q-8 0 -16 2l49 81q3 5 1.5 11.5t-7.5 10.5l-13 8q-6 3 -12.5 1.5t-9.5 -7.5l-50 -82q-22 23 -22 55q0 34 25 58
t59 22q31 -2 52.5 -23.5t23.5 -52.5z" />
</svg>
