<?xml version="1.0" standalone="no"?>
<!DOCTYPE svg PUBLIC "-//W3C//DTD SVG 1.1//EN" "http://www.w3.org/Graphics/SVG/1.1/DTD/svg11.dtd" >
<svg xmlns="http://www.w3.org/2000/svg" xmlns:xlink="http://www.w3.org/1999/xlink" version="1.1" viewBox="-10 0 532 512">
   <path fill="currentColor"
d="M470 2q5 -2 10 -2q9 0 16 4.5t11.5 11.5t4.5 16v352q0 27 -28 45.5t-68 18.5t-68 -18.5t-28 -45.5t28 -45.5t68 -18.5q16 0 32 4v-185l-256 75v234q0 27 -28 45.5t-68 18.5t-68 -18.5t-28 -45.5t28 -45.5t68 -18.5q16 0 32 4v-261q0 -10 6.5 -19t15.5 -12z" />
</svg>
