<?xml version="1.0" standalone="no"?>
<!DOCTYPE svg PUBLIC "-//W3C//DTD SVG 1.1//EN" "http://www.w3.org/Graphics/SVG/1.1/DTD/svg11.dtd" >
<svg xmlns="http://www.w3.org/2000/svg" xmlns:xlink="http://www.w3.org/1999/xlink" version="1.1" viewBox="-10 0 469 512">
   <path fill="currentColor"
d="M416 208h-98l-75 96h173q13 0 22.5 9.5t9.5 22.5v32q0 13 -9.5 22.5t-22.5 9.5h-247l-83 106q-9 12 -22 3l-25 -20q-13 -9 -3 -22l51 -67h-55q-13 0 -22.5 -9.5t-9.5 -22.5v-32q0 -13 9.5 -22.5t22.5 -9.5h130l75 -96h-205q-13 0 -22.5 -9.5t-9.5 -22.5v-32
q0 -13 9.5 -22.5t22.5 -9.5h279l82 -106q10 -12 23 -3l25 20q13 9 3 22l-52 67h24q13 0 22.5 9.5t9.5 22.5v32q0 13 -9.5 22.5t-22.5 9.5z" />
</svg>
