<?xml version="1.0" standalone="no"?>
<!DOCTYPE svg PUBLIC "-//W3C//DTD SVG 1.1//EN" "http://www.w3.org/Graphics/SVG/1.1/DTD/svg11.dtd" >
<svg xmlns="http://www.w3.org/2000/svg" xmlns:xlink="http://www.w3.org/1999/xlink" version="1.1" viewBox="-10 0 596 512">
   <path fill="currentColor"
d="M64 320v26q0 6 -6 6h-52q-6 0 -6 -6v-52q0 -6 6 -6h26v-192h-26q-6 0 -6 -6v-52q0 -6 6 -6h52q6 0 6 6v26h288v-26q0 -6 6 -6h52q6 0 6 6v52q0 6 -6 6h-26v192h26q6 0 6 6v52q0 6 -6 6h-52q-6 0 -6 -6v-26h-288zM544 256v160h26q6 0 6 6v52q0 6 -6 6h-52q-6 0 -6 -6v-26
h-288v26q0 6 -6 6h-52q-6 0 -6 -6v-52q0 -6 6 -6h26v-72h136v8q0 10 7 17t17 7h64q10 0 17 -7t7 -17v-64q0 -10 -7 -17t-17 -7h-8v-72h104v-26q0 -6 6 -6h52q6 0 6 6v52q0 6 -6 6h-26v32z" />
</svg>
