<?xml version="1.0" standalone="no"?>
<!DOCTYPE svg PUBLIC "-//W3C//DTD SVG 1.1//EN" "http://www.w3.org/Graphics/SVG/1.1/DTD/svg11.dtd" >
<svg xmlns="http://www.w3.org/2000/svg" xmlns:xlink="http://www.w3.org/1999/xlink" version="1.1" viewBox="-10 0 660 512">
   <path fill="currentColor"
d="M320 384q-33 0 -56.5 -23.5t-23.5 -56.5q0 -24 13 -44t35 -29v-215q0 -7 4.5 -11.5t11.5 -4.5h96q7 0 11.5 4.5t4.5 11.5v16q0 7 -4.5 11.5t-11.5 4.5h-48v32h48q7 0 11.5 4.5t4.5 11.5v16q0 7 -4.5 11.5t-11.5 4.5h-48v32h48q7 0 11.5 4.5t4.5 11.5v16q0 7 -4.5 11.5
t-11.5 4.5h-48v23q22 9 35 29t13 44q0 33 -23.5 56.5t-56.5 23.5zM16 384q-7 0 -11.5 -4.5t-4.5 -11.5v-32q0 -7 4.5 -11.5t11.5 -4.5h16q37 0 56 -18q15 -14 32 -14h16q17 0 32 14q14 13 42 17q5 38 30 64q-13 1 -16 1q-58 0 -96 -32q-38 32 -96 32h-16zM624 448
q7 0 11.5 4.5t4.5 11.5v32q0 7 -4.5 11.5t-11.5 4.5h-16q-58 0 -96 -32q-38 32 -96 32t-96 -32q-38 32 -96 32t-96 -32q-38 32 -96 32h-16q-7 0 -11.5 -4.5t-4.5 -11.5v-32q0 -7 4.5 -11.5t11.5 -4.5h16q37 0 56 -18q15 -14 32 -14h16q17 0 32 14q19 18 56 18t56 -18
q15 -14 32 -14h16q17 0 32 14q19 18 56 18t56 -18q15 -14 32 -14h16q17 0 32 14q19 18 56 18h16zM624 320q7 0 11.5 4.5t4.5 11.5v32q0 7 -4.5 11.5t-11.5 4.5h-16q-58 0 -96 -32q-38 32 -96 32q-3 0 -16 -1q25 -26 30 -64q28 -4 42 -17q15 -14 32 -14h16q17 0 32 14
q19 18 56 18h16z" />
</svg>
