<?xml version="1.0" standalone="no"?>
<!DOCTYPE svg PUBLIC "-//W3C//DTD SVG 1.1//EN" "http://www.w3.org/Graphics/SVG/1.1/DTD/svg11.dtd" >
<svg xmlns="http://www.w3.org/2000/svg" xmlns:xlink="http://www.w3.org/1999/xlink" version="1.1" viewBox="-10 0 532 512">
   <path fill="currentColor"
d="M361 61l-22 -22q-3 -3 -3 -7t3 -7l22 -22q7 -7 14 0l22 22q3 3 3 7t-3 7l-22 22q-3 3 -7 3t-7 -3zM412 192q41 0 70.5 29.5t29.5 70.5v100q0 36 -29.5 62t-66.5 26q-27 0 -46.5 -6.5t-29 -16t-14.5 -19t-5 -15.5l-1 -7v-38q0 -6 5.5 -7.5t8.5 2.5q35 43 82 43
q11 0 21.5 -7.5t10.5 -16.5v-100q0 -15 -10.5 -25.5t-25.5 -10.5t-25 10l-25 25q-29 29 -70 29h-22q18 31 18 64q0 53 -37.5 90.5t-90.5 37.5q-42 0 -74.5 -15.5t-50.5 -39.5t-26.5 -48.5t-8.5 -47.5q0 -6 5.5 -8.5t9.5 3.5q1 2 4 6q11 20 19 30.5t24.5 26t41 22.5t56.5 7
q26 0 45 -19t19 -45t-19 -45t-45 -19h-33q-9 -1 -13 -9l-16 -32q-4 -8 0.5 -15.5t13.5 -7.5h32q20 0 34 -14t14 -34t-14 -34t-34 -14q-17 0 -30 11q-10 7 -20 0l-26 -20q-6 -4 -6 -11.5t5 -13.5q40 -38 96 -28q22 3 40.5 14.5t31.5 29.5t18 39q9 39 -8 75h47q15 0 25 -10
l24 -25q30 -29 71 -29zM454 67q8 -6 17 -1.5t9 14.5v36q0 3 -1.5 6t-4 6.5t-10 9.5t-18 10.5t-29 8t-40.5 3.5q-16 0 -31.5 -4t-26.5 -10t-21.5 -14t-17 -14.5t-12 -14t-7.5 -10.5t-3 -5q-6 -12 3.5 -20.5t20.5 -0.5q4 4 11 8t26 11.5t38.5 10t46 -4t50.5 -25.5z" />
</svg>
