<?xml version="1.0" standalone="no"?>
<!DOCTYPE svg PUBLIC "-//W3C//DTD SVG 1.1//EN" "http://www.w3.org/Graphics/SVG/1.1/DTD/svg11.dtd" >
<svg xmlns="http://www.w3.org/2000/svg" xmlns:xlink="http://www.w3.org/1999/xlink" version="1.1" viewBox="-11 0 661 512">
   <path fill="currentColor"
d="M608 32q13 0 22.5 9.5t9.5 22.5v32q0 40 -28 68t-68 28h-23l-92 50l55 110h28q13 0 22.5 9.5t9.5 22.5v16q0 7 -4.5 11.5t-11.5 4.5h-80l-75 -144l-149 80h64q13 0 22.5 9.5t9.5 22.5v16q0 7 -4.5 11.5t-11.5 4.5h-224q-7 0 -11.5 4.5t-4.5 11.5t4.5 11.5t11.5 4.5h112
q13 0 22.5 9.5t9.5 22.5t-9.5 22.5t-22.5 9.5h-108q-30 0 -54 -18.5t-29 -47.5q-7 -42 23 -72q40 -38 40 -84v-2q0 -80 56 -136t136 -56h56l153 -88q15 -8 32 -8h20h1q26 0 45 19l13 13h32zM512 48q-7 0 -11.5 4.5t-4.5 11.5t4.5 11.5t11.5 4.5t11.5 -4.5t4.5 -11.5
t-4.5 -11.5t-11.5 -4.5zM544 144q15 0 27.5 -9t17.5 -23h-77l-119 59l14 28l102 -55h35z" />
</svg>
