<?xml version="1.0" standalone="no"?>
<!DOCTYPE svg PUBLIC "-//W3C//DTD SVG 1.1//EN" "http://www.w3.org/Graphics/SVG/1.1/DTD/svg11.dtd" >
<svg xmlns="http://www.w3.org/2000/svg" xmlns:xlink="http://www.w3.org/1999/xlink" version="1.1" viewBox="-10 0 532 512">
   <path fill="currentColor"
d="M167 309l88 74l0.5 3.5t0.5 5.5q0 56 -35 88t-93 32q-64 0 -96 -44t-32 -111q2 2 8 6.5t12.5 9t13.5 9t12.5 7.5t8.5 3q11 0 15 -10q26 -68 97 -73zM458 0q22 0 38 14t16 36q0 19 -14 46q-85 159 -125 207.5t-86 48.5q-10 0 -22 -3l-64 -53q-9 -19 -9 -39q0 -9 0.5 -16
t4.5 -15t8 -14t14 -17.5t20 -20.5t29.5 -26.5t38 -33t50 -43.5t61.5 -55q18 -16 40 -16z" />
</svg>
