<?xml version="1.0" standalone="no"?>
<!DOCTYPE svg PUBLIC "-//W3C//DTD SVG 1.1//EN" "http://www.w3.org/Graphics/SVG/1.1/DTD/svg11.dtd" >
<svg xmlns="http://www.w3.org/2000/svg" xmlns:xlink="http://www.w3.org/1999/xlink" version="1.1" viewBox="-11 0 533 512">
   <path fill="currentColor"
d="M204 5q80 -16 151.5 14.5t114 94t42.5 141.5q0 27 -19 46t-46 19h-80q-38 0 -58 32t-3 66q15 28 2 57.5t-44 34.5q-47 7 -99 -14t-92 -61t-60.5 -102.5t-7.5 -129.5q15 -74 70 -128.5t129 -69.5zM96 320q13 0 22.5 -9.5t9.5 -22.5t-9.5 -22.5t-22.5 -9.5t-22.5 9.5
t-9.5 22.5t9.5 22.5t22.5 9.5zM128 192q13 0 22.5 -9.5t9.5 -22.5t-9.5 -22.5t-22.5 -9.5t-22.5 9.5t-9.5 22.5t9.5 22.5t22.5 9.5zM256 128q13 0 22.5 -9.5t9.5 -22.5t-9.5 -22.5t-22.5 -9.5t-22.5 9.5t-9.5 22.5t9.5 22.5t22.5 9.5zM384 192q13 0 22.5 -9.5t9.5 -22.5
t-9.5 -22.5t-22.5 -9.5t-22.5 9.5t-9.5 22.5t9.5 22.5t22.5 9.5z" />
</svg>
