<?xml version="1.0" standalone="no"?>
<!DOCTYPE svg PUBLIC "-//W3C//DTD SVG 1.1//EN" "http://www.w3.org/Graphics/SVG/1.1/DTD/svg11.dtd" >
<svg xmlns="http://www.w3.org/2000/svg" xmlns:xlink="http://www.w3.org/1999/xlink" version="1.1" viewBox="-10 0 468 512">
   <path fill="currentColor"
d="M43 466q-43 -45 -42.5 -108.5t44.5 -108.5l209 -215q34 -34 81 -34t80 34t33 81.5t-33 80.5l-183 187q-22 23 -54 22.5t-54 -23.5q-21 -22 -20.5 -53.5t22.5 -53.5l143 -147q12 -11 23 0l23 22q11 12 0 23l-144 147q-9 9 0 18q8 8 15 0l183 -186q15 -16 15 -37t-15 -36
q-14 -15 -34 -15t-35 15l-210 214q-26 27 -26 64.5t25.5 64t61.5 26.5t61 -26l172 -176q12 -12 23 0l23 22q11 11 0 23l-172 176q-45 45 -108 45t-107 -46z" />
</svg>
