<?xml version="1.0" standalone="no"?>
<!DOCTYPE svg PUBLIC "-//W3C//DTD SVG 1.1//EN" "http://www.w3.org/Graphics/SVG/1.1/DTD/svg11.dtd" >
<svg xmlns="http://www.w3.org/2000/svg" xmlns:xlink="http://www.w3.org/1999/xlink" version="1.1" viewBox="-10 0 516 512">
   <path fill="currentColor"
d="M248 8q103 0 175.5 72.5t72.5 175.5t-72.5 175.5t-175.5 72.5t-175.5 -72.5t-72.5 -175.5t72.5 -175.5t175.5 -72.5zM248 440q71 0 124 -48l-287 -221q-21 40 -21 85q0 76 54 130t130 54zM238 208l42 32q7 0 11.5 -4.5t4.5 -11.5t-4.5 -11.5t-11.5 -4.5h-42zM411 341
q21 -40 21 -85q0 -76 -54 -130t-130 -54q-71 0 -124 48l45 35q4 -11 15 -11h96q33 0 56.5 23.5t23.5 56.5q0 34 -26 58zM168 352v-69l64 50v19q0 7 -4.5 11.5t-11.5 4.5h-32q-7 0 -11.5 -4.5t-4.5 -11.5z" />
</svg>
