<?xml version="1.0" standalone="no"?>
<!DOCTYPE svg PUBLIC "-//W3C//DTD SVG 1.1//EN" "http://www.w3.org/Graphics/SVG/1.1/DTD/svg11.dtd" >
<svg xmlns="http://www.w3.org/2000/svg" xmlns:xlink="http://www.w3.org/1999/xlink" version="1.1" viewBox="-10 0 468 512">
   <path fill="currentColor"
d="M130 176q8 -49 53 -70q-12 29 -14 70h-39zM130 208h39q2 41 14 70q-45 -21 -53 -70zM224 287q-7 -7 -14.5 -28t-8.5 -51h46q-1 30 -8.5 51t-14.5 28zM201 176q1 -30 8.5 -51t14.5 -28q4 5 9 14t9 26.5t5 38.5h-46zM265 278q12 -29 14 -70h39q-8 49 -53 70zM416 0
q13 0 22.5 9.5t9.5 22.5v448q0 13 -9.5 22.5t-22.5 9.5h-352q-27 0 -45.5 -18.5t-18.5 -45.5v-384q0 -27 18.5 -45.5t45.5 -18.5h352zM336 416q7 0 11.5 -4.5t4.5 -11.5t-4.5 -11.5t-11.5 -4.5h-224q-7 0 -11.5 4.5t-4.5 11.5t4.5 11.5t11.5 4.5h224zM224 320
q53 0 90.5 -37.5t37.5 -90.5t-37.5 -90.5t-90.5 -37.5t-90.5 37.5t-37.5 90.5t37.5 90.5t90.5 37.5zM265 106q45 21 53 70h-39q-2 -41 -14 -70z" />
</svg>
