<?xml version="1.0" standalone="no"?>
<!DOCTYPE svg PUBLIC "-//W3C//DTD SVG 1.1//EN" "http://www.w3.org/Graphics/SVG/1.1/DTD/svg11.dtd" >
<svg xmlns="http://www.w3.org/2000/svg" xmlns:xlink="http://www.w3.org/1999/xlink" version="1.1" viewBox="-10 0 468 512">
   <path fill="currentColor"
d="M128 184v232h-104q-10 0 -17 -7t-7 -17v-336q0 -10 7 -17t17 -7h81q18 -32 55 -32t55 32h81q10 0 17 7t7 17v72h-136q-23 0 -39.5 16.5t-16.5 39.5zM160 40q-10 0 -17 7t-7 17t7 17t17 7t17 -7t7 -17t-7 -17t-17 -7zM344 288h104v200q0 10 -7 17t-17 7h-240q-10 0 -17 -7
t-7 -17v-304q0 -10 7 -17t17 -7h136v104q0 10 7 17t17 7zM448 250v6h-96v-96h6q10 0 17 7l66 66q7 7 7 17z" />
</svg>
