<?xml version="1.0" standalone="no"?>
<!DOCTYPE svg PUBLIC "-//W3C//DTD SVG 1.1//EN" "http://www.w3.org/Graphics/SVG/1.1/DTD/svg11.dtd" >
<svg xmlns="http://www.w3.org/2000/svg" xmlns:xlink="http://www.w3.org/1999/xlink" version="1.1" viewBox="-10 0 661 512">
   <path fill="currentColor"
d="M624.5 347.5q9.5 3.5 13.5 12.5t0.5 18.5t-12.5 13.5t-18.5 0.5t-31.5 11.5q-31 21 -52 21q-12 0 -23.5 -4.5t-19.5 -11.5t-13 -17t-7.5 -16.5t-5.5 -17.5q-3 -13 -6 -19q-28 23 -61 34q9 35 25 63t35 28q10 0 17 7t7 17t-7 17t-17 7q-23 0 -43 -14t-32.5 -36.5
t-19.5 -41t-12 -37.5q-13 1 -21 1t-21 -1q-5 19 -12 37.5t-19.5 41t-32.5 36.5t-43 14q-10 0 -17 -7t-7 -17t7 -17t17 -7q19 0 35 -28t25 -63q-33 -11 -61 -34q-3 6 -6 19q-4 15 -7 23.5t-13.5 21t-25.5 17.5q-11 5 -23 5q-21 0 -52 -21q-22 -15 -31.5 -11.5t-18.5 -0.5
t-12 -13q-2 -5 -2 -10t2 -9t5.5 -7.5t7.5 -4.5q10 -4 19.5 -4.5t16.5 1t15.5 5.5t12.5 6.5l12 7.5q22 15 31.5 11.5t15.5 -29.5q8 -29 18 -43q-4 -5 -6 -8q-19 17 -42 17q-16 0 -29 -8t-19 -15t-14 -20q-14 -21 -22 -21q-10 0 -17 -7t-7 -17t7 -17t17 -7q16 0 29 8t19 15.5
t14 19.5q14 21 22 21q7 0 18.5 -16.5t32.5 -42.5t46 -43l-17 -34q-25 -2 -42.5 -20.5t-17.5 -43.5q0 -27 18.5 -45.5t45.5 -18.5t45.5 18.5t18.5 45.5q0 19 -11 35l19 37q27 -8 56 -8t56 8l19 -37q-11 -16 -11 -35q0 -27 18.5 -45.5t45.5 -18.5t45.5 18.5t18.5 45.5
q0 25 -17.5 43.5t-42.5 20.5l-17 34q25 17 46 43t32.5 42.5t18.5 16.5q8 0 22 -21q8 -13 14 -20t19 -15t29 -8q10 0 17 7t7 17t-7 17t-17 7q-8 0 -22 21q-8 13 -14 20t-19 15t-29 8q-24 0 -42 -17q-2 3 -6 8q10 14 18 43q6 26 15.5 29.5t31.5 -11.5l12 -7.5t12.5 -6.5
t15.5 -5.5t16.5 -1t19 4zM448 48q-7 0 -11.5 4.5t-4.5 11.5t4.5 11.5t11.5 4.5t11.5 -4.5t4.5 -11.5t-4.5 -11.5t-11.5 -4.5zM192 48q-7 0 -11.5 4.5t-4.5 11.5t4.5 11.5t11.5 4.5t11.5 -4.5t4.5 -11.5t-4.5 -11.5t-11.5 -4.5z" />
</svg>
