<?xml version="1.0" standalone="no"?>
<!DOCTYPE svg PUBLIC "-//W3C//DTD SVG 1.1//EN" "http://www.w3.org/Graphics/SVG/1.1/DTD/svg11.dtd" >
<svg xmlns="http://www.w3.org/2000/svg" xmlns:xlink="http://www.w3.org/1999/xlink" version="1.1" viewBox="-10 0 532 512">
   <path fill="currentColor"
d="M193.5 223q-23.5 6 -46 -13t-31.5 -51q-13 -49 12 -79l64 -80v75q26 18 36 54q9 33 -1 60.5t-33.5 33.5zM319 223q-24 -6 -34 -33.5t-1 -60.5q10 -36 36 -54v-75l64 80q25 30 12 79q-4 16 -12.5 29.5t-19 22t-22.5 12t-23 0.5zM256 256q38 0 84 33.5t77 81t31 85.5
q0 26 -19 41t-53 15q-25 0 -63 -12.5t-57 -12.5q-18 0 -56.5 12.5t-63.5 12.5q-34 0 -53 -15t-19 -41q0 -38 31 -85.5t77 -81t84 -33.5zM109 243q8 26 -2 48.5t-32 27.5t-43 -9.5t-29 -40.5q-3 -11 -3 -22q0 -31 18 -57l46 -62v67q33 11 45 48zM494 190q18 26 18 57
q0 11 -3 22q-5 17 -16.5 29.5t-26.5 18t-29 2t-24 -15t-12 -27t2 -33.5q12 -37 45 -48v-67z" />
</svg>
