<?xml version="1.0" standalone="no"?>
<!DOCTYPE svg PUBLIC "-//W3C//DTD SVG 1.1//EN" "http://www.w3.org/Graphics/SVG/1.1/DTD/svg11.dtd" >
<svg xmlns="http://www.w3.org/2000/svg" xmlns:xlink="http://www.w3.org/1999/xlink" version="1.1" viewBox="-10 0 468 512">
   <path fill="currentColor"
d="M144 128q-20 0 -34 -14t-14 -34t14 -34t34 -14t34 14t14 34t-14 34t-34 14zM96 192q0 20 -14 34t-34 14t-34 -14t-14 -34t14 -34t34 -14t34 14t14 34zM304 128q-20 0 -34 -14t-14 -34t14 -34t34 -14t34 14t14 34t-14 34t-34 14zM400 144q20 0 34 14t14 34t-14 34t-34 14
t-34 -14t-14 -34t14 -34t34 -14zM367 301q23 12 36 34.5t13 48.5q0 40 -28 68t-68 28q-22 1 -41 -7t-32.5 -16.5t-22.5 -8.5q-8 0 -18 5t-19.5 11.5t-25 11.5t-33.5 4q-40 0 -68 -28t-28 -68q0 -26 13 -48.5t36 -34.5q7 -5 14.5 -12.5t15 -19t12.5 -20t13 -24.5t12 -22
q6 -11 14.5 -19t18.5 -13.5t21 -8t22 -2.5q24 0 44.5 11t31.5 32q4 6 10.5 18.5t10.5 20t10.5 18t11.5 17.5t11.5 13.5t12.5 10.5z" />
</svg>
