<?xml version="1.0" standalone="no"?>
<!DOCTYPE svg PUBLIC "-//W3C//DTD SVG 1.1//EN" "http://www.w3.org/Graphics/SVG/1.1/DTD/svg11.dtd" >
<svg xmlns="http://www.w3.org/2000/svg" xmlns:xlink="http://www.w3.org/1999/xlink" version="1.1" viewBox="-10 0 516 512">
   <path fill="currentColor"
d="M248 8q103 0 175.5 72.5t72.5 175.5t-72.5 175.5t-175.5 72.5t-175.5 -72.5t-72.5 -175.5t72.5 -175.5t175.5 -72.5zM432 256q0 -67 -43.5 -118.5t-108.5 -62.5v166l129 103q23 -41 23 -88zM216 437v-114l-89 71q38 34 89 43zM280 323v114q51 -9 89 -43zM216 75
q-43 8 -77.5 33.5t-54.5 64.5t-20 83q0 47 23 88l129 -103v-166z" />
</svg>
