<?xml version="1.0" standalone="no"?>
<!DOCTYPE svg PUBLIC "-//W3C//DTD SVG 1.1//EN" "http://www.w3.org/Graphics/SVG/1.1/DTD/svg11.dtd" >
<svg xmlns="http://www.w3.org/2000/svg" xmlns:xlink="http://www.w3.org/1999/xlink" version="1.1" viewBox="-10 0 597 512">
   <path fill="currentColor"
d="M576 77v77q0 6 -2.5 12t-7.5 11t-10 7l-33 13q-11 5 -23 0.5t-17 -15.5l-19 -38l-16 -7v102v1q0 45 -32 78v178q0 7 -4.5 11.5t-11.5 4.5h-64q-7 0 -11.5 -4.5t-4.5 -11.5v-150l-134 -23l-24 64l26 105q2 8 -2.5 14t-12.5 6h-66q-12 0 -15 -12l-25 -100q-2 -7 -2 -15
q0 -12 4 -23l26 -68q-31 -29 -31 -70v-5l1 -3q-17 13 -17 32v56q0 7 -4.5 11.5t-11.5 4.5h-16q-7 0 -11.5 -4.5t-4.5 -11.5v-56q0 -36 26 -62t62 -26v1q17 -19 43 -28q11 51 54 87t103 36v-3q-37 -7 -67 -29.5t-45.5 -53.5t-15.5 -65q0 -36 15 -68q3 -5 9 -5t8 6
q40 90 128 90q0 -53 37.5 -90.5t90.5 -37.5h120q4 0 6.5 3t1.5 7q-4 19 -22 30q7 8 13 15q9 9 9 22zM512 96q7 0 11.5 -4.5t4.5 -11.5t-4.5 -11.5t-11.5 -4.5t-11.5 4.5t-4.5 11.5t4.5 11.5t11.5 4.5z" />
</svg>
