<?xml version="1.0" standalone="no"?>
<!DOCTYPE svg PUBLIC "-//W3C//DTD SVG 1.1//EN" "http://www.w3.org/Graphics/SVG/1.1/DTD/svg11.dtd" >
<svg xmlns="http://www.w3.org/2000/svg" xmlns:xlink="http://www.w3.org/1999/xlink" version="1.1" viewBox="-10 0 532 512">
   <path fill="currentColor"
d="M137 139l151 -43l128 128l-43 151q-4 14 -16 26.5t-25 17.5l-280 93l-15 -15l150 -150q10 5 21 5q20 0 34 -14t14 -34t-14 -34t-34 -14t-34 14t-14 34q0 11 5 21l-150 150l-15 -15l93 -280q2 -5 5.5 -10.5t7.5 -10t9 -9t10.5 -7.5t11.5 -4zM498 74q14 14 14 34t-14 34
l-57 57l-128 -128l57 -57q14 -14 34 -14t34 14z" />
</svg>
