<?xml version="1.0" standalone="no"?>
<!DOCTYPE svg PUBLIC "-//W3C//DTD SVG 1.1//EN" "http://www.w3.org/Graphics/SVG/1.1/DTD/svg11.dtd" >
<svg xmlns="http://www.w3.org/2000/svg" xmlns:xlink="http://www.w3.org/1999/xlink" version="1.1" viewBox="-11 0 533 512">
   <path fill="currentColor"
d="M498 74q14 14 14 34t-14 34l-57 57l-128 -128l57 -57q14 -14 34 -14t34 14zM251 54l85 84l83 83l-197 197q-34 34 -91 61.5t-104 32.5q-12 1 -20 -7t-7 -20q5 -47 32.5 -104t61.5 -91l152 -152l-23 -22l-102 102q-11 11 -23 0l-22 -23q-12 -11 0 -23l119 -118
q11 -12 27.5 -12t28.5 12z" />
</svg>
