<?xml version="1.0" standalone="no"?>
<!DOCTYPE svg PUBLIC "-//W3C//DTD SVG 1.1//EN" "http://www.w3.org/Graphics/SVG/1.1/DTD/svg11.dtd" >
<svg xmlns="http://www.w3.org/2000/svg" xmlns:xlink="http://www.w3.org/1999/xlink" version="1.1" viewBox="-10 0 531 512">
   <path fill="currentColor"
d="M79 283l84 -33l99 99l-33 84q-5 15 -20 20l-177 59l-5 -5l93 -93q6 2 8 2q13 0 22.5 -9.5t9.5 -22.5t-9.5 -22.5t-22.5 -9.5t-22.5 9.5t-9.5 22.5q0 2 2 8l-93 93l-5 -5l59 -177q5 -15 20 -20zM369 28q35 -39 81.5 -24t57.5 57t-25 82l-199 183l-98 -98z" />
</svg>
