<?xml version="1.0" standalone="no"?>
<!DOCTYPE svg PUBLIC "-//W3C//DTD SVG 1.1//EN" "http://www.w3.org/Graphics/SVG/1.1/DTD/svg11.dtd" >
<svg xmlns="http://www.w3.org/2000/svg" xmlns:xlink="http://www.w3.org/1999/xlink" version="1.1" viewBox="-11 0 533 512">
   <path fill="currentColor"
d="M109 244l-100 -100q-9 -9 -9 -22.5t9 -22.5l90 -90q9 -9 22.5 -9t22.5 9l34 34l-62 62q-6 5 0 11l11 11q2 2 5.5 2t5.5 -2l62 -62l44 44zM498 127l-46 46l-113 -113l46 -46q14 -14 34 -14t34 14l45 45q14 14 14 34t-14 34zM316 83l113 113l-297 297l-107 19q-11 2 -19 -6
t-6 -19l19 -107zM503 368q9 9 9 22.5t-9 22.5l-90 90q-9 9 -22.5 9t-22.5 -9l-100 -101l135 -134l44 44l-62 62q-6 5 0 11l11 11q6 6 11 0l62 -62z" />
</svg>
