<?xml version="1.0" standalone="no"?>
<!DOCTYPE svg PUBLIC "-//W3C//DTD SVG 1.1//EN" "http://www.w3.org/Graphics/SVG/1.1/DTD/svg11.dtd" >
<svg xmlns="http://www.w3.org/2000/svg" xmlns:xlink="http://www.w3.org/1999/xlink" version="1.1" viewBox="-11 0 533 512">
   <path fill="currentColor"
d="M316 83l113 113l-297 297l-107 19q-11 2 -19 -6t-6 -19l19 -107zM498 127l-46 46l-113 -113l46 -46q14 -14 34 -14t34 14l45 45q14 14 14 34t-14 34zM457 392q4 0 12 -5t15.5 -10t16.5 -11.5t11 -8.5q0 43 -13 77t-42.5 56t-72.5 22q-52 0 -86 -26t-40 -73l102 -102
q59 9 82 71q4 10 15 10zM120 233l-99 -100q-34 -38 -13.5 -81.5t62.5 -50t76 31.5l70 105z" />
</svg>
