<?xml version="1.0" standalone="no"?>
<!DOCTYPE svg PUBLIC "-//W3C//DTD SVG 1.1//EN" "http://www.w3.org/Graphics/SVG/1.1/DTD/svg11.dtd" >
<svg xmlns="http://www.w3.org/2000/svg" xmlns:xlink="http://www.w3.org/1999/xlink" version="1.1" viewBox="-11 0 662 512">
   <path fill="currentColor"
d="M128 96q-20 0 -34 -14t-14 -34t14 -34t34 -14t34 14t14 34t-14 34t-34 14zM512 96q-20 0 -34 -14t-14 -34t14 -34t34 -14t34 14t14 34t-14 34t-34 14zM638 468q5 12 -0.5 24.5t-17.5 17.5q-6 2 -12 2q-22 0 -30 -20l-27 -69l2 -19l41 -46zM604 258q7 32 -15 57l-67 76
l-10 93q-1 8 -5.5 14.5t-11.5 10t-15 3.5h-4q-13 -2 -21 -12t-7 -24l10 -92q3 -20 16 -35l43 -49l-17 -71l-7 21q-6 19 -25 32l-51 33q-6 4 -17 5h-160q-11 -1 -17 -5l-51 -33q-18 -13 -25 -32l-7 -21l-17 71l43 49q13 15 16 35l10 92q1 14 -7 24t-21 12h-4q-12 0 -21 -8
t-11 -20l-10 -93l-67 -76q-22 -25 -15 -57l19 -80q7 -32 37 -45q29 -12 56 3q36 21 49 60l11 34l16 10v-96q0 -7 4.5 -11.5t11.5 -4.5h160q7 0 11.5 4.5t4.5 11.5v96l16 -10l11 -34q13 -39 48 -60q27 -15 57 -3q30 13 37 45zM46 358l41 46l2 19l-27 69q-5 12 -17 17.5
t-24.5 0.5t-18 -17.5t-0.5 -24.5z" />
</svg>
