<?xml version="1.0" standalone="no"?>
<!DOCTYPE svg PUBLIC "-//W3C//DTD SVG 1.1//EN" "http://www.w3.org/Graphics/SVG/1.1/DTD/svg11.dtd" >
<svg xmlns="http://www.w3.org/2000/svg" xmlns:xlink="http://www.w3.org/1999/xlink" version="1.1" viewBox="-10 0 532 512">
   <path fill="currentColor"
d="M331 263h107l37 39q-19 34 -56.5 69.5t-90.5 67.5t-124.5 52.5t-147.5 20.5q-23 0 -39.5 -16.5t-16.5 -39.5t16.5 -39.5t39.5 -16.5q29 0 53.5 -10t42.5 -27.5t32.5 -39t26.5 -46.5t22 -47.5t22 -44.5t23 -36l53 24v90zM462 135q21 19 35.5 52t14.5 62q0 17 -6 39
l-54 -57h-89v-78l-75 -34q36 -23 76 -23q30 0 58 12q21 -43 1 -72q-2 -2 -2 -5t3 -6l23 -23q2 -2 5 -2q4 0 7 3q10 13 16 31t4 45.5t-17 55.5z" />
</svg>
