<?xml version="1.0" standalone="no"?>
<!DOCTYPE svg PUBLIC "-//W3C//DTD SVG 1.1//EN" "http://www.w3.org/Graphics/SVG/1.1/DTD/svg11.dtd" >
<svg xmlns="http://www.w3.org/2000/svg" xmlns:xlink="http://www.w3.org/1999/xlink" version="1.1" viewBox="-10 0 596 512">
   <path fill="currentColor"
d="M192 496v-176h64v176q0 7 -4.5 11.5t-11.5 4.5h-32q-7 0 -11.5 -4.5t-4.5 -11.5zM224 224q13 0 22.5 9.5t9.5 22.5t-9.5 22.5t-22.5 9.5h-58q-19 0 -33 -14l-21 -21v81l41 61q7 13 7 29v56q0 13 -9.5 22.5t-22.5 9.5q-9 0 -16.5 -4.5t-11.5 -11.5t-4 -16v-56l-30 -43
l-1 -0.5t-1 -1.5v101q0 13 -9.5 22.5t-22.5 9.5q-9 0 -16 -4.5t-11.5 -11.5t-4.5 -16v-160v-96q0 -26 19 -45t45 -19h19q26 0 45 19l45 45h51zM64 128q-20 0 -34 -14t-14 -34t14 -34t34 -14t34 14t14 34t-14 34t-34 14zM288 32v-32h192v416q0 13 -9.5 22.5t-22.5 9.5
t-22.5 -9.5t-9.5 -22.5q0 13 -9.5 22.5t-22.5 9.5t-22 -9t-10 -21q-6 30 -32 30q-14 0 -24.5 -11.5t-6.5 -26.5l31 -155zM192 32q0 -13 9.5 -22.5t22.5 -9.5h32v192h-64v-160zM544 0q13 0 22.5 9.5t9.5 22.5v464q0 7 -4.5 11.5t-11.5 4.5h-32q-7 0 -11.5 -4.5t-4.5 -11.5
v-496h32z" />
</svg>
