<?xml version="1.0" standalone="no"?>
<!DOCTYPE svg PUBLIC "-//W3C//DTD SVG 1.1//EN" "http://www.w3.org/Graphics/SVG/1.1/DTD/svg11.dtd" >
<svg xmlns="http://www.w3.org/2000/svg" xmlns:xlink="http://www.w3.org/1999/xlink" version="1.1" viewBox="-11 0 533 512">
   <path fill="currentColor"
d="M144 96q-20 0 -34 -14t-14 -34t14 -34t34 -14t34 14t14 34t-14 34t-34 14zM502 67q6 2 8.5 8t0.5 12l-44 120q-2 7 -8 9.5t-12 0.5l-68 -25l-46 127q-2 7 -8 9.5t-12 0.5l-15 -6q-7 -2 -9.5 -8t-0.5 -12l11 -31l-46 -15q-14 -5 -25 -16l-20 -20v91l41 83q7 13 7 29v56
q0 13 -9.5 22.5t-22.5 9.5t-22.5 -9.5t-9.5 -22.5v-56l-36 -72h-15l-13 131q-2 13 -11 21t-21 8h-3q-9 -1 -16 -6t-10.5 -13t-2.5 -16l16 -159v-54l-19 38q-9 18 -29 18q-8 0 -14 -3q-12 -6 -16.5 -18.5t1.5 -24.5l56 -111q17 -35 57 -35h63q26 0 45 19l49 49l48 16l13 -36
l-68 -25q-6 -2 -8.5 -8t-0.5 -12l44 -120q2 -7 8 -9.5t12 -0.5l68 25l5 -15q2 -7 8 -9.5t13 -0.5l15 5q6 3 9 9t0 12l-5 15z" />
</svg>
