<?xml version="1.0" standalone="no"?>
<!DOCTYPE svg PUBLIC "-//W3C//DTD SVG 1.1//EN" "http://www.w3.org/Graphics/SVG/1.1/DTD/svg11.dtd" >
<svg xmlns="http://www.w3.org/2000/svg" xmlns:xlink="http://www.w3.org/1999/xlink" version="1.1" viewBox="-10 0 533 512">
   <path fill="currentColor"
d="M0 480v-130q2 2 64 55v75q0 9 -4.5 16t-11.5 11.5t-16 4.5q-13 0 -22.5 -9.5t-9.5 -22.5zM503 374l9 31q2 8 -6 9l-154 42q-3 24 -21 40t-43 16q-26 0 -45 -19t-19 -45q0 -33 28 -52l-29 -108h-95l-32 -60v78l44 38q18 15 22 38l14 93q1 8 -2 16t-9.5 13.5t-15.5 6.5
q-12 2 -21 -3.5t-12 -11.5t-4 -11l-14 -92l-76 -65q-22 -20 -22 -49v-103q0 -20 14 -34t34 -14h29q38 0 56 34l34 62h39l-13 -48q-2 -8 5 -10l31 -8q8 -2 10 5l60 222q25 4 41 24l154 -41q7 -2 9 6zM288.5 464q6.5 0 11.5 -4.5t5 -11.5t-5 -11.5t-11.5 -4.5t-11 4.5
t-4.5 11.5t4.5 11.5t11 4.5zM80 96q-20 0 -34 -14t-14 -34t14 -34t34 -14t34 14t14 34t-14 34t-34 14z" />
</svg>
