<?xml version="1.0" standalone="no"?>
<!DOCTYPE svg PUBLIC "-//W3C//DTD SVG 1.1//EN" "http://www.w3.org/Graphics/SVG/1.1/DTD/svg11.dtd" >
<svg xmlns="http://www.w3.org/2000/svg" xmlns:xlink="http://www.w3.org/1999/xlink" version="1.1" viewBox="-10 0 596 512">
   <path fill="currentColor"
d="M128 416q-13 0 -22.5 -9.5t-9.5 -22.5v-352q0 -13 9.5 -22.5t22.5 -9.5h64q13 0 22.5 9.5t9.5 22.5v352q0 13 -9.5 22.5t-22.5 9.5h-64zM528 32q20 0 34 14t14 34v384q0 20 -14 34t-34 14h-480q-20 0 -34 -14t-14 -34v-384q0 -20 14 -34t34 -14h16v352q0 26 19 45t45 19
h64q26 0 45 -19t19 -45v-352h272zM384 432v-32q0 -7 -4.5 -11.5t-11.5 -4.5h-32q-7 0 -11.5 4.5t-4.5 11.5v32q0 7 4.5 11.5t11.5 4.5h32q7 0 11.5 -4.5t4.5 -11.5zM384 304v-32q0 -7 -4.5 -11.5t-11.5 -4.5h-32q-7 0 -11.5 4.5t-4.5 11.5v32q0 7 4.5 11.5t11.5 4.5h32
q7 0 11.5 -4.5t4.5 -11.5zM512 432v-32q0 -7 -4.5 -11.5t-11.5 -4.5h-32q-7 0 -11.5 4.5t-4.5 11.5v32q0 7 4.5 11.5t11.5 4.5h32q7 0 11.5 -4.5t4.5 -11.5zM512 304v-32q0 -7 -4.5 -11.5t-11.5 -4.5h-32q-7 0 -11.5 4.5t-4.5 11.5v32q0 7 4.5 11.5t11.5 4.5h32
q7 0 11.5 -4.5t4.5 -11.5zM512 192v-96h-192v96h192z" />
</svg>
