<?xml version="1.0" standalone="no"?>
<!DOCTYPE svg PUBLIC "-//W3C//DTD SVG 1.1//EN" "http://www.w3.org/Graphics/SVG/1.1/DTD/svg11.dtd" >
<svg xmlns="http://www.w3.org/2000/svg" xmlns:xlink="http://www.w3.org/1999/xlink" version="1.1" viewBox="-10 0 660 512">
   <path fill="currentColor"
d="M604 128q15 0 25.5 10.5t10.5 25.5v312q0 15 -10.5 25.5t-25.5 10.5h-184q-15 0 -25.5 -10.5t-10.5 -25.5v-312q0 -15 10.5 -25.5t25.5 -10.5h184zM576 448v-256h-128v256h128zM128 64v224h224v96h-288q-26 0 -45 -19t-19 -45v-16q0 -7 4.5 -11.5t11.5 -4.5h48v-240
q0 -20 14 -34t34 -14h352q20 0 34 14t14 34v48h-64v-32h-320z" />
</svg>
