<?xml version="1.0" standalone="no"?>
<!DOCTYPE svg PUBLIC "-//W3C//DTD SVG 1.1//EN" "http://www.w3.org/Graphics/SVG/1.1/DTD/svg11.dtd" >
<svg xmlns="http://www.w3.org/2000/svg" xmlns:xlink="http://www.w3.org/1999/xlink" version="1.1" viewBox="-11 0 662 512">
   <path fill="currentColor"
d="M268 381q15 -7 34 -18l80 62q-121 87 -270 87q-19 0 -23 -19l-24 -104q-5 -19 14 -27l112 -48q16 -7 28 7zM634 458q5 4 6 10.5t-3 11.5l-20 26q-10 12 -22 2l-589 -454q-12 -10 -3 -23l20 -25q10 -12 23 -3l353 274q29 -36 46 -73l-60 -50q-14 -11 -7 -28l48 -112
q8 -18 27 -13l104 24q19 4 19 23q0 160 -101 288z" />
</svg>
