<?xml version="1.0" standalone="no"?>
<!DOCTYPE svg PUBLIC "-//W3C//DTD SVG 1.1//EN" "http://www.w3.org/Graphics/SVG/1.1/DTD/svg11.dtd" >
<svg xmlns="http://www.w3.org/2000/svg" xmlns:xlink="http://www.w3.org/1999/xlink" version="1.1" viewBox="-10 0 532 512">
   <path fill="currentColor"
d="M497 362q15 6 15 22q0 3 -1 5l-24 104q-1 5 -4.5 9.5t-8.5 7t-10 2.5q-192 0 -328 -136t-136 -328q0 -5 2.5 -10t7 -8.5t9.5 -4.5l104 -24q2 -1 5 -1q16 0 22 15l48 112q2 4 2 9q0 11 -9 19l-60 49q23 50 75 102t102 75l49 -60q8 -9 19 -9q5 0 9 2z" />
</svg>
