<?xml version="1.0" standalone="no"?>
<!DOCTYPE svg PUBLIC "-//W3C//DTD SVG 1.1//EN" "http://www.w3.org/Graphics/SVG/1.1/DTD/svg11.dtd" >
<svg xmlns="http://www.w3.org/2000/svg" xmlns:xlink="http://www.w3.org/1999/xlink" version="1.1" viewBox="-10 0 468 512">
   <path fill="currentColor"
d="M400 32q20 0 34 14t14 34v352q0 20 -14 34t-34 14h-352q-20 0 -34 -14t-14 -34v-352q0 -20 14 -34t34 -14h352zM94 416q120 0 205 -85t85 -205q0 -12 -12 -15l-65 -15h-3q-10 0 -14 9l-30 70q-1 3 -1 6q0 7 6 12l37 31q-35 75 -110 110l-31 -37q-5 -6 -12 -6q-3 0 -6 1
l-70 30q-9 4 -9 14v3l15 65q3 12 15 12z" />
</svg>
