<?xml version="1.0" standalone="no"?>
<!DOCTYPE svg PUBLIC "-//W3C//DTD SVG 1.1//EN" "http://www.w3.org/Graphics/SVG/1.1/DTD/svg11.dtd" >
<svg xmlns="http://www.w3.org/2000/svg" xmlns:xlink="http://www.w3.org/1999/xlink" version="1.1" viewBox="-10 0 596 512">
   <path fill="currentColor"
d="M544 63q13 0 22.5 9.5t9.5 22.5v320q0 13 -9.5 22.5t-22.5 9.5h-512q-13 0 -22.5 -9.5t-9.5 -22.5v-320q0 -13 9.5 -22.5t22.5 -9.5h512zM144 383v-64q-7 0 -11.5 -4.5t-4.5 -11.5v-80h-64v160h80zM272 383v-64q-7 0 -11.5 -4.5t-4.5 -11.5v-80h-64v80q0 7 -4.5 11.5
t-11.5 4.5v64h96zM400 383v-64q-7 0 -11.5 -4.5t-4.5 -11.5v-80h-64v80q0 7 -4.5 11.5t-11.5 4.5v64h96zM512 383v-160h-64v80q0 7 -4.5 11.5t-11.5 4.5v64h80z" />
</svg>
