<?xml version="1.0" standalone="no"?>
<!DOCTYPE svg PUBLIC "-//W3C//DTD SVG 1.1//EN" "http://www.w3.org/Graphics/SVG/1.1/DTD/svg11.dtd" >
<svg xmlns="http://www.w3.org/2000/svg" xmlns:xlink="http://www.w3.org/1999/xlink" version="1.1" viewBox="-10 0 532 512">
   <path fill="currentColor"
d="M477 269q14 8 24.5 24.5t10.5 33.5v152q0 13 -9.5 22.5t-22.5 9.5h-448q-13 0 -22.5 -9.5t-9.5 -22.5v-296q0 -76 54 -130t130 -54h16q76 0 130 54t54 130q0 8 3 17t7.5 16.5t11 14t13.5 10.5zM448 447v-96h-32v56q0 8 -8 8h-16q-8 0 -8 -8v-56h-32v56q0 8 -8 8h-16
q-8 0 -8 -8v-56h-48v56q0 8 -8 8h-16q-8 0 -8 -8v-56h-48v56q0 8 -8 8h-16q-8 0 -8 -8v-56h-32v56q0 8 -8 8h-16q-8 0 -8 -8v-56h-32v96h384z" />
</svg>
