<?xml version="1.0" standalone="no"?>
<!DOCTYPE svg PUBLIC "-//W3C//DTD SVG 1.1//EN" "http://www.w3.org/Graphics/SVG/1.1/DTD/svg11.dtd" >
<svg xmlns="http://www.w3.org/2000/svg" xmlns:xlink="http://www.w3.org/1999/xlink" version="1.1" viewBox="-10 0 596 512">
   <path fill="currentColor"
d="M459 304l5 4t9.5 6.5t11.5 6.5t15.5 7t17.5 5l-31 93q-3 9 -12 15.5t-18 6.5h-338q-9 0 -18 -6.5t-12 -15.5l-31 -93q9 -2 17.5 -5t15.5 -6.5t11 -6.5t9 -6.5t6 -4.5h1q1 1 5 4t7.5 5.5t9.5 6t12 6t14 5t17.5 4t19.5 1.5q12 0 23.5 -2t19.5 -5t16 -7t12 -7t9 -7l5 -4
q1 1 6.5 5t9.5 6.5t12 7t16 7t19 4.5t22.5 2t22.5 -2t19 -4.5t16 -7t12 -7t9.5 -6.5t6.5 -5zM544 240q13 0 22.5 9.5t9.5 22.5t-9.5 22.5t-22.5 9.5q-32 0 -62 -22q-13 -10 -23.5 -10t-23.5 10q-29 22 -61 22t-62 -22q-13 -10 -23.5 -10t-23.5 10q-30 22 -62 22t-62 -22
q-13 -10 -23.5 -10t-23.5 10q-30 22 -62 22q-13 0 -22.5 -9.5t-9.5 -22.5t9.5 -22.5t22.5 -9.5q8 0 14 -3q27 -77 93 -125t149 -48t149 48t93 124q6 4 14 4zM206 151q7 -14 -7 -21t-21 7l-16 32q-7 14 7 21t21 -7zM304 176v-32q0 -16 -16 -16t-16 16v32q0 16 16 16t16 -16z
M386 183q5 9 13.5 9.5t14 -7t0.5 -16.5l-16 -32q-5 -9 -13.5 -9.5t-14 7t-0.5 16.5z" />
</svg>
