<?xml version="1.0" standalone="no"?>
<!DOCTYPE svg PUBLIC "-//W3C//DTD SVG 1.1//EN" "http://www.w3.org/Graphics/SVG/1.1/DTD/svg11.dtd" >
<svg xmlns="http://www.w3.org/2000/svg" xmlns:xlink="http://www.w3.org/1999/xlink" version="1.1" viewBox="-11 0 597 512">
   <path fill="currentColor"
d="M560 192q7 0 11.5 4.5t4.5 11.5v128q0 7 -4.5 11.5t-11.5 4.5h-49q-13 18 -31 31v81q0 7 -4.5 11.5t-11.5 4.5h-64q-7 0 -11.5 -4.5t-4.5 -11.5v-48h-128v48q0 7 -4.5 11.5t-11.5 4.5h-64q-7 0 -11.5 -4.5t-4.5 -11.5v-81q-20 -14 -34 -33.5t-22 -43.5t-8 -50h-40
q-25 0 -42 -19t-14 -44q3 -21 19.5 -35t38.5 -14q6 0 6 6v20q0 6 -6 6h-1q-6 0 -11 2.5t-8.5 7t-5.5 9.5q-2 12 5.5 20.5t18.5 8.5h43q11 -55 55 -91.5t102 -36.5h128q7 0 23 2q29 -34 73 -34h32l-19 76q25 22 37 52h30zM432 256q7 0 11.5 -4.5t4.5 -11.5t-4.5 -11.5
t-11.5 -4.5t-11.5 4.5t-4.5 11.5t4.5 11.5t11.5 4.5z" />
</svg>
