<?xml version="1.0" standalone="no"?>
<!DOCTYPE svg PUBLIC "-//W3C//DTD SVG 1.1//EN" "http://www.w3.org/Graphics/SVG/1.1/DTD/svg11.dtd" >
<svg xmlns="http://www.w3.org/2000/svg" xmlns:xlink="http://www.w3.org/1999/xlink" version="1.1" viewBox="-10 0 597 512">
   <path fill="currentColor"
d="M112 32q46 0 79 33t33 79v224q0 46 -33 79t-79 33t-79 -33t-33 -79v-224q0 -46 33 -79t79 -33zM160 256v-112q0 -20 -14 -34t-34 -14t-34 14t-14 34v112h96zM300 226l210 211q7 7 0 12q-47 35 -106 30.5t-101 -46t-46 -100.5t30 -106q6 -7 13 -1zM529.5 207
q41.5 42 46 101t-30.5 106q-5 7 -12 0l-211 -210q-6 -7 1 -13q47 -34 106 -30t100.5 46z" />
</svg>
