<?xml version="1.0" standalone="no"?>
<!DOCTYPE svg PUBLIC "-//W3C//DTD SVG 1.1//EN" "http://www.w3.org/Graphics/SVG/1.1/DTD/svg11.dtd" >
<svg xmlns="http://www.w3.org/2000/svg" xmlns:xlink="http://www.w3.org/1999/xlink" version="1.1" viewBox="-10 0 596 512">
   <path fill="currentColor"
d="M403 403l22 22q5 5 5 12t-5 12q-56 49 -128.5 60.5t-141.5 -18t-112 -94.5q-43 -63 -43 -141t43 -141q43 -65 112 -94.5t141.5 -18t128.5 60.5q5 5 5 12t-5 12l-22 22q-61 -62 -148 -61t-148 63q-58 59 -58 145t58 145q61 62 148 63t148 -61zM132 380q-52 -51 -52 -124
t52 -124q21 -22 57.5 -37t66.5 -15t66.5 15t58.5 37l-125 124l125 124q-22 22 -58.5 37t-66.5 15t-66.5 -15t-57.5 -37zM256.5 352q-6.5 0 -11.5 4.5t-5 11.5t5 11.5t11.5 4.5t11 -4.5t4.5 -11.5t-4.5 -11.5t-11 -4.5zM208.5 144q-6.5 0 -11.5 4.5t-5 11.5t5 11.5t11.5 4.5
t11 -4.5t4.5 -11.5t-4.5 -11.5t-11 -4.5zM160 240v0q-6 0 -11 4.5t-5 11.5t5 11.5t11.5 4.5t11 -4.5t4.5 -11.5t-4.5 -11.5t-11.5 -4.5zM523 100q22 29 37.5 74.5t15.5 81.5t-15.5 81.5t-37.5 74.5q-4 6 -11.5 6t-12.5 -5l-21 -21q50 -59 50 -136t-50 -136l21 -21
q5 -5 12.5 -4.5t11.5 5.5zM455 143q17 20 29 53.5t12 59.5t-12 59.5t-29 53.5l-113 -113l43 -43q4 11 15 11q7 0 11.5 -4.5t4.5 -11.5q0 -11 -11 -15zM448 288q7 0 11.5 -4.5t4.5 -11.5t-4.5 -11.5t-11.5 -4.5t-11.5 4.5t-4.5 11.5t4.5 11.5t11.5 4.5z" />
</svg>
