<?xml version="1.0" standalone="no"?>
<!DOCTYPE svg PUBLIC "-//W3C//DTD SVG 1.1//EN" "http://www.w3.org/Graphics/SVG/1.1/DTD/svg11.dtd" >
<svg xmlns="http://www.w3.org/2000/svg" xmlns:xlink="http://www.w3.org/1999/xlink" version="1.1" viewBox="-10 0 533 512">
   <path fill="currentColor"
d="M159 0q90 9 167 56.5t126 124t60 165.5q1 8 -2 15.5t-8.5 13t-13.5 7.5l-57 16q-4 -93 -45 -164t-112.5 -111t-164.5 -42l15 -57q2 -7 7 -13t12.5 -9t15.5 -2zM100 112q88 1 155 38t104.5 103.5t40.5 152.5l-379 105q-3 1 -5 1q-6 0 -11 -5t-5 -11q0 -2 1 -4zM128 416
q13 0 22.5 -9.5t9.5 -22.5t-9.5 -22.5t-22.5 -9.5t-22.5 9.5t-9.5 22.5t9.5 22.5t22.5 9.5zM176 264q13 0 22.5 -9.5t9.5 -22.5t-9.5 -22.5t-22.5 -9.5t-22.5 9.5t-9.5 22.5t9.5 22.5t22.5 9.5zM280 368q13 0 22.5 -9.5t9.5 -22.5t-9.5 -22.5t-22.5 -9.5t-22.5 9.5
t-9.5 22.5t9.5 22.5t22.5 9.5z" />
</svg>
