<?xml version="1.0" standalone="no"?>
<!DOCTYPE svg PUBLIC "-//W3C//DTD SVG 1.1//EN" "http://www.w3.org/Graphics/SVG/1.1/DTD/svg11.dtd" >
<svg xmlns="http://www.w3.org/2000/svg" xmlns:xlink="http://www.w3.org/1999/xlink" version="1.1" viewBox="-11 0 597 512">
   <path fill="currentColor"
d="M480 192q30 0 63 19.5t33 44.5t-33 44.5t-63 19.5h-114l-105 184q-5 8 -14 8h-66q-8 0 -12.5 -6.5t-2.5 -13.5l49 -172h-103l-43 58q-5 6 -13 6h-40q-8 0 -12.5 -6t-3.5 -14l32 -108l-32 -108q-1 -8 3.5 -14t12.5 -6h40q8 0 13 6l43 58h103l-49 -172q-1 -3 -0.5 -7t3 -7
t5.5 -4.5t7 -1.5h66q9 0 14 8l105 184h114z" />
</svg>
