<?xml version="1.0" standalone="no"?>
<!DOCTYPE svg PUBLIC "-//W3C//DTD SVG 1.1//EN" "http://www.w3.org/Graphics/SVG/1.1/DTD/svg11.dtd" >
<svg xmlns="http://www.w3.org/2000/svg" xmlns:xlink="http://www.w3.org/1999/xlink" version="1.1" viewBox="-10 0 532 512">
   <path fill="currentColor"
d="M498 150q14 15 14 34v144q0 19 -14 33l-136 137q-15 14 -34 14h-144q-19 0 -33 -14l-137 -136q-14 -15 -14 -34v-144q0 -19 14 -33l136 -137q15 -14 34 -14h144q19 0 33 14zM400 228q0 -12 -12 -12h-92v-92q0 -12 -12 -12h-56q-12 0 -12 12v92h-92q-12 0 -12 12v56
q0 12 12 12h92v92q0 12 12 12h56q12 0 12 -12v-92h92q12 0 12 -12v-56z" />
</svg>
