<?xml version="1.0" standalone="no"?>
<!DOCTYPE svg PUBLIC "-//W3C//DTD SVG 1.1//EN" "http://www.w3.org/Graphics/SVG/1.1/DTD/svg11.dtd" >
<svg xmlns="http://www.w3.org/2000/svg" xmlns:xlink="http://www.w3.org/1999/xlink" version="1.1" viewBox="-10 0 586 512">
   <path fill="currentColor"
d="M554 232q14 24 0 48l-112 192q-14 24 -42 24h-224q-28 0 -42 -24l-112 -192q-14 -24 0 -48l112 -192q14 -24 42 -24h224q28 0 42 24zM432 228q0 -12 -12 -12h-92v-92q0 -12 -12 -12h-56q-12 0 -12 12v92h-92q-12 0 -12 12v56q0 12 12 12h92v92q0 12 12 12h56q12 0 12 -12
v-92h92q12 0 12 -12v-56z" />
</svg>
