<?xml version="1.0" standalone="no"?>
<!DOCTYPE svg PUBLIC "-//W3C//DTD SVG 1.1//EN" "http://www.w3.org/Graphics/SVG/1.1/DTD/svg11.dtd" >
<svg xmlns="http://www.w3.org/2000/svg" xmlns:xlink="http://www.w3.org/1999/xlink" version="1.1" viewBox="-10 0 468 512">
   <path fill="currentColor"
d="M267 489q-6 23 -43 23t-43 -23q-7 -25 -14 -67.5t-7 -65.5q0 -44 64 -44t64 44q0 23 -7 65.5t-14 67.5zM157 289q5 5 -1 9q-14 10 -21 25q-4 8 -9 2q-46 -43 -46 -105q0 -61 43.5 -103.5t104.5 -40.5q57 2 98 42.5t42 97.5q2 65 -46 109q-5 6 -9 -2q-7 -15 -21 -25
q-6 -4 -1 -9q29 -29 29 -69q0 -41 -29.5 -69.5t-70.5 -26.5q-37 2 -63.5 28.5t-28.5 63.5q-2 43 29 73zM224 0q93 0 158.5 65.5t65.5 158.5q0 66 -35 120t-91 81q-3 2 -6 0t-2 -6q4 -27 5 -47q37 -24 59 -63t22 -85q0 -29 -9 -55.5t-25.5 -48.5t-38 -38t-48.5 -25t-55 -9
q-73 0 -124.5 51.5t-51.5 123.5q0 45 21 84t57 63q3 2 3 5q1 19 5 44q1 4 -2 6t-6 0q-57 -27 -91.5 -81t-34.5 -120q0 -93 65.5 -158.5t158.5 -65.5zM224 160q27 0 45.5 18.5t18.5 45.5t-18.5 45.5t-45.5 18.5t-45.5 -18.5t-18.5 -45.5t18.5 -45.5t45.5 -18.5z" />
</svg>
