<?xml version="1.0" standalone="no"?>
<!DOCTYPE svg PUBLIC "-//W3C//DTD SVG 1.1//EN" "http://www.w3.org/Graphics/SVG/1.1/DTD/svg11.dtd" >
<svg xmlns="http://www.w3.org/2000/svg" xmlns:xlink="http://www.w3.org/1999/xlink" version="1.1" viewBox="-10 0 468 512">
   <path fill="currentColor"
d="M432 144q7 0 11.5 4.5t4.5 11.5v16q0 7 -4.5 11.5t-11.5 4.5h-416q-7 0 -11.5 -4.5t-4.5 -11.5v-16q0 -7 4.5 -11.5t11.5 -4.5h47q5 -40 32.5 -70t66.5 -39q4 -15 17 -25t29 -10h64q20 0 34 14t14 34t-14 34t-34 14h-64q-20 0 -34 -14q-24 5 -41 22t-22 40h321zM400 464
q7 0 11.5 4.5t4.5 11.5v16q0 7 -4.5 11.5t-11.5 4.5h-352q-7 0 -11.5 -4.5t-4.5 -11.5v-16q0 -7 4.5 -11.5t11.5 -4.5h38l-22 -240h320l-22 240h38zM304 327q5 -5 3 -11t-8 -6l-46 -7l-20 -41q-3 -6 -9 -6t-9 6l-20 41l-46 7q-6 0 -8 6t3 11l32 32l-7 45q-1 4 1 7.5t5.5 4.5
t7.5 -1l41 -22l41 22q5 3 10 -0.5t4 -10.5l-7 -45z" />
</svg>
