<?xml version="1.0" standalone="no"?>
<!DOCTYPE svg PUBLIC "-//W3C//DTD SVG 1.1//EN" "http://www.w3.org/Graphics/SVG/1.1/DTD/svg11.dtd" >
<svg xmlns="http://www.w3.org/2000/svg" xmlns:xlink="http://www.w3.org/1999/xlink" version="1.1" viewBox="-10 0 468 512">
   <path fill="currentColor"
d="M400 32q20 0 34 14t14 34v352q0 20 -14 34t-34 14h-352q-20 0 -34 -14t-14 -34v-352q0 -20 14 -34t34 -14h352zM160 368v-128q0 -7 -4.5 -11.5t-11.5 -4.5h-32q-7 0 -11.5 4.5t-4.5 11.5v128q0 7 4.5 11.5t11.5 4.5h32q7 0 11.5 -4.5t4.5 -11.5zM256 368v-224
q0 -7 -4.5 -11.5t-11.5 -4.5h-32q-7 0 -11.5 4.5t-4.5 11.5v224q0 7 4.5 11.5t11.5 4.5h32q7 0 11.5 -4.5t4.5 -11.5zM352 368v-64q0 -7 -4.5 -11.5t-11.5 -4.5h-32q-7 0 -11.5 4.5t-4.5 11.5v64q0 7 4.5 11.5t11.5 4.5h32q7 0 11.5 -4.5t4.5 -11.5z" />
</svg>
