<?xml version="1.0" standalone="no"?>
<!DOCTYPE svg PUBLIC "-//W3C//DTD SVG 1.1//EN" "http://www.w3.org/Graphics/SVG/1.1/DTD/svg11.dtd" >
<svg xmlns="http://www.w3.org/2000/svg" xmlns:xlink="http://www.w3.org/1999/xlink" version="1.1" viewBox="-10 0 532 512">
   <path fill="currentColor"
d="M451 369q26 4 43.5 24t17.5 47q0 30 -21 51t-51 21h-368q-30 0 -51 -21t-21 -51q0 -27 17.5 -47t43.5 -24q-29 -22 -29 -57q0 -30 21 -51t51 -21h14q-22 -19 -22 -48q0 -26 19 -45t45 -19h16q33 0 56.5 -23.5t23.5 -56.5q0 -25 -15 -46q9 -2 15 -2q40 0 68 28t28 68
q0 15 -6 32h6q26 0 45 19t19 45q0 29 -22 48h14q30 0 51 21t21 51q0 35 -29 57zM192 256q-13 0 -22.5 9.5t-9.5 22.5t9.5 22.5t22.5 9.5t22.5 -9.5t9.5 -22.5t-9.5 -22.5t-22.5 -9.5zM352 395q1 -4 -1.5 -7.5t-6.5 -3.5h-176q-4 0 -6.5 3.5t-1.5 7.5q8 21 38 37t58 16
t58 -16t38 -37zM320 320q13 0 22.5 -9.5t9.5 -22.5t-9.5 -22.5t-22.5 -9.5t-22.5 9.5t-9.5 22.5t9.5 22.5t22.5 9.5z" />
</svg>
