<?xml version="1.0" standalone="no"?>
<!DOCTYPE svg PUBLIC "-//W3C//DTD SVG 1.1//EN" "http://www.w3.org/Graphics/SVG/1.1/DTD/svg11.dtd" >
<svg xmlns="http://www.w3.org/2000/svg" xmlns:xlink="http://www.w3.org/1999/xlink" version="1.1" viewBox="-10 0 524 512">
   <path fill="currentColor"
d="M400 54q48 34 76 87.5t28 114.5q0 103 -72.5 175.5t-175.5 72.5q-67 0 -124 -33t-90.5 -90t-33.5 -125q0 -41 13 -79t36 -69t55 -54q9 -6 19.5 -3.5t15.5 11.5l16 28q4 8 2 17t-9 14q-16 12 -28.5 26.5t-21 31.5t-13.5 36.5t-5 40.5q0 69 49 118.5t119 49.5
q69 0 118.5 -49t49.5 -120q0 -39 -18 -74.5t-50 -59.5q-7 -5 -9 -14t2 -17l16 -28q5 -9 15.5 -11.5t19.5 3.5zM296 264q0 10 -7 17t-17 7h-32q-10 0 -17 -7t-7 -17v-240q0 -10 7 -17t17 -7h32q10 0 17 7t7 17v240z" />
</svg>
