<?xml version="1.0" standalone="no"?>
<!DOCTYPE svg PUBLIC "-//W3C//DTD SVG 1.1//EN" "http://www.w3.org/Graphics/SVG/1.1/DTD/svg11.dtd" >
<svg xmlns="http://www.w3.org/2000/svg" xmlns:xlink="http://www.w3.org/1999/xlink" version="1.1" viewBox="-10 0 660 512">
   <path fill="currentColor"
d="M272 192q13 0 22.5 9.5t9.5 22.5v128q0 39 -23.5 70.5t-61.5 41.5l-179 47q-4 1 -8 1q-16 0 -24 -10.5t-8 -21.5v-96q0 -10 6.5 -18.5t15.5 -11.5l90 -30v-81q0 -29 16 -53l117 -176h1q7 -11 19.5 -13.5t22.5 3.5q12 7 15 20t-4 24l-77 130q-14 23 -14 49v77
q0 7 4.5 11.5t11.5 4.5t11.5 -4.5t4.5 -11.5v-80q0 -13 9.5 -22.5t22.5 -9.5zM618 354q22 7 22 30v96q0 11 -8 21.5t-24 10.5q-4 0 -8 -1l-179 -47q-38 -10 -61.5 -41.5t-23.5 -70.5v-128q0 -13 9.5 -22.5t22.5 -9.5t22.5 9.5t9.5 22.5v80q0 7 4.5 11.5t11.5 4.5t11.5 -4.5
t4.5 -11.5v-77q0 -26 -14 -49l-77 -130q-7 -11 -4 -24t15 -19q10 -7 22.5 -4t19.5 13h1l117 176q16 24 16 53v81z" />
</svg>
