<?xml version="1.0" standalone="no"?>
<!DOCTYPE svg PUBLIC "-//W3C//DTD SVG 1.1//EN" "http://www.w3.org/Graphics/SVG/1.1/DTD/svg11.dtd" >
<svg xmlns="http://www.w3.org/2000/svg" xmlns:xlink="http://www.w3.org/1999/xlink" version="1.1" viewBox="-10 0 404 512">
   <path fill="currentColor"
d="M256 128q-27 0 -45.5 -18.5t-18.5 -45.5t18.5 -45.5t45.5 -18.5t45.5 18.5t18.5 45.5t-18.5 45.5t-45.5 18.5zM225 298l-24 -29l-35 65l110 110q19 19 8.5 43.5t-36.5 24.5h-208q-17 0 -28.5 -11.5t-11.5 -28.5t11.5 -28.5t28.5 -11.5h92l-45 -35q-32 -20 -42 -55.5
t8 -68.5l49 -92q18 -33 56 -37q40 -4 64 26l39 46l58 -47q12 -10 28.5 -8.5t27 14t9 29t-14.5 27.5l-88 72q-12 10 -28.5 8.5t-27.5 -13.5z" />
</svg>
