<?xml version="1.0" standalone="no"?>
<!DOCTYPE svg PUBLIC "-//W3C//DTD SVG 1.1//EN" "http://www.w3.org/Graphics/SVG/1.1/DTD/svg11.dtd" >
<svg xmlns="http://www.w3.org/2000/svg" xmlns:xlink="http://www.w3.org/1999/xlink" version="1.1" viewBox="-10 0 596 512">
   <path fill="currentColor"
d="M560 0q7 0 11.5 4.5t4.5 11.5v32q0 7 -4.5 11.5t-11.5 4.5h-16v256q0 13 -9.5 22.5t-22.5 9.5h-192v35l75 75q12 11 0 23l-22 22q-12 12 -23 0l-62 -62l-62 62q-11 12 -23 0l-22 -22q-12 -12 0 -23l75 -75v-35h-192q-13 0 -22.5 -9.5t-9.5 -22.5v-256h-16
q-7 0 -11.5 -4.5t-4.5 -11.5v-32q0 -7 4.5 -11.5t11.5 -4.5h544zM480 288v-224h-384v224h384z" />
</svg>
