<?xml version="1.0" standalone="no"?>
<!DOCTYPE svg PUBLIC "-//W3C//DTD SVG 1.1//EN" "http://www.w3.org/Graphics/SVG/1.1/DTD/svg11.dtd" >
<svg xmlns="http://www.w3.org/2000/svg" xmlns:xlink="http://www.w3.org/1999/xlink" version="1.1" viewBox="-10 0 404 512">
   <path fill="currentColor"
d="M360 0q10 0 17 7t7 17v48q0 10 -7 17t-17 7h-336q-10 0 -17 -7t-7 -17v-48q0 -10 7 -17t17 -7h336zM32 480v-352h320v352q0 13 -9.5 22.5t-22.5 9.5h-256q-13 0 -22.5 -9.5t-9.5 -22.5zM96 296v48q0 8 8 8h56v56q0 8 8 8h48q8 0 8 -8v-56h56q8 0 8 -8v-48q0 -8 -8 -8h-56
v-56q0 -8 -8 -8h-48q-8 0 -8 8v56h-56q-8 0 -8 8z" />
</svg>
