<?xml version="1.0" standalone="no"?>
<!DOCTYPE svg PUBLIC "-//W3C//DTD SVG 1.1//EN" "http://www.w3.org/Graphics/SVG/1.1/DTD/svg11.dtd" >
<svg xmlns="http://www.w3.org/2000/svg" xmlns:xlink="http://www.w3.org/1999/xlink" version="1.1" viewBox="-10 0 404 512">
   <path fill="currentColor"
d="M32 192v-64h320v352q0 13 -9.5 22.5t-22.5 9.5h-256q-13 0 -22.5 -9.5t-9.5 -22.5v-64h120q8 0 8 -8v-16q0 -8 -8 -8h-120v-64h120q8 0 8 -8v-16q0 -8 -8 -8h-120v-64h120q8 0 8 -8v-16q0 -8 -8 -8h-120zM360 0q10 0 17 7t7 17v48q0 10 -7 17t-17 7h-336q-10 0 -17 -7
t-7 -17v-48q0 -10 7 -17t17 -7h336z" />
</svg>
