<?xml version="1.0" standalone="no"?>
<!DOCTYPE svg PUBLIC "-//W3C//DTD SVG 1.1//EN" "http://www.w3.org/Graphics/SVG/1.1/DTD/svg11.dtd" >
<svg xmlns="http://www.w3.org/2000/svg" xmlns:xlink="http://www.w3.org/1999/xlink" version="1.1" viewBox="-10 0 405 512">
   <path fill="currentColor"
d="M301 352l78 78q12 11 0 23l-22 22q-12 12 -23 0l-78 -78l-78 78q-11 12 -23 0l-22 -22q-12 -12 0 -23l78 -78l-128 -128h-19v80q0 7 -4.5 11.5t-11.5 4.5h-32q-7 0 -11.5 -4.5t-4.5 -11.5v-256q0 -7 4.5 -11.5t11.5 -4.5h144q40 0 68 28t28 68q0 36 -24 63t-60 32l84 84
l78 -78q11 -12 23 0l22 22q12 12 0 23zM64 96v64h96q13 0 22.5 -9.5t9.5 -22.5t-9.5 -22.5t-22.5 -9.5h-96z" />
</svg>
