<?xml version="1.0" standalone="no"?>
<!DOCTYPE svg PUBLIC "-//W3C//DTD SVG 1.1//EN" "http://www.w3.org/Graphics/SVG/1.1/DTD/svg11.dtd" >
<svg xmlns="http://www.w3.org/2000/svg" xmlns:xlink="http://www.w3.org/1999/xlink" version="1.1" viewBox="-10 0 532 512">
   <path fill="currentColor"
d="M448 192q27 0 45.5 18.5t18.5 45.5v112q0 7 -4.5 11.5t-11.5 4.5h-48v96q0 13 -9.5 22.5t-22.5 9.5h-320q-13 0 -22.5 -9.5t-9.5 -22.5v-96h-48q-7 0 -11.5 -4.5t-4.5 -11.5v-112q0 -27 18.5 -45.5t45.5 -18.5v-160q0 -13 9.5 -22.5t22.5 -9.5h275q13 0 22 9l46 46
q9 9 9 22v115zM384 448v-96h-256v96h256zM384 224v-96h-48q-7 0 -11.5 -4.5t-4.5 -11.5v-48h-192v160h256zM432 296q10 0 17 -7t7 -17t-7 -17t-17 -7t-17 7t-7 17t7 17t17 7z" />
</svg>
