<?xml version="1.0" standalone="no"?>
<!DOCTYPE svg PUBLIC "-//W3C//DTD SVG 1.1//EN" "http://www.w3.org/Graphics/SVG/1.1/DTD/svg11.dtd" >
<svg xmlns="http://www.w3.org/2000/svg" xmlns:xlink="http://www.w3.org/1999/xlink" version="1.1" viewBox="-10 0 660 512">
   <path fill="currentColor"
d="M592 192q20 0 34 14t14 34v160q0 20 -14 34t-34 14h-16l-13 52q-3 12 -16 12h-39q-12 0 -15 -12l-11 -45q42 -15 68 -52t26 -83q0 -36 -23 -73.5t-55 -54.5h94zM288 320q0 36 23 73.5t55 54.5h-206l-13 52q-3 12 -16 12h-39q-12 0 -15 -12l-13 -52h-16q-20 0 -34 -14
t-14 -34v-160q0 -20 14 -34t34 -14h318q-21 11 -39 32t-28.5 46.5t-10.5 49.5zM96 352q13 0 22.5 -9.5t9.5 -22.5t-9.5 -22.5t-22.5 -9.5t-22.5 9.5t-9.5 22.5t9.5 22.5t22.5 9.5zM192 352q13 0 22.5 -9.5t9.5 -22.5t-9.5 -22.5t-22.5 -9.5t-22.5 9.5t-9.5 22.5t9.5 22.5
t22.5 9.5zM544 320q0 46 -33 79t-79 33t-79 -33t-33 -79t33 -79t79 -33t79 33t33 79zM424 280q7 0 11.5 -4.5t4.5 -11.5t-4.5 -11.5t-11.5 -4.5q-26 0 -45 19t-19 45q0 7 4.5 11.5t11.5 4.5t11.5 -4.5t4.5 -11.5q0 -13 9.5 -22.5t22.5 -9.5zM424 128q-7 0 -11.5 -4.5
t-4.5 -11.5v-96q0 -7 4.5 -11.5t11.5 -4.5h16q7 0 11.5 4.5t4.5 11.5v96q0 7 -4.5 11.5t-11.5 4.5h-16zM518 134l-12 -12q-4 -4 -4 -11t4 -11l68 -68q5 -5 11.5 -5t11.5 5l11 11q5 5 5 11.5t-5 11.5l-68 68q-4 4 -11 4t-11 -4zM324 134l-68 -68q-5 -5 -5 -11.5t5 -11.5
l11 -11q5 -5 11.5 -5t11.5 5l68 68q4 4 4 11t-4 11l-12 12q-4 4 -11 4t-11 -4z" />
</svg>
