<?xml version="1.0" standalone="no"?>
<!DOCTYPE svg PUBLIC "-//W3C//DTD SVG 1.1//EN" "http://www.w3.org/Graphics/SVG/1.1/DTD/svg11.dtd" >
<svg xmlns="http://www.w3.org/2000/svg" xmlns:xlink="http://www.w3.org/1999/xlink" version="1.1" viewBox="-10 0 596 512">
   <path fill="currentColor"
d="M352 113q-28 -17 -64 -17q-22 0 -44 8l38 -94q2 -6 8.5 -8.5t13.5 0.5l39 20q9 4 9 14v77zM495 153q81 69 81 167t-81 167q-29 25 -69.5 25t-70.5 -24q-27 24 -67 24t-67 -24q-30 24 -70.5 24t-69.5 -25q-81 -69 -81 -167t81 -167q23 -20 55.5 -24t60.5 9l-9 12
q-12 20 -19 52q5 -14 13 -24q34 -50 106 -50t106 50q8 10 13 24q-7 -32 -19 -52l-9 -12q28 -13 60.5 -9t55.5 24z" />
</svg>
