<?xml version="1.0" standalone="no"?>
<!DOCTYPE svg PUBLIC "-//W3C//DTD SVG 1.1//EN" "http://www.w3.org/Graphics/SVG/1.1/DTD/svg11.dtd" >
<svg xmlns="http://www.w3.org/2000/svg" xmlns:xlink="http://www.w3.org/1999/xlink" version="1.1" viewBox="-10 0 468 512">
   <path fill="currentColor"
d="M0 224v-192h192v192h-192zM64 96v64h64v-64h-64zM256 32h192v192h-192v-192zM384 160v-64h-64v64h64zM0 480v-192h192v192h-192zM64 352v64h64v-64h-64zM416 288h32v128h-96v-32h-32v96h-64v-192h96v32h64v-32zM416 448h32v32h-32v-32zM352 448h32v32h-32v-32z" />
</svg>
