<?xml version="1.0" standalone="no"?>
<!DOCTYPE svg PUBLIC "-//W3C//DTD SVG 1.1//EN" "http://www.w3.org/Graphics/SVG/1.1/DTD/svg11.dtd" >
<svg xmlns="http://www.w3.org/2000/svg" xmlns:xlink="http://www.w3.org/1999/xlink" version="1.1" viewBox="-10 0 661 512">
   <path fill="currentColor"
d="M256 217l87 109q0 4 -1.5 11.5t-8 27.5t-14 38t-22 39t-30.5 34q-27 21 -93.5 29.5t-120.5 6.5l-53 -2q4 -23 11 -55l95 -112q3 -4 0 -7.5t-7 -2.5l-60 22q25 -74 54 -97q27 -22 67.5 -32t68.5 -10zM494 352q34 0 57 23.5t23 56.5t-23 56.5t-56.5 23.5t-56.5 -23.5
t-23 -56.5q0 -17 6 -31.5t17 -25.5t25.5 -17t30.5 -6zM636 31q10 13 -2 23l-232 177l34 43q3 5 1 11t-8 7l-59 12l-86 -109l25 -55q3 -5 9 -5.5t10 3.5l34 43l232 -178q13 -9 23 3z" />
</svg>
