<?xml version="1.0" standalone="no"?>
<!DOCTYPE svg PUBLIC "-//W3C//DTD SVG 1.1//EN" "http://www.w3.org/Graphics/SVG/1.1/DTD/svg11.dtd" >
<svg xmlns="http://www.w3.org/2000/svg" xmlns:xlink="http://www.w3.org/1999/xlink" version="1.1" viewBox="-10 0 532 512">
   <path fill="currentColor"
d="M464 32q20 0 34 14t14 34v240q0 66 -47 113t-113 47h-8q-10 0 -17 -7t-7 -17v-48q0 -10 7 -17t17 -7h8q26 0 45 -19t19 -45v-64h-80q-20 0 -34 -14t-14 -34v-128q0 -20 14 -34t34 -14h128zM176 32q20 0 34 14t14 34v240q0 66 -47 113t-113 47h-8q-10 0 -17 -7t-7 -17v-48
q0 -10 7 -17t17 -7h8q26 0 45 -19t19 -45v-64h-80q-20 0 -34 -14t-14 -34v-128q0 -20 14 -34t34 -14h128z" />
</svg>
