<?xml version="1.0" standalone="no"?>
<!DOCTYPE svg PUBLIC "-//W3C//DTD SVG 1.1//EN" "http://www.w3.org/Graphics/SVG/1.1/DTD/svg11.dtd" >
<svg xmlns="http://www.w3.org/2000/svg" xmlns:xlink="http://www.w3.org/1999/xlink" version="1.1" viewBox="-10 0 532 512">
   <path fill="currentColor"
d="M464 256q20 0 34 14t14 34v128q0 20 -14 34t-34 14h-128q-20 0 -34 -14t-14 -34v-240q0 -66 47 -113t113 -47h8q10 0 17 7t7 17v48q0 10 -7 17t-17 7h-8q-26 0 -45 19t-19 45v64h80zM176 256q20 0 34 14t14 34v128q0 20 -14 34t-34 14h-128q-20 0 -34 -14t-14 -34v-240
q0 -66 47 -113t113 -47h8q10 0 17 7t7 17v48q0 10 -7 17t-17 7h-8q-26 0 -45 19t-19 45v64h80z" />
</svg>
