<?xml version="1.0" standalone="no"?>
<!DOCTYPE svg PUBLIC "-//W3C//DTD SVG 1.1//EN" "http://www.w3.org/Graphics/SVG/1.1/DTD/svg11.dtd" >
<svg xmlns="http://www.w3.org/2000/svg" xmlns:xlink="http://www.w3.org/1999/xlink" version="1.1" viewBox="-10 0 596 512">
   <path fill="currentColor"
d="M136 413l35 -23l48 48l-67 40q-8 5 -16 0t-8 -14v-38q0 -9 8 -13zM552 217q10 7 17 20.5t7 25.5q0 24 -16.5 40.5t-40.5 16.5h-103l-64 32v-24q0 -24 -10.5 -46.5t-29 -38.5t-41.5 -22l-43 -12q-6 -2 -12 1t-7.5 9.5t1.5 12.5t10 7l42 13q17 4 30 15.5t20.5 27.5t7.5 33
v56h96q13 0 22.5 9.5t9.5 22.5v16q0 4 -2 8t-6 6t-8 2h-144q-13 0 -23 -9l-191 -192q-14 10 -31 8.5t-29 -13.5q-14 -14 -14 -34t14 -34t34 -14t34 14l5 8q41 -54 105 -54q79 0 224 104q0 -5 1 -9q1 -10 7 -20q-19 -11 -38 -29q-23 -24 -34 -45.5t-3 -29.5t29.5 3t45.5 34
q8 8 16 19q0 -1 -1 -3.5t-1 -3.5q-9 -32 -7.5 -56.5t12.5 -27.5q5 -1 11.5 3.5t12.5 14t12 23t10 29.5q7 26 7 49zM496 256q7 0 11.5 -4.5t4.5 -11.5t-4.5 -11.5t-11.5 -4.5t-11.5 4.5t-4.5 11.5t4.5 11.5t11.5 4.5z" />
</svg>
