<?xml version="1.0" standalone="no"?>
<!DOCTYPE svg PUBLIC "-//W3C//DTD SVG 1.1//EN" "http://www.w3.org/Graphics/SVG/1.1/DTD/svg11.dtd" >
<svg xmlns="http://www.w3.org/2000/svg" xmlns:xlink="http://www.w3.org/1999/xlink" version="1.1" viewBox="-10 0 469 512">
   <path fill="currentColor"
d="M446 488q5 8 0 16t-14 8h-38q-9 0 -13 -8l-73 -116l-75 60h23q13 0 22.5 9.5t9.5 22.5v16q0 7 -4.5 11.5t-11.5 4.5h-144q-10 0 -19 -3t-16 -7.5t-13 -11.5t-10 -16q-11 6 -22 6q-20 0 -34 -14t-14 -34t14 -34t34 -14q11 0 22 6q10 -39 35 -69t61 -47.5t77 -17.5h13v-71
q0 -5 1 -10q3 -19 18 -32q-17 -20 -28 -59q-8 -32 -6.5 -56.5t11.5 -27.5q7 -2 15.5 7t17 25.5t13.5 37.5q4 15 6 29q2 -14 6 -29q8 -32 21.5 -52.5t24 -17.5t12 27.5t-6.5 56.5q-8 29 -21 49q1 0 2 0.5t2 0.5l48 35q10 7 17 20.5t7 25.5q0 24 -16.5 40.5t-40.5 16.5h-7v66z
M336 208q7 0 11.5 -4.5t4.5 -11.5t-4.5 -11.5t-11.5 -4.5t-11.5 4.5t-4.5 11.5t4.5 11.5t11.5 4.5z" />
</svg>
