<?xml version="1.0" standalone="no"?>
<!DOCTYPE svg PUBLIC "-//W3C//DTD SVG 1.1//EN" "http://www.w3.org/Graphics/SVG/1.1/DTD/svg11.dtd" >
<svg xmlns="http://www.w3.org/2000/svg" xmlns:xlink="http://www.w3.org/1999/xlink" version="1.1" viewBox="-11 0 662 512">
   <path fill="currentColor"
d="M126 346l57 80l-121 83q-5 4 -12 3t-10 -7l-37 -52q-9 -12 4 -22zM529 330q-74 52 -154 52q-4 0 -25.5 -2t-38.5 -2t-47 5.5t-61 16.5l-45 -64q51 -60 67 -133q6 -27 20.5 -54t36.5 -52t50 -45q75 -54 158.5 -52t125.5 60q40 57 14.5 136t-101.5 134zM258 336
q-14 -14 -22 -30q-13 24 -26 41q22 -7 48 -11zM486 64q-38 0 -73 14.5t-59 37t-40 46t-23 43.5q-16 50 7.5 81.5t76.5 31.5q62 0 119.5 -42.5t75.5 -98.5q16 -50 -7.5 -81.5t-76.5 -31.5z" />
</svg>
