<?xml version="1.0" standalone="no"?>
<!DOCTYPE svg PUBLIC "-//W3C//DTD SVG 1.1//EN" "http://www.w3.org/Graphics/SVG/1.1/DTD/svg11.dtd" >
<svg xmlns="http://www.w3.org/2000/svg" xmlns:xlink="http://www.w3.org/1999/xlink" version="1.1" viewBox="-10 0 516 512">
   <path fill="currentColor"
d="M312 256q0 -35 -30 -54l42 -67q3 -6 10.5 -7t13.5 3q52 42 59 108q1 5 -1.5 8.5t-6 6t-8.5 2.5h-79zM214 310q16 10 34 10t34 -10l42 67q3 6 1.5 12.5t-7.5 10.5q-34 16 -70 16t-70 -16q-6 -4 -7.5 -10.5t1.5 -12.5zM105 256q-7 0 -12 -5t-4 -12q7 -66 59 -108
q6 -4 13.5 -3t10.5 7l42 67q-30 19 -30 54h-79zM248 504q-103 0 -175.5 -72.5t-72.5 -175.5t72.5 -175.5t175.5 -72.5t175.5 72.5t72.5 175.5t-72.5 175.5t-175.5 72.5zM248 72q-76 0 -130 54t-54 130t54 130t130 54t130 -54t54 -130t-54 -130t-130 -54zM248 288
q-13 0 -22.5 -9.5t-9.5 -22.5t9.5 -22.5t22.5 -9.5t22.5 9.5t9.5 22.5t-9.5 22.5t-22.5 9.5z" />
</svg>
