<?xml version="1.0" standalone="no"?>
<!DOCTYPE svg PUBLIC "-//W3C//DTD SVG 1.1//EN" "http://www.w3.org/Graphics/SVG/1.1/DTD/svg11.dtd" >
<svg xmlns="http://www.w3.org/2000/svg" xmlns:xlink="http://www.w3.org/1999/xlink" version="1.1" viewBox="-10 0 468 512">
   <path fill="currentColor"
d="M216 136q0 23 -16.5 39.5t-39.5 16.5t-39.5 -16.5t-16.5 -39.5q0 -18 20 -46t27 -51q2 -7 9 -7t9 7q7 23 27 51t20 46zM47 231q2 -7 9 -7t9 7q5 16 13.5 31t15.5 23.5t12.5 19.5t5.5 23q0 23 -16.5 39.5t-39.5 16.5t-39.5 -16.5t-16.5 -39.5q0 -18 20 -46t27 -51z
M341 143q11 36 31 68.5t36 51.5t28 44t12 51q0 50 -37.5 86t-90.5 36t-90.5 -36t-37.5 -86q0 -22 7.5 -41.5t20.5 -37t26.5 -35.5t28 -44.5t24.5 -56.5q5 -15 21.5 -15t20.5 15z" />
</svg>
