<?xml version="1.0" standalone="no"?>
<!DOCTYPE svg PUBLIC "-//W3C//DTD SVG 1.1//EN" "http://www.w3.org/Graphics/SVG/1.1/DTD/svg11.dtd" >
<svg xmlns="http://www.w3.org/2000/svg" xmlns:xlink="http://www.w3.org/1999/xlink" version="1.1" viewBox="-10 0 596 512">
   <path fill="currentColor"
d="M268 33q83 -6 154 31.5t112.5 106t41.5 149.5v144q0 7 -4.5 11.5t-11.5 4.5h-32q-7 0 -11.5 -4.5t-4.5 -11.5v-136q0 -86 -55.5 -152.5t-138.5 -77.5q-102 -13 -178 54t-76 168v144q0 7 -4.5 11.5t-11.5 4.5h-32q-7 0 -11.5 -4.5t-4.5 -11.5v-134q0 -116 77.5 -203
t190.5 -94zM263 130q87 -12 152 46t65 144v144q0 7 -4.5 11.5t-11.5 4.5h-32q-7 0 -11.5 -4.5t-4.5 -11.5v-138q0 -51 -33 -90t-82 -43q-57 -6 -99 32.5t-42 94.5v144q0 7 -4.5 11.5t-11.5 4.5h-32q-7 0 -11.5 -4.5t-4.5 -11.5v-137q0 -74 47.5 -131t119.5 -66zM269 226
q30 -6 56.5 5.5t42.5 35.5t16 53v144q0 7 -4.5 11.5t-11.5 4.5h-32q-7 0 -11.5 -4.5t-4.5 -11.5v-144q0 -13 -9.5 -22.5t-22.5 -9.5t-22.5 9.5t-9.5 22.5v144q0 7 -4.5 11.5t-11.5 4.5h-32q-7 0 -11.5 -4.5t-4.5 -11.5v-140q0 -35 21.5 -63.5t55.5 -34.5z" />
</svg>
