<?xml version="1.0" standalone="no"?>
<!DOCTYPE svg PUBLIC "-//W3C//DTD SVG 1.1//EN" "http://www.w3.org/Graphics/SVG/1.1/DTD/svg11.dtd" >
<svg xmlns="http://www.w3.org/2000/svg" xmlns:xlink="http://www.w3.org/1999/xlink" version="1.1" viewBox="-10 0 404 512">
   <path fill="currentColor"
d="M292 329l80 160q4 8 -0.5 15.5t-13.5 7.5h-332q-9 0 -13.5 -7.5t-0.5 -15.5l80 -160q4 -9 14 -9h172q10 0 14 9zM352 0q13 0 22.5 9.5t9.5 22.5v320q0 8 -4 15t-10.5 11t-14.5 5l-34 -69l-0.5 -0.5l-0.5 -0.5v-249h-256v249l-0.5 0.5l-0.5 0.5l-34 69q-13 -1 -21 -10
t-8 -21v-320q0 -13 9.5 -22.5t22.5 -9.5h320z" />
</svg>
