<?xml version="1.0" standalone="no"?>
<!DOCTYPE svg PUBLIC "-//W3C//DTD SVG 1.1//EN" "http://www.w3.org/Graphics/SVG/1.1/DTD/svg11.dtd" >
<svg xmlns="http://www.w3.org/2000/svg" xmlns:xlink="http://www.w3.org/1999/xlink" version="1.1" viewBox="-10 0 532 512">
   <path fill="currentColor"
d="M185 262q2 10 -7 16.5t-18 0.5l-40 -25l-51 81q-10 16 -1 32.5t28 16.5h52q12 0 12 12v40q0 12 -12 12h-52q-36 0 -63 -24t-31.5 -56.5t13.5 -66.5l51 -81l-41 -26q-9 -5 -7.5 -15.5t12.5 -13.5l110 -25q6 -2 12 1.5t7 10.5zM283 79q-9 -15 -27 -15t-27 15l-18 29
q-6 10 -17 4l-34 -22q-10 -6 -3 -16l18 -29q28 -45 81 -45t81 45l42 66l40 -25q9 -6 18 0.5t6 16.5l-25 110q-2 7 -7.5 10.5t-11.5 1.5l-110 -25q-11 -3 -12.5 -13.5t7.5 -15.5l40 -26zM497 301q15 23 15 49.5t-12 48t-34.5 35.5t-49.5 14h-96v48q0 11 -10 15t-17 -4
l-80 -80q-12 -11 0 -22l80 -80q7 -8 17 -4t10 15v48h96q19 0 28 -16.5t-1 -32.5l-27 -44q-7 -10 3 -17l34 -21q10 -6 17 4z" />
</svg>
