<?xml version="1.0" standalone="no"?>
<!DOCTYPE svg PUBLIC "-//W3C//DTD SVG 1.1//EN" "http://www.w3.org/Graphics/SVG/1.1/DTD/svg11.dtd" >
<svg xmlns="http://www.w3.org/2000/svg" xmlns:xlink="http://www.w3.org/1999/xlink" version="1.1" viewBox="-10 0 532 512">
   <path fill="currentColor"
d="M512 256q0 66 -47 113t-113 47h-182l35 32q7 7 7 17.5t-7 17.5l-11 11q-7 7 -17 7t-17 -7l-92 -93q-7 -7 -7 -17t7 -17l92 -93q7 -7 17 -7t17 7l11 11q7 7 7 17.5t-7 17.5l-35 32h182q40 0 68 -28t28 -68q0 -21 -8 -39q-7 -15 4 -27l13 -12q8 -9 20 -7t18 13q17 34 17 72
zM72 295q7 15 -4 27l-13 12q-8 9 -20 7t-18 -13q-17 -34 -17 -72q0 -66 47 -113t113 -47h182l-35 -32q-7 -7 -7 -17.5t7 -17.5l11 -11q7 -7 17 -7t17 7l92 93q7 7 7 17t-7 17l-92 93q-7 7 -17 7t-17 -7l-11 -11q-7 -7 -7 -17.5t7 -17.5l35 -32h-182q-40 0 -68 28t-28 68
q0 21 8 39z" />
</svg>
