<?xml version="1.0" standalone="no"?>
<!DOCTYPE svg PUBLIC "-//W3C//DTD SVG 1.1//EN" "http://www.w3.org/Graphics/SVG/1.1/DTD/svg11.dtd" >
<svg xmlns="http://www.w3.org/2000/svg" xmlns:xlink="http://www.w3.org/1999/xlink" version="1.1" viewBox="-10 0 532 512">
   <path fill="currentColor"
d="M8 190l176 -152q12 -10 26 -3.5t14 21.5v80q52 1 92 5.5t78 17t63 33t40 53.5t15 77t-24 86.5t-59 67.5q-11 8 -21.5 1t-6.5 -19q9 -31 12 -56t-0.5 -44t-14 -33.5t-25.5 -24t-38 -16t-50 -9t-61 -3.5v88q0 15 -14 21.5t-26 -3.5l-176 -152q-8 -7 -8 -18t8 -18z" />
</svg>
