<?xml version="1.0" standalone="no"?>
<!DOCTYPE svg PUBLIC "-//W3C//DTD SVG 1.1//EN" "http://www.w3.org/Graphics/SVG/1.1/DTD/svg11.dtd" >
<svg xmlns="http://www.w3.org/2000/svg" xmlns:xlink="http://www.w3.org/1999/xlink" version="1.1" viewBox="-10 0 596 512">
   <path fill="currentColor"
d="M136 190l176 -152q12 -10 26 -3.5t14 21.5v83q51 4 90 14.5t70 31t47.5 55.5t16.5 82q0 44 -24 86.5t-59 67.5q-11 8 -21.5 1t-6.5 -19q28 -90 -0.5 -131t-112.5 -51v84q0 15 -14 21.5t-26 -3.5l-176 -152q-8 -7 -8 -18t8 -18zM8 226q-8 -7 -8 -18t8 -18l176 -152
q12 -10 26 -3.5t14 21.5v16l-109 94q-8 7 -13.5 19t-5.5 23v0q0 11 5.5 23t13.5 19l109 94v16q0 15 -14 21.5t-26 -3.5z" />
</svg>
