<?xml version="1.0" standalone="no"?>
<!DOCTYPE svg PUBLIC "-//W3C//DTD SVG 1.1//EN" "http://www.w3.org/Graphics/SVG/1.1/DTD/svg11.dtd" >
<svg xmlns="http://www.w3.org/2000/svg" xmlns:xlink="http://www.w3.org/1999/xlink" version="1.1" viewBox="-10 0 660 512">
   <path fill="currentColor"
d="M544 192v64h-544v-64q0 -66 47 -113t113 -47h224q66 0 113 47t47 113zM176 170q3 -2 2 -5.5t-5 -4.5l-27 -4l-13 -25q-1 -3 -5 -3t-5 3l-13 25l-27 4q-4 1 -5 4.5t2 5.5l20 20l-5 27q-1 4 2 6t7 0l24 -13l24 13q4 2 7 0t2 -6l-5 -27zM320 170q3 -2 2 -5.5t-5 -4.5l-27 -4
l-13 -25q-1 -3 -5 -3t-5 3l-13 25l-27 4q-4 1 -5 4.5t2 5.5l20 20l-5 27q-1 4 2 6t7 0l24 -13l24 13q4 2 7 0t2 -6l-5 -27zM464 170q3 -2 2 -5.5t-5 -4.5l-27 -4l-13 -25q-1 -3 -5 -3t-5 3l-13 25l-27 4q-4 1 -5 4.5t2 5.5l20 20l-5 27q-1 4 2 6t7 0l24 -13l24 13q4 2 7 0
t2 -6l-5 -27zM624 320q7 0 11.5 4.5t4.5 11.5v64q0 23 -12 42.5t-32.5 29.5t-43.5 8q-31 -4 -51.5 -28.5t-20.5 -56.5v-43h-32v112q0 7 -4.5 11.5t-11.5 4.5h-96q-7 0 -11.5 -4.5t-4.5 -11.5v-80h-192v80q0 7 -4.5 11.5t-11.5 4.5h-96q-7 0 -11.5 -4.5t-4.5 -11.5v-176h544
v112q0 7 4.5 11.5t11.5 4.5t11.5 -4.5t4.5 -11.5v-64q0 -7 4.5 -11.5t11.5 -4.5h32z" />
</svg>
