<?xml version="1.0" standalone="no"?>
<!DOCTYPE svg PUBLIC "-//W3C//DTD SVG 1.1//EN" "http://www.w3.org/Graphics/SVG/1.1/DTD/svg11.dtd" >
<svg xmlns="http://www.w3.org/2000/svg" xmlns:xlink="http://www.w3.org/1999/xlink" version="1.1" viewBox="-10 0 660 512">
   <path fill="currentColor"
d="M128 128q-26 0 -45 -19t-19 -45t19 -45t45 -19t45 19t19 45t-19 45t-45 19zM512 128q-26 0 -45 -19t-19 -45t19 -45t45 -19t45 19t19 45t-19 45t-45 19zM639 354q3 12 -4.5 21t-19.5 9h-55v104q0 10 -7 17t-17 7h-48q-10 0 -17 -7t-7 -17v-104h-55q-12 0 -19.5 -9
t-5.5 -21l46 -185q6 -22 30 -25q24 16 52 16t52 -16q24 3 30 25zM336 0q7 0 11.5 4.5t4.5 11.5v480q0 7 -4.5 11.5t-11.5 4.5h-32q-7 0 -11.5 -4.5t-4.5 -11.5v-480q0 -7 4.5 -11.5t11.5 -4.5h32zM180 144q12 1 22 8t16 17.5t6 22.5v136q0 10 -7 17t-17 7h-8v136q0 10 -7 17
t-17 7h-80q-10 0 -17 -7t-7 -17v-136h-8q-10 0 -17 -7t-7 -17v-136q0 -19 12.5 -32.5t31.5 -15.5q24 16 52 16t52 -16z" />
</svg>
