<?xml version="1.0" standalone="no"?>
<!DOCTYPE svg PUBLIC "-//W3C//DTD SVG 1.1//EN" "http://www.w3.org/Graphics/SVG/1.1/DTD/svg11.dtd" >
<svg xmlns="http://www.w3.org/2000/svg" xmlns:xlink="http://www.w3.org/1999/xlink" version="1.1" viewBox="-10 0 469 512">
   <path fill="currentColor"
d="M6 444l117 -130l79 88l-91 102q-14 16 -32 4l-68 -28q-9 -6 -10.5 -17t5.5 -19zM442 444q7 8 6 19t-10 17l-69 28q-18 12 -31 -4l-249 -275q-13 -15 -19 -32.5t-6 -31t3.5 -27t6 -18t4.5 -7.5l44 -73q6 -12 16 -18q34 -22 87.5 -22t84.5 22q10 6 16 18l44 73
q17 28 13.5 60t-24.5 55l-34 38l-79 -87q52 -59 56 -65q-33 -18 -78 -18t-78 18z" />
</svg>
