<?xml version="1.0" standalone="no"?>
<!DOCTYPE svg PUBLIC "-//W3C//DTD SVG 1.1//EN" "http://www.w3.org/Graphics/SVG/1.1/DTD/svg11.dtd" >
<svg xmlns="http://www.w3.org/2000/svg" xmlns:xlink="http://www.w3.org/1999/xlink" version="1.1" viewBox="-10 0 532 512">
   <path fill="currentColor"
d="M351 161q45 4 81.5 28t58 63t21.5 84q0 73 -51.5 124.5t-124.5 51.5q-35 0 -75 -19.5t-62 -46.5q-5 1 -11.5 1.5t-11.5 0.5q-73 0 -124.5 -51.5t-51.5 -124.5q0 -61 37 -108t94 -62l-35 -70l32 -32h96l32 32l-35 70q57 15 94 62t37 108q0 21 -8 46.5t-21.5 48t-29.5 36.5
q-12 -8 -22.5 -24t-13.5 -30q13 -14 22 -36.5t9 -40.5q0 -16 -6 -33q-26 14 -42 40t-16 57q0 46 33 79t79 33t79 -33t33 -79q0 -31 -20 -61t-48 -42q-8 -39 -29 -72zM64 272q0 44 29.5 75.5t73.5 35.5q-7 -23 -7 -47q0 -47 23.5 -87t62.5 -63q-31 -26 -70 -26q-46 0 -79 33
t-33 79z" />
</svg>
