<?xml version="1.0" standalone="no"?>
<!DOCTYPE svg PUBLIC "-//W3C//DTD SVG 1.1//EN" "http://www.w3.org/Graphics/SVG/1.1/DTD/svg11.dtd" >
<svg xmlns="http://www.w3.org/2000/svg" xmlns:xlink="http://www.w3.org/1999/xlink" version="1.1" viewBox="-10 0 660 512">
   <path fill="currentColor"
d="M0 256q0 -13 9.5 -22.5t22.5 -9.5h32v192h-32q-13 0 -22.5 -9.5t-9.5 -22.5v-128zM464 96q33 0 56.5 23.5t23.5 56.5v272q0 26 -19 45t-45 19h-320q-26 0 -45 -19t-19 -45v-272q0 -33 23.5 -56.5t56.5 -23.5h112v-64q0 -13 9.5 -22.5t22.5 -9.5t22.5 9.5t9.5 22.5v64h112
zM256 416v-32h-64v32h64zM224 296q17 0 28.5 -11.5t11.5 -28.5t-11.5 -28.5t-28.5 -11.5t-28.5 11.5t-11.5 28.5t11.5 28.5t28.5 11.5zM352 416v-32h-64v32h64zM448 416v-32h-64v32h64zM416 296q17 0 28.5 -11.5t11.5 -28.5t-11.5 -28.5t-28.5 -11.5t-28.5 11.5t-11.5 28.5
t11.5 28.5t28.5 11.5zM608 224q13 0 22.5 9.5t9.5 22.5v128q0 13 -9.5 22.5t-22.5 9.5h-32v-192h32z" />
</svg>
