<?xml version="1.0" standalone="no"?>
<!DOCTYPE svg PUBLIC "-//W3C//DTD SVG 1.1//EN" "http://www.w3.org/Graphics/SVG/1.1/DTD/svg11.dtd" >
<svg xmlns="http://www.w3.org/2000/svg" xmlns:xlink="http://www.w3.org/1999/xlink" version="1.1" viewBox="-10 0 532 512">
   <path fill="currentColor"
d="M416 320q40 0 68 28t28 68t-28 68t-68 28h-278q27 -33 48 -64h230q13 0 22.5 -9.5t9.5 -22.5t-9.5 -22.5t-22.5 -9.5h-96q-40 0 -68 -28t-28 -68t28 -68t68 -28h45q-45 -64 -45 -96q0 -40 28 -68t68 -28t68 28t28 68q0 24 -24 64t-48 68l-24 28h-96q-13 0 -22.5 9.5
t-9.5 22.5t9.5 22.5t22.5 9.5h96zM416 64q-13 0 -22.5 9.5t-9.5 22.5t9.5 22.5t22.5 9.5t22.5 -9.5t9.5 -22.5t-9.5 -22.5t-22.5 -9.5zM96 256q40 0 68 28t28 68q0 24 -24 64t-48 68l-24 28q-11 -12 -27 -31t-42.5 -62t-26.5 -67q0 -40 28 -68t68 -28zM96 384
q13 0 22.5 -9.5t9.5 -22.5t-9.5 -22.5t-22.5 -9.5t-22.5 9.5t-9.5 22.5t9.5 22.5t22.5 9.5z" />
</svg>
