<?xml version="1.0" standalone="no"?>
<!DOCTYPE svg PUBLIC "-//W3C//DTD SVG 1.1//EN" "http://www.w3.org/Graphics/SVG/1.1/DTD/svg11.dtd" >
<svg xmlns="http://www.w3.org/2000/svg" xmlns:xlink="http://www.w3.org/1999/xlink" version="1.1" viewBox="-10 0 501 512">
   <path fill="currentColor"
d="M465 55q12 39 15 84t-7.5 99.5t-35.5 103.5t-75.5 95t-121.5 75q-59 -24 -104.5 -60.5t-72 -77t-42.5 -84t-19 -86.5t0 -80t13 -69q3 -9 10.5 -13.5t15.5 -2.5q29 8 58 8q74 0 127 -42q6 -5 14 -5t14 5q53 42 127 42q29 0 58 -8q8 -2 15.5 2.5t10.5 13.5zM240 442
q59 -29 98.5 -73t56 -86.5t20.5 -90.5h-350q4 48 20.5 90.5t56 86.5t98.5 73z" />
</svg>
