<?xml version="1.0" standalone="no"?>
<!DOCTYPE svg PUBLIC "-//W3C//DTD SVG 1.1//EN" "http://www.w3.org/Graphics/SVG/1.1/DTD/svg11.dtd" >
<svg xmlns="http://www.w3.org/2000/svg" xmlns:xlink="http://www.w3.org/1999/xlink" version="1.1" viewBox="-10 0 596 512">
   <path fill="currentColor"
d="M528 320q20 0 34 14t14 34v96q0 20 -14 34t-34 14h-480q-20 0 -34 -14t-14 -34v-96q0 -20 14 -34t34 -14h280v-80q0 -7 4.5 -11.5t11.5 -4.5h16q7 0 11.5 4.5t4.5 11.5v80h152zM96 448q13 0 22.5 -9.5t9.5 -22.5t-9.5 -22.5t-22.5 -9.5t-22.5 9.5t-9.5 22.5t9.5 22.5
t22.5 9.5zM192 448q13 0 22.5 -9.5t9.5 -22.5t-9.5 -22.5t-22.5 -9.5t-22.5 9.5t-9.5 22.5t9.5 22.5t22.5 9.5zM159 128l-22 -23q-5 -4 -5 -11t6 -12q91 -82 214 -82t214 82q6 5 6 12t-5 11l-23 23q-4 5 -11 5q-6 0 -11 -4q-72 -65 -170 -65.5t-171 64.5q-4 4 -10 4
q-7 0 -12 -4zM206 166q63 -54 146 -54t146 54q6 5 6 12t-5 11l-23 23q-4 5 -11 5q-6 0 -10 -4q-45 -37 -103 -37.5t-103 37.5q-4 4 -10 4q-7 0 -11 -5l-23 -23q-5 -4 -5 -11q0 -8 6 -12z" />
</svg>
