<?xml version="1.0" standalone="no"?>
<!DOCTYPE svg PUBLIC "-//W3C//DTD SVG 1.1//EN" "http://www.w3.org/Graphics/SVG/1.1/DTD/svg11.dtd" >
<svg xmlns="http://www.w3.org/2000/svg" xmlns:xlink="http://www.w3.org/1999/xlink" version="1.1" viewBox="-10 0 468 512">
   <path fill="currentColor"
d="M128 415.5q0 26.5 -18.5 45.5t-45 19t-45.5 -19t-19 -45.5t19 -45t45.5 -18.5t45 18.5t18.5 45zM304 463q0 7 -4.5 12t-11.5 5h-48q-7 0 -11.5 -4.5t-4.5 -10.5q-6 -84 -65.5 -143.5t-143.5 -65.5q-6 0 -10.5 -4.5t-4.5 -11.5v-48q0 -7 5 -11.5t12 -4.5q116 7 198 89
t89 198zM448 463q0 7 -4.5 12t-11.5 5h-48q-7 0 -11.5 -4.5t-4.5 -10.5q-6 -144 -107.5 -245.5t-245.5 -107.5q-6 0 -10.5 -4.5t-4.5 -11.5v-48q0 -7 5 -11.5t12 -4.5q86 3 164.5 38.5t136 92.5t92.5 135.5t38 164.5z" />
</svg>
