<?xml version="1.0" standalone="no"?>
<!DOCTYPE svg PUBLIC "-//W3C//DTD SVG 1.1//EN" "http://www.w3.org/Graphics/SVG/1.1/DTD/svg11.dtd" >
<svg xmlns="http://www.w3.org/2000/svg" xmlns:xlink="http://www.w3.org/1999/xlink" version="1.1" viewBox="-10 0 660 512">
   <path fill="currentColor"
d="M636 167q6 11 2.5 24t-14.5 19l-497 282q-11 6 -24 3t-19 -15l-80 -135q-6 -11 -3 -23.5t15 -19.5l69 -39l60 101q4 7 11 3l13 -8q7 -4 3 -10l-60 -102l56 -31l28 47q4 7 10 3l14 -8q7 -4 3 -10l-28 -48l55 -31l60 102q4 6 11 3l14 -8q7 -4 3 -11l-60 -102l55 -31l28 47
q4 7 11 3l14 -8q7 -4 3 -10l-28 -48l55 -31l60 102q4 6 11 3l13 -8q7 -4 3 -11l-59 -102l69 -39q11 -6 24 -3t19 15z" />
</svg>
