<?xml version="1.0" standalone="no"?>
<!DOCTYPE svg PUBLIC "-//W3C//DTD SVG 1.1//EN" "http://www.w3.org/Graphics/SVG/1.1/DTD/svg11.dtd" >
<svg xmlns="http://www.w3.org/2000/svg" xmlns:xlink="http://www.w3.org/1999/xlink" version="1.1" viewBox="-10 0 533 512">
   <path fill="currentColor"
d="M502 452q16 17 7 38.5t-32 21.5h-442q-14 0 -24.5 -10.5t-10.5 -24.5v-442q0 -10 5 -18t13 -12.5t17 -4.5q15 0 25 10l51 52l-38 38q-6 6 0 11l11 12q5 5 11 0l39 -39l56 57l-38 38q-6 6 0 12l11 11q6 6 11 0l39 -39l56 57l-38 38q-6 6 0 12l11 11q6 6 12 0l38 -38l57 56
l-39 39q-6 5 0 11l11 11q6 6 12 0l38 -38l57 56l-39 39q-5 6 0 11l12 11q5 6 11 0l38 -38zM128 384h125l-125 -125v125z" />
</svg>
