<?xml version="1.0" standalone="no"?>
<!DOCTYPE svg PUBLIC "-//W3C//DTD SVG 1.1//EN" "http://www.w3.org/Graphics/SVG/1.1/DTD/svg11.dtd" >
<svg xmlns="http://www.w3.org/2000/svg" xmlns:xlink="http://www.w3.org/1999/xlink" version="1.1" viewBox="-10 0 596 512">
   <path fill="currentColor"
d="M544 128q13 0 22.5 9.5t9.5 22.5v192q0 13 -9.5 22.5t-22.5 9.5h-512q-13 0 -22.5 -9.5t-9.5 -22.5v-192q0 -13 9.5 -22.5t22.5 -9.5h48v88q0 8 8 8h16q8 0 8 -8v-88h64v88q0 8 8 8h16q8 0 8 -8v-88h64v88q0 8 8 8h16q8 0 8 -8v-88h64v88q0 8 8 8h16q8 0 8 -8v-88h64v88
q0 8 8 8h16q8 0 8 -8v-88h48z" />
</svg>
