<?xml version="1.0" standalone="no"?>
<!DOCTYPE svg PUBLIC "-//W3C//DTD SVG 1.1//EN" "http://www.w3.org/Graphics/SVG/1.1/DTD/svg11.dtd" >
<svg xmlns="http://www.w3.org/2000/svg" xmlns:xlink="http://www.w3.org/1999/xlink" version="1.1" viewBox="-10 0 436 512">
   <path fill="currentColor"
d="M272 96q-20 0 -34 -14t-14 -34t14 -34t34 -14t34 14t14 34t-14 34t-34 14zM114 317q12 28 38 43l10 6l-8 21q-13 29 -45 29h-77q-13 0 -22.5 -9.5t-9.5 -22.5t9.5 -22.5t22.5 -9.5h67zM384 224q13 0 22.5 9.5t9.5 22.5t-9.5 22.5t-22.5 9.5h-54q-30 0 -43 -27l-20 -41
l-32 78l62 36q14 9 20 24t1 30l-31 102q-7 22 -31 22q-5 0 -10 -2q-12 -3 -18 -15t-3 -25l28 -87l-85 -50q-21 -13 -28.5 -36t2.5 -45l37 -87l-15 -5q-13 -3 -25 7l-40 30q-10 8 -23 6.5t-21 -12t-6.5 -24t12.5 -21.5l39 -30q37 -28 81 -17l71 21q42 11 62 51l26 53h44z" />
</svg>
