<?xml version="1.0" standalone="no"?>
<!DOCTYPE svg PUBLIC "-//W3C//DTD SVG 1.1//EN" "http://www.w3.org/Graphics/SVG/1.1/DTD/svg11.dtd" >
<svg xmlns="http://www.w3.org/2000/svg" xmlns:xlink="http://www.w3.org/1999/xlink" version="1.1" viewBox="-10 0 660 512">
   <path fill="currentColor"
d="M621 269q19 19 19 45v70q0 13 -9.5 22.5t-22.5 9.5h-32v16q0 40 -32 64t-73 12q-24 -7 -39.5 -28.5t-15.5 -47.5v-240h102q26 0 45 19zM496 464q13 0 22.5 -9.5t9.5 -22.5t-9.5 -22.5t-22.5 -9.5t-22.5 9.5t-9.5 22.5t9.5 22.5t22.5 9.5zM480 288h92l-43 -43
q-5 -5 -11 -5h-38v48zM608 127q0 14 -9.5 23.5t-22.5 9.5h-192v256h-128v16q0 35 -26 59t-62 21q-31 -4 -51.5 -28.5t-20.5 -56.5v-11l-77 -77q-19 -19 -19 -45v-198q0 -26 19 -45t45 -19h160v-16q0 -7 4.5 -11.5t11.5 -4.5h128q7 0 11.5 4.5t4.5 11.5v16h128q40 0 68 28
t28 67zM176 464q13 0 22.5 -9.5t9.5 -22.5t-9.5 -22.5t-22.5 -9.5t-22.5 9.5t-9.5 22.5t9.5 22.5t22.5 9.5zM256 208v-64q0 -7 -4.5 -11.5t-11.5 -4.5h-128q-7 0 -11.5 4.5t-4.5 11.5v64q0 7 4.5 11.5t11.5 4.5h128q7 0 11.5 -4.5t4.5 -11.5z" />
</svg>
