<?xml version="1.0" standalone="no"?>
<!DOCTYPE svg PUBLIC "-//W3C//DTD SVG 1.1//EN" "http://www.w3.org/Graphics/SVG/1.1/DTD/svg11.dtd" >
<svg xmlns="http://www.w3.org/2000/svg" xmlns:xlink="http://www.w3.org/1999/xlink" version="1.1" viewBox="-10 0 532 512">
   <path fill="currentColor"
d="M192 96l-47 -71q-3 -4 -3 -9q0 -7 4.5 -11.5t11.5 -4.5h196q7 0 11.5 4.5t4.5 11.5q0 5 -3 9l-47 71h-128zM320 128q40 23 72 49.5t51.5 50.5t33.5 50.5t20.5 45.5t10 40.5t4 30t0.5 19.5v2q0 40 -32 68t-78 28h-292q-46 0 -78 -28t-32 -68q0 -179 192 -288h128zM273 406
q20 0 33.5 -14.5t13.5 -34.5q0 -16 -9.5 -29t-24.5 -17l-49 -15q-10 -3 -10 -14q0 -3 2 -6.5t4.5 -5.5t6.5 -2h30q8 0 14 4q3 2 5 2q4 0 6 -2l13 -13q3 -2 3 -6t-4 -7q-15 -11 -34 -12v-17q0 -9 -8 -9h-18q-8 0 -9 9v17q-19 1 -32.5 15t-13.5 34q0 16 9.5 29t24.5 17l49 15
q10 3 10 14q0 3 -1.5 6.5t-4.5 5.5t-7 2h-30q-8 0 -14 -4q-3 -2 -5 -2q-4 0 -6 3l-13 12q-3 2 -3 6t3 7q16 11 35 12v17q0 9 8 9h18q8 0 8 -9v-17z" />
</svg>
