<?xml version="1.0" standalone="no"?>
<!DOCTYPE svg PUBLIC "-//W3C//DTD SVG 1.1//EN" "http://www.w3.org/Graphics/SVG/1.1/DTD/svg11.dtd" >
<svg xmlns="http://www.w3.org/2000/svg" xmlns:xlink="http://www.w3.org/1999/xlink" version="1.1" viewBox="-10 0 516 512">
   <path fill="currentColor"
d="M248 8q103 0 175.5 72.5t72.5 175.5q0 66 -32.5 122.5t-87.5 89.5v-180q0 -7 -4.5 -11.5t-11.5 -4.5t-11.5 4.5t-4.5 11.5v197q-46 19 -96 19t-96 -19v-197q0 -7 -4.5 -11.5t-11.5 -4.5t-11.5 4.5t-4.5 11.5v180q-55 -33 -87.5 -89.5t-32.5 -122.5q0 -103 72.5 -175.5
t175.5 -72.5zM182 224l10 9q6 6 13.5 2t6.5 -13t-7 -17t-14.5 -13.5t-18.5 -8.5t-20 -3q-20 0 -38.5 12t-21.5 30q-1 9 6.5 13t13.5 -2l10 -9q11 -9 30 -9t30 9zM248 416q20 0 34 -19t14 -45t-14 -45t-34 -19t-34 19t-14 45t14 45t34 19zM398 234q7 -3 6 -12t-7 -17
t-14.5 -13.5t-18.5 -8.5t-20 -3q-20 0 -38.5 12t-21.5 30q-1 9 6.5 13t13.5 -2l10 -9q11 -9 30 -9t31 9l9 9q6 6 14 1z" />
</svg>
