<?xml version="1.0" standalone="no"?>
<!DOCTYPE svg PUBLIC "-//W3C//DTD SVG 1.1//EN" "http://www.w3.org/Graphics/SVG/1.1/DTD/svg11.dtd" >
<svg xmlns="http://www.w3.org/2000/svg" xmlns:xlink="http://www.w3.org/1999/xlink" version="1.1" viewBox="-11 0 533 512">
   <path fill="currentColor"
d="M96 256q-40 0 -68 -28t-28 -68t28 -68t68 -28q13 0 25 4q12 -28 42 -48t61 -20q20 0 41 9t37.5 24.5t24.5 34.5q12 -4 25 -4q43 0 72 33q-1 0 -4 -0.5t-4 -0.5q-53 0 -90.5 37.5t-37.5 90.5q0 16 5 32h-53v-152q0 -8 -8 -8h-16q-8 0 -8 8v145l-103 -103q-2 -2 -5.5 -2
t-5.5 2l-12 12q-2 2 -2 5.5t2 5.5l87 87h-73zM320 224q0 -40 28 -68t68 -28t68 28t28 68q0 17 -6 33q-5 -1 -11 -1h-169q-6 -15 -6 -32zM495 288q5 0 8.5 2.5t6 6t1.5 8.5q-5 56 -39.5 100.5t-87.5 62.5v12q0 13 -9.5 22.5t-22.5 9.5h-192q-13 0 -22.5 -9.5t-9.5 -22.5v-11
q-53 -19 -88 -63t-40 -101q-1 -7 4 -12t12 -5h479z" />
</svg>
