<?xml version="1.0" standalone="no"?>
<!DOCTYPE svg PUBLIC "-//W3C//DTD SVG 1.1//EN" "http://www.w3.org/Graphics/SVG/1.1/DTD/svg11.dtd" >
<svg xmlns="http://www.w3.org/2000/svg" xmlns:xlink="http://www.w3.org/1999/xlink" version="1.1" viewBox="-10 0 532 512">
   <path fill="currentColor"
d="M480 32q13 0 22.5 9.5t9.5 22.5v96q0 13 -9.5 22.5t-22.5 9.5h-448q-13 0 -22.5 -9.5t-9.5 -22.5v-96q0 -13 9.5 -22.5t22.5 -9.5h448zM498 255q6 1 10 5.5t4 10.5v32q0 7 -5 11.5t-11 4.5h-2q-28 -2 -60 -18q-25 -13 -49.5 -13t-50.5 13q-38 19 -77.5 19t-78.5 -19
q-25 -13 -49.5 -13t-50.5 13q-32 16 -60 18h-2q-4 0 -8 -2t-6 -5.5t-2 -8.5v-32q0 -6 4 -10.5t10 -5.5q15 -1 36 -12q38 -19 78 -19t78 19q26 13 50.5 13t49.5 -13q39 -19 78.5 -19t77.5 19q21 11 36 12zM480 352q13 0 22.5 9.5t9.5 22.5v64q0 13 -9.5 22.5t-22.5 9.5h-448
q-13 0 -22.5 -9.5t-9.5 -22.5v-64q0 -13 9.5 -22.5t22.5 -9.5h192l96 48l96 -48h64z" />
</svg>
