<?xml version="1.0" standalone="no"?>
<!DOCTYPE svg PUBLIC "-//W3C//DTD SVG 1.1//EN" "http://www.w3.org/Graphics/SVG/1.1/DTD/svg11.dtd" >
<svg xmlns="http://www.w3.org/2000/svg" xmlns:xlink="http://www.w3.org/1999/xlink" version="1.1" viewBox="-11 0 533 512">
   <path fill="currentColor"
d="M189 346l116 116q6 6 5 14t-8 12q-57 31 -125 21.5t-117 -58t-58.5 -116.5t22.5 -125q4 -7 12 -8t13 4l117 117l28 -27q-2 -6 -2 -8q0 -13 9.5 -22.5t22.5 -9.5t22.5 9.5t9.5 22.5t-9.5 22.5t-22.5 9.5q-2 0 -8 -2zM209 0q122 6 209.5 93.5t93.5 209.5q0 7 -4.5 12
t-11.5 5h-32q-7 0 -11.5 -4.5t-4.5 -10.5q-6 -97 -75 -166.5t-166 -74.5q-6 -1 -10.5 -5.5t-4.5 -10.5v-32q0 -7 5 -11.5t12 -4.5zM209 96q83 6 142 65t65 142q0 7 -4.5 12t-11.5 5h-32q-7 0 -11.5 -4t-4.5 -11q-5 -58 -46.5 -99t-98.5 -46q-4 0 -7.5 -2.5t-5.5 -6t-2 -7.5
v-32q0 -7 5 -12t12 -4z" />
</svg>
