<?xml version="1.0" standalone="no"?>
<!DOCTYPE svg PUBLIC "-//W3C//DTD SVG 1.1//EN" "http://www.w3.org/Graphics/SVG/1.1/DTD/svg11.dtd" >
<svg xmlns="http://www.w3.org/2000/svg" xmlns:xlink="http://www.w3.org/1999/xlink" version="1.1" viewBox="-10 0 532 512">
   <path fill="currentColor"
d="M448 70q28 10 46 34.5t18 55.5q0 146 -103 249t-249 103q-31 0 -55.5 -18t-34.5 -46l-46 15q-3 1 -6 1q-5 0 -9 -2.5t-6.5 -6.5t-2.5 -9v-60q0 -5 2.5 -9t6.5 -6.5t9 -2.5q3 0 6 1l46 15q10 -28 34.5 -46t55.5 -18q66 0 113 -47t47 -113q0 -31 18 -55.5t46 -34.5l-15 -46
q-1 -3 -1 -6q0 -7 5.5 -12.5t12.5 -5.5h60q7 0 12.5 5.5t5.5 12.5q0 3 -1 6zM160 400q99 0 169.5 -70.5t70.5 -169.5q0 -7 -4.5 -11.5t-11.5 -4.5t-11.5 4.5t-4.5 11.5q0 86 -61 147t-147 61q-7 0 -11.5 4.5t-4.5 11.5t4.5 11.5t11.5 4.5z" />
</svg>
