<?xml version="1.0" standalone="no"?>
<!DOCTYPE svg PUBLIC "-//W3C//DTD SVG 1.1//EN" "http://www.w3.org/Graphics/SVG/1.1/DTD/svg11.dtd" >
<svg xmlns="http://www.w3.org/2000/svg" xmlns:xlink="http://www.w3.org/1999/xlink" version="1.1" viewBox="-10 0 661 512">
   <path fill="currentColor"
d="M83 176h-61q-6 -17 -6 -35q0 -27 23.5 -67t60.5 -74q28 25 50 56q13 -16 28 -30q26 24 44 59t18 56q0 18 -6 35h-61q11 -16 11 -35q-1 -8 -10 -27l-27 33l-43 -59q-2 -2 -4 -5q-28 39 -28 58t11 35zM635 101q8 7 4 17t-15 10h-65q-15 0 -25 12l-246 308l-4 4
q-4 5 -6.5 7.5l-8 8t-9.5 9t-11.5 8.5t-14 8.5t-15 7t-17.5 6t-20 4t-22 1.5h-1q-39 0 -73 -19q-39 -21 -62.5 -58.5t-23.5 -82.5q0 -32 15 -96q-6 0 -10.5 -5t-4.5 -11v-16q0 -7 4.5 -11.5t11.5 -4.5h224q7 0 11.5 4.5t4.5 11.5v16q0 7 -4.5 11.5t-11.5 4.5h-22l-48 79
q-3 6 -3 13q0 11 7.5 18t18 7t17.5 -7l109 -109l-10 -10q-5 -5 -5 -11.5t5 -11.5l11 -11q5 -5 11.5 -5t11.5 5l10 10l14 -14l-10 -10q-5 -5 -5 -11.5t5 -11.5l11 -11q5 -5 11.5 -5t11.5 5l10 10l14 -14l-10 -10q-5 -5 -5 -11.5t5 -11.5l11 -11q5 -5 11.5 -5t11.5 5l10 10
l44 -44q19 -19 45 -19h1h46q14 0 23 9zM88 392q10 0 17 -7t7 -17t-7 -17t-17 -7t-17 7t-7 17t7 17t17 7zM120 304q10 0 17 -7t7 -17t-7 -17t-17 -7t-17 7t-7 17t7 17t17 7z" />
</svg>
