<?xml version="1.0" standalone="no"?>
<!DOCTYPE svg PUBLIC "-//W3C//DTD SVG 1.1//EN" "http://www.w3.org/Graphics/SVG/1.1/DTD/svg11.dtd" >
<svg xmlns="http://www.w3.org/2000/svg" xmlns:xlink="http://www.w3.org/1999/xlink" version="1.1" viewBox="-10 0 660 512">
   <path fill="currentColor"
d="M11 109q-11 -4 -11 -15q0 -3 1 -6l15 -45q4 -11 15 -11q3 0 5 1l593 191q11 4 11 15q0 3 -1 5l-4 12h-167zM32 288h608v160q0 13 -9.5 22.5t-22.5 9.5h-576q-13 0 -22.5 -9.5t-9.5 -22.5v-128q0 -13 9.5 -22.5t22.5 -9.5zM120 400v-32q0 -8 -8 -8h-32q-8 0 -8 8v32
q0 8 8 8h32q8 0 8 -8zM216 400v-32q0 -8 -8 -8h-32q-8 0 -8 8v32q0 8 8 8h32q8 0 8 -8z" />
</svg>
