<?xml version="1.0" standalone="no"?>
<!DOCTYPE svg PUBLIC "-//W3C//DTD SVG 1.1//EN" "http://www.w3.org/Graphics/SVG/1.1/DTD/svg11.dtd" >
<svg xmlns="http://www.w3.org/2000/svg" xmlns:xlink="http://www.w3.org/1999/xlink" version="1.1" viewBox="-10 0 596 512">
   <path fill="currentColor"
d="M400 96q7 0 11.5 4.5t4.5 11.5v137q0 7 -5 12l-27 27v176q0 20 -14 34t-34 14h-256q-20 0 -34 -14t-14 -34v-176l-27 -27q-5 -5 -5 -12v-137q0 -7 4.5 -11.5t11.5 -4.5h384zM320 432v-256q0 -7 -4.5 -11.5t-11.5 -4.5h-192q-7 0 -11.5 4.5t-4.5 11.5v256q0 7 4.5 11.5
t11.5 4.5h192q7 0 11.5 -4.5t4.5 -11.5zM256 8v56h-64v-56q0 -8 8 -8h48q8 0 8 8zM320 8v56h-32v-56q0 -8 8 -8h16q8 0 8 8zM408 0q8 0 8 8v56h-64v-56q0 -8 8 -8h48zM568 0q8 0 8 8v272q0 8 -8 8h-48q-8 0 -8 -8v-272q0 -8 8 -8h48zM472 0q8 0 8 8v272q0 8 -8 8h-16
q-8 0 -8 -8v-272q0 -8 8 -8h16z" />
</svg>
