<?xml version="1.0" standalone="no"?>
<!DOCTYPE svg PUBLIC "-//W3C//DTD SVG 1.1//EN" "http://www.w3.org/Graphics/SVG/1.1/DTD/svg11.dtd" >
<svg xmlns="http://www.w3.org/2000/svg" xmlns:xlink="http://www.w3.org/1999/xlink" version="1.1" viewBox="-11 0 661 512">
   <path fill="currentColor"
d="M368 64q7 0 11.5 4.5t4.5 11.5v160q0 7 -4.5 11.5t-11.5 4.5h-89l-134 232q-10 17 -29 22.5t-37 -4.5l-55 -32q-17 -10 -22.5 -29.5t4.5 -36.5l88 -152q-39 -1 -66.5 -29t-27.5 -67q0 -40 28 -68t68 -28h272zM256 448h-51l83 -144v112q0 13 -9.5 22.5t-22.5 9.5zM632 448
q8 0 8 8v48q0 8 -8 8h-176q-8 0 -8 -8v-48q0 -8 8 -8h176zM632 352q8 0 8 8v16q0 8 -8 8h-176q-8 0 -8 -8v-16q0 -8 8 -8h176zM632 64q8 0 8 8v48q0 8 -8 8h-176q-8 0 -8 -8v-48q0 -8 8 -8h176zM632 0q8 0 8 8v16q0 8 -8 8h-176q-8 0 -8 -8v-16q0 -8 8 -8h176zM632 288
q8 0 8 8v16q0 8 -8 8h-176q-8 0 -8 -8v-16q0 -8 8 -8h176zM632 160q8 0 8 8v48q0 8 -8 8h-176q-8 0 -8 -8v-48q0 -8 8 -8h176z" />
</svg>
