<?xml version="1.0" standalone="no"?>
<!DOCTYPE svg PUBLIC "-//W3C//DTD SVG 1.1//EN" "http://www.w3.org/Graphics/SVG/1.1/DTD/svg11.dtd" >
<svg xmlns="http://www.w3.org/2000/svg" xmlns:xlink="http://www.w3.org/1999/xlink" version="1.1" viewBox="-11 0 470 512">
   <path fill="currentColor"
d="M224 448q12 0 22 -6l10 -5v59q0 7 -4.5 11.5t-11.5 4.5h-32q-7 0 -11.5 -4.5t-4.5 -11.5v-59l10 6q10 5 22 5zM446 186q5 6 0 12l-27 26l19 18q3 4 1 9t-7 5h-106l26 141q1 10 -6.5 16t-16.5 1l-33 -24q-8 -6 -17 -1l-48 25q-7 4 -14 0l-48 -25q-9 -5 -17 1l-33 24
q-4 3 -8.5 2t-8 -3.5t-5.5 -6.5t-1 -9l26 -141h-106q-5 0 -7 -5t1 -9l19 -18l-27 -26q-5 -6 0 -12l27 -26l-19 -18q-3 -4 -1 -9t7 -5h118q-6 -16 -6 -32q0 -40 28 -68t68 -28t68 28t28 68q0 16 -6 32h118q5 0 7 5t-1 9l-19 18zM192 96q7 0 11.5 -4.5t4.5 -11.5t-4.5 -11.5
t-11.5 -4.5t-11.5 4.5t-4.5 11.5t4.5 11.5t11.5 4.5zM256 112q7 0 11.5 -4.5t4.5 -11.5t-4.5 -11.5t-11.5 -4.5t-11.5 4.5t-4.5 11.5t4.5 11.5t11.5 4.5z" />
</svg>
