<?xml version="1.0" standalone="no"?>
<!DOCTYPE svg PUBLIC "-//W3C//DTD SVG 1.1//EN" "http://www.w3.org/Graphics/SVG/1.1/DTD/svg11.dtd" >
<svg xmlns="http://www.w3.org/2000/svg" xmlns:xlink="http://www.w3.org/1999/xlink" version="1.1" viewBox="-10 0 660 512">
   <path fill="currentColor"
d="M0 224q0 -13 9.5 -22.5t22.5 -9.5h64v320h-80q-7 0 -11.5 -4.5t-4.5 -11.5v-272zM360 176q8 0 8 8v16q0 8 -8 8h-48q-8 0 -8 -8v-64q0 -8 8 -8h16q8 0 8 8v40h24zM498 112q14 10 14 27v373h-128v-144q0 -7 -4.5 -11.5t-11.5 -4.5h-96q-7 0 -11.5 4.5t-4.5 11.5v144h-128
v-373q0 -17 14 -27l160 -107q8 -5 18 -5t18 5zM320 256q33 0 56.5 -23.5t23.5 -56.5t-23.5 -56.5t-56.5 -23.5t-56.5 23.5t-23.5 56.5t23.5 56.5t56.5 23.5zM608 192q13 0 22.5 9.5t9.5 22.5v272q0 7 -4.5 11.5t-11.5 4.5h-80v-320h64z" />
</svg>
