<?xml version="1.0" standalone="no"?>
<!DOCTYPE svg PUBLIC "-//W3C//DTD SVG 1.1//EN" "http://www.w3.org/Graphics/SVG/1.1/DTD/svg11.dtd" >
<svg xmlns="http://www.w3.org/2000/svg" xmlns:xlink="http://www.w3.org/1999/xlink" version="1.1" viewBox="-10 0 660 512">
   <path fill="currentColor"
d="M48 0q20 0 34 14t14 34v80h-80q-7 0 -11.5 -4.5t-4.5 -11.5v-64q0 -20 14 -34t34 -14zM256 413q0 24 -15 43t-38 23q-30 5 -52.5 -14.5t-22.5 -48.5v-368q0 -26 -16 -48h336q40 0 68 28t28 68v256h-288v61zM288 384h336q7 0 11.5 4.5t4.5 11.5q0 46 -33 79t-79 33h-336
q40 0 68 -28t28 -68v-32z" />
</svg>
