<?xml version="1.0" standalone="no"?>
<!DOCTYPE svg PUBLIC "-//W3C//DTD SVG 1.1//EN" "http://www.w3.org/Graphics/SVG/1.1/DTD/svg11.dtd" >
<svg xmlns="http://www.w3.org/2000/svg" xmlns:xlink="http://www.w3.org/1999/xlink" version="1.1" viewBox="-10 0 660 512">
   <path fill="currentColor"
d="M608 0q13 0 22.5 9.5t9.5 22.5q0 3 -1 6l-96 461q-2 13 -16 13h-31q-4 0 -8 -2t-6 -6t-2 -8v-3l30 -141h-110q-7 0 -11.5 -4.5t-4.5 -11.5v-32q0 -7 4.5 -11.5t11.5 -4.5h123l60 -288h25zM550 0l-40 192h-510q47 -94 136.5 -143t202.5 -49h211z" />
</svg>
