<?xml version="1.0" standalone="no"?>
<!DOCTYPE svg PUBLIC "-//W3C//DTD SVG 1.1//EN" "http://www.w3.org/Graphics/SVG/1.1/DTD/svg11.dtd" >
<svg xmlns="http://www.w3.org/2000/svg" xmlns:xlink="http://www.w3.org/1999/xlink" version="1.1" viewBox="-10 0 532 512">
   <path fill="currentColor"
d="M505 443q7 7 7 17t-7 17l-28 28q-7 7 -17 7t-17 -7l-100 -100q-7 -7 -7 -17v-16q-56 44 -128 44q-86 0 -147 -61t-61 -147t61 -147t147 -61t147 61t61 147q0 72 -44 128h16q10 0 17 7zM208 352q60 0 102 -42t42 -102q0 -39 -19.5 -72.5t-52.5 -52.5t-72 -19
q-60 0 -102 42t-42 102t42 102t102 42zM235 199q14 5 23 17t9 27q0 18 -12.5 31t-30.5 14v16q0 8 -8 8h-16q-8 0 -8 -8v-16q-17 -1 -31 -12q-8 -5 -1 -12l12 -11q4 -4 10 -1q6 4 13 4h28q5 0 8.5 -4t3.5 -9q0 -10 -9 -13l-45 -13q-14 -5 -23 -17t-9 -27q0 -12 6 -22
t15.5 -16.5t21.5 -6.5v-16q0 -8 8 -8h16q8 0 8 8v16q17 1 31 12q8 5 1 12l-12 11q-4 4 -10 1q-6 -4 -13 -4h-28q-5 0 -8.5 4t-3.5 9q0 10 9 13z" />
</svg>
