<?xml version="1.0" standalone="no"?>
<!DOCTYPE svg PUBLIC "-//W3C//DTD SVG 1.1//EN" "http://www.w3.org/Graphics/SVG/1.1/DTD/svg11.dtd" >
<svg xmlns="http://www.w3.org/2000/svg" xmlns:xlink="http://www.w3.org/1999/xlink" version="1.1" viewBox="-10 0 532 512">
   <path fill="currentColor"
d="M505 443q7 7 7 17t-7 17l-28 28q-7 7 -17 7t-17 -7l-100 -100q-7 -7 -7 -17v-16q-56 44 -128 44q-86 0 -147 -61t-61 -147t61 -147t147 -61t147 61t61 147q0 72 -44 128h16q10 0 17 7zM208 352q60 0 102 -42t42 -102q0 -39 -19.5 -72.5t-52.5 -52.5t-72 -19
q-60 0 -102 42t-42 102t42 102t102 42zM208 112q31 0 52.5 21.5t21.5 52.5q0 36 -67 115q-3 3 -7 3t-7 -3q-67 -79 -67 -115q0 -31 21.5 -52.5t52.5 -21.5zM208 208q10 0 17 -7t7 -17t-7 -17t-17 -7t-17 7t-7 17q0 7 3 12.5t9 8.5t12 3z" />
</svg>
