<?xml version="1.0" standalone="no"?>
<!DOCTYPE svg PUBLIC "-//W3C//DTD SVG 1.1//EN" "http://www.w3.org/Graphics/SVG/1.1/DTD/svg11.dtd" >
<svg xmlns="http://www.w3.org/2000/svg" xmlns:xlink="http://www.w3.org/1999/xlink" version="1.1" viewBox="-10 0 660 512">
   <path fill="currentColor"
d="M256 224q0 13 -9.5 22.5t-22.5 9.5h-192q-13 0 -22.5 -9.5t-9.5 -22.5v-192q0 -13 9.5 -22.5t22.5 -9.5h192q13 0 22.5 9.5t9.5 22.5v192zM192 192v-128h-128v128h128zM608 256q13 0 22.5 9.5t9.5 22.5v192q0 13 -9.5 22.5t-22.5 9.5h-192q-13 0 -22.5 -9.5t-9.5 -22.5
v-192q0 -13 9.5 -22.5t22.5 -9.5h192zM576 448v-128h-128v128h128zM480 224h-64q-26 0 -45 19t-19 45v128h-144q-20 0 -34 -14t-14 -34v-80h64q26 0 45 -19t19 -45v-128h144q20 0 34 14t14 34v80z" />
</svg>
