<?xml version="1.0" standalone="no"?>
<!DOCTYPE svg PUBLIC "-//W3C//DTD SVG 1.1//EN" "http://www.w3.org/Graphics/SVG/1.1/DTD/svg11.dtd" >
<svg xmlns="http://www.w3.org/2000/svg" xmlns:xlink="http://www.w3.org/1999/xlink" version="1.1" viewBox="-10 0 532 512">
   <path fill="currentColor"
d="M464 160q20 0 34 14t14 34v256q0 20 -14 34t-34 14h-256q-20 0 -34 -14t-14 -34v-256q0 -20 14 -34t34 -14h256zM448 448v-224h-224v224h224zM352 128h-144q-33 0 -56.5 23.5t-23.5 56.5v144h-80q-20 0 -34 -14t-14 -34v-256q0 -20 14 -34t34 -14h256q20 0 34 14t14 34
v80z" />
</svg>
