<?xml version="1.0" standalone="no"?>
<!DOCTYPE svg PUBLIC "-//W3C//DTD SVG 1.1//EN" "http://www.w3.org/Graphics/SVG/1.1/DTD/svg11.dtd" >
<svg xmlns="http://www.w3.org/2000/svg" xmlns:xlink="http://www.w3.org/1999/xlink" version="1.1" viewBox="-10 0 596 512">
   <path fill="currentColor"
d="M440 226l-176 152q-12 10 -26 3.5t-14 -21.5v-84q-84 10 -112.5 51t-0.5 131q4 12 -6.5 19t-21.5 -1q-35 -25 -59 -67.5t-24 -86.5q0 -38 11 -68t30.5 -50t48 -34t61 -21t73.5 -10v-83q0 -15 14 -21.5t26 3.5l176 152q8 7 8 18t-8 18zM568 190q8 7 8 18t-8 18l-176 152
q-12 10 -26 3.5t-14 -21.5v-16l109 -94q5 -4 9.5 -11.5t7 -15.5t2.5 -15v0q0 -5 -1.5 -11t-4 -12t-6 -11t-7.5 -8l-109 -94v-16q0 -15 14 -21.5t26 3.5z" />
</svg>
