<?xml version="1.0" standalone="no"?>
<!DOCTYPE svg PUBLIC "-//W3C//DTD SVG 1.1//EN" "http://www.w3.org/Graphics/SVG/1.1/DTD/svg11.dtd" >
<svg xmlns="http://www.w3.org/2000/svg" xmlns:xlink="http://www.w3.org/1999/xlink" version="1.1" viewBox="-10 0 660 512">
   <path fill="currentColor"
d="M622 106q8 4 13 12t5 16q0 14 -18 45q-7 13 -22 13h-88v62q0 14 -8.5 29.5t-19.5 23.5l-36 24v165q0 7 -4.5 11.5t-11.5 4.5h-64q-7 0 -11.5 -4.5t-4.5 -11.5v-125h-1q-13 13 -32 13t-33 -13q-13 13 -32 13t-33 -13q-5 5 -13 9l-15 39l19 73q1 5 -1 9.5t-6 7.5t-9 3h-66
q-12 0 -15 -12l-17 -68q-2 -7 -2 -15q0 -12 4 -23l6 -16q-22 -9 -28 -30q-28 5 -46 -17q-18 -23 -7 -49q-25 -13 -25 -42q0 -28 25 -42q-11 -26 7 -48q17 -22 45 -17q8 -27 36 -33q23 -6 42 10q14 -14 33 -14t33 13q13 -13 32 -13t33 13q14 -13 32 -13q19 0 33 13
q14 -12 33 -12t32 12v-77q0 -13 9.5 -22.5t22.5 -9.5t22.5 9.5t9.5 22.5h64q13 0 22.5 9.5t9.5 22.5v19zM512 112q7 0 11.5 -4.5t4.5 -11.5t-4.5 -11.5t-11.5 -4.5t-11.5 4.5t-4.5 11.5t4.5 11.5t11.5 4.5z" />
</svg>
