<?xml version="1.0" standalone="no"?>
<!DOCTYPE svg PUBLIC "-//W3C//DTD SVG 1.1//EN" "http://www.w3.org/Graphics/SVG/1.1/DTD/svg11.dtd" >
<svg xmlns="http://www.w3.org/2000/svg" xmlns:xlink="http://www.w3.org/1999/xlink" version="1.1" viewBox="-10 0 468 512">
   <path fill="currentColor"
d="M248 168q0 -23 -16.5 -39.5t-39.5 -16.5h-112v352q0 7 -4.5 11.5t-11.5 4.5h-48q-7 0 -11.5 -4.5t-4.5 -11.5v-408q0 -10 7 -17t17 -7h168q56 0 96 40t40 96v168q0 7 -4.5 11.5t-11.5 4.5h-48q-7 0 -11.5 -4.5t-4.5 -11.5v-168zM432 32q7 0 11.5 4.5t4.5 11.5v296
q0 56 -40 96t-96 40h-168q-10 0 -17 -7t-7 -17v-280q0 -7 4.5 -11.5t11.5 -4.5h48q7 0 11.5 4.5t4.5 11.5v224h112q23 0 39.5 -16.5t16.5 -39.5v-296q0 -7 4.5 -11.5t11.5 -4.5h48z" />
</svg>
