<?xml version="1.0" standalone="no"?>
<!DOCTYPE svg PUBLIC "-//W3C//DTD SVG 1.1//EN" "http://www.w3.org/Graphics/SVG/1.1/DTD/svg11.dtd" >
<svg xmlns="http://www.w3.org/2000/svg" xmlns:xlink="http://www.w3.org/1999/xlink" version="1.1" viewBox="-10 0 522 512">
   <path fill="currentColor"
d="M466 84q14 5 22 17t8 27q0 63 -15 120.5t-38 99t-53.5 75t-59 54t-56.5 31.5q-18 8 -36 0q-42 -17 -80.5 -50.5t-70.5 -81t-51.5 -112.5t-19.5 -136q0 -6 1.5 -11.5t4 -10.5t6 -9t8 -7.5t10.5 -5.5l192 -80q8 -4 18 -4t18 4zM419 198q12 -11 0 -23l-22 -22
q-5 -5 -11.5 -5t-11.5 5l-150 150l-70 -70q-5 -5 -11.5 -5t-11.5 5l-22 22q-5 5 -5 11.5t5 11.5l104 104q11 11 22 0z" />
</svg>
