<?xml version="1.0" standalone="no"?>
<!DOCTYPE svg PUBLIC "-//W3C//DTD SVG 1.1//EN" "http://www.w3.org/Graphics/SVG/1.1/DTD/svg11.dtd" >
<svg xmlns="http://www.w3.org/2000/svg" xmlns:xlink="http://www.w3.org/1999/xlink" version="1.1" viewBox="-10 0 532 512">
   <path fill="currentColor"
d="M127 256l129 129q9 9 9 22t-9 22l-42 42q-9 9 -21.5 9t-21.5 -9l-130 -130q-9 -9 -9 -21.5t9 -21.5l42 -42q9 -9 22 -9t22 9zM235 147l130 130q9 9 9 22t-9 22l-43 42q-9 9 -21.5 9t-21.5 -9l-130 -130q-9 -9 -9 -21.5t9 -21.5l42 -43q9 -9 22 -9t22 9zM5 474l61 -62
l34 34l-62 61q-4 5 -10.5 5t-10.5 -5l-12 -12q-5 -4 -5 -10.5t5 -10.5zM511 84q1 6 1 13q0 29 -17 53q-4 6 -11 6.5t-12 -4.5l-12 -12q-9 -9 -2.5 -20t6.5 -24v-6q-3 -24 -25 -36q-11 -6 -23 -6q-13 0 -23 6q-18 11 -23 30.5t3 33.5q8 17 5.5 34.5t-14.5 29.5l-25 25
l-33 -34l24 -25q3 -3 0 -9q-17 -34 -6.5 -69.5t42.5 -55.5q23 -14 50 -14q26 0 48 13q41 24 47 71z" />
</svg>
