<?xml version="1.0" standalone="no"?>
<!DOCTYPE svg PUBLIC "-//W3C//DTD SVG 1.1//EN" "http://www.w3.org/Graphics/SVG/1.1/DTD/svg11.dtd" >
<svg xmlns="http://www.w3.org/2000/svg" xmlns:xlink="http://www.w3.org/1999/xlink" version="1.1" viewBox="-10 0 468 512">
   <path fill="currentColor"
d="M352 160h96v272q0 33 -23.5 56.5t-56.5 23.5h-288q-33 0 -56.5 -23.5t-23.5 -56.5v-272h96v-32q0 -53 37.5 -90.5t90.5 -37.5t90.5 37.5t37.5 90.5v32zM160 128v32h128v-32q0 -26 -19 -45t-45 -19t-45 19t-19 45zM320 248q10 0 17 -7t7 -17t-7 -17t-17 -7t-17 7t-7 17
t7 17t17 7zM128 248q10 0 17 -7t7 -17t-7 -17t-17 -7t-17 7t-7 17t7 17t17 7z" />
</svg>
