<?xml version="1.0" standalone="no"?>
<!DOCTYPE svg PUBLIC "-//W3C//DTD SVG 1.1//EN" "http://www.w3.org/Graphics/SVG/1.1/DTD/svg11.dtd" >
<svg xmlns="http://www.w3.org/2000/svg" xmlns:xlink="http://www.w3.org/1999/xlink" version="1.1" viewBox="-10 0 596 512">
   <path fill="currentColor"
d="M528 301q-4 19 -23 19h-293l6 32h269q11 0 18 9t5 20l-6 25q32 15 32 50q0 23 -16.5 39.5t-39.5 16.5t-39.5 -16.5t-16.5 -39.5q0 -24 17 -40h-210q17 16 17 40q0 23 -16.5 39.5t-39.5 16.5t-39.5 -16.5t-16.5 -39.5q0 -32 28 -49l-70 -343h-70q-10 0 -17 -7t-7 -17v-16
q0 -10 7 -17t17 -7h103q8 0 14.5 5.5t8.5 13.5l9 45h393q12 0 19 9t4 20z" />
</svg>
