<?xml version="1.0" standalone="no"?>
<!DOCTYPE svg PUBLIC "-//W3C//DTD SVG 1.1//EN" "http://www.w3.org/Graphics/SVG/1.1/DTD/svg11.dtd" >
<svg xmlns="http://www.w3.org/2000/svg" xmlns:xlink="http://www.w3.org/1999/xlink" version="1.1" viewBox="-11 0 533 512">
   <path fill="currentColor"
d="M503 72q9 9 9 21.5t-9 21.5l-24 24q-28 29 -68 21q-9 -2 -18 -7l-100 100l50 49q8 8 9 20t-7 22l-120 156q-9 11 -23 12t-25 -9l-168 -168q-10 -11 -9 -25t12 -23l156 -120q10 -8 22 -7t20 9l50 50l99 -100q-5 -9 -7 -18q-1 -7 -1 -15q0 -31 22 -53l24 -24q9 -9 21.5 -9
t21.5 9zM112 352q7 0 11 -5l80 -80q12 -11 0 -22q-4 -5 -11 -5t-11 5l-80 80q-12 11 0 22q4 5 11 5zM267 331q5 -4 5 -11t-5 -11q-11 -12 -22 0l-80 80q-12 11 0 22q4 5 11 5t11 -5zM445 105l12 -11l-39 -39l-11 12q-10 10 -8 25q4 17 21 21q15 2 25 -8z" />
</svg>
