<?xml version="1.0" standalone="no"?>
<!DOCTYPE svg PUBLIC "-//W3C//DTD SVG 1.1//EN" "http://www.w3.org/Graphics/SVG/1.1/DTD/svg11.dtd" >
<svg xmlns="http://www.w3.org/2000/svg" xmlns:xlink="http://www.w3.org/1999/xlink" version="1.1" viewBox="-10 0 532 512">
   <path fill="currentColor"
d="M390 136l-158 158q-7 7 -17 7t-17 -7l-12 -12q-7 -7 -7 -17t7 -17q-25 -30 -26 -69.5t23 -70.5q-19 -12 -41 -12q-32 0 -55 23t-23 55v306h-64v-306q0 -59 41.5 -100.5t100.5 -41.5q55 0 96 37q26 -8 55 -2.5t51 23.5q7 -7 17 -7t17 7l12 12q7 7 7 17t-7 17zM384 208
q0 7 -4.5 11.5t-11.5 4.5t-11.5 -4.5t-4.5 -11.5t4.5 -11.5t11.5 -4.5t11.5 4.5t4.5 11.5zM416 208q0 -7 4.5 -11.5t11.5 -4.5t11.5 4.5t4.5 11.5t-4.5 11.5t-11.5 4.5t-11.5 -4.5t-4.5 -11.5zM512 208q0 7 -4.5 11.5t-11.5 4.5t-11.5 -4.5t-4.5 -11.5t4.5 -11.5t11.5 -4.5
t11.5 4.5t4.5 11.5zM352 240q0 7 -4.5 11.5t-11.5 4.5t-11.5 -4.5t-4.5 -11.5t4.5 -11.5t11.5 -4.5t11.5 4.5t4.5 11.5zM400 224q7 0 11.5 4.5t4.5 11.5t-4.5 11.5t-11.5 4.5t-11.5 -4.5t-4.5 -11.5t4.5 -11.5t11.5 -4.5zM480 240q0 7 -4.5 11.5t-11.5 4.5t-11.5 -4.5
t-4.5 -11.5t4.5 -11.5t11.5 -4.5t11.5 4.5t4.5 11.5zM320 272q0 7 -4.5 11.5t-11.5 4.5t-11.5 -4.5t-4.5 -11.5t4.5 -11.5t11.5 -4.5t11.5 4.5t4.5 11.5zM352 272q0 -7 4.5 -11.5t11.5 -4.5t11.5 4.5t4.5 11.5t-4.5 11.5t-11.5 4.5t-11.5 -4.5t-4.5 -11.5zM448 272
q0 7 -4.5 11.5t-11.5 4.5t-11.5 -4.5t-4.5 -11.5t4.5 -11.5t11.5 -4.5t11.5 4.5t4.5 11.5zM320 304q0 -7 4.5 -11.5t11.5 -4.5t11.5 4.5t4.5 11.5t-4.5 11.5t-11.5 4.5t-11.5 -4.5t-4.5 -11.5zM416 304q0 7 -4.5 11.5t-11.5 4.5t-11.5 -4.5t-4.5 -11.5t4.5 -11.5t11.5 -4.5
t11.5 4.5t4.5 11.5zM320 336q0 7 -4.5 11.5t-11.5 4.5t-11.5 -4.5t-4.5 -11.5t4.5 -11.5t11.5 -4.5t11.5 4.5t4.5 11.5zM384 336q0 7 -4.5 11.5t-11.5 4.5t-11.5 -4.5t-4.5 -11.5t4.5 -11.5t11.5 -4.5t11.5 4.5t4.5 11.5zM352 368q0 7 -4.5 11.5t-11.5 4.5t-11.5 -4.5
t-4.5 -11.5t4.5 -11.5t11.5 -4.5t11.5 4.5t4.5 11.5zM320 400q0 7 -4.5 11.5t-11.5 4.5t-11.5 -4.5t-4.5 -11.5t4.5 -11.5t11.5 -4.5t11.5 4.5t4.5 11.5z" />
</svg>
