<?xml version="1.0" standalone="no"?>
<!DOCTYPE svg PUBLIC "-//W3C//DTD SVG 1.1//EN" "http://www.w3.org/Graphics/SVG/1.1/DTD/svg11.dtd" >
<svg xmlns="http://www.w3.org/2000/svg" xmlns:xlink="http://www.w3.org/1999/xlink" version="1.1" viewBox="-10 0 596 512">
   <path fill="currentColor"
d="M288 200q23 0 39.5 16.5t16.5 39.5t-16.5 39.5t-39.5 16.5t-39.5 -16.5t-16.5 -39.5t16.5 -39.5t39.5 -16.5zM64 256q0 34 16 76.5t39 67.5q10 11 -1 22l-22 22q-5 4 -11 4q-8 0 -13 -5q-72 -80 -72 -187t72 -186q5 -6 13 -6q6 0 11 5l22 21q11 11 1 22q-23 25 -39 67.5
t-16 76.5zM198 168q5 5 5 11t-3 10q-10 12 -17 31.5t-7 35.5q0 10 3 23t8.5 24.5t12.5 19.5q3 4 3 10t-5 11l-22 22q-5 4 -12 4q-8 0 -12 -5q-17 -20 -28.5 -52t-11.5 -57t11.5 -57t28.5 -52q4 -5 12 -5q7 0 12 4zM504 69q72 80 72 187t-72 186q-5 6 -13 6q-6 0 -11 -5
l-22 -21q-11 -11 -1 -22q23 -25 39 -67.5t16 -76.5t-16 -76.5t-39 -67.5q-10 -11 1 -22l22 -22q5 -4 11 -4q8 0 13 5zM424 147q11 13 20 32t14.5 39.5t5.5 37.5t-5.5 37.5t-14.5 39.5t-20 32q-4 5 -12 5q-7 0 -12 -4l-22 -22q-5 -5 -5 -11t3 -10q7 -8 12.5 -19.5t8.5 -24.5
t3 -23t-3 -23t-8.5 -24.5t-12.5 -19.5q-3 -4 -3 -10t5 -11l22 -22q5 -4 12 -4q8 0 12 5z" />
</svg>
