<?xml version="1.0" standalone="no"?>
<!DOCTYPE svg PUBLIC "-//W3C//DTD SVG 1.1//EN" "http://www.w3.org/Graphics/SVG/1.1/DTD/svg11.dtd" >
<svg xmlns="http://www.w3.org/2000/svg" xmlns:xlink="http://www.w3.org/1999/xlink" version="1.1" viewBox="-10 0 468 512">
   <path fill="currentColor"
d="M91 484q0 -12 8.5 -20.5t21.5 -8.5h62v-6h-126q-12 0 -20.5 -8.5t-8.5 -20.5t8.5 -20t19.5 -8h127v-6h-154q-12 0 -20.5 -8.5t-8.5 -20.5q0 -11 8.5 -19.5t20.5 -8.5h154v-6h-125q-12 0 -21 -8.5t-8 -20.5q0 -11 8 -19.5t20 -8.5h169l-31 -22q-10 -7 -12 -19t5 -21.5
t19 -11t21 4.5l124 90q14 10 14 28v141q0 12 -7.5 21.5t-19.5 11.5l-80 19q-16 4 -32 4h-107q-12 0 -20 -8t-9 -20zM165 258l-37 -46q-7 -10 -5.5 -21.5t10.5 -18.5q9 -8 21 -6.5t20 11.5l13 17q-13 11 -12 28.5t15 27.5l11 8h-36zM448 256v1q0 17 -13 27l-61 48v-17
q0 -22 -18 -34l-123 -90q-21 -15 -42 -1l-52 -67q-7 -9 -5.5 -21t10.5 -20q10 -7 21.5 -5.5t18.5 11.5l78 99l4 -3l-94 -121q-8 -10 -6.5 -22t11.5 -19q9 -7 20.5 -5.5t18.5 10.5l95 122l5 -4l-77 -98q-8 -10 -6.5 -22t11.5 -19q9 -7 20.5 -5.5t19.5 10.5l103 133l-1 -38
q-1 -12 7.5 -20.5t20 -9t20.5 7.5t9 20z" />
</svg>
