<?xml version="1.0" standalone="no"?>
<!DOCTYPE svg PUBLIC "-//W3C//DTD SVG 1.1//EN" "http://www.w3.org/Graphics/SVG/1.1/DTD/svg11.dtd" >
<svg xmlns="http://www.w3.org/2000/svg" xmlns:xlink="http://www.w3.org/1999/xlink" version="1.1" viewBox="-11 0 662 512">
   <path fill="currentColor"
d="M634 458q12 10 3 23l-20 25q-6 7 -15 6h-1h-1h-3q-1 -3 -2 -3l-589 -455q-12 -10 -3 -23l20 -25q10 -12 22 -3l246 190q3 -1 5 -1h48q7 0 11.5 4.5t4.5 11.5v38l48 38v-172q0 -7 4.5 -11.5t11.5 -4.5h48q7 0 11.5 4.5t4.5 11.5v233l48 37v-366q0 -7 4.5 -11.5t11.5 -4.5
h48q7 0 11.5 4.5t4.5 11.5v428zM88 384q7 0 11.5 4.5t4.5 11.5v96q0 7 -4.5 11.5t-11.5 4.5h-48q-7 0 -11.5 -4.5t-4.5 -11.5v-96q0 -7 4.5 -11.5t11.5 -4.5h48zM168 288h36l28 21v187q0 7 -4.5 11.5t-11.5 4.5h-48q-7 0 -11.5 -4.5t-4.5 -11.5v-192q0 -7 4.5 -11.5
t11.5 -4.5zM280 496v-150l80 62v88q0 7 -4.5 11.5t-11.5 4.5h-48q-7 0 -11.5 -4.5t-4.5 -11.5zM408 496v-51l77 60q-5 7 -13 7h-48q-7 0 -11.5 -4.5t-4.5 -11.5z" />
</svg>
