<?xml version="1.0" standalone="no"?>
<!DOCTYPE svg PUBLIC "-//W3C//DTD SVG 1.1//EN" "http://www.w3.org/Graphics/SVG/1.1/DTD/svg11.dtd" >
<svg xmlns="http://www.w3.org/2000/svg" xmlns:xlink="http://www.w3.org/1999/xlink" version="1.1" viewBox="-10 0 524 512">
   <path fill="currentColor"
d="M497 273l-168 168q-11 11 -26 5t-15 -22v-96h-136q-10 0 -17 -7t-7 -17v-96q0 -10 7 -17t17 -7h136v-96q0 -16 15 -22t26 5l168 168q7 7 7 17t-7 17zM192 436q0 12 -12 12h-84q-40 0 -68 -28t-28 -68v-192q0 -40 28 -68t68 -28h84q12 0 12 12v40q0 12 -12 12h-84
q-13 0 -22.5 9.5t-9.5 22.5v192q0 13 9.5 22.5t22.5 9.5h84q12 0 12 12v40z" />
</svg>
