<?xml version="1.0" standalone="no"?>
<!DOCTYPE svg PUBLIC "-//W3C//DTD SVG 1.1//EN" "http://www.w3.org/Graphics/SVG/1.1/DTD/svg11.dtd" >
<svg xmlns="http://www.w3.org/2000/svg" xmlns:xlink="http://www.w3.org/1999/xlink" version="1.1" viewBox="-12 0 662 512">
   <path fill="currentColor"
d="M623 192q7 0 12 4.5t5 11.5v32q0 4 -2 7.5t-5.5 6t-7.5 2.5q-14 1 -34.5 9.5t-37.5 18.5t-37 22t-30 16q-67 30 -102 30q-43 0 -66 -25q-25 -28 -20 -84q-77 61 -211 196q-10 9 -23 9q-19 0 -27 -15t-3 -29l98 -246q7 -14 -5.5 -24.5t-26.5 -2.5l-58 39q-6 4 -12.5 2.5
t-9.5 -7.5l-18 -27q-8 -13 5 -22l55 -37q28 -17 57 -14.5t48 20t28.5 43t-3.5 54.5l-42 104q75 -71 112 -98t58 -28q19 -1 29.5 8.5t12.5 26t2 25t-1 16.5q-3 18 -2 29.5t6.5 17t16.5 5.5q22 0 76 -24q10 -5 44.5 -24.5t65 -32.5t53.5 -15z" />
</svg>
