<?xml version="1.0" standalone="no"?>
<!DOCTYPE svg PUBLIC "-//W3C//DTD SVG 1.1//EN" "http://www.w3.org/Graphics/SVG/1.1/DTD/svg11.dtd" >
<svg xmlns="http://www.w3.org/2000/svg" xmlns:xlink="http://www.w3.org/1999/xlink" version="1.1" viewBox="-12 0 470 512">
   <path fill="currentColor"
d="M400 0q20 0 34 14t14 34t-14 34t-34 14t-34 -14t-14 -34t14 -34t34 -14zM400 448q7 0 11.5 4.5t4.5 11.5q0 20 -14 34t-34 14h-96q-7 0 -11.5 -4.5t-4.5 -11.5t4.5 -11.5t11.5 -4.5h96q7 0 11.5 -4.5t4.5 -11.5t4.5 -11.5t11.5 -4.5zM118 457q11 -12 22 0q5 4 5 11t-5 11
q-14 14 -33.5 14t-33.5 -14l-68 -68q-12 -11 -0.5 -22.5t22.5 0.5l68 68q5 4 11.5 4t11.5 -4zM174 277q6 9 13 17l30 30l-92 92q-9 9 -22 9t-22.5 -9.5t-9.5 -22.5t9 -23zM128 160q-13 0 -22.5 -9.5t-9.5 -22.5t9.5 -22.5t22.5 -9.5h205q26 0 36.5 24.5t-8.5 43.5l-82 83
q-1 0 -1.5 0.5l-0.5 0.5l61 61q14 14 14 34v89q0 13 -9.5 22.5t-22.5 9.5t-22.5 -9.5t-9.5 -22.5v-83l-78 -78q-20 -20 -19 -48t22 -46l21 -17h-106z" />
</svg>
