<?xml version="1.0" standalone="no"?>
<!DOCTYPE svg PUBLIC "-//W3C//DTD SVG 1.1//EN" "http://www.w3.org/Graphics/SVG/1.1/DTD/svg11.dtd" >
<svg xmlns="http://www.w3.org/2000/svg" xmlns:xlink="http://www.w3.org/1999/xlink" version="1.1" viewBox="-11 0 534 512">
   <path fill="currentColor"
d="M511 190q5 29 -8 56.5t-39 41.5l-429 221q-5 3 -11 3q-15 0 -21 -13q-5 -9 -2 -18.5t12 -13.5l101 -52q-16 -15 -8 -35q58 -140 61 -144l59 -76h-98q-13 0 -22.5 -9.5t-9.5 -22.5t9.5 -22.5t22.5 -9.5h184q27 0 37 24.5t-9 43.5l-121 111l-45 109l267 -138
q12 -7 18.5 -20t3.5 -28q-1 -6 1.5 -12t7.5 -10t11 -6q10 -1 18 4.5t10 15.5zM400 96q-20 0 -34 -14t-14 -34t14 -34t34 -14t34 14t14 34t-14 34t-34 14z" />
</svg>
