<?xml version="1.0" standalone="no"?>
<!DOCTYPE svg PUBLIC "-//W3C//DTD SVG 1.1//EN" "http://www.w3.org/Graphics/SVG/1.1/DTD/svg11.dtd" >
<svg xmlns="http://www.w3.org/2000/svg" xmlns:xlink="http://www.w3.org/1999/xlink" version="1.1" viewBox="-10 0 468 512">
   <path fill="currentColor"
d="M439 453q6 3 8 9.5t-1 12.5l-14 28q-3 6 -9.5 8t-11.5 -1l-187 -90l-187 90q-5 3 -11.5 1t-9.5 -8l-14 -28q-3 -6 -1 -12.5t8 -9.5l142 -69l-142 -69q-6 -3 -8 -9.5t1 -12.5l14 -28q3 -6 9.5 -8t11.5 1l187 90l187 -90q5 -3 11.5 -1t9.5 8l14 28q3 6 1 12.5t-8 9.5
l-142 69zM150 237q-32 -17 -51 -46t-19 -63q0 -53 42 -90.5t102 -37.5t102 37.5t42 90.5q0 34 -19 63t-51 46l6 26q2 10 -3.5 17.5t-13.5 7.5h-126q-8 0 -13 -7.5t-3 -17.5zM280 112q-13 0 -22.5 9.5t-9.5 22.5t9.5 22.5t22.5 9.5t22.5 -9.5t9.5 -22.5t-9.5 -22.5
t-22.5 -9.5zM168 112q-13 0 -22.5 9.5t-9.5 22.5t9.5 22.5t22.5 9.5t22.5 -9.5t9.5 -22.5t-9.5 -22.5t-22.5 -9.5z" />
</svg>
