<?xml version="1.0" standalone="no"?>
<!DOCTYPE svg PUBLIC "-//W3C//DTD SVG 1.1//EN" "http://www.w3.org/Graphics/SVG/1.1/DTD/svg11.dtd" >
<svg xmlns="http://www.w3.org/2000/svg" xmlns:xlink="http://www.w3.org/1999/xlink" version="1.1" viewBox="-10 0 660 512">
   <path fill="currentColor"
d="M416 96q26 0 45 19t19 45v128q0 26 -19 45t-45 19l-27 134q-2 11 -11 18.5t-20 7.5h-76q-11 0 -20 -7.5t-11 -18.5l-27 -134q-26 0 -45 -19t-19 -45v-128q0 -26 19 -45t45 -19h192zM256 288q13 0 22.5 -9.5t9.5 -22.5t-9.5 -22.5t-22.5 -9.5t-22.5 9.5t-9.5 22.5
t9.5 22.5t22.5 9.5zM384 288q13 0 22.5 -9.5t9.5 -22.5t-9.5 -22.5t-22.5 -9.5t-22.5 9.5t-9.5 22.5t9.5 22.5t22.5 9.5zM60 114q10 14 36 14h32v96q-53 0 -90.5 -37.5t-37.5 -90.5q0 -55 37 -91q4 -5 11 -5t11.5 4.5t4.5 11.5q0 3 -1 6q-4 11 -7.5 26t-3.5 35t8 31zM603 5
q37 36 37 91q0 53 -37.5 90.5t-90.5 37.5v-96h32q26 0 36 -14q7 -11 7.5 -31.5t-3 -35.5t-7.5 -25q-1 -3 -1 -6q0 -7 4.5 -11.5t11.5 -4.5t11 5z" />
</svg>
