<?xml version="1.0" standalone="no"?>
<!DOCTYPE svg PUBLIC "-//W3C//DTD SVG 1.1//EN" "http://www.w3.org/Graphics/SVG/1.1/DTD/svg11.dtd" >
<svg xmlns="http://www.w3.org/2000/svg" xmlns:xlink="http://www.w3.org/1999/xlink" version="1.1" viewBox="-11 0 533 512">
   <path fill="currentColor"
d="M505 420q7 7 7 17t-7 17q-26 26 -63 26q-20 0 -37 -8l-392 -203q-9 -4 -12 -13.5t1.5 -18.5t14 -12t18.5 2l126 65q-1 -9 1 -16q3 -6 7 -11l74 -73h-83q-13 0 -22.5 -9.5t-9.5 -22.5t9.5 -22.5t22.5 -9.5h154q31 0 43.5 29.5t-10.5 52.5l-46 46h51q13 0 22.5 9.5
t9.5 22.5v96q0 10 -7 19l49 26q25 11 45 -9q7 -7 17 -7t17 7zM320 374v-54h-104zM400 128q-20 0 -34 -14t-14 -34t14 -34t34 -14t34 14t14 34t-14 34t-34 14z" />
</svg>
