<?xml version="1.0" standalone="no"?>
<!DOCTYPE svg PUBLIC "-//W3C//DTD SVG 1.1//EN" "http://www.w3.org/Graphics/SVG/1.1/DTD/svg11.dtd" >
<svg xmlns="http://www.w3.org/2000/svg" xmlns:xlink="http://www.w3.org/1999/xlink" version="1.1" viewBox="-10 0 468 512">
   <path fill="currentColor"
d="M400 32q20 0 34 14t14 34v352q0 20 -14 34t-34 14h-352q-20 0 -34 -14t-14 -34v-352q0 -20 14 -34t34 -14h352zM384 356v-40q0 -12 -12 -12h-52v-24q0 -10 -7 -17t-17 -7h-16q-10 0 -17 7t-7 17v24h-180q-12 0 -12 12v40q0 12 12 12h180v24q0 10 7 17t17 7h16q10 0 17 -7
t7 -17v-24h52q12 0 12 -12zM384 196v-40q0 -12 -12 -12h-180v-24q0 -10 -7 -17t-17 -7h-16q-10 0 -17 7t-7 17v24h-52q-12 0 -12 12v40q0 12 12 12h52v24q0 10 7 17t17 7h16q10 0 17 -7t7 -17v-24h180q12 0 12 -12z" />
</svg>
