<?xml version="1.0" standalone="no"?>
<!DOCTYPE svg PUBLIC "-//W3C//DTD SVG 1.1//EN" "http://www.w3.org/Graphics/SVG/1.1/DTD/svg11.dtd" >
<svg xmlns="http://www.w3.org/2000/svg" xmlns:xlink="http://www.w3.org/1999/xlink" version="1.1" viewBox="-10 0 660 512">
   <path fill="currentColor"
d="M208 96q86 0 147 61t61 147t-61 147t-147 61t-147 -61t-61 -147t61 -147t147 -61zM272 229q-11 0 -19 8t-8 19t8 19t19 8t19 -8t8 -19t-8 -19t-19 -8zM144 229q-11 0 -19 8t-8 19t8 19t19 8t19 -8t8 -19t-8 -19t-19 -8zM308 370q11 -12 -1.5 -22.5t-22.5 1.5
q-30 35 -76 35t-76 -35q-10 -12 -22.5 -1.5t-1.5 22.5q39 46 100 46t100 -46zM624 80q7 0 11.5 4.5t4.5 11.5v32q0 7 -4.5 11.5t-11.5 4.5h-64v64q0 7 -4.5 11.5t-11.5 4.5h-32q-7 0 -11.5 -4.5t-4.5 -11.5v-64h-64q-7 0 -11.5 -4.5t-4.5 -11.5v-32q0 -7 4.5 -11.5
t11.5 -4.5h64v-64q0 -7 4.5 -11.5t11.5 -4.5h32q7 0 11.5 4.5t4.5 11.5v64h64z" />
</svg>
