<?xml version="1.0" standalone="no"?>
<!DOCTYPE svg PUBLIC "-//W3C//DTD SVG 1.1//EN" "http://www.w3.org/Graphics/SVG/1.1/DTD/svg11.dtd" >
<svg xmlns="http://www.w3.org/2000/svg" xmlns:xlink="http://www.w3.org/1999/xlink" version="1.1" viewBox="-10 0 516 512">
   <path fill="currentColor"
d="M248 8q103 0 175.5 72.5t72.5 175.5t-72.5 175.5t-175.5 72.5t-175.5 -72.5t-72.5 -175.5t72.5 -175.5t175.5 -72.5zM112 223q-1 7 5.5 8.5t9.5 -3.5l10 -17q12 -22 31 -22t32 22l9 17q3 5 9.5 3.5t5.5 -8.5q-1 -12 -5 -23t-9.5 -20t-12.5 -15t-14.5 -9.5t-14.5 -3.5
q-19 0 -36.5 20.5t-19.5 50.5zM363 346q10 -12 -2.5 -22t-22.5 2q-35 42 -90 42t-90 -42q-10 -12 -22.5 -2t-2.5 22q45 54 115 54t115 -54zM369 228q3 5 9.5 3.5t5.5 -8.5q-1 -20 -10 -36.5t-21.5 -25.5t-24.5 -9q-19 0 -36.5 20.5t-19.5 50.5q0 7 6 8.5t9 -3.5l9 -17
q13 -22 32 -22t32 22z" />
</svg>
