<?xml version="1.0" standalone="no"?>
<!DOCTYPE svg PUBLIC "-//W3C//DTD SVG 1.1//EN" "http://www.w3.org/Graphics/SVG/1.1/DTD/svg11.dtd" >
<svg xmlns="http://www.w3.org/2000/svg" xmlns:xlink="http://www.w3.org/1999/xlink" version="1.1" viewBox="-10 0 660 512">
   <path fill="currentColor"
d="M624 368q7 0 11.5 4.5t4.5 11.5v16q0 7 -4.5 11.5t-11.5 4.5h-544q-7 0 -11.5 -4.5t-4.5 -11.5v-16q0 -7 4.5 -11.5t11.5 -4.5h544zM144 464q7 0 11.5 4.5t4.5 11.5v16q0 7 -4.5 11.5t-11.5 4.5h-128q-7 0 -11.5 -4.5t-4.5 -11.5v-16q0 -7 4.5 -11.5t11.5 -4.5h128z
M560 464q7 0 11.5 4.5t4.5 11.5v16q0 7 -4.5 11.5t-11.5 4.5h-336q-7 0 -11.5 -4.5t-4.5 -11.5v-16q0 -7 4.5 -11.5t11.5 -4.5h336zM144 288q-60 0 -102 -42t-42 -102t42 -102t102 -42q61 0 104 45q43 -45 104 -45q40 0 74 21t52 55q24 -12 50 -12q46 0 79 33t33 79t-33 79
t-79 33h-60q-37 32 -84 32t-84 -32h-156z" />
</svg>
