<?xml version="1.0" standalone="no"?>
<!DOCTYPE svg PUBLIC "-//W3C//DTD SVG 1.1//EN" "http://www.w3.org/Graphics/SVG/1.1/DTD/svg11.dtd" >
<svg xmlns="http://www.w3.org/2000/svg" xmlns:xlink="http://www.w3.org/1999/xlink" version="1.1" viewBox="-10 0 532 512">
   <path fill="currentColor"
d="M96 304v-64q0 -7 4.5 -11.5t11.5 -4.5h22l96 96h-118q-7 0 -11.5 -4.5t-4.5 -11.5zM256 0q106 0 181 75t75 181t-75 181t-181 75t-181 -75t-75 -181t75 -181t181 -75zM256 448q61 0 111 -36l-267 -267q-36 50 -36 111q0 79 56.5 135.5t135.5 56.5zM301 256l32 32h51v-32
h-83zM412 367q36 -50 36 -111q0 -79 -56.5 -135.5t-135.5 -56.5q-61 0 -111 36l124 124h131q7 0 11.5 4.5t4.5 11.5v64q0 7 -4.5 11.5t-11.5 4.5h-35zM321 128q24 0 41.5 15.5t21.5 39.5q0 1 -0.5 3t-1.5 3t-2.5 2t-3.5 1h-16q-7 0 -8 -6q-2 -11 -11 -18.5t-20 -7.5
q-16 0 -30 -7t-22.5 -19.5t-11.5 -28.5q0 -3 2.5 -6t5.5 -3h17q6 0 7 6q2 11 11 18.5t21 7.5z" />
</svg>
