<?xml version="1.0" standalone="no"?>
<!DOCTYPE svg PUBLIC "-//W3C//DTD SVG 1.1//EN" "http://www.w3.org/Graphics/SVG/1.1/DTD/svg11.dtd" >
<svg xmlns="http://www.w3.org/2000/svg" xmlns:xlink="http://www.w3.org/1999/xlink" version="1.1" viewBox="-10 0 660 512">
   <path fill="currentColor"
d="M528 288q46 0 79 33t33 79t-33 79t-79 33h-384q-60 0 -102 -42t-42 -102t42 -102t102 -42q61 0 104 45q43 -45 104 -45q40 0 74 21t52 55q24 -12 50 -12zM402 159q17 -29 46.5 -46t63.5 -17q53 0 90.5 37.5t37.5 90.5q0 35 -19 67q-41 -35 -93 -35q-19 0 -37 5
q-25 -32 -61.5 -50.5t-77.5 -18.5q-58 0 -104 34q-19 -14 -44 -23q15 -34 46.5 -54.5t69.5 -20.5q46 0 82 31zM144 192q-55 0 -100 32q-44 -39 -44 -96q0 -53 37.5 -90.5t90.5 -37.5q23 0 44 8t37.5 22t28.5 33q36 -31 82 -31q33 0 61 15.5t46 41.5q-20 13 -32 26
q-35 -19 -75 -19q-49 0 -89 27t-58 71q-15 -2 -29 -2z" />
</svg>
