<?xml version="1.0" standalone="no"?>
<!DOCTYPE svg PUBLIC "-//W3C//DTD SVG 1.1//EN" "http://www.w3.org/Graphics/SVG/1.1/DTD/svg11.dtd" >
<svg xmlns="http://www.w3.org/2000/svg" xmlns:xlink="http://www.w3.org/1999/xlink" version="1.1" viewBox="-10 0 532 512">
   <path fill="currentColor"
d="M256 32q106 0 181 61t75 147t-75 147t-181 61q-56 0 -107 -19q-65 51 -141 51q-2 0 -4 -1.5t-3 -3.5q-2 -5 1.5 -8.5t12 -14t22.5 -35t20 -46.5q-57 -57 -57 -131q0 -86 75 -147t181 -61zM128 304q18 0 30.5 -11.5t12.5 -27.5t-14 -28l-22 -19q-2 -1 -2 -3q0 -7 11 -7h12
q8 0 8 -8v-16q0 -8 -8 -8h-12q-18 0 -30.5 11.5t-12.5 27.5q0 17 14 28l22 19q2 1 2 3q0 7 -11 7h-12q-8 0 -8 8v16q0 8 8 8h12zM320 296v-104q0 -7 -4.5 -11.5t-11.5 -4.5h-16q-10 0 -14 9l-18 35l-18 -35q-4 -9 -14 -9h-16q-7 0 -11.5 4.5t-4.5 11.5v104q0 8 8 8h16
q8 0 8 -8v-68l25 56q2 4 7 4t7 -4l25 -56v68q0 8 8 8h16q8 0 8 -8zM368 304q18 0 30.5 -11.5t12.5 -27.5t-14 -28l-22 -19q-2 -1 -2 -3q0 -7 11 -7h12q8 0 8 -8v-16q0 -8 -8 -8h-12q-18 0 -30.5 11.5t-12.5 27.5q0 17 14 28l22 19q2 1 2 3q0 7 -11 7h-12q-8 0 -8 8v16
q0 8 8 8h12z" />
</svg>
