<?xml version="1.0" standalone="no"?>
<!DOCTYPE svg PUBLIC "-//W3C//DTD SVG 1.1//EN" "http://www.w3.org/Graphics/SVG/1.1/DTD/svg11.dtd" >
<svg xmlns="http://www.w3.org/2000/svg" xmlns:xlink="http://www.w3.org/1999/xlink" version="1.1" viewBox="-10 0 468 512">
   <path fill="currentColor"
d="M192 224q13 0 22.5 9.5t9.5 22.5v46q0 12 -8 21l-82 93h50q10 0 17 7t7 17v48q0 10 -7 17t-17 7h-152q-13 0 -22.5 -9.5t-9.5 -22.5v-46q0 -12 8 -21l82 -93h-50q-10 0 -17 -7t-7 -17v-48q0 -10 7 -17t17 -7h152zM192 192q-13 0 -22.5 -9.5t-9.5 -22.5v-16q0 -13 9 -23
l58 -57h-43q-7 0 -11.5 -4.5t-4.5 -11.5v-32q0 -7 4.5 -11.5t11.5 -4.5h104q13 0 22.5 9.5t9.5 22.5v16q0 13 -9 23l-58 57h35q7 0 11.5 4.5t4.5 11.5v32q0 7 -4.5 11.5t-11.5 4.5h-96zM448 272q0 13 -9 23l-58 57h43q7 0 11.5 4.5t4.5 11.5v32q0 7 -4.5 11.5t-11.5 4.5
h-104q-13 0 -22.5 -9.5t-9.5 -22.5v-16q0 -13 9 -23l58 -57h-35q-7 0 -11.5 -4.5t-4.5 -11.5v-32q0 -7 4.5 -11.5t11.5 -4.5h96q13 0 22.5 9.5t9.5 22.5v16z" />
</svg>
