<?xml version="1.0" standalone="no"?>
<!DOCTYPE svg PUBLIC "-//W3C//DTD SVG 1.1//EN" "http://www.w3.org/Graphics/SVG/1.1/DTD/svg11.dtd" >
<svg xmlns="http://www.w3.org/2000/svg" xmlns:xlink="http://www.w3.org/1999/xlink" version="1.1" viewBox="-11 0 662 512">
   <path fill="currentColor"
d="M540 320q36 0 64 21.5t34 55.5q9 45 -20 80t-74 35q-23 0 -43 -10t-33.5 -27.5t-17.5 -39.5q-1 -5 1 -9.5t6 -7t9 -2.5h32q12 0 16 10q7 22 30 22q15 0 24.5 -11.5t7.5 -25.5q-2 -12 -12 -19.5t-22 -7.5h-233q-12 0 -15.5 -11.5t6.5 -17.5l44 -30q8 -5 18 -5h178z
M400 288q-7 0 -11.5 -4.5t-4.5 -11.5v-32q0 -7 4.5 -11.5t11.5 -4.5h142q12 0 22 -7.5t12 -19.5q2 -14 -7.5 -25.5t-24.5 -11.5q-23 0 -30 22q-4 10 -16 10h-32q-5 0 -9 -2.5t-6 -7t-1 -8.5q7 -39 40.5 -61.5t74.5 -14.5q27 6 47 26t26 47q9 46 -20 81.5t-74 35.5h-144z
M300 309q4 12 -8 15l-12 3q-12 3 -15 -8l-15 -56l-50 -29v57l40 40q9 9 0 17l-8 8q-9 9 -17 0l-15 -14v30q0 5 -3.5 8.5t-8.5 3.5h-24q-5 0 -8.5 -3.5t-3.5 -8.5v-30l-15 14q-8 9 -17 0l-8 -8q-9 -8 0 -17l40 -40v-57l-50 29l-15 56q-4 11 -15 8l-12 -3q-12 -3 -8 -15l5 -20
l-27 15q-10 6 -16 -4l-12 -21q-6 -11 4 -17l27 -15l-21 -6q-11 -3 -8 -15l3 -11q3 -12 15 -9l55 15l51 -29l-51 -29l-55 15q-12 3 -15 -9l-3 -11q-3 -12 8 -15l21 -6l-27 -15q-10 -6 -4 -17l12 -21q6 -10 16 -4l27 15l-6 -20q-3 -12 9 -15l12 -3q12 -3 15 8l15 56l50 29v-57
l-40 -40q-9 -9 0 -17l8 -8q9 -9 17 0l15 14v-30q0 -12 12 -12h24q12 0 12 12v30l15 -14q8 -9 17 0l8 8q9 8 0 17l-40 40v57l50 -29l15 -56q4 -11 15 -8l12 3q12 3 8 15l-5 20l27 -15q10 -6 16 4l12 21q6 11 -4 17l-27 15l21 6q11 3 8 15l-3 11q-3 12 -15 9l-55 -15l-51 29
l51 29l55 -15q12 -3 15 9l3 11q3 12 -8 15l-21 6l27 15q10 6 4 17l-12 21q-6 10 -16 4l-27 -15z" />
</svg>
