<?xml version="1.0" standalone="no"?>
<!DOCTYPE svg PUBLIC "-//W3C//DTD SVG 1.1//EN" "http://www.w3.org/Graphics/SVG/1.1/DTD/svg11.dtd" >
<svg xmlns="http://www.w3.org/2000/svg" xmlns:xlink="http://www.w3.org/1999/xlink" version="1.1" viewBox="-11 0 534 512">
   <path fill="currentColor"
d="M432 96q-20 0 -34 -14t-14 -34t14 -34t34 -14t34 14t14 34t-14 34t-34 14zM461 250l-84 -63l-66 30l52 39q25 19 18 49l-21 102q-4 15 -18 21l90 34q16 5 30 -2q9 -4 18.5 -0.5t13.5 12.5t0.5 18.5t-12.5 13.5q-17 8 -36 8q-15 0 -30 -5l-365 -133q-33 -12 -49 -45
q-4 -9 -0.5 -18t12.5 -13.5t18.5 -1t13.5 12.5q7 15 22 20l38 14q-6 -6 -8 -13q-5 -13 1 -24.5t19 -15.5l74 -25v-53q0 -40 35 -57l42 -21l-17 -6q-19 -6 -28 -24l-29 -58q-6 -11 -1.5 -24t16.5 -18.5t24.5 -1.5t18.5 16l26 52l63 21q25 8 46 24l111 83q11 8 13 21.5
t-6 23.5q-10 13 -26 13q-11 0 -19 -6zM316 301l-60 -45v20q0 16 -9 28.5t-24 17.5l-85 28q-2 1 -8 2l170 61q-5 -10 -3 -20z" />
</svg>
