<?xml version="1.0" standalone="no"?>
<!DOCTYPE svg PUBLIC "-//W3C//DTD SVG 1.1//EN" "http://www.w3.org/Graphics/SVG/1.1/DTD/svg11.dtd" >
<svg xmlns="http://www.w3.org/2000/svg" xmlns:xlink="http://www.w3.org/1999/xlink" version="1.1" viewBox="-10 0 532 512">
   <path fill="currentColor"
d="M511 152q2 6 -0.5 12t-8.5 9l-135 55q0 1 0.5 3.5t0.5 4.5v4q0 13 -4 29q33 34 41 79q9 46 -8.5 86.5t-54.5 65.5q-16 12 -37 12h-99q-18 0 -31 -8q-33 -21 -52 -54.5t-19 -73.5q0 -63 44 -107q-4 -16 -4 -29l1 -12l-135 -55q-4 -2 -6.5 -5.5t-3 -7.5t0.5 -8l6 -14
q3 -6 9 -8.5t12 -0.5l28 12v-29q0 -4 1.5 -6.5t3.5 -5t5 -3.5t6 -1h16q7 0 11.5 4.5t4.5 11.5v46v1v1l56 23q9 -15 22 -27q-22 -27 -22 -60q0 -40 28 -68t68 -28t68 28t28 68q0 34 -22 60q13 12 22 27l56 -23v-0.5v-1.5v-46q0 -7 4.5 -11.5t11.5 -4.5h16q7 0 11.5 4.5
t4.5 11.5v29l28 -12q6 -2 12.5 0.5t8.5 8.5zM224 96q7 0 11.5 -4.5t4.5 -11.5t-4.5 -11.5t-11.5 -4.5t-11.5 4.5t-4.5 11.5t4.5 11.5t11.5 4.5zM256 368q7 0 11.5 -4.5t4.5 -11.5t-4.5 -11.5t-11.5 -4.5t-11.5 4.5t-4.5 11.5t4.5 11.5t11.5 4.5zM256 304q7 0 11.5 -4.5
t4.5 -11.5t-4.5 -11.5t-11.5 -4.5t-11.5 4.5t-4.5 11.5t4.5 11.5t11.5 4.5zM256 240q7 0 11.5 -4.5t4.5 -11.5t-4.5 -11.5t-11.5 -4.5t-11.5 4.5t-4.5 11.5t4.5 11.5t11.5 4.5zM256 152q16 -23 16 -32q0 -7 -4.5 -11.5t-11.5 -4.5t-11.5 4.5t-4.5 11.5q0 4 4 12t8 14z
M288 96q7 0 11.5 -4.5t4.5 -11.5t-4.5 -11.5t-11.5 -4.5t-11.5 4.5t-4.5 11.5t4.5 11.5t11.5 4.5z" />
</svg>
