<?xml version="1.0" standalone="no"?>
<!DOCTYPE svg PUBLIC "-//W3C//DTD SVG 1.1//EN" "http://www.w3.org/Graphics/SVG/1.1/DTD/svg11.dtd" >
<svg xmlns="http://www.w3.org/2000/svg" xmlns:xlink="http://www.w3.org/1999/xlink" version="1.1" viewBox="-11 0 470 512">
   <path fill="currentColor"
d="M440 345q6 3 7.5 9.5t-1.5 11.5l-16 27q-7 13 -21 6l-33 -20l6 26q2 6 -1 11.5t-9 7.5l-15 4q-6 2 -12 -1.5t-7 -9.5l-19 -71l-63 -36v78l53 53q5 5 5 11.5t-5 11.5l-11 11q-5 5 -11.5 5t-10.5 -5l-20 -19v40q0 7 -5 11.5t-11 4.5h-32q-7 0 -11.5 -4.5t-4.5 -11.5v-40
l-20 19q-5 5 -11.5 5t-10.5 -5l-12 -11q-5 -5 -5 -11.5t5 -10.5l54 -54v-78l-63 36l-19 71q-2 6 -7.5 9.5t-11.5 1.5l-15 -4q-6 -1 -9 -7t-2 -12l7 -26l-33 20q-14 7 -21 -6l-16 -27q-8 -13 6 -21l34 -19l-26 -7q-7 -2 -10 -7.5t-1 -11.5l4 -15q1 -6 6.5 -9.5t12.5 -1.5
l70 19l64 -37l-64 -37l-70 19q-7 2 -12.5 -1.5t-6.5 -9.5l-4 -15q-2 -6 1 -11.5t10 -7.5l26 -7l-34 -19q-14 -8 -6 -21l16 -27q7 -13 21 -6l33 20l-6 -26q-2 -4 -0.5 -8t4 -7t6.5 -4l15 -4q4 -1 8 0t7 4t4 7l19 71l63 36v-78l-54 -53q-4 -5 -4 -11.5t4 -11.5l12 -11
q11 -12 22 0l20 19v-40q0 -7 4.5 -11.5t11.5 -4.5h32q7 0 11.5 4.5t4.5 11.5v40l20 -19q4 -5 11 -5t11 5l12 11q4 5 4 11.5t-4 11.5l-54 53v78l63 -36l19 -71q1 -6 7 -9.5t12 -1.5l15 4q6 2 9 7.5t1 11.5l-6 26l33 -20q14 -7 21 6l16 27q7 13 -6 21l-34 19l26 7q7 2 10 7.5
t1 11.5l-4 15q-1 6 -6.5 9.5t-12.5 1.5l-70 -19l-64 37l64 37l70 -19q7 -2 12.5 1.5t6.5 9.5l4 15q2 6 -1 11.5t-10 7.5l-26 7z" />
</svg>
