<?xml version="1.0" standalone="no"?>
<!DOCTYPE svg PUBLIC "-//W3C//DTD SVG 1.1//EN" "http://www.w3.org/Graphics/SVG/1.1/DTD/svg11.dtd" >
<svg xmlns="http://www.w3.org/2000/svg" xmlns:xlink="http://www.w3.org/1999/xlink" version="1.1" viewBox="-10 0 660 512">
   <path fill="currentColor"
d="M120 376q10 0 17 7t7 17t-7 17t-17 7t-17 -7t-7 -17t7 -17t17 -7zM200 376q10 0 17 7t7 17t-7 17t-17 7t-17 -7t-7 -17t7 -17t17 -7zM280 376q10 0 17 7t7 17t-7 17t-17 7t-17 -7t-7 -17t7 -17t17 -7zM360 376q10 0 17 7t7 17t-7 17t-17 7t-17 -7t-7 -17t7 -17t17 -7z
M599 425l36 37q5 5 5 11.5t-5 11.5l-22 22q-5 5 -11.5 5t-11.5 -5l-37 -36q-41 -42 -41 -100v-19h-43q11 23 11 48q0 46 -33 79t-79 33h-256q-46 0 -79 -33t-33 -79q0 -22 8 -42t22.5 -35t33.5 -24v-91q0 -20 14 -34t34 -14h16v-112q0 -20 14 -34t34 -14h144q32 0 44 29
l79 183q5 12 5 25v51h64v-19q0 -58 41 -100l37 -36q5 -5 11.5 -5t11.5 5l22 22q5 5 5 11.5t-5 11.5l-36 37q-23 22 -23 54v102q0 32 23 54zM192 64v96l64 64h122l-68 -160h-118zM368 448q20 0 34 -14t14 -34t-14 -34t-34 -14h-256q-20 0 -34 14t-14 34t14 34t34 14h256z" />
</svg>
