<?xml version="1.0" standalone="no"?>
<!DOCTYPE svg PUBLIC "-//W3C//DTD SVG 1.1//EN" "http://www.w3.org/Graphics/SVG/1.1/DTD/svg11.dtd" >
<svg xmlns="http://www.w3.org/2000/svg" xmlns:xlink="http://www.w3.org/1999/xlink" version="1.1" viewBox="-10 0 661 512">
   <path fill="currentColor"
d="M637 446q9 13 -3 23l-34 25q-24 18 -53 18h-115q-7 0 -11.5 -4.5t-4.5 -11.5v-16q0 -7 4.5 -11.5t11.5 -4.5h54l-36 -48h-386q-18 0 -27.5 -15t-1.5 -31l32 -64q9 -18 29 -18h31q-12 -11 -17 -26q-8 -25 4 -49l30 -60q14 -29 46.5 -34t55.5 18l55 55h59l13 -18l-35 -71
q-3 -6 -1 -12t8 -9q14 -7 21 7l42 83l159 80q9 4 9 14v78q0 8 -7 13l-69 46l46 61h1q13 0 24 -8l34 -26q13 -9 22 4zM288 288l24 -32h-11q-26 0 -45 -19l-34 -34l-25 51l67 34h24zM240 96q-20 0 -34 -14t-14 -34t14 -34t34 -14t34 14t14 34t-14 34t-34 14zM288 448
q13 0 22.5 9.5t9.5 22.5t-9.5 22.5t-22.5 9.5h-256q-13 0 -22.5 -9.5t-9.5 -22.5t9.5 -22.5t22.5 -9.5h256z" />
</svg>
