<?xml version="1.0" standalone="no"?>
<!DOCTYPE svg PUBLIC "-//W3C//DTD SVG 1.1//EN" "http://www.w3.org/Graphics/SVG/1.1/DTD/svg11.dtd" >
<svg xmlns="http://www.w3.org/2000/svg" xmlns:xlink="http://www.w3.org/1999/xlink" version="1.1" viewBox="-10 0 660 512">
   <path fill="currentColor"
d="M432 448q7 0 11.5 4.5t4.5 11.5v32q0 6 -4.5 11t-11.5 5h-224q-7 0 -11.5 -4.5t-4.5 -11.5v-32q0 -4 2 -7.5t6 -6t8 -2.5h48v-32h128v32h48zM585 27q55 323 55 325q0 9 -4.5 16t-12 11.5t-16.5 4.5h-574q-14 0 -23.5 -9.5t-9.5 -22.5q0 -3 55 -325q1 -8 5.5 -14
t11.5 -9.5t15 -3.5h466q12 0 21 7.5t11 19.5zM260 64l-10 96h140l-10 -96h-120zM185 320l11 -112h-106l-19 112h114zM201 160l10 -96h-96l-17 96h103zM234 320h172l-11 -112h-150zM429 64l10 96h103l-17 -96h-96zM455 320h114l-19 -112h-106z" />
</svg>
