<?xml version="1.0" standalone="no"?>
<!DOCTYPE svg PUBLIC "-//W3C//DTD SVG 1.1//EN" "http://www.w3.org/Graphics/SVG/1.1/DTD/svg11.dtd" >
<svg xmlns="http://www.w3.org/2000/svg" xmlns:xlink="http://www.w3.org/1999/xlink" version="1.1" viewBox="-11 0 459 512">
   <path fill="currentColor"
d="M330 259q40 -11 71 13.5t31 63.5v11q0 35 -9.5 60t-28 42t-48.5 30q-6 2 -12.5 -1t-8.5 -9l-10 -20q-5 -15 8 -20q12 -5 21 -13q-36 -4 -57.5 -34.5t-11.5 -68.5q5 -18 21.5 -33.5t33.5 -20.5zM352 356q8 0 14 -6t6 -14t-6 -14t-14 -6t-14 6t-6 14t6 14t14 6zM304 96
q-7 0 -11.5 -4.5t-4.5 -11.5q0 -4 2 -7l16 -32q4 -9 14 -9h48q7 0 11.5 4.5t4.5 11.5v112h16q7 0 11.5 4.5t4.5 11.5v32q0 7 -4.5 11.5t-11.5 4.5h-96q-7 0 -11.5 -4.5t-4.5 -11.5v-32q0 -7 4.5 -11.5t11.5 -4.5h16v-64h-16zM107 37l80 96q8 7 4 17t-15 10h-48v304
q0 7 -4.5 11.5t-11.5 4.5h-32q-7 0 -11.5 -4.5t-4.5 -11.5v-304h-48q-11 0 -15 -10t4 -17l80 -96q4 -5 11 -5t11 5z" />
</svg>
