<?xml version="1.0" standalone="no"?>
<!DOCTYPE svg PUBLIC "-//W3C//DTD SVG 1.1//EN" "http://www.w3.org/Graphics/SVG/1.1/DTD/svg11.dtd" >
<svg xmlns="http://www.w3.org/2000/svg" xmlns:xlink="http://www.w3.org/1999/xlink" version="1.1" viewBox="-11 0 459 512">
   <path fill="currentColor"
d="M176 352q11 0 15 10t-4 17l-80 96q-4 5 -11 5t-11 -5l-80 -96q-8 -7 -4 -17t15 -10h48v-304q0 -7 4.5 -11.5t11.5 -4.5h32q7 0 11.5 4.5t4.5 11.5v304h48zM400 416q7 0 11.5 4.5t4.5 11.5v32q0 7 -4.5 11.5t-11.5 4.5h-96q-7 0 -11.5 -4.5t-4.5 -11.5v-32q0 -7 4.5 -11.5
t11.5 -4.5h16v-64h-16q-7 0 -11.5 -4.5t-4.5 -11.5q0 -4 2 -7l16 -32q4 -9 14 -9h48q7 0 11.5 4.5t4.5 11.5v112h16zM330 35q40 -11 71 13.5t31 63.5v11q0 51 -21 82t-65 50q-6 2 -12.5 -1t-8.5 -9l-10 -20q-5 -15 8 -20q12 -5 21 -13q-36 -4 -57.5 -34.5t-11.5 -68.5
q5 -18 21.5 -33.5t33.5 -20.5zM352 132q8 0 14 -6t6 -14t-6 -14t-14 -6t-14 6t-6 14t6 14t14 6z" />
</svg>
