<?xml version="1.0" standalone="no"?>
<!DOCTYPE svg PUBLIC "-//W3C//DTD SVG 1.1//EN" "http://www.w3.org/Graphics/SVG/1.1/DTD/svg11.dtd" >
<svg xmlns="http://www.w3.org/2000/svg" xmlns:xlink="http://www.w3.org/1999/xlink" version="1.1" viewBox="-11 0 533 512">
   <path fill="currentColor"
d="M428 320q8 0 14 6t6 14v120q0 8 -6 14t-14 6h-152q-8 0 -14 -6t-6 -14v-120q0 -8 6 -14t14 -6h152zM176 352q11 0 15 10t-4 17l-80 96q-4 5 -11 5t-11 -5l-80 -96q-8 -7 -4 -17t15 -10h48v-304q0 -7 4.5 -11.5t11.5 -4.5h32q7 0 11.5 4.5t4.5 11.5v304h48zM484 32
q12 0 20 8t8 20v168q0 12 -8 20t-20 8h-200q-12 0 -20 -8t-8 -20v-168q0 -12 8 -20t20 -8h200z" />
</svg>
