<?xml version="1.0" standalone="no"?>
<!DOCTYPE svg PUBLIC "-//W3C//DTD SVG 1.1//EN" "http://www.w3.org/Graphics/SVG/1.1/DTD/svg11.dtd" >
<svg xmlns="http://www.w3.org/2000/svg" xmlns:xlink="http://www.w3.org/1999/xlink" version="1.1" viewBox="-11 0 469 512">
   <path fill="currentColor"
d="M176 352q11 0 15 10t-4 17l-80 96q-4 5 -11 5t-11 -5l-80 -96q-8 -7 -4 -17t15 -10h48v-304q0 -7 4.5 -11.5t11.5 -4.5h32q7 0 11.5 4.5t4.5 11.5v304h48zM444 439q8 14 0 27.5t-25 13.5h-166q-17 0 -25 -13.5t0 -27.5l83 -137q8 -14 25 -14t25 14zM264 224q-10 0 -17 -7
t-7 -17v-144q0 -10 7 -17t17 -7h144q10 0 17 7t7 17v144q0 10 -7 17t-17 7h-144z" />
</svg>
