<?xml version="1.0" standalone="no"?>
<!DOCTYPE svg PUBLIC "-//W3C//DTD SVG 1.1//EN" "http://www.w3.org/Graphics/SVG/1.1/DTD/svg11.dtd" >
<svg xmlns="http://www.w3.org/2000/svg" xmlns:xlink="http://www.w3.org/1999/xlink" version="1.1" viewBox="-11 0 533 512">
   <path fill="currentColor"
d="M107 37l80 96q8 7 4 17t-15 10h-48v304q0 7 -4.5 11.5t-11.5 4.5h-32q-7 0 -11.5 -4.5t-4.5 -11.5v-304h-48q-11 0 -15 -10t4 -17l80 -96q4 -5 11 -5t11 5zM484 32q12 0 20 8t8 20v168q0 12 -8 20t-20 8h-200q-12 0 -20 -8t-8 -20v-168q0 -12 8 -20t20 -8h200zM428 320
q8 0 14 6t6 14v120q0 8 -6 14t-14 6h-152q-8 0 -14 -6t-6 -14v-120q0 -8 6 -14t14 -6h152z" />
</svg>
