<?xml version="1.0" standalone="no"?>
<!DOCTYPE svg PUBLIC "-//W3C//DTD SVG 1.1//EN" "http://www.w3.org/Graphics/SVG/1.1/DTD/svg11.dtd" >
<svg xmlns="http://www.w3.org/2000/svg" xmlns:xlink="http://www.w3.org/1999/xlink" version="1.1" viewBox="-10 0 660 512">
   <path fill="currentColor"
d="M593 208q47 22 47 48t-47 48q-52 24 -121 24h-286q-7 10 -16 16h206q-40 8 -73 25.5t-54.5 35.5t-42.5 35.5t-48.5 28.5t-61.5 11v-128h-16v128q-20 0 -34 -18.5t-14 -45.5v-64q-32 0 -32 -24v-40q0 -24 32 -24v-16q-32 0 -32 -24v-40q0 -24 32 -24v-64q0 -27 14 -45.5
t34 -18.5v128h16v-128q34 0 61.5 11t48.5 28.5t42.5 35.5t54.5 35.5t73 25.5h-206q9 6 16 16h286q69 0 121 24zM488 296q15 0 21 -20t0 -40t-21 -20q-8 0 -8 8v64q0 8 8 8z" />
</svg>
