<?xml version="1.0" standalone="no"?>
<!DOCTYPE svg PUBLIC "-//W3C//DTD SVG 1.1//EN" "http://www.w3.org/Graphics/SVG/1.1/DTD/svg11.dtd" >
<svg xmlns="http://www.w3.org/2000/svg" xmlns:xlink="http://www.w3.org/1999/xlink" version="1.1" viewBox="-10 0 532 512">
   <path fill="currentColor"
d="M272 7q176 167 208 202t32 83q0 51 -35 87t-85 37q-57 1 -96 -41q0 32 8.5 46t44.5 30q10 4 15.5 14t3.5 21q-3 11 -12 18.5t-20 7.5h-160q-11 0 -20 -7t-11 -18q-2 -7 0 -14.5t7 -13t12 -9.5q25 -11 36.5 -22t13.5 -21t2 -32q-37 41 -92 41q-52 0 -88 -37t-36 -89
q0 -46 32 -81q29 -32 207 -202q7 -7 17 -7t16 7z" />
</svg>
