<?xml version="1.0" standalone="no"?>
<!DOCTYPE svg PUBLIC "-//W3C//DTD SVG 1.1//EN" "http://www.w3.org/Graphics/SVG/1.1/DTD/svg11.dtd" >
<svg xmlns="http://www.w3.org/2000/svg" xmlns:xlink="http://www.w3.org/1999/xlink" version="1.1" viewBox="-11 0 660 512">
   <path fill="currentColor"
d="M591 0q20 0 34 14t14 34v416q0 20 -14 34t-34 14h-256q-20 0 -34 -14t-14 -34v-416q0 -20 14 -34t34 -14h256zM463 64q-20 0 -34 14t-14 34t14 34t34 14t34 -14t14 -34t-14 -34t-34 -14zM463 448q46 0 79 -33t33 -79t-33 -79t-79 -33t-79 33t-33 79t33 79t79 33zM463 272
q26 0 45 19t19 45t-19 45t-45 19t-45 -19t-19 -45t19 -45t45 -19zM255 48v210q-9 -9 -23 -17t-29 -12.5t-28 -4.5q-47 0 -79.5 33t-32.5 79t32.5 79t79.5 33q19 0 42.5 -10t37.5 -24v50q0 27 16 48h-224q-20 0 -34 -14t-14 -34v-416q0 -20 14 -34t34 -14h224q-16 21 -16 48z
M175 160q20 0 34 -14t14 -34t-14 -34t-34 -14t-34 14t-14 34t14 34t34 14zM111 336q0 -26 19 -45t45 -19t45 19t19 45t-19 45t-45 19t-45 -19t-19 -45z" />
</svg>
