<?xml version="1.0" standalone="no"?>
<!DOCTYPE svg PUBLIC "-//W3C//DTD SVG 1.1//EN" "http://www.w3.org/Graphics/SVG/1.1/DTD/svg11.dtd" >
<svg xmlns="http://www.w3.org/2000/svg" xmlns:xlink="http://www.w3.org/1999/xlink" version="1.1" viewBox="-11 0 598 512">
   <path fill="currentColor"
d="M382 26q-2 -6 1 -12t9 -8l16 -5q6 -2 12 1t8 9l26 78q1 5 1 10q0 7 -3 14l-27 54l-26 9h-5l-5 -26q-1 -6 -3 -12l20 -40zM151 167l-27 -54q-3 -7 -3 -14q0 -5 1 -10l26 -78q2 -6 8 -9t12 -1l16 5q6 2 9 8t1 12l-24 72l20 40q-2 6 -3 12l-5 26h-5zM569 372l-13 8
q-14 9 -23 -4l-48 -72h-47l61 97q5 8 5 17v78q0 7 -4.5 11.5t-11.5 4.5h-16q-7 0 -11.5 -4.5t-4.5 -11.5v-73l-74 -119q2 29 2 43q0 40 -27.5 70.5t-68.5 30.5t-68.5 -30.5t-27.5 -70.5q0 -13 2 -43l-74 119v73q0 7 -4.5 11.5t-11.5 4.5h-16q-7 0 -11.5 -4.5t-4.5 -11.5v-78
q0 -9 5 -17l61 -97h-47l-48 72q-9 13 -23 4l-13 -8q-13 -9 -4 -23l52 -79q10 -14 27 -14h78l-69 -24q-10 -4 -17 -13l-53 -80q-9 -14 4 -23l14 -8q13 -9 22 4l50 76l61 20h36l10 -52q2 -6 5.5 -14t11 -19.5t21.5 -19t32 -7.5t32 7.5t21.5 19t11 19.5t5.5 14l10 52h36l61 -20
l50 -76q9 -13 22 -4l14 8q13 9 4 23l-53 80q-7 9 -17 13l-69 24h78q17 0 27 14l52 79q9 14 -4 23zM300 320l26 -35q3 -4 1 -8.5t-7 -4.5h-64q-5 0 -7 4.5t1 8.5l26 35l-26 35q-3 4 -1 8.5t7 4.5h64q5 0 7 -4.5t-1 -8.5z" />
</svg>
