<?xml version="1.0" standalone="no"?>
<!DOCTYPE svg PUBLIC "-//W3C//DTD SVG 1.1//EN" "http://www.w3.org/Graphics/SVG/1.1/DTD/svg11.dtd" >
<svg xmlns="http://www.w3.org/2000/svg" xmlns:xlink="http://www.w3.org/1999/xlink" version="1.1" viewBox="-10 0 596 512">
   <path fill="currentColor"
d="M567 234q9 9 9 22t-9 22q-86 90 -120 211q-4 12 -15 18.5t-23 3.5q-60 -15 -121 -15t-121 15q-12 3 -23 -3.5t-15 -18.5q-34 -121 -120 -211q-9 -9 -9 -22t9 -22q86 -90 120 -211q4 -12 15 -18.5t23 -3.5q60 15 121 15t121 -15q12 -3 23 3.5t15 18.5q34 121 120 211z
M366 74q-39 5 -78 5t-78 -5l24 40q27 6 54 6t54 -6zM288 208l23 -41q-11 1 -23 1t-23 -1zM302 232zM288 304l-23 41q13 -1 23 -1t23 1zM223 191q-10 22 -23 41h46zM170 413l22 -39q-17 -53 -54 -94h-45q20 25 42.5 64t34.5 69zM138 232q16 -17 31.5 -44.5t22.5 -49.5
l-22 -39q-12 30 -34.5 69t-42.5 64h45zM246 280h-46q13 19 23 41zM288 432q34 0 78 6l-24 -40q-54 -12 -108 0l-24 40q44 -6 78 -6zM353 321q10 -22 23 -41h-46zM330 232h46q-13 -19 -23 -41zM406 413q12 -30 34.5 -69t42.5 -64h-45q-37 41 -54 94zM438 232h45
q-20 -25 -42.5 -64t-34.5 -69l-22 39q7 22 22.5 49.5t31.5 44.5z" />
</svg>
