<?xml version="1.0" standalone="no"?>
<!DOCTYPE svg PUBLIC "-//W3C//DTD SVG 1.1//EN" "http://www.w3.org/Graphics/SVG/1.1/DTD/svg11.dtd" >
<svg xmlns="http://www.w3.org/2000/svg" xmlns:xlink="http://www.w3.org/1999/xlink" version="1.1" viewBox="-10 0 532 512">
   <path fill="currentColor"
d="M304 48q0 20 -14 34t-34 14t-34 -14t-14 -34t14 -34t34 -14t34 14t14 34zM256 416q20 0 34 14t14 34t-14 34t-34 14t-34 -14t-14 -34t14 -34t34 -14zM464 208q20 0 34 14t14 34t-14 34t-34 14t-34 -14t-14 -34t14 -34t34 -14zM96 256q0 20 -14 34t-34 14t-34 -14t-14 -34
t14 -34t34 -14t34 14t14 34zM109 355q20 0 34 14t14 34t-14 34t-34 14t-34 -14t-14 -34t14 -34t34 -14zM403 355q20 0 34 14t14 34t-14 34t-34 14t-34 -14t-14 -34t14 -34t34 -14zM109 61q20 0 34 14t14 34t-14 34t-34 14t-34 -14t-14 -34t14 -34t34 -14z" />
</svg>
