<?xml version="1.0" standalone="no"?>
<!DOCTYPE svg PUBLIC "-//W3C//DTD SVG 1.1//EN" "http://www.w3.org/Graphics/SVG/1.1/DTD/svg11.dtd" >
<svg xmlns="http://www.w3.org/2000/svg" xmlns:xlink="http://www.w3.org/1999/xlink" version="1.1" viewBox="-11 0 534 512">
   <path fill="currentColor"
d="M472 196q37 12 40 45.5t-31 51.5l-62 31q-28 15 -30 43l-5 62q-3 34 -39 47t-66 -10l-54 -40q-25 -19 -57 -12l-70 15q-38 9 -63.5 -17t-9.5 -57l28 -57q13 -26 -5 -50l-38 -52q-21 -29 -0.5 -57.5t59.5 -25.5l72 6q33 2 54 -20l46 -47q25 -26 63 -18.5t47 40.5l16 61
q7 27 38 38z" />
</svg>
