<?xml version="1.0" standalone="no"?>
<!DOCTYPE svg PUBLIC "-//W3C//DTD SVG 1.1//EN" "http://www.w3.org/Graphics/SVG/1.1/DTD/svg11.dtd" >
<svg xmlns="http://www.w3.org/2000/svg" xmlns:xlink="http://www.w3.org/1999/xlink" version="1.1" viewBox="-11 0 558 512">
   <path fill="currentColor"
d="M509 172q19 2 25.5 21t-8.5 33l-106 103l25 146q3 15 -7 26t-24 11q-8 0 -15 -4l-131 -68l-131 68q-7 4 -15 4q-14 0 -24 -11t-7 -26l25 -146l-106 -103q-15 -14 -8.5 -33t25.5 -22l147 -21l65 -132q9 -18 29 -18t29 18l65 132zM387 295l82 -81l-114 -16l-25 -4l-11 -23
l-51 -103v317l22 12l102 54l-19 -114l-4 -25z" />
</svg>
