<?xml version="1.0" standalone="no"?>
<!DOCTYPE svg PUBLIC "-//W3C//DTD SVG 1.1//EN" "http://www.w3.org/Graphics/SVG/1.1/DTD/svg11.dtd" >
<svg xmlns="http://www.w3.org/2000/svg" xmlns:xlink="http://www.w3.org/1999/xlink" version="1.1" viewBox="-10 0 596 512">
   <path fill="currentColor"
d="M369 96q35 0 74 44q33 38 36.5 91t-25.5 86q-81 92 -212 98q-85 3 -128 -28q-35 -26 1 -51q8 -5 18 -10q41 -18 73.5 -40.5t49 -39.5t29 -39.5t15 -30t6.5 -20.5q8 -27 25 -43.5t38 -16.5zM384 256q13 0 22.5 -9.5t9.5 -22.5t-9.5 -22.5t-22.5 -9.5t-22.5 9.5t-9.5 22.5
t9.5 22.5t22.5 9.5zM515 77q57 65 60.5 154t-49.5 149q-110 125 -270 132q-46 1 -90 -7t-82 -26t-61 -51t-23 -76q0 -39 17.5 -63t44.5 -36.5t55.5 -24t56 -36t40.5 -63.5q17 -58 59.5 -93.5t95.5 -35.5q79 0 146 77zM478 338q37 -42 33.5 -107t-44.5 -112q-48 -55 -98 -55
q-32 0 -57 22.5t-36 60.5q-16 55 -55 89t-101 61q-27 12 -41 27t-15.5 27t3.5 24.5t8.5 17.5t6.5 8q27 27 79.5 37.5t92.5 9.5q132 -5 224 -110z" />
</svg>
