<?xml version="1.0" standalone="no"?>
<!DOCTYPE svg PUBLIC "-//W3C//DTD SVG 1.1//EN" "http://www.w3.org/Graphics/SVG/1.1/DTD/svg11.dtd" >
<svg xmlns="http://www.w3.org/2000/svg" xmlns:xlink="http://www.w3.org/1999/xlink" version="1.1" viewBox="-10 0 532 512">
   <path fill="currentColor"
d="M447 112q18 0 33 8.5t23.5 23t8.5 32.5q0 37 -32 55v113q0 69 -51.5 118.5t-124.5 49.5q-71 0 -122.5 -47.5t-53.5 -115.5q-55 -11 -91.5 -55.5t-36.5 -101.5v-155q0 -9 5.5 -15.5t13.5 -8.5l63 -12q10 -2 18 3.5t10 14.5l3 16q2 10 -3.5 18t-14.5 10l-31 6v123
q0 40 28.5 68t68.5 28q39 0 67 -29t28 -68v-122l-31 -6q-10 -2 -15.5 -10t-3.5 -18l4 -16q1 -6 5 -11t10 -7t13 -1l63 13q8 2 13.5 8.5t5.5 15.5v155q0 57 -36.5 101t-91.5 56q2 27 17 50t40.5 36t54.5 13q46 0 79 -30.5t33 -73.5v-113q-33 -18 -32 -56q1 -26 19 -44.5
t44 -18.5zM448 192q7 0 11.5 -4.5t4.5 -11.5t-4.5 -11.5t-11.5 -4.5t-11.5 4.5t-4.5 11.5t4.5 11.5t11.5 4.5z" />
</svg>
