<?xml version="1.0" standalone="no"?>
<!DOCTYPE svg PUBLIC "-//W3C//DTD SVG 1.1//EN" "http://www.w3.org/Graphics/SVG/1.1/DTD/svg11.dtd" >
<svg xmlns="http://www.w3.org/2000/svg" xmlns:xlink="http://www.w3.org/1999/xlink" version="1.1" viewBox="-11 0 405 512">
   <path fill="currentColor"
d="M368 0q7 0 11.5 4.5t4.5 11.5v64q0 7 -4.5 11.5t-11.5 4.5h-288q-7 0 -11.5 -4.5t-4.5 -11.5v-64q0 -7 4.5 -11.5t11.5 -4.5h288zM96 252v-124h256v175q0 27 -8.5 51.5t-24.5 45.5t-38 36l-82 54q-32 22 -71 22q-32 0 -60 -15t-46 -42q-30 -44 -19.5 -96t54.5 -81z" />
</svg>
