<?xml version="1.0" standalone="no"?>
<!DOCTYPE svg PUBLIC "-//W3C//DTD SVG 1.1//EN" "http://www.w3.org/Graphics/SVG/1.1/DTD/svg11.dtd" >
<svg xmlns="http://www.w3.org/2000/svg" xmlns:xlink="http://www.w3.org/1999/xlink" version="1.1" viewBox="-11 0 662 512">
   <path fill="currentColor"
d="M320 384v-160h64v256q0 13 -9.5 22.5t-22.5 9.5h-256q-13 0 -22.5 -9.5t-9.5 -22.5v-256h64v160h192zM635 142q10 16 1 33t-28 17h-576q-19 0 -28 -17t2 -33l85 -128q9 -14 26 -14h406q17 0 26 14zM512 496v-272h64v272q0 7 -4.5 11.5t-11.5 4.5h-32q-7 0 -11.5 -4.5
t-4.5 -11.5z" />
</svg>
