<?xml version="1.0" standalone="no"?>
<!DOCTYPE svg PUBLIC "-//W3C//DTD SVG 1.1//EN" "http://www.w3.org/Graphics/SVG/1.1/DTD/svg11.dtd" >
<svg xmlns="http://www.w3.org/2000/svg" xmlns:xlink="http://www.w3.org/1999/xlink" version="1.1" viewBox="-10 0 532 512">
   <path fill="currentColor"
d="M368 330q65 12 104.5 35t39.5 51q0 40 -75 68t-181 28t-181 -28t-75 -68q0 -28 39.5 -51t104.5 -35q8 9 16 13v23q-33 5 -58.5 12.5t-39.5 17t-14 20.5q0 23 61 39.5t147 16.5t147 -16.5t61 -39.5q0 -16 -30.5 -29.5t-81.5 -20.5v-23q8 -4 16 -13zM256 128
q-27 0 -45.5 -18.5t-18.5 -45.5t18.5 -45.5t45.5 -18.5t45.5 18.5t18.5 45.5t-18.5 45.5t-45.5 18.5zM192 320q-13 0 -22.5 -9.5t-9.5 -22.5v-96q0 -20 14 -34t34 -14h12q17 8 36 8t36 -8h12q20 0 34 14t14 34v96q0 13 -9.5 22.5t-22.5 9.5v96q0 13 -9.5 22.5t-22.5 9.5h-64
q-13 0 -22.5 -9.5t-9.5 -22.5v-96z" />
</svg>
