<?xml version="1.0" standalone="no"?>
<!DOCTYPE svg PUBLIC "-//W3C//DTD SVG 1.1//EN" "http://www.w3.org/Graphics/SVG/1.1/DTD/svg11.dtd" >
<svg xmlns="http://www.w3.org/2000/svg" xmlns:xlink="http://www.w3.org/1999/xlink" version="1.1" viewBox="-10 0 660 512">
   <path fill="currentColor"
d="M608 128q13 0 22.5 9.5t9.5 22.5v32q0 13 -9.5 22.5t-22.5 9.5h-430q-12 0 -26 -6.5t-22 -14.5l-122 -128q-8 -10 -8 -22q0 -14 11 -24l24 -21q9 -8 21 -8q14 0 24 11l112 117h416zM516 395q11 8 19.5 23.5t8.5 29.5q0 27 -18.5 45.5t-45 18.5t-45.5 -18.5t-19 -45.5
q0 -6 1 -12l-49 -43l-49 43q1 6 1 12q0 27 -19 45.5t-45.5 18.5t-45 -18.5t-18.5 -45.5q0 -19 11 -36q7 -10 17 -17q16 -11 35 -11q11 0 21 4l43 -38l-107 -94h97l59 51l59 -51h97l-107 94l43 38q10 -4 21 -4q19 0 35 11zM256 464q7 0 11.5 -4.5t4.5 -11.5t-4.5 -11.5
t-11.5 -4.5t-11.5 4.5t-4.5 11.5t4.5 11.5t11.5 4.5zM480 464q7 0 11.5 -4.5t4.5 -11.5t-4.5 -11.5t-11.5 -4.5t-11.5 4.5t-4.5 11.5t4.5 11.5t11.5 4.5z" />
</svg>
