<?xml version="1.0" standalone="no"?>
<!DOCTYPE svg PUBLIC "-//W3C//DTD SVG 1.1//EN" "http://www.w3.org/Graphics/SVG/1.1/DTD/svg11.dtd" >
<svg xmlns="http://www.w3.org/2000/svg" xmlns:xlink="http://www.w3.org/1999/xlink" version="1.1" viewBox="-10 0 532 512">
   <path fill="currentColor"
d="M496 448q7 0 11.5 4.5t4.5 11.5v32q0 7 -4.5 11.5t-11.5 4.5h-96q-7 0 -11.5 -4.5t-4.5 -11.5v-32q0 -7 4.5 -11.5t11.5 -4.5h16v-96h-16q-7 0 -11.5 -4.5t-4.5 -11.5q0 -4 2 -7l16 -32q4 -9 14 -9h48q7 0 11.5 4.5t4.5 11.5v144h16zM336 64q7 0 11.5 4.5t4.5 11.5v48
q0 7 -4.5 11.5t-11.5 4.5h-33l-78 112l78 112h33q7 0 11.5 4.5t4.5 11.5v48q0 7 -4.5 11.5t-11.5 4.5h-67q-8 0 -13 -7l-80 -115l-80 115q-5 7 -13 7h-67q-7 0 -11.5 -4.5t-4.5 -11.5v-48q0 -7 4.5 -11.5t11.5 -4.5h33l78 -112l-78 -112h-33q-7 0 -11.5 -4.5t-4.5 -11.5v-48
q0 -7 4.5 -11.5t11.5 -4.5h67q8 0 13 7l80 115l80 -115q5 -7 13 -7h67z" />
</svg>
