<?xml version="1.0" standalone="no"?>
<!DOCTYPE svg PUBLIC "-//W3C//DTD SVG 1.1//EN" "http://www.w3.org/Graphics/SVG/1.1/DTD/svg11.dtd" >
<svg xmlns="http://www.w3.org/2000/svg" xmlns:xlink="http://www.w3.org/1999/xlink" version="1.1" viewBox="-10 0 404 512">
   <path fill="currentColor"
d="M336 160q20 0 34 14t14 34v224q0 20 -14 34t-34 14h-16v16q0 7 -4.5 11.5t-11.5 4.5h-32q-7 0 -11.5 -4.5t-4.5 -11.5v-16h-128v16q0 7 -4.5 11.5t-11.5 4.5h-32q-7 0 -11.5 -4.5t-4.5 -11.5v-16h-16q-20 0 -34 -14t-14 -34v-224q0 -20 14 -34t34 -14h288zM320 376v-16
q0 -8 -8 -8h-240q-8 0 -8 8v16q0 8 8 8h240q8 0 8 -8zM320 280v-16q0 -8 -8 -8h-240q-8 0 -8 8v16q0 8 8 8h240q8 0 8 -8zM144 48v80h-48v-80q0 -20 14 -34t34 -14h96q20 0 34 14t14 34v80h-48v-80h-96z" />
</svg>
