<?xml version="1.0" standalone="no"?>
<!DOCTYPE svg PUBLIC "-//W3C//DTD SVG 1.1//EN" "http://www.w3.org/Graphics/SVG/1.1/DTD/svg11.dtd" >
<svg xmlns="http://www.w3.org/2000/svg" xmlns:xlink="http://www.w3.org/1999/xlink" version="1.1" viewBox="-10 0 660 512">
   <path fill="currentColor"
d="M194 240h-119l93 -47l-33 -100q-2 -7 0.5 -13t8.5 -8.5t13 -0.5l100 33l47 -94q5 -10 16 -10t16 10l47 94l100 -33q10 -4 18 3.5t4 18.5l-33 100l93 47h-119q-5 -44 -36 -74q-37 -38 -90 -38t-90 38q-31 30 -36 74zM320 160q35 0 62 23t32 57h-188q5 -34 32 -57t62 -23z
M80 336q-7 0 -11.5 -4.5t-4.5 -11.5v-16q0 -7 4.5 -11.5t11.5 -4.5h336q7 0 11.5 4.5t4.5 11.5v16q0 7 -4.5 11.5t-11.5 4.5h-336zM624 288q7 0 11.5 4.5t4.5 11.5v16q0 7 -4.5 11.5t-11.5 4.5h-128q-7 0 -11.5 -4.5t-4.5 -11.5v-16q0 -7 4.5 -11.5t11.5 -4.5h128zM208 464
q7 0 11.5 4.5t4.5 11.5v16q0 7 -4.5 11.5t-11.5 4.5h-128q-7 0 -11.5 -4.5t-4.5 -11.5v-16q0 -7 4.5 -11.5t11.5 -4.5h128zM624 464q7 0 11.5 4.5t4.5 11.5v16q0 7 -4.5 11.5t-11.5 4.5h-336q-7 0 -11.5 -4.5t-4.5 -11.5v-16q0 -7 4.5 -11.5t11.5 -4.5h336zM576 408
q0 7 -4.5 11.5t-11.5 4.5h-544q-7 0 -11.5 -4.5t-4.5 -11.5v-16q0 -7 4.5 -11.5t11.5 -4.5h544q7 0 11.5 4.5t4.5 11.5v16z" />
</svg>
