<?xml version="1.0" standalone="no"?>
<!DOCTYPE svg PUBLIC "-//W3C//DTD SVG 1.1//EN" "http://www.w3.org/Graphics/SVG/1.1/DTD/svg11.dtd" >
<svg xmlns="http://www.w3.org/2000/svg" xmlns:xlink="http://www.w3.org/1999/xlink" version="1.1" viewBox="-10 0 660 512">
   <path fill="currentColor"
d="M576 224q26 0 45 19t19 45t-19 45t-45 19h-192q-26 0 -45 -19t-19 -45t19 -45t45 -19h0.5h1.5q5 -27 27 -45.5t51 -18.5q31 0 54 21t25 52q16 -9 33 -9zM429 384l12 35q3 10 -4.5 18t-17.5 4l-100 -33l-48 94q-4 10 -15 10t-16 -10l-47 -94l-100 33q-10 4 -18 -3.5
t-4 -18.5l33 -100l-94 -47q-10 -5 -10 -16t10 -16l94 -47l-33 -100q-4 -10 3.5 -18t18.5 -4l100 33l47 -94q5 -10 16 -10t16 10l47 94l100 -33q10 -4 17.5 4t4.5 18l-14 41q-42 15 -62 55q-9 -14 -19 -23q-37 -38 -90 -38t-90.5 37.5t-37.5 90.5t38 91q32 32 77 36.5
t82 -19.5q27 20 59 20h45zM337 205q-22 12 -35.5 34.5t-13.5 48.5q0 27 15 51q-23 13 -47 13q-40 0 -68 -28t-28 -68t28 -68t68 -28q52 0 81 45z" />
</svg>
