<?xml version="1.0" standalone="no"?>
<!DOCTYPE svg PUBLIC "-//W3C//DTD SVG 1.1//EN" "http://www.w3.org/Graphics/SVG/1.1/DTD/svg11.dtd" >
<svg xmlns="http://www.w3.org/2000/svg" xmlns:xlink="http://www.w3.org/1999/xlink" version="1.1" viewBox="-10 0 596 512">
   <path fill="currentColor"
d="M574 280q2 8 2 16v70q0 47 -33.5 80.5t-81.5 33.5h-37q-46 0 -79 -30.5t-36 -74.5l-3 -39h-36l-3 39q-3 44 -36 74.5t-79 30.5h-37q-48 0 -81.5 -33.5t-33.5 -80.5v-70q0 -8 2 -16l45 -181q7 -28 32 -47.5t54 -19.5q14 0 27 5l16 5q11 3 11 15q0 2 -1 5l-5 15
q-4 11 -15 11q-3 0 -6 -1l-13 -4q-18 -6 -33 1q-16 9 -20 26l-39 154q40 -12 82 -12q59 0 114 26h74q55 -26 114 -26q42 0 82 12l-39 -154q-4 -17 -20 -26q-15 -7 -33 -1l-14 4q-2 1 -5 1q-11 0 -15 -11l-5 -15q-1 -3 -1 -5q0 -12 11 -15l16 -5q13 -5 27 -5q19 0 37 9
t31 24.5t18 33.5zM64 368l100 -50q-18 -2 -27 -2q-38 0 -73 13v37v1v1zM372 366l96 -48q-14 -2 -29 -2q-36 0 -69 13z" />
</svg>
