<?xml version="1.0" standalone="no"?>
<!DOCTYPE svg PUBLIC "-//W3C//DTD SVG 1.1//EN" "http://www.w3.org/Graphics/SVG/1.1/DTD/svg11.dtd" >
<svg xmlns="http://www.w3.org/2000/svg" xmlns:xlink="http://www.w3.org/1999/xlink" version="1.1" viewBox="-10 0 532 512">
   <path fill="currentColor"
d="M435 168q9 9 9 22.5t-9 22.5l-211 211v-271l75 -76h1q9 -9 22 -9t22 9zM480 320q13 0 22.5 9.5t9.5 22.5v128q0 13 -9.5 22.5t-22.5 9.5h-300q1 -1 3.5 -2.5t3.5 -2.5l186 -187h107zM192 32v384q0 40 -28 68t-68 28t-68 -28t-28 -68v-384q0 -13 9.5 -22.5t22.5 -9.5h128
q13 0 22.5 9.5t9.5 22.5zM96 440q10 0 17 -7t7 -17t-7 -17t-17 -7t-17 7t-7 17t7 17t17 7zM128 256v-64h-64v64h64zM128 128v-64h-64v64h64z" />
</svg>
