<?xml version="1.0" standalone="no"?>
<!DOCTYPE svg PUBLIC "-//W3C//DTD SVG 1.1//EN" "http://www.w3.org/Graphics/SVG/1.1/DTD/svg11.dtd" >
<svg xmlns="http://www.w3.org/2000/svg" xmlns:xlink="http://www.w3.org/1999/xlink" version="1.1" viewBox="-10 0 660 512">
   <path fill="currentColor"
d="M624 416q7 0 11.5 4.5t4.5 11.5v32q0 7 -4.5 11.5t-11.5 4.5h-16q-58 0 -96 -32q-38 32 -96 32t-96 -32q-38 32 -96 32t-96 -32q-38 32 -96 32h-16q-7 0 -11.5 -4.5t-4.5 -11.5v-32q0 -7 4.5 -11.5t11.5 -4.5h16q37 0 56 -18q15 -14 32 -14h16q17 0 32 14q19 18 56 18
t56 -18q15 -14 32 -14h16q17 0 32 14q19 18 56 18t56 -18q15 -14 32 -14h16q17 0 32 14q19 18 56 18h16zM224 384q-24 0 -34 -9q-14 -13 -30 -19v-228q0 -40 28 -68t68 -28t68 28t28 68v16q0 7 -4.5 11.5t-11.5 4.5h-32q-7 0 -11.5 -4.5t-4.5 -11.5v-16q0 -13 -9.5 -22.5
t-22.5 -9.5t-22.5 9.5t-9.5 22.5v96h192v-96q0 -40 28 -68t68 -28t68 28t28 68v16q0 7 -4.5 11.5t-11.5 4.5h-32q-7 0 -11.5 -4.5t-4.5 -11.5v-16q0 -13 -9.5 -22.5t-22.5 -9.5t-22.5 9.5t-9.5 22.5v229q-16 5 -30 18q-10 9 -34 9v-96h-192v96z" />
</svg>
