<?xml version="1.0" standalone="no"?>
<!DOCTYPE svg PUBLIC "-//W3C//DTD SVG 1.1//EN" "http://www.w3.org/Graphics/SVG/1.1/DTD/svg11.dtd" >
<svg xmlns="http://www.w3.org/2000/svg" xmlns:xlink="http://www.w3.org/1999/xlink" version="1.1" viewBox="-10 0 660 512">
   <path fill="currentColor"
d="M190 311q-7 -7 -16 -12l68 -98q11 -16 27 -27l80 -57q40 -29 89 -19l100 22q19 4 30 21t7 36t-21 30t-36 7l-100 -22q-7 -1 -13 3l-18 13l113 80q-27 2 -50 23q-10 9 -34 9t-34 -9q-25 -23 -54 -23h-16q-29 0 -54 23q-10 9 -34 9t-34 -9zM624 352q7 0 11.5 4.5t4.5 11.5
v32q0 7 -4.5 11.5t-11.5 4.5h-16q-58 0 -96 -32q-38 32 -96 32t-96 -32q-38 32 -96 32t-96 -32q-38 32 -96 32h-16q-7 0 -11.5 -4.5t-4.5 -11.5v-32q0 -7 4.5 -11.5t11.5 -4.5h16q37 0 56 -18q15 -14 32 -14h16q17 0 32 14q19 18 56 18t56 -18q15 -14 32 -14h16q17 0 32 14
q19 18 56 18t56 -18q15 -14 32 -14h16q17 0 32 14q19 18 56 18h16zM112 256q-33 0 -56.5 -23.5t-23.5 -56.5t23.5 -56.5t56.5 -23.5t56.5 23.5t23.5 56.5t-23.5 56.5t-56.5 23.5z" />
</svg>
