<?xml version="1.0" standalone="no"?>
<!DOCTYPE svg PUBLIC "-//W3C//DTD SVG 1.1//EN" "http://www.w3.org/Graphics/SVG/1.1/DTD/svg11.dtd" >
<svg xmlns="http://www.w3.org/2000/svg" xmlns:xlink="http://www.w3.org/1999/xlink" version="1.1" viewBox="-11 0 534 512">
   <path fill="currentColor"
d="M110 228l174 174q12 11 0 23l-18 18q-10 10 -21 2l-80 -53l-53 53l15 30q1 3 1 6q0 6 -4 10l-17 17q-10 10 -20 0l-83 -83q-10 -10 0 -20l17 -17q4 -4 10 -4q3 0 6 1l30 15l53 -53l-53 -80q-3 -4 -3 -9q0 -7 5 -12l18 -18q12 -12 23 0zM494 0q8 -1 13.5 4.5t4.5 13.5
l-16 94l-228 228l-96 -96l228 -228z" />
</svg>
