<?xml version="1.0" standalone="no"?>
<!DOCTYPE svg PUBLIC "-//W3C//DTD SVG 1.1//EN" "http://www.w3.org/Graphics/SVG/1.1/DTD/svg11.dtd" >
<svg xmlns="http://www.w3.org/2000/svg" xmlns:xlink="http://www.w3.org/1999/xlink" version="1.1" viewBox="-10 0 532 512">
   <path fill="currentColor"
d="M441 13v-1q0 -5 3.5 -8.5t8.5 -3.5h47q12 0 12 12v200q0 5 -3.5 8.5t-8.5 3.5h-200q-5 0 -8.5 -3.5t-3.5 -8.5v-47q0 -5 3.5 -8.5t8.5 -3.5l102 5q-22 -32 -64.5 -55t-81.5 -23q-58 0 -108 39.5t-63 95.5q-2 9 -12 9h-49q-5 0 -8.5 -3.5t-3.5 -8.5v-2q17 -87 85.5 -144.5
t158.5 -57.5q31 0 67.5 11.5t69 32t52.5 43.5zM256 432q57 0 107 -39.5t64 -95.5q2 -9 12 -9h49q5 0 8.5 3.5t3.5 8.5q0 1 -1 2q-16 87 -84.5 144.5t-158.5 57.5q-48 0 -103 -25.5t-86 -61.5l4 82v1q0 5 -3.5 8.5t-8.5 3.5h-47q-12 0 -12 -12v-200q0 -5 3.5 -8.5t8.5 -3.5
h200q5 0 8.5 3.5t3.5 8.5v47q0 5 -3.5 8.5t-8.5 3.5l-102 -5q21 32 64 55t82 23z" />
</svg>
