<?xml version="1.0" standalone="no"?>
<!DOCTYPE svg PUBLIC "-//W3C//DTD SVG 1.1//EN" "http://www.w3.org/Graphics/SVG/1.1/DTD/svg11.dtd" >
<svg xmlns="http://www.w3.org/2000/svg" xmlns:xlink="http://www.w3.org/1999/xlink" version="1.1" viewBox="-10 0 524 512">
   <path fill="currentColor"
d="M371 133q-49 -45 -115 -45q-58 0 -103.5 35.5t-59.5 91.5q-2 9 -12 9h-57q-6 0 -9.5 -4.5t-2.5 -9.5q17 -87 85.5 -144.5t158.5 -57.5q99 0 171 69l36 -36q11 -11 26 -5t15 22v134q0 10 -7 17t-17 7h-134q-16 0 -22 -15t5 -26zM32 296h134q16 0 22 15t-5 26l-42 42
q49 45 115 45q38 0 72 -16.5t58 -45t33 -65.5q2 -9 12 -9h57q6 0 9.5 4.5t2.5 9.5q-17 87 -85.5 144.5t-158.5 57.5q-99 0 -171 -69l-36 36q-11 11 -26 5t-15 -22v-134q0 -10 7 -17t17 -7z" />
</svg>
