<?xml version="1.0" standalone="no"?>
<!DOCTYPE svg PUBLIC "-//W3C//DTD SVG 1.1//EN" "http://www.w3.org/Graphics/SVG/1.1/DTD/svg11.dtd" >
<svg xmlns="http://www.w3.org/2000/svg" xmlns:xlink="http://www.w3.org/1999/xlink" version="1.1" viewBox="-11 0 534 512">
   <path fill="currentColor"
d="M202 175l64 -65l136 136l-182 181q-27 28 -65 23l-64 -7l-66 67q-6 5 -11 0l-12 -12q-5 -5 0 -11l67 -66l-7 -64q-4 -38 23 -65l26 -27l56 56q5 6 11 0l11 -11q6 -6 0 -12l-55 -55l45 -46l56 56q5 6 11 0l11 -11q6 -6 0 -11zM510 82q5 5 0 11l-12 11q-5 6 -11 0l-28 -28
l-45 45l73 74q6 5 0 11l-34 34q-6 6 -11 0l-17 -17l-136 -136l-17 -17q-6 -6 0 -11l34 -34q6 -6 11 0l17 17l57 56l45 -45l-28 -28q-6 -6 0 -11l11 -12q6 -5 11 0z" />
</svg>
