<?xml version="1.0" standalone="no"?>
<!DOCTYPE svg PUBLIC "-//W3C//DTD SVG 1.1//EN" "http://www.w3.org/Graphics/SVG/1.1/DTD/svg11.dtd" >
<svg xmlns="http://www.w3.org/2000/svg" xmlns:xlink="http://www.w3.org/1999/xlink" version="1.1" viewBox="-10 0 468 512">
   <path fill="currentColor"
d="M400 0q20 0 34 14t14 34v416q0 20 -14 34t-34 14h-352q-20 0 -34 -14t-14 -34v-416q0 -20 14 -34t34 -14h352zM224 480q13 0 22.5 -9.5t9.5 -22.5t-9.5 -22.5t-22.5 -9.5t-22.5 9.5t-9.5 22.5t9.5 22.5t22.5 9.5zM400 372v-312q0 -12 -12 -12h-328q-12 0 -12 12v312
q0 12 12 12h328q12 0 12 -12z" />
</svg>
