<?xml version="1.0" standalone="no"?>
<!DOCTYPE svg PUBLIC "-//W3C//DTD SVG 1.1//EN" "http://www.w3.org/Graphics/SVG/1.1/DTD/svg11.dtd" >
<svg xmlns="http://www.w3.org/2000/svg" xmlns:xlink="http://www.w3.org/1999/xlink" version="1.1" viewBox="-10 0 596 512">
   <path fill="currentColor"
d="M288 32q119 0 203.5 84.5t84.5 203.5q0 78 -39 145q-9 15 -27 15h-444q-18 0 -27 -15q-39 -67 -39 -145q0 -119 84.5 -203.5t203.5 -84.5zM288 96q-9 0 -16 4.5t-11.5 11.5t-4.5 16q0 13 9.5 22.5t22.5 9.5q9 0 18 -6l9 -28q0 -1 2 -4l1 -2q-3 -11 -11 -17.5t-19 -6.5z
M96 384q13 0 22.5 -9.5t9.5 -22.5t-9.5 -22.5t-22.5 -9.5t-22.5 9.5t-9.5 22.5t9.5 22.5t22.5 9.5zM144 224q13 0 22.5 -9.5t9.5 -22.5t-9.5 -22.5t-22.5 -9.5t-22.5 9.5t-9.5 22.5t9.5 22.5t22.5 9.5zM391 152q1 -5 0.5 -10t-2.5 -9t-5.5 -7t-7.5 -5q-10 -3 -19 1.5
t-12 13.5l-61 184q-25 2 -42.5 20.5t-17.5 43.5q0 17 9 32h110q9 -15 9 -32q0 -29 -23 -48zM405 209q10 15 27 15q13 0 22.5 -9.5t9.5 -22.5t-9.5 -22.5t-22.5 -9.5q-5 0 -11 2zM480 384q13 0 22.5 -9.5t9.5 -22.5t-9.5 -22.5t-22.5 -9.5t-22.5 9.5t-9.5 22.5t9.5 22.5
t22.5 9.5z" />
</svg>
