<?xml version="1.0" standalone="no"?>
<!DOCTYPE svg PUBLIC "-//W3C//DTD SVG 1.1//EN" "http://www.w3.org/Graphics/SVG/1.1/DTD/svg11.dtd" >
<svg xmlns="http://www.w3.org/2000/svg" xmlns:xlink="http://www.w3.org/1999/xlink" version="1.1" viewBox="-10 0 596 512">
   <path fill="currentColor"
d="M288 32q119 0 203.5 84.5t84.5 203.5q0 78 -39 145q-9 15 -27 15h-444q-18 0 -27 -15q-39 -67 -39 -145q0 -119 84.5 -203.5t203.5 -84.5zM391 152q1 -5 0.5 -10t-2.5 -9t-5.5 -7t-7.5 -5q-10 -3 -19 1.5t-12 13.5l-61 184q-25 2 -42.5 20.5t-17.5 43.5q0 17 9 32h110
q9 -15 9 -32q0 -29 -23 -48z" />
</svg>
