<?xml version="1.0" standalone="no"?>
<!DOCTYPE svg PUBLIC "-//W3C//DTD SVG 1.1//EN" "http://www.w3.org/Graphics/SVG/1.1/DTD/svg11.dtd" >
<svg xmlns="http://www.w3.org/2000/svg" xmlns:xlink="http://www.w3.org/1999/xlink" version="1.1" viewBox="-10 0 596 512">
   <path fill="currentColor"
d="M288 32q119 0 203.5 84.5t84.5 203.5q0 78 -39 145q-9 15 -27 15h-444q-18 0 -27 -15q-39 -67 -39 -145q0 -119 84.5 -203.5t203.5 -84.5zM343 416q9 -15 9 -32q0 -20 -11 -36t-29 -23v-197q0 -10 -7 -17t-17 -7t-17 7t-7 17v197q-12 5 -21 13.5t-14 20.5t-5 25
q0 17 9 32h110z" />
</svg>
