<?xml version="1.0" standalone="no"?>
<!DOCTYPE svg PUBLIC "-//W3C//DTD SVG 1.1//EN" "http://www.w3.org/Graphics/SVG/1.1/DTD/svg11.dtd" >
<svg xmlns="http://www.w3.org/2000/svg" xmlns:xlink="http://www.w3.org/1999/xlink" version="1.1" viewBox="-11 0 534 512">
   <path fill="currentColor"
d="M256 192q97 0 169.5 71t86.5 176q2 16 -8 28.5t-25 12.5h-446q-15 0 -25 -12.5t-8 -28.5q14 -105 86.5 -176t169.5 -71zM112 416q7 0 11.5 -4.5t4.5 -11.5t-4.5 -11.5t-11.5 -4.5t-11.5 4.5t-4.5 11.5t4.5 11.5t11.5 4.5zM176 352q7 0 11.5 -4.5t4.5 -11.5t-4.5 -11.5
t-11.5 -4.5t-11.5 4.5t-4.5 11.5t4.5 11.5t11.5 4.5zM7 279q-11 -37 -4 -55q7 -19 41 -38q19 -11 23 -18q5 -6 10 -30q8 -38 24 -50q15 -13 54 -10q22 1 29 -1q7 -3 23 -18q17 -16 30.5 -22.5t26 -3.5t20.5 8.5t21 17.5q16 15 23 18q8 2 29 1q39 -3 54 10q16 12 24 50
q5 24 10 30q4 7 24 18q33 19 40 38q7 18 -4 55v1q-4 13 -5 28q-40 -68 -104.5 -108t-139.5 -40t-139.5 40t-104.5 108q-1 -15 -5 -29z" />
</svg>
