<?xml version="1.0" standalone="no"?>
<!DOCTYPE svg PUBLIC "-//W3C//DTD SVG 1.1//EN" "http://www.w3.org/Graphics/SVG/1.1/DTD/svg11.dtd" >
<svg xmlns="http://www.w3.org/2000/svg" xmlns:xlink="http://www.w3.org/1999/xlink" version="1.1" viewBox="-10 0 660 512">
   <path fill="currentColor"
d="M498 226q14 14 14 34t-14 34l-204 204q-14 14 -34 14t-34 -14l-212 -212q-14 -14 -14 -34v-204q0 -20 14 -34t34 -14h204q20 0 34 14zM112 160q20 0 34 -14t14 -34t-14 -34t-34 -14t-34 14t-14 34t14 34t34 14zM626 294l-204 204q-14 14 -34 14t-34 -14l174 -174
q26 -27 26 -64t-26 -64l-197 -196h49q20 0 34 14l212 212q14 14 14 34t-14 34z" />
</svg>
