<?xml version="1.0" standalone="no"?>
<!DOCTYPE svg PUBLIC "-//W3C//DTD SVG 1.1//EN" "http://www.w3.org/Graphics/SVG/1.1/DTD/svg11.dtd" >
<svg xmlns="http://www.w3.org/2000/svg" xmlns:xlink="http://www.w3.org/1999/xlink" version="1.1" viewBox="-10 0 468 512">
   <path fill="currentColor"
d="M318 139l-17 30l-18 -30h35zM283 245l18 -30l17 30h-35zM224 297l-17 -28h34zM130 245l17 -30l18 30h-35zM165 139l-18 30l-17 -30h35zM352 0q41 0 68.5 27.5t27.5 68.5v320q0 41 -27.5 68.5t-68.5 27.5h-326q-11 0 -18.5 -7t-7.5 -19v-16q0 -9 10 -19q2 -12 2 -38
t-2 -35q-10 -5 -10 -20v-332q0 -26 26 -26h326zM105 126q-2 4 -2 9q0 6 3 11l27 46l-27 46q-3 5 -3 10.5t2.5 10t7 7.5t10.5 3h56l28 46q6 10 17 10t17 -10l28 -46h56q12 0 18 -11q2 -4 2 -9q0 -6 -3 -11l-27 -46l27 -46q3 -5 3 -11q0 -8 -6 -14t-14 -6h-56l-28 -46
q-6 -10 -17 -10v0q-11 0 -17 10l-28 46h-56q-12 0 -18 11zM352 448q14 0 23 -9t9 -23t-9.5 -23t-22.5 -9h-285v64h285zM224 87l17 28h-34zM193 245l-32 -53l32 -53h62l32 53l-32 53h-62z" />
</svg>
