<?xml version="1.0" standalone="no"?>
<!DOCTYPE svg PUBLIC "-//W3C//DTD SVG 1.1//EN" "http://www.w3.org/Graphics/SVG/1.1/DTD/svg11.dtd" >
<svg xmlns="http://www.w3.org/2000/svg" xmlns:xlink="http://www.w3.org/1999/xlink" version="1.1" viewBox="-10 0 532 512">
   <path fill="currentColor"
d="M140 36l17 16q3 4 3 8.5t-3 8.5l-73 72l-15 16q-4 3 -9 3t-9 -3l-47 -48q-4 -3 -4 -8t4 -9l15 -15q4 -4 9 -4t8 4l23 22l64 -63q3 -4 8 -4t9 4zM140 195l17 17q3 3 3 8t-4 9l-72 72l-15 15q-4 4 -9 4t-9 -4l-47 -47q-4 -4 -4 -8.5t4 -8.5l15 -16q4 -3 9 -3t8 3l23 22
l64 -63q3 -4 8 -4t9 4zM64 368q20 0 34 14t14 34t-14 34t-34 14t-34.5 -14t-14.5 -34t14.5 -34t34.5 -14zM496 384q7 0 11.5 4.5t4.5 11.5v32q0 7 -4.5 11.5t-11.5 4.5h-288q-7 0 -11.5 -4.5t-4.5 -11.5v-32q0 -7 4.5 -11.5t11.5 -4.5h288zM496 64q7 0 11.5 4.5t4.5 11.5v32
q0 7 -4.5 11.5t-11.5 4.5h-288q-7 0 -11.5 -4.5t-4.5 -11.5v-32q0 -7 4.5 -11.5t11.5 -4.5h288zM496 224q7 0 11.5 4.5t4.5 11.5v32q0 7 -4.5 11.5t-11.5 4.5h-288q-7 0 -11.5 -4.5t-4.5 -11.5v-32q0 -7 4.5 -11.5t11.5 -4.5h288z" />
</svg>
