<?xml version="1.0" standalone="no"?>
<!DOCTYPE svg PUBLIC "-//W3C//DTD SVG 1.1//EN" "http://www.w3.org/Graphics/SVG/1.1/DTD/svg11.dtd" >
<svg xmlns="http://www.w3.org/2000/svg" xmlns:xlink="http://www.w3.org/1999/xlink" version="1.1" viewBox="-10 0 532 512">
   <path fill="currentColor"
d="M488 351q10 0 17 7t7 17v80q0 10 -7 17t-17 7h-464q-10 0 -17 -7t-7 -17v-80q0 -10 7 -17t17 -7h464zM464 431v-32h-175v32h175zM488 191q10 0 17 7t7 17v80q0 10 -7 17t-17 7h-464q-10 0 -17 -7t-7 -17v-80q0 -10 7 -17t17 -7h464zM464 271v-32h-303v32h303zM488 31
q10 0 17 7t7 17v80q0 10 -7 17t-17 7h-464q-10 0 -17 -7t-7 -17v-80q0 -10 7 -17t17 -7h464zM464 111v-32h-111v32h111z" />
</svg>
