<?xml version="1.0" standalone="no"?>
<!DOCTYPE svg PUBLIC "-//W3C//DTD SVG 1.1//EN" "http://www.w3.org/Graphics/SVG/1.1/DTD/svg11.dtd" >
<svg xmlns="http://www.w3.org/2000/svg" xmlns:xlink="http://www.w3.org/1999/xlink" version="1.1" viewBox="-10 0 532 512">
   <path fill="currentColor"
d="M462 242q22 4 36 21.5t14 40.5v48q0 36 -32 55v41q0 13 -9.5 22.5t-22.5 9.5h-32q-13 0 -22.5 -9.5t-9.5 -22.5v-32h-256v32q0 13 -9.5 22.5t-22.5 9.5h-32q-13 0 -22.5 -9.5t-9.5 -22.5v-41q-32 -18 -32 -55v-48q0 -23 14 -40.5t36 -21.5l22 -85q7 -27 28.5 -44
t48.5 -17h11v-32q0 -13 9.5 -22.5t22.5 -9.5h128q13 0 22.5 9.5t9.5 22.5v32h11q27 0 48.5 17t28.5 44zM96 352q13 0 22.5 -9.5t9.5 -22.5t-9.5 -22.5t-22.5 -9.5t-22.5 9.5t-9.5 22.5t9.5 22.5t22.5 9.5zM117 240h278l-17 -67q-1 -5 -6 -9t-9 -4h-214q-12 0 -15 14z
M416 352q13 0 22.5 -9.5t9.5 -22.5t-9.5 -22.5t-22.5 -9.5t-22.5 9.5t-9.5 22.5t9.5 22.5t22.5 9.5z" />
</svg>
