<?xml version="1.0" standalone="no"?>
<!DOCTYPE svg PUBLIC "-//W3C//DTD SVG 1.1//EN" "http://www.w3.org/Graphics/SVG/1.1/DTD/svg11.dtd" >
<svg xmlns="http://www.w3.org/2000/svg" xmlns:xlink="http://www.w3.org/1999/xlink" version="1.1" viewBox="-10 0 660 512">
   <path fill="currentColor"
d="M544 0q40 0 68 28t28 68v320q0 40 -28 68t-68 28h-448q-40 0 -68 -28t-28 -68v-320q0 -40 28 -68t68 -28h448zM160 368v-64q0 -7 -4.5 -11.5t-11.5 -4.5h-64q-7 0 -11.5 4.5t-4.5 11.5v64q0 20 14 34t34 14t34 -14t14 -34zM160 240v-64q0 -20 -14 -34t-34 -14t-34 14
t-14 34v64q0 7 4.5 11.5t11.5 4.5h64q7 0 11.5 -4.5t4.5 -11.5zM304 360v-56q0 -7 -4.5 -11.5t-11.5 -4.5h-80q-7 0 -11.5 4.5t-4.5 11.5v56q0 23 16.5 39.5t39.5 16.5t39.5 -16.5t16.5 -39.5zM304 240v-88q0 -23 -16.5 -39.5t-39.5 -16.5t-39.5 16.5t-16.5 39.5v88
q0 7 4.5 11.5t11.5 4.5h80q7 0 11.5 -4.5t4.5 -11.5zM448 360v-56q0 -7 -4.5 -11.5t-11.5 -4.5h-80q-7 0 -11.5 4.5t-4.5 11.5v56q0 23 16.5 39.5t39.5 16.5t39.5 -16.5t16.5 -39.5zM448 240v-88q0 -23 -16.5 -39.5t-39.5 -16.5t-39.5 16.5t-16.5 39.5v88q0 7 4.5 11.5
t11.5 4.5h80q7 0 11.5 -4.5t4.5 -11.5zM576 368v-64q0 -7 -4.5 -11.5t-11.5 -4.5h-64q-7 0 -11.5 4.5t-4.5 11.5v64q0 20 14 34t34 14t34 -14t14 -34zM576 240v-64q0 -20 -14 -34t-34 -14t-34 14t-14 34v64q0 7 4.5 11.5t11.5 4.5h64q7 0 11.5 -4.5t4.5 -11.5z" />
</svg>
