<?xml version="1.0" standalone="no"?>
<!DOCTYPE svg PUBLIC "-//W3C//DTD SVG 1.1//EN" "http://www.w3.org/Graphics/SVG/1.1/DTD/svg11.dtd" >
<svg xmlns="http://www.w3.org/2000/svg" xmlns:xlink="http://www.w3.org/1999/xlink" version="1.1" viewBox="-10 0 660 512">
   <path fill="currentColor"
d="M352 268q-32 45 -32 100v1v1l-41 -13l-41 83q-5 8 -14 8t-14 -8l-41 -83l-88 29q-9 3 -15.5 -3.5t-3.5 -15.5l29 -88l-83 -41q-8 -5 -8 -14t8 -14l83 -41l-29 -88q-3 -9 3.5 -15.5t15.5 -3.5l88 29l41 -83q5 -8 14 -8t14 8l41 83l82 -27q-9 25 -9 48v156zM292 292
q28 -28 28 -68t-28 -68t-68 -28t-68 28t-28 68t28 68t68 28t68 -28zM224 160q26 0 45 19t19 45t-19 45t-45 19t-45 -19t-19 -45t19 -45t45 -19zM608 278q32 40 32 90q0 60 -42 102t-102 42t-102 -42t-42 -102q0 -50 32 -90v-166q0 -46 33 -79t79 -33t79 33t33 79v166z
M496 448q33 0 56.5 -23.5t23.5 -56.5q0 -40 -32 -64v-192q0 -20 -14 -34t-34 -14t-34 14t-14 34v192q-32 24 -32 64q0 33 23.5 56.5t56.5 23.5zM512 323q14 5 23 17.5t9 27.5q0 20 -14 34t-34 14t-34 -14t-14 -34q0 -15 9 -27.5t23 -17.5v-211q0 -7 4.5 -11.5t11.5 -4.5
t11.5 4.5t4.5 11.5v211z" />
</svg>
