<?xml version="1.0" standalone="no"?>
<!DOCTYPE svg PUBLIC "-//W3C//DTD SVG 1.1//EN" "http://www.w3.org/Graphics/SVG/1.1/DTD/svg11.dtd" >
<svg xmlns="http://www.w3.org/2000/svg" xmlns:xlink="http://www.w3.org/1999/xlink" version="1.1" viewBox="-11 0 597 512">
   <path fill="currentColor"
d="M544 278q32 40 32 90q0 60 -42 102t-102 42t-102 -42t-42 -102q0 -50 32 -90v-166q0 -46 33 -79t79 -33t79 33t33 79v166zM432 448q33 0 56.5 -23.5t23.5 -56.5q0 -40 -32 -64v-192q0 -20 -14 -34t-34 -14t-34 14t-14 34v192q-32 24 -32 64q0 33 23.5 56.5t56.5 23.5z
M268 305l-68 -39v57l40 40q9 9 0 17l-8 8q-9 9 -17 0l-15 -14v30q0 5 -3.5 8.5t-8.5 3.5h-24q-5 0 -8.5 -3.5t-3.5 -8.5v-30l-15 14q-8 9 -17 0l-8 -8q-9 -8 0 -17l40 -40v-57l-50 29l-15 56q-4 11 -15 8l-12 -3q-12 -3 -8 -15l5 -20l-27 15q-10 6 -16 -4l-12 -21
q-6 -11 4 -17l27 -15l-21 -6q-11 -3 -8 -15l3 -11q3 -12 15 -9l55 15l51 -29l-51 -29l-55 15q-12 3 -15 -9l-3 -11q-3 -12 8 -15l21 -6l-27 -15q-11 -6 -4 -17l12 -21q6 -10 16 -4l27 15l-6 -20q-3 -12 9 -15l12 -3q12 -3 15 8l15 56l50 29v-57l-40 -40q-9 -9 0 -17l8 -8
q9 -9 17 0l15 14v-30q0 -12 12 -12h24q12 0 12 12v30l15 -14q8 -9 17 0l8 8q9 8 0 17l-40 40v57l88 -51v56l-63 37l63 37v7q-11 16 -20 37zM448 323q7 2 13 6.5t10 10.5t6.5 13t2.5 15q0 20 -14 34t-34 14t-34 -14t-14 -34q0 -15 9 -27.5t23 -17.5v-19q0 -7 4.5 -11.5
t11.5 -4.5t11.5 4.5t4.5 11.5v19z" />
</svg>
