<?xml version="1.0" standalone="no"?>
<!DOCTYPE svg PUBLIC "-//W3C//DTD SVG 1.1//EN" "http://www.w3.org/Graphics/SVG/1.1/DTD/svg11.dtd" >
<svg xmlns="http://www.w3.org/2000/svg" xmlns:xlink="http://www.w3.org/1999/xlink" version="1.1" viewBox="-10 0 516 512">
   <path fill="currentColor"
d="M219 79q2 55 -44 102t-104 46q-42 -2 -71 18q4 -99 73.5 -166t163.5 -71q-19 29 -18 71zM426 237q-35 -2 -72.5 14.5t-65.5 44.5t-44 65.5t-15 72.5q0 8 -0.5 15t-3.5 16t-9 15.5t-16.5 10.5t-25.5 2q-59 -18 -102 -61t-61 -102q-2 -18 3.5 -30.5t16.5 -17t20 -6t19 -1.5
q35 1 72.5 -15t65.5 -44t44 -65.5t15 -72.5q0 -10 1.5 -19t6 -20t17 -16.5t30.5 -3.5q58 18 101.5 61.5t61.5 101.5q2 18 -3.5 30t-16.5 17t-20 6.5t-19 1.5zM425 285q42 1 71 -18q-4 100 -74 166.5t-164 70.5q20 -29 19 -71q-2 -57 45.5 -103.5t102.5 -44.5z" />
</svg>
