<?xml version="1.0" standalone="no"?>
<!DOCTYPE svg PUBLIC "-//W3C//DTD SVG 1.1//EN" "http://www.w3.org/Graphics/SVG/1.1/DTD/svg11.dtd" >
<svg xmlns="http://www.w3.org/2000/svg" xmlns:xlink="http://www.w3.org/1999/xlink" version="1.1" viewBox="-10 0 660 512">
   <path fill="currentColor"
d="M258 273l-194 194q-7 7 -17 7t-17 -7l-23 -22q-7 -7 -7 -17t7 -17l154 -155l-154 -155q-7 -7 -7 -17t7 -17l23 -22q7 -7 17 -7t17 7l194 194q7 7 7 17t-7 17zM640 456q0 10 -7 17t-17 7h-304q-10 0 -17 -7t-7 -17v-32q0 -10 7 -17t17 -7h304q10 0 17 7t7 17v32z" />
</svg>
