<?xml version="1.0" standalone="no"?>
<!DOCTYPE svg PUBLIC "-//W3C//DTD SVG 1.1//EN" "http://www.w3.org/Graphics/SVG/1.1/DTD/svg11.dtd" >
<svg xmlns="http://www.w3.org/2000/svg" xmlns:xlink="http://www.w3.org/1999/xlink" version="1.1" viewBox="-10 0 660 512">
   <path fill="currentColor"
d="M624 32q7 0 11.5 4.5t4.5 11.5v96q0 7 -4.5 11.5t-11.5 4.5h-32q-7 0 -11.5 -4.5t-4.5 -11.5v-32h-88v304h40q7 0 11.5 4.5t4.5 11.5v32q0 7 -4.5 11.5t-11.5 4.5h-160q-7 0 -11.5 -4.5t-4.5 -11.5v-32q0 -7 4.5 -11.5t11.5 -4.5h40v-304h-88v32q0 7 -4.5 11.5t-11.5 4.5
h-32q-7 0 -11.5 -4.5t-4.5 -11.5v-96q0 -7 4.5 -11.5t11.5 -4.5h352zM304 224q7 0 11.5 4.5t4.5 11.5v64q0 7 -4.5 11.5t-11.5 4.5h-32q-7 0 -11.5 -4.5t-4.5 -11.5v-16h-56v128h24q7 0 11.5 4.5t4.5 11.5v32q0 7 -4.5 11.5t-11.5 4.5h-128q-7 0 -11.5 -4.5t-4.5 -11.5v-32
q0 -7 4.5 -11.5t11.5 -4.5h24v-128h-56v16q0 7 -4.5 11.5t-11.5 4.5h-32q-7 0 -11.5 -4.5t-4.5 -11.5v-64q0 -7 4.5 -11.5t11.5 -4.5h288z" />
</svg>
