<?xml version="1.0" standalone="no"?>
<!DOCTYPE svg PUBLIC "-//W3C//DTD SVG 1.1//EN" "http://www.w3.org/Graphics/SVG/1.1/DTD/svg11.dtd" >
<svg xmlns="http://www.w3.org/2000/svg" xmlns:xlink="http://www.w3.org/1999/xlink" version="1.1" viewBox="-10 0 532 512">
   <path fill="currentColor"
d="M149 56v80q0 10 -7 17t-17 7h-101q-10 0 -17 -7t-7 -17v-80q0 -10 7 -17t17 -7h101q10 0 17 7t7 17zM331 296q0 7 -3.5 12.5t-9 8.5t-11.5 3h-102q-10 0 -17 -7t-7 -17v-80q0 -10 7 -17t17 -7h102q10 0 17 7t7 17v80zM363 56q0 -10 7 -17t17 -7h101q10 0 17 7t7 17v80
q0 10 -7 17t-17 7h-101q-10 0 -17 -7t-7 -17v-80zM331 136q0 5 -2 9.5t-5.5 7.5t-7.5 5t-9 2h-102q-10 0 -17 -7t-7 -17v-80q0 -10 7 -17t17 -7h102q10 0 17 7t7 17v80zM125 192q10 0 17 7t7 17v80q0 10 -7 17t-17 7h-101q-10 0 -17 -7t-7 -17v-80q0 -10 7 -17t17 -7h101z
M0 376q0 -10 7 -17t17 -7h101q10 0 17 7t7 17v80q0 10 -7 17t-17 7h-101q-10 0 -17 -7t-7 -17v-80zM387 320q-10 0 -17 -7t-7 -17v-80q0 -10 7 -17t17 -7h101q10 0 17 7t7 17v80q0 10 -7 17t-17 7h-101zM387 480q-10 0 -17 -7t-7 -17v-80q0 -10 7 -17t17 -7h101q10 0 17 7
t7 17v80q0 10 -7 17t-17 7h-101zM181 376q0 -10 7 -17t17 -7h102q10 0 17 7t7 17v80q0 10 -7 17t-17 7h-102q-10 0 -17 -7t-7 -17v-80z" />
</svg>
