<?xml version="1.0" standalone="no"?>
<!DOCTYPE svg PUBLIC "-//W3C//DTD SVG 1.1//EN" "http://www.w3.org/Graphics/SVG/1.1/DTD/svg11.dtd" >
<svg xmlns="http://www.w3.org/2000/svg" xmlns:xlink="http://www.w3.org/1999/xlink" version="1.1" viewBox="-10 0 532 512">
   <path fill="currentColor"
d="M296 32h192q10 0 17 7t7 17v160q0 10 -7 17t-17 7h-192q-10 0 -17 -7t-7 -17v-160q0 -10 7 -17t17 -7zM216 32q10 0 17 7t7 17v160q0 10 -7 17t-17 7h-192q-10 0 -17 -7t-7 -17v-160q0 -10 7 -17t17 -7h192zM0 296q0 -10 7 -17t17 -7h192q10 0 17 7t7 17v160q0 10 -7 17
t-17 7h-192q-10 0 -17 -7t-7 -17v-160zM296 480q-10 0 -17 -7t-7 -17v-160q0 -10 7 -17t17 -7h192q10 0 17 7t7 17v160q0 10 -7 17t-17 7h-192z" />
</svg>
