<?xml version="1.0" standalone="no"?>
<!DOCTYPE svg PUBLIC "-//W3C//DTD SVG 1.1//EN" "http://www.w3.org/Graphics/SVG/1.1/DTD/svg11.dtd" >
<svg xmlns="http://www.w3.org/2000/svg" xmlns:xlink="http://www.w3.org/1999/xlink" version="1.1" viewBox="-11 0 661 512">
   <path fill="currentColor"
d="M207 245l-8 43q-32 11 -50 31q-1 -16 6 -31t20.5 -26.5t31.5 -16.5zM96 295q4 24 39 49t73 36q13 35 39 67q-7 1 -10 1q-35 0 -79.5 -18t-81.5 -52t-43 -72l-32 -179q-4 -21 5 -40.5t27 -29.5q103 -57 220 -57q36 0 72 6q26 4 42 27q-32 1 -57 5q-30 5 -52 26h-2.5h-2.5
q-100 0 -189 49v0.5v1.5zM193 158q2 10 -1.5 20t-11.5 17t-19 9q-16 3 -30 -6.5t-16 -26.5q-1 -5 -1 -12q18 9 40 5.5t35 -18.5q3 6 4 12zM607 121q12 7 20 17.5t11 24.5t1 27l-32 180q-7 41 -48.5 77t-90 52.5t-81 11t-72 -38t-66.5 -80.5t-20 -89l32 -179q4 -21 18.5 -36
t35.5 -18q155 -25 292 51zM334 218q-1 5 -1 12q18 -9 40 -5.5t35 18.5q3 -6 4 -11q3 -17 -6.5 -30.5t-25.5 -16.5t-30 6.5t-16 26.5zM404.5 416.5q41.5 7.5 76.5 -14.5t45 -61q-46 28 -111.5 16.5t-99.5 -53.5q-3 40 22.5 72.5t67 40zM534 265q3 -6 4 -11q2 -11 -1.5 -21
t-11.5 -17t-19 -8q-16 -3 -30 6.5t-16 25.5q-1 5 0 12q17 -9 39 -5t35 18z" />
</svg>
