<?xml version="1.0" standalone="no"?>
<!DOCTYPE svg PUBLIC "-//W3C//DTD SVG 1.1//EN" "http://www.w3.org/Graphics/SVG/1.1/DTD/svg11.dtd" >
<svg xmlns="http://www.w3.org/2000/svg" xmlns:xlink="http://www.w3.org/1999/xlink" version="1.1" viewBox="-10 0 532 512">
   <path fill="currentColor"
d="M477 20q35 33 35 74t-28 69l-254 253h-100l-89 89q-7 7 -17 7t-17 -7t-7 -17t7 -17l89 -89v-101l45 -46l50 51q6 5 12 0l11 -12q6 -5 0 -11l-50 -50l45 -46l50 51q6 5 12 0l11 -12q6 -5 0 -11l-50 -50l45 -46l50 51q6 5 11 0l12 -12q5 -5 0 -11l-51 -50l46 -46
q27 -28 65.5 -31t66.5 20z" />
</svg>
