<?xml version="1.0" standalone="no"?>
<!DOCTYPE svg PUBLIC "-//W3C//DTD SVG 1.1//EN" "http://www.w3.org/Graphics/SVG/1.1/DTD/svg11.dtd" >
<svg xmlns="http://www.w3.org/2000/svg" xmlns:xlink="http://www.w3.org/1999/xlink" version="1.1" viewBox="-10 0 532 512">
   <path fill="currentColor"
d="M337 288q9 0 13 7.5t0 14.5l-98 194q-4 8 -13 8q-7 0 -11.5 -5.5t-3.5 -12.5l32 -142h-81q-7 0 -11.5 -5t-3.5 -12l16 -130q2 -13 15 -13h82q7 0 11.5 6t3.5 13l-23 77h72zM416 128q40 0 68 28t28 68t-28 68t-68 28h-30q6 -19 -4 -36q-14 -24 -41 -24h-31l11 -41
q6 -22 -8 -40.5t-37 -18.5h-85q-18 0 -31 11.5t-16 29.5l-16 119h-32q-40 0 -68 -28t-28 -68q0 -31 18.5 -56t47.5 -35q-2 -11 -2 -21q0 -46 33 -79t79 -33q32 0 58.5 16.5t40.5 44.5q24 -29 61 -29q33 0 56.5 23.5t23.5 56.5q0 9 -2 16h1.5h0.5z" />
</svg>
