<?xml version="1.0" standalone="no"?>
<!DOCTYPE svg PUBLIC "-//W3C//DTD SVG 1.1//EN" "http://www.w3.org/Graphics/SVG/1.1/DTD/svg11.dtd" >
<svg xmlns="http://www.w3.org/2000/svg" xmlns:xlink="http://www.w3.org/1999/xlink" version="1.1" viewBox="-10 0 596 512">
   <path fill="currentColor"
d="M124 260q3 2 10 8q-6 18 -6 36q0 2 0.5 4.5l0.5 2.5l-59 20q-8 2 -13.5 -3.5t-3.5 -13.5l25 -75l-71 -35q-7 -4 -7 -12t7 -12l71 -35l-25 -75q-2 -8 3.5 -13.5t13.5 -3.5l75 25l35 -71q4 -7 12 -7t12 7l35 71l75 -25q8 -2 13.5 3.5t3.5 13.5l-9 26h-1h-1q-37 0 -69 21
q-28 -23 -64.5 -21t-62.5 28q-28 28 -28 68t28 68zM194 202q-27 12 -45 37q-21 -19 -21 -47q0 -26 19 -45t45 -19q18 0 34 10q-26 28 -32 64zM436 336q7 0 10.5 6t-0.5 12l-88 152q-3 6 -10 6q-6 0 -9.5 -4.5t-2.5 -10.5l23 -97h-59q-5 0 -9 -4t-3 -10l16 -120q2 -10 12 -10
h68q6 0 9.5 4.5t2.5 10.5l-18 65h58zM510 226q29 5 47.5 27t18.5 51q0 33 -23.5 56.5t-56.5 23.5h-30l8 -14q13 -22 0 -44t-38 -22h-16l6 -25q6 -21 -7 -38t-35 -17h-68q-16 0 -28.5 11t-15.5 27l-16 120v1v1h-16q-33 0 -56.5 -23.5t-23.5 -56.5q0 -29 18 -51t46 -27v-1.5
v-0.5q0 -40 28 -68t68 -28q49 0 78 40q16 -8 34 -8q19 0 36 8.5t28 23.5t14 34z" />
</svg>
