<?xml version="1.0" standalone="no"?>
<!DOCTYPE svg PUBLIC "-//W3C//DTD SVG 1.1//EN" "http://www.w3.org/Graphics/SVG/1.1/DTD/svg11.dtd" >
<svg xmlns="http://www.w3.org/2000/svg" xmlns:xlink="http://www.w3.org/1999/xlink" version="1.1" viewBox="-10 0 532 512">
   <path fill="currentColor"
d="M340 382q-53 -10 -90 -56l-66 -84q-15 -18 -39 -18q-20 0 -34.5 14.5t-14.5 34.5v48q0 13 -9.5 22.5t-22.5 9.5h-32q-13 0 -22.5 -9.5t-9.5 -22.5v-41q0 -59 39.5 -103.5t97.5 -48.5q35 -2 67.5 12.5t54.5 42.5l69 87q15 18 39 18q20 0 34.5 -14.5t14.5 -34.5v-47
q0 -13 9.5 -22.5t22.5 -9.5h32q13 0 22.5 9.5t9.5 22.5v47q0 44 -23.5 80t-64 53.5t-84.5 9.5z" />
</svg>
