<?xml version="1.0" standalone="no"?>
<!DOCTYPE svg PUBLIC "-//W3C//DTD SVG 1.1//EN" "http://www.w3.org/Graphics/SVG/1.1/DTD/svg11.dtd" >
<svg xmlns="http://www.w3.org/2000/svg" xmlns:xlink="http://www.w3.org/1999/xlink" version="1.1" viewBox="-10 0 468 512">
   <path fill="currentColor"
d="M400 32q20 0 34 14t14 34v352q0 20 -14 34t-34 14h-352q-20 0 -34 -14t-14 -34v-352q0 -20 14 -34t34 -14h352zM346 321l-66 -65l66 -65q8 -9 0 -17l-40 -40q-8 -8 -17 0l-65 66l-65 -66q-9 -8 -17 0l-40 40q-8 8 0 17l66 65l-66 65q-8 9 0 17l40 40q8 8 17 0l65 -66
l65 66q9 8 17 0l40 -40q8 -8 0 -17z" />
</svg>
