<?xml version="1.0" standalone="no"?>
<!DOCTYPE svg PUBLIC "-//W3C//DTD SVG 1.1//EN" "http://www.w3.org/Graphics/SVG/1.1/DTD/svg11.dtd" >
<svg xmlns="http://www.w3.org/2000/svg" xmlns:xlink="http://www.w3.org/1999/xlink" version="1.1" viewBox="-10 0 532 512">
   <path fill="currentColor"
d="M498 150q14 15 14 34v144q0 19 -14 33l-136 137q-15 14 -34 14h-144q-19 0 -33 -14l-137 -136q-14 -15 -14 -34v-144q0 -19 14 -33l136 -137q15 -14 34 -14h144q19 0 33 14zM378 338q8 -8 0 -17l-65 -65l65 -65q8 -9 0 -17l-40 -40q-8 -8 -17 0l-65 65l-65 -65
q-9 -8 -17 0l-40 40q-8 8 0 17l66 65l-66 65q-8 9 0 17l40 40q8 8 17 0l65 -65l65 65q9 8 17 0z" />
</svg>
