<?xml version="1.0" standalone="no"?>
<!DOCTYPE svg PUBLIC "-//W3C//DTD SVG 1.1//EN" "http://www.w3.org/Graphics/SVG/1.1/DTD/svg11.dtd" >
<svg xmlns="http://www.w3.org/2000/svg" xmlns:xlink="http://www.w3.org/1999/xlink" version="1.1" viewBox="-11 0 662 512">
   <path fill="currentColor"
d="M634 458q12 10 3 23l-20 25q-10 12 -22 3l-589 -455q-12 -10 -3 -23l20 -25q10 -12 22 -3l187 145q40 -62 59 -126q7 -22 29.5 -22t28.5 22q16 52 43 99.5t49 74.5t38.5 63.5t16.5 74.5q0 6 -1 17zM144 334q0 -40 19 -78l273 211q-50 45 -116 45q-73 0 -124.5 -52
t-51.5 -126z" />
</svg>
