<?xml version="1.0" standalone="no"?>
<!DOCTYPE svg PUBLIC "-//W3C//DTD SVG 1.1//EN" "http://www.w3.org/Graphics/SVG/1.1/DTD/svg11.dtd" >
<svg xmlns="http://www.w3.org/2000/svg" xmlns:xlink="http://www.w3.org/1999/xlink" version="1.1" viewBox="-10 0 372 512">
   <path fill="currentColor"
d="M205 22q16 52 43 99.5t49 74.5t38.5 63.5t16.5 74.5q0 74 -51.5 126t-124.5 52t-124.5 -52t-51.5 -126q0 -38 16.5 -74t39 -64t49 -75t42.5 -99q7 -22 29.5 -22t28.5 22zM176 448q7 0 11.5 -4.5t4.5 -11.5t-4.5 -11.5t-11.5 -4.5q-33 0 -56.5 -23.5t-23.5 -56.5
q0 -7 -4.5 -11.5t-11.5 -4.5t-11.5 4.5t-4.5 11.5q0 46 33 79t79 33z" />
</svg>
