<?xml version="1.0" standalone="no"?>
<!DOCTYPE svg PUBLIC "-//W3C//DTD SVG 1.1//EN" "http://www.w3.org/Graphics/SVG/1.1/DTD/svg11.dtd" >
<svg xmlns="http://www.w3.org/2000/svg" xmlns:xlink="http://www.w3.org/1999/xlink" version="1.1" viewBox="-10 0 516 512">
   <path fill="currentColor"
d="M248 8q103 0 175.5 72.5t72.5 175.5t-72.5 175.5t-175.5 72.5t-175.5 -72.5t-72.5 -175.5t72.5 -175.5t175.5 -72.5zM282 198q-6 3 -6 10t6 10l80 48q8 5 15 -2.5t0 -15.5l-33 -40l33 -40q3 -4 3 -8.5t-3 -7.5t-7 -4t-8 2zM119 168l33 40l-33 40q-7 8 0 15.5t15 2.5
l80 -48q6 -3 6 -10t-6 -10l-80 -48q-8 -5 -15 2.5t0 15.5zM248 288q-41 0 -79.5 31t-43.5 76q-1 6 1.5 11.5t7 8t8.5 0.5q41 -17 106 -17t106 17q7 3 12.5 -3.5t4.5 -16.5q-5 -45 -43.5 -76t-79.5 -31z" />
</svg>
