<?xml version="1.0" standalone="no"?>
<!DOCTYPE svg PUBLIC "-//W3C//DTD SVG 1.1//EN" "http://www.w3.org/Graphics/SVG/1.1/DTD/svg11.dtd" >
<svg xmlns="http://www.w3.org/2000/svg" xmlns:xlink="http://www.w3.org/1999/xlink" version="1.1" viewBox="-10 0 532 512">
   <path fill="currentColor"
d="M480 192q13 0 22.5 9.5t9.5 22.5v64q0 13 -9.5 22.5t-22.5 9.5h-9q-7 23 -18 43l7 6q9 10 9 23t-9 22l-46 46q-9 9 -22 9t-23 -9l-6 -7q-20 11 -43 18v9q0 13 -9.5 22.5t-22.5 9.5h-64q-13 0 -22.5 -9.5t-9.5 -22.5v-9q-23 -7 -43 -18l-6 7q-10 9 -23 9t-22 -9l-46 -46
q-9 -9 -9 -22t9 -23l7 -6q-11 -20 -18 -43h-9q-13 0 -22.5 -9.5t-9.5 -22.5v-64q0 -13 9.5 -22.5t22.5 -9.5h9q7 -23 18 -43l-7 -6q-9 -10 -9 -23t9 -22l46 -46q9 -9 22 -9t23 9l6 7q20 -11 43 -18v-9q0 -13 9.5 -22.5t22.5 -9.5h64q13 0 22.5 9.5t9.5 22.5v9q23 7 43 18
l6 -7q10 -9 23 -9t22 9l46 46q9 9 9 22t-9 23l-7 6q11 20 18 43h9zM256 384q53 0 90.5 -37.5t37.5 -90.5t-37.5 -90.5t-90.5 -37.5t-90.5 37.5t-37.5 90.5t37.5 90.5t90.5 37.5zM256 160q10 0 17 7t7 17t-7 17t-17 7t-17 -7t-7 -17t7 -17t17 -7zM256 304q10 0 17 7t7 17
t-7 17t-17 7t-17 -7t-7 -17t7 -17t17 -7zM328 232q10 0 17 7t7 17t-7 17t-17 7t-17 -7t-7 -17t7 -17t17 -7zM184 232q10 0 17 7t7 17t-7 17t-17 7t-17 -7t-7 -17t7 -17t17 -7z" />
</svg>
