<?xml version="1.0" standalone="no"?>
<!DOCTYPE svg PUBLIC "-//W3C//DTD SVG 1.1//EN" "http://www.w3.org/Graphics/SVG/1.1/DTD/svg11.dtd" >
<svg xmlns="http://www.w3.org/2000/svg" xmlns:xlink="http://www.w3.org/1999/xlink" version="1.1" viewBox="-10 0 532 512">
   <path fill="currentColor"
d="M256 160q38 0 73 18l-48 66q-13 -4 -25 -4t-25 4l-48 -66q35 -18 73 -18zM96 320q0 -67 48 -114l48 67q-16 21 -16 47v1l-77 25q-3 -16 -3 -26zM320 273l48 -67q48 47 48 114q0 10 -3 26l-77 -25v-1q0 -26 -16 -47zM256 288q13 0 22.5 9.5t9.5 22.5t-9.5 22.5t-22.5 9.5
t-22.5 -9.5t-9.5 -22.5t9.5 -22.5t22.5 -9.5zM480 448q13 0 22.5 9.5t9.5 22.5t-9.5 22.5t-22.5 9.5h-448q-13 0 -22.5 -9.5t-9.5 -22.5t9.5 -22.5t22.5 -9.5h3q-35 -59 -35 -128q0 -106 75 -181t181 -75t181 75t75 181q0 69 -35 128h3zM399 448q49 -55 49 -128
q0 -79 -56.5 -135.5t-135.5 -56.5t-135.5 56.5t-56.5 135.5q0 73 49 128h48q-30 -23 -47 -56l77 -26q15 22 41 30v52h48v-52q26 -8 41 -30l77 26q-17 33 -47 56h48z" />
</svg>
