<?xml version="1.0" standalone="no"?>
<!DOCTYPE svg PUBLIC "-//W3C//DTD SVG 1.1//EN" "http://www.w3.org/Graphics/SVG/1.1/DTD/svg11.dtd" >
<svg xmlns="http://www.w3.org/2000/svg" xmlns:xlink="http://www.w3.org/1999/xlink" version="1.1" viewBox="-10 0 532 512">
   <path fill="currentColor"
d="M256 0q106 0 181 75t75 181t-75 181t-181 75t-181 -75t-75 -181t75 -181t181 -75zM256 448q79 0 135.5 -56.5t56.5 -135.5t-56.5 -135.5t-135.5 -56.5t-135.5 56.5t-56.5 135.5t56.5 135.5t135.5 56.5zM176 256v1l-77 25q-3 -16 -3 -26q0 -67 48 -114l48 67
q-16 21 -16 47zM191 302q15 22 41 30v82q-39 -6 -70 -29t-48 -57zM256 176q-12 0 -25 4l-48 -66q35 -18 73 -18t73 18l-48 66q-13 -4 -25 -4zM368 142q48 47 48 114q0 10 -3 26l-77 -25v-1q0 -26 -16 -47zM280 332q26 -8 41 -30l77 26q-17 34 -48 57t-70 29v-82zM256 224
q13 0 22.5 9.5t9.5 22.5t-9.5 22.5t-22.5 9.5t-22.5 -9.5t-9.5 -22.5t9.5 -22.5t22.5 -9.5z" />
</svg>
