<?xml version="1.0" standalone="no"?>
<!DOCTYPE svg PUBLIC "-//W3C//DTD SVG 1.1//EN" "http://www.w3.org/Graphics/SVG/1.1/DTD/svg11.dtd" >
<svg xmlns="http://www.w3.org/2000/svg" xmlns:xlink="http://www.w3.org/1999/xlink" version="1.1" viewBox="-10 0 532 512">
   <path fill="currentColor"
d="M474 142q38 65 38 142q0 112 -80 196v16q0 7 -4.5 11.5t-11.5 4.5h-32q-7 0 -11.5 -4.5t-4.5 -11.5v-16h-32v16q0 7 -4.5 11.5t-11.5 4.5h-32q-7 0 -11.5 -4.5t-4.5 -11.5v-16h-32v16q0 7 -4.5 11.5t-11.5 4.5h-32q-7 0 -11.5 -4.5t-4.5 -11.5v-16h-32v16q0 7 -4.5 11.5
t-11.5 4.5h-32q-7 0 -11.5 -4.5t-4.5 -11.5v-16q-80 -84 -80 -196q0 -77 38 -142q26 -47 26 -96v-29q0 -7 4.5 -12t11.5 -5h32q7 0 11.5 4.5t4.5 11.5v48q0 48 -35 109q-29 51 -29 111q0 63 36 118q9 14 26 14h260q17 0 26 -14q36 -55 36 -118q0 -60 -29 -111
q-35 -61 -35 -109v-48q0 -7 4.5 -11.5t11.5 -4.5h32q7 0 11.5 5t4.5 12v29q0 49 26 96zM246 256q-4 0 -7.5 -2t-5.5 -5t-2 -7l-13 -128q-1 -7 4 -12.5t12 -5.5h44q7 0 12 5.5t4 12.5l-13 128q0 6 -4.5 10t-10.5 4h-20zM256 288q13 0 22.5 9.5t9.5 22.5t-9.5 22.5t-22.5 9.5
t-22.5 -9.5t-9.5 -22.5t9.5 -22.5t22.5 -9.5z" />
</svg>
