<?xml version="1.0" standalone="no"?>
<!DOCTYPE svg PUBLIC "-//W3C//DTD SVG 1.1//EN" "http://www.w3.org/Graphics/SVG/1.1/DTD/svg11.dtd" >
<svg xmlns="http://www.w3.org/2000/svg" xmlns:xlink="http://www.w3.org/1999/xlink" version="1.1" viewBox="-11 0 597 512">
   <path fill="currentColor"
d="M128 0h284q-18 19 -31.5 48t-21 66t-7.5 78v172q0 25 -4 49.5t-8 37.5t-13 39q-7 22 -30 22h-281q-8 0 -13 -6.5t-2 -14.5q3 -9 7.5 -22t6.5 -19.5t5 -16t4.5 -15t3 -13t2.5 -13.5t1.5 -13t0.5 -15v-172q0 -80 28 -136t68 -56zM96 224q7 0 11.5 -4.5t4.5 -11.5
t-4.5 -11.5t-11.5 -4.5t-11.5 4.5t-4.5 11.5t4.5 11.5t11.5 4.5zM160 224q7 0 11.5 -4.5t4.5 -11.5t-4.5 -11.5t-11.5 -4.5t-11.5 4.5t-4.5 11.5t4.5 11.5t11.5 4.5zM224 224q7 0 11.5 -4.5t4.5 -11.5t-4.5 -11.5t-11.5 -4.5t-11.5 4.5t-4.5 11.5t4.5 11.5t11.5 4.5z
M288 224q7 0 11.5 -4.5t4.5 -11.5t-4.5 -11.5t-11.5 -4.5t-11.5 4.5t-4.5 11.5t4.5 11.5t11.5 4.5zM480 0q40 0 68 56t28 136t-28 136t-68 56t-68 -56t-28 -136t28 -136t68 -56zM480 256q13 0 22.5 -18.5t9.5 -45.5t-9.5 -45.5t-22.5 -18.5t-22.5 18.5t-9.5 45.5t9.5 45.5
t22.5 18.5z" />
</svg>
