<?xml version="1.0" standalone="no"?>
<!DOCTYPE svg PUBLIC "-//W3C//DTD SVG 1.1//EN" "http://www.w3.org/Graphics/SVG/1.1/DTD/svg11.dtd" >
<svg xmlns="http://www.w3.org/2000/svg" xmlns:xlink="http://www.w3.org/1999/xlink" version="1.1" viewBox="-10 0 532 512">
   <path fill="currentColor"
d="M496 448q7 0 11.5 4.5t4.5 11.5v32q0 7 -4.5 11.5t-11.5 4.5h-480q-7 0 -11.5 -4.5t-4.5 -11.5v-32q0 -7 4.5 -11.5t11.5 -4.5h480zM448 192v224h-384v-224q0 -80 56 -136t136 -56t136 56t56 136zM352 184v-16q0 -7 -4.5 -11.5t-11.5 -4.5h-56v-48q0 -7 -4.5 -11.5
t-11.5 -4.5h-16q-7 0 -11.5 4.5t-4.5 11.5v48h-56q-7 0 -11.5 4.5t-4.5 11.5v16q0 7 4.5 11.5t11.5 4.5h56v128q0 7 4.5 11.5t11.5 4.5h16q7 0 11.5 -4.5t4.5 -11.5v-128h56q7 0 11.5 -4.5t4.5 -11.5z" />
</svg>
