<?xml version="1.0" standalone="no"?>
<!DOCTYPE svg PUBLIC "-//W3C//DTD SVG 1.1//EN" "http://www.w3.org/Graphics/SVG/1.1/DTD/svg11.dtd" >
<svg xmlns="http://www.w3.org/2000/svg" xmlns:xlink="http://www.w3.org/1999/xlink" version="1.1" viewBox="-10 0 532 512">
   <path fill="currentColor"
d="M503 215q9 9 9 22v83h-128v-16q0 -7 -4.5 -11.5t-11.5 -4.5h-32q-7 0 -11.5 4.5t-4.5 11.5v16h-128v-16q0 -7 -4.5 -11.5t-11.5 -4.5h-32q-7 0 -11.5 4.5t-4.5 11.5v16h-128v-83q0 -13 9 -22l46 -46q9 -9 22 -9h51v-80q0 -20 14 -34t34 -14h160q20 0 34 14t14 34v80h51
q13 0 22 9zM320 160v-64h-128v64h128zM384 368v-16h128v96q0 13 -9.5 22.5t-22.5 9.5h-448q-13 0 -22.5 -9.5t-9.5 -22.5v-96h128v16q0 7 4.5 11.5t11.5 4.5h32q7 0 11.5 -4.5t4.5 -11.5v-16h128v16q0 7 4.5 11.5t11.5 4.5h32q7 0 11.5 -4.5t4.5 -11.5z" />
</svg>
