<?xml version="1.0" standalone="no"?>
<!DOCTYPE svg PUBLIC "-//W3C//DTD SVG 1.1//EN" "http://www.w3.org/Graphics/SVG/1.1/DTD/svg11.dtd" >
<svg xmlns="http://www.w3.org/2000/svg" xmlns:xlink="http://www.w3.org/1999/xlink" version="1.1" viewBox="-11 0 470 512">
   <path fill="currentColor"
d="M444 96q15 62 -22 111q-30 40 -36 107q-8 83 -21 140l-8 34q-2 11 -10.5 17.5t-18.5 6.5q-7 0 -13 -3t-10.5 -8t-6.5 -12l-34 -139q-4 -13 -15 -22t-25 -9t-25 9t-15 22l-34 139q-3 10 -11 16.5t-18.5 6.5t-19 -6.5t-10.5 -17.5l-8 -34q-13 -57 -21 -140q-6 -67 -36 -107
q-37 -50 -22 -111q8 -34 33 -59.5t59 -33.5q32 -9 67 10l100 64q6 4 12.5 2.5t9.5 -6.5q9 -14 -4 -22l-29 -19q10 -4 11 -5q48 -35 89 -24q34 8 59 33.5t33 59.5z" />
</svg>
