<?xml version="1.0" standalone="no"?>
<!DOCTYPE svg PUBLIC "-//W3C//DTD SVG 1.1//EN" "http://www.w3.org/Graphics/SVG/1.1/DTD/svg11.dtd" >
<svg xmlns="http://www.w3.org/2000/svg" xmlns:xlink="http://www.w3.org/1999/xlink" version="1.1" viewBox="-10 0 533 512">
   <path fill="currentColor"
d="M394 96q-13 46 11 85h-350q-29 -37 -43 -85h382zM429 25q-13 20 -23 39h-401q-4 -25 -5 -48q0 -6 4.5 -11t11.5 -5h400q10 0 14.5 8.5t-1.5 16.5zM299 331h213q1 37 -34 85h-126q2 -51 -53 -85zM430 213q7 8 20.5 21t22 21t17.5 20t14 24h-269q-3 -2 -9 -5
q-99 -43 -141 -81h345zM332 489q10 -21 15 -41h105q-25 27 -57 56q-9 8 -21 8h-28q-9 0 -13.5 -7.5t-0.5 -15.5z" />
</svg>
