<?xml version="1.0" standalone="no"?>
<!DOCTYPE svg PUBLIC "-//W3C//DTD SVG 1.1//EN" "http://www.w3.org/Graphics/SVG/1.1/DTD/svg11.dtd" >
<svg xmlns="http://www.w3.org/2000/svg" xmlns:xlink="http://www.w3.org/1999/xlink" version="1.1" viewBox="-10 0 660 512">
   <path fill="currentColor"
d="M528 336q36 0 62 26t26 62t-26 62t-62 26t-62 -26t-26 -62t26 -62t62 -26zM528 448q10 0 17 -7t7 -17t-7 -17t-17 -7t-17 7t-7 17t7 17t17 7zM608 160q13 0 22.5 9.5t9.5 22.5v51q0 13 -9 22l-51 51q-25 -12 -52 -12q-59 0 -95 48h-81v6q0 9 -6.5 15.5t-15.5 6.5h-7
q-5 15 -12 29l5 5q6 6 6 15t-6 16l-31 31q-7 6 -16 6t-15 -6l-5 -5q-14 7 -29 12v7q0 9 -6.5 15.5t-15.5 6.5h-44q-9 0 -15.5 -6.5t-6.5 -15.5v-7q-15 -5 -29 -12l-5 5q-6 6 -15 6t-16 -6l-31 -31q-6 -7 -6 -16t6 -15l5 -5q-7 -14 -12 -29h-7q-9 0 -15.5 -6.5t-6.5 -15.5
v-44q0 -9 6.5 -15.5t15.5 -6.5h7q5 -15 12 -29l-5 -5q-6 -6 -6 -15t6 -16l31 -31q14 -13 29 -1v-147q0 -20 14 -34t34 -14h133q9 0 18 4t16 10.5t11 14.5l56 131h102v-40q0 -46 30 -82q4 -6 11.5 -6t12.5 5l22 24q9 10 1 20q-13 17 -13 39v40h64zM176 416q33 0 56.5 -23.5
t23.5 -56.5t-23.5 -56.5t-56.5 -23.5t-56.5 23.5t-23.5 56.5t23.5 56.5t56.5 23.5zM198 160h110l-41 -96h-107v96h38z" />
</svg>
