<?xml version="1.0" standalone="no"?>
<!DOCTYPE svg PUBLIC "-//W3C//DTD SVG 1.1//EN" "http://www.w3.org/Graphics/SVG/1.1/DTD/svg11.dtd" >
<svg xmlns="http://www.w3.org/2000/svg" xmlns:xlink="http://www.w3.org/1999/xlink" version="1.1" viewBox="-10 0 661 512">
   <path fill="currentColor"
d="M261 96q3 0 5.5 1.5t4.5 4.5t1 6v43q0 5 -3.5 8.5t-8.5 3.5h-85v241q0 5 -3.5 8.5t-8.5 3.5h-54q-5 0 -8.5 -3.5t-3.5 -8.5v-241h-85q-5 0 -8.5 -3.5t-3.5 -8.5v-43q0 -12 12 -12h249zM640 403q1 13 -12 13h-54q-11 0 -12 -11l-9 -133v-54h-1q-11 34 -18 54l-30 85
q-3 7 -12 7h-50q-9 0 -11 -7l-31 -85l-18 -54h-1q2 30 0 54l-9 133q-1 11 -12 11h-54q-6 0 -9.5 -4t-2.5 -9l24 -296q1 -11 12 -11h65q9 0 12 8l43 127l16 53h1q9 -32 17 -53l43 -127q3 -8 12 -8h65q11 0 12 11z" />
</svg>
