<?xml version="1.0" standalone="no"?>
<!DOCTYPE svg PUBLIC "-//W3C//DTD SVG 1.1//EN" "http://www.w3.org/Graphics/SVG/1.1/DTD/svg11.dtd" >
<svg xmlns="http://www.w3.org/2000/svg" xmlns:xlink="http://www.w3.org/1999/xlink" version="1.1" viewBox="-10 0 404 512">
   <path fill="currentColor"
d="M192 208q13 0 22.5 9.5t9.5 22.5t-9.5 22.5t-22.5 9.5t-22.5 -9.5t-9.5 -22.5t9.5 -22.5t22.5 -9.5zM192 80q13 0 22.5 9.5t9.5 22.5t-9.5 22.5t-22.5 9.5t-22.5 -9.5t-9.5 -22.5t9.5 -22.5t22.5 -9.5zM384 192q0 12 -3 24t-9 22t-13.5 18.5t-17.5 15t-21 10.5v38h64
q0 21 -8.5 39.5t-24 32t-34.5 19.5q-9 44 -44 72.5t-81 28.5t-81 -28.5t-44 -72.5q-30 -9 -48.5 -34t-18.5 -57h64v-38q-28 -10 -46 -34.5t-18 -55.5h64v-38q-28 -10 -46 -34.5t-18 -55.5h64v-32q0 -13 9.5 -22.5t22.5 -9.5h192q13 0 22.5 9.5t9.5 22.5v32h64q0 20 -8 38.5
t-22.5 32t-33.5 19.5v38h64zM192 416q20 0 34 -14t14 -34t-14 -34t-34 -14t-34 14t-14 34t14 34t34 14zM192 288q20 0 34 -14t14 -34t-14 -34t-34 -14t-34 14t-14 34t14 34t34 14zM192 160q20 0 34 -14t14 -34t-14 -34t-34 -14t-34 14t-14 34t14 34t34 14z" />
</svg>
