<?xml version="1.0" standalone="no"?>
<!DOCTYPE svg PUBLIC "-//W3C//DTD SVG 1.1//EN" "http://www.w3.org/Graphics/SVG/1.1/DTD/svg11.dtd" >
<svg xmlns="http://www.w3.org/2000/svg" xmlns:xlink="http://www.w3.org/1999/xlink" version="1.1" viewBox="-10 0 532 512">
   <path fill="currentColor"
d="M288 64q-13 0 -22.5 -9.5t-9.5 -22.5t9.5 -22.5t22.5 -9.5t22.5 9.5t9.5 22.5t-9.5 22.5t-22.5 9.5zM511.5 51.5q1.5 6.5 -1.5 12.5t-10 8l-228 60v92h176q13 0 22.5 9.5t9.5 22.5v224q0 13 -9.5 22.5t-22.5 9.5h-384q-13 0 -22.5 -9.5t-9.5 -22.5v-224q0 -13 9.5 -22.5
t22.5 -9.5h176v-83l-220 59h-4q-12 0 -15 -12q-2 -6 1.5 -12t9.5 -7l480 -128q6 -2 12 1t7.5 9.5zM176 384v-96h-96v96h96zM336 288v96h96v-96h-96zM304 288h-96v96h96v-96zM192 96q-13 0 -22.5 -9.5t-9.5 -22.5t9.5 -22.5t22.5 -9.5t22.5 9.5t9.5 22.5t-9.5 22.5t-22.5 9.5
z" />
</svg>
