<?xml version="1.0" standalone="no"?>
<!DOCTYPE svg PUBLIC "-//W3C//DTD SVG 1.1//EN" "http://www.w3.org/Graphics/SVG/1.1/DTD/svg11.dtd" >
<svg xmlns="http://www.w3.org/2000/svg" xmlns:xlink="http://www.w3.org/1999/xlink" version="1.1" viewBox="-10 0 500 512">
   <path fill="currentColor"
d="M468 0q12 0 12 12v79q0 8 -7.5 11t-12.5 -2l-17 -17l-81 80q22 35 22 77q0 51 -31.5 90t-80.5 50v28h36q12 0 12 12v40q0 12 -12 12h-36v28q0 12 -12 12h-40q-12 0 -12 -12v-28h-36q-12 0 -12 -12v-40q0 -12 12 -12h36v-28q-32 -7 -57.5 -27t-40 -49.5t-14.5 -63.5
q0 -42 22 -77l-16 -16l-20 20q-9 8 -17 0l-28 -29q-9 -8 0 -17l19 -19l-19 -19l-17 17q-5 5 -12.5 2t-7.5 -11v-79q0 -12 12 -12h79q8 0 11 7.5t-3 12.5l-17 17l20 19l19 -20q9 -8 17 0l29 29q8 8 0 17l-20 20l16 16q35 -22 77 -22t77 22l80 -81l-17 -17q-5 -5 -2 -12.5
t11 -7.5h79zM240 320q33 0 56.5 -23.5t23.5 -56.5t-23.5 -56.5t-56.5 -23.5t-56.5 23.5t-23.5 56.5t23.5 56.5t56.5 23.5z" />
</svg>
