<?xml version="1.0" standalone="no"?>
<!DOCTYPE svg PUBLIC "-//W3C//DTD SVG 1.1//EN" "http://www.w3.org/Graphics/SVG/1.1/DTD/svg11.dtd" >
<svg xmlns="http://www.w3.org/2000/svg" xmlns:xlink="http://www.w3.org/1999/xlink" version="1.1" viewBox="-10 0 468 512">
   <path fill="currentColor"
d="M53 467l-21 -339h384l-21 339q-1 19 -15 32t-33 13h-246q-19 0 -33 -13t-15 -32zM100 278q-4 4 -4 10t4 10l84 82q7 7 15.5 3t8.5 -13v-45q63 1 83.5 22.5t3.5 80.5q-2 6 3.5 10t11.5 0q17 -14 29.5 -37.5t12.5 -48.5q0 -31 -10.5 -52t-31 -32t-44.5 -15.5t-58 -4.5v-42
q0 -9 -8.5 -13t-15.5 3zM432 32q7 0 11.5 4.5t4.5 11.5v32q0 7 -4.5 11.5t-11.5 4.5h-416q-7 0 -11.5 -4.5t-4.5 -11.5v-32q0 -7 4.5 -11.5t11.5 -4.5h120l9 -19q7 -13 22 -13h114q15 0 22 13l9 19h120z" />
</svg>
