<?xml version="1.0" standalone="no"?>
<!DOCTYPE svg PUBLIC "-//W3C//DTD SVG 1.1//EN" "http://www.w3.org/Graphics/SVG/1.1/DTD/svg11.dtd" >
<svg xmlns="http://www.w3.org/2000/svg" xmlns:xlink="http://www.w3.org/1999/xlink" version="1.1" viewBox="-10 0 468 512">
   <path fill="currentColor"
d="M32 464v-336h384v336q0 20 -14 34t-34 14h-288q-20 0 -34 -14t-14 -34zM123 291q-7 8 -3 18.5t15 10.5h57v112q0 7 4.5 11.5t11.5 4.5h32q7 0 11.5 -4.5t4.5 -11.5v-112h57q11 0 15 -10.5t-3 -18.5l-90 -94q-4 -5 -11 -5t-11 5zM432 32q7 0 11.5 4.5t4.5 11.5v32
q0 7 -4.5 11.5t-11.5 4.5h-416q-7 0 -11.5 -4.5t-4.5 -11.5v-32q0 -7 4.5 -11.5t11.5 -4.5h120l9 -19q7 -13 22 -13h114q15 0 22 13l9 19h120z" />
</svg>
