<?xml version="1.0" standalone="no"?>
<!DOCTYPE svg PUBLIC "-//W3C//DTD SVG 1.1//EN" "http://www.w3.org/Graphics/SVG/1.1/DTD/svg11.dtd" >
<svg xmlns="http://www.w3.org/2000/svg" xmlns:xlink="http://www.w3.org/1999/xlink" version="1.1" viewBox="-10 0 596 512">
   <path fill="currentColor"
d="M0 448v-160h96v192h-64q-13 0 -22.5 -9.5t-9.5 -22.5zM0 128q0 -40 28 -68t68 -28v224h-96v-128zM352 336v-48h96v192h-320v-192h96v48q0 7 4.5 11.5t11.5 4.5h96q7 0 11.5 -4.5t4.5 -11.5zM480 480v-192h96v160q0 13 -9.5 22.5t-22.5 9.5h-64zM128 256v-224h320v224h-96
v-48q0 -7 -4.5 -11.5t-11.5 -4.5h-96q-7 0 -11.5 4.5t-4.5 11.5v48h-96zM480 32q40 0 68 28t28 68v128h-96v-224zM304 304q0 7 -4.5 11.5t-11.5 4.5t-11.5 -4.5t-4.5 -11.5v-64q0 -7 4.5 -11.5t11.5 -4.5t11.5 4.5t4.5 11.5v64z" />
</svg>
