<?xml version="1.0" standalone="no"?>
<!DOCTYPE svg PUBLIC "-//W3C//DTD SVG 1.1//EN" "http://www.w3.org/Graphics/SVG/1.1/DTD/svg11.dtd" >
<svg xmlns="http://www.w3.org/2000/svg" xmlns:xlink="http://www.w3.org/1999/xlink" version="1.1" viewBox="-11 0 470 512">
   <path fill="currentColor"
d="M440 456q14 16 5 36t-30 20h-382q-21 0 -30 -20t5 -36l90 -104h-36q-19 0 -27 -17t4 -31l95 -112h-45q-16 0 -22.5 -13t3.5 -24l135 -147q3 -4 8.5 -6t10.5 -2t10.5 2t8.5 6l135 147q10 11 3.5 24t-22.5 13h-45l95 112q12 14 4 31t-27 17h-36zM160 312q10 0 17 -7t7 -17
t-7 -17t-17 -7t-17 7t-7 17t7 17t17 7zM232 160q0 10 7 17t17 7t17 -7t7 -17t-7 -17t-17 -7t-17 7t-7 17zM288 440q10 0 17 -7t7 -17t-7 -17t-17 -7t-17 7t-7 17t7 17t17 7z" />
</svg>
