<?xml version="1.0" standalone="no"?>
<!DOCTYPE svg PUBLIC "-//W3C//DTD SVG 1.1//EN" "http://www.w3.org/Graphics/SVG/1.1/DTD/svg11.dtd" >
<svg xmlns="http://www.w3.org/2000/svg" xmlns:xlink="http://www.w3.org/1999/xlink" version="1.1" viewBox="-10 0 532 512">
   <path fill="currentColor"
d="M496 235q16 24 16 53q0 40 -28 68t-68 28h-128v56l30 49q4 8 -0.5 15.5t-13.5 7.5h-96q-9 0 -13.5 -7.5t-0.5 -15.5l30 -49v-56h-128q-40 0 -68 -28t-28 -68q0 -29 16 -53t43 -35q-14 -24 -10.5 -49.5t20.5 -44t41.5 -24.5t49.5 5q4 -37 31.5 -62t64.5 -25t64.5 25
t31.5 62q25 -11 49.5 -5t41.5 24.5t20.5 44t-9.5 49.5h-1q27 11 43 35z" />
</svg>
