<?xml version="1.0" standalone="no"?>
<!DOCTYPE svg PUBLIC "-//W3C//DTD SVG 1.1//EN" "http://www.w3.org/Graphics/SVG/1.1/DTD/svg11.dtd" >
<svg xmlns="http://www.w3.org/2000/svg" xmlns:xlink="http://www.w3.org/1999/xlink" version="1.1" viewBox="-11 0 662 512">
   <path fill="currentColor"
d="M298 288l80 90q10 11 4 24.5t-21 13.5h-137v24l30 49q4 8 -0.5 15.5t-13.5 7.5h-96q-9 0 -13.5 -7.5t-0.5 -15.5l30 -49v-24h-137q-15 0 -21 -13.5t4 -24.5l80 -90h-31q-15 0 -21 -13t3 -24l79 -91h-29q-15 0 -21 -14q-6 -13 4 -24l110 -117q3 -3 6 -4t6 -1t6 1t6 4
l110 117q10 11 4 24q-6 14 -21 14h-29l79 91q9 11 3 24t-21 13h-31zM634 378q10 11 4 24.5t-21 13.5h-137v24l30 49q4 8 -0.5 15.5t-13.5 7.5h-96q-9 0 -13.5 -7.5t-0.5 -15.5l30 -49v-56q0 -12 -14 -27l-41 -47q12 -8 18 -21q15 -32 -8 -59l-42 -48q13 -9 19 -23
q12 -28 -7 -53l95 -101q5 -5 12 -5t12 5l110 117q10 11 4 24q-6 14 -21 14h-29l79 91q9 11 3 24t-21 13h-31z" />
</svg>
