<?xml version="1.0" standalone="no"?>
<!DOCTYPE svg PUBLIC "-//W3C//DTD SVG 1.1//EN" "http://www.w3.org/Graphics/SVG/1.1/DTD/svg11.dtd" >
<svg xmlns="http://www.w3.org/2000/svg" xmlns:xlink="http://www.w3.org/1999/xlink" version="1.1" viewBox="-10 0 660 512">
   <path fill="currentColor"
d="M599 393l36 37q5 5 5 11.5t-5 11.5l-22 22q-5 5 -11.5 5t-11.5 -5l-37 -36q-35 -35 -40 -87h-39q6 17 6 32q0 40 -28 68t-68 28t-68 -28t-28 -68q0 -15 6 -32h-76q6 17 6 32q0 40 -28 68t-68 28t-68 -28t-28 -68q0 -15 6 -32h-6q-13 0 -22.5 -9.5t-9.5 -22.5v-96
q0 -13 9.5 -22.5t22.5 -9.5h96v-120q0 -17 11.5 -28.5t28.5 -11.5h111q27 0 41 23l82 137h46q13 0 22.5 9.5t9.5 22.5v64h32v-51q0 -58 41 -100l37 -36q5 -5 11.5 -5t11.5 5l22 22q5 5 5 11.5t-5 11.5l-36 37q-23 22 -23 54v102q0 32 23 54zM192 96v96h136l-58 -96h-78z
M160 384q0 -13 -9.5 -22.5t-22.5 -9.5t-22.5 9.5t-9.5 22.5t9.5 22.5t22.5 9.5t22.5 -9.5t9.5 -22.5zM384 416q13 0 22.5 -9.5t9.5 -22.5t-9.5 -22.5t-22.5 -9.5t-22.5 9.5t-9.5 22.5t9.5 22.5t22.5 9.5z" />
</svg>
