<?xml version="1.0" standalone="no"?>
<!DOCTYPE svg PUBLIC "-//W3C//DTD SVG 1.1//EN" "http://www.w3.org/Graphics/SVG/1.1/DTD/svg11.dtd" >
<svg xmlns="http://www.w3.org/2000/svg" xmlns:xlink="http://www.w3.org/1999/xlink" version="1.1" viewBox="-10 0 660 512">
   <path fill="currentColor"
d="M624 224q7 0 11.5 4.5t4.5 11.5v32q0 7 -4.5 11.5t-11.5 4.5h-17q-14 -20 -33.5 -34t-43.5 -22t-50 -8q-38 0 -71.5 17t-55.5 47h-66q-22 -30 -55.5 -47t-71.5 -17t-71.5 17t-55.5 47h-17q-7 0 -11.5 -4.5t-4.5 -11.5v-32q0 -7 4.5 -11.5t11.5 -4.5h16v-80
q0 -7 4.5 -11.5t11.5 -4.5h176v-96q0 -13 9.5 -22.5t22.5 -9.5h113q13 0 27.5 7t22.5 17l83 104h74q13 0 22.5 9.5t9.5 22.5v64h16zM288 128h132l-51 -64h-81v64zM592 352q3 0 6 1.5t5 3.5t3.5 5t1.5 6v32q0 7 -4.5 11.5t-11.5 4.5h-5q-3 11 -9 21l4 4q11 11 0 22l-23 23
q-11 11 -22 0l-4 -4q-10 5 -21 9v5q0 7 -4.5 11.5t-11.5 4.5h-32q-7 0 -11.5 -4.5t-4.5 -11.5v-5q-11 -3 -21 -9l-4 4q-11 11 -22 0l-23 -23q-11 -11 0 -22l4 -4q-5 -10 -9 -21h-5q-7 0 -11.5 -4.5t-4.5 -11.5v-32q0 -7 4.5 -11.5t11.5 -4.5h5q3 -11 9 -21l-4 -4
q-11 -11 0 -22l23 -23q11 -11 22 0l4 4q10 -5 21 -9v-5q0 -7 4.5 -11.5t11.5 -4.5h32q7 0 11.5 4.5t4.5 11.5v5q11 3 21 9l4 -4q11 -11 22 0l23 23q11 11 0 22l-4 4q5 10 9 21h5zM480 432q20 0 34 -14t14 -34t-14 -34t-34 -14t-34 14t-14 34t14 34t34 14zM272 352
q7 0 11.5 4.5t4.5 11.5v32q0 4 -2 8t-6 6t-8 2h-5q-3 11 -9 21l4 4q11 11 0 22l-23 23q-11 11 -22 0l-4 -4q-10 5 -21 9v5q0 7 -4.5 11.5t-11.5 4.5h-32q-7 0 -11.5 -4.5t-4.5 -11.5v-5q-11 -4 -21 -9l-4 4q-11 11 -22 0l-23 -23q-11 -11 0 -22l4 -4q-5 -10 -9 -21h-5
q-7 0 -11.5 -4.5t-4.5 -11.5v-32q0 -7 4.5 -11.5t11.5 -4.5h5q3 -11 9 -21l-4 -4q-11 -11 0 -22l23 -23q11 -11 22 0l4 4q10 -5 21 -9v-5q0 -7 4.5 -11.5t11.5 -4.5h32q7 0 11.5 4.5t4.5 11.5v5q11 3 21 9l4 -4q11 -11 22 0l23 23q11 11 0 22l-4 4q5 10 9 21h5zM160 432
q20 0 34 -14t14 -34t-14 -34t-34 -14t-34 14t-14 34t14 34t34 14z" />
</svg>
