<?xml version="1.0" standalone="no"?>
<!DOCTYPE svg PUBLIC "-//W3C//DTD SVG 1.1//EN" "http://www.w3.org/Graphics/SVG/1.1/DTD/svg11.dtd" >
<svg xmlns="http://www.w3.org/2000/svg" xmlns:xlink="http://www.w3.org/1999/xlink" version="1.1" viewBox="-10 0 660 512">
   <path fill="currentColor"
d="M621 237q19 19 19 46v85q0 7 -4.5 11.5t-11.5 4.5h-18q2 8 2 16q0 25 -14 45.5t-37 29.5t-49 3q-19 -5 -34 -19t-22 -32q-7 -22 -2 -43h-164q5 21 -2 43q-7 18 -21.5 32t-33.5 18q-25 7 -48 -1.5t-37 -27.5q-28 38 -75 31q-30 -4 -49.5 -28t-19.5 -55v-28
q0 -13 9.5 -22.5t22.5 -9.5h400v-144q0 -13 9.5 -22.5t22.5 -9.5h54q26 0 45 19zM80 432q13 0 22.5 -9.5t9.5 -22.5t-9.5 -22.5t-22.5 -9.5t-22.5 9.5t-9.5 22.5t9.5 22.5t22.5 9.5zM208 432q13 0 22.5 -9.5t9.5 -22.5t-9.5 -22.5t-22.5 -9.5t-22.5 9.5t-9.5 22.5t9.5 22.5
t22.5 9.5zM528 432q13 0 22.5 -9.5t9.5 -22.5t-9.5 -22.5t-22.5 -9.5t-22.5 9.5t-9.5 22.5t9.5 22.5t22.5 9.5zM480 256h92l-43 -43q-5 -5 -11 -5h-38v48zM32 304q-13 0 -22.5 -9.5t-9.5 -22.5v-208q0 -13 9.5 -22.5t22.5 -9.5h336q13 0 22.5 9.5t9.5 22.5v208
q0 13 -9.5 22.5t-22.5 9.5h-336zM304 80v176h32v-176h-32zM224 80v176h32v-176h-32zM144 80v176h32v-176h-32zM64 80v176h32v-176h-32z" />
</svg>
