<?xml version="1.0" standalone="no"?>
<!DOCTYPE svg PUBLIC "-//W3C//DTD SVG 1.1//EN" "http://www.w3.org/Graphics/SVG/1.1/DTD/svg11.dtd" >
<svg xmlns="http://www.w3.org/2000/svg" xmlns:xlink="http://www.w3.org/1999/xlink" version="1.1" viewBox="-10 0 660 512">
   <path fill="currentColor"
d="M621 237q19 19 19 45v86q0 7 -4.5 11.5t-11.5 4.5h-18q2 8 2 16q0 33 -23.5 56.5t-56.5 23.5t-56.5 -23.5t-23.5 -56.5q0 -8 2 -16h-164q2 8 2 16q0 33 -23.5 56.5t-56.5 23.5q-40 0 -64 -32q-24 32 -64 32q-33 0 -56.5 -23.5t-23.5 -56.5v-336q0 -13 9.5 -22.5
t22.5 -9.5h416q13 0 22.5 9.5t9.5 22.5v96h38q26 0 45 19zM80 432q13 0 22.5 -9.5t9.5 -22.5t-9.5 -22.5t-22.5 -9.5t-22.5 9.5t-9.5 22.5t9.5 22.5t22.5 9.5zM208 432q13 0 22.5 -9.5t9.5 -22.5t-9.5 -22.5t-22.5 -9.5t-22.5 9.5t-9.5 22.5t9.5 22.5t22.5 9.5zM480 208v48
h92l-43 -43q-5 -5 -11 -5h-38zM528 432q13 0 22.5 -9.5t9.5 -22.5t-9.5 -22.5t-22.5 -9.5t-22.5 9.5t-9.5 22.5t9.5 22.5t22.5 9.5z" />
</svg>
