<?xml version="1.0" standalone="no"?>
<!DOCTYPE svg PUBLIC "-//W3C//DTD SVG 1.1//EN" "http://www.w3.org/Graphics/SVG/1.1/DTD/svg11.dtd" >
<svg xmlns="http://www.w3.org/2000/svg" xmlns:xlink="http://www.w3.org/1999/xlink" version="1.1" viewBox="-11 0 661 512">
   <path fill="currentColor"
d="M50 376l-49 -186q-2 -4 -0.5 -8t4.5 -7t7 -5l77 -20l25 92l62 -16l-25 -93l77 -21q3 0 6.5 0.5t6 2t4.5 4t3 5.5l50 185q1 7 -2 12.5t-10 7.5l-216 58q-7 2 -12.5 -1.5t-7.5 -9.5zM384 0h256v400q0 46 -33 79t-79 33q-45 0 -77.5 -31.5t-34.5 -76.5l-393 108q-8 2 -10 -6
l-13 -46q-2 -8 6 -10l346 -94v-324q0 -13 9.5 -22.5t22.5 -9.5zM528 448q20 0 34 -14t14 -34t-14 -34t-34 -14t-34 14t-14 34t14 34t34 14z" />
</svg>
