<?xml version="1.0" standalone="no"?>
<!DOCTYPE svg PUBLIC "-//W3C//DTD SVG 1.1//EN" "http://www.w3.org/Graphics/SVG/1.1/DTD/svg11.dtd" >
<svg xmlns="http://www.w3.org/2000/svg" xmlns:xlink="http://www.w3.org/1999/xlink" version="1.1" viewBox="-10 0 660 512">
   <path fill="currentColor"
d="M624 64q5 0 10.5 4t5.5 12v288q0 16 -16 16q-9 0 -13 -7q-27 -37 -70 -74q-22 -19 -49 -33q-26 -14 -60 -14h-32v128h16q13 0 22.5 -9.5t9.5 -22.5v-62q18 2 29 8q19 10 35 23v31q0 40 -28 68t-68 28h-224q-53 0 -90.5 -37.5t-37.5 -90.5q0 -33 18 -64h-34q0 7 -4.5 11.5
t-11.5 4.5h-16q-7 0 -11.5 -4.5t-4.5 -11.5v-64q0 -7 4.5 -11.5t11.5 -4.5h16q7 0 11.5 4.5t4.5 11.5h128v-32q0 -7 4.5 -11.5t11.5 -4.5h16q7 0 11.5 4.5t4.5 11.5v32h40v-32q0 -7 4.5 -11.5t11.5 -4.5h16q7 0 11.5 4.5t4.5 11.5v32h40v-32q0 -7 4.5 -11.5t11.5 -4.5h16
q7 0 11.5 4.5t4.5 11.5v32h32q35 0 60 -14q27 -14 53 -36q36 -33 66 -71q5 -7 13 -7zM176 382v-124q-10 3 -19 9t-15 14.5t-10 18.5t-4 20q0 21 14 39t34 23zM264 384v-128h-40v128h40zM352 384v-128h-40v128h40z" />
</svg>
