<?xml version="1.0" standalone="no"?>
<!DOCTYPE svg PUBLIC "-//W3C//DTD SVG 1.1//EN" "http://www.w3.org/Graphics/SVG/1.1/DTD/svg11.dtd" >
<svg xmlns="http://www.w3.org/2000/svg" xmlns:xlink="http://www.w3.org/1999/xlink" version="1.1" viewBox="-10 0 660 512">
   <path fill="currentColor"
d="M631 96q6 3 8 9.5t-1 12.5l-57 114q-3 6 -9.5 8.5t-11.5 -0.5l-57 -28q-8 -4 -15.5 0.5t-7.5 13.5v254q0 13 -9.5 22.5t-22.5 9.5h-256q-13 0 -22.5 -9.5t-9.5 -22.5v-254q0 -9 -7.5 -13.5t-15.5 -0.5l-57 28q-6 3 -12 0.5t-9 -8.5l-57 -114q-3 -6 -1 -12.5t8 -9.5
l195 -96q15 21 46.5 34t69.5 13t69.5 -13t46.5 -34z" />
</svg>
