<?xml version="1.0" standalone="no"?>
<!DOCTYPE svg PUBLIC "-//W3C//DTD SVG 1.1//EN" "http://www.w3.org/Graphics/SVG/1.1/DTD/svg11.dtd" >
<svg xmlns="http://www.w3.org/2000/svg" xmlns:xlink="http://www.w3.org/1999/xlink" version="1.1" viewBox="-10 0 533 512">
   <path fill="currentColor"
d="M5 104q68 -68 159.5 -92.5t183 0t159.5 92.5q10 10 2 23l-43 69q-5 8 -16 8q-3 0 -6 -1l-87 -35q-11 -4 -11 -17v-1l6 -60q-96 -35 -192 0l6 60v1q0 13 -11 17l-87 35q-3 1 -6 1q-11 0 -16 -8l-43 -69q-3 -5 -3 -10q0 -8 5 -13zM96 308q0 12 -12 12h-40q-12 0 -12 -12
v-40q0 -12 12 -12h40q12 0 12 12v40zM192 308q0 12 -12 12h-40q-12 0 -12 -12v-40q0 -12 12 -12h40q12 0 12 12v40zM288 308q0 12 -12 12h-40q-12 0 -12 -12v-40q0 -12 12 -12h40q12 0 12 12v40zM384 308q0 12 -12 12h-40q-12 0 -12 -12v-40q0 -12 12 -12h40q12 0 12 12v40z
M480 308q0 12 -12 12h-40q-12 0 -12 -12v-40q0 -12 12 -12h40q12 0 12 12v40zM144 404q0 12 -12 12h-40q-12 0 -12 -12v-40q0 -12 12 -12h40q12 0 12 12v40zM240 404q0 12 -12 12h-40q-12 0 -12 -12v-40q0 -12 12 -12h40q12 0 12 12v40zM336 404q0 12 -12 12h-40
q-12 0 -12 -12v-40q0 -12 12 -12h40q12 0 12 12v40zM432 404q0 12 -12 12h-40q-12 0 -12 -12v-40q0 -12 12 -12h40q12 0 12 12v40zM96 500q0 12 -12 12h-40q-12 0 -12 -12v-40q0 -12 12 -12h40q12 0 12 12v40zM384 500q0 12 -12 12h-232q-12 0 -12 -12v-40q0 -12 12 -12h232
q12 0 12 12v40zM480 500q0 12 -12 12h-40q-12 0 -12 -12v-40q0 -12 12 -12h40q12 0 12 12v40z" />
</svg>
