<?xml version="1.0" standalone="no"?>
<!DOCTYPE svg PUBLIC "-//W3C//DTD SVG 1.1//EN" "http://www.w3.org/Graphics/SVG/1.1/DTD/svg11.dtd" >
<svg xmlns="http://www.w3.org/2000/svg" xmlns:xlink="http://www.w3.org/1999/xlink" version="1.1" viewBox="-10 0 660 512">
   <path fill="currentColor"
d="M596 84q25 4 37 26t3 46q-5 14 -18 23.5t-29 10.5h-2q-15 0 -28 -9q-27 -17 -49 -1q-66 46 -91 120q-11 34 -37.5 57t-59.5 26q-7 1 -13 1q-42 0 -73.5 -25.5t-40.5 -64.5q-1 -6 -7 -6h-17q-8 0 -8 8v1q6 31 24 56q44 63 122 63q8 0 16 -1q42 -4 76 -32.5t49 -72.5
q7 -22 25 -48.5t36 -41.5q65 85 65 164q0 28 -10 49.5t-30 35t-44 22.5t-59 13.5t-68 6t-77 1.5t-77 -1.5t-68 -6t-59 -13.5t-44 -22.5t-30 -35t-10 -49.5q0 -59 38 -125t106.5 -114.5t143.5 -48.5q65 0 127 38q21 -9 48 -28q21 -14 15 -41q-1 -6 -1 -12q0 -5 1 -9
q3 -18 18 -31t34 -13q8 0 17 3q14 5 24 17.5t12 28.5v5q0 17 -11 31q8 -2 15 -2q5 0 9 1z" />
</svg>
