<?xml version="1.0" standalone="no"?>
<!DOCTYPE svg PUBLIC "-//W3C//DTD SVG 1.1//EN" "http://www.w3.org/Graphics/SVG/1.1/DTD/svg11.dtd" >
<svg xmlns="http://www.w3.org/2000/svg" xmlns:xlink="http://www.w3.org/1999/xlink" version="1.1" viewBox="-10 0 596 512">
   <path fill="currentColor"
d="M68 256q-17 0 -28 -12.5t-7 -27.5q17 -57 66.5 -104.5t108.5 -47.5q40 0 78 24t62 58t35 70q4 15 -7 27.5t-28 12.5h-280zM552 137q10 7 17 20.5t7 25.5q0 24 -16.5 40.5t-40.5 16.5h-40q-5 35 -25.5 62t-54.5 40l47 82q3 6 2 11t-5.5 9t-10.5 4h-37q-9 0 -14 -8l-40 -70
q-42 14 -85 14t-85 -14l-40 70q-5 8 -14 8h-37q-9 0 -13.5 -8t-0.5 -16l45 -78l-98 -22q-13 -4 -13 -17q0 -8 5.5 -13.5t13.5 -5.5h332q32 0 52 -25q13 -18 13 -39v-71q0 -5 1 -10q5 -29 32.5 -41.5t54.5 0.5zM480 176q7 0 11.5 -4.5t4.5 -11.5t-4.5 -11.5t-11.5 -4.5
t-11.5 4.5t-4.5 11.5t4.5 11.5t11.5 4.5z" />
</svg>
