<?xml version="1.0" standalone="no"?>
<!DOCTYPE svg PUBLIC "-//W3C//DTD SVG 1.1//EN" "http://www.w3.org/Graphics/SVG/1.1/DTD/svg11.dtd" >
<svg xmlns="http://www.w3.org/2000/svg" xmlns:xlink="http://www.w3.org/1999/xlink" version="1.1" viewBox="-10 0 660 512">
   <path fill="currentColor"
d="M512 448q13 0 22.5 9.5t9.5 22.5t-9.5 22.5t-22.5 9.5h-384q-13 0 -22.5 -9.5t-9.5 -22.5t9.5 -22.5t22.5 -9.5h384zM240 320q-20 0 -34 -9.5t-14 -22.5t14 -22.5t34 -9.5q8 0 16 2v-99q0 -11 11 -15l128 -47q3 -1 5 -1q4 0 8 2t6 6t2 8v144q0 13 -14 22.5t-34 9.5
t-34 -9.5t-14 -22.5t14 -22.5t34 -9.5q8 0 16 2v-60l-96 37v85q0 13 -14 22.5t-34 9.5zM592 0q20 0 34 14t14 34v320q0 20 -14 34t-34 14h-544q-20 0 -34 -14t-14 -34v-320q0 -20 14 -34t34 -14h544zM576 352v-288h-512v288h512z" />
</svg>
