<?xml version="1.0" standalone="no"?>
<!DOCTYPE svg PUBLIC "-//W3C//DTD SVG 1.1//EN" "http://www.w3.org/Graphics/SVG/1.1/DTD/svg11.dtd" >
<svg xmlns="http://www.w3.org/2000/svg" xmlns:xlink="http://www.w3.org/1999/xlink" version="1.1" viewBox="-10 0 532 512">
   <path fill="currentColor"
d="M480 192q13 0 22.5 9.5t9.5 22.5v32q0 13 -9.5 22.5t-22.5 9.5v160q0 26 -19 45t-45 19h-320q-26 0 -45 -19t-19 -45v-160q-13 0 -22.5 -9.5t-9.5 -22.5v-32q0 -13 9.5 -22.5t22.5 -9.5h32v-160q0 -13 9.5 -22.5t22.5 -9.5h275q13 0 22 9l46 46q9 9 9 22v115h32zM128 64
v128h19q13 0 22 9l14 14q9 9 22 9h102q13 0 22 -9l14 -14q9 -9 22 -9h19v-64h-48q-7 0 -11.5 -4.5t-4.5 -11.5v-48h-192zM368 296q0 -8 -8 -8h-16q-8 0 -8 8v16q0 8 8 8h16q8 0 8 -8v-16zM304 360v16q0 8 8 8h16q8 0 8 -8v-16q0 -8 -8 -8h-16q-8 0 -8 8zM296 320q8 0 8 -8
v-16q0 -8 -8 -8h-16q-8 0 -8 8v16q0 8 8 8h16zM240 360v16q0 8 8 8h16q8 0 8 -8v-16q0 -8 -8 -8h-16q-8 0 -8 8zM232 320q8 0 8 -8v-16q0 -8 -8 -8h-16q-8 0 -8 8v16q0 8 8 8h16zM176 360v16q0 8 8 8h16q8 0 8 -8v-16q0 -8 -8 -8h-16q-8 0 -8 8zM168 320q8 0 8 -8v-16
q0 -8 -8 -8h-16q-8 0 -8 8v16q0 8 8 8h16zM104 320q8 0 8 -8v-16q0 -8 -8 -8h-16q-8 0 -8 8v16q0 8 8 8h16zM136 384q8 0 8 -8v-16q0 -8 -8 -8h-16q-8 0 -8 8v16q0 8 8 8h16zM368 440v-16q0 -8 -8 -8h-208q-8 0 -8 8v16q0 8 8 8h208q8 0 8 -8zM400 376v-16q0 -8 -8 -8h-16
q-8 0 -8 8v16q0 8 8 8h16q8 0 8 -8zM432 312v-16q0 -8 -8 -8h-16q-8 0 -8 8v16q0 8 8 8h16q8 0 8 -8z" />
</svg>
