<?xml version="1.0" standalone="no"?>
<!DOCTYPE svg PUBLIC "-//W3C//DTD SVG 1.1//EN" "http://www.w3.org/Graphics/SVG/1.1/DTD/svg11.dtd" >
<svg xmlns="http://www.w3.org/2000/svg" xmlns:xlink="http://www.w3.org/1999/xlink" version="1.1" viewBox="-10 0 661 512">
   <path fill="currentColor"
d="M115 137q-7 -3 -9.5 -11t2.5 -14q45 -56 111 -85.5t137 -26.5q-39 23 -75.5 68t-63.5 106zM248 185q33 -76 81 -123.5t91 -47.5q13 0 23 4q46 17 58 90t-15 164zM521 60q58 44 89.5 109t29.5 137q0 8 -7 12.5t-15 1.5l-102 -37q27 -93 19 -167q-4 -30 -14 -56zM560 448
q7 0 11.5 4.5t4.5 11.5v32q0 7 -4.5 11.5t-11.5 4.5h-544q-7 0 -11.5 -4.5t-4.5 -11.5v-32q0 -7 4.5 -11.5t11.5 -4.5h237l73 -200l60 22l-65 178h239z" />
</svg>
