<?xml version="1.0" standalone="no"?>
<!DOCTYPE svg PUBLIC "-//W3C//DTD SVG 1.1//EN" "http://www.w3.org/Graphics/SVG/1.1/DTD/svg11.dtd" >
<svg xmlns="http://www.w3.org/2000/svg" xmlns:xlink="http://www.w3.org/1999/xlink" version="1.1" viewBox="-11 0 598 512">
   <path fill="currentColor"
d="M576 281q1 8 -5 13t-14 -2q-26 -28 -52.5 -34.5t-54 11t-52.5 60.5q-4 7 -10 7t-9 -7l-2 -3.5t-4 -7.5t-6 -10t-8 -11.5t-9.5 -11.5t-12.5 -11t-14.5 -9t-16.5 -6.5t-18 -2.5q-31 0 -51 19.5t-40 53.5q-3 7 -9 7t-10 -7q-25 -43 -52.5 -61t-53.5 -11t-53 35q-8 7 -14 2
t-5 -13q21 -99 92.5 -160t163.5 -71v-18q0 -13 9.5 -22.5t22.5 -9.5t22.5 9.5t9.5 22.5v18q92 10 163.5 71t92.5 160zM256 302q15 -14 32 -14q16 0 32 14v130q0 33 -23.5 56.5t-56.5 23.5q-25 0 -46 -14.5t-29 -38.5q-5 -13 1 -25t18.5 -16.5t24 1.5t16.5 18q4 11 15 11
q7 0 11.5 -4.5t4.5 -11.5v-130z" />
</svg>
