<?xml version="1.0" standalone="no"?>
<!DOCTYPE svg PUBLIC "-//W3C//DTD SVG 1.1//EN" "http://www.w3.org/Graphics/SVG/1.1/DTD/svg11.dtd" >
<svg xmlns="http://www.w3.org/2000/svg" xmlns:xlink="http://www.w3.org/1999/xlink" version="1.1" viewBox="-10 0 522 512">
   <path fill="currentColor"
d="M496 128v16q0 8 -8 8h-24v12q0 12 -12 12h-392q-12 0 -12 -12v-12h-24q-8 0 -8 -8v-16q0 -5 5 -7l232 -88q1 -1 3 -1t3 1l232 88q5 2 5 7zM472 432q10 0 17 7t7 17v16q0 8 -8 8h-464q-8 0 -8 -8v-16q0 -10 7 -17t17 -7h432zM96 192h64v192h64v-192h64v192h64v-192h64v192
h36q12 0 12 12v20h-416v-20q0 -12 12 -12h36v-192z" />
</svg>
