<?xml version="1.0" standalone="no"?>
<!DOCTYPE svg PUBLIC "-//W3C//DTD SVG 1.1//EN" "http://www.w3.org/Graphics/SVG/1.1/DTD/svg11.dtd" >
<svg xmlns="http://www.w3.org/2000/svg" xmlns:xlink="http://www.w3.org/1999/xlink" version="1.1" viewBox="-10 0 524 512">
   <path fill="currentColor"
d="M256 48q-86 0 -147 61t-61 147t61 147t147 61t147 -61t61 -147t-61 -147t-147 -61zM256 8q103 0 175.5 72.5t72.5 175.5t-72.5 175.5t-175.5 72.5t-175.5 -72.5t-72.5 -175.5t72.5 -175.5t175.5 -72.5zM256 64q80 0 136 56t56 136t-56 136t-136 56t-136 -56t-56 -136
t56 -136t136 -56zM256 108q-15 0 -25.5 10.5t-10.5 25.5t10.5 25.5t25.5 10.5t25.5 -10.5t10.5 -25.5t-10.5 -25.5t-25.5 -10.5zM374 206q6 -1 9.5 -7t2 -12.5t-7 -10t-12.5 -1.5q-72 17 -110 17t-110 -17q-7 -2 -12.5 1.5t-7 10t2 12t9.5 7.5q53 12 82 16q0 47 -4.5 79.5
t-7.5 42t-13 33.5q-2 7 1 14t10 9.5t13.5 -0.5t9.5 -9q18 -46 22 -79h10q4 33 22 79q3 6 9.5 9t13.5 0.5t10 -9.5t1 -14q-10 -24 -13 -33.5t-7.5 -42t-4.5 -79.5q29 -4 82 -16z" />
</svg>
