<?xml version="1.0" standalone="no"?>
<!DOCTYPE svg PUBLIC "-//W3C//DTD SVG 1.1//EN" "http://www.w3.org/Graphics/SVG/1.1/DTD/svg11.dtd" >
<svg xmlns="http://www.w3.org/2000/svg" xmlns:xlink="http://www.w3.org/1999/xlink" version="1.1" viewBox="-10 0 660 512">
   <path fill="currentColor"
d="M624 128q7 0 11.5 4.5t4.5 11.5v224q0 7 -4.5 11.5t-11.5 4.5h-144v-256h144zM584 312v-16q0 -7 -4.5 -11.5t-11.5 -4.5h-16q-7 0 -11.5 4.5t-4.5 11.5v16q0 7 4.5 11.5t11.5 4.5h16q7 0 11.5 -4.5t4.5 -11.5zM584 216v-16q0 -7 -4.5 -11.5t-11.5 -4.5h-16
q-7 0 -11.5 4.5t-4.5 11.5v16q0 7 4.5 11.5t11.5 4.5h16q7 0 11.5 -4.5t4.5 -11.5zM432 96q7 0 11.5 4.5t4.5 11.5v288q0 7 -4.5 11.5t-11.5 4.5h-368q-26 0 -45 -19t-19 -45v-192q0 -26 19 -45t45 -19h368z" />
</svg>
