<?xml version="1.0" standalone="no"?>
<!DOCTYPE svg PUBLIC "-//W3C//DTD SVG 1.1//EN" "http://www.w3.org/Graphics/SVG/1.1/DTD/svg11.dtd" >
<svg xmlns="http://www.w3.org/2000/svg" xmlns:xlink="http://www.w3.org/1999/xlink" version="1.1" viewBox="-10 0 468 512">
   <path fill="currentColor"
d="M400 32q20 0 34 14t14 34v352q0 20 -14 34t-34 14h-352q-20 0 -34 -14t-14 -34v-352q0 -20 14 -34t34 -14h352zM248 384q28 0 48 -21t20 -50q0 -24 -13.5 -43t-35.5 -26l-72 -22q-15 -5 -15 -23q0 -6 2.5 -11.5t7.5 -8.5t10 -3h45q11 0 20 5q11 7 20 -1l12 -12
q5 -5 4.5 -12.5t-7.5 -12.5q-21 -14 -46 -15v-16q0 -7 -4.5 -11.5t-11.5 -4.5h-16q-7 0 -11.5 4.5t-4.5 11.5v16q-28 0 -48 21t-20 50q0 24 13.5 43t35.5 26l72 22q15 5 15 23q0 9 -6 16t-14 7h-45q-11 0 -20 -5q-11 -7 -20 1l-12 12q-5 5 -4.5 12.5t7.5 12.5q21 14 46 15
v16q0 7 4.5 11.5t11.5 4.5h16q7 0 11.5 -4.5t4.5 -11.5v-16z" />
</svg>
