<?xml version="1.0" standalone="no"?>
<!DOCTYPE svg PUBLIC "-//W3C//DTD SVG 1.1//EN" "http://www.w3.org/Graphics/SVG/1.1/DTD/svg11.dtd" >
<svg xmlns="http://www.w3.org/2000/svg" xmlns:xlink="http://www.w3.org/1999/xlink" version="1.1" viewBox="-10 0 661 512">
   <path fill="currentColor"
d="M590 240l45 46q12 11 0 22l-23 23q-11 12 -22 0l-46 -45l-46 45q-11 12 -22 0l-23 -23q-12 -11 0 -22l45 -46l-45 -46q-12 -11 0 -22l23 -23q11 -12 22 0l46 45l46 -45q11 -12 22 0l23 23q12 11 0 22zM224 256q-53 0 -90.5 -37.5t-37.5 -90.5t37.5 -90.5t90.5 -37.5
t90.5 37.5t37.5 90.5t-37.5 90.5t-90.5 37.5zM314 288q55 0 94.5 39.5t39.5 94.5v42q0 20 -14 34t-34 14h-352q-20 0 -34 -14t-14 -34v-42q0 -55 39.5 -94.5t94.5 -39.5h17q35 16 73 16t73 -16h17z" />
</svg>
