<?xml version="1.0" standalone="no"?>
<!DOCTYPE svg PUBLIC "-//W3C//DTD SVG 1.1//EN" "http://www.w3.org/Graphics/SVG/1.1/DTD/svg11.dtd" >
<svg xmlns="http://www.w3.org/2000/svg" xmlns:xlink="http://www.w3.org/1999/xlink" version="1.1" viewBox="-11 0 662 512">
   <path fill="currentColor"
d="M634 458q5 4 6 10.5t-3 11.5l-20 26q-10 12 -22 2l-589 -454q-12 -10 -3 -23l20 -25q10 -12 23 -3l147 114q3 -32 20.5 -59t45.5 -42.5t61 -15.5q53 0 90.5 37.5t37.5 90.5q0 41 -24 74t-62 46zM96 422q0 -32 14.5 -60.5t40 -47t56.5 -24.5l287 222h-350q-20 0 -34 -14
t-14 -34v-42z" />
</svg>
