<?xml version="1.0" standalone="no"?>
<!DOCTYPE svg PUBLIC "-//W3C//DTD SVG 1.1//EN" "http://www.w3.org/Graphics/SVG/1.1/DTD/svg11.dtd" >
<svg xmlns="http://www.w3.org/2000/svg" xmlns:xlink="http://www.w3.org/1999/xlink" version="1.1" viewBox="-10 0 660 512">
   <path fill="currentColor"
d="M96 224q-27 0 -45.5 -18.5t-18.5 -45.5t18.5 -45.5t45.5 -18.5t45.5 18.5t18.5 45.5t-18.5 45.5t-45.5 18.5zM320 256q-40 0 -68 -28t-28 -68v-16h192v16q0 40 -28 68t-68 28zM576 256q27 0 45.5 18.5t18.5 45.5v32q0 13 -9.5 22.5t-22.5 9.5h-66q-3 -23 -13 -44
t-26 -37.5t-36 -27.5q19 -19 45 -19h64zM173 275q-30 16 -50 45t-25 64h-66q-13 0 -22.5 -9.5t-9.5 -22.5v-32q0 -27 18.5 -45.5t45.5 -18.5h64q26 0 45 19zM544 224q-27 0 -45.5 -18.5t-18.5 -45.5t18.5 -45.5t45.5 -18.5t45.5 18.5t18.5 45.5t-18.5 45.5t-45.5 18.5z
M397 288q48 0 81.5 33.5t33.5 81.5v29q0 20 -14 34t-34 14h-288q-20 0 -34 -14t-14 -34v-29q0 -48 33.5 -81.5t81.5 -33.5h9q33 16 68 16t68 -16h9zM416 32v80h-192v-80l48 24l48 -24l48 24z" />
</svg>
