<?xml version="1.0" standalone="no"?>
<!DOCTYPE svg PUBLIC "-//W3C//DTD SVG 1.1//EN" "http://www.w3.org/Graphics/SVG/1.1/DTD/svg11.dtd" >
<svg xmlns="http://www.w3.org/2000/svg" xmlns:xlink="http://www.w3.org/1999/xlink" version="1.1" viewBox="-10 0 661 512">
   <path fill="currentColor"
d="M610 373l26 15q5 3 4 9q-10 32 -34 57q-4 4 -9 2l-25 -15q-17 14 -37 21v30q0 6 -6 7q-33 7 -66 0q-6 -1 -6 -7v-30q-20 -7 -37 -21l-26 15q-5 2 -9 -2q-23 -25 -33 -57q-2 -6 4 -9l25 -15q-4 -21 0 -42l-25 -15q-5 -3 -4 -9q10 -32 33 -57q4 -4 9 -2l26 15
q17 -14 37 -21v-30q0 -6 6 -7q33 -7 66 0q6 1 6 7v30q20 7 37 21l25 -15q5 -2 9 2q24 25 34 57q1 6 -4 9l-26 15q4 21 0 42zM496 400q20 0 34 -14t14 -34t-14 -34t-34 -14t-34 14t-14 34t14 34t34 14zM224 256q-53 0 -90.5 -37.5t-37.5 -90.5t37.5 -90.5t90.5 -37.5
t90.5 37.5t37.5 90.5t-37.5 90.5t-90.5 37.5zM425 482v10q0 5 2 12q-12 8 -27 8h-352q-20 0 -34 -14t-14 -34v-42q0 -55 39.5 -94.5t94.5 -39.5h17q35 16 73 16t73 -16h17q2 0 6 0.5t5 0.5q0 1 -1.5 4t-1.5 5q-4 13 1 26t17 20l8 4q-1 4 0 8l-8 5q-12 7 -17 19.5t-1 25.5
q12 39 40 70q12 12 29 12q10 0 19 -5l8 -4q5 3 7 3z" />
</svg>
