<?xml version="1.0" standalone="no"?>
<!DOCTYPE svg PUBLIC "-//W3C//DTD SVG 1.1//EN" "http://www.w3.org/Graphics/SVG/1.1/DTD/svg11.dtd" >
<svg xmlns="http://www.w3.org/2000/svg" xmlns:xlink="http://www.w3.org/1999/xlink" version="1.1" viewBox="-10 0 468 512">
   <path fill="currentColor"
d="M320 352q53 0 90.5 37.5t37.5 90.5q0 13 -9.5 22.5t-22.5 9.5h-384q-13 0 -22.5 -9.5t-9.5 -22.5q0 -53 37.5 -90.5t90.5 -37.5h23q35 16 73 16t73 -16h23zM48 224q-7 0 -11.5 -4.5t-4.5 -11.5v-16q0 -79 56.5 -135.5t135.5 -56.5t135.5 56.5t56.5 135.5v16q0 46 -33 79
t-79 33h-96q-13 0 -22.5 -9.5t-9.5 -22.5t9.5 -22.5t22.5 -9.5h32q13 0 22.5 9.5t9.5 22.5h32q33 0 56.5 -23.5t23.5 -56.5v-16q0 -66 -47 -113t-113 -47t-113 47t-47 113v16q0 7 -4.5 11.5t-11.5 4.5zM208 224q-26 0 -45 19t-19 45v2v1q-48 -38 -48 -99q0 -53 37.5 -90.5
t90.5 -37.5t90.5 37.5t37.5 90.5v16q0 20 -14 34t-34 14h-9q-7 -13 -23.5 -22.5t-31.5 -9.5h-32z" />
</svg>
