<?xml version="1.0" standalone="no"?>
<!DOCTYPE svg PUBLIC "-//W3C//DTD SVG 1.1//EN" "http://www.w3.org/Graphics/SVG/1.1/DTD/svg11.dtd" >
<svg xmlns="http://www.w3.org/2000/svg" xmlns:xlink="http://www.w3.org/1999/xlink" version="1.1" viewBox="-11 0 470 512">
   <path fill="currentColor"
d="M438 98q14 6 9 19q0 1 -0.5 2.5t-3 6.5t-5.5 10l-7.5 12.5t-10 14.5t-13 15.5t-15.5 15.5t-18.5 15t-21.5 15q0 53 -37.5 90.5t-90.5 37.5t-90.5 -37.5t-37.5 -90.5q-31 -18 -55.5 -46t-31 -41t-8.5 -20q-5 -13 9 -19q3 -2 7 -2q9 0 14 7q3 3 6.5 7t19.5 15t36 18.5
t55 14.5t76 7t76.5 -7t55 -15t35.5 -18.5t19.5 -14.5t6.5 -7q5 -7 14 -7q4 0 7 2zM314 384q38 0 74.5 25t49.5 61q6 15 -3.5 28.5t-26.5 13.5h-368q-17 0 -26.5 -13.5t-3.5 -28.5q13 -36 49.5 -61t74.5 -25h17q35 16 73 16t73 -16h17zM342 114q-48 19 -118 19
q-68 0 -117 -19q25 -114 64 -114q14 0 28 10q11 9 25.5 9t26.5 -9q13 -10 27 -10q39 0 64 114z" />
</svg>
