<?xml version="1.0" standalone="no"?>
<!DOCTYPE svg PUBLIC "-//W3C//DTD SVG 1.1//EN" "http://www.w3.org/Graphics/SVG/1.1/DTD/svg11.dtd" >
<svg xmlns="http://www.w3.org/2000/svg" xmlns:xlink="http://www.w3.org/1999/xlink" version="1.1" viewBox="-10 0 468 512">
   <path fill="currentColor"
d="M64 224q-7 0 -11.5 -4.5t-4.5 -11.5v-96q0 -7 4.5 -11.5t11.5 -4.5h14q18 -43 58 -69.5t88 -26.5q24 0 47 7t41.5 19.5t33.5 30.5t24 39h14q7 0 11.5 4.5t4.5 11.5v96q0 7 -4.5 11.5t-11.5 4.5h-14q-18 43 -58 69.5t-88 26.5t-88 -26.5t-58 -69.5h-14zM104 136v24
q0 40 28 68t68 28h48q40 0 68 -28t28 -68v-24q0 -17 -14 -28.5t-34 -11.5h-144q-20 0 -34 11.5t-14 28.5zM176 208l-12 -36l-36 -12l36 -12l12 -36l12 36l36 12l-36 12zM328 321q51 6 85.5 44t34.5 89v10q0 20 -14 34t-34 14h-80v-64q0 -13 -9.5 -22.5t-22.5 -9.5h-128
q-13 0 -22.5 9.5t-9.5 22.5v64h-80q-20 0 -34 -14t-14 -34v-10q0 -51 34.5 -89t85.5 -44q48 31 104 31t104 -31zM272 448q7 0 11.5 4.5t4.5 11.5t-4.5 11.5t-11.5 4.5t-11.5 -4.5t-4.5 -11.5t4.5 -11.5t11.5 -4.5zM176 448q7 0 11.5 4.5t4.5 11.5v48h-32v-48q0 -7 4.5 -11.5
t11.5 -4.5z" />
</svg>
