<?xml version="1.0" standalone="no"?>
<!DOCTYPE svg PUBLIC "-//W3C//DTD SVG 1.1//EN" "http://www.w3.org/Graphics/SVG/1.1/DTD/svg11.dtd" >
<svg xmlns="http://www.w3.org/2000/svg" xmlns:xlink="http://www.w3.org/1999/xlink" version="1.1" viewBox="-10 0 660 512">
   <path fill="currentColor"
d="M256 288q0 -27 18.5 -45.5t45.5 -18.5t45.5 18.5t18.5 45.5t-18.5 45.5t-45.5 18.5t-45.5 -18.5t-18.5 -45.5zM480 288q0 -27 18.5 -45.5t45.5 -18.5t45.5 18.5t18.5 45.5t-18.5 45.5t-45.5 18.5t-45.5 -18.5t-18.5 -45.5zM96 352q-27 0 -45.5 -18.5t-18.5 -45.5
t18.5 -45.5t45.5 -18.5t45.5 18.5t18.5 45.5t-18.5 45.5t-45.5 18.5zM576 384q27 0 45.5 18.5t18.5 45.5v32q0 13 -9.5 22.5t-22.5 9.5h-128q-13 0 -22.5 -9.5t-9.5 -22.5v-32q0 -27 18.5 -45.5t45.5 -18.5h64zM352 384q27 0 45.5 18.5t18.5 45.5v32q0 13 -9.5 22.5
t-22.5 9.5h-128q-13 0 -22.5 -9.5t-9.5 -22.5v-32q0 -27 18.5 -45.5t45.5 -18.5h64zM128 384q27 0 45.5 18.5t18.5 45.5v32q0 13 -9.5 22.5t-22.5 9.5h-128q-13 0 -22.5 -9.5t-9.5 -22.5v-32q0 -27 18.5 -45.5t45.5 -18.5h64zM96 64v128q-36 0 -64 25v-167q0 -21 14 -35.5
t34 -14.5h480q20 0 34 14.5t14 35.5v167q-28 -25 -64 -25v-128h-448z" />
</svg>
