<?xml version="1.0" standalone="no"?>
<!DOCTYPE svg PUBLIC "-//W3C//DTD SVG 1.1//EN" "http://www.w3.org/Graphics/SVG/1.1/DTD/svg11.dtd" >
<svg xmlns="http://www.w3.org/2000/svg" xmlns:xlink="http://www.w3.org/1999/xlink" version="1.1" viewBox="-11 0 662 512">
   <path fill="currentColor"
d="M634 458q5 4 6 10.5t-3 11.5l-20 26q-10 12 -22 2l-589 -454q-12 -10 -3 -23l20 -25q10 -12 23 -3l135 105q12 -47 50.5 -77.5t88.5 -30.5q60 0 102 42t42 102q0 27 -9.5 51t-26 43t-38.5 31zM198 320h48l248 192h-382q-20 0 -34 -14t-14 -34v-10q0 -55 39.5 -94.5
t94.5 -39.5z" />
</svg>
