<?xml version="1.0" standalone="no"?>
<!DOCTYPE svg PUBLIC "-//W3C//DTD SVG 1.1//EN" "http://www.w3.org/Graphics/SVG/1.1/DTD/svg11.dtd" >
<svg xmlns="http://www.w3.org/2000/svg" xmlns:xlink="http://www.w3.org/1999/xlink" version="1.1" viewBox="-10 0 660 512">
   <path fill="currentColor"
d="M622 271q18 7 18 25q0 36 -9 68t-23 55.5t-32 42.5t-35 30t-34 18q-11 4 -22 0q-53 -21 -93 -78.5t-40 -135.5q0 -18 18 -25l115 -45q11 -4 22 0zM496 462q33 -15 62.5 -54t33.5 -97l-96 -38v189zM224 256q-53 0 -90.5 -37.5t-37.5 -90.5t37.5 -90.5t90.5 -37.5
t90.5 37.5t37.5 90.5t-37.5 90.5t-90.5 37.5zM320 296q0 68 27.5 122.5t71.5 89.5q-9 4 -19 4h-352q-20 0 -34 -14t-14 -34v-42q0 -55 39.5 -94.5t94.5 -39.5h17q35 16 73 16t73 -16h17q1 0 3.5 0.5t3.5 0.5l-0.5 3t-0.5 4z" />
</svg>
