<?xml version="1.0" standalone="no"?>
<!DOCTYPE svg PUBLIC "-//W3C//DTD SVG 1.1//EN" "http://www.w3.org/Graphics/SVG/1.1/DTD/svg11.dtd" >
<svg xmlns="http://www.w3.org/2000/svg" xmlns:xlink="http://www.w3.org/1999/xlink" version="1.1" viewBox="-10 0 468 512">
   <path fill="currentColor"
d="M224 256q-53 0 -90.5 -37.5t-37.5 -90.5t37.5 -90.5t90.5 -37.5t90.5 37.5t37.5 90.5t-37.5 90.5t-90.5 37.5zM104 424q0 -10 7 -17t17 -7t17 7t7 17t-7 17t-17 7t-17 -7t-7 -17zM320 289q54 2 91 41t37 92v45q0 19 -13 32t-32 13h-358q-19 0 -32 -13t-13 -32v-45
q0 -49 32 -86.5t80 -45.5v81q-17 5 -28.5 19.5t-11.5 33.5q0 23 16.5 39.5t39.5 16.5t39.5 -16.5t16.5 -39.5q0 -19 -11 -33.5t-29 -19.5v-82q12 2 23 5q28 10 57 10t58 -10q1 0 3 -0.5t3 -1.5v46q-28 5 -46 27t-18 51v44q0 14 14 16l31 4q8 1 9 -6l4 -16q1 -8 -7 -10
l-19 -3v-27q0 -32 24 -44.5t48 0t24 42.5v28l-19 4q-8 2 -7 10l4 16q1 7 9 6l32 -7q13 -2 13 -15v-42q0 -29 -18 -51t-46 -27v-49z" />
</svg>
