<?xml version="1.0" standalone="no"?>
<!DOCTYPE svg PUBLIC "-//W3C//DTD SVG 1.1//EN" "http://www.w3.org/Graphics/SVG/1.1/DTD/svg11.dtd" >
<svg xmlns="http://www.w3.org/2000/svg" xmlns:xlink="http://www.w3.org/1999/xlink" version="1.1" viewBox="-10 0 661 512">
   <path fill="currentColor"
d="M610 341l26 15q5 3 4 9q-10 32 -34 57q-4 4 -9 2l-25 -15q-17 14 -37 21v30q0 6 -6 7q-33 7 -66 0q-6 -1 -6 -7v-30q-20 -7 -37 -21l-26 15q-5 2 -9 -2q-23 -25 -33 -57q-2 -6 4 -9l25 -15q-4 -21 0 -42l-25 -15q-5 -3 -4 -9q10 -32 33 -57q4 -4 9 -2l26 15
q17 -14 37 -21v-30q0 -6 6 -7q33 -7 66 0q6 1 6 7v30q20 7 37 21l25 -15q5 -2 9 2q24 25 34 57q1 6 -4 9l-26 15q4 21 0 42zM496 368q20 0 34 -14t14 -34t-14 -34t-34 -14t-34 14t-14 34t14 34t34 14zM96 224q-26 0 -45 -19t-19 -45t19 -45t45 -19t45 19t19 45t-19 45
t-45 19zM320 256q-46 0 -79 -33t-33 -79t32.5 -79t79 -33t79.5 33t33 79q0 25 -11 48q-1 0 -1.5 0.5l-1.5 1.5l-8 -5q-9 -5 -19 -5q-17 0 -29 12q-23 25 -36 59q-1 0 -3 1h-3zM425 450v10q0 10 6 20h-255q-20 0 -34 -14t-14 -34v-29q0 -48 34 -81.5t81 -33.5h9q33 16 68 16
h7q2 -1 3 -1q4 5 10 9l8 4q-1 4 0 8h-1q-35 18 -25 50q12 39 40 70q12 12 29 12q11 0 27 -9h1zM173 275q-30 16 -50 45t-25 64h-66q-13 0 -22.5 -9.5t-9.5 -22.5v-32q0 -26 19 -45t45 -19h64q26 0 45 19z" />
</svg>
