<?xml version="1.0" standalone="no"?>
<!DOCTYPE svg PUBLIC "-//W3C//DTD SVG 1.1//EN" "http://www.w3.org/Graphics/SVG/1.1/DTD/svg11.dtd" >
<svg xmlns="http://www.w3.org/2000/svg" xmlns:xlink="http://www.w3.org/1999/xlink" version="1.1" viewBox="-10 0 660 512">
   <path fill="currentColor"
d="M104 424q0 -10 7 -17t17 -7t17 7t7 17t-7 17t-17 7t-17 -7t-7 -17zM224 256q-53 0 -90.5 -37.5t-37.5 -90.5t37.5 -90.5t90.5 -37.5t90.5 37.5t37.5 90.5t-37.5 90.5t-90.5 37.5zM320 289q54 2 91 41t37 92v42q0 20 -14 34t-34 14h-352q-20 0 -34 -14t-14 -34v-42
q0 -49 32 -86.5t80 -45.5v81q-11 3 -20 11.5t-14.5 19.5t-5.5 22q0 23 16.5 39.5t39.5 16.5t39.5 -16.5t16.5 -39.5q0 -17 -11.5 -32.5t-28.5 -20.5v-82q12 1 23 5q27 10 57 10q33 0 64 -12v46q-26 5 -45 28t-19 50v42q0 6 4 10.5t10 5.5l31 4h2q6 0 7 -6l4 -16v-1
q0 -7 -7 -8l-19 -4v-25q0 -18 11 -32t27 -17q5 -1 10 -1q20 0 34 14t14 34v27l-19 4q-7 1 -7 8v1l4 16q1 6 7 6h2l32 -6q13 -3 13 -16v-40q0 -27 -19 -50t-45 -28v-49zM512 0q53 0 90.5 33t37.5 79t-37.5 79t-90.5 33q-13 0 -26 -2q-46 34 -95 34q-5 0 -6 -5q-1 -2 -1 -3
q0 -4 2 -6q18 -26 31 -55q-33 -33 -33 -75q0 -46 37.5 -79t90.5 -33z" />
</svg>
