<?xml version="1.0" standalone="no"?>
<!DOCTYPE svg PUBLIC "-//W3C//DTD SVG 1.1//EN" "http://www.w3.org/Graphics/SVG/1.1/DTD/svg11.dtd" >
<svg xmlns="http://www.w3.org/2000/svg" xmlns:xlink="http://www.w3.org/1999/xlink" version="1.1" viewBox="-10 0 532 512">
   <path fill="currentColor"
d="M470 119q9 -7 21.5 -1t17.5 17.5t0 21.5q-62 87 -91 116q-30 31 -68 38t-71 -9l-180 201q-8 9 -19.5 9t-20.5 -8l-51 -51q-8 -9 -8 -20.5t9 -19.5l201 -181q-16 -33 -9 -70.5t38 -68.5q29 -28 116 -90q9 -6 21.5 0t17.5 17.5t-2 21.5l-113 114q-1 2 5 8t8 4
q104 -92 120 -107q15 -10 32 7t7 32q-3 3 -108 120q-1 2 4.5 8t8.5 5z" />
</svg>
