<?xml version="1.0" standalone="no"?>
<!DOCTYPE svg PUBLIC "-//W3C//DTD SVG 1.1//EN" "http://www.w3.org/Graphics/SVG/1.1/DTD/svg11.dtd" >
<svg xmlns="http://www.w3.org/2000/svg" xmlns:xlink="http://www.w3.org/1999/xlink" version="1.1" viewBox="-10 0 597 512">
   <path fill="currentColor"
d="M54 9l239 222q13 -12 22.5 -20.5t25.5 -22.5q-34 -58 17 -109q19 -19 98 -76q12 -9 23.5 3t1.5 23l-81 94q-1 1 1 3.5t3 1.5l97 -79q12 -9 23.5 2.5t2.5 22.5l-79 97q-1 2 2 4l3 1l93 -81q12 -10 24 1.5t3 23.5q-53 74 -77 98q-50 51 -108 16q-13 15 -20.5 23.5
t-20.5 23.5l155 143q10 10 10 23.5t-10 22.5l-32 32q-9 10 -22.5 10t-23.5 -10q-60 -71 -208 -246q-216 0 -216 -224q0 -21 19 -29.5t35 6.5zM73 471q-9 -10 -9 -24t11 -23l138 -122l57 66l-118 133q-9 11 -23 11t-24 -9z" />
</svg>
