<?xml version="1.0" standalone="no"?>
<!DOCTYPE svg PUBLIC "-//W3C//DTD SVG 1.1//EN" "http://www.w3.org/Graphics/SVG/1.1/DTD/svg11.dtd" >
<svg xmlns="http://www.w3.org/2000/svg" xmlns:xlink="http://www.w3.org/1999/xlink" version="1.1" viewBox="-10 0 532 512">
   <path fill="currentColor"
d="M512 128q0 13 -9.5 22.5t-22.5 9.5v192q13 0 22.5 9.5t9.5 22.5v96q0 13 -9.5 22.5t-22.5 9.5h-96q-13 0 -22.5 -9.5t-9.5 -22.5h-192q0 13 -9.5 22.5t-22.5 9.5h-96q-13 0 -22.5 -9.5t-9.5 -22.5v-96q0 -13 9.5 -22.5t22.5 -9.5v-192q-13 0 -22.5 -9.5t-9.5 -22.5v-96
q0 -13 9.5 -22.5t22.5 -9.5h96q13 0 22.5 9.5t9.5 22.5h192q0 -13 9.5 -22.5t22.5 -9.5h96q13 0 22.5 9.5t9.5 22.5v96zM416 64v32h32v-32h-32zM64 64v32h32v-32h-32zM96 448v-32h-32v32h32zM448 448v-32h-32v32h32zM416 352v-192h-32q-13 0 -22.5 -9.5t-9.5 -22.5v-32h-192
v32q0 13 -9.5 22.5t-22.5 9.5h-32v192h32q13 0 22.5 9.5t9.5 22.5v32h192v-32q0 -13 9.5 -22.5t22.5 -9.5h32z" />
</svg>
