<?xml version="1.0" standalone="no"?>
<!DOCTYPE svg PUBLIC "-//W3C//DTD SVG 1.1//EN" "http://www.w3.org/Graphics/SVG/1.1/DTD/svg11.dtd" >
<svg xmlns="http://www.w3.org/2000/svg" xmlns:xlink="http://www.w3.org/1999/xlink" version="1.1" viewBox="-10 0 596 512">
   <path fill="currentColor"
d="M564 0q12 0 12 12v79q0 5 -3.5 8.5t-8.5 3.5t-8 -3l-17 -17l-49 48q22 35 22 77q0 60 -42 102t-102 42q-50 0 -89 -31q21 -25 32 -57q23 24 57 24q33 0 56.5 -23.5t23.5 -56.5t-23.5 -56.5t-56.5 -23.5q-34 0 -57 24q-11 -31 -32 -57q39 -31 89 -31q42 0 77 22l48 -49
l-17 -17q-5 -5 -2 -12.5t11 -7.5h79zM144 64q60 0 102 42t42 102q0 51 -31.5 90t-80.5 50v52h36q12 0 12 12v40q0 12 -12 12h-36v36q0 12 -12 12h-40q-12 0 -12 -12v-36h-36q-12 0 -12 -12v-40q0 -12 12 -12h36v-52q-49 -11 -80.5 -50t-31.5 -90q0 -60 42 -102t102 -42z
M144 288q33 0 56.5 -23.5t23.5 -56.5t-23.5 -56.5t-56.5 -23.5t-56.5 23.5t-23.5 56.5t23.5 56.5t56.5 23.5z" />
</svg>
