<?xml version="1.0" standalone="no"?>
<!DOCTYPE svg PUBLIC "-//W3C//DTD SVG 1.1//EN" "http://www.w3.org/Graphics/SVG/1.1/DTD/svg11.dtd" >
<svg xmlns="http://www.w3.org/2000/svg" xmlns:xlink="http://www.w3.org/1999/xlink" version="1.1" viewBox="-10 0 532 512">
   <path fill="currentColor"
d="M496 64q7 0 11.5 4.5t4.5 11.5v48h-512v-48q0 -7 4.5 -11.5t11.5 -4.5h480zM0 400v-240h512v240q0 20 -14 34t-34 14h-416q-20 0 -34 -14t-14 -34zM384 349v35h49q31 -35 31 -80t-31 -80h-49v35q13 5 22.5 18t9.5 27t-9.5 27t-22.5 18zM192 224v160h128v-160h-128z
M79 224q-31 35 -31 80t31 80h49v-35q-9 -3 -16 -10t-11.5 -16.5t-4.5 -18.5q0 -14 9.5 -27t22.5 -18v-35h-49z" />
</svg>
