<?xml version="1.0" standalone="no"?>
<!DOCTYPE svg PUBLIC "-//W3C//DTD SVG 1.1//EN" "http://www.w3.org/Graphics/SVG/1.1/DTD/svg11.dtd" >
<svg xmlns="http://www.w3.org/2000/svg" xmlns:xlink="http://www.w3.org/1999/xlink" version="1.1" viewBox="-11 0 662 512">
   <path fill="currentColor"
d="M634 458q5 4 6 10.5t-3 11.5l-20 26q-10 12 -23 3l-178 -138l-373 -289l-37 -28q-12 -10 -3 -23l20 -25q10 -12 23 -3l78 61h244q20 0 34 14t14 34v178l32 24v-137l110 -75q16 -11 33 -2.5t17 28.5v256q0 13 -8.5 22t-20.5 10zM32 400v-245l366 283q-13 10 -30 10h-288
q-20 0 -34 -14t-14 -34z" />
</svg>
