<?xml version="1.0" standalone="no"?>
<!DOCTYPE svg PUBLIC "-//W3C//DTD SVG 1.1//EN" "http://www.w3.org/Graphics/SVG/1.1/DTD/svg11.dtd" >
<svg xmlns="http://www.w3.org/2000/svg" xmlns:xlink="http://www.w3.org/1999/xlink" version="1.1" viewBox="-10 0 660 512">
   <path fill="currentColor"
d="M347 16q5 5 5 11.5t-5 11.5l-308 308q-5 5 -11.5 5t-11.5 -5l-11 -11q-5 -5 -5 -11.5t5 -11.5l308 -308q5 -5 11.5 -5t11.5 5zM520 48q-10 0 -17 -7t-7 -17t7 -17t17 -7t17 7t7 17t-7 17t-17 7zM238 416q4 5 4 11q0 5 -2 9l-46 69q-5 7 -14 7q-6 0 -11 -5l-36 -36
q-5 -5 -5 -11q0 -9 7 -14l69 -46q4 -2 9 -2q6 0 11 4zM472 96q-10 0 -17 -7t-7 -17t7 -17t17 -7t17 7t7 17t-7 17t-17 7zM458 227q14 21 19 41q12 53 -21 88q-12 -4 -25 -4q-33 0 -56 23t-23 56q0 24 13 44q-3 4 -6 7q-23 23 -57 28t-68 -8l32 -48q8 -12 8 -27
q0 -20 -14 -34l-13 -13q-14 -14 -34 -14q-15 0 -27 8l-48 32q-13 -33 -8 -67.5t28 -57.5q3 -3 7 -6q20 13 43 13q33 0 56.5 -23t23.5 -56v-1q0 -12 -4 -24q35 -33 88 -21q20 5 41 19l177 -177q5 -5 11.5 -5t11.5 5l22 22q5 5 5 11.5t-5 11.5zM616 96q10 0 17 7t7 17t-7 17
t-17 7t-17 -7t-7 -17t7 -17t17 -7zM568 144q10 0 17 7t7 17t-7 17t-17 7t-17 -7t-7 -17t7 -17t17 -7z" />
</svg>
