<?xml version="1.0" standalone="no"?>
<!DOCTYPE svg PUBLIC "-//W3C//DTD SVG 1.1//EN" "http://www.w3.org/Graphics/SVG/1.1/DTD/svg11.dtd" >
<svg xmlns="http://www.w3.org/2000/svg" xmlns:xlink="http://www.w3.org/1999/xlink" version="1.1" viewBox="-10 0 524 512">
   <path fill="currentColor"
d="M231 243q-45 29 -88 85t-58 108q-15 -15 -31.5 -38.5t-25.5 -42.5q17 -71 65 -128t116 -89q21 50 22 105zM194 109q-62 30 -109.5 79.5t-72.5 112.5q-15 -81 20.5 -153t104.5 -110q35 31 57 71zM382 274q-55 -6 -103 -33q-1 -54 -28.5 -119t-64.5 -104q48 -14 99 -8
q52 50 78 119.5t19 144.5zM257 284q76 40 159 41q41 -1 81 -11q-12 49 -42 90q-70 21 -143 8t-135 -56q14 -18 37.5 -39t42.5 -33zM159 383q118 82 257 62q-29 25 -75.5 42t-84.5 17q-29 0 -66.5 -10.5t-62.5 -25.5q10 -47 32 -85zM339 23q48 17 85.5 51t58.5 81.5t21 100.5
v3v3q-44 14 -89 14h-1q6 -69 -13.5 -134.5t-61.5 -118.5z" />
</svg>
