<?xml version="1.0" standalone="no"?>
<!DOCTYPE svg PUBLIC "-//W3C//DTD SVG 1.1//EN" "http://www.w3.org/Graphics/SVG/1.1/DTD/svg11.dtd" >
<svg xmlns="http://www.w3.org/2000/svg" xmlns:xlink="http://www.w3.org/1999/xlink" version="1.1" viewBox="-11 0 662 512">
   <path fill="currentColor"
d="M634 458q12 10 3 23l-20 25q-10 12 -22 3l-589 -455q-12 -10 -3 -23l20 -25q10 -12 22 -3l152 118l50 -50q11 -11 26 -5t15 22v103l79 61q-2 -21 -20 -31q-9 -5 -11.5 -14.5t2 -18t14.5 -11.5t18 2q21 12 33.5 32.5t12.5 44.5q0 13 -6 29l40 31q14 -28 14 -60
q0 -35 -17 -66t-46 -50q-9 -5 -11 -14.5t3 -18t15 -10.5t18 3q40 25 63 67t23 89.5t-24 89.5l38 29q34 -55 34 -119q0 -59 -28.5 -111t-77.5 -85q-9 -5 -11 -15t3.5 -18t15.5 -10.5t18 3.5q60 39 94 102t34 134q0 80 -43 149zM32 184q0 -13 12 -20l244 189v71q0 16 -15 22
t-26 -5l-89 -89h-102q-10 0 -17 -7t-7 -17v-144z" />
</svg>
