<?xml version="1.0" standalone="no"?>
<!DOCTYPE svg PUBLIC "-//W3C//DTD SVG 1.1//EN" "http://www.w3.org/Graphics/SVG/1.1/DTD/svg11.dtd" >
<svg xmlns="http://www.w3.org/2000/svg" xmlns:xlink="http://www.w3.org/1999/xlink" version="1.1" viewBox="-10 0 404 512">
   <path fill="currentColor"
d="M215 72q11 -11 26 -5t15 22v336q0 16 -15 22t-26 -5l-89 -89h-102q-10 0 -17 -7t-7 -17v-144q0 -10 7 -17t17 -7h102zM338 180q21 12 33.5 32.5t12.5 44.5t-12.5 44.5t-33.5 32.5q-8 5 -18 2t-14.5 -11.5t-2 -18t11.5 -14.5q21 -12 21 -35t-21 -35q-9 -5 -11.5 -14.5
t2 -18t14.5 -11.5t18 2z" />
</svg>
