<?xml version="1.0" standalone="no"?>
<!DOCTYPE svg PUBLIC "-//W3C//DTD SVG 1.1//EN" "http://www.w3.org/Graphics/SVG/1.1/DTD/svg11.dtd" >
<svg xmlns="http://www.w3.org/2000/svg" xmlns:xlink="http://www.w3.org/1999/xlink" version="1.1" viewBox="-10 0 533 512">
   <path fill="currentColor"
d="M215 71q11 -11 26 -5t15 22v336q0 16 -15 22t-26 -5l-89 -89h-102q-10 0 -17 -7t-7 -17v-144q0 -10 7 -17t17 -7h102zM462 256l45 46q12 11 0 22l-23 23q-11 12 -22 0l-46 -45l-46 45q-11 12 -22 0l-23 -23q-12 -11 0 -22l45 -46l-45 -46q-12 -11 0 -22l23 -23
q11 -12 22 0l46 45l46 -45q11 -12 22 0l23 23q12 11 0 22z" />
</svg>
