<?xml version="1.0" standalone="no"?>
<!DOCTYPE svg PUBLIC "-//W3C//DTD SVG 1.1//EN" "http://www.w3.org/Graphics/SVG/1.1/DTD/svg11.dtd" >
<svg xmlns="http://www.w3.org/2000/svg" xmlns:xlink="http://www.w3.org/1999/xlink" version="1.1" viewBox="-10 0 596 512">
   <path fill="currentColor"
d="M215 71q11 -11 26 -5t15 22v336q0 16 -15 22t-26 -5l-89 -89h-102q-10 0 -17 -7t-7 -17v-144q0 -10 7 -17t17 -7h102zM448 20q60 39 94 102t34 134t-34 134t-94 102q-8 6 -18 3.5t-15.5 -10.5t-3.5 -18t11 -15q33 -22 56.5 -52.5t36.5 -67.5t13 -76q0 -59 -28.5 -111
t-77.5 -85q-9 -5 -11 -15t3.5 -18t15.5 -10.5t18 3.5zM480 256q0 48 -22.5 89.5t-63.5 66.5q-9 6 -18.5 3.5t-14.5 -10.5q-5 -9 -3 -18.5t11 -15.5q19 -12 33.5 -30t22 -40t7.5 -45t-7.5 -45t-22 -40t-33.5 -30q-9 -6 -11 -15.5t3 -18t15 -11t18 3.5q41 25 63.5 66.5
t22.5 89.5zM338 179q21 12 33.5 32.5t12.5 44.5t-12.5 44.5t-33.5 32.5q-8 5 -18 2t-14.5 -11.5t-2 -18t11.5 -14.5q21 -12 21 -35t-21 -35q-9 -5 -11.5 -14.5t2 -18t14.5 -11.5t18 2z" />
</svg>
