<?xml version="1.0" standalone="no"?>
<!DOCTYPE svg PUBLIC "-//W3C//DTD SVG 1.1//EN" "http://www.w3.org/Graphics/SVG/1.1/DTD/svg11.dtd" >
<svg xmlns="http://www.w3.org/2000/svg" xmlns:xlink="http://www.w3.org/1999/xlink" version="1.1" viewBox="-11 0 662 512">
   <path fill="currentColor"
d="M224 224h-153l-69 -174q-7 -20 5.5 -36.5t32.5 -13.5l125 20q25 3 42 24t17 49v131zM600 0q20 -3 32.5 13.5t5.5 36.5l-69 174h-153v-131q0 -9 2 -18t6 -16.5t9 -14t11.5 -11.5t14.5 -8.5t16 -4.5zM384 56v168h-128v-168q0 -17 11.5 -28.5t28.5 -11.5h48q17 0 28.5 11.5
t11.5 28.5zM560 256q7 0 11.5 4.5t4.5 11.5v32q0 7 -4.5 11.5t-11.5 4.5h-18l0.5 0.5l0.5 0.5q14 13 23.5 36.5t9.5 42.5q0 46 -32.5 79t-79.5 33q-40 0 -72.5 -28t-37.5 -68h-68q-5 40 -37.5 68t-72.5 28q-47 0 -79.5 -32.5t-32.5 -79.5q0 -19 9.5 -42.5t23.5 -36.5
l0.5 -0.5l0.5 -0.5h-18q-7 0 -11.5 -4.5t-4.5 -11.5v-32q0 -7 4.5 -11.5t11.5 -4.5h480zM160 462v-46h-46q4 15 17.5 28.5t28.5 17.5zM160 384v-46q-15 4 -28.5 17.5t-17.5 28.5h46zM221.5 445.5q12.5 -12.5 16.5 -29.5h-46v46q17 -4 29.5 -16.5zM192 384h46
q-4 -15 -17.5 -28.5t-28.5 -17.5v46zM448 462v-46h-46q4 15 17.5 28.5t28.5 17.5zM448 384v-46q-10 3 -19.5 10t-16.5 16.5t-10 19.5h46zM509.5 445.5q12.5 -12.5 16.5 -29.5h-46v46q17 -4 29.5 -16.5zM480 384h46q-4 -15 -17.5 -28.5t-28.5 -17.5v46z" />
</svg>
