<?xml version="1.0" standalone="no"?>
<!DOCTYPE svg PUBLIC "-//W3C//DTD SVG 1.1//EN" "http://www.w3.org/Graphics/SVG/1.1/DTD/svg11.dtd" >
<svg xmlns="http://www.w3.org/2000/svg" xmlns:xlink="http://www.w3.org/1999/xlink" version="1.1" viewBox="-10 0 404 512">
   <path fill="currentColor"
d="M352 96q13 0 22.5 9.5t9.5 22.5v179q0 13 -9 22l-23 23v112q0 20 -14 34t-34 14h-224q-20 0 -34 -14t-14 -34v-112l-23 -23q-9 -9 -9 -22v-179q0 -13 9.5 -22.5t22.5 -9.5h32v-80q0 -7 4.5 -11.5t11.5 -4.5h16q7 0 11.5 4.5t4.5 11.5v80h48v-16q0 -7 4.5 -11.5t11.5 -4.5
h32q7 0 11.5 4.5t4.5 11.5v16h32v-16q0 -7 4.5 -11.5t11.5 -4.5h32q7 0 11.5 4.5t4.5 11.5v16h32zM288 312v-16q0 -8 -8 -8h-176q-8 0 -8 8v16q0 8 8 8h176q8 0 8 -8zM288 248v-16q0 -8 -8 -8h-176q-8 0 -8 8v16q0 8 8 8h176q8 0 8 -8zM288 184v-16q0 -8 -8 -8h-176
q-8 0 -8 8v16q0 8 8 8h176q8 0 8 -8z" />
</svg>
