<?xml version="1.0" standalone="no"?>
<!DOCTYPE svg PUBLIC "-//W3C//DTD SVG 1.1//EN" "http://www.w3.org/Graphics/SVG/1.1/DTD/svg11.dtd" >
<svg xmlns="http://www.w3.org/2000/svg" xmlns:xlink="http://www.w3.org/1999/xlink" version="1.1" viewBox="-10 0 468 512">
   <path fill="currentColor"
d="M416 393q13 8 22.5 24t9.5 31q0 27 -19 45.5t-45 18.5t-45 -18.5t-19 -45.5q0 -15 9.5 -31t22.5 -24v-169h-224l-65 275q-1 5 -5.5 9t-9.5 4h-3l-32 -6q-2 0 -4.5 -1.5t-4.5 -3.5t-3 -5t-1 -5v-3l96 -408q5 -33 33 -56.5t61 -23.5h1h129q40 0 68 28t28 68v297zM352 160
v-64q0 -13 -9.5 -22.5t-22.5 -9.5h-129q-8 0 -14.5 3.5t-11.5 9.5t-6 14l-16 69h209zM384 464q7 0 11.5 -4.5t4.5 -11.5t-4.5 -11.5t-11.5 -4.5t-11.5 4.5t-4.5 11.5t4.5 11.5t11.5 4.5z" />
</svg>
