<?xml version="1.0" standalone="no"?>
<!DOCTYPE svg PUBLIC "-//W3C//DTD SVG 1.1//EN" "http://www.w3.org/Graphics/SVG/1.1/DTD/svg11.dtd" >
<svg xmlns="http://www.w3.org/2000/svg" xmlns:xlink="http://www.w3.org/1999/xlink" version="1.1" viewBox="-10 0 341 512">
   <path fill="currentColor"
d="M208 96q-20 0 -34 -14t-14 -34t14 -34t34 -14t34 14t14 34t-14 34t-34 14zM302 245q12 6 16.5 18.5t-1.5 24.5t-18.5 16t-24.5 -2l-23 -11q-23 -12 -32 -37l-5 -17l-17 69l45 50q11 11 15 27l22 89q3 13 -3.5 24.5t-19.5 14.5t-24.5 -3.5t-14.5 -19.5l-18 -74
q-4 -15 -15 -27l-60 -66q-23 -25 -15 -59l15 -60l-26 11q-12 4 -17 15l-7 14q-6 11 -18 15.5t-24 -1.5t-16 -18.5t2 -24.5l6 -14q16 -32 50 -46q4 -1 14.5 -5.5l14 -6t12 -4.5t13 -4t11.5 -2.5t14 -2t14 -0.5q35 0 63 21t40 55l9 29zM74 386l20 -52q8 10 48 54l-14 34
q-5 12 -14 21l-59 60q-10 9 -23 9t-22.5 -9.5t-9.5 -22.5t9 -23l50 -50q10 -9 15 -21z" />
</svg>
