<?xml version="1.0" standalone="no"?>
<!DOCTYPE svg PUBLIC "-//W3C//DTD SVG 1.1//EN" "http://www.w3.org/Graphics/SVG/1.1/DTD/svg11.dtd" >
<svg xmlns="http://www.w3.org/2000/svg" xmlns:xlink="http://www.w3.org/1999/xlink" version="1.1" viewBox="-10 0 533 512">
   <path fill="currentColor"
d="M80 160l-27 -53l-53 -27l53 -27l27 -53l27 53l53 27l-53 27zM224 96l-16 -32l-32 -16l32 -16l16 -32l16 32l32 16l-32 16zM459 341l53 27l-53 27l-27 53l-27 -53l-53 -27l53 -27l27 -53zM400 192h-24l-279 309q-9 11 -22.5 11t-23.5 -9l-42 -42q-9 -10 -9 -23.5t11 -22.5
l117 -106v-37q0 -7 4.5 -11.5t11.5 -4.5h43l279 -252q11 -10 22 1l19 19q11 11 1 22l-92 102v28q0 7 -4.5 11.5t-11.5 4.5z" />
</svg>
