<?xml version="1.0" standalone="no"?>
<!DOCTYPE svg PUBLIC "-//W3C//DTD SVG 1.1//EN" "http://www.w3.org/Graphics/SVG/1.1/DTD/svg11.dtd" >
<svg xmlns="http://www.w3.org/2000/svg" xmlns:xlink="http://www.w3.org/1999/xlink" version="1.1" viewBox="-10 0 404 512">
   <path fill="currentColor"
d="M320 80q26 0 45 19t19 45v224q0 26 -19 45t-45 19h-256q-26 0 -45 -19t-19 -45v-224q0 -26 19 -45t45 -19h256zM120 368v-32q0 -8 -8 -8h-32q-8 0 -8 8v32q0 8 8 8h32q8 0 8 -8zM120 272v-32q0 -8 -8 -8h-32q-8 0 -8 8v32q0 8 8 8h32q8 0 8 -8zM216 368v-32q0 -8 -8 -8
h-32q-8 0 -8 8v32q0 8 8 8h32q8 0 8 -8zM216 272v-32q0 -8 -8 -8h-32q-8 0 -8 8v32q0 8 8 8h32q8 0 8 -8zM312 368v-32q0 -8 -8 -8h-32q-8 0 -8 8v32q0 8 8 8h32q8 0 8 -8zM312 272v-32q0 -8 -8 -8h-32q-8 0 -8 8v32q0 8 8 8h32q8 0 8 -8zM312 176v-32q0 -8 -8 -8h-224
q-8 0 -8 8v32q0 8 8 8h224q8 0 8 -8zM320 32v16h-256v-16q0 -13 9.5 -22.5t22.5 -9.5h192q13 0 22.5 9.5t9.5 22.5zM64 480v-16h256v16q0 13 -9.5 22.5t-22.5 9.5h-192q-13 0 -22.5 -9.5t-9.5 -22.5z" />
</svg>
