<?xml version="1.0" standalone="no"?>
<!DOCTYPE svg PUBLIC "-//W3C//DTD SVG 1.1//EN" "http://www.w3.org/Graphics/SVG/1.1/DTD/svg11.dtd" >
<svg xmlns="http://www.w3.org/2000/svg" xmlns:xlink="http://www.w3.org/1999/xlink" version="1.1" viewBox="-10 0 596 512">
   <path fill="currentColor"
d="M562 384q6 1 10 5.5t4 10.5v32q0 4 -2.5 8t-6 6t-8.5 2q-43 -4 -79 -26q-41 26 -95 26t-97 -26q-41 26 -95 26t-97 -26q-17 11 -37.5 17.5t-41.5 8.5q-7 0 -12 -4.5t-5 -11.5v-32q0 -6 4 -10.5t10 -5.5q33 -4 57 -22q11 -9 24 -10t23 8q29 23 73 23.5t73 -22.5
q10 -8 23 -9t23 8q29 23 73.5 23.5t72.5 -22.5q11 -8 24.5 -8t23.5 8q25 19 58 23zM562 240q6 1 10 5.5t4 10.5v32q0 4 -2.5 8t-6 6t-8.5 2q-43 -4 -79 -26q-41 26 -95 26t-97 -26q-41 26 -95 26t-97 -26q-35 22 -79 26q-7 0 -12 -4.5t-5 -11.5v-32q0 -6 4 -10.5t10 -5.5
q33 -4 57 -22q11 -9 24 -10t23 8q29 23 73 23.5t73 -22.5q10 -8 23 -9t23 8q29 23 73.5 23.5t72.5 -22.5q11 -8 24.5 -8t23.5 8q25 19 58 23zM562 96q6 1 10 5.5t4 10.5v32q0 4 -2.5 8t-6 6t-8.5 2q-43 -4 -79 -26q-41 26 -95 26t-97 -26q-41 26 -95 26t-97 -26
q-35 22 -79 26q-7 0 -12 -4.5t-5 -11.5v-32q0 -6 4 -10.5t10 -5.5q33 -4 57 -22q11 -9 24 -10t23 8q29 23 73 23.5t73 -22.5q10 -8 23 -9t23 8q29 23 73.5 23.5t72.5 -22.5q11 -8 24.5 -8t23.5 8q24 19 58 23z" />
</svg>
