<?xml version="1.0" standalone="no"?>
<!DOCTYPE svg PUBLIC "-//W3C//DTD SVG 1.1//EN" "http://www.w3.org/Graphics/SVG/1.1/DTD/svg11.dtd" >
<svg xmlns="http://www.w3.org/2000/svg" xmlns:xlink="http://www.w3.org/1999/xlink" version="1.1" viewBox="-10 0 660 512">
   <path fill="currentColor"
d="M464 480q-17 0 -32 -4.5t-28 -14.5t-23.5 -20t-22 -28.5t-19 -31.5t-18 -36.5t-16 -37t-15.5 -39.5l-12 -31.5t-12 -29.5t-13.5 -29.5t-13.5 -25.5t-15 -23.5t-15 -17t-16 -12t-17 -3.5q-28 0 -61.5 47t-52.5 102q-4 11 -15 11q-3 0 -5 -1l-31 -9q-11 -3 -11 -15
q0 -3 1 -5q9 -26 23 -55t36 -62.5t52.5 -55t63.5 -21.5q19 0 36 7t30.5 16.5t27.5 28t22.5 33t21 41t18.5 41.5l18 45q10 27 16 41.5t16.5 38.5t19 37t19 27.5t21.5 21t22 6.5q28 0 61.5 -47t52.5 -102q4 -11 15 -11q3 0 5 1l31 9q11 3 11 15q0 3 -1 5q-9 26 -23 55
t-36 62.5t-52.5 55t-63.5 21.5z" />
</svg>
