<?xml version="1.0" standalone="no"?>
<!DOCTYPE svg PUBLIC "-//W3C//DTD SVG 1.1//EN" "http://www.w3.org/Graphics/SVG/1.1/DTD/svg11.dtd" >
<svg xmlns="http://www.w3.org/2000/svg" xmlns:xlink="http://www.w3.org/1999/xlink" version="1.1" viewBox="-10 0 660 512">
   <path fill="currentColor"
d="M624 263q7 0 11.5 4.5t4.5 11.5v16q0 7 -4.5 11.5t-11.5 4.5h-81l-24 117q-4 19 -24 19q-8 0 -15 -6t-8 -14l-25 -179l-39 243q-2 8 -9 14t-15.5 6t-15.5 -6t-8 -15l-40 -289l-40 289q-1 9 -8 15t-16 6q-8 0 -15 -6t-9 -14l-39 -243l-25 179q-1 8 -8 14t-15 6
q-20 1 -24 -19l-24 -117h-81q-7 0 -11.5 -4.5t-4.5 -11.5v-16q0 -7 4.5 -11.5t11.5 -4.5h44l12 -84q2 -8 8.5 -14t14.5 -6h1q8 0 15 5.5t8 13.5l21 103l28 -198q2 -8 8.5 -14t15.5 -6q4 0 8 1.5t7.5 4.5t5.5 6.5t3 7.5l38 239l42 -302q1 -9 8 -15t16 -6t16 6t8 15l42 302
l38 -239q2 -8 9 -14t15 -6q6 0 11 2.5t8.5 7.5t4.5 10l28 198l21 -103q1 -8 8.5 -13.5t14.5 -5.5h1q8 0 14.5 6t8.5 14l12 84h44z" />
</svg>
