<?xml version="1.0" standalone="no"?>
<!DOCTYPE svg PUBLIC "-//W3C//DTD SVG 1.1//EN" "http://www.w3.org/Graphics/SVG/1.1/DTD/svg11.dtd" >
<svg xmlns="http://www.w3.org/2000/svg" xmlns:xlink="http://www.w3.org/1999/xlink" version="1.1" viewBox="-10 0 656 512">
   <path fill="currentColor"
d="M140 192q7 0 11.5 4.5t4.5 11.5v96q0 7 -4.5 11.5t-11.5 4.5h-24q-7 0 -11.5 -4.5t-4.5 -11.5v-96q0 -7 4.5 -11.5t11.5 -4.5h24zM44 224q7 0 11.5 4.5t4.5 11.5v32q0 7 -4.5 11.5t-11.5 4.5h-24q-7 0 -11.5 -4.5t-4.5 -11.5v-32q0 -7 4.5 -11.5t11.5 -4.5h24zM236 96
q7 0 11.5 4.5t4.5 11.5v288q0 7 -4.5 11.5t-11.5 4.5h-24q-7 0 -11.5 -4.5t-4.5 -11.5v-288q0 -7 4.5 -11.5t11.5 -4.5h24zM620 224q7 0 11.5 4.5t4.5 11.5v32q0 7 -4.5 11.5t-11.5 4.5h-24q-7 0 -11.5 -4.5t-4.5 -11.5v-32q0 -7 4.5 -11.5t11.5 -4.5h24zM524 64
q7 0 11.5 4.5t4.5 11.5v352q0 7 -4.5 11.5t-11.5 4.5h-24q-7 0 -11.5 -4.5t-4.5 -11.5v-352q0 -7 4.5 -11.5t11.5 -4.5h24zM428 128q7 0 11.5 4.5t4.5 11.5v224q0 7 -4.5 11.5t-11.5 4.5h-24q-7 0 -11.5 -4.5t-4.5 -11.5v-224q0 -7 4.5 -11.5t11.5 -4.5h24zM332 0
q7 0 11.5 4.5t4.5 11.5v480q0 7 -4.5 11.5t-11.5 4.5h-24q-7 0 -11.5 -4.5t-4.5 -11.5v-480q0 -7 4.5 -11.5t11.5 -4.5h24z" />
</svg>
