<?xml version="1.0" standalone="no"?>
<!DOCTYPE svg PUBLIC "-//W3C//DTD SVG 1.1//EN" "http://www.w3.org/Graphics/SVG/1.1/DTD/svg11.dtd" >
<svg xmlns="http://www.w3.org/2000/svg" xmlns:xlink="http://www.w3.org/1999/xlink" version="1.1" viewBox="-10 0 660 512">
   <path fill="currentColor"
d="M163 257q12 56 57.5 92.5t106.5 33.5l164 127q-5 2 -11 2h-320q-13 0 -22.5 -9.5t-9.5 -22.5v-14q0 -18 15 -27l49 -31q-44 -31 -70 -79.5t-26 -104.5q0 -7 1 -18zM634 458q6 5 6 13q0 5 -3 10l-20 25q-5 6 -13 6q-5 0 -9 -3l-589 -455q-6 -5 -6 -13q0 -5 3 -10l20 -25
q5 -6 13 -6q5 0 9 3l102 79q28 -34 78.5 -58t94.5 -24q93 0 158.5 65.5t65.5 158.5q0 72 -43 131zM320 176q7 0 11.5 -4.5t4.5 -11.5t-4.5 -11.5t-11.5 -4.5q-10 0 -21 3.5t-21 9.5t-17 13l26 20q13 -14 33 -14zM450 316q12 -17 21 -44t9 -48q0 -66 -47 -113t-113 -47
q-74 0 -122 58l25 19q16 -19 44.5 -32t52.5 -13q53 0 90.5 37.5t37.5 90.5q0 17 -7 38t-16 35z" />
</svg>
