<?xml version="1.0" standalone="no"?>
<!DOCTYPE svg PUBLIC "-//W3C//DTD SVG 1.1//EN" "http://www.w3.org/Graphics/SVG/1.1/DTD/svg11.dtd" >
<svg xmlns="http://www.w3.org/2000/svg" xmlns:xlink="http://www.w3.org/1999/xlink" version="1.1" viewBox="-10 0 469 512">
   <path fill="currentColor"
d="M402 439q15 9 15 27v14q0 13 -9 22.5t-23 9.5h-320q-13 0 -22.5 -9.5t-9.5 -22.5v-14q0 -18 15 -27l50 -31q-45 -31 -71 -79.5t-26 -104.5q0 -93 66 -158.5t158.5 -65.5t158 65.5t65.5 158.5q0 37 -12 72t-33.5 63t-50.5 49zM225.5 384q66.5 0 113 -47t46.5 -113
t-46.5 -113t-113 -47t-113.5 47t-47 113t47 113t113.5 47zM225 96q53 0 90.5 37.5t37.5 90.5t-37.5 90.5t-90.5 37.5t-90.5 -37.5t-37.5 -90.5t37.5 -90.5t90.5 -37.5zM225 176q7 0 11.5 -4.5t4.5 -11.5t-4.5 -11.5t-11.5 -4.5q-33 0 -56.5 23.5t-23.5 56.5q0 7 5 11.5
t11.5 4.5t11 -4.5t4.5 -11.5q0 -20 14 -34t34 -14z" />
</svg>
