<?xml version="1.0" standalone="no"?>
<!DOCTYPE svg PUBLIC "-//W3C//DTD SVG 1.1//EN" "http://www.w3.org/Graphics/SVG/1.1/DTD/svg11.dtd" >
<svg xmlns="http://www.w3.org/2000/svg" xmlns:xlink="http://www.w3.org/1999/xlink" version="1.1" viewBox="-11 0 534 512">
   <path fill="currentColor"
d="M510 446q7 25 -7.5 45.5t-38.5 20.5h-416q-24 0 -38.5 -20.5t-7.5 -45.5l73 -292q3 -12 11.5 -19t19.5 -7h60q-6 -16 -6 -32q0 -40 28 -68t68 -28q26 0 48 13t35 35t13 48q0 15 -6 32h60q8 0 14 3t10.5 9t6.5 14zM256 128q13 0 22.5 -9.5t9.5 -22.5t-9.5 -22.5
t-22.5 -9.5t-22.5 9.5t-9.5 22.5t9.5 22.5t22.5 9.5z" />
</svg>
