<?xml version="1.0" standalone="no"?>
<!DOCTYPE svg PUBLIC "-//W3C//DTD SVG 1.1//EN" "http://www.w3.org/Graphics/SVG/1.1/DTD/svg11.dtd" >
<svg xmlns="http://www.w3.org/2000/svg" xmlns:xlink="http://www.w3.org/1999/xlink" version="1.1" viewBox="-10 0 532 512">
   <path fill="currentColor"
d="M482 114q-38 34 -113 29q1 -7 -0.5 -24t6 -44.5t24.5 -44.5q37 -34 112 -29q5 75 -29 113zM438 170q32 12 62 46q-45 50 -90 52q-40 -1 -79 -41l-42 41q11 -3 19 -3q46 2 90 52q-44 51 -90 53q-40 -2 -79 -41l-42 41q11 -3 19 -3q46 2 90 52q-20 23 -43 37.5t-47 15.5
q-39 -2 -79 -42l-72 73q-10 9 -23 9t-22.5 -9.5t-9.5 -22.5t9 -23l73 -72q-40 -40 -41 -79q1 -45 52 -89q7 5 16.5 14.5t22.5 31.5t13 43q0 8 -3 19l41 -42q-39 -40 -40 -79q1 -45 51 -89q8 5 17.5 14.5t22.5 32t13 43.5q0 8 -3 18l41 -42q-39 -39 -41 -78q2 -46 52 -90
q32 24 46 59q-10 39 -5 76l4 26l26 1q10 1 19 1q25 0 52 -6z" />
</svg>
