<?xml version="1.0" standalone="no"?>
<!DOCTYPE svg PUBLIC "-//W3C//DTD SVG 1.1//EN" "http://www.w3.org/Graphics/SVG/1.1/DTD/svg11.dtd" >
<svg xmlns="http://www.w3.org/2000/svg" xmlns:xlink="http://www.w3.org/1999/xlink" version="1.1" viewBox="-11 0 662 512">
   <path fill="currentColor"
d="M5 155q2 -2 7 -6t6 -5l65 50q-14 11 -22 18q-11 11 -22 0l-34 -34q-5 -5 -5 -12t5 -11zM477 337l157 121q12 10 3 23l-20 25q-10 12 -22 3l-589 -455q-12 -10 -3 -23l20 -25q10 -12 22 -3l88 68q123 -55 261 -33t241 117q5 4 5 11t-5 12l-34 34q-11 11 -22 0
q-76 -69 -177 -91t-194 8l83 64q62 -5 122.5 14t108.5 61q5 5 5 12t-5 12zM118 268q13 -11 31 -23l68 53q-26 13 -43 28q-11 10 -22 0l-34 -34q-5 -5 -5 -12t5 -12zM256 416q0 -19 10.5 -35t27.5 -24l89 69q-4 23 -21.5 38.5t-41.5 15.5q-27 0 -45.5 -18.5t-18.5 -45.5z" />
</svg>
