<?xml version="1.0" standalone="no"?>
<!DOCTYPE svg PUBLIC "-//W3C//DTD SVG 1.1//EN" "http://www.w3.org/Graphics/SVG/1.1/DTD/svg11.dtd" >
<svg xmlns="http://www.w3.org/2000/svg" xmlns:xlink="http://www.w3.org/1999/xlink" version="1.1" viewBox="-10 0 660 512">
   <path fill="currentColor"
d="M635 155q5 4 5 11t-5 12l-34 34q-11 11 -22 0q-110 -100 -259 -100t-259 100q-11 11 -22 0l-34 -34q-5 -5 -5 -12t5 -11q87 -81 201 -109.5t228 0t201 109.5zM320 352q27 0 45.5 18.5t18.5 45.5t-18.5 45.5t-45.5 18.5t-45.5 -18.5t-18.5 -45.5t18.5 -45.5t45.5 -18.5z
M523 268q5 5 5 12t-5 12l-34 34q-11 10 -22 0q-63 -54 -147 -54t-147 54q-11 10 -22 0l-34 -34q-5 -5 -5 -12t5 -12q87 -76 203 -76t203 76z" />
</svg>
