<?xml version="1.0" standalone="no"?>
<!DOCTYPE svg PUBLIC "-//W3C//DTD SVG 1.1//EN" "http://www.w3.org/Graphics/SVG/1.1/DTD/svg11.dtd" >
<svg xmlns="http://www.w3.org/2000/svg" xmlns:xlink="http://www.w3.org/1999/xlink" version="1.1" viewBox="-10 0 533 512">
   <path fill="currentColor"
d="M157 256q37 0 65.5 23.5t32.5 59.5q6 44 -23 76.5t-72 32.5q-35 0 -61.5 -22t-32.5 -56q-2 -7 3 -12.5t13 -5.5h32q12 0 16 10q7 22 30 22q10 0 17.5 -5t11.5 -14t3 -18q-2 -12 -12 -19.5t-22 -7.5h-142q-7 0 -11.5 -4.5t-4.5 -11.5v-32q0 -7 4.5 -11.5t11.5 -4.5h141z
M16 224q-7 0 -11.5 -4.5t-4.5 -11.5v-32q0 -7 4.5 -11.5t11.5 -4.5h334q12 0 22 -7.5t12 -19.5q2 -14 -7.5 -25.5t-24.5 -11.5q-23 0 -30 22q-4 10 -16 10h-32q-5 0 -9 -2.5t-6 -7t-1 -8.5q5 -25 21.5 -44.5t41.5 -28t52 -3t47 25.5t26 47q9 46 -20 81.5t-74 35.5h-336z
M400 256q54 0 88 42t21 97q-7 30 -30.5 53t-54.5 29q-43 10 -79 -11.5t-50 -60.5q-3 -8 2 -14.5t13 -6.5h34q10 0 14 8q14 24 42 24q20 0 34 -14t14 -34t-14 -34t-34 -14h-116q-11 -38 -40 -64h156z" />
</svg>
