<?xml version="1.0" standalone="no"?>
<!DOCTYPE svg PUBLIC "-//W3C//DTD SVG 1.1//EN" "http://www.w3.org/Graphics/SVG/1.1/DTD/svg11.dtd" >
<svg xmlns="http://www.w3.org/2000/svg" xmlns:xlink="http://www.w3.org/1999/xlink" version="1.1" viewBox="-10 0 532 512">
   <path fill="currentColor"
d="M464 32q20 0 34 14t14 34v352q0 20 -14 34t-34 14h-416q-20 0 -34 -14t-14 -34v-352q0 -20 14 -34t34 -14h416zM380 322l-67 -66l67 -66q9 -9 0 -18l-40 -40q-9 -9 -18 0l-66 67l-66 -67q-9 -9 -18 0l-40 40q-9 9 0 18l67 66l-67 66q-9 9 0 18l40 40q9 9 18 0l66 -67
l66 67q9 9 18 0l40 -40q9 -9 0 -18z" />
</svg>
