<?xml version="1.0" standalone="no"?>
<!DOCTYPE svg PUBLIC "-//W3C//DTD SVG 1.1//EN" "http://www.w3.org/Graphics/SVG/1.1/DTD/svg11.dtd" >
<svg xmlns="http://www.w3.org/2000/svg" xmlns:xlink="http://www.w3.org/1999/xlink" version="1.1" viewBox="-10 0 661 512">
   <path fill="currentColor"
d="M635 162q15 48 -14 87t-77 39h-150q14 -30 19 -64h129q12 0 22 -7.5t12 -19.5q2 -14 -7.5 -25.5t-24.5 -11.5q-23 0 -30 22q-4 10 -16 10h-32q-8 0 -13 -6t-3 -13q8 -41 44.5 -63.5t80.5 -8.5q21 6 37.5 22.5t22.5 38.5zM638 397q9 45 -20 80t-74 35q-23 0 -43 -10
t-33.5 -27.5t-17.5 -39.5q-2 -7 3 -13t13 -6h32q12 0 16 10q7 22 30 22q15 0 24.5 -11.5t7.5 -25.5q-2 -12 -12 -19.5t-22 -7.5h-233h-1h-1q42 -25 69 -64h164q35 0 63.5 21.5t34.5 55.5zM384 192q0 80 -56 136t-136 56t-136 -56t-56 -136t56 -136t136 -56t136 56t56 136z
M192 320q13 0 22.5 -9.5t9.5 -22.5t-9.5 -22.5t-22.5 -9.5t-22.5 9.5t-9.5 22.5t9.5 22.5t22.5 9.5zM217 210l13 -128q1 -5 -1 -9t-6 -6.5t-9 -2.5h-44q-7 0 -12 5.5t-4 12.5l13 128q0 6 4.5 10t10.5 4h20q6 0 10.5 -4t4.5 -10z" />
</svg>
