<?xml version="1.0" standalone="no"?>
<!DOCTYPE svg PUBLIC "-//W3C//DTD SVG 1.1//EN" "http://www.w3.org/Graphics/SVG/1.1/DTD/svg11.dtd" >
<svg xmlns="http://www.w3.org/2000/svg" xmlns:xlink="http://www.w3.org/1999/xlink" version="1.1" viewBox="-10 0 533 512">
   <path fill="currentColor"
d="M507 73q12 11 0 22l-22 23q-12 11 -23 0l-77 76q16 35 8.5 74t-35.5 67l-158 158q-19 19 -45.5 19t-45.5 -19l-90 -90q-19 -19 -19 -45.5t19 -45.5l158 -158q28 -28 67 -35.5t74 8.5l76 -77q-11 -11 0 -23l23 -22q11 -12 22 0zM179 423l122 -122l-90 -90l-122 122z" />
</svg>
