<?xml version="1.0" standalone="no"?>
<!DOCTYPE svg PUBLIC "-//W3C//DTD SVG 1.1//EN" "http://www.w3.org/Graphics/SVG/1.1/DTD/svg11.dtd" >
<svg xmlns="http://www.w3.org/2000/svg" xmlns:xlink="http://www.w3.org/1999/xlink" version="1.1" viewBox="-10 0 308 512">
   <path fill="currentColor"
d="M216 464q17 0 28.5 11.5t11.5 28.5q0 8 -8 8h-208q-8 0 -8 -8q0 -17 11.5 -28.5t28.5 -11.5h40v-117q-52 -12 -84 -55.5t-27 -98.5l16 -178q0 -5 2 -8t5.5 -5t7.5 -2h224q6 0 10.5 4t4.5 11l16 178q5 55 -27 98.5t-84 55.5v117h40zM62 48l-7 80h178l-7 -80h-164z" />
</svg>
