<?xml version="1.0" standalone="no"?>
<!DOCTYPE svg PUBLIC "-//W3C//DTD SVG 1.1//EN" "http://www.w3.org/Graphics/SVG/1.1/DTD/svg11.dtd" >
<svg xmlns="http://www.w3.org/2000/svg" xmlns:xlink="http://www.w3.org/1999/xlink" version="1.1" viewBox="-10 0 468 512">
   <path fill="currentColor"
d="M299 385q5 -2 10 -0.5t8 6t3 9.5v96q0 8 -6.5 13t-14.5 2l-75 -31l-75 31q-4 2 -7.5 1t-6.5 -3t-5 -5.5t-2 -7.5v-96q0 -8 6.5 -13t14.5 -2l75 31zM448 224q0 26 -22 40q15 22 5 46t-36 28q5 26 -12 44q-13 13 -31 14q-1 -12 -7.5 -22t-17.5 -16t-23 -6q-7 0 -15 2l-1 1
h-1l-63 26l-63 -26h-1l-1 -1q-7 -2 -15 -2q-19 0 -34 14q-12 12 -14 30q-18 -1 -30 -14q-18 -17 -12 -44q-27 -4 -37 -28t5 -46q-22 -14 -22 -40t22 -40q-15 -22 -5 -46t37 -29q-6 -26 11.5 -43.5t44.5 -11.5q4 -27 28 -37t46 5q14 -22 40 -22t40 22q22 -15 46 -5t29 37
q26 -6 43.5 11.5t11.5 43.5q27 5 37 29t-5 46q22 14 22 40zM302 250q0 -2 5 -11.5t5 -14.5q0 -4 -2 -8.5t-4.5 -9.5t-4 -8.5t-2 -9t-1.5 -10.5t-3 -8q-3 -4 -12 -8.5t-11 -6t-9 -9t-12 -9.5q-2 -1 -6 -1t-7 1t-7 1.5t-7 0.5t-12.5 -2t-14.5 0t-12 9.5t-9 9t-11 6t-12 8.5
q-2 3 -3 8t-1.5 10.5t-2.5 9.5q0 2 -5 11.5t-5 14.5t5 14.5t5 11.5q1 3 2.5 13.5t4.5 14.5t12 8.5t11 6t9 9t12 9.5t14.5 0t12.5 -2t12.5 2t14.5 0q4 -1 7.5 -4.5t7 -7.5t6.5 -6q2 -2 11 -6.5t12 -8.5t4.5 -14.5t2.5 -13.5z" />
</svg>
