<?xml version="1.0" standalone="no"?>
<!DOCTYPE svg PUBLIC "-//W3C//DTD SVG 1.1//EN" "http://www.w3.org/Graphics/SVG/1.1/DTD/svg11.dtd" >
<svg xmlns="http://www.w3.org/2000/svg" xmlns:xlink="http://www.w3.org/1999/xlink" version="1.1" viewBox="-10 0 533 512">
   <path fill="currentColor"
d="M508 109q9 36 -1 72.5t-37 64.5q-30 29 -70 38t-78 -4l-213 213q-19 19 -45.5 19t-45 -18.5t-18.5 -45t19 -45.5l213 -214q-13 -37 -4 -77.5t38 -69.5q27 -27 64 -37t73 -1q7 2 8.5 8.5t-3.5 11.5l-74 75l11 68l68 11l75 -74q5 -5 11.5 -3.5t8.5 8.5zM64 472q10 0 17 -7
t7 -17t-7 -17t-17 -7t-17 7t-7 17t7 17t17 7z" />
</svg>
